<?xml version="1.0" encoding="utf-8"?>
<svg xmlns="http://www.w3.org/2000/svg" xmlns:xlink="http://www.w3.org/1999/xlink" width="600" height="400" viewBox="0 0 2400 1600">
<defs>
  <clipPath id="clip830">
    <rect x="0" y="0" width="2400" height="1600"/>
  </clipPath>
</defs>
<path clip-path="url(#clip830)" d="M0 1600 L2400 1600 L2400 0 L0 0  Z" fill="#ffffff" fill-rule="evenodd" fill-opacity="1"/>
<defs>
  <clipPath id="clip831">
    <rect x="480" y="0" width="1681" height="1600"/>
  </clipPath>
</defs>
<defs>
  <clipPath id="clip832">
    <rect x="230" y="47" width="2124" height="1364"/>
  </clipPath>
</defs>
<path clip-path="url(#clip830)" d="M230.203 1410.22 L2352.76 1410.22 L2352.76 47.2441 L230.203 47.2441  Z" fill="#ffffff" fill-rule="evenodd" fill-opacity="1"/>
<polyline clip-path="url(#clip830)" style="stroke:#000000; stroke-linecap:round; stroke-linejoin:round; stroke-width:4; stroke-opacity:1; fill:none" points="230.203,1410.22 2352.76,1410.22 "/>
<polyline clip-path="url(#clip830)" style="stroke:#000000; stroke-linecap:round; stroke-linejoin:round; stroke-width:4; stroke-opacity:1; fill:none" points="230.203,47.2441 2352.76,47.2441 "/>
<polyline clip-path="url(#clip830)" style="stroke:#000000; stroke-linecap:round; stroke-linejoin:round; stroke-width:4; stroke-opacity:1; fill:none" points="290.276,1410.22 290.276,1391.32 "/>
<polyline clip-path="url(#clip830)" style="stroke:#000000; stroke-linecap:round; stroke-linejoin:round; stroke-width:4; stroke-opacity:1; fill:none" points="624.01,1410.22 624.01,1391.32 "/>
<polyline clip-path="url(#clip830)" style="stroke:#000000; stroke-linecap:round; stroke-linejoin:round; stroke-width:4; stroke-opacity:1; fill:none" points="957.745,1410.22 957.745,1391.32 "/>
<polyline clip-path="url(#clip830)" style="stroke:#000000; stroke-linecap:round; stroke-linejoin:round; stroke-width:4; stroke-opacity:1; fill:none" points="1291.48,1410.22 1291.48,1391.32 "/>
<polyline clip-path="url(#clip830)" style="stroke:#000000; stroke-linecap:round; stroke-linejoin:round; stroke-width:4; stroke-opacity:1; fill:none" points="1625.21,1410.22 1625.21,1391.32 "/>
<polyline clip-path="url(#clip830)" style="stroke:#000000; stroke-linecap:round; stroke-linejoin:round; stroke-width:4; stroke-opacity:1; fill:none" points="1958.95,1410.22 1958.95,1391.32 "/>
<polyline clip-path="url(#clip830)" style="stroke:#000000; stroke-linecap:round; stroke-linejoin:round; stroke-width:4; stroke-opacity:1; fill:none" points="2292.68,1410.22 2292.68,1391.32 "/>
<path clip-path="url(#clip830)" d="M293.873 1466.71 Q294.244 1467.08 294.244 1467.61 Q294.244 1468.13 293.873 1468.51 Q293.502 1468.88 292.977 1468.88 L253.39 1468.88 Q252.865 1468.88 252.495 1468.51 Q252.124 1468.13 252.124 1467.61 Q252.124 1467.08 252.495 1466.71 Q252.865 1466.34 253.39 1466.34 L292.977 1466.34 Q293.502 1466.34 293.873 1466.71 Z" fill="#000000" fill-rule="nonzero" fill-opacity="1" /><path clip-path="url(#clip830)" d="M301.315 1453.68 L303.384 1440.68 L304.959 1440.68 Q305.144 1441.46 305.453 1441.79 Q305.792 1442.13 307.583 1442.41 Q309.405 1442.69 313.08 1442.69 L328.427 1442.69 Q328.427 1444.14 327.871 1444.91 L319.317 1456.93 Q316.6 1460.72 315.396 1467.73 Q314.686 1472.43 314.716 1478.11 L314.716 1481.32 Q314.716 1484.81 311.783 1484.81 Q308.88 1484.81 308.88 1481.32 Q308.88 1469.25 316.662 1457.54 Q317.496 1456.34 320.553 1452.05 Q323.641 1447.75 323.764 1447.57 L310.671 1447.57 Q304.928 1447.57 304.465 1447.94 Q303.847 1448.5 302.89 1453.68 L301.315 1453.68 Z" fill="#000000" fill-rule="nonzero" fill-opacity="1" /><path clip-path="url(#clip830)" d="M628.488 1466.71 Q628.858 1467.08 628.858 1467.61 Q628.858 1468.13 628.488 1468.51 Q628.117 1468.88 627.592 1468.88 L588.005 1468.88 Q587.48 1468.88 587.11 1468.51 Q586.739 1468.13 586.739 1467.61 Q586.739 1467.08 587.11 1466.71 Q587.48 1466.34 588.005 1466.34 L627.592 1466.34 Q628.117 1466.34 628.488 1466.71 Z" fill="#000000" fill-rule="nonzero" fill-opacity="1" /><path clip-path="url(#clip830)" d="M635.034 1463.44 Q635.034 1453.5 640.098 1447.41 Q645.162 1441.3 651.678 1441.3 Q655.476 1441.3 657.576 1443.25 Q659.707 1445.16 659.707 1448.12 Q659.707 1449.76 658.749 1450.47 Q657.792 1451.18 656.804 1451.18 Q655.661 1451.18 654.766 1450.41 Q653.87 1449.64 653.87 1448.25 Q653.87 1445.41 657.36 1445.41 Q655.723 1442.88 651.802 1442.88 Q650.597 1442.88 649.362 1443.25 Q648.127 1443.59 646.521 1444.76 Q644.915 1445.93 643.68 1447.79 Q642.445 1449.64 641.581 1453.13 Q640.716 1456.62 640.716 1461.16 L640.716 1462.67 Q643.31 1456.4 648.621 1456.43 Q653.932 1456.43 657.607 1460.48 Q661.281 1464.52 661.281 1470.51 Q661.281 1476.66 657.452 1480.73 Q653.623 1484.81 648.25 1484.81 Q645.842 1484.81 643.649 1483.79 Q641.488 1482.8 639.45 1480.52 Q637.443 1478.23 636.238 1473.85 Q635.034 1469.46 635.034 1463.44 M640.839 1469.12 Q640.839 1475.33 641.982 1478.29 Q642.167 1478.79 642.569 1479.47 Q643.001 1480.15 643.711 1481.04 Q644.452 1481.91 645.657 1482.49 Q646.861 1483.05 648.25 1483.05 Q652.481 1483.05 654.519 1478.94 Q655.6 1476.66 655.6 1470.45 Q655.6 1464.12 654.457 1461.8 Q652.512 1457.88 648.559 1457.88 Q645.904 1457.88 644.051 1459.7 Q642.229 1461.53 641.519 1463.97 Q640.839 1466.41 640.839 1469.12 Z" fill="#000000" fill-rule="nonzero" fill-opacity="1" /><path clip-path="url(#clip830)" d="M962.469 1466.71 Q962.84 1467.08 962.84 1467.61 Q962.84 1468.13 962.469 1468.51 Q962.099 1468.88 961.574 1468.88 L921.987 1468.88 Q921.462 1468.88 921.091 1468.51 Q920.721 1468.13 920.721 1467.61 Q920.721 1467.08 921.091 1466.71 Q921.462 1466.34 921.987 1466.34 L961.574 1466.34 Q962.099 1466.34 962.469 1466.71 Z" fill="#000000" fill-rule="nonzero" fill-opacity="1" /><path clip-path="url(#clip830)" d="M969.51 1473.23 Q969.51 1471.35 970.529 1470.64 Q971.548 1469.89 972.629 1469.89 Q974.08 1469.89 974.914 1470.82 Q975.778 1471.72 975.778 1472.98 Q975.778 1474.25 974.914 1475.18 Q974.08 1476.07 972.629 1476.07 Q971.918 1476.07 971.548 1475.95 Q972.382 1478.85 974.914 1480.95 Q977.477 1483.05 980.843 1483.05 Q985.073 1483.05 987.605 1478.94 Q989.118 1476.29 989.118 1470.27 Q989.118 1464.95 987.976 1462.3 Q986.216 1458.25 982.603 1458.25 Q977.477 1458.25 974.451 1462.67 Q974.08 1463.22 973.648 1463.26 Q973.03 1463.26 972.876 1462.92 Q972.752 1462.55 972.752 1461.59 L972.752 1442.88 Q972.752 1441.36 973.37 1441.36 Q973.617 1441.36 974.142 1441.55 Q978.125 1443.31 982.541 1443.34 Q987.08 1443.34 991.156 1441.49 Q991.465 1441.3 991.65 1441.3 Q992.268 1441.3 992.299 1442.01 Q992.299 1442.26 991.774 1443 Q991.28 1443.71 990.199 1444.67 Q989.118 1445.59 987.729 1446.49 Q986.339 1447.38 984.301 1448 Q982.294 1448.59 980.071 1448.59 Q977.415 1448.59 974.698 1447.75 L974.698 1460.08 Q977.971 1456.86 982.726 1456.86 Q987.79 1456.86 991.28 1460.94 Q994.769 1465.02 994.769 1470.7 Q994.769 1476.66 990.631 1480.73 Q986.524 1484.81 980.966 1484.81 Q975.902 1484.81 972.69 1481.2 Q969.51 1477.58 969.51 1473.23 Z" fill="#000000" fill-rule="nonzero" fill-opacity="1" /><path clip-path="url(#clip830)" d="M1295.51 1466.71 Q1295.88 1467.08 1295.88 1467.61 Q1295.88 1468.13 1295.51 1468.51 Q1295.14 1468.88 1294.61 1468.88 L1255.03 1468.88 Q1254.5 1468.88 1254.13 1468.51 Q1253.76 1468.13 1253.76 1467.61 Q1253.76 1467.08 1254.13 1466.71 Q1254.5 1466.34 1255.03 1466.34 L1294.61 1466.34 Q1295.14 1466.34 1295.51 1466.71 Z" fill="#000000" fill-rule="nonzero" fill-opacity="1" /><path clip-path="url(#clip830)" d="M1301.16 1472.98 L1301.16 1471.04 L1320.58 1441.36 Q1321.08 1440.59 1321.85 1440.62 Q1322.56 1440.62 1322.71 1440.9 Q1322.87 1441.18 1322.87 1442.26 L1322.87 1471.04 L1329.2 1471.04 L1329.2 1472.98 L1322.87 1472.98 L1322.87 1478.48 Q1322.87 1480.3 1323.61 1480.89 Q1324.38 1481.47 1327.65 1481.47 L1328.98 1481.47 L1328.98 1483.42 Q1326.39 1483.23 1320.4 1483.23 Q1314.44 1483.23 1311.84 1483.42 L1311.84 1481.47 L1313.17 1481.47 Q1316.45 1481.47 1317.22 1480.92 Q1317.99 1480.33 1317.99 1478.48 L1317.99 1472.98 L1301.16 1472.98 M1302.95 1471.04 L1318.36 1471.04 L1318.36 1447.45 L1302.95 1471.04 Z" fill="#000000" fill-rule="nonzero" fill-opacity="1" /><path clip-path="url(#clip830)" d="M1629.69 1466.71 Q1630.06 1467.08 1630.06 1467.61 Q1630.06 1468.13 1629.69 1468.51 Q1629.32 1468.88 1628.8 1468.88 L1589.21 1468.88 Q1588.68 1468.88 1588.31 1468.51 Q1587.94 1468.13 1587.94 1467.61 Q1587.94 1467.08 1588.31 1466.71 Q1588.68 1466.34 1589.21 1466.34 L1628.8 1466.34 Q1629.32 1466.34 1629.69 1466.71 Z" fill="#000000" fill-rule="nonzero" fill-opacity="1" /><path clip-path="url(#clip830)" d="M1636.24 1474.9 Q1636.24 1473.01 1637.32 1472.12 Q1638.4 1471.22 1639.79 1471.22 Q1641.24 1471.22 1642.26 1472.18 Q1643.31 1473.11 1643.31 1474.74 Q1643.31 1476.5 1642.07 1477.49 Q1640.87 1478.48 1639.14 1478.23 Q1640.65 1480.76 1643.43 1481.91 Q1646.24 1483.05 1648.84 1483.05 Q1651.55 1483.05 1653.75 1480.7 Q1655.97 1478.36 1655.97 1472.61 Q1655.97 1467.73 1654.06 1464.92 Q1652.17 1462.11 1648.44 1462.11 L1645.66 1462.11 Q1644.7 1462.11 1644.42 1462.02 Q1644.14 1461.93 1644.14 1461.4 Q1644.14 1460.79 1645.1 1460.66 Q1646.06 1460.66 1647.57 1460.48 Q1651.25 1460.35 1653.19 1457.17 Q1654.95 1454.21 1654.95 1449.98 Q1654.95 1446.12 1653.1 1444.51 Q1651.28 1442.88 1648.9 1442.88 Q1646.68 1442.88 1644.24 1443.8 Q1641.8 1444.73 1640.47 1446.8 Q1644.39 1446.8 1644.39 1449.98 Q1644.39 1451.37 1643.49 1452.29 Q1642.63 1453.19 1641.18 1453.19 Q1639.79 1453.19 1638.86 1452.32 Q1637.94 1451.43 1637.94 1449.92 Q1637.94 1446.3 1641.15 1443.8 Q1644.39 1441.3 1649.15 1441.3 Q1653.84 1441.3 1657.3 1443.77 Q1660.79 1446.24 1660.79 1450.04 Q1660.79 1453.78 1658.32 1456.83 Q1655.85 1459.89 1651.92 1461.16 Q1656.74 1462.11 1659.61 1465.39 Q1662.49 1468.63 1662.49 1472.61 Q1662.49 1477.55 1658.59 1481.2 Q1654.7 1484.81 1649.02 1484.81 Q1643.77 1484.81 1640.01 1481.97 Q1636.24 1479.13 1636.24 1474.9 Z" fill="#000000" fill-rule="nonzero" fill-opacity="1" /><path clip-path="url(#clip830)" d="M1963.67 1466.71 Q1964.04 1467.08 1964.04 1467.61 Q1964.04 1468.13 1963.67 1468.51 Q1963.3 1468.88 1962.78 1468.88 L1923.19 1468.88 Q1922.67 1468.88 1922.3 1468.51 Q1921.92 1468.13 1921.92 1467.61 Q1921.92 1467.08 1922.3 1466.71 Q1922.67 1466.34 1923.19 1466.34 L1962.78 1466.34 Q1963.3 1466.34 1963.67 1466.71 Z" fill="#000000" fill-rule="nonzero" fill-opacity="1" /><path clip-path="url(#clip830)" d="M1970.71 1483.42 Q1970.71 1482.28 1970.81 1481.94 Q1970.93 1481.6 1971.42 1481.07 L1983.56 1467.55 Q1990.2 1460.08 1990.2 1453.56 Q1990.2 1449.33 1987.98 1446.3 Q1985.78 1443.28 1981.74 1443.28 Q1978.96 1443.28 1976.61 1444.98 Q1974.27 1446.67 1973.18 1449.7 Q1973.37 1449.64 1974.02 1449.64 Q1975.59 1449.64 1976.46 1450.63 Q1977.35 1451.61 1977.35 1452.94 Q1977.35 1454.64 1976.24 1455.47 Q1975.16 1456.28 1974.08 1456.28 Q1973.65 1456.28 1973.06 1456.18 Q1972.5 1456.09 1971.61 1455.23 Q1970.71 1454.33 1970.71 1452.76 Q1970.71 1448.34 1974.05 1444.82 Q1977.41 1441.3 1982.54 1441.3 Q1988.35 1441.3 1992.14 1444.76 Q1995.97 1448.19 1995.97 1453.56 Q1995.97 1455.44 1995.39 1457.17 Q1994.83 1458.87 1994.06 1460.2 Q1993.32 1461.53 1991.28 1463.66 Q1989.24 1465.79 1987.6 1467.3 Q1985.97 1468.81 1982.29 1472.03 L1975.59 1478.54 L1986.99 1478.54 Q1992.55 1478.54 1992.98 1478.05 Q1993.6 1477.15 1994.37 1472.43 L1995.97 1472.43 L1994.18 1483.42 L1970.71 1483.42 Z" fill="#000000" fill-rule="nonzero" fill-opacity="1" /><path clip-path="url(#clip830)" d="M2298.37 1466.71 Q2298.74 1467.08 2298.74 1467.61 Q2298.74 1468.13 2298.37 1468.51 Q2297.99 1468.88 2297.47 1468.88 L2257.88 1468.88 Q2257.36 1468.88 2256.99 1468.51 Q2256.62 1468.13 2256.62 1467.61 Q2256.62 1467.08 2256.99 1466.71 Q2257.36 1466.34 2257.88 1466.34 L2297.47 1466.34 Q2297.99 1466.34 2298.37 1466.71 Z" fill="#000000" fill-rule="nonzero" fill-opacity="1" /><path clip-path="url(#clip830)" d="M2307.88 1447.32 L2307.88 1445.35 Q2315.47 1445.35 2319.39 1441.3 Q2320.47 1441.3 2320.66 1441.55 Q2320.85 1441.79 2320.85 1442.94 L2320.85 1478.42 Q2320.85 1480.3 2321.77 1480.89 Q2322.7 1481.47 2326.74 1481.47 L2328.75 1481.47 L2328.75 1483.42 Q2326.53 1483.23 2318.5 1483.23 Q2310.47 1483.23 2308.28 1483.42 L2308.28 1481.47 L2310.28 1481.47 Q2314.27 1481.47 2315.23 1480.92 Q2316.18 1480.33 2316.18 1478.42 L2316.18 1445.65 Q2312.88 1447.32 2307.88 1447.32 Z" fill="#000000" fill-rule="nonzero" fill-opacity="1" /><path clip-path="url(#clip830)" d="M1317.01 1517.34 Q1317.01 1518.78 1315.82 1518.78 Q1313.71 1518.85 1312.27 1519.27 Q1310.83 1519.66 1309.98 1520.43 Q1309.18 1521.21 1308.72 1522.05 Q1308.3 1522.86 1308.02 1524.09 L1301.62 1549.63 Q1299.8 1556.83 1293.89 1562.07 Q1287.99 1567.27 1281.28 1567.27 Q1277.45 1567.27 1274.25 1565.69 Q1271.09 1564.11 1269.12 1560.91 Q1267.16 1557.71 1267.16 1553.46 Q1267.16 1551.42 1267.68 1549.28 L1272.04 1531.5 L1273.66 1525.18 Q1274.85 1520.5 1274.85 1520.08 Q1274.85 1519.42 1274.43 1519.24 Q1274.04 1519.03 1272.92 1518.92 L1270.18 1518.78 Q1269.33 1518.78 1268.98 1518.75 Q1268.67 1518.71 1268.42 1518.54 Q1268.17 1518.36 1268.17 1517.97 Q1268.17 1517.48 1268.28 1517.17 Q1268.42 1516.82 1268.67 1516.71 Q1268.91 1516.6 1269.09 1516.57 Q1269.26 1516.53 1269.55 1516.53 L1278.82 1516.75 L1288.03 1516.53 Q1289.04 1516.53 1289.04 1517.34 Q1289.04 1518.36 1288.59 1518.57 Q1288.13 1518.78 1286.58 1518.78 Q1283.95 1518.78 1282.76 1519.13 Q1281.6 1519.45 1281.24 1520.01 Q1280.93 1520.54 1280.54 1522.09 L1273.55 1550.09 Q1273.2 1551.49 1272.99 1552.9 Q1272.81 1554.27 1272.81 1554.97 L1272.78 1555.67 Q1272.78 1560.14 1275.24 1562.59 Q1277.73 1565.05 1281.56 1565.05 Q1287.18 1565.05 1292.42 1560.59 Q1297.69 1556.13 1299.48 1549.14 L1305.94 1523.46 Q1306.15 1522.82 1306.15 1521.94 Q1306.15 1520.54 1305.1 1519.7 Q1304.08 1518.82 1301.27 1518.78 Q1299.97 1518.78 1299.97 1517.97 Q1299.97 1517.31 1300.22 1516.99 Q1300.5 1516.64 1300.71 1516.6 Q1300.95 1516.53 1301.27 1516.53 Q1302.47 1516.53 1305 1516.64 Q1307.52 1516.75 1308.75 1516.75 Q1309.98 1516.75 1312.44 1516.64 Q1314.9 1516.53 1316.1 1516.53 Q1316.52 1516.53 1316.73 1516.75 Q1316.98 1516.92 1317.01 1517.13 L1317.01 1517.34 Z" fill="#000000" fill-rule="nonzero" fill-opacity="1" /><polyline clip-path="url(#clip830)" style="stroke:#000000; stroke-linecap:round; stroke-linejoin:round; stroke-width:4; stroke-opacity:1; fill:none" points="230.203,1410.22 230.203,47.2441 "/>
<polyline clip-path="url(#clip830)" style="stroke:#000000; stroke-linecap:round; stroke-linejoin:round; stroke-width:4; stroke-opacity:1; fill:none" points="2352.76,1410.22 2352.76,47.2441 "/>
<polyline clip-path="url(#clip830)" style="stroke:#000000; stroke-linecap:round; stroke-linejoin:round; stroke-width:4; stroke-opacity:1; fill:none" points="230.203,1189.14 249.101,1189.14 "/>
<polyline clip-path="url(#clip830)" style="stroke:#000000; stroke-linecap:round; stroke-linejoin:round; stroke-width:4; stroke-opacity:1; fill:none" points="230.203,963.438 249.101,963.438 "/>
<polyline clip-path="url(#clip830)" style="stroke:#000000; stroke-linecap:round; stroke-linejoin:round; stroke-width:4; stroke-opacity:1; fill:none" points="230.203,737.738 249.101,737.738 "/>
<polyline clip-path="url(#clip830)" style="stroke:#000000; stroke-linecap:round; stroke-linejoin:round; stroke-width:4; stroke-opacity:1; fill:none" points="230.203,512.037 249.101,512.037 "/>
<polyline clip-path="url(#clip830)" style="stroke:#000000; stroke-linecap:round; stroke-linejoin:round; stroke-width:4; stroke-opacity:1; fill:none" points="230.203,286.336 249.101,286.336 "/>
<polyline clip-path="url(#clip830)" style="stroke:#000000; stroke-linecap:round; stroke-linejoin:round; stroke-width:4; stroke-opacity:1; fill:none" points="230.203,60.6351 249.101,60.6351 "/>
<path clip-path="url(#clip830)" d="M119.754 1200.55 Q119.754 1198.67 120.773 1197.96 Q121.792 1197.21 122.872 1197.21 Q124.324 1197.21 125.157 1198.14 Q126.022 1199.04 126.022 1200.3 Q126.022 1201.57 125.157 1202.49 Q124.324 1203.39 122.872 1203.39 Q122.162 1203.39 121.792 1203.27 Q122.625 1206.17 125.157 1208.27 Q127.72 1210.37 131.086 1210.37 Q135.317 1210.37 137.849 1206.26 Q139.362 1203.61 139.362 1197.58 Q139.362 1192.27 138.219 1189.62 Q136.459 1185.57 132.846 1185.57 Q127.72 1185.57 124.694 1189.99 Q124.324 1190.54 123.891 1190.58 Q123.274 1190.58 123.119 1190.24 Q122.996 1189.86 122.996 1188.91 L122.996 1170.19 Q122.996 1168.68 123.613 1168.68 Q123.861 1168.68 124.385 1168.87 Q128.369 1170.63 132.785 1170.66 Q137.324 1170.66 141.4 1168.81 Q141.709 1168.62 141.894 1168.62 Q142.512 1168.62 142.542 1169.33 Q142.542 1169.58 142.017 1170.32 Q141.523 1171.03 140.443 1171.99 Q139.362 1172.91 137.972 1173.81 Q136.583 1174.7 134.545 1175.32 Q132.538 1175.91 130.314 1175.91 Q127.659 1175.91 124.941 1175.07 L124.941 1187.39 Q128.214 1184.18 132.97 1184.18 Q138.034 1184.18 141.523 1188.26 Q145.013 1192.34 145.013 1198.02 Q145.013 1203.98 140.875 1208.05 Q136.768 1212.13 131.21 1212.13 Q126.146 1212.13 122.934 1208.52 Q119.754 1204.9 119.754 1200.55 Z" fill="#000000" fill-rule="nonzero" fill-opacity="1" /><path clip-path="url(#clip830)" d="M154.554 1209.72 Q153.597 1208.7 153.597 1207.37 Q153.597 1206.05 154.554 1205.09 Q155.512 1204.1 156.963 1204.1 Q158.353 1204.1 159.279 1205.03 Q160.236 1205.92 160.236 1207.4 Q160.236 1208.86 159.217 1209.81 Q158.229 1210.74 156.963 1210.74 Q155.512 1210.74 154.554 1209.72 Z" fill="#000000" fill-rule="nonzero" fill-opacity="1" /><path clip-path="url(#clip830)" d="M168.944 1200.55 Q168.944 1198.67 169.963 1197.96 Q170.982 1197.21 172.063 1197.21 Q173.514 1197.21 174.348 1198.14 Q175.213 1199.04 175.213 1200.3 Q175.213 1201.57 174.348 1202.49 Q173.514 1203.39 172.063 1203.39 Q171.353 1203.39 170.982 1203.27 Q171.816 1206.17 174.348 1208.27 Q176.911 1210.37 180.277 1210.37 Q184.507 1210.37 187.039 1206.26 Q188.552 1203.61 188.552 1197.58 Q188.552 1192.27 187.41 1189.62 Q185.65 1185.57 182.037 1185.57 Q176.911 1185.57 173.885 1189.99 Q173.514 1190.54 173.082 1190.58 Q172.464 1190.58 172.31 1190.24 Q172.186 1189.86 172.186 1188.91 L172.186 1170.19 Q172.186 1168.68 172.804 1168.68 Q173.051 1168.68 173.576 1168.87 Q177.559 1170.63 181.975 1170.66 Q186.514 1170.66 190.59 1168.81 Q190.899 1168.62 191.085 1168.62 Q191.702 1168.62 191.733 1169.33 Q191.733 1169.58 191.208 1170.32 Q190.714 1171.03 189.633 1171.99 Q188.552 1172.91 187.163 1173.81 Q185.773 1174.7 183.735 1175.32 Q181.728 1175.91 179.505 1175.91 Q176.849 1175.91 174.132 1175.07 L174.132 1187.39 Q177.405 1184.18 182.16 1184.18 Q187.225 1184.18 190.714 1188.26 Q194.203 1192.34 194.203 1198.02 Q194.203 1203.98 190.066 1208.05 Q185.959 1212.13 180.4 1212.13 Q175.336 1212.13 172.125 1208.52 Q168.944 1204.9 168.944 1200.55 Z" fill="#000000" fill-rule="nonzero" fill-opacity="1" /><path clip-path="url(#clip830)" d="M118.58 965.06 Q118.58 955.116 123.644 949.033 Q128.709 942.919 135.224 942.919 Q139.022 942.919 141.122 944.865 Q143.253 946.779 143.253 949.743 Q143.253 951.38 142.295 952.09 Q141.338 952.801 140.35 952.801 Q139.207 952.801 138.312 952.029 Q137.416 951.257 137.416 949.867 Q137.416 947.026 140.906 947.026 Q139.269 944.494 135.348 944.494 Q134.143 944.494 132.908 944.865 Q131.673 945.204 130.067 946.378 Q128.462 947.551 127.226 949.404 Q125.991 951.257 125.127 954.746 Q124.262 958.235 124.262 962.775 L124.262 964.288 Q126.856 958.019 132.167 958.05 Q137.478 958.05 141.153 962.095 Q144.827 966.14 144.827 972.131 Q144.827 978.276 140.998 982.352 Q137.169 986.428 131.796 986.428 Q129.388 986.428 127.195 985.409 Q125.034 984.421 122.996 982.136 Q120.989 979.851 119.784 975.466 Q118.58 971.081 118.58 965.06 M124.385 970.741 Q124.385 976.948 125.528 979.912 Q125.713 980.407 126.115 981.086 Q126.547 981.765 127.257 982.661 Q127.998 983.525 129.203 984.112 Q130.407 984.668 131.796 984.668 Q136.027 984.668 138.065 980.561 Q139.146 978.276 139.146 972.069 Q139.146 965.739 138.003 963.423 Q136.058 959.501 132.105 959.501 Q129.45 959.501 127.597 961.323 Q125.775 963.145 125.065 965.585 Q124.385 968.024 124.385 970.741 Z" fill="#000000" fill-rule="nonzero" fill-opacity="1" /><path clip-path="url(#clip830)" d="M153.875 984.019 Q152.918 983 152.918 981.673 Q152.918 980.345 153.875 979.388 Q154.832 978.399 156.284 978.399 Q157.673 978.399 158.6 979.326 Q159.557 980.221 159.557 981.703 Q159.557 983.155 158.538 984.112 Q157.55 985.038 156.284 985.038 Q154.832 985.038 153.875 984.019 Z" fill="#000000" fill-rule="nonzero" fill-opacity="1" /><path clip-path="url(#clip830)" d="M167.585 964.813 Q167.585 955.518 169.932 950.454 Q173.205 942.919 180.925 942.919 Q182.562 942.919 184.26 943.382 Q185.989 943.815 188.151 945.513 Q190.343 947.211 191.671 949.991 Q194.203 955.363 194.203 964.813 Q194.203 974.045 191.856 979.079 Q188.429 986.428 180.864 986.428 Q178.023 986.428 175.12 984.977 Q172.248 983.525 170.426 980.036 Q167.585 974.817 167.585 964.813 M172.835 964.041 Q172.835 973.582 173.514 977.38 Q174.286 981.487 176.386 983.278 Q178.517 985.038 180.864 985.038 Q183.396 985.038 185.495 983.155 Q187.626 981.24 188.275 977.133 Q188.985 973.088 188.954 964.041 Q188.954 955.24 188.336 951.72 Q187.503 947.613 185.279 945.976 Q183.087 944.309 180.864 944.309 Q180.03 944.309 179.134 944.556 Q178.27 944.803 177.004 945.513 Q175.738 946.223 174.749 947.983 Q173.792 949.743 173.329 952.399 Q172.835 955.827 172.835 964.041 Z" fill="#000000" fill-rule="nonzero" fill-opacity="1" /><path clip-path="url(#clip830)" d="M119.259 739.359 Q119.259 729.416 124.324 723.332 Q129.388 717.218 135.903 717.218 Q139.702 717.218 141.801 719.164 Q143.932 721.078 143.932 724.043 Q143.932 725.679 142.975 726.389 Q142.017 727.1 141.029 727.1 Q139.887 727.1 138.991 726.328 Q138.096 725.556 138.096 724.166 Q138.096 721.325 141.585 721.325 Q139.949 718.793 136.027 718.793 Q134.823 718.793 133.587 719.164 Q132.352 719.503 130.747 720.677 Q129.141 721.85 127.906 723.703 Q126.671 725.556 125.806 729.045 Q124.941 732.534 124.941 737.074 L124.941 738.587 Q127.535 732.318 132.846 732.349 Q138.158 732.349 141.832 736.394 Q145.507 740.439 145.507 746.43 Q145.507 752.575 141.678 756.651 Q137.849 760.727 132.476 760.727 Q130.067 760.727 127.875 759.708 Q125.713 758.72 123.675 756.435 Q121.668 754.15 120.464 749.765 Q119.259 745.38 119.259 739.359 M125.065 745.04 Q125.065 751.247 126.207 754.212 Q126.393 754.706 126.794 755.385 Q127.226 756.064 127.937 756.96 Q128.678 757.824 129.882 758.411 Q131.086 758.967 132.476 758.967 Q136.706 758.967 138.744 754.86 Q139.825 752.575 139.825 746.368 Q139.825 740.038 138.683 737.722 Q136.737 733.8 132.785 733.8 Q130.129 733.8 128.276 735.622 Q126.454 737.444 125.744 739.884 Q125.065 742.323 125.065 745.04 Z" fill="#000000" fill-rule="nonzero" fill-opacity="1" /><path clip-path="url(#clip830)" d="M154.554 758.319 Q153.597 757.3 153.597 755.972 Q153.597 754.644 154.554 753.687 Q155.512 752.699 156.963 752.699 Q158.353 752.699 159.279 753.625 Q160.236 754.52 160.236 756.003 Q160.236 757.454 159.217 758.411 Q158.229 759.338 156.963 759.338 Q155.512 759.338 154.554 758.319 Z" fill="#000000" fill-rule="nonzero" fill-opacity="1" /><path clip-path="url(#clip830)" d="M168.944 749.147 Q168.944 747.264 169.963 746.554 Q170.982 745.812 172.063 745.812 Q173.514 745.812 174.348 746.739 Q175.213 747.634 175.213 748.9 Q175.213 750.166 174.348 751.093 Q173.514 751.988 172.063 751.988 Q171.353 751.988 170.982 751.865 Q171.816 754.767 174.348 756.867 Q176.911 758.967 180.277 758.967 Q184.507 758.967 187.039 754.86 Q188.552 752.204 188.552 746.183 Q188.552 740.872 187.41 738.216 Q185.65 734.171 182.037 734.171 Q176.911 734.171 173.885 738.587 Q173.514 739.143 173.082 739.173 Q172.464 739.173 172.31 738.834 Q172.186 738.463 172.186 737.506 L172.186 718.793 Q172.186 717.28 172.804 717.28 Q173.051 717.28 173.576 717.465 Q177.559 719.225 181.975 719.256 Q186.514 719.256 190.59 717.404 Q190.899 717.218 191.085 717.218 Q191.702 717.218 191.733 717.929 Q191.733 718.176 191.208 718.917 Q190.714 719.627 189.633 720.584 Q188.552 721.511 187.163 722.406 Q185.773 723.302 183.735 723.919 Q181.728 724.506 179.505 724.506 Q176.849 724.506 174.132 723.672 L174.132 735.993 Q177.405 732.781 182.16 732.781 Q187.225 732.781 190.714 736.858 Q194.203 740.934 194.203 746.615 Q194.203 752.575 190.066 756.651 Q185.959 760.727 180.4 760.727 Q175.336 760.727 172.125 757.114 Q168.944 753.501 168.944 749.147 Z" fill="#000000" fill-rule="nonzero" fill-opacity="1" /><path clip-path="url(#clip830)" d="M119.476 503.9 L121.545 490.9 L123.119 490.9 Q123.305 491.672 123.613 492.012 Q123.953 492.351 125.744 492.629 Q127.566 492.907 131.241 492.907 L146.588 492.907 Q146.588 494.358 146.032 495.13 L137.478 507.142 Q134.761 510.941 133.557 517.95 Q132.846 522.644 132.877 528.326 L132.877 531.537 Q132.877 535.026 129.944 535.026 Q127.041 535.026 127.041 531.537 Q127.041 519.463 134.823 507.76 Q135.656 506.556 138.713 502.263 Q141.801 497.971 141.925 497.786 L128.832 497.786 Q123.089 497.786 122.625 498.157 Q122.008 498.712 121.05 503.9 L119.476 503.9 Z" fill="#000000" fill-rule="nonzero" fill-opacity="1" /><path clip-path="url(#clip830)" d="M153.875 532.618 Q152.918 531.599 152.918 530.271 Q152.918 528.943 153.875 527.986 Q154.832 526.998 156.284 526.998 Q157.673 526.998 158.6 527.924 Q159.557 528.82 159.557 530.302 Q159.557 531.753 158.538 532.71 Q157.55 533.637 156.284 533.637 Q154.832 533.637 153.875 532.618 Z" fill="#000000" fill-rule="nonzero" fill-opacity="1" /><path clip-path="url(#clip830)" d="M167.585 513.411 Q167.585 504.116 169.932 499.052 Q173.205 491.518 180.925 491.518 Q182.562 491.518 184.26 491.981 Q185.989 492.413 188.151 494.111 Q190.343 495.81 191.671 498.589 Q194.203 503.962 194.203 513.411 Q194.203 522.644 191.856 527.677 Q188.429 535.026 180.864 535.026 Q178.023 535.026 175.12 533.575 Q172.248 532.124 170.426 528.634 Q167.585 523.416 167.585 513.411 M172.835 512.639 Q172.835 522.181 173.514 525.979 Q174.286 530.086 176.386 531.877 Q178.517 533.637 180.864 533.637 Q183.396 533.637 185.495 531.753 Q187.626 529.839 188.275 525.732 Q188.985 521.686 188.954 512.639 Q188.954 503.838 188.336 500.318 Q187.503 496.211 185.279 494.575 Q183.087 492.907 180.864 492.907 Q180.03 492.907 179.134 493.154 Q178.27 493.401 177.004 494.111 Q175.738 494.822 174.749 496.582 Q173.792 498.342 173.329 500.997 Q172.835 504.425 172.835 512.639 Z" fill="#000000" fill-rule="nonzero" fill-opacity="1" /><path clip-path="url(#clip830)" d="M120.155 278.199 L122.224 265.199 L123.799 265.199 Q123.984 265.971 124.293 266.311 Q124.632 266.65 126.423 266.928 Q128.245 267.206 131.92 267.206 L147.267 267.206 Q147.267 268.658 146.711 269.43 L138.158 281.442 Q135.44 285.24 134.236 292.249 Q133.526 296.943 133.557 302.625 L133.557 305.836 Q133.557 309.325 130.623 309.325 Q127.72 309.325 127.72 305.836 Q127.72 293.762 135.502 282.059 Q136.336 280.855 139.393 276.563 Q142.481 272.27 142.604 272.085 L129.511 272.085 Q123.768 272.085 123.305 272.456 Q122.687 273.012 121.73 278.199 L120.155 278.199 Z" fill="#000000" fill-rule="nonzero" fill-opacity="1" /><path clip-path="url(#clip830)" d="M154.554 306.917 Q153.597 305.898 153.597 304.57 Q153.597 303.242 154.554 302.285 Q155.512 301.297 156.963 301.297 Q158.353 301.297 159.279 302.223 Q160.236 303.119 160.236 304.601 Q160.236 306.052 159.217 307.01 Q158.229 307.936 156.963 307.936 Q155.512 307.936 154.554 306.917 Z" fill="#000000" fill-rule="nonzero" fill-opacity="1" /><path clip-path="url(#clip830)" d="M168.944 297.746 Q168.944 295.862 169.963 295.152 Q170.982 294.411 172.063 294.411 Q173.514 294.411 174.348 295.337 Q175.213 296.233 175.213 297.499 Q175.213 298.765 174.348 299.691 Q173.514 300.587 172.063 300.587 Q171.353 300.587 170.982 300.463 Q171.816 303.366 174.348 305.466 Q176.911 307.565 180.277 307.565 Q184.507 307.565 187.039 303.458 Q188.552 300.803 188.552 294.781 Q188.552 289.47 187.41 286.815 Q185.65 282.769 182.037 282.769 Q176.911 282.769 173.885 287.185 Q173.514 287.741 173.082 287.772 Q172.464 287.772 172.31 287.432 Q172.186 287.062 172.186 286.104 L172.186 267.392 Q172.186 265.878 172.804 265.878 Q173.051 265.878 173.576 266.064 Q177.559 267.824 181.975 267.855 Q186.514 267.855 190.59 266.002 Q190.899 265.817 191.085 265.817 Q191.702 265.817 191.733 266.527 Q191.733 266.774 191.208 267.515 Q190.714 268.225 189.633 269.182 Q188.552 270.109 187.163 271.004 Q185.773 271.9 183.735 272.517 Q181.728 273.104 179.505 273.104 Q176.849 273.104 174.132 272.27 L174.132 284.591 Q177.405 281.38 182.16 281.38 Q187.225 281.38 190.714 285.456 Q194.203 289.532 194.203 295.214 Q194.203 301.173 190.066 305.249 Q185.959 309.325 180.4 309.325 Q175.336 309.325 172.125 305.713 Q168.944 302.1 168.944 297.746 Z" fill="#000000" fill-rule="nonzero" fill-opacity="1" /><path clip-path="url(#clip830)" d="M118.58 72.6934 Q118.58 65.622 127.69 61.0519 Q123.768 58.3963 123.058 57.6243 Q120.279 54.5364 120.279 50.6765 Q120.279 46.2608 123.613 43.2038 Q126.979 40.1158 131.735 40.1158 Q136.274 40.1158 139.702 42.7406 Q143.129 45.3653 143.129 49.534 Q143.129 55.401 135.471 59.3536 Q140.535 62.5033 141.74 63.8311 Q144.827 67.2586 144.827 71.6126 Q144.827 76.6768 140.937 80.1662 Q137.046 83.6246 131.673 83.6246 Q126.423 83.6246 122.502 80.5676 Q118.58 77.5105 118.58 72.6934 M121.73 72.6934 Q121.73 76.615 124.663 79.2398 Q127.628 81.8645 131.735 81.8645 Q135.718 81.8645 138.683 79.5794 Q141.678 77.2944 141.678 73.8977 Q141.678 72.5699 141.215 71.4273 Q140.782 70.2848 139.887 69.3893 Q139.022 68.4629 138.466 68.0615 Q137.941 67.6292 136.922 66.919 L129.141 62.0092 Q121.73 66.1161 121.73 72.6934 M123.058 48.2062 Q123.058 51.2323 126.238 53.3321 L134.082 58.3963 Q140.35 54.7217 140.35 49.534 Q140.35 46.1682 137.787 43.9449 Q135.224 41.6907 131.673 41.6907 Q128.184 41.6907 125.621 43.5434 Q123.058 45.3653 123.058 48.2062 Z" fill="#000000" fill-rule="nonzero" fill-opacity="1" /><path clip-path="url(#clip830)" d="M153.875 81.216 Q152.918 80.197 152.918 78.8692 Q152.918 77.5414 153.875 76.5842 Q154.832 75.596 156.284 75.596 Q157.673 75.596 158.6 76.5224 Q159.557 77.4179 159.557 78.9001 Q159.557 80.3514 158.538 81.3087 Q157.55 82.2351 156.284 82.2351 Q154.832 82.2351 153.875 81.216 Z" fill="#000000" fill-rule="nonzero" fill-opacity="1" /><path clip-path="url(#clip830)" d="M167.585 62.0092 Q167.585 52.7145 169.932 47.6504 Q173.205 40.1158 180.925 40.1158 Q182.562 40.1158 184.26 40.579 Q185.989 41.0113 188.151 42.7097 Q190.343 44.408 191.671 47.1872 Q194.203 52.5601 194.203 62.0092 Q194.203 71.2421 191.856 76.2754 Q188.429 83.6246 180.864 83.6246 Q178.023 83.6246 175.12 82.1733 Q172.248 80.722 170.426 77.2326 Q167.585 72.014 167.585 62.0092 M172.835 61.2372 Q172.835 70.7789 173.514 74.577 Q174.286 78.684 176.386 80.4749 Q178.517 82.2351 180.864 82.2351 Q183.396 82.2351 185.495 80.3514 Q187.626 78.4369 188.275 74.33 Q188.985 70.2848 188.954 61.2372 Q188.954 52.4366 188.336 48.9164 Q187.503 44.8095 185.279 43.1729 Q183.087 41.5054 180.864 41.5054 Q180.03 41.5054 179.134 41.7524 Q178.27 41.9995 177.004 42.7097 Q175.738 43.4199 174.749 45.18 Q173.792 46.9401 173.329 49.5957 Q172.835 53.0233 172.835 61.2372 Z" fill="#000000" fill-rule="nonzero" fill-opacity="1" /><path clip-path="url(#clip830)" d="M15.8563 724.816 L31.5961 728.716 Q32.5448 728.927 32.7907 729.102 Q33.0366 729.278 33.0366 729.77 Q33.0366 730.156 32.861 730.402 Q32.6853 730.613 32.5096 730.613 L32.334 730.648 Q32.2286 730.648 31.7015 730.578 Q31.1394 730.508 30.2259 730.437 Q29.3125 730.367 28.2936 730.367 Q22.5317 730.367 19.8615 733.178 Q17.1562 735.953 17.1562 740.732 Q17.1562 744.034 18.9129 746.985 Q20.6696 749.937 23.4451 751.623 Q26.1856 753.309 29.0665 753.309 Q31.7015 753.309 33.388 751.974 Q35.0744 750.639 35.6365 748.918 L36.9365 744.104 Q38.2364 739.045 38.7985 737.605 Q39.3256 736.164 40.5201 734.97 Q43.8227 731.421 48.9522 731.421 Q53.379 731.421 57.6653 733.916 Q61.9165 736.41 64.6921 740.696 Q67.4325 744.983 67.4325 749.726 Q67.4325 758.052 62.2678 761.882 L66.3433 765.395 Q67.1163 766.063 67.2568 766.274 Q67.4325 766.449 67.4325 766.695 Q67.4325 767.012 67.2217 767.257 Q67.046 767.503 66.7298 767.503 Q66.4839 767.503 58.2275 765.43 Q49.9711 763.358 49.7954 763.182 Q49.5143 762.901 49.5143 762.444 Q49.5143 761.601 50.3224 761.601 Q50.5332 761.671 50.8143 761.741 Q53.3439 762.163 54.7141 762.163 Q57.2789 762.163 59.2463 761.285 Q61.1787 760.406 62.303 759.106 Q63.3921 757.771 64.0948 755.98 Q64.7623 754.188 65.0083 752.677 Q65.2191 751.166 65.2191 749.585 Q65.2191 746.177 63.2516 743.156 Q61.2841 740.099 58.2275 738.378 Q55.1708 736.621 51.9737 736.621 Q50.2873 736.621 48.9873 737.078 Q47.6522 737.534 46.9144 738.167 Q46.1766 738.764 45.6145 739.783 Q45.0523 740.802 44.8415 741.504 Q44.5956 742.172 44.3497 743.226 L42.3119 750.92 Q41.3984 754.012 38.7634 756.225 Q36.1284 758.404 32.088 758.404 Q27.8368 758.404 23.9019 755.909 Q19.9318 753.38 17.5427 749.269 Q15.1185 745.123 15.1185 740.661 Q15.1185 737.148 16.4887 734.443 Q17.8237 731.737 20.3182 730.367 L16.2076 726.889 Q15.3995 726.186 15.259 726.046 Q15.1185 725.87 15.1185 725.624 Q15.1185 725.202 15.3644 725.027 Q15.6103 724.816 15.8563 724.816 Z" fill="#000000" fill-rule="nonzero" fill-opacity="1" /><path clip-path="url(#clip830)" d="M87.3508 717.558 Q86.4409 717.558 86.1704 717.484 Q85.8998 717.386 85.4817 716.992 L74.7098 707.327 Q68.7581 702.039 63.5689 702.039 Q60.1995 702.039 57.7894 703.81 Q55.3792 705.556 55.3792 708.778 Q55.3792 710.991 56.7319 712.86 Q58.0845 714.729 60.4947 715.59 Q60.4455 715.443 60.4455 714.926 Q60.4455 713.672 61.2325 712.983 Q62.0195 712.27 63.077 712.27 Q64.4296 712.27 65.0937 713.156 Q65.7331 714.016 65.7331 714.877 Q65.7331 715.221 65.6593 715.689 Q65.5855 716.131 64.8969 716.845 Q64.1837 717.558 62.9294 717.558 Q59.4126 717.558 56.6089 714.902 Q53.8052 712.221 53.8052 708.138 Q53.8052 703.515 56.5597 700.49 Q59.2896 697.44 63.5689 697.44 Q65.0691 697.44 66.4463 697.907 Q67.799 698.35 68.8565 698.965 Q69.914 699.555 71.611 701.178 Q73.3079 702.802 74.513 704.105 Q75.7181 705.409 78.2758 708.335 L83.4651 713.672 L83.4651 704.597 Q83.4651 700.17 83.0716 699.826 Q82.3584 699.334 78.5955 698.719 L78.5955 697.44 L87.3508 698.867 L87.3508 717.558 Z" fill="#000000" fill-rule="nonzero" fill-opacity="1" /><polyline clip-path="url(#clip832)" style="stroke:#009af9; stroke-linecap:round; stroke-linejoin:round; stroke-width:4; stroke-opacity:1; fill:none" points="2292.68,86.5779 1958.95,133.831 1291.48,351.29 957.745,498.485 624.01,645.349 290.276,656.331 "/>
<path clip-path="url(#clip832)" d="M2276.68 70.5779 L2276.68 102.578 L2308.68 102.578 L2308.68 70.5779 L2276.68 70.5779 Z" fill="#009af9" fill-rule="evenodd" fill-opacity="1" stroke="#000000" stroke-opacity="1" stroke-width="3.2"/>
<path clip-path="url(#clip832)" d="M1942.95 117.831 L1942.95 149.831 L1974.95 149.831 L1974.95 117.831 L1942.95 117.831 Z" fill="#009af9" fill-rule="evenodd" fill-opacity="1" stroke="#000000" stroke-opacity="1" stroke-width="3.2"/>
<path clip-path="url(#clip832)" d="M1275.48 335.29 L1275.48 367.29 L1307.48 367.29 L1307.48 335.29 L1275.48 335.29 Z" fill="#009af9" fill-rule="evenodd" fill-opacity="1" stroke="#000000" stroke-opacity="1" stroke-width="3.2"/>
<path clip-path="url(#clip832)" d="M941.745 482.485 L941.745 514.485 L973.745 514.485 L973.745 482.485 L941.745 482.485 Z" fill="#009af9" fill-rule="evenodd" fill-opacity="1" stroke="#000000" stroke-opacity="1" stroke-width="3.2"/>
<path clip-path="url(#clip832)" d="M608.01 629.349 L608.01 661.349 L640.01 661.349 L640.01 629.349 L608.01 629.349 Z" fill="#009af9" fill-rule="evenodd" fill-opacity="1" stroke="#000000" stroke-opacity="1" stroke-width="3.2"/>
<path clip-path="url(#clip832)" d="M274.276 640.331 L274.276 672.331 L306.276 672.331 L306.276 640.331 L274.276 640.331 Z" fill="#009af9" fill-rule="evenodd" fill-opacity="1" stroke="#000000" stroke-opacity="1" stroke-width="3.2"/>
<polyline clip-path="url(#clip832)" style="stroke:#000000; stroke-linecap:round; stroke-linejoin:round; stroke-width:4; stroke-opacity:1; fill:none" points="2292.68,87.3369 2292.68,85.8189 "/>
<polyline clip-path="url(#clip832)" style="stroke:#000000; stroke-linecap:round; stroke-linejoin:round; stroke-width:4; stroke-opacity:1; fill:none" points="1958.95,135.487 1958.95,132.175 "/>
<polyline clip-path="url(#clip832)" style="stroke:#000000; stroke-linecap:round; stroke-linejoin:round; stroke-width:4; stroke-opacity:1; fill:none" points="1291.48,355.263 1291.48,347.317 "/>
<polyline clip-path="url(#clip832)" style="stroke:#000000; stroke-linecap:round; stroke-linejoin:round; stroke-width:4; stroke-opacity:1; fill:none" points="957.745,503.756 957.745,493.214 "/>
<polyline clip-path="url(#clip832)" style="stroke:#000000; stroke-linecap:round; stroke-linejoin:round; stroke-width:4; stroke-opacity:1; fill:none" points="624.01,652.046 624.01,638.651 "/>
<polyline clip-path="url(#clip832)" style="stroke:#000000; stroke-linecap:round; stroke-linejoin:round; stroke-width:4; stroke-opacity:1; fill:none" points="290.276,663.133 290.276,649.53 "/>
<line clip-path="url(#clip832)" x1="2308.68" y1="87.3369" x2="2276.68" y2="87.3369" style="stroke:#000000; stroke-width:4; stroke-opacity:1"/>
<line clip-path="url(#clip832)" x1="2308.68" y1="85.8189" x2="2276.68" y2="85.8189" style="stroke:#000000; stroke-width:4; stroke-opacity:1"/>
<line clip-path="url(#clip832)" x1="1974.95" y1="135.487" x2="1942.95" y2="135.487" style="stroke:#000000; stroke-width:4; stroke-opacity:1"/>
<line clip-path="url(#clip832)" x1="1974.95" y1="132.175" x2="1942.95" y2="132.175" style="stroke:#000000; stroke-width:4; stroke-opacity:1"/>
<line clip-path="url(#clip832)" x1="1307.48" y1="355.263" x2="1275.48" y2="355.263" style="stroke:#000000; stroke-width:4; stroke-opacity:1"/>
<line clip-path="url(#clip832)" x1="1307.48" y1="347.317" x2="1275.48" y2="347.317" style="stroke:#000000; stroke-width:4; stroke-opacity:1"/>
<line clip-path="url(#clip832)" x1="973.745" y1="503.756" x2="941.745" y2="503.756" style="stroke:#000000; stroke-width:4; stroke-opacity:1"/>
<line clip-path="url(#clip832)" x1="973.745" y1="493.214" x2="941.745" y2="493.214" style="stroke:#000000; stroke-width:4; stroke-opacity:1"/>
<line clip-path="url(#clip832)" x1="640.01" y1="652.046" x2="608.01" y2="652.046" style="stroke:#000000; stroke-width:4; stroke-opacity:1"/>
<line clip-path="url(#clip832)" x1="640.01" y1="638.651" x2="608.01" y2="638.651" style="stroke:#000000; stroke-width:4; stroke-opacity:1"/>
<line clip-path="url(#clip832)" x1="306.276" y1="663.133" x2="274.276" y2="663.133" style="stroke:#000000; stroke-width:4; stroke-opacity:1"/>
<line clip-path="url(#clip832)" x1="306.276" y1="649.53" x2="274.276" y2="649.53" style="stroke:#000000; stroke-width:4; stroke-opacity:1"/>
<polyline clip-path="url(#clip832)" style="stroke:#e26f46; stroke-linecap:round; stroke-linejoin:round; stroke-width:4; stroke-opacity:1; fill:none" points="2292.68,834.824 1958.95,745.307 1291.48,761.746 957.745,887.69 624.01,962.997 290.276,950.65 "/>
<circle clip-path="url(#clip832)" cx="2292.68" cy="834.824" r="14.4" fill="#e26f46" fill-rule="evenodd" fill-opacity="1" stroke="#000000" stroke-opacity="1" stroke-width="3.2"/>
<circle clip-path="url(#clip832)" cx="1958.95" cy="745.307" r="14.4" fill="#e26f46" fill-rule="evenodd" fill-opacity="1" stroke="#000000" stroke-opacity="1" stroke-width="3.2"/>
<circle clip-path="url(#clip832)" cx="1291.48" cy="761.746" r="14.4" fill="#e26f46" fill-rule="evenodd" fill-opacity="1" stroke="#000000" stroke-opacity="1" stroke-width="3.2"/>
<circle clip-path="url(#clip832)" cx="957.745" cy="887.69" r="14.4" fill="#e26f46" fill-rule="evenodd" fill-opacity="1" stroke="#000000" stroke-opacity="1" stroke-width="3.2"/>
<circle clip-path="url(#clip832)" cx="624.01" cy="962.997" r="14.4" fill="#e26f46" fill-rule="evenodd" fill-opacity="1" stroke="#000000" stroke-opacity="1" stroke-width="3.2"/>
<circle clip-path="url(#clip832)" cx="290.276" cy="950.65" r="14.4" fill="#e26f46" fill-rule="evenodd" fill-opacity="1" stroke="#000000" stroke-opacity="1" stroke-width="3.2"/>
<polyline clip-path="url(#clip832)" style="stroke:#000000; stroke-linecap:round; stroke-linejoin:round; stroke-width:4; stroke-opacity:1; fill:none" points="2292.68,835.583 2292.68,834.065 "/>
<polyline clip-path="url(#clip832)" style="stroke:#000000; stroke-linecap:round; stroke-linejoin:round; stroke-width:4; stroke-opacity:1; fill:none" points="1958.95,746.963 1958.95,743.651 "/>
<polyline clip-path="url(#clip832)" style="stroke:#000000; stroke-linecap:round; stroke-linejoin:round; stroke-width:4; stroke-opacity:1; fill:none" points="1291.48,765.719 1291.48,757.773 "/>
<polyline clip-path="url(#clip832)" style="stroke:#000000; stroke-linecap:round; stroke-linejoin:round; stroke-width:4; stroke-opacity:1; fill:none" points="957.745,892.961 957.745,882.419 "/>
<polyline clip-path="url(#clip832)" style="stroke:#000000; stroke-linecap:round; stroke-linejoin:round; stroke-width:4; stroke-opacity:1; fill:none" points="624.01,969.695 624.01,956.299 "/>
<polyline clip-path="url(#clip832)" style="stroke:#000000; stroke-linecap:round; stroke-linejoin:round; stroke-width:4; stroke-opacity:1; fill:none" points="290.276,957.451 290.276,943.849 "/>
<line clip-path="url(#clip832)" x1="2308.68" y1="835.583" x2="2276.68" y2="835.583" style="stroke:#000000; stroke-width:4; stroke-opacity:1"/>
<line clip-path="url(#clip832)" x1="2308.68" y1="834.065" x2="2276.68" y2="834.065" style="stroke:#000000; stroke-width:4; stroke-opacity:1"/>
<line clip-path="url(#clip832)" x1="1974.95" y1="746.963" x2="1942.95" y2="746.963" style="stroke:#000000; stroke-width:4; stroke-opacity:1"/>
<line clip-path="url(#clip832)" x1="1974.95" y1="743.651" x2="1942.95" y2="743.651" style="stroke:#000000; stroke-width:4; stroke-opacity:1"/>
<line clip-path="url(#clip832)" x1="1307.48" y1="765.719" x2="1275.48" y2="765.719" style="stroke:#000000; stroke-width:4; stroke-opacity:1"/>
<line clip-path="url(#clip832)" x1="1307.48" y1="757.773" x2="1275.48" y2="757.773" style="stroke:#000000; stroke-width:4; stroke-opacity:1"/>
<line clip-path="url(#clip832)" x1="973.745" y1="892.961" x2="941.745" y2="892.961" style="stroke:#000000; stroke-width:4; stroke-opacity:1"/>
<line clip-path="url(#clip832)" x1="973.745" y1="882.419" x2="941.745" y2="882.419" style="stroke:#000000; stroke-width:4; stroke-opacity:1"/>
<line clip-path="url(#clip832)" x1="640.01" y1="969.695" x2="608.01" y2="969.695" style="stroke:#000000; stroke-width:4; stroke-opacity:1"/>
<line clip-path="url(#clip832)" x1="640.01" y1="956.299" x2="608.01" y2="956.299" style="stroke:#000000; stroke-width:4; stroke-opacity:1"/>
<line clip-path="url(#clip832)" x1="306.276" y1="957.451" x2="274.276" y2="957.451" style="stroke:#000000; stroke-width:4; stroke-opacity:1"/>
<line clip-path="url(#clip832)" x1="306.276" y1="943.849" x2="274.276" y2="943.849" style="stroke:#000000; stroke-width:4; stroke-opacity:1"/>
<polyline clip-path="url(#clip832)" style="stroke:#3da44d; stroke-linecap:round; stroke-linejoin:round; stroke-width:4; stroke-opacity:1; fill:none" points="2292.68,962.42 1958.95,995.62 1291.48,1128.86 957.745,1187.24 624.01,1364.95 290.276,1321.8 "/>
<circle clip-path="url(#clip832)" cx="2292.68" cy="962.42" r="14.4" fill="#3da44d" fill-rule="evenodd" fill-opacity="1" stroke="#000000" stroke-opacity="1" stroke-width="3.2"/>
<circle clip-path="url(#clip832)" cx="1958.95" cy="995.62" r="14.4" fill="#3da44d" fill-rule="evenodd" fill-opacity="1" stroke="#000000" stroke-opacity="1" stroke-width="3.2"/>
<circle clip-path="url(#clip832)" cx="1291.48" cy="1128.86" r="14.4" fill="#3da44d" fill-rule="evenodd" fill-opacity="1" stroke="#000000" stroke-opacity="1" stroke-width="3.2"/>
<circle clip-path="url(#clip832)" cx="957.745" cy="1187.24" r="14.4" fill="#3da44d" fill-rule="evenodd" fill-opacity="1" stroke="#000000" stroke-opacity="1" stroke-width="3.2"/>
<circle clip-path="url(#clip832)" cx="624.01" cy="1364.95" r="14.4" fill="#3da44d" fill-rule="evenodd" fill-opacity="1" stroke="#000000" stroke-opacity="1" stroke-width="3.2"/>
<circle clip-path="url(#clip832)" cx="290.276" cy="1321.8" r="14.4" fill="#3da44d" fill-rule="evenodd" fill-opacity="1" stroke="#000000" stroke-opacity="1" stroke-width="3.2"/>
<polyline clip-path="url(#clip832)" style="stroke:#000000; stroke-linecap:round; stroke-linejoin:round; stroke-width:4; stroke-opacity:1; fill:none" points="2292.68,963.179 2292.68,961.661 "/>
<polyline clip-path="url(#clip832)" style="stroke:#000000; stroke-linecap:round; stroke-linejoin:round; stroke-width:4; stroke-opacity:1; fill:none" points="1958.95,997.276 1958.95,993.964 "/>
<polyline clip-path="url(#clip832)" style="stroke:#000000; stroke-linecap:round; stroke-linejoin:round; stroke-width:4; stroke-opacity:1; fill:none" points="1291.48,1132.83 1291.48,1124.89 "/>
<polyline clip-path="url(#clip832)" style="stroke:#000000; stroke-linecap:round; stroke-linejoin:round; stroke-width:4; stroke-opacity:1; fill:none" points="957.745,1192.51 957.745,1181.97 "/>
<polyline clip-path="url(#clip832)" style="stroke:#000000; stroke-linecap:round; stroke-linejoin:round; stroke-width:4; stroke-opacity:1; fill:none" points="624.01,1371.65 624.01,1358.25 "/>
<polyline clip-path="url(#clip832)" style="stroke:#000000; stroke-linecap:round; stroke-linejoin:round; stroke-width:4; stroke-opacity:1; fill:none" points="290.276,1328.6 290.276,1315 "/>
<line clip-path="url(#clip832)" x1="2308.68" y1="963.179" x2="2276.68" y2="963.179" style="stroke:#000000; stroke-width:4; stroke-opacity:1"/>
<line clip-path="url(#clip832)" x1="2308.68" y1="961.661" x2="2276.68" y2="961.661" style="stroke:#000000; stroke-width:4; stroke-opacity:1"/>
<line clip-path="url(#clip832)" x1="1974.95" y1="997.276" x2="1942.95" y2="997.276" style="stroke:#000000; stroke-width:4; stroke-opacity:1"/>
<line clip-path="url(#clip832)" x1="1974.95" y1="993.964" x2="1942.95" y2="993.964" style="stroke:#000000; stroke-width:4; stroke-opacity:1"/>
<line clip-path="url(#clip832)" x1="1307.48" y1="1132.83" x2="1275.48" y2="1132.83" style="stroke:#000000; stroke-width:4; stroke-opacity:1"/>
<line clip-path="url(#clip832)" x1="1307.48" y1="1124.89" x2="1275.48" y2="1124.89" style="stroke:#000000; stroke-width:4; stroke-opacity:1"/>
<line clip-path="url(#clip832)" x1="973.745" y1="1192.51" x2="941.745" y2="1192.51" style="stroke:#000000; stroke-width:4; stroke-opacity:1"/>
<line clip-path="url(#clip832)" x1="973.745" y1="1181.97" x2="941.745" y2="1181.97" style="stroke:#000000; stroke-width:4; stroke-opacity:1"/>
<line clip-path="url(#clip832)" x1="640.01" y1="1371.65" x2="608.01" y2="1371.65" style="stroke:#000000; stroke-width:4; stroke-opacity:1"/>
<line clip-path="url(#clip832)" x1="640.01" y1="1358.25" x2="608.01" y2="1358.25" style="stroke:#000000; stroke-width:4; stroke-opacity:1"/>
<line clip-path="url(#clip832)" x1="306.276" y1="1328.6" x2="274.276" y2="1328.6" style="stroke:#000000; stroke-width:4; stroke-opacity:1"/>
<line clip-path="url(#clip832)" x1="306.276" y1="1315" x2="274.276" y2="1315" style="stroke:#000000; stroke-width:4; stroke-opacity:1"/>
<path clip-path="url(#clip830)" d="M300.955 482.115 L661.371 482.115 L661.371 92.6766 L300.955 92.6766  Z" fill="#ffffff" fill-rule="evenodd" fill-opacity="1"/>
<polyline clip-path="url(#clip830)" style="stroke:#000000; stroke-linecap:round; stroke-linejoin:round; stroke-width:4; stroke-opacity:0; fill:none" points="300.955,482.115 661.371,482.115 661.371,92.6766 300.955,92.6766 300.955,482.115 "/>
<polyline clip-path="url(#clip830)" style="stroke:#009af9; stroke-linecap:round; stroke-linejoin:round; stroke-width:6; stroke-opacity:1; fill:none" points="324.539,190.036 466.042,190.036 "/>
<path clip-path="url(#clip830)" d="M383.663 178.409 L383.663 201.663 L406.918 201.663 L406.918 178.409 L383.663 178.409 Z" fill="#009af9" fill-rule="evenodd" fill-opacity="1" stroke="#000000" stroke-opacity="1" stroke-width="6.82667"/>
<path clip-path="url(#clip830)" d="M532.314 154.416 L528.414 170.156 Q528.203 171.105 528.028 171.351 Q527.852 171.597 527.36 171.597 Q526.973 171.597 526.728 171.421 Q526.517 171.245 526.517 171.07 L526.482 170.894 Q526.482 170.789 526.552 170.262 Q526.622 169.699 526.692 168.786 Q526.763 167.872 526.763 166.854 Q526.763 161.092 523.952 158.421 Q521.176 155.716 516.398 155.716 Q513.096 155.716 510.144 157.473 Q507.193 159.23 505.507 162.005 Q503.82 164.746 503.82 167.627 Q503.82 170.262 505.155 171.948 Q506.491 173.634 508.212 174.197 L513.025 175.496 Q518.085 176.796 519.525 177.359 Q520.966 177.886 522.16 179.08 Q525.709 182.383 525.709 187.512 Q525.709 191.939 523.214 196.225 Q520.72 200.476 516.433 203.252 Q512.147 205.992 507.404 205.992 Q499.077 205.992 495.248 200.828 L491.734 204.903 Q491.067 205.676 490.856 205.817 Q490.68 205.992 490.434 205.992 Q490.118 205.992 489.872 205.782 Q489.626 205.606 489.626 205.29 Q489.626 205.044 491.699 196.787 Q493.772 188.531 493.948 188.355 Q494.229 188.074 494.686 188.074 Q495.529 188.074 495.529 188.882 Q495.459 189.093 495.388 189.374 Q494.967 191.904 494.967 193.274 Q494.967 195.839 495.845 197.806 Q496.723 199.739 498.023 200.863 Q499.358 201.952 501.15 202.655 Q502.942 203.322 504.453 203.568 Q505.964 203.779 507.545 203.779 Q510.953 203.779 513.974 201.812 Q517.031 199.844 518.752 196.787 Q520.509 193.731 520.509 190.534 Q520.509 188.847 520.052 187.547 Q519.595 186.212 518.963 185.474 Q518.366 184.737 517.347 184.174 Q516.328 183.612 515.625 183.402 Q514.958 183.156 513.904 182.91 L506.21 180.872 Q503.118 179.958 500.904 177.323 Q498.726 174.688 498.726 170.648 Q498.726 166.397 501.221 162.462 Q503.75 158.492 507.861 156.103 Q512.007 153.678 516.469 153.678 Q519.982 153.678 522.687 155.049 Q525.392 156.384 526.763 158.878 L530.241 154.768 Q530.944 153.96 531.084 153.819 Q531.26 153.678 531.506 153.678 Q531.927 153.678 532.103 153.924 Q532.314 154.17 532.314 154.416 Z" fill="#000000" fill-rule="nonzero" fill-opacity="1" /><path clip-path="url(#clip830)" d="M539.572 225.911 Q539.572 225.001 539.646 224.73 Q539.744 224.46 540.138 224.042 L549.803 213.27 Q555.091 207.318 555.091 202.129 Q555.091 198.76 553.32 196.349 Q551.574 193.939 548.352 193.939 Q546.139 193.939 544.269 195.292 Q542.4 196.644 541.54 199.055 Q541.687 199.005 542.204 199.005 Q543.458 199.005 544.146 199.792 Q544.86 200.579 544.86 201.637 Q544.86 202.99 543.974 203.654 Q543.114 204.293 542.253 204.293 Q541.908 204.293 541.441 204.219 Q540.998 204.146 540.285 203.457 Q539.572 202.744 539.572 201.489 Q539.572 197.973 542.228 195.169 Q544.909 192.365 548.991 192.365 Q553.615 192.365 556.64 195.12 Q559.69 197.85 559.69 202.129 Q559.69 203.629 559.222 205.006 Q558.78 206.359 558.165 207.416 Q557.575 208.474 555.951 210.171 Q554.328 211.868 553.025 213.073 Q551.721 214.278 548.795 216.836 L543.458 222.025 L552.533 222.025 Q556.96 222.025 557.304 221.632 Q557.796 220.918 558.411 217.156 L559.69 217.156 L558.263 225.911 L539.572 225.911 Z" fill="#000000" fill-rule="nonzero" fill-opacity="1" /><polyline clip-path="url(#clip830)" style="stroke:#e26f46; stroke-linecap:round; stroke-linejoin:round; stroke-width:6; stroke-opacity:1; fill:none" points="324.539,287.396 466.042,287.396 "/>
<circle clip-path="url(#clip830)" cx="395.291" cy="287.396" r="10.4646" fill="#e26f46" fill-rule="evenodd" fill-opacity="1" stroke="#000000" stroke-opacity="1" stroke-width="6.82667"/>
<path clip-path="url(#clip830)" d="M532.314 254.956 L528.414 270.696 Q528.203 271.644 528.028 271.89 Q527.852 272.136 527.36 272.136 Q526.973 272.136 526.728 271.961 Q526.517 271.785 526.517 271.609 L526.482 271.434 Q526.482 271.328 526.552 270.801 Q526.622 270.239 526.692 269.326 Q526.763 268.412 526.763 267.393 Q526.763 261.631 523.952 258.961 Q521.176 256.256 516.398 256.256 Q513.096 256.256 510.144 258.012 Q507.193 259.769 505.507 262.545 Q503.82 265.285 503.82 268.166 Q503.82 270.801 505.155 272.488 Q506.491 274.174 508.212 274.736 L513.025 276.036 Q518.085 277.336 519.525 277.898 Q520.966 278.425 522.16 279.62 Q525.709 282.922 525.709 288.052 Q525.709 292.479 523.214 296.765 Q520.72 301.016 516.433 303.792 Q512.147 306.532 507.404 306.532 Q499.077 306.532 495.248 301.367 L491.734 305.443 Q491.067 306.216 490.856 306.356 Q490.68 306.532 490.434 306.532 Q490.118 306.532 489.872 306.321 Q489.626 306.146 489.626 305.829 Q489.626 305.583 491.699 297.327 Q493.772 289.071 493.948 288.895 Q494.229 288.614 494.686 288.614 Q495.529 288.614 495.529 289.422 Q495.459 289.633 495.388 289.914 Q494.967 292.443 494.967 293.814 Q494.967 296.378 495.845 298.346 Q496.723 300.278 498.023 301.403 Q499.358 302.492 501.15 303.194 Q502.942 303.862 504.453 304.108 Q505.964 304.319 507.545 304.319 Q510.953 304.319 513.974 302.351 Q517.031 300.384 518.752 297.327 Q520.509 294.27 520.509 291.073 Q520.509 289.387 520.052 288.087 Q519.595 286.752 518.963 286.014 Q518.366 285.276 517.347 284.714 Q516.328 284.152 515.625 283.941 Q514.958 283.695 513.904 283.449 L506.21 281.412 Q503.118 280.498 500.904 277.863 Q498.726 275.228 498.726 271.188 Q498.726 266.936 501.221 263.001 Q503.75 259.031 507.861 256.642 Q512.007 254.218 516.469 254.218 Q519.982 254.218 522.687 255.588 Q525.392 256.923 526.763 259.418 L530.241 255.307 Q530.944 254.499 531.084 254.359 Q531.26 254.218 531.506 254.218 Q531.927 254.218 532.103 254.464 Q532.314 254.71 532.314 254.956 Z" fill="#000000" fill-rule="nonzero" fill-opacity="1" /><path clip-path="url(#clip830)" d="M562.641 253.549 Q561.977 256.722 561.116 258.542 Q559.739 261.321 557.402 261.321 Q555.632 261.321 554.377 260.239 Q553.123 259.156 552.828 257.533 Q549.606 261.321 546.261 261.321 Q543.31 261.321 541.441 259.083 Q539.572 256.82 539.572 253.254 Q539.572 249.663 541.343 246.22 Q543.138 242.777 545.966 240.637 Q548.795 238.498 551.697 238.498 Q554.771 238.498 556.345 241.72 Q556.468 240.834 557.033 240.17 Q557.599 239.506 558.46 239.506 Q559.124 239.506 559.517 239.875 Q559.911 240.219 559.911 240.859 Q559.911 241.178 559.567 242.58 L557.747 249.614 L556.64 254.164 Q556.222 255.836 556.099 256.451 Q556.001 257.066 556.001 257.878 Q556.001 260.189 557.501 260.189 Q558.239 260.189 558.829 259.722 Q559.419 259.255 559.886 258.271 Q560.354 257.287 560.649 256.377 Q560.944 255.443 561.337 253.967 Q561.46 253.377 561.559 253.229 Q561.682 253.057 562.026 253.057 Q562.641 253.057 562.641 253.549 M555.73 244.031 Q555.73 243.81 555.558 243.195 Q555.386 242.58 554.992 241.72 Q554.599 240.859 553.738 240.244 Q552.902 239.605 551.77 239.605 Q550.246 239.605 548.647 240.908 Q547.073 242.211 545.917 244.425 Q545.032 246.196 544.073 249.909 Q543.138 253.623 543.138 255.467 Q543.138 256.599 543.384 257.607 Q543.655 258.591 544.417 259.402 Q545.179 260.189 546.36 260.189 Q549.237 260.189 552.066 256.623 Q552.607 256.008 552.73 255.762 Q552.877 255.492 553.074 254.754 L555.582 244.892 Q555.73 244.154 555.73 244.031 Z" fill="#000000" fill-rule="nonzero" fill-opacity="1" /><path clip-path="url(#clip830)" d="M585.356 254.926 Q585.553 255.148 585.553 255.369 Q585.553 255.59 585.061 256.23 Q584.594 256.869 583.586 257.73 Q582.577 258.591 581.274 259.402 Q579.97 260.214 578.052 260.755 Q576.134 261.321 574.117 261.321 Q570.354 261.321 568.141 258.837 Q565.952 256.353 565.952 252.787 Q565.952 249.319 567.895 245.999 Q569.838 242.654 572.986 240.588 Q576.134 238.498 579.454 238.498 Q582.086 238.498 583.733 239.727 Q585.381 240.957 585.381 242.826 Q585.381 244.277 584.545 245.163 Q583.709 246.048 582.577 246.048 Q581.79 246.048 581.249 245.605 Q580.708 245.138 580.708 244.277 Q580.708 243.171 581.618 242.31 Q581.963 241.965 582.356 241.818 Q582.774 241.646 583.02 241.646 Q583.266 241.621 583.832 241.621 Q583.315 240.662 582.086 240.146 Q580.88 239.605 579.503 239.605 Q577.462 239.605 575.519 241.031 Q573.576 242.433 572.396 244.646 Q571.215 246.81 570.453 249.885 Q569.69 252.934 569.69 254.705 Q569.69 257.14 570.822 258.665 Q571.953 260.189 574.216 260.189 Q574.658 260.189 575.126 260.165 Q575.617 260.14 576.847 259.87 Q578.101 259.599 579.208 259.132 Q580.315 258.665 581.717 257.656 Q583.143 256.623 584.274 255.221 Q584.668 254.705 584.938 254.705 Q585.16 254.705 585.356 254.926 Z" fill="#000000" fill-rule="nonzero" fill-opacity="1" /><path clip-path="url(#clip830)" d="M606.736 254.926 Q606.933 255.148 606.933 255.369 Q606.933 255.59 606.441 256.23 Q605.974 256.869 604.966 257.73 Q603.957 258.591 602.654 259.402 Q601.35 260.214 599.432 260.755 Q597.514 261.321 595.497 261.321 Q591.734 261.321 589.521 258.837 Q587.332 256.353 587.332 252.787 Q587.332 249.319 589.275 245.999 Q591.218 242.654 594.366 240.588 Q597.514 238.498 600.834 238.498 Q603.465 238.498 605.113 239.727 Q606.761 240.957 606.761 242.826 Q606.761 244.277 605.925 245.163 Q605.089 246.048 603.957 246.048 Q603.17 246.048 602.629 245.605 Q602.088 245.138 602.088 244.277 Q602.088 243.171 602.998 242.31 Q603.342 241.965 603.736 241.818 Q604.154 241.646 604.4 241.646 Q604.646 241.621 605.212 241.621 Q604.695 240.662 603.465 240.146 Q602.26 239.605 600.883 239.605 Q598.842 239.605 596.899 241.031 Q594.956 242.433 593.776 244.646 Q592.595 246.81 591.833 249.885 Q591.07 252.934 591.07 254.705 Q591.07 257.14 592.202 258.665 Q593.333 260.189 595.595 260.189 Q596.038 260.189 596.505 260.165 Q596.997 260.14 598.227 259.87 Q599.481 259.599 600.588 259.132 Q601.695 258.665 603.097 257.656 Q604.523 256.623 605.654 255.221 Q606.048 254.705 606.318 254.705 Q606.54 254.705 606.736 254.926 Z" fill="#000000" fill-rule="nonzero" fill-opacity="1" /><path clip-path="url(#clip830)" d="M580.84 319.245 Q580.84 319.441 580.619 320.204 Q580.397 320.966 579.856 322.147 Q579.34 323.327 578.602 324.409 Q577.889 325.467 576.708 326.254 Q575.552 327.016 574.224 327.016 Q572.454 327.016 571.273 325.836 Q570.093 324.655 570.093 322.884 Q570.093 321.925 570.757 320.105 Q573.88 311.793 573.88 308.817 Q573.88 305.3 571.15 305.3 Q569.601 305.3 568.199 305.939 Q566.797 306.579 565.887 307.464 Q564.977 308.35 564.264 309.358 Q563.551 310.366 563.231 311.03 Q562.936 311.694 562.862 311.989 L559.837 324.139 Q559.591 325.172 559.419 325.663 Q559.247 326.155 558.78 326.573 Q558.312 327.016 557.575 327.016 Q556.96 327.016 556.517 326.647 Q556.099 326.278 556.099 325.639 Q556.099 325.54 556.222 325.024 Q556.345 324.508 556.517 323.794 Q556.689 323.081 556.763 322.663 Q557.648 319.318 557.771 318.851 L559.173 312.998 Q559.936 310.096 559.936 308.817 Q559.936 305.3 557.206 305.3 Q555.853 305.3 554.574 305.816 Q553.32 306.308 552.459 306.997 Q551.598 307.686 550.811 308.645 Q550.049 309.579 549.655 310.219 Q549.286 310.834 548.991 311.448 L548.352 313.957 Q548.204 314.646 547.491 317.326 L546.384 321.876 Q545.597 325.27 545.425 325.59 Q545.179 326.278 544.638 326.647 Q544.097 327.016 543.556 327.016 Q542.941 327.016 542.523 326.647 Q542.105 326.278 542.105 325.639 Q542.105 325.54 542.179 325.172 Q542.253 324.803 542.376 324.286 Q542.499 323.77 542.548 323.475 L545.474 311.842 Q546.016 309.727 546.139 309.063 Q546.286 308.374 546.286 307.612 Q546.286 305.3 544.712 305.3 Q543.433 305.3 542.597 306.825 Q541.761 308.35 541.048 311.301 Q540.826 312.112 540.679 312.285 Q540.556 312.457 540.187 312.457 Q539.572 312.432 539.572 311.94 Q539.572 311.817 539.769 311.03 Q539.966 310.243 540.334 309.063 Q540.728 307.858 541.146 307.071 Q541.392 306.554 541.613 306.21 Q541.835 305.866 542.277 305.325 Q542.72 304.784 543.384 304.488 Q544.048 304.193 544.86 304.193 Q546.655 304.193 547.983 305.349 Q549.336 306.505 549.508 308.571 Q552.779 304.193 557.353 304.193 Q559.936 304.193 561.485 305.497 Q562.936 306.751 563.108 309.063 Q566.502 304.193 571.322 304.193 Q574.101 304.193 575.602 305.644 Q577.102 307.071 577.102 309.579 Q577.102 310.883 576.438 313.367 Q575.774 315.826 575.331 317.056 Q574.888 318.285 574.028 320.646 Q573.118 322.909 573.118 324.237 Q573.118 325.098 573.413 325.491 Q573.708 325.885 574.347 325.885 Q575.331 325.885 576.192 325.319 Q577.053 324.729 577.667 323.77 Q578.307 322.786 578.725 321.802 Q579.143 320.794 579.463 319.663 Q579.66 319.048 579.758 318.9 Q579.881 318.753 580.225 318.753 Q580.84 318.753 580.84 319.245 Z" fill="#000000" fill-rule="nonzero" fill-opacity="1" /><path clip-path="url(#clip830)" d="M584.082 325.639 Q583.368 324.827 583.368 323.77 Q583.368 322.712 584.057 321.925 Q584.77 321.114 586.049 321.114 Q587.549 321.114 588.41 322.565 Q589.271 323.991 589.271 326.401 Q589.271 329.008 588.213 331.418 Q587.156 333.853 586.123 335.009 Q585.09 336.165 584.672 336.165 Q584.18 336.165 584.18 335.624 Q584.18 335.427 584.524 335.058 Q588.14 331.172 588.164 326.401 Q588.164 325.639 588.066 325.639 L587.943 325.737 Q587.082 326.45 586.049 326.45 Q584.795 326.45 584.082 325.639 Z" fill="#000000" fill-rule="nonzero" fill-opacity="1" /><path clip-path="url(#clip830)" d="M605.164 326.45 Q605.164 325.54 605.238 325.27 Q605.336 324.999 605.73 324.581 L615.395 313.809 Q620.683 307.858 620.683 302.668 Q620.683 299.299 618.912 296.889 Q617.166 294.479 613.944 294.479 Q611.731 294.479 609.862 295.831 Q607.992 297.184 607.132 299.594 Q607.279 299.545 607.796 299.545 Q609.05 299.545 609.739 300.332 Q610.452 301.119 610.452 302.177 Q610.452 303.529 609.566 304.193 Q608.706 304.833 607.845 304.833 Q607.501 304.833 607.033 304.759 Q606.591 304.685 605.877 303.997 Q605.164 303.283 605.164 302.029 Q605.164 298.512 607.82 295.708 Q610.501 292.905 614.584 292.905 Q619.207 292.905 622.232 295.659 Q625.282 298.389 625.282 302.668 Q625.282 304.169 624.814 305.546 Q624.372 306.899 623.757 307.956 Q623.167 309.014 621.544 310.711 Q619.92 312.408 618.617 313.613 Q617.313 314.818 614.387 317.375 L609.05 322.565 L618.125 322.565 Q622.552 322.565 622.896 322.171 Q623.388 321.458 624.003 317.695 L625.282 317.695 L623.855 326.45 L605.164 326.45 Z" fill="#000000" fill-rule="nonzero" fill-opacity="1" /><polyline clip-path="url(#clip830)" style="stroke:#3da44d; stroke-linecap:round; stroke-linejoin:round; stroke-width:6; stroke-opacity:1; fill:none" points="324.539,384.755 466.042,384.755 "/>
<circle clip-path="url(#clip830)" cx="395.291" cy="384.755" r="10.4646" fill="#3da44d" fill-rule="evenodd" fill-opacity="1" stroke="#000000" stroke-opacity="1" stroke-width="6.82667"/>
<path clip-path="url(#clip830)" d="M532.314 352.315 L528.414 368.055 Q528.203 369.004 528.028 369.25 Q527.852 369.496 527.36 369.496 Q526.973 369.496 526.728 369.32 Q526.517 369.144 526.517 368.969 L526.482 368.793 Q526.482 368.688 526.552 368.161 Q526.622 367.599 526.692 366.685 Q526.763 365.772 526.763 364.753 Q526.763 358.991 523.952 356.321 Q521.176 353.615 516.398 353.615 Q513.096 353.615 510.144 355.372 Q507.193 357.129 505.507 359.904 Q503.82 362.645 503.82 365.526 Q503.82 368.161 505.155 369.847 Q506.491 371.534 508.212 372.096 L513.025 373.396 Q518.085 374.696 519.525 375.258 Q520.966 375.785 522.16 376.979 Q525.709 380.282 525.709 385.411 Q525.709 389.838 523.214 394.124 Q520.72 398.376 516.433 401.151 Q512.147 403.892 507.404 403.892 Q499.077 403.892 495.248 398.727 L491.734 402.802 Q491.067 403.575 490.856 403.716 Q490.68 403.892 490.434 403.892 Q490.118 403.892 489.872 403.681 Q489.626 403.505 489.626 403.189 Q489.626 402.943 491.699 394.687 Q493.772 386.43 493.948 386.255 Q494.229 385.973 494.686 385.973 Q495.529 385.973 495.529 386.782 Q495.459 386.992 495.388 387.273 Q494.967 389.803 494.967 391.173 Q494.967 393.738 495.845 395.705 Q496.723 397.638 498.023 398.762 Q499.358 399.851 501.15 400.554 Q502.942 401.221 504.453 401.467 Q505.964 401.678 507.545 401.678 Q510.953 401.678 513.974 399.711 Q517.031 397.743 518.752 394.687 Q520.509 391.63 520.509 388.433 Q520.509 386.746 520.052 385.446 Q519.595 384.111 518.963 383.374 Q518.366 382.636 517.347 382.074 Q516.328 381.511 515.625 381.301 Q514.958 381.055 513.904 380.809 L506.21 378.771 Q503.118 377.858 500.904 375.223 Q498.726 372.588 498.726 368.547 Q498.726 364.296 501.221 360.361 Q503.75 356.391 507.861 354.002 Q512.007 351.578 516.469 351.578 Q519.982 351.578 522.687 352.948 Q525.392 354.283 526.763 356.777 L530.241 352.667 Q530.944 351.859 531.084 351.718 Q531.26 351.578 531.506 351.578 Q531.927 351.578 532.103 351.824 Q532.314 352.069 532.314 352.315 Z" fill="#000000" fill-rule="nonzero" fill-opacity="1" /><path clip-path="url(#clip830)" d="M562.641 350.909 Q561.977 354.081 561.116 355.901 Q559.739 358.68 557.402 358.68 Q555.632 358.68 554.377 357.598 Q553.123 356.516 552.828 354.893 Q549.606 358.68 546.261 358.68 Q543.31 358.68 541.441 356.442 Q539.572 354.18 539.572 350.613 Q539.572 347.023 541.343 343.58 Q543.138 340.137 545.966 337.997 Q548.795 335.857 551.697 335.857 Q554.771 335.857 556.345 339.079 Q556.468 338.194 557.033 337.53 Q557.599 336.866 558.46 336.866 Q559.124 336.866 559.517 337.235 Q559.911 337.579 559.911 338.218 Q559.911 338.538 559.567 339.94 L557.747 346.974 L556.64 351.523 Q556.222 353.196 556.099 353.811 Q556.001 354.425 556.001 355.237 Q556.001 357.549 557.501 357.549 Q558.239 357.549 558.829 357.082 Q559.419 356.614 559.886 355.631 Q560.354 354.647 560.649 353.737 Q560.944 352.802 561.337 351.327 Q561.46 350.736 561.559 350.589 Q561.682 350.417 562.026 350.417 Q562.641 350.417 562.641 350.909 M555.73 341.391 Q555.73 341.17 555.558 340.555 Q555.386 339.94 554.992 339.079 Q554.599 338.218 553.738 337.603 Q552.902 336.964 551.77 336.964 Q550.246 336.964 548.647 338.268 Q547.073 339.571 545.917 341.784 Q545.032 343.555 544.073 347.269 Q543.138 350.982 543.138 352.827 Q543.138 353.958 543.384 354.967 Q543.655 355.95 544.417 356.762 Q545.179 357.549 546.36 357.549 Q549.237 357.549 552.066 353.983 Q552.607 353.368 552.73 353.122 Q552.877 352.851 553.074 352.114 L555.582 342.252 Q555.73 341.514 555.73 341.391 Z" fill="#000000" fill-rule="nonzero" fill-opacity="1" /><path clip-path="url(#clip830)" d="M585.356 352.286 Q585.553 352.507 585.553 352.729 Q585.553 352.95 585.061 353.589 Q584.594 354.229 583.586 355.09 Q582.577 355.95 581.274 356.762 Q579.97 357.573 578.052 358.115 Q576.134 358.68 574.117 358.68 Q570.354 358.68 568.141 356.196 Q565.952 353.712 565.952 350.146 Q565.952 346.679 567.895 343.358 Q569.838 340.014 572.986 337.948 Q576.134 335.857 579.454 335.857 Q582.086 335.857 583.733 337.087 Q585.381 338.317 585.381 340.186 Q585.381 341.637 584.545 342.522 Q583.709 343.408 582.577 343.408 Q581.79 343.408 581.249 342.965 Q580.708 342.498 580.708 341.637 Q580.708 340.53 581.618 339.669 Q581.963 339.325 582.356 339.177 Q582.774 339.005 583.02 339.005 Q583.266 338.981 583.832 338.981 Q583.315 338.022 582.086 337.505 Q580.88 336.964 579.503 336.964 Q577.462 336.964 575.519 338.39 Q573.576 339.792 572.396 342.006 Q571.215 344.17 570.453 347.244 Q569.69 350.294 569.69 352.064 Q569.69 354.499 570.822 356.024 Q571.953 357.549 574.216 357.549 Q574.658 357.549 575.126 357.524 Q575.617 357.5 576.847 357.229 Q578.101 356.959 579.208 356.491 Q580.315 356.024 581.717 355.016 Q583.143 353.983 584.274 352.581 Q584.668 352.064 584.938 352.064 Q585.16 352.064 585.356 352.286 Z" fill="#000000" fill-rule="nonzero" fill-opacity="1" /><path clip-path="url(#clip830)" d="M606.736 352.286 Q606.933 352.507 606.933 352.729 Q606.933 352.95 606.441 353.589 Q605.974 354.229 604.966 355.09 Q603.957 355.95 602.654 356.762 Q601.35 357.573 599.432 358.115 Q597.514 358.68 595.497 358.68 Q591.734 358.68 589.521 356.196 Q587.332 353.712 587.332 350.146 Q587.332 346.679 589.275 343.358 Q591.218 340.014 594.366 337.948 Q597.514 335.857 600.834 335.857 Q603.465 335.857 605.113 337.087 Q606.761 338.317 606.761 340.186 Q606.761 341.637 605.925 342.522 Q605.089 343.408 603.957 343.408 Q603.17 343.408 602.629 342.965 Q602.088 342.498 602.088 341.637 Q602.088 340.53 602.998 339.669 Q603.342 339.325 603.736 339.177 Q604.154 339.005 604.4 339.005 Q604.646 338.981 605.212 338.981 Q604.695 338.022 603.465 337.505 Q602.26 336.964 600.883 336.964 Q598.842 336.964 596.899 338.39 Q594.956 339.792 593.776 342.006 Q592.595 344.17 591.833 347.244 Q591.07 350.294 591.07 352.064 Q591.07 354.499 592.202 356.024 Q593.333 357.549 595.595 357.549 Q596.038 357.549 596.505 357.524 Q596.997 357.5 598.227 357.229 Q599.481 356.959 600.588 356.491 Q601.695 356.024 603.097 355.016 Q604.523 353.983 605.654 352.581 Q606.048 352.064 606.318 352.064 Q606.54 352.064 606.736 352.286 Z" fill="#000000" fill-rule="nonzero" fill-opacity="1" /><path clip-path="url(#clip830)" d="M566.871 416.604 Q566.871 416.801 566.65 417.563 Q566.428 418.326 565.887 419.506 Q565.371 420.687 564.657 421.769 Q563.944 422.826 562.764 423.613 Q561.608 424.376 560.28 424.376 Q558.509 424.376 557.329 423.195 Q556.148 422.015 556.148 420.244 Q556.148 419.26 556.665 417.908 Q559.936 409.177 559.936 406.176 Q559.936 402.66 557.206 402.66 Q555.853 402.66 554.574 403.176 Q553.32 403.668 552.459 404.356 Q551.598 405.045 550.811 406.004 Q550.049 406.939 549.655 407.578 Q549.286 408.193 548.991 408.808 L548.352 411.316 Q548.204 412.005 547.491 414.686 L546.384 419.236 Q545.597 422.629 545.425 422.949 Q545.179 423.638 544.638 424.007 Q544.097 424.376 543.556 424.376 Q542.941 424.376 542.523 424.007 Q542.105 423.638 542.105 422.998 Q542.105 422.9 542.179 422.531 Q542.253 422.162 542.376 421.646 Q542.499 421.129 542.548 420.834 L545.474 409.201 Q546.016 407.086 546.139 406.422 Q546.286 405.734 546.286 404.971 Q546.286 402.66 544.712 402.66 Q543.433 402.66 542.597 404.184 Q541.761 405.709 541.048 408.66 Q540.826 409.472 540.679 409.644 Q540.556 409.816 540.187 409.816 Q539.572 409.792 539.572 409.3 Q539.572 409.177 539.769 408.365 Q539.966 407.554 540.334 406.398 Q540.728 405.217 541.097 404.43 Q541.417 403.84 541.589 403.569 Q541.785 403.274 542.253 402.709 Q542.745 402.118 543.384 401.848 Q544.048 401.553 544.86 401.553 Q546.68 401.553 548.008 402.733 Q549.336 403.889 549.508 405.93 Q552.779 401.553 557.353 401.553 Q560.058 401.553 561.608 402.979 Q563.157 404.406 563.157 406.939 Q563.157 407.529 563.034 408.291 Q562.936 409.029 562.69 409.964 Q562.469 410.898 562.272 411.612 Q562.075 412.325 561.682 413.481 Q561.288 414.612 561.116 415.104 Q560.944 415.596 560.526 416.752 Q560.132 417.883 560.083 418.006 Q559.173 420.293 559.173 421.597 Q559.173 422.457 559.444 422.851 Q559.739 423.244 560.378 423.244 Q562.1 423.244 563.379 421.547 Q564.682 419.826 565.518 417.022 Q565.715 416.407 565.813 416.26 Q565.936 416.112 566.281 416.112 Q566.871 416.112 566.871 416.604 Z" fill="#000000" fill-rule="nonzero" fill-opacity="1" /><path clip-path="url(#clip830)" d="M570.197 422.998 Q569.484 422.187 569.484 421.129 Q569.484 420.072 570.173 419.285 Q570.886 418.473 572.165 418.473 Q573.665 418.473 574.526 419.924 Q575.387 421.351 575.387 423.761 Q575.387 426.368 574.329 428.778 Q573.272 431.213 572.239 432.369 Q571.206 433.524 570.788 433.524 Q570.296 433.524 570.296 432.983 Q570.296 432.787 570.64 432.418 Q574.255 428.532 574.28 423.761 Q574.28 422.998 574.181 422.998 L574.059 423.097 Q573.198 423.81 572.165 423.81 Q570.911 423.81 570.197 422.998 Z" fill="#000000" fill-rule="nonzero" fill-opacity="1" /><path clip-path="url(#clip830)" d="M591.28 423.81 Q591.28 422.9 591.354 422.629 Q591.452 422.359 591.846 421.941 L601.511 411.169 Q606.798 405.217 606.798 400.028 Q606.798 396.659 605.028 394.249 Q603.282 391.838 600.06 391.838 Q597.846 391.838 595.977 393.191 Q594.108 394.544 593.247 396.954 Q593.395 396.905 593.911 396.905 Q595.166 396.905 595.854 397.692 Q596.568 398.479 596.568 399.536 Q596.568 400.889 595.682 401.553 Q594.821 402.192 593.961 402.192 Q593.616 402.192 593.149 402.118 Q592.706 402.045 591.993 401.356 Q591.28 400.643 591.28 399.389 Q591.28 395.872 593.936 393.068 Q596.617 390.264 600.699 390.264 Q605.323 390.264 608.348 393.019 Q611.397 395.749 611.397 400.028 Q611.397 401.528 610.93 402.905 Q610.488 404.258 609.873 405.316 Q609.282 406.373 607.659 408.07 Q606.036 409.767 604.733 410.972 Q603.429 412.177 600.503 414.735 L595.166 419.924 L604.241 419.924 Q608.668 419.924 609.012 419.531 Q609.504 418.817 610.119 415.055 L611.397 415.055 L609.971 423.81 L591.28 423.81 Z" fill="#000000" fill-rule="nonzero" fill-opacity="1" /></svg>
