<?xml version="1.0" encoding="utf-8"?>
<svg xmlns="http://www.w3.org/2000/svg" xmlns:xlink="http://www.w3.org/1999/xlink" width="600" height="400" viewBox="0 0 2400 1600">
<defs>
  <clipPath id="clip960">
    <rect x="0" y="0" width="2400" height="1600"/>
  </clipPath>
</defs>
<path clip-path="url(#clip960)" d="M0 1600 L2400 1600 L2400 0 L0 0  Z" fill="#ffffff" fill-rule="evenodd" fill-opacity="1"/>
<defs>
  <clipPath id="clip961">
    <rect x="480" y="0" width="1681" height="1600"/>
  </clipPath>
</defs>
<defs>
  <clipPath id="clip962">
    <rect x="230" y="47" width="2123" height="1364"/>
  </clipPath>
</defs>
<path clip-path="url(#clip960)" d="M230.389 1410.22 L2352.76 1410.22 L2352.76 47.2441 L230.389 47.2441  Z" fill="#ffffff" fill-rule="evenodd" fill-opacity="1"/>
<polyline clip-path="url(#clip960)" style="stroke:#000000; stroke-linecap:round; stroke-linejoin:round; stroke-width:4; stroke-opacity:1; fill:none" points="230.389,1410.22 2352.76,1410.22 "/>
<polyline clip-path="url(#clip960)" style="stroke:#000000; stroke-linecap:round; stroke-linejoin:round; stroke-width:4; stroke-opacity:1; fill:none" points="230.389,47.2441 2352.76,47.2441 "/>
<polyline clip-path="url(#clip960)" style="stroke:#000000; stroke-linecap:round; stroke-linejoin:round; stroke-width:4; stroke-opacity:1; fill:none" points="290.456,1410.22 290.456,1391.32 "/>
<polyline clip-path="url(#clip960)" style="stroke:#000000; stroke-linecap:round; stroke-linejoin:round; stroke-width:4; stroke-opacity:1; fill:none" points="624.161,1410.22 624.161,1391.32 "/>
<polyline clip-path="url(#clip960)" style="stroke:#000000; stroke-linecap:round; stroke-linejoin:round; stroke-width:4; stroke-opacity:1; fill:none" points="957.867,1410.22 957.867,1391.32 "/>
<polyline clip-path="url(#clip960)" style="stroke:#000000; stroke-linecap:round; stroke-linejoin:round; stroke-width:4; stroke-opacity:1; fill:none" points="1291.57,1410.22 1291.57,1391.32 "/>
<polyline clip-path="url(#clip960)" style="stroke:#000000; stroke-linecap:round; stroke-linejoin:round; stroke-width:4; stroke-opacity:1; fill:none" points="1625.28,1410.22 1625.28,1391.32 "/>
<polyline clip-path="url(#clip960)" style="stroke:#000000; stroke-linecap:round; stroke-linejoin:round; stroke-width:4; stroke-opacity:1; fill:none" points="1958.98,1410.22 1958.98,1391.32 "/>
<polyline clip-path="url(#clip960)" style="stroke:#000000; stroke-linecap:round; stroke-linejoin:round; stroke-width:4; stroke-opacity:1; fill:none" points="2292.69,1410.22 2292.69,1391.32 "/>
<path clip-path="url(#clip960)" d="M294.053 1466.71 Q294.424 1467.08 294.424 1467.61 Q294.424 1468.13 294.053 1468.51 Q293.682 1468.88 293.158 1468.88 L253.57 1468.88 Q253.045 1468.88 252.675 1468.51 Q252.304 1468.13 252.304 1467.61 Q252.304 1467.08 252.675 1466.71 Q253.045 1466.34 253.57 1466.34 L293.158 1466.34 Q293.682 1466.34 294.053 1466.71 Z" fill="#000000" fill-rule="nonzero" fill-opacity="1" /><path clip-path="url(#clip960)" d="M301.495 1453.68 L303.564 1440.68 L305.139 1440.68 Q305.324 1441.46 305.633 1441.79 Q305.972 1442.13 307.763 1442.41 Q309.585 1442.69 313.26 1442.69 L328.607 1442.69 Q328.607 1444.14 328.051 1444.91 L319.497 1456.93 Q316.78 1460.72 315.576 1467.73 Q314.866 1472.43 314.896 1478.11 L314.896 1481.32 Q314.896 1484.81 311.963 1484.81 Q309.06 1484.81 309.06 1481.32 Q309.06 1469.25 316.842 1457.54 Q317.676 1456.34 320.733 1452.05 Q323.821 1447.75 323.944 1447.57 L310.851 1447.57 Q305.108 1447.57 304.645 1447.94 Q304.027 1448.5 303.07 1453.68 L301.495 1453.68 Z" fill="#000000" fill-rule="nonzero" fill-opacity="1" /><path clip-path="url(#clip960)" d="M628.639 1466.71 Q629.009 1467.08 629.009 1467.61 Q629.009 1468.13 628.639 1468.51 Q628.268 1468.88 627.743 1468.88 L588.156 1468.88 Q587.631 1468.88 587.261 1468.51 Q586.89 1468.13 586.89 1467.61 Q586.89 1467.08 587.261 1466.71 Q587.631 1466.34 588.156 1466.34 L627.743 1466.34 Q628.268 1466.34 628.639 1466.71 Z" fill="#000000" fill-rule="nonzero" fill-opacity="1" /><path clip-path="url(#clip960)" d="M635.185 1463.44 Q635.185 1453.5 640.249 1447.41 Q645.313 1441.3 651.829 1441.3 Q655.627 1441.3 657.727 1443.25 Q659.857 1445.16 659.857 1448.12 Q659.857 1449.76 658.9 1450.47 Q657.943 1451.18 656.955 1451.18 Q655.812 1451.18 654.917 1450.41 Q654.021 1449.64 654.021 1448.25 Q654.021 1445.41 657.511 1445.41 Q655.874 1442.88 651.952 1442.88 Q650.748 1442.88 649.513 1443.25 Q648.278 1443.59 646.672 1444.76 Q645.066 1445.93 643.831 1447.79 Q642.596 1449.64 641.731 1453.13 Q640.867 1456.62 640.867 1461.16 L640.867 1462.67 Q643.461 1456.4 648.772 1456.43 Q654.083 1456.43 657.758 1460.48 Q661.432 1464.52 661.432 1470.51 Q661.432 1476.66 657.603 1480.73 Q653.774 1484.81 648.401 1484.81 Q645.993 1484.81 643.8 1483.79 Q641.639 1482.8 639.601 1480.52 Q637.594 1478.23 636.389 1473.85 Q635.185 1469.46 635.185 1463.44 M640.99 1469.12 Q640.99 1475.33 642.133 1478.29 Q642.318 1478.79 642.72 1479.47 Q643.152 1480.15 643.862 1481.04 Q644.603 1481.91 645.807 1482.49 Q647.012 1483.05 648.401 1483.05 Q652.632 1483.05 654.67 1478.94 Q655.751 1476.66 655.751 1470.45 Q655.751 1464.12 654.608 1461.8 Q652.663 1457.88 648.71 1457.88 Q646.054 1457.88 644.202 1459.7 Q642.38 1461.53 641.67 1463.97 Q640.99 1466.41 640.99 1469.12 Z" fill="#000000" fill-rule="nonzero" fill-opacity="1" /><path clip-path="url(#clip960)" d="M962.591 1466.71 Q962.962 1467.08 962.962 1467.61 Q962.962 1468.13 962.591 1468.51 Q962.221 1468.88 961.696 1468.88 L922.109 1468.88 Q921.584 1468.88 921.213 1468.51 Q920.843 1468.13 920.843 1467.61 Q920.843 1467.08 921.213 1466.71 Q921.584 1466.34 922.109 1466.34 L961.696 1466.34 Q962.221 1466.34 962.591 1466.71 Z" fill="#000000" fill-rule="nonzero" fill-opacity="1" /><path clip-path="url(#clip960)" d="M969.632 1473.23 Q969.632 1471.35 970.651 1470.64 Q971.67 1469.89 972.75 1469.89 Q974.202 1469.89 975.036 1470.82 Q975.9 1471.72 975.9 1472.98 Q975.9 1474.25 975.036 1475.18 Q974.202 1476.07 972.75 1476.07 Q972.04 1476.07 971.67 1475.95 Q972.503 1478.85 975.036 1480.95 Q977.599 1483.05 980.964 1483.05 Q985.195 1483.05 987.727 1478.94 Q989.24 1476.29 989.24 1470.27 Q989.24 1464.95 988.097 1462.3 Q986.337 1458.25 982.724 1458.25 Q977.599 1458.25 974.572 1462.67 Q974.202 1463.22 973.769 1463.26 Q973.152 1463.26 972.998 1462.92 Q972.874 1462.55 972.874 1461.59 L972.874 1442.88 Q972.874 1441.36 973.492 1441.36 Q973.739 1441.36 974.264 1441.55 Q978.247 1443.31 982.663 1443.34 Q987.202 1443.34 991.278 1441.49 Q991.587 1441.3 991.772 1441.3 Q992.39 1441.3 992.421 1442.01 Q992.421 1442.26 991.896 1443 Q991.402 1443.71 990.321 1444.67 Q989.24 1445.59 987.85 1446.49 Q986.461 1447.38 984.423 1448 Q982.416 1448.59 980.192 1448.59 Q977.537 1448.59 974.819 1447.75 L974.819 1460.08 Q978.093 1456.86 982.848 1456.86 Q987.912 1456.86 991.402 1460.94 Q994.891 1465.02 994.891 1470.7 Q994.891 1476.66 990.753 1480.73 Q986.646 1484.81 981.088 1484.81 Q976.024 1484.81 972.812 1481.2 Q969.632 1477.58 969.632 1473.23 Z" fill="#000000" fill-rule="nonzero" fill-opacity="1" /><path clip-path="url(#clip960)" d="M1295.6 1466.71 Q1295.97 1467.08 1295.97 1467.61 Q1295.97 1468.13 1295.6 1468.51 Q1295.23 1468.88 1294.71 1468.88 L1255.12 1468.88 Q1254.59 1468.88 1254.22 1468.51 Q1253.85 1468.13 1253.85 1467.61 Q1253.85 1467.08 1254.22 1466.71 Q1254.59 1466.34 1255.12 1466.34 L1294.71 1466.34 Q1295.23 1466.34 1295.6 1466.71 Z" fill="#000000" fill-rule="nonzero" fill-opacity="1" /><path clip-path="url(#clip960)" d="M1301.25 1472.98 L1301.25 1471.04 L1320.68 1441.36 Q1321.17 1440.59 1321.94 1440.62 Q1322.65 1440.62 1322.81 1440.9 Q1322.96 1441.18 1322.96 1442.26 L1322.96 1471.04 L1329.29 1471.04 L1329.29 1472.98 L1322.96 1472.98 L1322.96 1478.48 Q1322.96 1480.3 1323.7 1480.89 Q1324.47 1481.47 1327.75 1481.47 L1329.08 1481.47 L1329.08 1483.42 Q1326.48 1483.23 1320.49 1483.23 Q1314.53 1483.23 1311.94 1483.42 L1311.94 1481.47 L1313.26 1481.47 Q1316.54 1481.47 1317.31 1480.92 Q1318.08 1480.33 1318.08 1478.48 L1318.08 1472.98 L1301.25 1472.98 M1303.04 1471.04 L1318.45 1471.04 L1318.45 1447.45 L1303.04 1471.04 Z" fill="#000000" fill-rule="nonzero" fill-opacity="1" /><path clip-path="url(#clip960)" d="M1629.76 1466.71 Q1630.13 1467.08 1630.13 1467.61 Q1630.13 1468.13 1629.76 1468.51 Q1629.38 1468.88 1628.86 1468.88 L1589.27 1468.88 Q1588.75 1468.88 1588.38 1468.51 Q1588.01 1468.13 1588.01 1467.61 Q1588.01 1467.08 1588.38 1466.71 Q1588.75 1466.34 1589.27 1466.34 L1628.86 1466.34 Q1629.38 1466.34 1629.76 1466.71 Z" fill="#000000" fill-rule="nonzero" fill-opacity="1" /><path clip-path="url(#clip960)" d="M1636.3 1474.9 Q1636.3 1473.01 1637.38 1472.12 Q1638.46 1471.22 1639.85 1471.22 Q1641.3 1471.22 1642.32 1472.18 Q1643.37 1473.11 1643.37 1474.74 Q1643.37 1476.5 1642.14 1477.49 Q1640.93 1478.48 1639.2 1478.23 Q1640.72 1480.76 1643.5 1481.91 Q1646.31 1483.05 1648.9 1483.05 Q1651.62 1483.05 1653.81 1480.7 Q1656.03 1478.36 1656.03 1472.61 Q1656.03 1467.73 1654.12 1464.92 Q1652.24 1462.11 1648.5 1462.11 L1645.72 1462.11 Q1644.76 1462.11 1644.48 1462.02 Q1644.21 1461.93 1644.21 1461.4 Q1644.21 1460.79 1645.16 1460.66 Q1646.12 1460.66 1647.63 1460.48 Q1651.31 1460.35 1653.25 1457.17 Q1655.01 1454.21 1655.01 1449.98 Q1655.01 1446.12 1653.16 1444.51 Q1651.34 1442.88 1648.96 1442.88 Q1646.74 1442.88 1644.3 1443.8 Q1641.86 1444.73 1640.53 1446.8 Q1644.45 1446.8 1644.45 1449.98 Q1644.45 1451.37 1643.56 1452.29 Q1642.69 1453.19 1641.24 1453.19 Q1639.85 1453.19 1638.93 1452.32 Q1638 1451.43 1638 1449.92 Q1638 1446.3 1641.21 1443.8 Q1644.45 1441.3 1649.21 1441.3 Q1653.9 1441.3 1657.36 1443.77 Q1660.85 1446.24 1660.85 1450.04 Q1660.85 1453.78 1658.38 1456.83 Q1655.91 1459.89 1651.99 1461.16 Q1656.81 1462.11 1659.68 1465.39 Q1662.55 1468.63 1662.55 1472.61 Q1662.55 1477.55 1658.66 1481.2 Q1654.77 1484.81 1649.09 1484.81 Q1643.84 1484.81 1640.07 1481.97 Q1636.3 1479.13 1636.3 1474.9 Z" fill="#000000" fill-rule="nonzero" fill-opacity="1" /><path clip-path="url(#clip960)" d="M1963.71 1466.71 Q1964.08 1467.08 1964.08 1467.61 Q1964.08 1468.13 1963.71 1468.51 Q1963.34 1468.88 1962.81 1468.88 L1923.23 1468.88 Q1922.7 1468.88 1922.33 1468.51 Q1921.96 1468.13 1921.96 1467.61 Q1921.96 1467.08 1922.33 1466.71 Q1922.7 1466.34 1923.23 1466.34 L1962.81 1466.34 Q1963.34 1466.34 1963.71 1466.71 Z" fill="#000000" fill-rule="nonzero" fill-opacity="1" /><path clip-path="url(#clip960)" d="M1970.75 1483.42 Q1970.75 1482.28 1970.84 1481.94 Q1970.96 1481.6 1971.46 1481.07 L1983.59 1467.55 Q1990.23 1460.08 1990.23 1453.56 Q1990.23 1449.33 1988.01 1446.3 Q1985.82 1443.28 1981.77 1443.28 Q1978.99 1443.28 1976.65 1444.98 Q1974.3 1446.67 1973.22 1449.7 Q1973.4 1449.64 1974.05 1449.64 Q1975.63 1449.64 1976.49 1450.63 Q1977.39 1451.61 1977.39 1452.94 Q1977.39 1454.64 1976.28 1455.47 Q1975.19 1456.28 1974.11 1456.28 Q1973.68 1456.28 1973.1 1456.18 Q1972.54 1456.09 1971.64 1455.23 Q1970.75 1454.33 1970.75 1452.76 Q1970.75 1448.34 1974.08 1444.82 Q1977.45 1441.3 1982.58 1441.3 Q1988.38 1441.3 1992.18 1444.76 Q1996.01 1448.19 1996.01 1453.56 Q1996.01 1455.44 1995.42 1457.17 Q1994.86 1458.87 1994.09 1460.2 Q1993.35 1461.53 1991.31 1463.66 Q1989.28 1465.79 1987.64 1467.3 Q1986 1468.81 1982.33 1472.03 L1975.63 1478.54 L1987.02 1478.54 Q1992.58 1478.54 1993.01 1478.05 Q1993.63 1477.15 1994.4 1472.43 L1996.01 1472.43 L1994.22 1483.42 L1970.75 1483.42 Z" fill="#000000" fill-rule="nonzero" fill-opacity="1" /><path clip-path="url(#clip960)" d="M2298.37 1466.71 Q2298.74 1467.08 2298.74 1467.61 Q2298.74 1468.13 2298.37 1468.51 Q2298 1468.88 2297.48 1468.88 L2257.89 1468.88 Q2257.36 1468.88 2256.99 1468.51 Q2256.62 1468.13 2256.62 1467.61 Q2256.62 1467.08 2256.99 1466.71 Q2257.36 1466.34 2257.89 1466.34 L2297.48 1466.34 Q2298 1466.34 2298.37 1466.71 Z" fill="#000000" fill-rule="nonzero" fill-opacity="1" /><path clip-path="url(#clip960)" d="M2307.88 1447.32 L2307.88 1445.35 Q2315.48 1445.35 2319.4 1441.3 Q2320.48 1441.3 2320.67 1441.55 Q2320.85 1441.79 2320.85 1442.94 L2320.85 1478.42 Q2320.85 1480.3 2321.78 1480.89 Q2322.7 1481.47 2326.75 1481.47 L2328.76 1481.47 L2328.76 1483.42 Q2326.53 1483.23 2318.5 1483.23 Q2310.48 1483.23 2308.28 1483.42 L2308.28 1481.47 L2310.29 1481.47 Q2314.27 1481.47 2315.23 1480.92 Q2316.19 1480.33 2316.19 1478.42 L2316.19 1445.65 Q2312.88 1447.32 2307.88 1447.32 Z" fill="#000000" fill-rule="nonzero" fill-opacity="1" /><path clip-path="url(#clip960)" d="M1317.1 1517.34 Q1317.1 1518.78 1315.91 1518.78 Q1313.8 1518.85 1312.36 1519.27 Q1310.92 1519.66 1310.08 1520.43 Q1309.27 1521.21 1308.81 1522.05 Q1308.39 1522.86 1308.11 1524.09 L1301.71 1549.63 Q1299.89 1556.83 1293.99 1562.07 Q1288.08 1567.27 1281.37 1567.27 Q1277.54 1567.27 1274.35 1565.69 Q1271.18 1564.11 1269.22 1560.91 Q1267.25 1557.71 1267.25 1553.46 Q1267.25 1551.42 1267.78 1549.28 L1272.13 1531.5 L1273.75 1525.18 Q1274.94 1520.5 1274.94 1520.08 Q1274.94 1519.42 1274.52 1519.24 Q1274.13 1519.03 1273.01 1518.92 L1270.27 1518.78 Q1269.43 1518.78 1269.08 1518.75 Q1268.76 1518.71 1268.51 1518.54 Q1268.27 1518.36 1268.27 1517.97 Q1268.27 1517.48 1268.37 1517.17 Q1268.51 1516.82 1268.76 1516.71 Q1269.01 1516.6 1269.18 1516.57 Q1269.36 1516.53 1269.64 1516.53 L1278.91 1516.75 L1288.12 1516.53 Q1289.14 1516.53 1289.14 1517.34 Q1289.14 1518.36 1288.68 1518.57 Q1288.22 1518.78 1286.68 1518.78 Q1284.04 1518.78 1282.85 1519.13 Q1281.69 1519.45 1281.34 1520.01 Q1281.02 1520.54 1280.63 1522.09 L1273.64 1550.09 Q1273.29 1551.49 1273.08 1552.9 Q1272.91 1554.27 1272.91 1554.97 L1272.87 1555.67 Q1272.87 1560.14 1275.33 1562.59 Q1277.82 1565.05 1281.65 1565.05 Q1287.27 1565.05 1292.51 1560.59 Q1297.78 1556.13 1299.57 1549.14 L1306.04 1523.46 Q1306.25 1522.82 1306.25 1521.94 Q1306.25 1520.54 1305.19 1519.7 Q1304.17 1518.82 1301.36 1518.78 Q1300.06 1518.78 1300.06 1517.97 Q1300.06 1517.31 1300.31 1516.99 Q1300.59 1516.64 1300.8 1516.6 Q1301.05 1516.53 1301.36 1516.53 Q1302.56 1516.53 1305.09 1516.64 Q1307.62 1516.75 1308.85 1516.75 Q1310.08 1516.75 1312.54 1516.64 Q1315 1516.53 1316.19 1516.53 Q1316.61 1516.53 1316.82 1516.75 Q1317.07 1516.92 1317.1 1517.13 L1317.1 1517.34 Z" fill="#000000" fill-rule="nonzero" fill-opacity="1" /><polyline clip-path="url(#clip960)" style="stroke:#000000; stroke-linecap:round; stroke-linejoin:round; stroke-width:4; stroke-opacity:1; fill:none" points="230.389,1410.22 230.389,47.2441 "/>
<polyline clip-path="url(#clip960)" style="stroke:#000000; stroke-linecap:round; stroke-linejoin:round; stroke-width:4; stroke-opacity:1; fill:none" points="2352.76,1410.22 2352.76,47.2441 "/>
<polyline clip-path="url(#clip960)" style="stroke:#000000; stroke-linecap:round; stroke-linejoin:round; stroke-width:4; stroke-opacity:1; fill:none" points="230.389,1294.49 249.286,1294.49 "/>
<polyline clip-path="url(#clip960)" style="stroke:#000000; stroke-linecap:round; stroke-linejoin:round; stroke-width:4; stroke-opacity:1; fill:none" points="230.389,1051.81 249.286,1051.81 "/>
<polyline clip-path="url(#clip960)" style="stroke:#000000; stroke-linecap:round; stroke-linejoin:round; stroke-width:4; stroke-opacity:1; fill:none" points="230.389,809.126 249.286,809.126 "/>
<polyline clip-path="url(#clip960)" style="stroke:#000000; stroke-linecap:round; stroke-linejoin:round; stroke-width:4; stroke-opacity:1; fill:none" points="230.389,566.442 249.286,566.442 "/>
<polyline clip-path="url(#clip960)" style="stroke:#000000; stroke-linecap:round; stroke-linejoin:round; stroke-width:4; stroke-opacity:1; fill:none" points="230.389,323.758 249.286,323.758 "/>
<polyline clip-path="url(#clip960)" style="stroke:#000000; stroke-linecap:round; stroke-linejoin:round; stroke-width:4; stroke-opacity:1; fill:none" points="230.389,81.0734 249.286,81.0734 "/>
<path clip-path="url(#clip960)" d="M118.58 1295.87 Q118.58 1286.57 120.927 1281.51 Q124.2 1273.97 131.92 1273.97 Q133.557 1273.97 135.255 1274.44 Q136.984 1274.87 139.146 1276.57 Q141.338 1278.27 142.666 1281.05 Q145.198 1286.42 145.198 1295.87 Q145.198 1305.1 142.851 1310.13 Q139.424 1317.48 131.858 1317.48 Q129.017 1317.48 126.115 1316.03 Q123.243 1314.58 121.421 1311.09 Q118.58 1305.87 118.58 1295.87 M123.83 1295.1 Q123.83 1304.64 124.509 1308.44 Q125.281 1312.54 127.381 1314.33 Q129.511 1316.09 131.858 1316.09 Q134.39 1316.09 136.49 1314.21 Q138.621 1312.3 139.269 1308.19 Q139.979 1304.14 139.949 1295.1 Q139.949 1286.3 139.331 1282.78 Q138.497 1278.67 136.274 1277.03 Q134.082 1275.36 131.858 1275.36 Q131.024 1275.36 130.129 1275.61 Q129.264 1275.86 127.998 1276.57 Q126.732 1277.28 125.744 1279.04 Q124.787 1280.8 124.324 1283.45 Q123.83 1286.88 123.83 1295.1 Z" fill="#000000" fill-rule="nonzero" fill-opacity="1" /><path clip-path="url(#clip960)" d="M154.06 1315.07 Q153.103 1314.06 153.103 1312.73 Q153.103 1311.4 154.06 1310.44 Q155.018 1309.45 156.469 1309.45 Q157.858 1309.45 158.785 1310.38 Q159.742 1311.28 159.742 1312.76 Q159.742 1314.21 158.723 1315.17 Q157.735 1316.09 156.469 1316.09 Q155.018 1316.09 154.06 1315.07 Z" fill="#000000" fill-rule="nonzero" fill-opacity="1" /><path clip-path="url(#clip960)" d="M167.771 1295.87 Q167.771 1286.57 170.118 1281.51 Q173.391 1273.97 181.111 1273.97 Q182.747 1273.97 184.445 1274.44 Q186.175 1274.87 188.336 1276.57 Q190.529 1278.27 191.856 1281.05 Q194.389 1286.42 194.389 1295.87 Q194.389 1305.1 192.042 1310.13 Q188.614 1317.48 181.049 1317.48 Q178.208 1317.48 175.305 1316.03 Q172.433 1314.58 170.612 1311.09 Q167.771 1305.87 167.771 1295.87 M173.02 1295.1 Q173.02 1304.64 173.7 1308.44 Q174.472 1312.54 176.571 1314.33 Q178.702 1316.09 181.049 1316.09 Q183.581 1316.09 185.681 1314.21 Q187.811 1312.3 188.46 1308.19 Q189.17 1304.14 189.139 1295.1 Q189.139 1286.3 188.522 1282.78 Q187.688 1278.67 185.465 1277.03 Q183.272 1275.36 181.049 1275.36 Q180.215 1275.36 179.32 1275.61 Q178.455 1275.86 177.189 1276.57 Q175.923 1277.28 174.935 1279.04 Q173.977 1280.8 173.514 1283.45 Q173.02 1286.88 173.02 1295.1 Z" fill="#000000" fill-rule="nonzero" fill-opacity="1" /><path clip-path="url(#clip960)" d="M119.259 1053.18 Q119.259 1043.89 121.606 1038.82 Q124.88 1031.29 132.599 1031.29 Q134.236 1031.29 135.934 1031.75 Q137.664 1032.19 139.825 1033.88 Q142.017 1035.58 143.345 1038.36 Q145.877 1043.73 145.877 1053.18 Q145.877 1062.42 143.531 1067.45 Q140.103 1074.8 132.538 1074.8 Q129.697 1074.8 126.794 1073.35 Q123.922 1071.9 122.1 1068.41 Q119.259 1063.19 119.259 1053.18 M124.509 1052.41 Q124.509 1061.95 125.188 1065.75 Q125.96 1069.86 128.06 1071.65 Q130.191 1073.41 132.538 1073.41 Q135.07 1073.41 137.169 1071.53 Q139.3 1069.61 139.949 1065.5 Q140.659 1061.46 140.628 1052.41 Q140.628 1043.61 140.01 1040.09 Q139.177 1035.98 136.953 1034.35 Q134.761 1032.68 132.538 1032.68 Q131.704 1032.68 130.808 1032.93 Q129.944 1033.17 128.678 1033.88 Q127.412 1034.59 126.423 1036.35 Q125.466 1038.11 125.003 1040.77 Q124.509 1044.2 124.509 1052.41 Z" fill="#000000" fill-rule="nonzero" fill-opacity="1" /><path clip-path="url(#clip960)" d="M154.74 1072.39 Q153.782 1071.37 153.782 1070.04 Q153.782 1068.72 154.74 1067.76 Q155.697 1066.77 157.148 1066.77 Q158.538 1066.77 159.464 1067.7 Q160.421 1068.59 160.421 1070.07 Q160.421 1071.53 159.402 1072.48 Q158.414 1073.41 157.148 1073.41 Q155.697 1073.41 154.74 1072.39 Z" fill="#000000" fill-rule="nonzero" fill-opacity="1" /><path clip-path="url(#clip960)" d="M169.129 1063.22 Q169.129 1061.34 170.148 1060.63 Q171.167 1059.88 172.248 1059.88 Q173.7 1059.88 174.533 1060.81 Q175.398 1061.71 175.398 1062.97 Q175.398 1064.24 174.533 1065.16 Q173.7 1066.06 172.248 1066.06 Q171.538 1066.06 171.167 1065.94 Q172.001 1068.84 174.533 1070.94 Q177.096 1073.04 180.462 1073.04 Q184.693 1073.04 187.225 1068.93 Q188.738 1066.28 188.738 1060.26 Q188.738 1054.94 187.595 1052.29 Q185.835 1048.24 182.222 1048.24 Q177.096 1048.24 174.07 1052.66 Q173.7 1053.21 173.267 1053.25 Q172.65 1053.25 172.495 1052.91 Q172.372 1052.54 172.372 1051.58 L172.372 1032.87 Q172.372 1031.35 172.989 1031.35 Q173.236 1031.35 173.761 1031.54 Q177.745 1033.3 182.16 1033.33 Q186.7 1033.33 190.776 1031.48 Q191.085 1031.29 191.27 1031.29 Q191.887 1031.29 191.918 1032 Q191.918 1032.25 191.393 1032.99 Q190.899 1033.7 189.818 1034.66 Q188.738 1035.58 187.348 1036.48 Q185.959 1037.37 183.921 1037.99 Q181.913 1038.58 179.69 1038.58 Q177.034 1038.58 174.317 1037.74 L174.317 1050.07 Q177.59 1046.85 182.346 1046.85 Q187.41 1046.85 190.899 1050.93 Q194.389 1055.01 194.389 1060.69 Q194.389 1066.65 190.251 1070.72 Q186.144 1074.8 180.586 1074.8 Q175.521 1074.8 172.31 1071.19 Q169.129 1067.57 169.129 1063.22 Z" fill="#000000" fill-rule="nonzero" fill-opacity="1" /><path clip-path="url(#clip960)" d="M121.73 794.628 L121.73 792.652 Q129.326 792.652 133.248 788.606 Q134.329 788.606 134.514 788.853 Q134.699 789.1 134.699 790.243 L134.699 825.723 Q134.699 827.607 135.625 828.194 Q136.552 828.78 140.597 828.78 L142.604 828.78 L142.604 830.726 Q140.381 830.54 132.352 830.54 Q124.324 830.54 122.131 830.726 L122.131 828.78 L124.138 828.78 Q128.122 828.78 129.079 828.224 Q130.036 827.638 130.036 825.723 L130.036 792.96 Q126.732 794.628 121.73 794.628 Z" fill="#000000" fill-rule="nonzero" fill-opacity="1" /><path clip-path="url(#clip960)" d="M154.06 829.707 Q153.103 828.688 153.103 827.36 Q153.103 826.032 154.06 825.075 Q155.018 824.087 156.469 824.087 Q157.858 824.087 158.785 825.013 Q159.742 825.908 159.742 827.391 Q159.742 828.842 158.723 829.799 Q157.735 830.726 156.469 830.726 Q155.018 830.726 154.06 829.707 Z" fill="#000000" fill-rule="nonzero" fill-opacity="1" /><path clip-path="url(#clip960)" d="M167.771 810.5 Q167.771 801.205 170.118 796.141 Q173.391 788.606 181.111 788.606 Q182.747 788.606 184.445 789.07 Q186.175 789.502 188.336 791.2 Q190.529 792.899 191.856 795.678 Q194.389 801.051 194.389 810.5 Q194.389 819.733 192.042 824.766 Q188.614 832.115 181.049 832.115 Q178.208 832.115 175.305 830.664 Q172.433 829.213 170.612 825.723 Q167.771 820.505 167.771 810.5 M173.02 809.728 Q173.02 819.269 173.7 823.068 Q174.472 827.175 176.571 828.966 Q178.702 830.726 181.049 830.726 Q183.581 830.726 185.681 828.842 Q187.811 826.927 188.46 822.821 Q189.17 818.775 189.139 809.728 Q189.139 800.927 188.522 797.407 Q187.688 793.3 185.465 791.663 Q183.272 789.996 181.049 789.996 Q180.215 789.996 179.32 790.243 Q178.455 790.49 177.189 791.2 Q175.923 791.91 174.935 793.671 Q173.977 795.431 173.514 798.086 Q173.02 801.514 173.02 809.728 Z" fill="#000000" fill-rule="nonzero" fill-opacity="1" /><path clip-path="url(#clip960)" d="M122.409 551.944 L122.409 549.968 Q130.005 549.968 133.927 545.922 Q135.008 545.922 135.193 546.169 Q135.378 546.416 135.378 547.559 L135.378 583.039 Q135.378 584.923 136.305 585.509 Q137.231 586.096 141.276 586.096 L143.284 586.096 L143.284 588.042 Q141.06 587.856 133.032 587.856 Q125.003 587.856 122.811 588.042 L122.811 586.096 L124.818 586.096 Q128.801 586.096 129.758 585.54 Q130.716 584.954 130.716 583.039 L130.716 550.276 Q127.412 551.944 122.409 551.944 Z" fill="#000000" fill-rule="nonzero" fill-opacity="1" /><path clip-path="url(#clip960)" d="M154.74 587.023 Q153.782 586.004 153.782 584.676 Q153.782 583.348 154.74 582.391 Q155.697 581.403 157.148 581.403 Q158.538 581.403 159.464 582.329 Q160.421 583.224 160.421 584.707 Q160.421 586.158 159.402 587.115 Q158.414 588.042 157.148 588.042 Q155.697 588.042 154.74 587.023 Z" fill="#000000" fill-rule="nonzero" fill-opacity="1" /><path clip-path="url(#clip960)" d="M169.129 577.851 Q169.129 575.968 170.148 575.258 Q171.167 574.516 172.248 574.516 Q173.7 574.516 174.533 575.443 Q175.398 576.338 175.398 577.604 Q175.398 578.87 174.533 579.797 Q173.7 580.692 172.248 580.692 Q171.538 580.692 171.167 580.569 Q172.001 583.471 174.533 585.571 Q177.096 587.671 180.462 587.671 Q184.693 587.671 187.225 583.564 Q188.738 580.908 188.738 574.887 Q188.738 569.576 187.595 566.92 Q185.835 562.875 182.222 562.875 Q177.096 562.875 174.07 567.291 Q173.7 567.847 173.267 567.877 Q172.65 567.877 172.495 567.538 Q172.372 567.167 172.372 566.21 L172.372 547.497 Q172.372 545.984 172.989 545.984 Q173.236 545.984 173.761 546.169 Q177.745 547.929 182.16 547.96 Q186.7 547.96 190.776 546.108 Q191.085 545.922 191.27 545.922 Q191.887 545.922 191.918 546.633 Q191.918 546.88 191.393 547.621 Q190.899 548.331 189.818 549.288 Q188.738 550.215 187.348 551.11 Q185.959 552.006 183.921 552.623 Q181.913 553.21 179.69 553.21 Q177.034 553.21 174.317 552.376 L174.317 564.697 Q177.59 561.485 182.346 561.485 Q187.41 561.485 190.899 565.562 Q194.389 569.638 194.389 575.319 Q194.389 581.279 190.251 585.355 Q186.144 589.431 180.586 589.431 Q175.521 589.431 172.31 585.818 Q169.129 582.205 169.129 577.851 Z" fill="#000000" fill-rule="nonzero" fill-opacity="1" /><path clip-path="url(#clip960)" d="M119.259 345.358 Q119.259 344.215 119.352 343.875 Q119.476 343.536 119.97 343.011 L132.105 329.486 Q138.744 322.013 138.744 315.497 Q138.744 311.267 136.521 308.241 Q134.329 305.215 130.283 305.215 Q127.504 305.215 125.157 306.913 Q122.811 308.611 121.73 311.637 Q121.915 311.576 122.564 311.576 Q124.138 311.576 125.003 312.564 Q125.899 313.552 125.899 314.88 Q125.899 316.578 124.787 317.412 Q123.706 318.215 122.625 318.215 Q122.193 318.215 121.606 318.122 Q121.05 318.029 120.155 317.165 Q119.259 316.269 119.259 314.694 Q119.259 310.279 122.594 306.759 Q125.96 303.238 131.086 303.238 Q136.892 303.238 140.69 306.697 Q144.519 310.124 144.519 315.497 Q144.519 317.381 143.932 319.11 Q143.376 320.809 142.604 322.136 Q141.863 323.464 139.825 325.595 Q137.787 327.725 136.15 329.239 Q134.514 330.752 130.839 333.963 L124.138 340.479 L135.533 340.479 Q141.091 340.479 141.523 339.985 Q142.141 339.089 142.913 334.365 L144.519 334.365 L142.728 345.358 L119.259 345.358 Z" fill="#000000" fill-rule="nonzero" fill-opacity="1" /><path clip-path="url(#clip960)" d="M154.06 344.338 Q153.103 343.319 153.103 341.992 Q153.103 340.664 154.06 339.707 Q155.018 338.718 156.469 338.718 Q157.858 338.718 158.785 339.645 Q159.742 340.54 159.742 342.023 Q159.742 343.474 158.723 344.431 Q157.735 345.358 156.469 345.358 Q155.018 345.358 154.06 344.338 Z" fill="#000000" fill-rule="nonzero" fill-opacity="1" /><path clip-path="url(#clip960)" d="M167.771 325.132 Q167.771 315.837 170.118 310.773 Q173.391 303.238 181.111 303.238 Q182.747 303.238 184.445 303.701 Q186.175 304.134 188.336 305.832 Q190.529 307.53 191.856 310.31 Q194.389 315.683 194.389 325.132 Q194.389 334.365 192.042 339.398 Q188.614 346.747 181.049 346.747 Q178.208 346.747 175.305 345.296 Q172.433 343.844 170.612 340.355 Q167.771 335.136 167.771 325.132 M173.02 324.36 Q173.02 333.901 173.7 337.699 Q174.472 341.806 176.571 343.597 Q178.702 345.358 181.049 345.358 Q183.581 345.358 185.681 343.474 Q187.811 341.559 188.46 337.452 Q189.17 333.407 189.139 324.36 Q189.139 315.559 188.522 312.039 Q187.688 307.932 185.465 306.295 Q183.272 304.628 181.049 304.628 Q180.215 304.628 179.32 304.875 Q178.455 305.122 177.189 305.832 Q175.923 306.542 174.935 308.302 Q173.977 310.063 173.514 312.718 Q173.02 316.146 173.02 324.36 Z" fill="#000000" fill-rule="nonzero" fill-opacity="1" /><path clip-path="url(#clip960)" d="M119.939 102.673 Q119.939 101.531 120.031 101.191 Q120.155 100.852 120.649 100.327 L132.785 86.8015 Q139.424 79.3288 139.424 72.8133 Q139.424 68.5828 137.2 65.5566 Q135.008 62.5305 130.963 62.5305 Q128.184 62.5305 125.837 64.2288 Q123.49 65.9272 122.409 68.9534 Q122.594 68.8916 123.243 68.8916 Q124.818 68.8916 125.682 69.8797 Q126.578 70.8679 126.578 72.1957 Q126.578 73.894 125.466 74.7278 Q124.385 75.5306 123.305 75.5306 Q122.872 75.5306 122.286 75.438 Q121.73 75.3453 120.834 74.4807 Q119.939 73.5852 119.939 72.0104 Q119.939 67.5947 123.274 64.0744 Q126.64 60.5542 131.766 60.5542 Q137.571 60.5542 141.369 64.0127 Q145.198 67.4403 145.198 72.8133 Q145.198 74.6969 144.611 76.4261 Q144.055 78.1245 143.284 79.4523 Q142.542 80.7801 140.504 82.9107 Q138.466 85.0414 136.83 86.5545 Q135.193 88.0676 131.519 91.279 L124.818 97.7945 L136.212 97.7945 Q141.77 97.7945 142.203 97.3005 Q142.82 96.405 143.592 91.6804 L145.198 91.6804 L143.407 102.673 L119.939 102.673 Z" fill="#000000" fill-rule="nonzero" fill-opacity="1" /><path clip-path="url(#clip960)" d="M154.74 101.654 Q153.782 100.635 153.782 99.3076 Q153.782 97.9798 154.74 97.0225 Q155.697 96.0344 157.148 96.0344 Q158.538 96.0344 159.464 96.9608 Q160.421 97.8563 160.421 99.3385 Q160.421 100.79 159.402 101.747 Q158.414 102.673 157.148 102.673 Q155.697 102.673 154.74 101.654 Z" fill="#000000" fill-rule="nonzero" fill-opacity="1" /><path clip-path="url(#clip960)" d="M169.129 92.4833 Q169.129 90.5997 170.148 89.8894 Q171.167 89.1483 172.248 89.1483 Q173.7 89.1483 174.533 90.0747 Q175.398 90.9702 175.398 92.2363 Q175.398 93.5023 174.533 94.4287 Q173.7 95.3242 172.248 95.3242 Q171.538 95.3242 171.167 95.2007 Q172.001 98.1033 174.533 100.203 Q177.096 102.303 180.462 102.303 Q184.693 102.303 187.225 98.196 Q188.738 95.5403 188.738 89.5189 Q188.738 84.2077 187.595 81.5521 Q185.835 77.5069 182.222 77.5069 Q177.096 77.5069 174.07 81.9226 Q173.7 82.4784 173.267 82.5093 Q172.65 82.5093 172.495 82.1696 Q172.372 81.7991 172.372 80.8418 L172.372 62.129 Q172.372 60.616 172.989 60.616 Q173.236 60.616 173.761 60.8012 Q177.745 62.5614 182.16 62.5922 Q186.7 62.5922 190.776 60.7395 Q191.085 60.5542 191.27 60.5542 Q191.887 60.5542 191.918 61.2644 Q191.918 61.5115 191.393 62.2526 Q190.899 62.9628 189.818 63.92 Q188.738 64.8464 187.348 65.7419 Q185.959 66.6374 183.921 67.255 Q181.913 67.8417 179.69 67.8417 Q177.034 67.8417 174.317 67.008 L174.317 79.3288 Q177.59 76.1173 182.346 76.1173 Q187.41 76.1173 190.899 80.1934 Q194.389 84.2694 194.389 89.9512 Q194.389 95.9109 190.251 99.9869 Q186.144 104.063 180.586 104.063 Q175.521 104.063 172.31 100.45 Q169.129 96.8373 169.129 92.4833 Z" fill="#000000" fill-rule="nonzero" fill-opacity="1" /><path clip-path="url(#clip960)" d="M65.5316 797.168 Q65.2505 797.168 63.4236 796.22 Q61.5615 795.271 54.9212 791.933 Q48.2458 788.596 41.2542 785.153 L16.3093 772.75 Q14.7283 771.872 14.7283 770.748 Q14.7283 769.729 15.3607 769.272 Q15.9931 768.816 20.2443 766.707 Q22.3172 765.618 23.6523 764.986 L64.3722 744.644 Q65.2505 744.292 65.5316 744.257 Q66.2343 744.257 66.2343 745.487 L66.2343 795.271 Q66.2343 797.168 65.5316 797.168 M60.7534 792.425 L60.7534 753.708 L21.8956 773.067 L60.7534 792.425 Z" fill="#000000" fill-rule="nonzero" fill-opacity="1" /><path clip-path="url(#clip960)" d="M16.2391 695.151 L31.979 699.051 Q32.9276 699.262 33.1735 699.437 Q33.4194 699.613 33.4194 700.105 Q33.4194 700.491 33.2438 700.737 Q33.0681 700.948 32.8924 700.948 L32.7168 700.983 Q32.6114 700.983 32.0844 700.913 Q31.5222 700.843 30.6087 700.772 Q29.6953 700.702 28.6764 700.702 Q22.9145 700.702 20.2443 703.513 Q17.539 706.288 17.539 711.067 Q17.539 714.369 19.2957 717.32 Q21.0524 720.272 23.8279 721.958 Q26.5684 723.644 29.4493 723.644 Q32.0844 723.644 33.7708 722.309 Q35.4572 720.974 36.0193 719.253 L37.3193 714.439 Q38.6192 709.38 39.1814 707.94 Q39.7084 706.499 40.9029 705.305 Q44.2055 701.756 49.335 701.756 Q53.7618 701.756 58.0481 704.251 Q62.2993 706.745 65.0749 711.031 Q67.8153 715.318 67.8153 720.061 Q67.8153 728.387 62.6506 732.217 L66.7262 735.73 Q67.4991 736.398 67.6396 736.609 Q67.8153 736.784 67.8153 737.03 Q67.8153 737.346 67.6045 737.592 Q67.4288 737.838 67.1126 737.838 Q66.8667 737.838 58.6103 735.765 Q50.3539 733.693 50.1782 733.517 Q49.8971 733.236 49.8971 732.779 Q49.8971 731.936 50.7052 731.936 Q50.916 732.006 51.1971 732.076 Q53.7267 732.498 55.0969 732.498 Q57.6617 732.498 59.6292 731.62 Q61.5615 730.741 62.6858 729.441 Q63.7749 728.106 64.4776 726.315 Q65.1451 724.523 65.3911 723.012 Q65.6019 721.501 65.6019 719.92 Q65.6019 716.512 63.6344 713.491 Q61.6669 710.434 58.6103 708.713 Q55.5536 706.956 52.3565 706.956 Q50.6701 706.956 49.3701 707.413 Q48.035 707.869 47.2972 708.502 Q46.5594 709.099 45.9973 710.118 Q45.4352 711.137 45.2243 711.839 Q44.9784 712.507 44.7325 713.561 L42.6947 721.255 Q41.7813 724.347 39.1462 726.56 Q36.5112 728.739 32.4708 728.739 Q28.2197 728.739 24.2847 726.244 Q20.3146 723.715 17.9255 719.604 Q15.5013 715.458 15.5013 710.996 Q15.5013 707.483 16.8715 704.778 Q18.2066 702.072 20.7011 700.702 L16.5904 697.224 Q15.7823 696.521 15.6418 696.381 Q15.5013 696.205 15.5013 695.959 Q15.5013 695.537 15.7472 695.362 Q15.9931 695.151 16.2391 695.151 Z" fill="#000000" fill-rule="nonzero" fill-opacity="1" /><path clip-path="url(#clip960)" d="M87.7337 687.893 Q86.8237 687.893 86.5532 687.819 Q86.2826 687.721 85.8645 687.327 L75.0926 677.662 Q69.1409 672.374 63.9517 672.374 Q60.5824 672.374 58.1722 674.145 Q55.762 675.891 55.762 679.113 Q55.762 681.326 57.1147 683.195 Q58.4673 685.064 60.8775 685.925 Q60.8283 685.778 60.8283 685.261 Q60.8283 684.007 61.6153 683.318 Q62.4023 682.605 63.4598 682.605 Q64.8125 682.605 65.4765 683.49 Q66.1159 684.351 66.1159 685.212 Q66.1159 685.556 66.0421 686.024 Q65.9684 686.466 65.2797 687.18 Q64.5665 687.893 63.3122 687.893 Q59.7954 687.893 56.9917 685.237 Q54.188 682.556 54.188 678.473 Q54.188 673.85 56.9425 670.825 Q59.6724 667.775 63.9517 667.775 Q65.4519 667.775 66.8291 668.242 Q68.1818 668.685 69.2393 669.3 Q70.2968 669.89 71.9938 671.513 Q73.6907 673.137 74.8958 674.44 Q76.1009 675.744 78.6586 678.67 L83.8479 684.007 L83.8479 674.932 Q83.8479 670.505 83.4544 670.161 Q82.7412 669.669 78.9783 669.054 L78.9783 667.775 L87.7337 669.202 L87.7337 687.893 Z" fill="#000000" fill-rule="nonzero" fill-opacity="1" /><polyline clip-path="url(#clip962)" style="stroke:#009af9; stroke-linecap:round; stroke-linejoin:round; stroke-width:4; stroke-opacity:1; fill:none" points="2292.69,272.815 1958.98,246.233 1291.57,348.058 957.867,505.281 624.161,656.322 290.456,881.529 "/>
<path clip-path="url(#clip962)" d="M2276.69 256.815 L2276.69 288.815 L2308.69 288.815 L2308.69 256.815 L2276.69 256.815 Z" fill="#009af9" fill-rule="evenodd" fill-opacity="1" stroke="#000000" stroke-opacity="1" stroke-width="3.2"/>
<path clip-path="url(#clip962)" d="M1942.98 230.233 L1942.98 262.233 L1974.98 262.233 L1974.98 230.233 L1942.98 230.233 Z" fill="#009af9" fill-rule="evenodd" fill-opacity="1" stroke="#000000" stroke-opacity="1" stroke-width="3.2"/>
<path clip-path="url(#clip962)" d="M1275.57 332.058 L1275.57 364.058 L1307.57 364.058 L1307.57 332.058 L1275.57 332.058 Z" fill="#009af9" fill-rule="evenodd" fill-opacity="1" stroke="#000000" stroke-opacity="1" stroke-width="3.2"/>
<path clip-path="url(#clip962)" d="M941.867 489.281 L941.867 521.281 L973.867 521.281 L973.867 489.281 L941.867 489.281 Z" fill="#009af9" fill-rule="evenodd" fill-opacity="1" stroke="#000000" stroke-opacity="1" stroke-width="3.2"/>
<path clip-path="url(#clip962)" d="M608.161 640.322 L608.161 672.322 L640.161 672.322 L640.161 640.322 L608.161 640.322 Z" fill="#009af9" fill-rule="evenodd" fill-opacity="1" stroke="#000000" stroke-opacity="1" stroke-width="3.2"/>
<path clip-path="url(#clip962)" d="M274.456 865.529 L274.456 897.529 L306.456 897.529 L306.456 865.529 L274.456 865.529 Z" fill="#009af9" fill-rule="evenodd" fill-opacity="1" stroke="#000000" stroke-opacity="1" stroke-width="3.2"/>
<polyline clip-path="url(#clip962)" style="stroke:#e26f46; stroke-linecap:round; stroke-linejoin:round; stroke-width:4; stroke-opacity:1; fill:none" points="2292.69,268.655 1958.98,157.616 1291.57,85.8189 957.867,87.8518 624.161,194.166 290.456,177.157 "/>
<path clip-path="url(#clip962)" d="M2276.69 252.655 L2276.69 284.655 L2308.69 284.655 L2308.69 252.655 L2276.69 252.655 Z" fill="#e26f46" fill-rule="evenodd" fill-opacity="1" stroke="#000000" stroke-opacity="1" stroke-width="3.2"/>
<path clip-path="url(#clip962)" d="M1942.98 141.616 L1942.98 173.616 L1974.98 173.616 L1974.98 141.616 L1942.98 141.616 Z" fill="#e26f46" fill-rule="evenodd" fill-opacity="1" stroke="#000000" stroke-opacity="1" stroke-width="3.2"/>
<path clip-path="url(#clip962)" d="M1275.57 69.8189 L1275.57 101.819 L1307.57 101.819 L1307.57 69.8189 L1275.57 69.8189 Z" fill="#e26f46" fill-rule="evenodd" fill-opacity="1" stroke="#000000" stroke-opacity="1" stroke-width="3.2"/>
<path clip-path="url(#clip962)" d="M941.867 71.8518 L941.867 103.852 L973.867 103.852 L973.867 71.8518 L941.867 71.8518 Z" fill="#e26f46" fill-rule="evenodd" fill-opacity="1" stroke="#000000" stroke-opacity="1" stroke-width="3.2"/>
<path clip-path="url(#clip962)" d="M608.161 178.166 L608.161 210.166 L640.161 210.166 L640.161 178.166 L608.161 178.166 Z" fill="#e26f46" fill-rule="evenodd" fill-opacity="1" stroke="#000000" stroke-opacity="1" stroke-width="3.2"/>
<path clip-path="url(#clip962)" d="M274.456 161.157 L274.456 193.157 L306.456 193.157 L306.456 161.157 L274.456 161.157 Z" fill="#e26f46" fill-rule="evenodd" fill-opacity="1" stroke="#000000" stroke-opacity="1" stroke-width="3.2"/>
<polyline clip-path="url(#clip962)" style="stroke:#3da44d; stroke-linecap:round; stroke-linejoin:round; stroke-width:4; stroke-opacity:1; fill:none" points="2292.69,408.989 1958.98,530.804 1291.57,891.318 957.867,1251.79 624.161,1098.81 290.456,1371.65 "/>
<path clip-path="url(#clip962)" d="M2276.69 392.989 L2276.69 424.989 L2308.69 424.989 L2308.69 392.989 L2276.69 392.989 Z" fill="#3da44d" fill-rule="evenodd" fill-opacity="1" stroke="#000000" stroke-opacity="1" stroke-width="3.2"/>
<path clip-path="url(#clip962)" d="M1942.98 514.804 L1942.98 546.804 L1974.98 546.804 L1974.98 514.804 L1942.98 514.804 Z" fill="#3da44d" fill-rule="evenodd" fill-opacity="1" stroke="#000000" stroke-opacity="1" stroke-width="3.2"/>
<path clip-path="url(#clip962)" d="M1275.57 875.318 L1275.57 907.318 L1307.57 907.318 L1307.57 875.318 L1275.57 875.318 Z" fill="#3da44d" fill-rule="evenodd" fill-opacity="1" stroke="#000000" stroke-opacity="1" stroke-width="3.2"/>
<path clip-path="url(#clip962)" d="M941.867 1235.79 L941.867 1267.79 L973.867 1267.79 L973.867 1235.79 L941.867 1235.79 Z" fill="#3da44d" fill-rule="evenodd" fill-opacity="1" stroke="#000000" stroke-opacity="1" stroke-width="3.2"/>
<path clip-path="url(#clip962)" d="M608.161 1082.81 L608.161 1114.81 L640.161 1114.81 L640.161 1082.81 L608.161 1082.81 Z" fill="#3da44d" fill-rule="evenodd" fill-opacity="1" stroke="#000000" stroke-opacity="1" stroke-width="3.2"/>
<path clip-path="url(#clip962)" d="M274.456 1355.65 L274.456 1387.65 L306.456 1387.65 L306.456 1355.65 L274.456 1355.65 Z" fill="#3da44d" fill-rule="evenodd" fill-opacity="1" stroke="#000000" stroke-opacity="1" stroke-width="3.2"/>
<polyline clip-path="url(#clip962)" style="stroke:#c271d2; stroke-linecap:round; stroke-linejoin:round; stroke-width:4; stroke-opacity:1; fill:none" points="2292.69,362.3 1958.98,317.488 1291.57,251.509 957.867,239.117 624.161,288.646 290.456,498.167 "/>
<path clip-path="url(#clip962)" d="M2276.69 346.3 L2276.69 378.3 L2308.69 378.3 L2308.69 346.3 L2276.69 346.3 Z" fill="#c271d2" fill-rule="evenodd" fill-opacity="1" stroke="#000000" stroke-opacity="1" stroke-width="3.2"/>
<path clip-path="url(#clip962)" d="M1942.98 301.488 L1942.98 333.488 L1974.98 333.488 L1974.98 301.488 L1942.98 301.488 Z" fill="#c271d2" fill-rule="evenodd" fill-opacity="1" stroke="#000000" stroke-opacity="1" stroke-width="3.2"/>
<path clip-path="url(#clip962)" d="M1275.57 235.509 L1275.57 267.509 L1307.57 267.509 L1307.57 235.509 L1275.57 235.509 Z" fill="#c271d2" fill-rule="evenodd" fill-opacity="1" stroke="#000000" stroke-opacity="1" stroke-width="3.2"/>
<path clip-path="url(#clip962)" d="M941.867 223.117 L941.867 255.117 L973.867 255.117 L973.867 223.117 L941.867 223.117 Z" fill="#c271d2" fill-rule="evenodd" fill-opacity="1" stroke="#000000" stroke-opacity="1" stroke-width="3.2"/>
<path clip-path="url(#clip962)" d="M608.161 272.646 L608.161 304.646 L640.161 304.646 L640.161 272.646 L608.161 272.646 Z" fill="#c271d2" fill-rule="evenodd" fill-opacity="1" stroke="#000000" stroke-opacity="1" stroke-width="3.2"/>
<path clip-path="url(#clip962)" d="M274.456 482.167 L274.456 514.167 L306.456 514.167 L306.456 482.167 L274.456 482.167 Z" fill="#c271d2" fill-rule="evenodd" fill-opacity="1" stroke="#000000" stroke-opacity="1" stroke-width="3.2"/>
<path clip-path="url(#clip960)" d="M1636.8 1364.79 L2282.01 1364.79 L2282.01 707.837 L1636.8 707.837  Z" fill="#ffffff" fill-rule="evenodd" fill-opacity="1"/>
<polyline clip-path="url(#clip960)" style="stroke:#000000; stroke-linecap:round; stroke-linejoin:round; stroke-width:4; stroke-opacity:0; fill:none" points="1636.8,1364.79 2282.01,1364.79 2282.01,707.837 1636.8,707.837 1636.8,1364.79 "/>
<polyline clip-path="url(#clip960)" style="stroke:#009af9; stroke-linecap:round; stroke-linejoin:round; stroke-width:6; stroke-opacity:1; fill:none" points="1660.38,839.227 1801.87,839.227 "/>
<path clip-path="url(#clip960)" d="M1722.51 830.612 L1722.51 847.842 L1739.74 847.842 L1739.74 830.612 L1722.51 830.612 Z" fill="#009af9" fill-rule="evenodd" fill-opacity="1" stroke="#000000" stroke-opacity="1" stroke-width="6.82667"/>
<path clip-path="url(#clip960)" d="M1825.45 847.835 Q1825.45 847.554 1826.4 845.727 Q1827.35 843.865 1830.69 837.225 Q1834.02 830.55 1837.47 823.558 L1849.87 798.613 Q1850.75 797.032 1851.87 797.032 Q1852.89 797.032 1853.35 797.665 Q1853.81 798.297 1855.91 802.548 Q1857 804.621 1857.63 805.956 L1877.98 846.676 Q1878.33 847.554 1878.36 847.835 Q1878.36 848.538 1877.13 848.538 L1827.35 848.538 Q1825.45 848.538 1825.45 847.835 M1830.2 843.057 L1868.91 843.057 L1849.55 804.199 L1830.2 843.057 Z" fill="#000000" fill-rule="nonzero" fill-opacity="1" /><path clip-path="url(#clip960)" d="M1927.47 798.543 L1923.57 814.283 Q1923.36 815.231 1923.18 815.477 Q1923.01 815.723 1922.52 815.723 Q1922.13 815.723 1921.88 815.548 Q1921.67 815.372 1921.67 815.196 L1921.64 815.021 Q1921.64 814.915 1921.71 814.388 Q1921.78 813.826 1921.85 812.913 Q1921.92 811.999 1921.92 810.98 Q1921.92 805.218 1919.11 802.548 Q1916.33 799.843 1911.55 799.843 Q1908.25 799.843 1905.3 801.6 Q1902.35 803.356 1900.66 806.132 Q1898.98 808.872 1898.98 811.753 Q1898.98 814.388 1900.31 816.075 Q1901.65 817.761 1903.37 818.323 L1908.18 819.623 Q1913.24 820.923 1914.68 821.485 Q1916.12 822.012 1917.32 823.207 Q1920.86 826.509 1920.86 831.639 Q1920.86 836.066 1918.37 840.352 Q1915.88 844.603 1911.59 847.379 Q1907.3 850.119 1902.56 850.119 Q1894.23 850.119 1890.4 844.955 L1886.89 849.03 Q1886.22 849.803 1886.01 849.943 Q1885.84 850.119 1885.59 850.119 Q1885.27 850.119 1885.03 849.908 Q1884.78 849.733 1884.78 849.416 Q1884.78 849.171 1886.86 840.914 Q1888.93 832.658 1889.1 832.482 Q1889.38 832.201 1889.84 832.201 Q1890.68 832.201 1890.68 833.009 Q1890.61 833.22 1890.54 833.501 Q1890.12 836.031 1890.12 837.401 Q1890.12 839.966 1891 841.933 Q1891.88 843.865 1893.18 844.99 Q1894.51 846.079 1896.31 846.781 Q1898.1 847.449 1899.61 847.695 Q1901.12 847.906 1902.7 847.906 Q1906.11 847.906 1909.13 845.938 Q1912.19 843.971 1913.91 840.914 Q1915.66 837.858 1915.66 834.66 Q1915.66 832.974 1915.21 831.674 Q1914.75 830.339 1914.12 829.601 Q1913.52 828.863 1912.5 828.301 Q1911.48 827.739 1910.78 827.528 Q1910.11 827.282 1909.06 827.036 L1901.37 824.999 Q1898.27 824.085 1896.06 821.45 Q1893.88 818.815 1893.88 814.775 Q1893.88 810.524 1896.38 806.589 Q1898.91 802.618 1903.02 800.229 Q1907.16 797.805 1911.62 797.805 Q1915.14 797.805 1917.84 799.175 Q1920.55 800.51 1921.92 803.005 L1925.4 798.894 Q1926.1 798.086 1926.24 797.946 Q1926.42 797.805 1926.66 797.805 Q1927.08 797.805 1927.26 798.051 Q1927.47 798.297 1927.47 798.543 Z" fill="#000000" fill-rule="nonzero" fill-opacity="1" /><path clip-path="url(#clip960)" d="M1934.73 870.038 Q1934.73 869.128 1934.8 868.857 Q1934.9 868.587 1935.29 868.168 L1944.96 857.396 Q1950.25 851.445 1950.25 846.256 Q1950.25 842.886 1948.48 840.476 Q1946.73 838.066 1943.51 838.066 Q1941.29 838.066 1939.43 839.419 Q1937.56 840.771 1936.7 843.181 Q1936.84 843.132 1937.36 843.132 Q1938.61 843.132 1939.3 843.919 Q1940.02 844.706 1940.02 845.764 Q1940.02 847.116 1939.13 847.78 Q1938.27 848.42 1937.41 848.42 Q1937.06 848.42 1936.6 848.346 Q1936.15 848.272 1935.44 847.584 Q1934.73 846.87 1934.73 845.616 Q1934.73 842.099 1937.38 839.296 Q1940.06 836.492 1944.15 836.492 Q1948.77 836.492 1951.8 839.246 Q1954.85 841.976 1954.85 846.256 Q1954.85 847.756 1954.38 849.133 Q1953.94 850.486 1953.32 851.543 Q1952.73 852.601 1951.11 854.298 Q1949.48 855.995 1948.18 857.2 Q1946.88 858.405 1943.95 860.962 L1938.61 866.152 L1947.69 866.152 Q1952.12 866.152 1952.46 865.758 Q1952.95 865.045 1953.57 861.282 L1954.85 861.282 L1953.42 870.038 L1934.73 870.038 Z" fill="#000000" fill-rule="nonzero" fill-opacity="1" /><path clip-path="url(#clip960)" d="M1962.33 830.55 Q1962.33 818.393 1966.86 808.591 Q1968.79 804.481 1971.49 801.037 Q1974.2 797.594 1975.99 796.084 Q1977.78 794.573 1978.28 794.573 Q1978.98 794.573 1979.01 795.276 Q1979.01 795.627 1978.06 796.505 Q1966.47 808.31 1966.51 830.55 Q1966.51 852.86 1977.78 864.208 Q1979.01 865.437 1979.01 865.824 Q1979.01 866.527 1978.28 866.527 Q1977.78 866.527 1976.06 865.086 Q1974.34 863.646 1971.67 860.343 Q1969 857.04 1967.07 853 Q1962.33 843.198 1962.33 830.55 Z" fill="#000000" fill-rule="nonzero" fill-opacity="1" /><path clip-path="url(#clip960)" d="M2023.93 828.477 Q2023.93 833.677 2021.26 838.56 Q2018.62 843.444 2014.48 846.395 Q2010.37 849.346 2006.22 849.346 Q2001.55 849.346 1999.12 844.498 Q1994.73 862.1 1994.49 862.556 Q1993.47 864.067 1991.99 864.067 Q1991.08 864.067 1990.52 863.505 Q1989.95 862.978 1989.95 862.135 Q1989.99 861.854 1990.2 860.975 L1997.23 832.693 Q1998.84 826.123 2003.73 821.45 Q2008.65 816.742 2013.92 816.742 Q2018.1 816.742 2021.01 819.869 Q2023.93 822.996 2023.93 828.477 M2018.76 825.385 Q2018.76 821.872 2017.36 820.115 Q2015.95 818.323 2013.78 818.323 Q2011.77 818.323 2009.35 819.939 Q2006.96 821.555 2004.85 825.139 Q2003.73 827.212 2002.92 829.777 Q2002.11 832.342 2000.53 838.666 Q1999.97 841.195 1999.97 841.336 Q1999.97 841.617 2000.11 842.249 Q2000.28 842.882 2000.71 843.865 Q2001.16 844.814 2001.79 845.657 Q2002.43 846.5 2003.59 847.133 Q2004.75 847.73 2006.15 847.73 Q2008.33 847.73 2010.65 845.973 Q2013 844.182 2014.72 840.914 Q2016.16 838.279 2017.46 833.325 Q2018.76 828.336 2018.76 825.385 Z" fill="#000000" fill-rule="nonzero" fill-opacity="1" /><path clip-path="url(#clip960)" d="M2031.28 803.218 Q2031.28 794.709 2034.45 787.847 Q2035.8 784.97 2037.69 782.56 Q2039.59 780.15 2040.84 779.092 Q2042.1 778.034 2042.44 778.034 Q2042.93 778.034 2042.96 778.526 Q2042.96 778.772 2042.29 779.387 Q2034.18 787.651 2034.2 803.218 Q2034.2 818.835 2042.1 826.779 Q2042.96 827.64 2042.96 827.91 Q2042.96 828.402 2042.44 828.402 Q2042.1 828.402 2040.89 827.394 Q2039.69 826.385 2037.82 824.074 Q2035.95 821.762 2034.6 818.934 Q2031.28 812.072 2031.28 803.218 Z" fill="#000000" fill-rule="nonzero" fill-opacity="1" /><path clip-path="url(#clip960)" d="M2088.05 808.604 Q2088.05 808.801 2087.83 809.563 Q2087.61 810.326 2087.07 811.506 Q2086.55 812.687 2085.82 813.769 Q2085.1 814.826 2083.92 815.613 Q2082.77 816.376 2081.44 816.376 Q2079.67 816.376 2078.49 815.195 Q2077.31 814.015 2077.31 812.244 Q2077.31 811.285 2077.97 809.465 Q2081.09 801.152 2081.09 798.177 Q2081.09 794.66 2078.36 794.66 Q2076.81 794.66 2075.41 795.299 Q2074.01 795.939 2073.1 796.824 Q2072.19 797.709 2071.48 798.718 Q2070.76 799.726 2070.44 800.39 Q2070.15 801.054 2070.08 801.349 L2067.05 813.498 Q2066.8 814.531 2066.63 815.023 Q2066.46 815.515 2065.99 815.933 Q2065.53 816.376 2064.79 816.376 Q2064.17 816.376 2063.73 816.007 Q2063.31 815.638 2063.31 814.999 Q2063.31 814.9 2063.44 814.384 Q2063.56 813.867 2063.73 813.154 Q2063.9 812.441 2063.98 812.023 Q2064.86 808.678 2064.98 808.211 L2066.39 802.357 Q2067.15 799.455 2067.15 798.177 Q2067.15 794.66 2064.42 794.66 Q2063.07 794.66 2061.79 795.176 Q2060.53 795.668 2059.67 796.357 Q2058.81 797.045 2058.02 798.004 Q2057.26 798.939 2056.87 799.578 Q2056.5 800.193 2056.2 800.808 L2055.57 803.317 Q2055.42 804.005 2054.7 806.686 L2053.6 811.236 Q2052.81 814.63 2052.64 814.949 Q2052.39 815.638 2051.85 816.007 Q2051.31 816.376 2050.77 816.376 Q2050.15 816.376 2049.74 816.007 Q2049.32 815.638 2049.32 814.999 Q2049.32 814.9 2049.39 814.531 Q2049.47 814.162 2049.59 813.646 Q2049.71 813.129 2049.76 812.834 L2052.69 801.202 Q2053.23 799.087 2053.35 798.423 Q2053.5 797.734 2053.5 796.972 Q2053.5 794.66 2051.93 794.66 Q2050.65 794.66 2049.81 796.185 Q2048.97 797.709 2048.26 800.661 Q2048.04 801.472 2047.89 801.644 Q2047.77 801.816 2047.4 801.816 Q2046.79 801.792 2046.79 801.3 Q2046.79 801.177 2046.98 800.39 Q2047.18 799.603 2047.55 798.423 Q2047.94 797.217 2048.36 796.43 Q2048.61 795.914 2048.83 795.57 Q2049.05 795.225 2049.49 794.684 Q2049.93 794.143 2050.6 793.848 Q2051.26 793.553 2052.07 793.553 Q2053.87 793.553 2055.2 794.709 Q2056.55 795.865 2056.72 797.931 Q2059.99 793.553 2064.57 793.553 Q2067.15 793.553 2068.7 794.856 Q2070.15 796.111 2070.32 798.423 Q2073.72 793.553 2078.54 793.553 Q2081.31 793.553 2082.81 795.004 Q2084.31 796.43 2084.31 798.939 Q2084.31 800.242 2083.65 802.726 Q2082.99 805.186 2082.54 806.415 Q2082.1 807.645 2081.24 810.006 Q2080.33 812.269 2080.33 813.597 Q2080.33 814.458 2080.63 814.851 Q2080.92 815.245 2081.56 815.245 Q2082.54 815.245 2083.4 814.679 Q2084.27 814.089 2084.88 813.129 Q2085.52 812.146 2085.94 811.162 Q2086.36 810.154 2086.68 809.022 Q2086.87 808.408 2086.97 808.26 Q2087.09 808.112 2087.44 808.112 Q2088.05 808.112 2088.05 808.604 Z" fill="#000000" fill-rule="nonzero" fill-opacity="1" /><path clip-path="url(#clip960)" d="M2092.4 827.91 Q2092.4 827.664 2093.04 827.049 Q2101.15 818.786 2101.15 803.218 Q2101.15 787.601 2093.36 779.707 Q2092.4 778.797 2092.4 778.526 Q2092.4 778.034 2092.89 778.034 Q2093.23 778.034 2094.44 779.043 Q2095.67 780.051 2097.51 782.363 Q2099.38 784.675 2100.76 787.503 Q2104.08 794.365 2104.08 803.218 Q2104.08 811.728 2100.91 818.589 Q2099.55 821.467 2097.66 823.877 Q2095.77 826.287 2094.51 827.345 Q2093.26 828.402 2092.89 828.402 Q2092.4 828.402 2092.4 827.91 Z" fill="#000000" fill-rule="nonzero" fill-opacity="1" /><path clip-path="url(#clip960)" d="M2065.83 884.331 Q2065.83 884.799 2065.63 885.045 Q2065.46 885.266 2065.29 885.315 Q2065.14 885.34 2064.92 885.34 Q2064.28 885.34 2062.07 885.266 Q2059.85 885.192 2059.21 885.192 Q2058.18 885.192 2056.07 885.266 Q2053.95 885.34 2052.92 885.34 Q2052.23 885.34 2052.23 884.774 Q2052.23 884.405 2052.3 884.208 Q2052.38 883.987 2052.57 883.913 Q2052.79 883.815 2052.92 883.815 Q2053.06 883.79 2053.43 883.79 Q2053.93 883.79 2054.44 883.741 Q2054.96 883.667 2055.6 883.52 Q2056.24 883.372 2056.63 883.003 Q2057.05 882.634 2057.05 882.118 Q2057.05 881.897 2056.88 880.077 Q2056.7 878.257 2056.48 876.142 Q2056.26 874.002 2056.24 873.707 L2043.6 873.707 Q2042.44 875.699 2041.63 877.076 Q2040.82 878.454 2040.52 878.921 Q2040.23 879.388 2040.05 879.683 Q2039.88 879.978 2039.78 880.15 Q2039.07 881.454 2039.07 882.02 Q2039.07 883.594 2041.43 883.79 Q2042.24 883.79 2042.24 884.381 Q2042.24 884.823 2042.05 885.069 Q2041.85 885.291 2041.68 885.315 Q2041.53 885.34 2041.28 885.34 Q2040.47 885.34 2038.78 885.266 Q2037.08 885.192 2036.24 885.192 Q2035.53 885.192 2034.05 885.266 Q2032.58 885.34 2031.91 885.34 Q2031.62 885.34 2031.45 885.168 Q2031.28 884.995 2031.28 884.774 Q2031.28 884.43 2031.32 884.233 Q2031.4 884.036 2031.59 883.938 Q2031.79 883.84 2031.89 883.84 Q2031.99 883.815 2032.33 883.79 Q2034.2 883.667 2035.65 882.782 Q2037.13 881.872 2038.53 879.536 L2056.04 850.122 Q2056.21 849.827 2056.34 849.679 Q2056.46 849.531 2056.7 849.409 Q2056.98 849.286 2057.37 849.286 Q2057.98 849.286 2058.11 849.482 Q2058.23 849.654 2058.3 850.491 L2061.38 881.97 Q2061.45 882.634 2061.5 882.905 Q2061.57 883.151 2061.89 883.421 Q2062.24 883.667 2062.85 883.741 Q2063.49 883.79 2064.67 883.79 Q2065.12 883.79 2065.29 883.815 Q2065.46 883.815 2065.63 883.938 Q2065.83 884.061 2065.83 884.331 M2056.09 872.133 L2054.49 855.532 L2044.56 872.133 L2056.09 872.133 Z" fill="#000000" fill-rule="nonzero" fill-opacity="1" /><path clip-path="url(#clip960)" d="M2070.87 888.019 Q2070.87 882.838 2072.18 880.014 Q2074.01 875.814 2078.31 875.814 Q2079.22 875.814 2080.17 876.072 Q2081.13 876.313 2082.34 877.26 Q2083.56 878.207 2084.3 879.756 Q2085.71 882.751 2085.71 888.019 Q2085.71 893.167 2084.41 895.973 Q2082.49 900.07 2078.28 900.07 Q2076.69 900.07 2075.08 899.261 Q2073.47 898.452 2072.46 896.507 Q2070.87 893.597 2070.87 888.019 M2073.8 887.589 Q2073.8 892.909 2074.18 895.026 Q2074.61 897.316 2075.78 898.314 Q2076.97 899.296 2078.28 899.296 Q2079.69 899.296 2080.86 898.245 Q2082.05 897.178 2082.41 894.888 Q2082.8 892.633 2082.79 887.589 Q2082.79 882.683 2082.44 880.72 Q2081.98 878.43 2080.74 877.518 Q2079.52 876.588 2078.28 876.588 Q2077.81 876.588 2077.31 876.726 Q2076.83 876.864 2076.13 877.26 Q2075.42 877.656 2074.87 878.637 Q2074.33 879.618 2074.08 881.099 Q2073.8 883.01 2073.8 887.589 Z" fill="#000000" fill-rule="nonzero" fill-opacity="1" /><path clip-path="url(#clip960)" d="M2127.1 865.824 Q2127.1 865.473 2128.01 864.594 Q2139.6 852.789 2139.6 830.55 Q2139.6 808.24 2128.47 796.962 Q2127.1 795.662 2127.1 795.276 Q2127.1 794.573 2127.8 794.573 Q2128.29 794.573 2130.01 796.013 Q2131.77 797.454 2134.4 800.756 Q2137.07 804.059 2139.04 808.099 Q2143.78 817.902 2143.78 830.55 Q2143.78 842.706 2139.25 852.508 Q2137.32 856.619 2134.62 860.062 Q2131.91 863.505 2130.12 865.016 Q2128.33 866.527 2127.8 866.527 Q2127.1 866.527 2127.1 865.824 Z" fill="#000000" fill-rule="nonzero" fill-opacity="1" /><polyline clip-path="url(#clip960)" style="stroke:#e26f46; stroke-linecap:round; stroke-linejoin:round; stroke-width:6; stroke-opacity:1; fill:none" points="1660.38,970.617 1801.87,970.617 "/>
<path clip-path="url(#clip960)" d="M1722.51 962.002 L1722.51 979.232 L1739.74 979.232 L1739.74 962.002 L1722.51 962.002 Z" fill="#e26f46" fill-rule="evenodd" fill-opacity="1" stroke="#000000" stroke-opacity="1" stroke-width="6.82667"/>
<path clip-path="url(#clip960)" d="M1825.45 974.365 Q1825.45 974.084 1826.4 972.257 Q1827.35 970.394 1830.69 963.754 Q1834.02 957.079 1837.47 950.087 L1849.87 925.142 Q1850.75 923.561 1851.87 923.561 Q1852.89 923.561 1853.35 924.194 Q1853.81 924.826 1855.91 929.077 Q1857 931.15 1857.63 932.485 L1877.98 973.205 Q1878.33 974.084 1878.36 974.365 Q1878.36 975.067 1877.13 975.067 L1827.35 975.067 Q1825.45 975.067 1825.45 974.365 M1830.2 969.586 L1868.91 969.586 L1849.55 930.729 L1830.2 969.586 Z" fill="#000000" fill-rule="nonzero" fill-opacity="1" /><path clip-path="url(#clip960)" d="M1927.47 925.072 L1923.57 940.812 Q1923.36 941.761 1923.18 942.006 Q1923.01 942.252 1922.52 942.252 Q1922.13 942.252 1921.88 942.077 Q1921.67 941.901 1921.67 941.725 L1921.64 941.55 Q1921.64 941.444 1921.71 940.917 Q1921.78 940.355 1921.85 939.442 Q1921.92 938.528 1921.92 937.509 Q1921.92 931.747 1919.11 929.077 Q1916.33 926.372 1911.55 926.372 Q1908.25 926.372 1905.3 928.129 Q1902.35 929.885 1900.66 932.661 Q1898.98 935.401 1898.98 938.282 Q1898.98 940.917 1900.31 942.604 Q1901.65 944.29 1903.37 944.852 L1908.18 946.152 Q1913.24 947.452 1914.68 948.014 Q1916.12 948.541 1917.32 949.736 Q1920.86 953.038 1920.86 958.168 Q1920.86 962.595 1918.37 966.881 Q1915.88 971.132 1911.59 973.908 Q1907.3 976.648 1902.56 976.648 Q1894.23 976.648 1890.4 971.484 L1886.89 975.559 Q1886.22 976.332 1886.01 976.473 Q1885.84 976.648 1885.59 976.648 Q1885.27 976.648 1885.03 976.437 Q1884.78 976.262 1884.78 975.946 Q1884.78 975.7 1886.86 967.443 Q1888.93 959.187 1889.1 959.011 Q1889.38 958.73 1889.84 958.73 Q1890.68 958.73 1890.68 959.538 Q1890.61 959.749 1890.54 960.03 Q1890.12 962.56 1890.12 963.93 Q1890.12 966.495 1891 968.462 Q1891.88 970.394 1893.18 971.519 Q1894.51 972.608 1896.31 973.311 Q1898.1 973.978 1899.61 974.224 Q1901.12 974.435 1902.7 974.435 Q1906.11 974.435 1909.13 972.467 Q1912.19 970.5 1913.91 967.443 Q1915.66 964.387 1915.66 961.189 Q1915.66 959.503 1915.21 958.203 Q1914.75 956.868 1914.12 956.13 Q1913.52 955.392 1912.5 954.83 Q1911.48 954.268 1910.78 954.057 Q1910.11 953.811 1909.06 953.565 L1901.37 951.528 Q1898.27 950.614 1896.06 947.979 Q1893.88 945.344 1893.88 941.304 Q1893.88 937.053 1896.38 933.118 Q1898.91 929.148 1903.02 926.758 Q1907.16 924.334 1911.62 924.334 Q1915.14 924.334 1917.84 925.704 Q1920.55 927.04 1921.92 929.534 L1925.4 925.423 Q1926.1 924.615 1926.24 924.475 Q1926.42 924.334 1926.66 924.334 Q1927.08 924.334 1927.26 924.58 Q1927.47 924.826 1927.47 925.072 Z" fill="#000000" fill-rule="nonzero" fill-opacity="1" /><path clip-path="url(#clip960)" d="M1934.73 996.567 Q1934.73 995.657 1934.8 995.386 Q1934.9 995.116 1935.29 994.698 L1944.96 983.926 Q1950.25 977.974 1950.25 972.785 Q1950.25 969.415 1948.48 967.005 Q1946.73 964.595 1943.51 964.595 Q1941.29 964.595 1939.43 965.948 Q1937.56 967.3 1936.7 969.71 Q1936.84 969.661 1937.36 969.661 Q1938.61 969.661 1939.3 970.448 Q1940.02 971.235 1940.02 972.293 Q1940.02 973.645 1939.13 974.309 Q1938.27 974.949 1937.41 974.949 Q1937.06 974.949 1936.6 974.875 Q1936.15 974.801 1935.44 974.113 Q1934.73 973.399 1934.73 972.145 Q1934.73 968.628 1937.38 965.825 Q1940.06 963.021 1944.15 963.021 Q1948.77 963.021 1951.8 965.775 Q1954.85 968.505 1954.85 972.785 Q1954.85 974.285 1954.38 975.662 Q1953.94 977.015 1953.32 978.072 Q1952.73 979.13 1951.11 980.827 Q1949.48 982.524 1948.18 983.729 Q1946.88 984.934 1943.95 987.492 L1938.61 992.681 L1947.69 992.681 Q1952.12 992.681 1952.46 992.287 Q1952.95 991.574 1953.57 987.811 L1954.85 987.811 L1953.42 996.567 L1934.73 996.567 Z" fill="#000000" fill-rule="nonzero" fill-opacity="1" /><path clip-path="url(#clip960)" d="M1962.33 957.079 Q1962.33 944.923 1966.86 935.12 Q1968.79 931.01 1971.49 927.567 Q1974.2 924.123 1975.99 922.613 Q1977.78 921.102 1978.28 921.102 Q1978.98 921.102 1979.01 921.805 Q1979.01 922.156 1978.06 923.034 Q1966.47 934.839 1966.51 957.079 Q1966.51 979.389 1977.78 990.737 Q1979.01 991.967 1979.01 992.353 Q1979.01 993.056 1978.28 993.056 Q1977.78 993.056 1976.06 991.615 Q1974.34 990.175 1971.67 986.872 Q1969 983.57 1967.07 979.529 Q1962.33 969.727 1962.33 957.079 Z" fill="#000000" fill-rule="nonzero" fill-opacity="1" /><path clip-path="url(#clip960)" d="M2023.93 955.006 Q2023.93 960.206 2021.26 965.089 Q2018.62 969.973 2014.48 972.924 Q2010.37 975.875 2006.22 975.875 Q2001.55 975.875 1999.12 971.027 Q1994.73 988.629 1994.49 989.086 Q1993.47 990.596 1991.99 990.596 Q1991.08 990.596 1990.52 990.034 Q1989.95 989.507 1989.95 988.664 Q1989.99 988.383 1990.2 987.505 L1997.23 959.222 Q1998.84 952.652 2003.73 947.979 Q2008.65 943.271 2013.92 943.271 Q2018.1 943.271 2021.01 946.398 Q2023.93 949.525 2023.93 955.006 M2018.76 951.914 Q2018.76 948.401 2017.36 946.644 Q2015.95 944.852 2013.78 944.852 Q2011.77 944.852 2009.35 946.468 Q2006.96 948.085 2004.85 951.668 Q2003.73 953.741 2002.92 956.306 Q2002.11 958.871 2000.53 965.195 Q1999.97 967.724 1999.97 967.865 Q1999.97 968.146 2000.11 968.778 Q2000.28 969.411 2000.71 970.394 Q2001.16 971.343 2001.79 972.186 Q2002.43 973.03 2003.59 973.662 Q2004.75 974.259 2006.15 974.259 Q2008.33 974.259 2010.65 972.502 Q2013 970.711 2014.72 967.443 Q2016.16 964.808 2017.46 959.854 Q2018.76 954.865 2018.76 951.914 Z" fill="#000000" fill-rule="nonzero" fill-opacity="1" /><path clip-path="url(#clip960)" d="M2031.28 929.747 Q2031.28 921.238 2034.45 914.376 Q2035.8 911.499 2037.69 909.089 Q2039.59 906.679 2040.84 905.621 Q2042.1 904.564 2042.44 904.564 Q2042.93 904.564 2042.96 905.055 Q2042.96 905.301 2042.29 905.916 Q2034.18 914.18 2034.2 929.747 Q2034.2 945.364 2042.1 953.308 Q2042.96 954.169 2042.96 954.439 Q2042.96 954.931 2042.44 954.931 Q2042.1 954.931 2040.89 953.923 Q2039.69 952.915 2037.82 950.603 Q2035.95 948.291 2034.6 945.463 Q2031.28 938.601 2031.28 929.747 Z" fill="#000000" fill-rule="nonzero" fill-opacity="1" /><path clip-path="url(#clip960)" d="M2073.88 935.133 Q2073.88 935.33 2073.66 936.093 Q2073.44 936.855 2072.9 938.035 Q2072.38 939.216 2071.67 940.298 Q2070.96 941.356 2069.78 942.143 Q2068.62 942.905 2067.29 942.905 Q2065.52 942.905 2064.34 941.724 Q2063.16 940.544 2063.16 938.773 Q2063.16 937.789 2063.68 936.437 Q2066.95 927.706 2066.95 924.706 Q2066.95 921.189 2064.22 921.189 Q2062.86 921.189 2061.59 921.705 Q2060.33 922.197 2059.47 922.886 Q2058.61 923.574 2057.82 924.534 Q2057.06 925.468 2056.67 926.108 Q2056.3 926.722 2056 927.337 L2055.36 929.846 Q2055.22 930.534 2054.5 933.215 L2053.4 937.765 Q2052.61 941.159 2052.44 941.479 Q2052.19 942.167 2051.65 942.536 Q2051.11 942.905 2050.57 942.905 Q2049.95 942.905 2049.53 942.536 Q2049.12 942.167 2049.12 941.528 Q2049.12 941.429 2049.19 941.06 Q2049.26 940.692 2049.39 940.175 Q2049.51 939.659 2049.56 939.363 L2052.49 927.731 Q2053.03 925.616 2053.15 924.952 Q2053.3 924.263 2053.3 923.501 Q2053.3 921.189 2051.72 921.189 Q2050.44 921.189 2049.61 922.714 Q2048.77 924.238 2048.06 927.19 Q2047.84 928.001 2047.69 928.173 Q2047.57 928.346 2047.2 928.346 Q2046.58 928.321 2046.58 927.829 Q2046.58 927.706 2046.78 926.895 Q2046.98 926.083 2047.35 924.927 Q2047.74 923.747 2048.11 922.96 Q2048.43 922.369 2048.6 922.099 Q2048.8 921.804 2049.26 921.238 Q2049.76 920.648 2050.4 920.377 Q2051.06 920.082 2051.87 920.082 Q2053.69 920.082 2055.02 921.263 Q2056.35 922.418 2056.52 924.46 Q2059.79 920.082 2064.36 920.082 Q2067.07 920.082 2068.62 921.509 Q2070.17 922.935 2070.17 925.468 Q2070.17 926.058 2070.05 926.821 Q2069.95 927.559 2069.7 928.493 Q2069.48 929.428 2069.28 930.141 Q2069.09 930.854 2068.69 932.01 Q2068.3 933.141 2068.13 933.633 Q2067.96 934.125 2067.54 935.281 Q2067.14 936.412 2067.09 936.535 Q2066.18 938.822 2066.18 940.126 Q2066.18 940.987 2066.46 941.38 Q2066.75 941.774 2067.39 941.774 Q2069.11 941.774 2070.39 940.077 Q2071.69 938.355 2072.53 935.551 Q2072.73 934.937 2072.82 934.789 Q2072.95 934.641 2073.29 934.641 Q2073.88 934.641 2073.88 935.133 Z" fill="#000000" fill-rule="nonzero" fill-opacity="1" /><path clip-path="url(#clip960)" d="M2078.71 954.439 Q2078.71 954.193 2079.35 953.579 Q2087.47 945.315 2087.47 929.747 Q2087.47 914.13 2079.67 906.236 Q2078.71 905.326 2078.71 905.055 Q2078.71 904.564 2079.21 904.564 Q2079.55 904.564 2080.75 905.572 Q2081.98 906.58 2083.83 908.892 Q2085.7 911.204 2087.08 914.032 Q2090.4 920.894 2090.4 929.747 Q2090.4 938.257 2087.22 945.118 Q2085.87 947.996 2083.98 950.406 Q2082.08 952.816 2080.83 953.874 Q2079.57 954.931 2079.21 954.931 Q2078.71 954.931 2078.71 954.439 Z" fill="#000000" fill-rule="nonzero" fill-opacity="1" /><path clip-path="url(#clip960)" d="M2065.83 1010.86 Q2065.83 1011.33 2065.63 1011.57 Q2065.46 1011.8 2065.29 1011.84 Q2065.14 1011.87 2064.92 1011.87 Q2064.28 1011.87 2062.07 1011.8 Q2059.85 1011.72 2059.21 1011.72 Q2058.18 1011.72 2056.07 1011.8 Q2053.95 1011.87 2052.92 1011.87 Q2052.23 1011.87 2052.23 1011.3 Q2052.23 1010.93 2052.3 1010.74 Q2052.38 1010.52 2052.57 1010.44 Q2052.79 1010.34 2052.92 1010.34 Q2053.06 1010.32 2053.43 1010.32 Q2053.93 1010.32 2054.44 1010.27 Q2054.96 1010.2 2055.6 1010.05 Q2056.24 1009.9 2056.63 1009.53 Q2057.05 1009.16 2057.05 1008.65 Q2057.05 1008.43 2056.88 1006.61 Q2056.7 1004.79 2056.48 1002.67 Q2056.26 1000.53 2056.24 1000.24 L2043.6 1000.24 Q2042.44 1002.23 2041.63 1003.61 Q2040.82 1004.98 2040.52 1005.45 Q2040.23 1005.92 2040.05 1006.21 Q2039.88 1006.51 2039.78 1006.68 Q2039.07 1007.98 2039.07 1008.55 Q2039.07 1010.12 2041.43 1010.32 Q2042.24 1010.32 2042.24 1010.91 Q2042.24 1011.35 2042.05 1011.6 Q2041.85 1011.82 2041.68 1011.84 Q2041.53 1011.87 2041.28 1011.87 Q2040.47 1011.87 2038.78 1011.8 Q2037.08 1011.72 2036.24 1011.72 Q2035.53 1011.72 2034.05 1011.8 Q2032.58 1011.87 2031.91 1011.87 Q2031.62 1011.87 2031.45 1011.7 Q2031.28 1011.52 2031.28 1011.3 Q2031.28 1010.96 2031.32 1010.76 Q2031.4 1010.57 2031.59 1010.47 Q2031.79 1010.37 2031.89 1010.37 Q2031.99 1010.34 2032.33 1010.32 Q2034.2 1010.2 2035.65 1009.31 Q2037.13 1008.4 2038.53 1006.06 L2056.04 976.651 Q2056.21 976.356 2056.34 976.208 Q2056.46 976.061 2056.7 975.938 Q2056.98 975.815 2057.37 975.815 Q2057.98 975.815 2058.11 976.011 Q2058.23 976.184 2058.3 977.02 L2061.38 1008.5 Q2061.45 1009.16 2061.5 1009.43 Q2061.57 1009.68 2061.89 1009.95 Q2062.24 1010.2 2062.85 1010.27 Q2063.49 1010.32 2064.67 1010.32 Q2065.12 1010.32 2065.29 1010.34 Q2065.46 1010.34 2065.63 1010.47 Q2065.83 1010.59 2065.83 1010.86 M2056.09 998.662 L2054.49 982.061 L2044.56 998.662 L2056.09 998.662 Z" fill="#000000" fill-rule="nonzero" fill-opacity="1" /><path clip-path="url(#clip960)" d="M2078.85 1035.69 Q2078.85 1035.99 2078.64 1036.19 Q2078.43 1036.4 2078.14 1036.4 Q2077.64 1036.4 2077.47 1035.93 L2070.91 1019.01 Q2070.87 1018.94 2070.87 1018.77 Q2070.87 1018.6 2070.91 1018.53 L2077.47 1001.61 Q2077.64 1001.14 2078.14 1001.14 Q2078.43 1001.14 2078.64 1001.35 Q2078.85 1001.55 2078.85 1001.85 Q2078.85 1002.02 2078.81 1002.09 L2072.32 1018.77 L2078.81 1035.45 Q2078.85 1035.52 2078.85 1035.69 Z" fill="#000000" fill-rule="nonzero" fill-opacity="1" /><path clip-path="url(#clip960)" d="M2114.13 1003.9 Q2114.13 1004.6 2113.52 1004.6 Q2111.58 1004.67 2110.79 1005.32 Q2110.01 1005.96 2109.72 1007.2 L2104.8 1026.84 Q2104.62 1027.46 2104.52 1027.53 Q2104.42 1027.58 2104.23 1027.58 Q2103.99 1027.58 2103.85 1027.46 Q2103.73 1027.34 2103.56 1026.91 L2094.78 1006.15 Q2094.71 1006.01 2094.62 1005.82 Q2094.54 1005.63 2094.47 1005.51 L2089.8 1024.12 Q2089.66 1024.66 2089.66 1024.93 Q2089.66 1025.6 2090.13 1026.03 Q2090.61 1026.45 2091.99 1026.5 Q2092.69 1026.5 2092.69 1026.88 Q2092.69 1027.58 2092.06 1027.58 Q2091.47 1027.58 2090.25 1027.53 Q2089.03 1027.48 2088.42 1027.48 Q2087.84 1027.48 2086.65 1027.53 Q2085.46 1027.58 2084.89 1027.58 Q2084.45 1027.58 2084.45 1027.19 Q2084.45 1026.88 2084.57 1026.72 Q2084.69 1026.55 2084.79 1026.53 Q2084.89 1026.5 2085.05 1026.5 Q2086.08 1026.47 2086.79 1026.26 Q2087.49 1026.05 2087.89 1025.66 Q2088.3 1025.26 2088.49 1024.86 Q2088.7 1024.45 2088.85 1023.85 L2093.57 1004.91 Q2093.57 1004.6 2091.18 1004.6 Q2090.77 1004.6 2090.59 1004.58 Q2090.44 1004.57 2090.32 1004.48 Q2090.2 1004.39 2090.2 1004.21 Q2090.2 1003.72 2090.4 1003.62 Q2090.61 1003.5 2091.21 1003.5 L2095.95 1003.5 Q2096.55 1003.5 2096.7 1003.6 Q2096.86 1003.69 2097.07 1004.17 L2104.86 1022.57 L2108.81 1006.89 Q2108.91 1006.58 2108.91 1006.15 Q2108.91 1005.46 2108.39 1005.05 Q2107.89 1004.62 2106.52 1004.6 Q2105.88 1004.6 2105.88 1004.21 Q2105.88 1003.88 2106 1003.72 Q2106.14 1003.55 2106.24 1003.53 Q2106.36 1003.5 2106.52 1003.5 Q2107.1 1003.5 2108.31 1003.55 Q2109.51 1003.6 2110.12 1003.6 Q2110.7 1003.6 2111.89 1003.55 Q2113.09 1003.5 2113.68 1003.5 Q2113.89 1003.5 2113.99 1003.6 Q2114.11 1003.69 2114.13 1003.79 L2114.13 1003.9 Z" fill="#000000" fill-rule="nonzero" fill-opacity="1" /><path clip-path="url(#clip960)" d="M2120.4 1018.53 Q2120.43 1018.6 2120.43 1018.77 Q2120.43 1018.94 2120.4 1019.01 L2113.84 1035.93 Q2113.67 1036.4 2113.18 1036.4 Q2112.89 1036.4 2112.69 1036.19 Q2112.48 1035.99 2112.48 1035.69 Q2112.48 1035.52 2112.51 1035.45 L2118.99 1018.77 L2112.51 1002.09 Q2112.48 1002.02 2112.48 1001.85 Q2112.48 1001.55 2112.69 1001.35 Q2112.89 1001.14 2113.18 1001.14 Q2113.67 1001.14 2113.84 1001.61 L2120.4 1018.53 Z" fill="#000000" fill-rule="nonzero" fill-opacity="1" /><path clip-path="url(#clip960)" d="M2139.11 992.353 Q2139.11 992.002 2140.02 991.123 Q2151.61 979.318 2151.61 957.079 Q2151.61 934.769 2140.48 923.491 Q2139.11 922.191 2139.11 921.805 Q2139.11 921.102 2139.81 921.102 Q2140.3 921.102 2142.02 922.542 Q2143.78 923.983 2146.41 927.285 Q2149.08 930.588 2151.05 934.628 Q2155.8 944.431 2155.8 957.079 Q2155.8 969.235 2151.26 979.037 Q2149.33 983.148 2146.63 986.591 Q2143.92 990.034 2142.13 991.545 Q2140.34 993.056 2139.81 993.056 Q2139.11 993.056 2139.11 992.353 Z" fill="#000000" fill-rule="nonzero" fill-opacity="1" /><polyline clip-path="url(#clip960)" style="stroke:#3da44d; stroke-linecap:round; stroke-linejoin:round; stroke-width:6; stroke-opacity:1; fill:none" points="1660.38,1102.01 1801.87,1102.01 "/>
<path clip-path="url(#clip960)" d="M1722.51 1093.39 L1722.51 1110.62 L1739.74 1110.62 L1739.74 1093.39 L1722.51 1093.39 Z" fill="#3da44d" fill-rule="evenodd" fill-opacity="1" stroke="#000000" stroke-opacity="1" stroke-width="6.82667"/>
<path clip-path="url(#clip960)" d="M1825.45 1105.75 Q1825.45 1105.47 1826.4 1103.65 Q1827.35 1101.78 1830.69 1095.14 Q1834.02 1088.47 1837.47 1081.48 L1849.87 1056.53 Q1850.75 1054.95 1851.87 1054.95 Q1852.89 1054.95 1853.35 1055.58 Q1853.81 1056.22 1855.91 1060.47 Q1857 1062.54 1857.63 1063.88 L1877.98 1104.6 Q1878.33 1105.47 1878.36 1105.75 Q1878.36 1106.46 1877.13 1106.46 L1827.35 1106.46 Q1825.45 1106.46 1825.45 1105.75 M1830.2 1100.98 L1868.91 1100.98 L1849.55 1062.12 L1830.2 1100.98 Z" fill="#000000" fill-rule="nonzero" fill-opacity="1" /><path clip-path="url(#clip960)" d="M1927.47 1056.46 L1923.57 1072.2 Q1923.36 1073.15 1923.18 1073.4 Q1923.01 1073.64 1922.52 1073.64 Q1922.13 1073.64 1921.88 1073.47 Q1921.67 1073.29 1921.67 1073.12 L1921.64 1072.94 Q1921.64 1072.83 1921.71 1072.31 Q1921.78 1071.75 1921.85 1070.83 Q1921.92 1069.92 1921.92 1068.9 Q1921.92 1063.14 1919.11 1060.47 Q1916.33 1057.76 1911.55 1057.76 Q1908.25 1057.76 1905.3 1059.52 Q1902.35 1061.28 1900.66 1064.05 Q1898.98 1066.79 1898.98 1069.67 Q1898.98 1072.31 1900.31 1073.99 Q1901.65 1075.68 1903.37 1076.24 L1908.18 1077.54 Q1913.24 1078.84 1914.68 1079.4 Q1916.12 1079.93 1917.32 1081.13 Q1920.86 1084.43 1920.86 1089.56 Q1920.86 1093.98 1918.37 1098.27 Q1915.88 1102.52 1911.59 1105.3 Q1907.3 1108.04 1902.56 1108.04 Q1894.23 1108.04 1890.4 1102.87 L1886.89 1106.95 Q1886.22 1107.72 1886.01 1107.86 Q1885.84 1108.04 1885.59 1108.04 Q1885.27 1108.04 1885.03 1107.83 Q1884.78 1107.65 1884.78 1107.34 Q1884.78 1107.09 1886.86 1098.83 Q1888.93 1090.58 1889.1 1090.4 Q1889.38 1090.12 1889.84 1090.12 Q1890.68 1090.12 1890.68 1090.93 Q1890.61 1091.14 1890.54 1091.42 Q1890.12 1093.95 1890.12 1095.32 Q1890.12 1097.88 1891 1099.85 Q1891.88 1101.78 1893.18 1102.91 Q1894.51 1104 1896.31 1104.7 Q1898.1 1105.37 1899.61 1105.61 Q1901.12 1105.82 1902.7 1105.82 Q1906.11 1105.82 1909.13 1103.86 Q1912.19 1101.89 1913.91 1098.83 Q1915.66 1095.78 1915.66 1092.58 Q1915.66 1090.89 1915.21 1089.59 Q1914.75 1088.26 1914.12 1087.52 Q1913.52 1086.78 1912.5 1086.22 Q1911.48 1085.66 1910.78 1085.45 Q1910.11 1085.2 1909.06 1084.96 L1901.37 1082.92 Q1898.27 1082 1896.06 1079.37 Q1893.88 1076.73 1893.88 1072.69 Q1893.88 1068.44 1896.38 1064.51 Q1898.91 1060.54 1903.02 1058.15 Q1907.16 1055.72 1911.62 1055.72 Q1915.14 1055.72 1917.84 1057.09 Q1920.55 1058.43 1921.92 1060.92 L1925.4 1056.81 Q1926.1 1056.01 1926.24 1055.86 Q1926.42 1055.72 1926.66 1055.72 Q1927.08 1055.72 1927.26 1055.97 Q1927.47 1056.22 1927.47 1056.46 Z" fill="#000000" fill-rule="nonzero" fill-opacity="1" /><path clip-path="url(#clip960)" d="M1934.73 1127.96 Q1934.73 1127.05 1934.8 1126.78 Q1934.9 1126.51 1935.29 1126.09 L1944.96 1115.32 Q1950.25 1109.36 1950.25 1104.17 Q1950.25 1100.81 1948.48 1098.4 Q1946.73 1095.99 1943.51 1095.99 Q1941.29 1095.99 1939.43 1097.34 Q1937.56 1098.69 1936.7 1101.1 Q1936.84 1101.05 1937.36 1101.05 Q1938.61 1101.05 1939.3 1101.84 Q1940.02 1102.63 1940.02 1103.68 Q1940.02 1105.04 1939.13 1105.7 Q1938.27 1106.34 1937.41 1106.34 Q1937.06 1106.34 1936.6 1106.27 Q1936.15 1106.19 1935.44 1105.5 Q1934.73 1104.79 1934.73 1103.54 Q1934.73 1100.02 1937.38 1097.21 Q1940.06 1094.41 1944.15 1094.41 Q1948.77 1094.41 1951.8 1097.17 Q1954.85 1099.9 1954.85 1104.17 Q1954.85 1105.67 1954.38 1107.05 Q1953.94 1108.4 1953.32 1109.46 Q1952.73 1110.52 1951.11 1112.22 Q1949.48 1113.91 1948.18 1115.12 Q1946.88 1116.32 1943.95 1118.88 L1938.61 1124.07 L1947.69 1124.07 Q1952.12 1124.07 1952.46 1123.68 Q1952.95 1122.96 1953.57 1119.2 L1954.85 1119.2 L1953.42 1127.96 L1934.73 1127.96 Z" fill="#000000" fill-rule="nonzero" fill-opacity="1" /><path clip-path="url(#clip960)" d="M1962.33 1088.47 Q1962.33 1076.31 1966.86 1066.51 Q1968.79 1062.4 1971.49 1058.96 Q1974.2 1055.51 1975.99 1054 Q1977.78 1052.49 1978.28 1052.49 Q1978.98 1052.49 1979.01 1053.19 Q1979.01 1053.55 1978.06 1054.42 Q1966.47 1066.23 1966.51 1088.47 Q1966.51 1110.78 1977.78 1122.13 Q1979.01 1123.36 1979.01 1123.74 Q1979.01 1124.45 1978.28 1124.45 Q1977.78 1124.45 1976.06 1123.01 Q1974.34 1121.56 1971.67 1118.26 Q1969 1114.96 1967.07 1110.92 Q1962.33 1101.12 1962.33 1088.47 Z" fill="#000000" fill-rule="nonzero" fill-opacity="1" /><path clip-path="url(#clip960)" d="M2023.93 1086.4 Q2023.93 1091.6 2021.26 1096.48 Q2018.62 1101.36 2014.48 1104.31 Q2010.37 1107.27 2006.22 1107.27 Q2001.55 1107.27 1999.12 1102.42 Q1994.73 1120.02 1994.49 1120.48 Q1993.47 1121.99 1991.99 1121.99 Q1991.08 1121.99 1990.52 1121.42 Q1989.95 1120.9 1989.95 1120.05 Q1989.99 1119.77 1990.2 1118.89 L1997.23 1090.61 Q1998.84 1084.04 2003.73 1079.37 Q2008.65 1074.66 2013.92 1074.66 Q2018.1 1074.66 2021.01 1077.79 Q2023.93 1080.92 2023.93 1086.4 M2018.76 1083.3 Q2018.76 1079.79 2017.36 1078.03 Q2015.95 1076.24 2013.78 1076.24 Q2011.77 1076.24 2009.35 1077.86 Q2006.96 1079.47 2004.85 1083.06 Q2003.73 1085.13 2002.92 1087.7 Q2002.11 1090.26 2000.53 1096.58 Q1999.97 1099.11 1999.97 1099.25 Q1999.97 1099.54 2000.11 1100.17 Q2000.28 1100.8 2000.71 1101.78 Q2001.16 1102.73 2001.79 1103.58 Q2002.43 1104.42 2003.59 1105.05 Q2004.75 1105.65 2006.15 1105.65 Q2008.33 1105.65 2010.65 1103.89 Q2013 1102.1 2014.72 1098.83 Q2016.16 1096.2 2017.46 1091.24 Q2018.76 1086.26 2018.76 1083.3 Z" fill="#000000" fill-rule="nonzero" fill-opacity="1" /><path clip-path="url(#clip960)" d="M2031.28 1061.14 Q2031.28 1052.63 2034.45 1045.77 Q2035.8 1042.89 2037.69 1040.48 Q2039.59 1038.07 2040.84 1037.01 Q2042.1 1035.95 2042.44 1035.95 Q2042.93 1035.95 2042.96 1036.45 Q2042.96 1036.69 2042.29 1037.31 Q2034.18 1045.57 2034.2 1061.14 Q2034.2 1076.75 2042.1 1084.7 Q2042.96 1085.56 2042.96 1085.83 Q2042.96 1086.32 2042.44 1086.32 Q2042.1 1086.32 2040.89 1085.31 Q2039.69 1084.3 2037.82 1081.99 Q2035.95 1079.68 2034.6 1076.85 Q2031.28 1069.99 2031.28 1061.14 Z" fill="#000000" fill-rule="nonzero" fill-opacity="1" /><path clip-path="url(#clip960)" d="M2073.88 1066.52 Q2073.88 1066.72 2073.66 1067.48 Q2073.44 1068.24 2072.9 1069.43 Q2072.38 1070.61 2071.67 1071.69 Q2070.96 1072.75 2069.78 1073.53 Q2068.62 1074.3 2067.29 1074.3 Q2065.52 1074.3 2064.34 1073.11 Q2063.16 1071.93 2063.16 1070.16 Q2063.16 1069.18 2063.68 1067.83 Q2066.95 1059.1 2066.95 1056.1 Q2066.95 1052.58 2064.22 1052.58 Q2062.86 1052.58 2061.59 1053.1 Q2060.33 1053.59 2059.47 1054.28 Q2058.61 1054.96 2057.82 1055.92 Q2057.06 1056.86 2056.67 1057.5 Q2056.3 1058.11 2056 1058.73 L2055.36 1061.24 Q2055.22 1061.92 2054.5 1064.61 L2053.4 1069.15 Q2052.61 1072.55 2052.44 1072.87 Q2052.19 1073.56 2051.65 1073.93 Q2051.11 1074.3 2050.57 1074.3 Q2049.95 1074.3 2049.53 1073.93 Q2049.12 1073.56 2049.12 1072.92 Q2049.12 1072.82 2049.19 1072.45 Q2049.26 1072.08 2049.39 1071.57 Q2049.51 1071.05 2049.56 1070.75 L2052.49 1059.12 Q2053.03 1057.01 2053.15 1056.34 Q2053.3 1055.65 2053.3 1054.89 Q2053.3 1052.58 2051.72 1052.58 Q2050.44 1052.58 2049.61 1054.1 Q2048.77 1055.63 2048.06 1058.58 Q2047.84 1059.39 2047.69 1059.56 Q2047.57 1059.74 2047.2 1059.74 Q2046.58 1059.71 2046.58 1059.22 Q2046.58 1059.1 2046.78 1058.28 Q2046.98 1057.47 2047.35 1056.32 Q2047.74 1055.14 2048.11 1054.35 Q2048.43 1053.76 2048.6 1053.49 Q2048.8 1053.19 2049.26 1052.63 Q2049.76 1052.04 2050.4 1051.77 Q2051.06 1051.47 2051.87 1051.47 Q2053.69 1051.47 2055.02 1052.65 Q2056.35 1053.81 2056.52 1055.85 Q2059.79 1051.47 2064.36 1051.47 Q2067.07 1051.47 2068.62 1052.9 Q2070.17 1054.33 2070.17 1056.86 Q2070.17 1057.45 2070.05 1058.21 Q2069.95 1058.95 2069.7 1059.88 Q2069.48 1060.82 2069.28 1061.53 Q2069.09 1062.24 2068.69 1063.4 Q2068.3 1064.53 2068.13 1065.02 Q2067.96 1065.52 2067.54 1066.67 Q2067.14 1067.8 2067.09 1067.93 Q2066.18 1070.21 2066.18 1071.52 Q2066.18 1072.38 2066.46 1072.77 Q2066.75 1073.16 2067.39 1073.16 Q2069.11 1073.16 2070.39 1071.47 Q2071.69 1069.75 2072.53 1066.94 Q2072.73 1066.33 2072.82 1066.18 Q2072.95 1066.03 2073.29 1066.03 Q2073.88 1066.03 2073.88 1066.52 Z" fill="#000000" fill-rule="nonzero" fill-opacity="1" /><path clip-path="url(#clip960)" d="M2078.71 1085.83 Q2078.71 1085.58 2079.35 1084.97 Q2087.47 1076.71 2087.47 1061.14 Q2087.47 1045.52 2079.67 1037.63 Q2078.71 1036.72 2078.71 1036.45 Q2078.71 1035.95 2079.21 1035.95 Q2079.55 1035.95 2080.75 1036.96 Q2081.98 1037.97 2083.83 1040.28 Q2085.7 1042.59 2087.08 1045.42 Q2090.4 1052.28 2090.4 1061.14 Q2090.4 1069.65 2087.22 1076.51 Q2085.87 1079.39 2083.98 1081.8 Q2082.08 1084.21 2080.83 1085.26 Q2079.57 1086.32 2079.21 1086.32 Q2078.71 1086.32 2078.71 1085.83 Z" fill="#000000" fill-rule="nonzero" fill-opacity="1" /><path clip-path="url(#clip960)" d="M2065.83 1142.25 Q2065.83 1142.72 2065.63 1142.96 Q2065.46 1143.19 2065.29 1143.23 Q2065.14 1143.26 2064.92 1143.26 Q2064.28 1143.26 2062.07 1143.19 Q2059.85 1143.11 2059.21 1143.11 Q2058.18 1143.11 2056.07 1143.19 Q2053.95 1143.26 2052.92 1143.26 Q2052.23 1143.26 2052.23 1142.69 Q2052.23 1142.32 2052.3 1142.13 Q2052.38 1141.91 2052.57 1141.83 Q2052.79 1141.73 2052.92 1141.73 Q2053.06 1141.71 2053.43 1141.71 Q2053.93 1141.71 2054.44 1141.66 Q2054.96 1141.59 2055.6 1141.44 Q2056.24 1141.29 2056.63 1140.92 Q2057.05 1140.55 2057.05 1140.04 Q2057.05 1139.82 2056.88 1138 Q2056.7 1136.18 2056.48 1134.06 Q2056.26 1131.92 2056.24 1131.63 L2043.6 1131.63 Q2042.44 1133.62 2041.63 1135 Q2040.82 1136.37 2040.52 1136.84 Q2040.23 1137.31 2040.05 1137.6 Q2039.88 1137.9 2039.78 1138.07 Q2039.07 1139.37 2039.07 1139.94 Q2039.07 1141.51 2041.43 1141.71 Q2042.24 1141.71 2042.24 1142.3 Q2042.24 1142.74 2042.05 1142.99 Q2041.85 1143.21 2041.68 1143.23 Q2041.53 1143.26 2041.28 1143.26 Q2040.47 1143.26 2038.78 1143.19 Q2037.08 1143.11 2036.24 1143.11 Q2035.53 1143.11 2034.05 1143.19 Q2032.58 1143.26 2031.91 1143.26 Q2031.62 1143.26 2031.45 1143.09 Q2031.28 1142.91 2031.28 1142.69 Q2031.28 1142.35 2031.32 1142.15 Q2031.4 1141.96 2031.59 1141.86 Q2031.79 1141.76 2031.89 1141.76 Q2031.99 1141.73 2032.33 1141.71 Q2034.2 1141.59 2035.65 1140.7 Q2037.13 1139.79 2038.53 1137.45 L2056.04 1108.04 Q2056.21 1107.75 2056.34 1107.6 Q2056.46 1107.45 2056.7 1107.33 Q2056.98 1107.2 2057.37 1107.2 Q2057.98 1107.2 2058.11 1107.4 Q2058.23 1107.57 2058.3 1108.41 L2061.38 1139.89 Q2061.45 1140.55 2061.5 1140.82 Q2061.57 1141.07 2061.89 1141.34 Q2062.24 1141.59 2062.85 1141.66 Q2063.49 1141.71 2064.67 1141.71 Q2065.12 1141.71 2065.29 1141.73 Q2065.46 1141.73 2065.63 1141.86 Q2065.83 1141.98 2065.83 1142.25 M2056.09 1130.05 L2054.49 1113.45 L2044.56 1130.05 L2056.09 1130.05 Z" fill="#000000" fill-rule="nonzero" fill-opacity="1" /><path clip-path="url(#clip960)" d="M2078.85 1167.08 Q2078.85 1167.38 2078.64 1167.58 Q2078.43 1167.79 2078.14 1167.79 Q2077.64 1167.79 2077.47 1167.32 L2070.91 1150.4 Q2070.87 1150.33 2070.87 1150.16 Q2070.87 1149.99 2070.91 1149.92 L2077.47 1133 Q2077.64 1132.53 2078.14 1132.53 Q2078.43 1132.53 2078.64 1132.74 Q2078.85 1132.94 2078.85 1133.24 Q2078.85 1133.41 2078.81 1133.48 L2072.32 1150.16 L2078.81 1166.84 Q2078.85 1166.91 2078.85 1167.08 Z" fill="#000000" fill-rule="nonzero" fill-opacity="1" /><path clip-path="url(#clip960)" d="M2114.13 1135.29 Q2114.13 1135.99 2113.52 1135.99 Q2111.58 1136.06 2110.79 1136.71 Q2110.01 1137.35 2109.72 1138.59 L2104.8 1158.23 Q2104.62 1158.85 2104.52 1158.92 Q2104.42 1158.97 2104.23 1158.97 Q2103.99 1158.97 2103.85 1158.85 Q2103.73 1158.73 2103.56 1158.3 L2094.78 1137.54 Q2094.71 1137.4 2094.62 1137.21 Q2094.54 1137.02 2094.47 1136.9 L2089.8 1155.51 Q2089.66 1156.05 2089.66 1156.32 Q2089.66 1156.99 2090.13 1157.42 Q2090.61 1157.84 2091.99 1157.89 Q2092.69 1157.89 2092.69 1158.27 Q2092.69 1158.97 2092.06 1158.97 Q2091.47 1158.97 2090.25 1158.92 Q2089.03 1158.87 2088.42 1158.87 Q2087.84 1158.87 2086.65 1158.92 Q2085.46 1158.97 2084.89 1158.97 Q2084.45 1158.97 2084.45 1158.58 Q2084.45 1158.27 2084.57 1158.11 Q2084.69 1157.94 2084.79 1157.92 Q2084.89 1157.89 2085.05 1157.89 Q2086.08 1157.86 2086.79 1157.65 Q2087.49 1157.44 2087.89 1157.05 Q2088.3 1156.65 2088.49 1156.25 Q2088.7 1155.84 2088.85 1155.24 L2093.57 1136.3 Q2093.57 1135.99 2091.18 1135.99 Q2090.77 1135.99 2090.59 1135.97 Q2090.44 1135.96 2090.32 1135.87 Q2090.2 1135.78 2090.2 1135.6 Q2090.2 1135.11 2090.4 1135.01 Q2090.61 1134.89 2091.21 1134.89 L2095.95 1134.89 Q2096.55 1134.89 2096.7 1134.99 Q2096.86 1135.08 2097.07 1135.56 L2104.86 1153.96 L2108.81 1138.28 Q2108.91 1137.97 2108.91 1137.54 Q2108.91 1136.85 2108.39 1136.44 Q2107.89 1136.01 2106.52 1135.99 Q2105.88 1135.99 2105.88 1135.6 Q2105.88 1135.27 2106 1135.11 Q2106.14 1134.94 2106.24 1134.92 Q2106.36 1134.89 2106.52 1134.89 Q2107.1 1134.89 2108.31 1134.94 Q2109.51 1134.99 2110.12 1134.99 Q2110.7 1134.99 2111.89 1134.94 Q2113.09 1134.89 2113.68 1134.89 Q2113.89 1134.89 2113.99 1134.99 Q2114.11 1135.08 2114.13 1135.18 L2114.13 1135.29 Z" fill="#000000" fill-rule="nonzero" fill-opacity="1" /><path clip-path="url(#clip960)" d="M2120.4 1149.92 Q2120.43 1149.99 2120.43 1150.16 Q2120.43 1150.33 2120.4 1150.4 L2113.84 1167.32 Q2113.67 1167.79 2113.18 1167.79 Q2112.89 1167.79 2112.69 1167.58 Q2112.48 1167.38 2112.48 1167.08 Q2112.48 1166.91 2112.51 1166.84 L2118.99 1150.16 L2112.51 1133.48 Q2112.48 1133.41 2112.48 1133.24 Q2112.48 1132.94 2112.69 1132.74 Q2112.89 1132.53 2113.18 1132.53 Q2113.67 1132.53 2113.84 1133 L2120.4 1149.92 Z" fill="#000000" fill-rule="nonzero" fill-opacity="1" /><path clip-path="url(#clip960)" d="M2178.65 1129.95 Q2178.95 1130.25 2178.95 1130.67 Q2178.95 1131.09 2178.65 1131.38 Q2178.36 1131.68 2177.94 1131.68 L2146.41 1131.68 Q2145.99 1131.68 2145.7 1131.38 Q2145.4 1131.09 2145.4 1130.67 Q2145.4 1130.25 2145.7 1129.95 Q2145.99 1129.66 2146.41 1129.66 L2177.94 1129.66 Q2178.36 1129.66 2178.65 1129.95 Z" fill="#000000" fill-rule="nonzero" fill-opacity="1" /><path clip-path="url(#clip960)" d="M2198.18 1114.51 L2198.18 1112.94 Q2204.23 1112.94 2207.35 1109.71 Q2208.21 1109.71 2208.36 1109.91 Q2208.51 1110.11 2208.51 1111.02 L2208.51 1139.27 Q2208.51 1140.77 2209.24 1141.24 Q2209.98 1141.71 2213.2 1141.71 L2214.8 1141.71 L2214.8 1143.26 Q2213.03 1143.11 2206.64 1143.11 Q2200.24 1143.11 2198.5 1143.26 L2198.5 1141.71 L2200.09 1141.71 Q2203.27 1141.71 2204.03 1141.27 Q2204.79 1140.8 2204.79 1139.27 L2204.79 1113.18 Q2202.16 1114.51 2198.18 1114.51 Z" fill="#000000" fill-rule="nonzero" fill-opacity="1" /><path clip-path="url(#clip960)" d="M2230.8 1123.74 Q2230.8 1123.39 2231.71 1122.51 Q2243.31 1110.71 2243.31 1088.47 Q2243.31 1066.16 2232.17 1054.88 Q2230.8 1053.58 2230.8 1053.19 Q2230.8 1052.49 2231.5 1052.49 Q2231.99 1052.49 2233.72 1053.93 Q2235.47 1055.37 2238.11 1058.68 Q2240.78 1061.98 2242.74 1066.02 Q2247.49 1075.82 2247.49 1088.47 Q2247.49 1100.63 2242.96 1110.43 Q2241.02 1114.54 2238.32 1117.98 Q2235.61 1121.42 2233.82 1122.94 Q2232.03 1124.45 2231.5 1124.45 Q2230.8 1124.45 2230.8 1123.74 Z" fill="#000000" fill-rule="nonzero" fill-opacity="1" /><polyline clip-path="url(#clip960)" style="stroke:#c271d2; stroke-linecap:round; stroke-linejoin:round; stroke-width:6; stroke-opacity:1; fill:none" points="1660.38,1233.4 1801.87,1233.4 "/>
<path clip-path="url(#clip960)" d="M1722.51 1224.78 L1722.51 1242.01 L1739.74 1242.01 L1739.74 1224.78 L1722.51 1224.78 Z" fill="#c271d2" fill-rule="evenodd" fill-opacity="1" stroke="#000000" stroke-opacity="1" stroke-width="6.82667"/>
<path clip-path="url(#clip960)" d="M1825.45 1237.14 Q1825.45 1236.86 1826.4 1235.04 Q1827.35 1233.17 1830.69 1226.53 Q1834.02 1219.86 1837.47 1212.87 L1849.87 1187.92 Q1850.75 1186.34 1851.87 1186.34 Q1852.89 1186.34 1853.35 1186.97 Q1853.81 1187.61 1855.91 1191.86 Q1857 1193.93 1857.63 1195.27 L1877.98 1235.99 Q1878.33 1236.86 1878.36 1237.14 Q1878.36 1237.85 1877.13 1237.85 L1827.35 1237.85 Q1825.45 1237.85 1825.45 1237.14 M1830.2 1232.37 L1868.91 1232.37 L1849.55 1193.51 L1830.2 1232.37 Z" fill="#000000" fill-rule="nonzero" fill-opacity="1" /><path clip-path="url(#clip960)" d="M1927.47 1187.85 L1923.57 1203.59 Q1923.36 1204.54 1923.18 1204.79 Q1923.01 1205.03 1922.52 1205.03 Q1922.13 1205.03 1921.88 1204.86 Q1921.67 1204.68 1921.67 1204.51 L1921.64 1204.33 Q1921.64 1204.22 1921.71 1203.7 Q1921.78 1203.14 1921.85 1202.22 Q1921.92 1201.31 1921.92 1200.29 Q1921.92 1194.53 1919.11 1191.86 Q1916.33 1189.15 1911.55 1189.15 Q1908.25 1189.15 1905.3 1190.91 Q1902.35 1192.67 1900.66 1195.44 Q1898.98 1198.18 1898.98 1201.06 Q1898.98 1203.7 1900.31 1205.38 Q1901.65 1207.07 1903.37 1207.63 L1908.18 1208.93 Q1913.24 1210.23 1914.68 1210.79 Q1916.12 1211.32 1917.32 1212.52 Q1920.86 1215.82 1920.86 1220.95 Q1920.86 1225.37 1918.37 1229.66 Q1915.88 1233.91 1911.59 1236.69 Q1907.3 1239.43 1902.56 1239.43 Q1894.23 1239.43 1890.4 1234.26 L1886.89 1238.34 Q1886.22 1239.11 1886.01 1239.25 Q1885.84 1239.43 1885.59 1239.43 Q1885.27 1239.43 1885.03 1239.22 Q1884.78 1239.04 1884.78 1238.73 Q1884.78 1238.48 1886.86 1230.22 Q1888.93 1221.97 1889.1 1221.79 Q1889.38 1221.51 1889.84 1221.51 Q1890.68 1221.51 1890.68 1222.32 Q1890.61 1222.53 1890.54 1222.81 Q1890.12 1225.34 1890.12 1226.71 Q1890.12 1229.27 1891 1231.24 Q1891.88 1233.17 1893.18 1234.3 Q1894.51 1235.39 1896.31 1236.09 Q1898.1 1236.76 1899.61 1237 Q1901.12 1237.21 1902.7 1237.21 Q1906.11 1237.21 1909.13 1235.25 Q1912.19 1233.28 1913.91 1230.22 Q1915.66 1227.17 1915.66 1223.97 Q1915.66 1222.28 1915.21 1220.98 Q1914.75 1219.65 1914.12 1218.91 Q1913.52 1218.17 1912.5 1217.61 Q1911.48 1217.05 1910.78 1216.84 Q1910.11 1216.59 1909.06 1216.35 L1901.37 1214.31 Q1898.27 1213.39 1896.06 1210.76 Q1893.88 1208.12 1893.88 1204.08 Q1893.88 1199.83 1896.38 1195.9 Q1898.91 1191.93 1903.02 1189.54 Q1907.16 1187.11 1911.62 1187.11 Q1915.14 1187.11 1917.84 1188.48 Q1920.55 1189.82 1921.92 1192.31 L1925.4 1188.2 Q1926.1 1187.4 1926.24 1187.25 Q1926.42 1187.11 1926.66 1187.11 Q1927.08 1187.11 1927.26 1187.36 Q1927.47 1187.61 1927.47 1187.85 Z" fill="#000000" fill-rule="nonzero" fill-opacity="1" /><path clip-path="url(#clip960)" d="M1934.73 1259.35 Q1934.73 1258.44 1934.8 1258.17 Q1934.9 1257.9 1935.29 1257.48 L1944.96 1246.71 Q1950.25 1240.75 1950.25 1235.56 Q1950.25 1232.2 1948.48 1229.79 Q1946.73 1227.38 1943.51 1227.38 Q1941.29 1227.38 1939.43 1228.73 Q1937.56 1230.08 1936.7 1232.49 Q1936.84 1232.44 1937.36 1232.44 Q1938.61 1232.44 1939.3 1233.23 Q1940.02 1234.02 1940.02 1235.07 Q1940.02 1236.43 1939.13 1237.09 Q1938.27 1237.73 1937.41 1237.73 Q1937.06 1237.73 1936.6 1237.66 Q1936.15 1237.58 1935.44 1236.89 Q1934.73 1236.18 1934.73 1234.93 Q1934.73 1231.41 1937.38 1228.6 Q1940.06 1225.8 1944.15 1225.8 Q1948.77 1225.8 1951.8 1228.56 Q1954.85 1231.29 1954.85 1235.56 Q1954.85 1237.06 1954.38 1238.44 Q1953.94 1239.79 1953.32 1240.85 Q1952.73 1241.91 1951.11 1243.61 Q1949.48 1245.3 1948.18 1246.51 Q1946.88 1247.71 1943.95 1250.27 L1938.61 1255.46 L1947.69 1255.46 Q1952.12 1255.46 1952.46 1255.07 Q1952.95 1254.35 1953.57 1250.59 L1954.85 1250.59 L1953.42 1259.35 L1934.73 1259.35 Z" fill="#000000" fill-rule="nonzero" fill-opacity="1" /><path clip-path="url(#clip960)" d="M1962.33 1219.86 Q1962.33 1207.7 1966.86 1197.9 Q1968.79 1193.79 1971.49 1190.35 Q1974.2 1186.9 1975.99 1185.39 Q1977.78 1183.88 1978.28 1183.88 Q1978.98 1183.88 1979.01 1184.58 Q1979.01 1184.94 1978.06 1185.81 Q1966.47 1197.62 1966.51 1219.86 Q1966.51 1242.17 1977.78 1253.52 Q1979.01 1254.75 1979.01 1255.13 Q1979.01 1255.84 1978.28 1255.84 Q1977.78 1255.84 1976.06 1254.4 Q1974.34 1252.95 1971.67 1249.65 Q1969 1246.35 1967.07 1242.31 Q1962.33 1232.51 1962.33 1219.86 Z" fill="#000000" fill-rule="nonzero" fill-opacity="1" /><path clip-path="url(#clip960)" d="M2023.93 1217.79 Q2023.93 1222.99 2021.26 1227.87 Q2018.62 1232.75 2014.48 1235.7 Q2010.37 1238.66 2006.22 1238.66 Q2001.55 1238.66 1999.12 1233.81 Q1994.73 1251.41 1994.49 1251.87 Q1993.47 1253.38 1991.99 1253.38 Q1991.08 1253.38 1990.52 1252.81 Q1989.95 1252.29 1989.95 1251.44 Q1989.99 1251.16 1990.2 1250.28 L1997.23 1222 Q1998.84 1215.43 2003.73 1210.76 Q2008.65 1206.05 2013.92 1206.05 Q2018.1 1206.05 2021.01 1209.18 Q2023.93 1212.31 2023.93 1217.79 M2018.76 1214.69 Q2018.76 1211.18 2017.36 1209.42 Q2015.95 1207.63 2013.78 1207.63 Q2011.77 1207.63 2009.35 1209.25 Q2006.96 1210.86 2004.85 1214.45 Q2003.73 1216.52 2002.92 1219.09 Q2002.11 1221.65 2000.53 1227.97 Q1999.97 1230.5 1999.97 1230.64 Q1999.97 1230.93 2000.11 1231.56 Q2000.28 1232.19 2000.71 1233.17 Q2001.16 1234.12 2001.79 1234.97 Q2002.43 1235.81 2003.59 1236.44 Q2004.75 1237.04 2006.15 1237.04 Q2008.33 1237.04 2010.65 1235.28 Q2013 1233.49 2014.72 1230.22 Q2016.16 1227.59 2017.46 1222.63 Q2018.76 1217.65 2018.76 1214.69 Z" fill="#000000" fill-rule="nonzero" fill-opacity="1" /><path clip-path="url(#clip960)" d="M2031.28 1192.53 Q2031.28 1184.02 2034.45 1177.16 Q2035.8 1174.28 2037.69 1171.87 Q2039.59 1169.46 2040.84 1168.4 Q2042.1 1167.34 2042.44 1167.34 Q2042.93 1167.34 2042.96 1167.84 Q2042.96 1168.08 2042.29 1168.7 Q2034.18 1176.96 2034.2 1192.53 Q2034.2 1208.14 2042.1 1216.09 Q2042.96 1216.95 2042.96 1217.22 Q2042.96 1217.71 2042.44 1217.71 Q2042.1 1217.71 2040.89 1216.7 Q2039.69 1215.69 2037.82 1213.38 Q2035.95 1211.07 2034.6 1208.24 Q2031.28 1201.38 2031.28 1192.53 Z" fill="#000000" fill-rule="nonzero" fill-opacity="1" /><path clip-path="url(#clip960)" d="M2073.88 1197.91 Q2073.88 1198.11 2073.66 1198.87 Q2073.44 1199.64 2072.9 1200.82 Q2072.38 1202 2071.67 1203.08 Q2070.96 1204.14 2069.78 1204.92 Q2068.62 1205.69 2067.29 1205.69 Q2065.52 1205.69 2064.34 1204.5 Q2063.16 1203.32 2063.16 1201.55 Q2063.16 1200.57 2063.68 1199.22 Q2066.95 1190.49 2066.95 1187.49 Q2066.95 1183.97 2064.22 1183.97 Q2062.86 1183.97 2061.59 1184.49 Q2060.33 1184.98 2059.47 1185.67 Q2058.61 1186.35 2057.82 1187.31 Q2057.06 1188.25 2056.67 1188.89 Q2056.3 1189.5 2056 1190.12 L2055.36 1192.63 Q2055.22 1193.31 2054.5 1196 L2053.4 1200.55 Q2052.61 1203.94 2052.44 1204.26 Q2052.19 1204.95 2051.65 1205.32 Q2051.11 1205.69 2050.57 1205.69 Q2049.95 1205.69 2049.53 1205.32 Q2049.12 1204.95 2049.12 1204.31 Q2049.12 1204.21 2049.19 1203.84 Q2049.26 1203.47 2049.39 1202.96 Q2049.51 1202.44 2049.56 1202.14 L2052.49 1190.51 Q2053.03 1188.4 2053.15 1187.73 Q2053.3 1187.04 2053.3 1186.28 Q2053.3 1183.97 2051.72 1183.97 Q2050.44 1183.97 2049.61 1185.49 Q2048.77 1187.02 2048.06 1189.97 Q2047.84 1190.78 2047.69 1190.95 Q2047.57 1191.13 2047.2 1191.13 Q2046.58 1191.1 2046.58 1190.61 Q2046.58 1190.49 2046.78 1189.67 Q2046.98 1188.86 2047.35 1187.71 Q2047.74 1186.53 2048.11 1185.74 Q2048.43 1185.15 2048.6 1184.88 Q2048.8 1184.58 2049.26 1184.02 Q2049.76 1183.43 2050.4 1183.16 Q2051.06 1182.86 2051.87 1182.86 Q2053.69 1182.86 2055.02 1184.04 Q2056.35 1185.2 2056.52 1187.24 Q2059.79 1182.86 2064.36 1182.86 Q2067.07 1182.86 2068.62 1184.29 Q2070.17 1185.72 2070.17 1188.25 Q2070.17 1188.84 2070.05 1189.6 Q2069.95 1190.34 2069.7 1191.27 Q2069.48 1192.21 2069.28 1192.92 Q2069.09 1193.63 2068.69 1194.79 Q2068.3 1195.92 2068.13 1196.41 Q2067.96 1196.91 2067.54 1198.06 Q2067.14 1199.19 2067.09 1199.32 Q2066.18 1201.6 2066.18 1202.91 Q2066.18 1203.77 2066.46 1204.16 Q2066.75 1204.55 2067.39 1204.55 Q2069.11 1204.55 2070.39 1202.86 Q2071.69 1201.14 2072.53 1198.33 Q2072.73 1197.72 2072.82 1197.57 Q2072.95 1197.42 2073.29 1197.42 Q2073.88 1197.42 2073.88 1197.91 Z" fill="#000000" fill-rule="nonzero" fill-opacity="1" /><path clip-path="url(#clip960)" d="M2078.71 1217.22 Q2078.71 1216.97 2079.35 1216.36 Q2087.47 1208.1 2087.47 1192.53 Q2087.47 1176.91 2079.67 1169.02 Q2078.71 1168.11 2078.71 1167.84 Q2078.71 1167.34 2079.21 1167.34 Q2079.55 1167.34 2080.75 1168.35 Q2081.98 1169.36 2083.83 1171.67 Q2085.7 1173.98 2087.08 1176.81 Q2090.4 1183.67 2090.4 1192.53 Q2090.4 1201.04 2087.22 1207.9 Q2085.87 1210.78 2083.98 1213.19 Q2082.08 1215.6 2080.83 1216.65 Q2079.57 1217.71 2079.21 1217.71 Q2078.71 1217.71 2078.71 1217.22 Z" fill="#000000" fill-rule="nonzero" fill-opacity="1" /><path clip-path="url(#clip960)" d="M2065.83 1273.64 Q2065.83 1274.11 2065.63 1274.35 Q2065.46 1274.58 2065.29 1274.62 Q2065.14 1274.65 2064.92 1274.65 Q2064.28 1274.65 2062.07 1274.58 Q2059.85 1274.5 2059.21 1274.5 Q2058.18 1274.5 2056.07 1274.58 Q2053.95 1274.65 2052.92 1274.65 Q2052.23 1274.65 2052.23 1274.08 Q2052.23 1273.71 2052.3 1273.52 Q2052.38 1273.3 2052.57 1273.22 Q2052.79 1273.12 2052.92 1273.12 Q2053.06 1273.1 2053.43 1273.1 Q2053.93 1273.1 2054.44 1273.05 Q2054.96 1272.98 2055.6 1272.83 Q2056.24 1272.68 2056.63 1272.31 Q2057.05 1271.94 2057.05 1271.43 Q2057.05 1271.21 2056.88 1269.39 Q2056.7 1267.57 2056.48 1265.45 Q2056.26 1263.31 2056.24 1263.02 L2043.6 1263.02 Q2042.44 1265.01 2041.63 1266.39 Q2040.82 1267.76 2040.52 1268.23 Q2040.23 1268.7 2040.05 1268.99 Q2039.88 1269.29 2039.78 1269.46 Q2039.07 1270.76 2039.07 1271.33 Q2039.07 1272.9 2041.43 1273.1 Q2042.24 1273.1 2042.24 1273.69 Q2042.24 1274.13 2042.05 1274.38 Q2041.85 1274.6 2041.68 1274.62 Q2041.53 1274.65 2041.28 1274.65 Q2040.47 1274.65 2038.78 1274.58 Q2037.08 1274.5 2036.24 1274.5 Q2035.53 1274.5 2034.05 1274.58 Q2032.58 1274.65 2031.91 1274.65 Q2031.62 1274.65 2031.45 1274.48 Q2031.28 1274.3 2031.28 1274.08 Q2031.28 1273.74 2031.32 1273.54 Q2031.4 1273.35 2031.59 1273.25 Q2031.79 1273.15 2031.89 1273.15 Q2031.99 1273.12 2032.33 1273.1 Q2034.2 1272.98 2035.65 1272.09 Q2037.13 1271.18 2038.53 1268.84 L2056.04 1239.43 Q2056.21 1239.14 2056.34 1238.99 Q2056.46 1238.84 2056.7 1238.72 Q2056.98 1238.59 2057.37 1238.59 Q2057.98 1238.59 2058.11 1238.79 Q2058.23 1238.96 2058.3 1239.8 L2061.38 1271.28 Q2061.45 1271.94 2061.5 1272.21 Q2061.57 1272.46 2061.89 1272.73 Q2062.24 1272.98 2062.85 1273.05 Q2063.49 1273.1 2064.67 1273.1 Q2065.12 1273.1 2065.29 1273.12 Q2065.46 1273.12 2065.63 1273.25 Q2065.83 1273.37 2065.83 1273.64 M2056.09 1261.44 L2054.49 1244.84 L2044.56 1261.44 L2056.09 1261.44 Z" fill="#000000" fill-rule="nonzero" fill-opacity="1" /><path clip-path="url(#clip960)" d="M2078.85 1298.47 Q2078.85 1298.77 2078.64 1298.97 Q2078.43 1299.18 2078.14 1299.18 Q2077.64 1299.18 2077.47 1298.71 L2070.91 1281.79 Q2070.87 1281.72 2070.87 1281.55 Q2070.87 1281.38 2070.91 1281.31 L2077.47 1264.39 Q2077.64 1263.92 2078.14 1263.92 Q2078.43 1263.92 2078.64 1264.13 Q2078.85 1264.33 2078.85 1264.63 Q2078.85 1264.8 2078.81 1264.87 L2072.32 1281.55 L2078.81 1298.23 Q2078.85 1298.3 2078.85 1298.47 Z" fill="#000000" fill-rule="nonzero" fill-opacity="1" /><path clip-path="url(#clip960)" d="M2114.13 1266.68 Q2114.13 1267.38 2113.52 1267.38 Q2111.58 1267.45 2110.79 1268.1 Q2110.01 1268.74 2109.72 1269.98 L2104.8 1289.62 Q2104.62 1290.24 2104.52 1290.31 Q2104.42 1290.36 2104.23 1290.36 Q2103.99 1290.36 2103.85 1290.24 Q2103.73 1290.12 2103.56 1289.69 L2094.78 1268.93 Q2094.71 1268.79 2094.62 1268.6 Q2094.54 1268.41 2094.47 1268.29 L2089.8 1286.9 Q2089.66 1287.44 2089.66 1287.71 Q2089.66 1288.38 2090.13 1288.81 Q2090.61 1289.23 2091.99 1289.28 Q2092.69 1289.28 2092.69 1289.66 Q2092.69 1290.36 2092.06 1290.36 Q2091.47 1290.36 2090.25 1290.31 Q2089.03 1290.26 2088.42 1290.26 Q2087.84 1290.26 2086.65 1290.31 Q2085.46 1290.36 2084.89 1290.36 Q2084.45 1290.36 2084.45 1289.97 Q2084.45 1289.66 2084.57 1289.5 Q2084.69 1289.33 2084.79 1289.31 Q2084.89 1289.28 2085.05 1289.28 Q2086.08 1289.25 2086.79 1289.04 Q2087.49 1288.83 2087.89 1288.44 Q2088.3 1288.04 2088.49 1287.64 Q2088.7 1287.23 2088.85 1286.63 L2093.57 1267.69 Q2093.57 1267.38 2091.18 1267.38 Q2090.77 1267.38 2090.59 1267.36 Q2090.44 1267.35 2090.32 1267.26 Q2090.2 1267.17 2090.2 1266.99 Q2090.2 1266.5 2090.4 1266.4 Q2090.61 1266.28 2091.21 1266.28 L2095.95 1266.28 Q2096.55 1266.28 2096.7 1266.38 Q2096.86 1266.47 2097.07 1266.95 L2104.86 1285.35 L2108.81 1269.67 Q2108.91 1269.36 2108.91 1268.93 Q2108.91 1268.24 2108.39 1267.83 Q2107.89 1267.4 2106.52 1267.38 Q2105.88 1267.38 2105.88 1266.99 Q2105.88 1266.66 2106 1266.5 Q2106.14 1266.33 2106.24 1266.31 Q2106.36 1266.28 2106.52 1266.28 Q2107.1 1266.28 2108.31 1266.33 Q2109.51 1266.38 2110.12 1266.38 Q2110.7 1266.38 2111.89 1266.33 Q2113.09 1266.28 2113.68 1266.28 Q2113.89 1266.28 2113.99 1266.38 Q2114.11 1266.47 2114.13 1266.57 L2114.13 1266.68 Z" fill="#000000" fill-rule="nonzero" fill-opacity="1" /><path clip-path="url(#clip960)" d="M2120.4 1281.31 Q2120.43 1281.38 2120.43 1281.55 Q2120.43 1281.72 2120.4 1281.79 L2113.84 1298.71 Q2113.67 1299.18 2113.18 1299.18 Q2112.89 1299.18 2112.69 1298.97 Q2112.48 1298.77 2112.48 1298.47 Q2112.48 1298.3 2112.51 1298.23 L2118.99 1281.55 L2112.51 1264.87 Q2112.48 1264.8 2112.48 1264.63 Q2112.48 1264.33 2112.69 1264.13 Q2112.89 1263.92 2113.18 1263.92 Q2113.67 1263.92 2113.84 1264.39 L2120.4 1281.31 Z" fill="#000000" fill-rule="nonzero" fill-opacity="1" /><path clip-path="url(#clip960)" d="M2178.65 1261.34 Q2178.95 1261.64 2178.95 1262.06 Q2178.95 1262.48 2178.65 1262.77 Q2178.36 1263.07 2177.94 1263.07 L2146.41 1263.07 Q2145.99 1263.07 2145.7 1262.77 Q2145.4 1262.48 2145.4 1262.06 Q2145.4 1261.64 2145.7 1261.34 Q2145.99 1261.05 2146.41 1261.05 L2177.94 1261.05 Q2178.36 1261.05 2178.65 1261.34 Z" fill="#000000" fill-rule="nonzero" fill-opacity="1" /><path clip-path="url(#clip960)" d="M2198.18 1274.65 Q2198.18 1273.74 2198.25 1273.47 Q2198.35 1273.2 2198.74 1272.78 L2208.41 1262.01 Q2213.69 1256.06 2213.69 1250.87 Q2213.69 1247.5 2211.92 1245.09 Q2210.18 1242.68 2206.96 1242.68 Q2204.74 1242.68 2202.87 1244.03 Q2201 1245.38 2200.14 1247.79 Q2200.29 1247.74 2200.81 1247.74 Q2202.06 1247.74 2202.75 1248.53 Q2203.46 1249.32 2203.46 1250.38 Q2203.46 1251.73 2202.58 1252.39 Q2201.72 1253.03 2200.86 1253.03 Q2200.51 1253.03 2200.05 1252.96 Q2199.6 1252.88 2198.89 1252.2 Q2198.18 1251.48 2198.18 1250.23 Q2198.18 1246.71 2200.83 1243.91 Q2203.51 1241.1 2207.6 1241.1 Q2212.22 1241.1 2215.24 1243.86 Q2218.29 1246.59 2218.29 1250.87 Q2218.29 1252.37 2217.83 1253.74 Q2217.38 1255.1 2216.77 1256.15 Q2216.18 1257.21 2214.56 1258.91 Q2212.93 1260.61 2211.63 1261.81 Q2210.33 1263.02 2207.4 1265.57 L2202.06 1270.76 L2211.14 1270.76 Q2215.56 1270.76 2215.91 1270.37 Q2216.4 1269.66 2217.01 1265.89 L2218.29 1265.89 L2216.87 1274.65 L2198.18 1274.65 Z" fill="#000000" fill-rule="nonzero" fill-opacity="1" /><path clip-path="url(#clip960)" d="M2230.8 1255.13 Q2230.8 1254.78 2231.71 1253.9 Q2243.31 1242.1 2243.31 1219.86 Q2243.31 1197.55 2232.17 1186.27 Q2230.8 1184.97 2230.8 1184.58 Q2230.8 1183.88 2231.5 1183.88 Q2231.99 1183.88 2233.72 1185.32 Q2235.47 1186.76 2238.11 1190.07 Q2240.78 1193.37 2242.74 1197.41 Q2247.49 1207.21 2247.49 1219.86 Q2247.49 1232.02 2242.96 1241.82 Q2241.02 1245.93 2238.32 1249.37 Q2235.61 1252.81 2233.82 1254.33 Q2232.03 1255.84 2231.5 1255.84 Q2230.8 1255.84 2230.8 1255.13 Z" fill="#000000" fill-rule="nonzero" fill-opacity="1" /></svg>
