<?xml version="1.0" encoding="utf-8"?>
<svg xmlns="http://www.w3.org/2000/svg" xmlns:xlink="http://www.w3.org/1999/xlink" width="600" height="400" viewBox="0 0 2400 1600">
<defs>
  <clipPath id="clip720">
    <rect x="0" y="0" width="2400" height="1600"/>
  </clipPath>
</defs>
<path clip-path="url(#clip720)" d="M0 1600 L2400 1600 L2400 0 L0 0  Z" fill="#ffffff" fill-rule="evenodd" fill-opacity="1"/>
<defs>
  <clipPath id="clip721">
    <rect x="480" y="0" width="1681" height="1600"/>
  </clipPath>
</defs>
<path clip-path="url(#clip720)" d="M262.009 1410.22 L2352.76 1410.22 L2352.76 47.2441 L262.009 47.2441  Z" fill="#ffffff" fill-rule="evenodd" fill-opacity="1"/>
<defs>
  <clipPath id="clip722">
    <rect x="262" y="47" width="2092" height="1364"/>
  </clipPath>
</defs>
<polyline clip-path="url(#clip720)" style="stroke:#000000; stroke-linecap:round; stroke-linejoin:round; stroke-width:4; stroke-opacity:1; fill:none" points="262.009,1410.22 2352.76,1410.22 "/>
<polyline clip-path="url(#clip720)" style="stroke:#000000; stroke-linecap:round; stroke-linejoin:round; stroke-width:4; stroke-opacity:1; fill:none" points="262.009,47.2441 2352.76,47.2441 "/>
<polyline clip-path="url(#clip720)" style="stroke:#000000; stroke-linecap:round; stroke-linejoin:round; stroke-width:4; stroke-opacity:1; fill:none" points="321.181,1410.22 321.181,1391.32 "/>
<polyline clip-path="url(#clip720)" style="stroke:#000000; stroke-linecap:round; stroke-linejoin:round; stroke-width:4; stroke-opacity:1; fill:none" points="884.725,1410.22 884.725,1391.32 "/>
<polyline clip-path="url(#clip720)" style="stroke:#000000; stroke-linecap:round; stroke-linejoin:round; stroke-width:4; stroke-opacity:1; fill:none" points="1448.27,1410.22 1448.27,1391.32 "/>
<polyline clip-path="url(#clip720)" style="stroke:#000000; stroke-linecap:round; stroke-linejoin:round; stroke-width:4; stroke-opacity:1; fill:none" points="2011.81,1410.22 2011.81,1391.32 "/>
<path clip-path="url(#clip720)" d="M325.658 1466.71 Q326.029 1467.08 326.029 1467.61 Q326.029 1468.13 325.658 1468.51 Q325.288 1468.88 324.763 1468.88 L285.176 1468.88 Q284.651 1468.88 284.28 1468.51 Q283.91 1468.13 283.91 1467.61 Q283.91 1467.08 284.28 1466.71 Q284.651 1466.34 285.176 1466.34 L324.763 1466.34 Q325.288 1466.34 325.658 1466.71 Z" fill="#000000" fill-rule="nonzero" fill-opacity="1" /><path clip-path="url(#clip720)" d="M332.205 1473.88 Q332.205 1466.81 341.314 1462.24 Q337.393 1459.58 336.682 1458.81 Q333.903 1455.72 333.903 1451.86 Q333.903 1447.45 337.238 1444.39 Q340.604 1441.3 345.359 1441.3 Q349.899 1441.3 353.326 1443.93 Q356.754 1446.55 356.754 1450.72 Q356.754 1456.59 349.096 1460.54 Q354.16 1463.69 355.364 1465.02 Q358.452 1468.44 358.452 1472.8 Q358.452 1477.86 354.561 1481.35 Q350.671 1484.81 345.298 1484.81 Q340.048 1484.81 336.127 1481.75 Q332.205 1478.7 332.205 1473.88 M335.355 1473.88 Q335.355 1477.8 338.288 1480.42 Q341.252 1483.05 345.359 1483.05 Q349.343 1483.05 352.307 1480.76 Q355.302 1478.48 355.302 1475.08 Q355.302 1473.75 354.839 1472.61 Q354.407 1471.47 353.511 1470.57 Q352.647 1469.65 352.091 1469.25 Q351.566 1468.81 350.547 1468.1 L342.766 1463.19 Q335.355 1467.3 335.355 1473.88 M336.682 1449.39 Q336.682 1452.42 339.863 1454.52 L347.706 1459.58 Q353.975 1455.91 353.975 1450.72 Q353.975 1447.35 351.412 1445.13 Q348.849 1442.88 345.298 1442.88 Q341.808 1442.88 339.245 1444.73 Q336.682 1446.55 336.682 1449.39 Z" fill="#000000" fill-rule="nonzero" fill-opacity="1" /><path clip-path="url(#clip720)" d="M889.202 1466.71 Q889.573 1467.08 889.573 1467.61 Q889.573 1468.13 889.202 1468.51 Q888.832 1468.88 888.307 1468.88 L848.72 1468.88 Q848.195 1468.88 847.824 1468.51 Q847.453 1468.13 847.453 1467.61 Q847.453 1467.08 847.824 1466.71 Q848.195 1466.34 848.72 1466.34 L888.307 1466.34 Q888.832 1466.34 889.202 1466.71 Z" fill="#000000" fill-rule="nonzero" fill-opacity="1" /><path clip-path="url(#clip720)" d="M895.749 1463.44 Q895.749 1453.5 900.813 1447.41 Q905.877 1441.3 912.392 1441.3 Q916.191 1441.3 918.29 1443.25 Q920.421 1445.16 920.421 1448.12 Q920.421 1449.76 919.464 1450.47 Q918.506 1451.18 917.518 1451.18 Q916.376 1451.18 915.48 1450.41 Q914.585 1449.64 914.585 1448.25 Q914.585 1445.41 918.074 1445.41 Q916.438 1442.88 912.516 1442.88 Q911.312 1442.88 910.076 1443.25 Q908.841 1443.59 907.236 1444.76 Q905.63 1445.93 904.395 1447.79 Q903.16 1449.64 902.295 1453.13 Q901.43 1456.62 901.43 1461.16 L901.43 1462.67 Q904.024 1456.4 909.335 1456.43 Q914.647 1456.43 918.321 1460.48 Q921.996 1464.52 921.996 1470.51 Q921.996 1476.66 918.167 1480.73 Q914.338 1484.81 908.965 1484.81 Q906.556 1484.81 904.364 1483.79 Q902.202 1482.8 900.164 1480.52 Q898.157 1478.23 896.953 1473.85 Q895.749 1469.46 895.749 1463.44 M901.554 1469.12 Q901.554 1475.33 902.696 1478.29 Q902.882 1478.79 903.283 1479.47 Q903.715 1480.15 904.426 1481.04 Q905.167 1481.91 906.371 1482.49 Q907.575 1483.05 908.965 1483.05 Q913.195 1483.05 915.233 1478.94 Q916.314 1476.66 916.314 1470.45 Q916.314 1464.12 915.172 1461.8 Q913.226 1457.88 909.274 1457.88 Q906.618 1457.88 904.765 1459.7 Q902.943 1461.53 902.233 1463.97 Q901.554 1466.41 901.554 1469.12 Z" fill="#000000" fill-rule="nonzero" fill-opacity="1" /><path clip-path="url(#clip720)" d="M1452.3 1466.71 Q1452.67 1467.08 1452.67 1467.61 Q1452.67 1468.13 1452.3 1468.51 Q1451.93 1468.88 1451.4 1468.88 L1411.82 1468.88 Q1411.29 1468.88 1410.92 1468.51 Q1410.55 1468.13 1410.55 1467.61 Q1410.55 1467.08 1410.92 1466.71 Q1411.29 1466.34 1411.82 1466.34 L1451.4 1466.34 Q1451.93 1466.34 1452.3 1466.71 Z" fill="#000000" fill-rule="nonzero" fill-opacity="1" /><path clip-path="url(#clip720)" d="M1457.95 1472.98 L1457.95 1471.04 L1477.37 1441.36 Q1477.87 1440.59 1478.64 1440.62 Q1479.35 1440.62 1479.5 1440.9 Q1479.66 1441.18 1479.66 1442.26 L1479.66 1471.04 L1485.99 1471.04 L1485.99 1472.98 L1479.66 1472.98 L1479.66 1478.48 Q1479.66 1480.3 1480.4 1480.89 Q1481.17 1481.47 1484.44 1481.47 L1485.77 1481.47 L1485.77 1483.42 Q1483.18 1483.23 1477.19 1483.23 Q1471.23 1483.23 1468.63 1483.42 L1468.63 1481.47 L1469.96 1481.47 Q1473.23 1481.47 1474.01 1480.92 Q1474.78 1480.33 1474.78 1478.48 L1474.78 1472.98 L1457.95 1472.98 M1459.74 1471.04 L1475.15 1471.04 L1475.15 1447.45 L1459.74 1471.04 Z" fill="#000000" fill-rule="nonzero" fill-opacity="1" /><path clip-path="url(#clip720)" d="M2016.54 1466.71 Q2016.91 1467.08 2016.91 1467.61 Q2016.91 1468.13 2016.54 1468.51 Q2016.17 1468.88 2015.64 1468.88 L1976.05 1468.88 Q1975.53 1468.88 1975.16 1468.51 Q1974.79 1468.13 1974.79 1467.61 Q1974.79 1467.08 1975.16 1466.71 Q1975.53 1466.34 1976.05 1466.34 L2015.64 1466.34 Q2016.17 1466.34 2016.54 1466.71 Z" fill="#000000" fill-rule="nonzero" fill-opacity="1" /><path clip-path="url(#clip720)" d="M2023.58 1483.42 Q2023.58 1482.28 2023.67 1481.94 Q2023.79 1481.6 2024.29 1481.07 L2036.42 1467.55 Q2043.06 1460.08 2043.06 1453.56 Q2043.06 1449.33 2040.84 1446.3 Q2038.65 1443.28 2034.6 1443.28 Q2031.82 1443.28 2029.47 1444.98 Q2027.13 1446.67 2026.05 1449.7 Q2026.23 1449.64 2026.88 1449.64 Q2028.46 1449.64 2029.32 1450.63 Q2030.22 1451.61 2030.22 1452.94 Q2030.22 1454.64 2029.1 1455.47 Q2028.02 1456.28 2026.94 1456.28 Q2026.51 1456.28 2025.92 1456.18 Q2025.37 1456.09 2024.47 1455.23 Q2023.58 1454.33 2023.58 1452.76 Q2023.58 1448.34 2026.91 1444.82 Q2030.28 1441.3 2035.4 1441.3 Q2041.21 1441.3 2045.01 1444.76 Q2048.84 1448.19 2048.84 1453.56 Q2048.84 1455.44 2048.25 1457.17 Q2047.69 1458.87 2046.92 1460.2 Q2046.18 1461.53 2044.14 1463.66 Q2042.1 1465.79 2040.47 1467.3 Q2038.83 1468.81 2035.16 1472.03 L2028.46 1478.54 L2039.85 1478.54 Q2045.41 1478.54 2045.84 1478.05 Q2046.46 1477.15 2047.23 1472.43 L2048.84 1472.43 L2047.05 1483.42 L2023.58 1483.42 Z" fill="#000000" fill-rule="nonzero" fill-opacity="1" /><path clip-path="url(#clip720)" d="M1332.91 1517.34 Q1332.91 1518.78 1331.72 1518.78 Q1329.61 1518.85 1328.17 1519.27 Q1326.73 1519.66 1325.89 1520.43 Q1325.08 1521.21 1324.62 1522.05 Q1324.2 1522.86 1323.92 1524.09 L1317.52 1549.63 Q1315.7 1556.83 1309.8 1562.07 Q1303.89 1567.27 1297.18 1567.27 Q1293.35 1567.27 1290.16 1565.69 Q1286.99 1564.11 1285.03 1560.91 Q1283.06 1557.71 1283.06 1553.46 Q1283.06 1551.42 1283.59 1549.28 L1287.94 1531.5 L1289.56 1525.18 Q1290.75 1520.5 1290.75 1520.08 Q1290.75 1519.42 1290.33 1519.24 Q1289.95 1519.03 1288.82 1518.92 L1286.08 1518.78 Q1285.24 1518.78 1284.89 1518.75 Q1284.57 1518.71 1284.32 1518.54 Q1284.08 1518.36 1284.08 1517.97 Q1284.08 1517.48 1284.18 1517.17 Q1284.32 1516.82 1284.57 1516.71 Q1284.82 1516.6 1284.99 1516.57 Q1285.17 1516.53 1285.45 1516.53 L1294.72 1516.75 L1303.93 1516.53 Q1304.95 1516.53 1304.95 1517.34 Q1304.95 1518.36 1304.49 1518.57 Q1304.03 1518.78 1302.49 1518.78 Q1299.85 1518.78 1298.66 1519.13 Q1297.5 1519.45 1297.15 1520.01 Q1296.83 1520.54 1296.44 1522.09 L1289.45 1550.09 Q1289.1 1551.49 1288.89 1552.9 Q1288.72 1554.27 1288.72 1554.97 L1288.68 1555.67 Q1288.68 1560.14 1291.14 1562.59 Q1293.63 1565.05 1297.46 1565.05 Q1303.09 1565.05 1308.32 1560.59 Q1313.59 1556.13 1315.38 1549.14 L1321.85 1523.46 Q1322.06 1522.82 1322.06 1521.94 Q1322.06 1520.54 1321 1519.7 Q1319.98 1518.82 1317.17 1518.78 Q1315.87 1518.78 1315.87 1517.97 Q1315.87 1517.31 1316.12 1516.99 Q1316.4 1516.64 1316.61 1516.6 Q1316.86 1516.53 1317.17 1516.53 Q1318.37 1516.53 1320.9 1516.64 Q1323.43 1516.75 1324.66 1516.75 Q1325.89 1516.75 1328.35 1516.64 Q1330.81 1516.53 1332 1516.53 Q1332.42 1516.53 1332.63 1516.75 Q1332.88 1516.92 1332.91 1517.13 L1332.91 1517.34 Z" fill="#000000" fill-rule="nonzero" fill-opacity="1" /><polyline clip-path="url(#clip720)" style="stroke:#000000; stroke-linecap:round; stroke-linejoin:round; stroke-width:4; stroke-opacity:1; fill:none" points="262.009,1410.22 262.009,47.2441 "/>
<polyline clip-path="url(#clip720)" style="stroke:#000000; stroke-linecap:round; stroke-linejoin:round; stroke-width:4; stroke-opacity:1; fill:none" points="2352.76,1410.22 2352.76,47.2441 "/>
<polyline clip-path="url(#clip720)" style="stroke:#000000; stroke-linecap:round; stroke-linejoin:round; stroke-width:4; stroke-opacity:1; fill:none" points="262.009,1166.15 280.907,1166.15 "/>
<polyline clip-path="url(#clip720)" style="stroke:#000000; stroke-linecap:round; stroke-linejoin:round; stroke-width:4; stroke-opacity:1; fill:none" points="262.009,808.074 280.907,808.074 "/>
<polyline clip-path="url(#clip720)" style="stroke:#000000; stroke-linecap:round; stroke-linejoin:round; stroke-width:4; stroke-opacity:1; fill:none" points="262.009,449.995 280.907,449.995 "/>
<polyline clip-path="url(#clip720)" style="stroke:#000000; stroke-linecap:round; stroke-linejoin:round; stroke-width:4; stroke-opacity:1; fill:none" points="262.009,91.9153 280.907,91.9153 "/>
<path clip-path="url(#clip720)" d="M118.58 1167.53 Q118.58 1158.23 120.927 1153.17 Q124.2 1145.63 131.92 1145.63 Q133.557 1145.63 135.255 1146.1 Q136.984 1146.53 139.146 1148.23 Q141.338 1149.93 142.666 1152.71 Q145.198 1158.08 145.198 1167.53 Q145.198 1176.76 142.851 1181.79 Q139.424 1189.14 131.858 1189.14 Q129.017 1189.14 126.115 1187.69 Q123.243 1186.24 121.421 1182.75 Q118.58 1177.53 118.58 1167.53 M123.83 1166.76 Q123.83 1176.3 124.509 1180.1 Q125.281 1184.2 127.381 1185.99 Q129.511 1187.75 131.858 1187.75 Q134.39 1187.75 136.49 1185.87 Q138.621 1183.96 139.269 1179.85 Q139.979 1175.8 139.949 1166.76 Q139.949 1157.96 139.331 1154.43 Q138.497 1150.33 136.274 1148.69 Q134.082 1147.02 131.858 1147.02 Q131.024 1147.02 130.129 1147.27 Q129.264 1147.52 127.998 1148.23 Q126.732 1148.94 125.744 1150.7 Q124.787 1152.46 124.324 1155.11 Q123.83 1158.54 123.83 1166.76 Z" fill="#000000" fill-rule="nonzero" fill-opacity="1" /><path clip-path="url(#clip720)" d="M154.06 1186.73 Q153.103 1185.72 153.103 1184.39 Q153.103 1183.06 154.06 1182.1 Q155.018 1181.11 156.469 1181.11 Q157.858 1181.11 158.785 1182.04 Q159.742 1182.94 159.742 1184.42 Q159.742 1185.87 158.723 1186.83 Q157.735 1187.75 156.469 1187.75 Q155.018 1187.75 154.06 1186.73 Z" fill="#000000" fill-rule="nonzero" fill-opacity="1" /><path clip-path="url(#clip720)" d="M170.92 1151.66 L170.92 1149.68 Q178.517 1149.68 182.438 1145.63 Q183.519 1145.63 183.704 1145.88 Q183.89 1146.13 183.89 1147.27 L183.89 1182.75 Q183.89 1184.63 184.816 1185.22 Q185.742 1185.81 189.788 1185.81 L191.795 1185.81 L191.795 1187.75 Q189.571 1187.57 181.543 1187.57 Q173.514 1187.57 171.322 1187.75 L171.322 1185.81 L173.329 1185.81 Q177.312 1185.81 178.27 1185.25 Q179.227 1184.67 179.227 1182.75 L179.227 1149.99 Q175.923 1151.66 170.92 1151.66 Z" fill="#000000" fill-rule="nonzero" fill-opacity="1" /><path clip-path="url(#clip720)" d="M199.391 1167.53 Q199.391 1158.23 201.738 1153.17 Q205.011 1145.63 212.731 1145.63 Q214.367 1145.63 216.066 1146.1 Q217.795 1146.53 219.957 1148.23 Q222.149 1149.93 223.477 1152.71 Q226.009 1158.08 226.009 1167.53 Q226.009 1176.76 223.662 1181.79 Q220.234 1189.14 212.669 1189.14 Q209.828 1189.14 206.926 1187.69 Q204.054 1186.24 202.232 1182.75 Q199.391 1177.53 199.391 1167.53 M204.64 1166.76 Q204.64 1176.3 205.32 1180.1 Q206.092 1184.2 208.192 1185.99 Q210.322 1187.75 212.669 1187.75 Q215.201 1187.75 217.301 1185.87 Q219.432 1183.96 220.08 1179.85 Q220.79 1175.8 220.759 1166.76 Q220.759 1157.96 220.142 1154.43 Q219.308 1150.33 217.085 1148.69 Q214.892 1147.02 212.669 1147.02 Q211.835 1147.02 210.94 1147.27 Q210.075 1147.52 208.809 1148.23 Q207.543 1148.94 206.555 1150.7 Q205.598 1152.46 205.135 1155.11 Q204.64 1158.54 204.64 1166.76 Z" fill="#000000" fill-rule="nonzero" fill-opacity="1" /><path clip-path="url(#clip720)" d="M119.259 809.448 Q119.259 800.154 121.606 795.089 Q124.88 787.555 132.599 787.555 Q134.236 787.555 135.934 788.018 Q137.664 788.45 139.825 790.149 Q142.017 791.847 143.345 794.626 Q145.877 799.999 145.877 809.448 Q145.877 818.681 143.531 823.714 Q140.103 831.064 132.538 831.064 Q129.697 831.064 126.794 829.612 Q123.922 828.161 122.1 824.672 Q119.259 819.453 119.259 809.448 M124.509 808.676 Q124.509 818.218 125.188 822.016 Q125.96 826.123 128.06 827.914 Q130.191 829.674 132.538 829.674 Q135.07 829.674 137.169 827.79 Q139.3 825.876 139.949 821.769 Q140.659 817.724 140.628 808.676 Q140.628 799.876 140.01 796.355 Q139.177 792.248 136.953 790.612 Q134.761 788.944 132.538 788.944 Q131.704 788.944 130.808 789.191 Q129.944 789.438 128.678 790.149 Q127.412 790.859 126.423 792.619 Q125.466 794.379 125.003 797.035 Q124.509 800.462 124.509 808.676 Z" fill="#000000" fill-rule="nonzero" fill-opacity="1" /><path clip-path="url(#clip720)" d="M154.74 828.655 Q153.782 827.636 153.782 826.308 Q153.782 824.98 154.74 824.023 Q155.697 823.035 157.148 823.035 Q158.538 823.035 159.464 823.961 Q160.421 824.857 160.421 826.339 Q160.421 827.79 159.402 828.748 Q158.414 829.674 157.148 829.674 Q155.697 829.674 154.74 828.655 Z" fill="#000000" fill-rule="nonzero" fill-opacity="1" /><path clip-path="url(#clip720)" d="M171.6 793.576 L171.6 791.6 Q179.196 791.6 183.118 787.555 Q184.198 787.555 184.384 787.802 Q184.569 788.049 184.569 789.191 L184.569 824.672 Q184.569 826.555 185.495 827.142 Q186.422 827.729 190.467 827.729 L192.474 827.729 L192.474 829.674 Q190.251 829.489 182.222 829.489 Q174.194 829.489 172.001 829.674 L172.001 827.729 L174.008 827.729 Q177.992 827.729 178.949 827.173 Q179.906 826.586 179.906 824.672 L179.906 791.909 Q176.602 793.576 171.6 793.576 Z" fill="#000000" fill-rule="nonzero" fill-opacity="1" /><path clip-path="url(#clip720)" d="M200.75 819.484 Q200.75 817.6 201.769 816.89 Q202.788 816.149 203.869 816.149 Q205.32 816.149 206.154 817.075 Q207.018 817.971 207.018 819.237 Q207.018 820.503 206.154 821.429 Q205.32 822.325 203.869 822.325 Q203.158 822.325 202.788 822.201 Q203.621 825.104 206.154 827.204 Q208.717 829.303 212.082 829.303 Q216.313 829.303 218.845 825.197 Q220.358 822.541 220.358 816.52 Q220.358 811.208 219.215 808.553 Q217.455 804.507 213.842 804.507 Q208.717 804.507 205.69 808.923 Q205.32 809.479 204.888 809.51 Q204.27 809.51 204.116 809.17 Q203.992 808.8 203.992 807.842 L203.992 789.13 Q203.992 787.617 204.61 787.617 Q204.857 787.617 205.382 787.802 Q209.365 789.562 213.781 789.593 Q218.32 789.593 222.396 787.74 Q222.705 787.555 222.89 787.555 Q223.508 787.555 223.539 788.265 Q223.539 788.512 223.014 789.253 Q222.52 789.963 221.439 790.921 Q220.358 791.847 218.968 792.743 Q217.579 793.638 215.541 794.256 Q213.534 794.842 211.31 794.842 Q208.655 794.842 205.937 794.009 L205.937 806.329 Q209.211 803.118 213.966 803.118 Q219.03 803.118 222.52 807.194 Q226.009 811.27 226.009 816.952 Q226.009 822.911 221.871 826.988 Q217.764 831.064 212.206 831.064 Q207.142 831.064 203.93 827.451 Q200.75 823.838 200.75 819.484 Z" fill="#000000" fill-rule="nonzero" fill-opacity="1" /><path clip-path="url(#clip720)" d="M118.58 451.369 Q118.58 442.074 120.927 437.01 Q124.2 429.475 131.92 429.475 Q133.557 429.475 135.255 429.939 Q136.984 430.371 139.146 432.069 Q141.338 433.768 142.666 436.547 Q145.198 441.92 145.198 451.369 Q145.198 460.602 142.851 465.635 Q139.424 472.984 131.858 472.984 Q129.017 472.984 126.115 471.533 Q123.243 470.082 121.421 466.592 Q118.58 461.374 118.58 451.369 M123.83 450.597 Q123.83 460.138 124.509 463.937 Q125.281 468.044 127.381 469.835 Q129.511 471.595 131.858 471.595 Q134.39 471.595 136.49 469.711 Q138.621 467.797 139.269 463.69 Q139.979 459.644 139.949 450.597 Q139.949 441.796 139.331 438.276 Q138.497 434.169 136.274 432.532 Q134.082 430.865 131.858 430.865 Q131.024 430.865 130.129 431.112 Q129.264 431.359 127.998 432.069 Q126.732 432.779 125.744 434.54 Q124.787 436.3 124.324 438.955 Q123.83 442.383 123.83 450.597 Z" fill="#000000" fill-rule="nonzero" fill-opacity="1" /><path clip-path="url(#clip720)" d="M154.06 470.576 Q153.103 469.557 153.103 468.229 Q153.103 466.901 154.06 465.944 Q155.018 464.956 156.469 464.956 Q157.858 464.956 158.785 465.882 Q159.742 466.777 159.742 468.26 Q159.742 469.711 158.723 470.668 Q157.735 471.595 156.469 471.595 Q155.018 471.595 154.06 470.576 Z" fill="#000000" fill-rule="nonzero" fill-opacity="1" /><path clip-path="url(#clip720)" d="M168.45 471.595 Q168.45 470.452 168.543 470.112 Q168.666 469.773 169.16 469.248 L181.296 455.723 Q187.935 448.25 187.935 441.734 Q187.935 437.504 185.712 434.478 Q183.519 431.452 179.474 431.452 Q176.695 431.452 174.348 433.15 Q172.001 434.848 170.92 437.875 Q171.106 437.813 171.754 437.813 Q173.329 437.813 174.194 438.801 Q175.089 439.789 175.089 441.117 Q175.089 442.815 173.977 443.649 Q172.897 444.452 171.816 444.452 Q171.384 444.452 170.797 444.359 Q170.241 444.267 169.346 443.402 Q168.45 442.506 168.45 440.932 Q168.45 436.516 171.785 432.996 Q175.151 429.475 180.277 429.475 Q186.082 429.475 189.88 432.934 Q193.709 436.361 193.709 441.734 Q193.709 443.618 193.123 445.347 Q192.567 447.046 191.795 448.373 Q191.054 449.701 189.016 451.832 Q186.978 453.963 185.341 455.476 Q183.704 456.989 180.03 460.2 L173.329 466.716 L184.723 466.716 Q190.282 466.716 190.714 466.222 Q191.332 465.326 192.104 460.602 L193.709 460.602 L191.918 471.595 L168.45 471.595 Z" fill="#000000" fill-rule="nonzero" fill-opacity="1" /><path clip-path="url(#clip720)" d="M199.391 451.369 Q199.391 442.074 201.738 437.01 Q205.011 429.475 212.731 429.475 Q214.367 429.475 216.066 429.939 Q217.795 430.371 219.957 432.069 Q222.149 433.768 223.477 436.547 Q226.009 441.92 226.009 451.369 Q226.009 460.602 223.662 465.635 Q220.234 472.984 212.669 472.984 Q209.828 472.984 206.926 471.533 Q204.054 470.082 202.232 466.592 Q199.391 461.374 199.391 451.369 M204.64 450.597 Q204.64 460.138 205.32 463.937 Q206.092 468.044 208.192 469.835 Q210.322 471.595 212.669 471.595 Q215.201 471.595 217.301 469.711 Q219.432 467.797 220.08 463.69 Q220.79 459.644 220.759 450.597 Q220.759 441.796 220.142 438.276 Q219.308 434.169 217.085 432.532 Q214.892 430.865 212.669 430.865 Q211.835 430.865 210.94 431.112 Q210.075 431.359 208.809 432.069 Q207.543 432.779 206.555 434.54 Q205.598 436.3 205.135 438.955 Q204.64 442.383 204.64 450.597 Z" fill="#000000" fill-rule="nonzero" fill-opacity="1" /><path clip-path="url(#clip720)" d="M119.259 93.2894 Q119.259 83.9947 121.606 78.9306 Q124.88 71.396 132.599 71.396 Q134.236 71.396 135.934 71.8592 Q137.664 72.2915 139.825 73.9899 Q142.017 75.6882 143.345 78.4674 Q145.877 83.8404 145.877 93.2894 Q145.877 102.522 143.531 107.556 Q140.103 114.905 132.538 114.905 Q129.697 114.905 126.794 113.454 Q123.922 112.002 122.1 108.513 Q119.259 103.294 119.259 93.2894 M124.509 92.5174 Q124.509 102.059 125.188 105.857 Q125.96 109.964 128.06 111.755 Q130.191 113.515 132.538 113.515 Q135.07 113.515 137.169 111.632 Q139.3 109.717 139.949 105.61 Q140.659 101.565 140.628 92.5174 Q140.628 83.7168 140.01 80.1966 Q139.177 76.0897 136.953 74.4531 Q134.761 72.7856 132.538 72.7856 Q131.704 72.7856 130.808 73.0326 Q129.944 73.2797 128.678 73.9899 Q127.412 74.7001 126.423 76.4602 Q125.466 78.2203 125.003 80.8759 Q124.509 84.3035 124.509 92.5174 Z" fill="#000000" fill-rule="nonzero" fill-opacity="1" /><path clip-path="url(#clip720)" d="M154.74 112.496 Q153.782 111.477 153.782 110.149 Q153.782 108.822 154.74 107.864 Q155.697 106.876 157.148 106.876 Q158.538 106.876 159.464 107.803 Q160.421 108.698 160.421 110.18 Q160.421 111.632 159.402 112.589 Q158.414 113.515 157.148 113.515 Q155.697 113.515 154.74 112.496 Z" fill="#000000" fill-rule="nonzero" fill-opacity="1" /><path clip-path="url(#clip720)" d="M169.129 113.515 Q169.129 112.373 169.222 112.033 Q169.346 111.693 169.84 111.168 L181.975 97.6434 Q188.614 90.1706 188.614 83.6551 Q188.614 79.4246 186.391 76.3985 Q184.198 73.3723 180.153 73.3723 Q177.374 73.3723 175.027 75.0707 Q172.681 76.769 171.6 79.7952 Q171.785 79.7334 172.433 79.7334 Q174.008 79.7334 174.873 80.7216 Q175.768 81.7097 175.768 83.0375 Q175.768 84.7358 174.657 85.5696 Q173.576 86.3724 172.495 86.3724 Q172.063 86.3724 171.476 86.2798 Q170.92 86.1872 170.025 85.3226 Q169.129 84.4271 169.129 82.8522 Q169.129 78.4365 172.464 74.9163 Q175.83 71.396 180.956 71.396 Q186.761 71.396 190.56 74.8545 Q194.389 78.2821 194.389 83.6551 Q194.389 85.5387 193.802 87.2679 Q193.246 88.9663 192.474 90.2941 Q191.733 91.6219 189.695 93.7526 Q187.657 95.8832 186.02 97.3963 Q184.384 98.9094 180.709 102.121 L174.008 108.636 L185.403 108.636 Q190.961 108.636 191.393 108.142 Q192.011 107.247 192.783 102.522 L194.389 102.522 L192.598 113.515 L169.129 113.515 Z" fill="#000000" fill-rule="nonzero" fill-opacity="1" /><path clip-path="url(#clip720)" d="M200.75 103.325 Q200.75 101.441 201.769 100.731 Q202.788 99.9902 203.869 99.9902 Q205.32 99.9902 206.154 100.917 Q207.018 101.812 207.018 103.078 Q207.018 104.344 206.154 105.271 Q205.32 106.166 203.869 106.166 Q203.158 106.166 202.788 106.042 Q203.621 108.945 206.154 111.045 Q208.717 113.145 212.082 113.145 Q216.313 113.145 218.845 109.038 Q220.358 106.382 220.358 100.361 Q220.358 95.0495 219.215 92.3939 Q217.455 88.3487 213.842 88.3487 Q208.717 88.3487 205.69 92.7644 Q205.32 93.3203 204.888 93.3511 Q204.27 93.3511 204.116 93.0115 Q203.992 92.6409 203.992 91.6837 L203.992 72.9709 Q203.992 71.4578 204.61 71.4578 Q204.857 71.4578 205.382 71.6431 Q209.365 73.4032 213.781 73.4341 Q218.32 73.4341 222.396 71.5813 Q222.705 71.396 222.89 71.396 Q223.508 71.396 223.539 72.1063 Q223.539 72.3533 223.014 73.0944 Q222.52 73.8046 221.439 74.7619 Q220.358 75.6882 218.968 76.5837 Q217.579 77.4792 215.541 78.0968 Q213.534 78.6835 211.31 78.6835 Q208.655 78.6835 205.937 77.8498 L205.937 90.1706 Q209.211 86.9592 213.966 86.9592 Q219.03 86.9592 222.52 91.0352 Q226.009 95.1113 226.009 100.793 Q226.009 106.753 221.871 110.829 Q217.764 114.905 212.206 114.905 Q207.142 114.905 203.93 111.292 Q200.75 107.679 200.75 103.325 Z" fill="#000000" fill-rule="nonzero" fill-opacity="1" /><path clip-path="url(#clip720)" d="M29.4198 794.371 Q34.9357 795.811 38.4842 800.203 Q41.8922 804.314 41.8922 809.83 Q41.8922 814.889 39.5031 816.751 Q38.0626 817.911 35.3222 817.313 Q33.5655 816.927 32.7575 815.873 Q31.9494 814.959 31.9494 813.343 Q31.9494 811.938 32.7575 811.341 Q33.5304 810.849 35.7087 811.762 Q37.9572 812.851 39.0112 812.078 Q39.7139 811.516 39.7139 809.478 Q39.7139 806.598 37.4302 803.717 Q35.006 800.73 30.2981 799.536 Q26.0821 798.552 23.9038 800.203 Q21.4444 802.1 21.4444 806.457 Q21.4444 812.781 25.2037 817.524 Q28.2252 821.283 32.8277 823.708 Q38.0978 826.553 44.9137 828.24 Q51.4486 829.856 56.1213 829.399 Q61.1103 829.048 64.2021 826.729 Q67.9263 823.954 67.9263 819.316 Q67.9263 815.065 64.8345 811.13 Q62.867 808.706 58.8618 806.949 L58.3699 806.035 L61.7427 803.576 Q64.1318 805.227 65.6426 807.019 Q70.3856 812.957 70.3856 821.705 Q70.3856 825.113 69.1208 827.959 Q67.8209 830.769 65.3966 832.561 Q62.4805 834.81 57.5618 835.161 Q52.7134 835.548 46.7055 834.002 Q39.1518 832.14 33.6709 828.907 Q28.3657 825.921 24.6767 821.213 Q19.1607 814.362 19.1607 804.595 Q19.1607 797.498 22.4633 795.074 Q24.7821 793.282 29.4198 794.371 Z" fill="#000000" fill-rule="nonzero" fill-opacity="1" /><path clip-path="url(#clip720)" d="M51.308 788.954 Q39.1518 788.954 29.3495 784.421 Q25.2389 782.489 21.7958 779.784 Q18.3527 777.078 16.8419 775.287 Q15.3312 773.495 15.3312 773.003 Q15.3312 772.3 16.0338 772.265 Q16.3852 772.265 17.2635 773.214 Q29.0684 784.808 51.308 784.773 Q73.6179 784.773 84.9661 773.495 Q86.1958 772.265 86.5822 772.265 Q87.2849 772.265 87.2849 773.003 Q87.2849 773.495 85.8444 775.216 Q84.4039 776.938 81.1014 779.608 Q77.7988 782.278 73.7584 784.211 Q63.9562 788.954 51.308 788.954 Z" fill="#000000" fill-rule="nonzero" fill-opacity="1" /><path clip-path="url(#clip720)" d="M39.995 727.938 Q42.4543 727.938 42.4543 731.452 L42.4543 739.673 Q48.2865 740.938 53.9079 740.938 Q60.6185 740.938 65.7831 738.865 Q66.802 738.443 67.3641 738.443 Q68.4181 738.443 69.2613 739.392 Q70.1045 740.305 70.1045 741.395 Q70.1045 742.308 69.4019 742.905 Q68.6992 743.468 66.4858 743.959 Q63.8859 744.557 61.0049 744.557 Q57.5618 744.557 54.2593 743.995 Q50.9216 743.432 42.4543 741.535 L42.4543 749.651 L58.3699 753.691 Q63.7454 755.132 65.3966 755.624 Q66.3804 755.94 66.6966 756.045 Q67.0128 756.151 67.7857 756.467 Q68.5235 756.748 68.8046 756.959 Q69.0505 757.17 69.437 757.521 Q69.8586 757.872 69.964 758.294 Q70.1045 758.716 70.1045 759.243 Q70.1045 760.051 69.5775 760.683 Q69.0857 761.315 68.1371 761.315 Q67.5047 761.315 66.4155 760.753 Q52.0107 754.078 42.4543 751.548 L42.4543 755.624 Q42.4543 761.245 48.0055 764.759 Q48.7433 765.321 48.8135 765.637 Q48.8487 765.777 48.8487 765.918 Q48.8487 766.304 48.673 766.55 Q48.4973 766.761 48.3217 766.761 L48.146 766.796 Q47.9352 766.796 46.9866 766.269 Q46.0028 765.707 44.4921 764.653 Q42.9814 763.564 41.6814 762.405 Q40.4869 761.28 39.7491 760.191 Q38.9761 759.067 38.695 758.013 Q38.414 756.959 38.3437 756.362 Q38.2734 755.764 38.2734 754.921 L38.2734 730.819 Q38.2734 729.906 38.3437 729.414 Q38.3788 728.922 38.8004 728.43 Q39.1869 727.938 39.995 727.938 Z" fill="#000000" fill-rule="nonzero" fill-opacity="1" /><path clip-path="url(#clip720)" d="M68.1371 725.169 Q66.9776 726.187 65.4669 726.187 Q63.9562 726.187 62.8319 725.204 Q61.6725 724.185 61.6725 722.358 Q61.6725 720.215 63.7454 718.985 Q65.7831 717.755 69.2262 717.755 Q72.9504 717.755 76.3935 719.266 Q79.8717 720.777 81.523 722.252 Q83.1743 723.728 83.1743 724.325 Q83.1743 725.028 82.4013 725.028 Q82.1203 725.028 81.5933 724.536 Q76.0421 719.371 69.2262 719.336 Q68.1371 719.336 68.1371 719.477 L68.2776 719.653 Q69.2965 720.882 69.2965 722.358 Q69.2965 724.15 68.1371 725.169 Z" fill="#000000" fill-rule="nonzero" fill-opacity="1" /><path clip-path="url(#clip720)" d="M39.995 656.193 Q42.4543 656.193 42.4543 659.706 L42.4543 667.927 Q48.2865 669.192 53.9079 669.192 Q60.6185 669.192 65.7831 667.119 Q66.802 666.698 67.3641 666.698 Q68.4181 666.698 69.2613 667.646 Q70.1045 668.56 70.1045 669.649 Q70.1045 670.562 69.4019 671.16 Q68.6992 671.722 66.4858 672.214 Q63.8859 672.811 61.0049 672.811 Q57.5618 672.811 54.2593 672.249 Q50.9216 671.687 42.4543 669.789 L42.4543 677.905 L58.3699 681.946 Q63.7454 683.386 65.3966 683.878 Q66.3804 684.194 66.6966 684.3 Q67.0128 684.405 67.7857 684.721 Q68.5235 685.002 68.8046 685.213 Q69.0505 685.424 69.437 685.775 Q69.8586 686.127 69.964 686.548 Q70.1045 686.97 70.1045 687.497 Q70.1045 688.305 69.5775 688.937 Q69.0857 689.57 68.1371 689.57 Q67.5047 689.57 66.4155 689.007 Q52.0107 682.332 42.4543 679.802 L42.4543 683.878 Q42.4543 689.499 48.0055 693.013 Q48.7433 693.575 48.8135 693.891 Q48.8487 694.032 48.8487 694.172 Q48.8487 694.559 48.673 694.805 Q48.4973 695.015 48.3217 695.015 L48.146 695.05 Q47.9352 695.05 46.9866 694.523 Q46.0028 693.961 44.4921 692.907 Q42.9814 691.818 41.6814 690.659 Q40.4869 689.534 39.7491 688.445 Q38.9761 687.321 38.695 686.267 Q38.414 685.213 38.3437 684.616 Q38.2734 684.019 38.2734 683.175 L38.2734 659.074 Q38.2734 658.16 38.3437 657.668 Q38.3788 657.176 38.8004 656.685 Q39.1869 656.193 39.995 656.193 Z" fill="#000000" fill-rule="nonzero" fill-opacity="1" /><path clip-path="url(#clip720)" d="M86.5822 649.546 Q86.2309 649.546 85.3526 648.632 Q73.5476 637.038 51.308 637.038 Q28.9982 637.038 17.7202 648.175 Q16.4203 649.546 16.0338 649.546 Q15.3312 649.546 15.3312 648.843 Q15.3312 648.351 16.7716 646.63 Q18.2121 644.873 21.5147 642.238 Q24.8172 639.568 28.8576 637.6 Q38.6599 632.857 51.308 632.857 Q63.4643 632.857 73.2666 637.389 Q77.3772 639.322 80.8203 642.027 Q84.2634 644.732 85.7742 646.524 Q87.2849 648.316 87.2849 648.843 Q87.2849 649.546 86.5822 649.546 Z" fill="#000000" fill-rule="nonzero" fill-opacity="1" /><polyline clip-path="url(#clip722)" style="stroke:#009af9; stroke-linecap:round; stroke-linejoin:round; stroke-width:4; stroke-opacity:1; fill:none" points="2293.58,1158.05 2011.81,1019.89 1730.04,764.993 1448.27,575.968 1166.5,377.989 884.725,316.864 602.953,208.387 321.181,85.9189 "/>
<path clip-path="url(#clip722)" d="M2293.58 1134.05 L2269.58 1182.05 L2317.58 1182.05 L2293.58 1134.05 Z" fill="#009af9" fill-rule="evenodd" fill-opacity="1" stroke="#000000" stroke-opacity="1" stroke-width="3.2"/>
<path clip-path="url(#clip722)" d="M2011.81 995.885 L1987.81 1043.89 L2035.81 1043.89 L2011.81 995.885 Z" fill="#009af9" fill-rule="evenodd" fill-opacity="1" stroke="#000000" stroke-opacity="1" stroke-width="3.2"/>
<path clip-path="url(#clip722)" d="M1730.04 740.993 L1706.04 788.993 L1754.04 788.993 L1730.04 740.993 Z" fill="#009af9" fill-rule="evenodd" fill-opacity="1" stroke="#000000" stroke-opacity="1" stroke-width="3.2"/>
<path clip-path="url(#clip722)" d="M1448.27 551.968 L1424.27 599.968 L1472.27 599.968 L1448.27 551.968 Z" fill="#009af9" fill-rule="evenodd" fill-opacity="1" stroke="#000000" stroke-opacity="1" stroke-width="3.2"/>
<path clip-path="url(#clip722)" d="M1166.5 353.989 L1142.5 401.989 L1190.5 401.989 L1166.5 353.989 Z" fill="#009af9" fill-rule="evenodd" fill-opacity="1" stroke="#000000" stroke-opacity="1" stroke-width="3.2"/>
<path clip-path="url(#clip722)" d="M884.725 292.864 L860.725 340.864 L908.725 340.864 L884.725 292.864 Z" fill="#009af9" fill-rule="evenodd" fill-opacity="1" stroke="#000000" stroke-opacity="1" stroke-width="3.2"/>
<path clip-path="url(#clip722)" d="M602.953 184.387 L578.953 232.387 L626.953 232.387 L602.953 184.387 Z" fill="#009af9" fill-rule="evenodd" fill-opacity="1" stroke="#000000" stroke-opacity="1" stroke-width="3.2"/>
<path clip-path="url(#clip722)" d="M321.181 61.9189 L297.181 109.919 L345.181 109.919 L321.181 61.9189 Z" fill="#009af9" fill-rule="evenodd" fill-opacity="1" stroke="#000000" stroke-opacity="1" stroke-width="3.2"/>
<polyline clip-path="url(#clip722)" style="stroke:#000000; stroke-linecap:round; stroke-linejoin:round; stroke-width:4; stroke-opacity:1; fill:none" points="2293.58,1158.1 2293.58,1158 "/>
<polyline clip-path="url(#clip722)" style="stroke:#000000; stroke-linecap:round; stroke-linejoin:round; stroke-width:4; stroke-opacity:1; fill:none" points="2011.81,1019.91 2011.81,1019.86 "/>
<polyline clip-path="url(#clip722)" style="stroke:#000000; stroke-linecap:round; stroke-linejoin:round; stroke-width:4; stroke-opacity:1; fill:none" points="1730.04,765.051 1730.04,764.935 "/>
<polyline clip-path="url(#clip722)" style="stroke:#000000; stroke-linecap:round; stroke-linejoin:round; stroke-width:4; stroke-opacity:1; fill:none" points="1448.27,576.031 1448.27,575.905 "/>
<polyline clip-path="url(#clip722)" style="stroke:#000000; stroke-linecap:round; stroke-linejoin:round; stroke-width:4; stroke-opacity:1; fill:none" points="1166.5,378.082 1166.5,377.896 "/>
<polyline clip-path="url(#clip722)" style="stroke:#000000; stroke-linecap:round; stroke-linejoin:round; stroke-width:4; stroke-opacity:1; fill:none" points="884.725,316.937 884.725,316.792 "/>
<polyline clip-path="url(#clip722)" style="stroke:#000000; stroke-linecap:round; stroke-linejoin:round; stroke-width:4; stroke-opacity:1; fill:none" points="602.953,208.461 602.953,208.313 "/>
<polyline clip-path="url(#clip722)" style="stroke:#000000; stroke-linecap:round; stroke-linejoin:round; stroke-width:4; stroke-opacity:1; fill:none" points="321.181,86.019 321.181,85.8189 "/>
<line clip-path="url(#clip722)" x1="2317.58" y1="1158.1" x2="2269.58" y2="1158.1" style="stroke:#000000; stroke-width:4; stroke-opacity:1"/>
<line clip-path="url(#clip722)" x1="2317.58" y1="1158" x2="2269.58" y2="1158" style="stroke:#000000; stroke-width:4; stroke-opacity:1"/>
<line clip-path="url(#clip722)" x1="2035.81" y1="1019.91" x2="1987.81" y2="1019.91" style="stroke:#000000; stroke-width:4; stroke-opacity:1"/>
<line clip-path="url(#clip722)" x1="2035.81" y1="1019.86" x2="1987.81" y2="1019.86" style="stroke:#000000; stroke-width:4; stroke-opacity:1"/>
<line clip-path="url(#clip722)" x1="1754.04" y1="765.051" x2="1706.04" y2="765.051" style="stroke:#000000; stroke-width:4; stroke-opacity:1"/>
<line clip-path="url(#clip722)" x1="1754.04" y1="764.935" x2="1706.04" y2="764.935" style="stroke:#000000; stroke-width:4; stroke-opacity:1"/>
<line clip-path="url(#clip722)" x1="1472.27" y1="576.031" x2="1424.27" y2="576.031" style="stroke:#000000; stroke-width:4; stroke-opacity:1"/>
<line clip-path="url(#clip722)" x1="1472.27" y1="575.905" x2="1424.27" y2="575.905" style="stroke:#000000; stroke-width:4; stroke-opacity:1"/>
<line clip-path="url(#clip722)" x1="1190.5" y1="378.082" x2="1142.5" y2="378.082" style="stroke:#000000; stroke-width:4; stroke-opacity:1"/>
<line clip-path="url(#clip722)" x1="1190.5" y1="377.896" x2="1142.5" y2="377.896" style="stroke:#000000; stroke-width:4; stroke-opacity:1"/>
<line clip-path="url(#clip722)" x1="908.725" y1="316.937" x2="860.725" y2="316.937" style="stroke:#000000; stroke-width:4; stroke-opacity:1"/>
<line clip-path="url(#clip722)" x1="908.725" y1="316.792" x2="860.725" y2="316.792" style="stroke:#000000; stroke-width:4; stroke-opacity:1"/>
<line clip-path="url(#clip722)" x1="626.953" y1="208.461" x2="578.953" y2="208.461" style="stroke:#000000; stroke-width:4; stroke-opacity:1"/>
<line clip-path="url(#clip722)" x1="626.953" y1="208.313" x2="578.953" y2="208.313" style="stroke:#000000; stroke-width:4; stroke-opacity:1"/>
<line clip-path="url(#clip722)" x1="345.181" y1="86.019" x2="297.181" y2="86.019" style="stroke:#000000; stroke-width:4; stroke-opacity:1"/>
<line clip-path="url(#clip722)" x1="345.181" y1="85.8189" x2="297.181" y2="85.8189" style="stroke:#000000; stroke-width:4; stroke-opacity:1"/>
<polyline clip-path="url(#clip722)" style="stroke:#e26f46; stroke-linecap:round; stroke-linejoin:round; stroke-width:4; stroke-opacity:1; fill:none" points="2293.58,1371.64 2011.81,1332.71 1730.04,1272.96 1448.27,1183.67 1166.5,1008.04 884.725,852.33 602.953,698.294 321.181,524.726 "/>
<path clip-path="url(#clip722)" d="M2293.58 1347.64 L2269.58 1395.64 L2317.58 1395.64 L2293.58 1347.64 Z" fill="#e26f46" fill-rule="evenodd" fill-opacity="1" stroke="#000000" stroke-opacity="1" stroke-width="3.2"/>
<path clip-path="url(#clip722)" d="M2011.81 1308.71 L1987.81 1356.71 L2035.81 1356.71 L2011.81 1308.71 Z" fill="#e26f46" fill-rule="evenodd" fill-opacity="1" stroke="#000000" stroke-opacity="1" stroke-width="3.2"/>
<path clip-path="url(#clip722)" d="M1730.04 1248.96 L1706.04 1296.96 L1754.04 1296.96 L1730.04 1248.96 Z" fill="#e26f46" fill-rule="evenodd" fill-opacity="1" stroke="#000000" stroke-opacity="1" stroke-width="3.2"/>
<path clip-path="url(#clip722)" d="M1448.27 1159.67 L1424.27 1207.67 L1472.27 1207.67 L1448.27 1159.67 Z" fill="#e26f46" fill-rule="evenodd" fill-opacity="1" stroke="#000000" stroke-opacity="1" stroke-width="3.2"/>
<path clip-path="url(#clip722)" d="M1166.5 984.043 L1142.5 1032.04 L1190.5 1032.04 L1166.5 984.043 Z" fill="#e26f46" fill-rule="evenodd" fill-opacity="1" stroke="#000000" stroke-opacity="1" stroke-width="3.2"/>
<path clip-path="url(#clip722)" d="M884.725 828.33 L860.725 876.33 L908.725 876.33 L884.725 828.33 Z" fill="#e26f46" fill-rule="evenodd" fill-opacity="1" stroke="#000000" stroke-opacity="1" stroke-width="3.2"/>
<path clip-path="url(#clip722)" d="M602.953 674.294 L578.953 722.294 L626.953 722.294 L602.953 674.294 Z" fill="#e26f46" fill-rule="evenodd" fill-opacity="1" stroke="#000000" stroke-opacity="1" stroke-width="3.2"/>
<path clip-path="url(#clip722)" d="M321.181 500.726 L297.181 548.726 L345.181 548.726 L321.181 500.726 Z" fill="#e26f46" fill-rule="evenodd" fill-opacity="1" stroke="#000000" stroke-opacity="1" stroke-width="3.2"/>
<polyline clip-path="url(#clip722)" style="stroke:#000000; stroke-linecap:round; stroke-linejoin:round; stroke-width:4; stroke-opacity:1; fill:none" points="2293.58,1371.65 2293.58,1371.64 "/>
<polyline clip-path="url(#clip722)" style="stroke:#000000; stroke-linecap:round; stroke-linejoin:round; stroke-width:4; stroke-opacity:1; fill:none" points="2011.81,1332.72 2011.81,1332.71 "/>
<polyline clip-path="url(#clip722)" style="stroke:#000000; stroke-linecap:round; stroke-linejoin:round; stroke-width:4; stroke-opacity:1; fill:none" points="1730.04,1272.97 1730.04,1272.95 "/>
<polyline clip-path="url(#clip722)" style="stroke:#000000; stroke-linecap:round; stroke-linejoin:round; stroke-width:4; stroke-opacity:1; fill:none" points="1448.27,1183.69 1448.27,1183.66 "/>
<polyline clip-path="url(#clip722)" style="stroke:#000000; stroke-linecap:round; stroke-linejoin:round; stroke-width:4; stroke-opacity:1; fill:none" points="1166.5,1008.07 1166.5,1008.02 "/>
<polyline clip-path="url(#clip722)" style="stroke:#000000; stroke-linecap:round; stroke-linejoin:round; stroke-width:4; stroke-opacity:1; fill:none" points="884.725,852.358 884.725,852.301 "/>
<polyline clip-path="url(#clip722)" style="stroke:#000000; stroke-linecap:round; stroke-linejoin:round; stroke-width:4; stroke-opacity:1; fill:none" points="602.953,698.328 602.953,698.261 "/>
<polyline clip-path="url(#clip722)" style="stroke:#000000; stroke-linecap:round; stroke-linejoin:round; stroke-width:4; stroke-opacity:1; fill:none" points="321.181,524.765 321.181,524.688 "/>
<line clip-path="url(#clip722)" x1="2317.58" y1="1371.65" x2="2269.58" y2="1371.65" style="stroke:#000000; stroke-width:4; stroke-opacity:1"/>
<line clip-path="url(#clip722)" x1="2317.58" y1="1371.64" x2="2269.58" y2="1371.64" style="stroke:#000000; stroke-width:4; stroke-opacity:1"/>
<line clip-path="url(#clip722)" x1="2035.81" y1="1332.72" x2="1987.81" y2="1332.72" style="stroke:#000000; stroke-width:4; stroke-opacity:1"/>
<line clip-path="url(#clip722)" x1="2035.81" y1="1332.71" x2="1987.81" y2="1332.71" style="stroke:#000000; stroke-width:4; stroke-opacity:1"/>
<line clip-path="url(#clip722)" x1="1754.04" y1="1272.97" x2="1706.04" y2="1272.97" style="stroke:#000000; stroke-width:4; stroke-opacity:1"/>
<line clip-path="url(#clip722)" x1="1754.04" y1="1272.95" x2="1706.04" y2="1272.95" style="stroke:#000000; stroke-width:4; stroke-opacity:1"/>
<line clip-path="url(#clip722)" x1="1472.27" y1="1183.69" x2="1424.27" y2="1183.69" style="stroke:#000000; stroke-width:4; stroke-opacity:1"/>
<line clip-path="url(#clip722)" x1="1472.27" y1="1183.66" x2="1424.27" y2="1183.66" style="stroke:#000000; stroke-width:4; stroke-opacity:1"/>
<line clip-path="url(#clip722)" x1="1190.5" y1="1008.07" x2="1142.5" y2="1008.07" style="stroke:#000000; stroke-width:4; stroke-opacity:1"/>
<line clip-path="url(#clip722)" x1="1190.5" y1="1008.02" x2="1142.5" y2="1008.02" style="stroke:#000000; stroke-width:4; stroke-opacity:1"/>
<line clip-path="url(#clip722)" x1="908.725" y1="852.358" x2="860.725" y2="852.358" style="stroke:#000000; stroke-width:4; stroke-opacity:1"/>
<line clip-path="url(#clip722)" x1="908.725" y1="852.301" x2="860.725" y2="852.301" style="stroke:#000000; stroke-width:4; stroke-opacity:1"/>
<line clip-path="url(#clip722)" x1="626.953" y1="698.328" x2="578.953" y2="698.328" style="stroke:#000000; stroke-width:4; stroke-opacity:1"/>
<line clip-path="url(#clip722)" x1="626.953" y1="698.261" x2="578.953" y2="698.261" style="stroke:#000000; stroke-width:4; stroke-opacity:1"/>
<line clip-path="url(#clip722)" x1="345.181" y1="524.765" x2="297.181" y2="524.765" style="stroke:#000000; stroke-width:4; stroke-opacity:1"/>
<line clip-path="url(#clip722)" x1="345.181" y1="524.688" x2="297.181" y2="524.688" style="stroke:#000000; stroke-width:4; stroke-opacity:1"/>
<polyline clip-path="url(#clip722)" style="stroke:#3da44d; stroke-linecap:round; stroke-linejoin:round; stroke-width:4; stroke-opacity:1; fill:none" points="2293.58,1362.1 2011.81,1286.94 1730.04,1096.31 1448.27,716.525 1166.5,551.824 884.725,373.235 602.953,302.875 321.181,165.568 "/>
<path clip-path="url(#clip722)" d="M2293.58 1338.1 L2269.58 1386.1 L2317.58 1386.1 L2293.58 1338.1 Z" fill="#3da44d" fill-rule="evenodd" fill-opacity="1" stroke="#000000" stroke-opacity="1" stroke-width="3.2"/>
<path clip-path="url(#clip722)" d="M2011.81 1262.94 L1987.81 1310.94 L2035.81 1310.94 L2011.81 1262.94 Z" fill="#3da44d" fill-rule="evenodd" fill-opacity="1" stroke="#000000" stroke-opacity="1" stroke-width="3.2"/>
<path clip-path="url(#clip722)" d="M1730.04 1072.31 L1706.04 1120.31 L1754.04 1120.31 L1730.04 1072.31 Z" fill="#3da44d" fill-rule="evenodd" fill-opacity="1" stroke="#000000" stroke-opacity="1" stroke-width="3.2"/>
<path clip-path="url(#clip722)" d="M1448.27 692.525 L1424.27 740.525 L1472.27 740.525 L1448.27 692.525 Z" fill="#3da44d" fill-rule="evenodd" fill-opacity="1" stroke="#000000" stroke-opacity="1" stroke-width="3.2"/>
<path clip-path="url(#clip722)" d="M1166.5 527.824 L1142.5 575.824 L1190.5 575.824 L1166.5 527.824 Z" fill="#3da44d" fill-rule="evenodd" fill-opacity="1" stroke="#000000" stroke-opacity="1" stroke-width="3.2"/>
<path clip-path="url(#clip722)" d="M884.725 349.235 L860.725 397.235 L908.725 397.235 L884.725 349.235 Z" fill="#3da44d" fill-rule="evenodd" fill-opacity="1" stroke="#000000" stroke-opacity="1" stroke-width="3.2"/>
<path clip-path="url(#clip722)" d="M602.953 278.875 L578.953 326.875 L626.953 326.875 L602.953 278.875 Z" fill="#3da44d" fill-rule="evenodd" fill-opacity="1" stroke="#000000" stroke-opacity="1" stroke-width="3.2"/>
<path clip-path="url(#clip722)" d="M321.181 141.568 L297.181 189.568 L345.181 189.568 L321.181 141.568 Z" fill="#3da44d" fill-rule="evenodd" fill-opacity="1" stroke="#000000" stroke-opacity="1" stroke-width="3.2"/>
<polyline clip-path="url(#clip722)" style="stroke:#000000; stroke-linecap:round; stroke-linejoin:round; stroke-width:4; stroke-opacity:1; fill:none" points="2293.58,1362.11 2293.58,1362.1 "/>
<polyline clip-path="url(#clip722)" style="stroke:#000000; stroke-linecap:round; stroke-linejoin:round; stroke-width:4; stroke-opacity:1; fill:none" points="2011.81,1286.94 2011.81,1286.93 "/>
<polyline clip-path="url(#clip722)" style="stroke:#000000; stroke-linecap:round; stroke-linejoin:round; stroke-width:4; stroke-opacity:1; fill:none" points="1730.04,1096.33 1730.04,1096.29 "/>
<polyline clip-path="url(#clip722)" style="stroke:#000000; stroke-linecap:round; stroke-linejoin:round; stroke-width:4; stroke-opacity:1; fill:none" points="1448.27,716.551 1448.27,716.498 "/>
<polyline clip-path="url(#clip722)" style="stroke:#000000; stroke-linecap:round; stroke-linejoin:round; stroke-width:4; stroke-opacity:1; fill:none" points="1166.5,551.856 1166.5,551.792 "/>
<polyline clip-path="url(#clip722)" style="stroke:#000000; stroke-linecap:round; stroke-linejoin:round; stroke-width:4; stroke-opacity:1; fill:none" points="884.725,373.271 884.725,373.199 "/>
<polyline clip-path="url(#clip722)" style="stroke:#000000; stroke-linecap:round; stroke-linejoin:round; stroke-width:4; stroke-opacity:1; fill:none" points="602.953,302.914 602.953,302.837 "/>
<polyline clip-path="url(#clip722)" style="stroke:#000000; stroke-linecap:round; stroke-linejoin:round; stroke-width:4; stroke-opacity:1; fill:none" points="321.181,165.61 321.181,165.527 "/>
<line clip-path="url(#clip722)" x1="2317.58" y1="1362.11" x2="2269.58" y2="1362.11" style="stroke:#000000; stroke-width:4; stroke-opacity:1"/>
<line clip-path="url(#clip722)" x1="2317.58" y1="1362.1" x2="2269.58" y2="1362.1" style="stroke:#000000; stroke-width:4; stroke-opacity:1"/>
<line clip-path="url(#clip722)" x1="2035.81" y1="1286.94" x2="1987.81" y2="1286.94" style="stroke:#000000; stroke-width:4; stroke-opacity:1"/>
<line clip-path="url(#clip722)" x1="2035.81" y1="1286.93" x2="1987.81" y2="1286.93" style="stroke:#000000; stroke-width:4; stroke-opacity:1"/>
<line clip-path="url(#clip722)" x1="1754.04" y1="1096.33" x2="1706.04" y2="1096.33" style="stroke:#000000; stroke-width:4; stroke-opacity:1"/>
<line clip-path="url(#clip722)" x1="1754.04" y1="1096.29" x2="1706.04" y2="1096.29" style="stroke:#000000; stroke-width:4; stroke-opacity:1"/>
<line clip-path="url(#clip722)" x1="1472.27" y1="716.551" x2="1424.27" y2="716.551" style="stroke:#000000; stroke-width:4; stroke-opacity:1"/>
<line clip-path="url(#clip722)" x1="1472.27" y1="716.498" x2="1424.27" y2="716.498" style="stroke:#000000; stroke-width:4; stroke-opacity:1"/>
<line clip-path="url(#clip722)" x1="1190.5" y1="551.856" x2="1142.5" y2="551.856" style="stroke:#000000; stroke-width:4; stroke-opacity:1"/>
<line clip-path="url(#clip722)" x1="1190.5" y1="551.792" x2="1142.5" y2="551.792" style="stroke:#000000; stroke-width:4; stroke-opacity:1"/>
<line clip-path="url(#clip722)" x1="908.725" y1="373.271" x2="860.725" y2="373.271" style="stroke:#000000; stroke-width:4; stroke-opacity:1"/>
<line clip-path="url(#clip722)" x1="908.725" y1="373.199" x2="860.725" y2="373.199" style="stroke:#000000; stroke-width:4; stroke-opacity:1"/>
<line clip-path="url(#clip722)" x1="626.953" y1="302.914" x2="578.953" y2="302.914" style="stroke:#000000; stroke-width:4; stroke-opacity:1"/>
<line clip-path="url(#clip722)" x1="626.953" y1="302.837" x2="578.953" y2="302.837" style="stroke:#000000; stroke-width:4; stroke-opacity:1"/>
<line clip-path="url(#clip722)" x1="345.181" y1="165.61" x2="297.181" y2="165.61" style="stroke:#000000; stroke-width:4; stroke-opacity:1"/>
<line clip-path="url(#clip722)" x1="345.181" y1="165.527" x2="297.181" y2="165.527" style="stroke:#000000; stroke-width:4; stroke-opacity:1"/>
<polyline clip-path="url(#clip722)" style="stroke:#c271d2; stroke-linecap:round; stroke-linejoin:round; stroke-width:4; stroke-opacity:1; fill:none" points="2293.58,1356.18 2011.81,1241.7 1730.04,933.378 1448.27,715.025 1166.5,539.947 884.725,362.493 602.953,280.952 321.181,286.501 "/>
<path clip-path="url(#clip722)" d="M2293.58 1332.18 L2269.58 1380.18 L2317.58 1380.18 L2293.58 1332.18 Z" fill="#c271d2" fill-rule="evenodd" fill-opacity="1" stroke="#000000" stroke-opacity="1" stroke-width="3.2"/>
<path clip-path="url(#clip722)" d="M2011.81 1217.7 L1987.81 1265.7 L2035.81 1265.7 L2011.81 1217.7 Z" fill="#c271d2" fill-rule="evenodd" fill-opacity="1" stroke="#000000" stroke-opacity="1" stroke-width="3.2"/>
<path clip-path="url(#clip722)" d="M1730.04 909.378 L1706.04 957.378 L1754.04 957.378 L1730.04 909.378 Z" fill="#c271d2" fill-rule="evenodd" fill-opacity="1" stroke="#000000" stroke-opacity="1" stroke-width="3.2"/>
<path clip-path="url(#clip722)" d="M1448.27 691.025 L1424.27 739.025 L1472.27 739.025 L1448.27 691.025 Z" fill="#c271d2" fill-rule="evenodd" fill-opacity="1" stroke="#000000" stroke-opacity="1" stroke-width="3.2"/>
<path clip-path="url(#clip722)" d="M1166.5 515.947 L1142.5 563.947 L1190.5 563.947 L1166.5 515.947 Z" fill="#c271d2" fill-rule="evenodd" fill-opacity="1" stroke="#000000" stroke-opacity="1" stroke-width="3.2"/>
<path clip-path="url(#clip722)" d="M884.725 338.493 L860.725 386.493 L908.725 386.493 L884.725 338.493 Z" fill="#c271d2" fill-rule="evenodd" fill-opacity="1" stroke="#000000" stroke-opacity="1" stroke-width="3.2"/>
<path clip-path="url(#clip722)" d="M602.953 256.952 L578.953 304.952 L626.953 304.952 L602.953 256.952 Z" fill="#c271d2" fill-rule="evenodd" fill-opacity="1" stroke="#000000" stroke-opacity="1" stroke-width="3.2"/>
<path clip-path="url(#clip722)" d="M321.181 262.501 L297.181 310.501 L345.181 310.501 L321.181 262.501 Z" fill="#c271d2" fill-rule="evenodd" fill-opacity="1" stroke="#000000" stroke-opacity="1" stroke-width="3.2"/>
<polyline clip-path="url(#clip722)" style="stroke:#000000; stroke-linecap:round; stroke-linejoin:round; stroke-width:4; stroke-opacity:1; fill:none" points="2293.58,1356.19 2293.58,1356.18 "/>
<polyline clip-path="url(#clip722)" style="stroke:#000000; stroke-linecap:round; stroke-linejoin:round; stroke-width:4; stroke-opacity:1; fill:none" points="2011.81,1241.71 2011.81,1241.69 "/>
<polyline clip-path="url(#clip722)" style="stroke:#000000; stroke-linecap:round; stroke-linejoin:round; stroke-width:4; stroke-opacity:1; fill:none" points="1730.04,933.399 1730.04,933.357 "/>
<polyline clip-path="url(#clip722)" style="stroke:#000000; stroke-linecap:round; stroke-linejoin:round; stroke-width:4; stroke-opacity:1; fill:none" points="1448.27,715.053 1448.27,714.998 "/>
<polyline clip-path="url(#clip722)" style="stroke:#000000; stroke-linecap:round; stroke-linejoin:round; stroke-width:4; stroke-opacity:1; fill:none" points="1166.5,539.979 1166.5,539.914 "/>
<polyline clip-path="url(#clip722)" style="stroke:#000000; stroke-linecap:round; stroke-linejoin:round; stroke-width:4; stroke-opacity:1; fill:none" points="884.725,362.528 884.725,362.457 "/>
<polyline clip-path="url(#clip722)" style="stroke:#000000; stroke-linecap:round; stroke-linejoin:round; stroke-width:4; stroke-opacity:1; fill:none" points="602.953,280.991 602.953,280.913 "/>
<polyline clip-path="url(#clip722)" style="stroke:#000000; stroke-linecap:round; stroke-linejoin:round; stroke-width:4; stroke-opacity:1; fill:none" points="321.181,286.542 321.181,286.46 "/>
<line clip-path="url(#clip722)" x1="2317.58" y1="1356.19" x2="2269.58" y2="1356.19" style="stroke:#000000; stroke-width:4; stroke-opacity:1"/>
<line clip-path="url(#clip722)" x1="2317.58" y1="1356.18" x2="2269.58" y2="1356.18" style="stroke:#000000; stroke-width:4; stroke-opacity:1"/>
<line clip-path="url(#clip722)" x1="2035.81" y1="1241.71" x2="1987.81" y2="1241.71" style="stroke:#000000; stroke-width:4; stroke-opacity:1"/>
<line clip-path="url(#clip722)" x1="2035.81" y1="1241.69" x2="1987.81" y2="1241.69" style="stroke:#000000; stroke-width:4; stroke-opacity:1"/>
<line clip-path="url(#clip722)" x1="1754.04" y1="933.399" x2="1706.04" y2="933.399" style="stroke:#000000; stroke-width:4; stroke-opacity:1"/>
<line clip-path="url(#clip722)" x1="1754.04" y1="933.357" x2="1706.04" y2="933.357" style="stroke:#000000; stroke-width:4; stroke-opacity:1"/>
<line clip-path="url(#clip722)" x1="1472.27" y1="715.053" x2="1424.27" y2="715.053" style="stroke:#000000; stroke-width:4; stroke-opacity:1"/>
<line clip-path="url(#clip722)" x1="1472.27" y1="714.998" x2="1424.27" y2="714.998" style="stroke:#000000; stroke-width:4; stroke-opacity:1"/>
<line clip-path="url(#clip722)" x1="1190.5" y1="539.979" x2="1142.5" y2="539.979" style="stroke:#000000; stroke-width:4; stroke-opacity:1"/>
<line clip-path="url(#clip722)" x1="1190.5" y1="539.914" x2="1142.5" y2="539.914" style="stroke:#000000; stroke-width:4; stroke-opacity:1"/>
<line clip-path="url(#clip722)" x1="908.725" y1="362.528" x2="860.725" y2="362.528" style="stroke:#000000; stroke-width:4; stroke-opacity:1"/>
<line clip-path="url(#clip722)" x1="908.725" y1="362.457" x2="860.725" y2="362.457" style="stroke:#000000; stroke-width:4; stroke-opacity:1"/>
<line clip-path="url(#clip722)" x1="626.953" y1="280.991" x2="578.953" y2="280.991" style="stroke:#000000; stroke-width:4; stroke-opacity:1"/>
<line clip-path="url(#clip722)" x1="626.953" y1="280.913" x2="578.953" y2="280.913" style="stroke:#000000; stroke-width:4; stroke-opacity:1"/>
<line clip-path="url(#clip722)" x1="345.181" y1="286.542" x2="297.181" y2="286.542" style="stroke:#000000; stroke-width:4; stroke-opacity:1"/>
<line clip-path="url(#clip722)" x1="345.181" y1="286.46" x2="297.181" y2="286.46" style="stroke:#000000; stroke-width:4; stroke-opacity:1"/>
<path clip-path="url(#clip720)" d="M1842.32 546.277 L2283.06 546.277 L2283.06 92.6766 L1842.32 92.6766  Z" fill="#ffffff" fill-rule="evenodd" fill-opacity="1"/>
<polyline clip-path="url(#clip720)" style="stroke:#000000; stroke-linecap:round; stroke-linejoin:round; stroke-width:4; stroke-opacity:0; fill:none" points="1842.32,546.277 2283.06,546.277 2283.06,92.6766 1842.32,92.6766 1842.32,546.277 "/>
<polyline clip-path="url(#clip720)" style="stroke:#009af9; stroke-linecap:round; stroke-linejoin:round; stroke-width:7; stroke-opacity:1; fill:none" points="1865.55,183.397 2004.94,183.397 "/>
<path clip-path="url(#clip720)" d="M1935.24 171.105 L1922.95 195.688 L1947.54 195.688 L1935.24 171.105 Z" fill="#009af9" fill-rule="evenodd" fill-opacity="1" stroke="#000000" stroke-opacity="1" stroke-width="5.51385"/>
<path clip-path="url(#clip720)" d="M2085.26 154.706 Q2085.26 155.485 2085.1 156.141 L2082.8 170.733 Q2082.68 171.84 2082.44 172.249 Q2082.23 172.659 2081.58 172.659 Q2080.55 172.659 2080.55 171.594 Q2080.55 170.979 2080.8 169.995 Q2081.49 165.363 2081.49 163.273 Q2081.49 161.879 2081.21 160.854 Q2080.96 159.789 2080.55 159.051 Q2080.18 158.313 2079.32 157.821 Q2078.46 157.329 2077.64 157.042 Q2076.82 156.755 2075.34 156.632 Q2073.87 156.469 2072.6 156.428 Q2071.33 156.387 2069.24 156.387 Q2064.69 156.387 2063.95 156.551 Q2063.17 156.755 2062.76 157.37 Q2062.39 157.944 2061.98 159.666 L2050.83 204.221 L2050.51 205.984 Q2050.51 206.967 2051.12 207.295 Q2051.73 207.623 2053.62 207.828 Q2056.33 208.033 2058.99 208.033 Q2059.07 208.033 2059.24 208.033 Q2060.14 208.033 2060.51 208.074 Q2060.88 208.074 2061.24 208.156 Q2061.61 208.238 2061.7 208.443 Q2061.82 208.607 2061.82 208.935 Q2061.82 209.714 2061.49 210.123 Q2061.16 210.492 2060.83 210.574 Q2060.55 210.615 2059.97 210.615 Q2058.83 210.615 2056.37 210.533 Q2053.91 210.451 2052.68 210.451 L2045.71 210.369 L2038.58 210.451 Q2037.47 210.451 2035.13 210.533 Q2032.8 210.615 2031.69 210.615 Q2030.26 210.615 2030.26 209.591 Q2030.26 208.443 2030.79 208.238 Q2031.36 208.033 2033.78 208.033 Q2037.18 208.033 2039.03 207.869 Q2040.87 207.705 2041.86 207.131 Q2042.88 206.557 2043.17 205.984 Q2043.45 205.369 2043.78 203.975 L2055.05 159.174 Q2055.38 158.19 2055.38 157.411 Q2055.38 157.001 2055.26 156.837 Q2055.18 156.673 2054.65 156.551 Q2054.11 156.387 2053.01 156.387 L2049.73 156.387 Q2046.37 156.387 2044.27 156.551 Q2042.23 156.673 2040.26 157.288 Q2038.33 157.903 2037.18 158.764 Q2036.08 159.625 2034.85 161.387 Q2033.62 163.15 2032.72 165.281 Q2031.86 167.413 2030.63 170.897 Q2030.22 172.044 2029.97 172.372 Q2029.76 172.659 2029.19 172.659 Q2028.78 172.659 2028.45 172.413 Q2028.17 172.126 2028.17 171.758 Q2028.58 170.405 2028.66 170.241 L2033.7 155.444 Q2034.11 154.255 2034.48 154.05 Q2034.89 153.804 2036.4 153.804 L2082.97 153.804 Q2083.71 153.804 2083.95 153.804 Q2084.2 153.804 2084.61 153.886 Q2085.02 153.968 2085.14 154.173 Q2085.26 154.378 2085.26 154.706 Z" fill="#000000" fill-rule="nonzero" fill-opacity="1" /><path clip-path="url(#clip720)" d="M2100.01 197.868 Q2100.09 196.843 2101.69 196.843 L2153.13 196.843 Q2155.55 196.843 2155.59 197.786 Q2155.59 198.81 2153.3 198.769 L2102.26 198.769 Q2100.01 198.81 2100.01 197.868 M2100.01 181.472 Q2100.01 180.447 2101.77 180.488 L2153.05 180.488 Q2155.55 180.488 2155.59 181.472 Q2155.59 182.415 2153.46 182.415 L2101.69 182.415 Q2100.01 182.415 2100.01 181.472 Z" fill="#000000" fill-rule="nonzero" fill-opacity="1" /><path clip-path="url(#clip720)" d="M2187.97 183.767 Q2187.97 171.43 2191.08 164.707 Q2195.43 154.706 2205.68 154.706 Q2207.85 154.706 2210.1 155.321 Q2212.4 155.895 2215.27 158.149 Q2218.18 160.404 2219.94 164.093 Q2223.3 171.225 2223.3 183.767 Q2223.3 196.023 2220.19 202.704 Q2215.64 212.46 2205.59 212.46 Q2201.82 212.46 2197.97 210.533 Q2194.16 208.607 2191.74 203.975 Q2187.97 197.048 2187.97 183.767 M2194.94 182.743 Q2194.94 195.408 2195.84 200.45 Q2196.86 205.902 2199.65 208.279 Q2202.48 210.615 2205.59 210.615 Q2208.96 210.615 2211.74 208.115 Q2214.57 205.574 2215.43 200.122 Q2216.37 194.753 2216.33 182.743 Q2216.33 171.061 2215.51 166.388 Q2214.41 160.936 2211.46 158.764 Q2208.55 156.551 2205.59 156.551 Q2204.49 156.551 2203.3 156.878 Q2202.15 157.206 2200.47 158.149 Q2198.79 159.092 2197.48 161.428 Q2196.21 163.765 2195.59 167.29 Q2194.94 171.84 2194.94 182.743 Z" fill="#000000" fill-rule="nonzero" fill-opacity="1" /><polyline clip-path="url(#clip720)" style="stroke:#e26f46; stroke-linecap:round; stroke-linejoin:round; stroke-width:7; stroke-opacity:1; fill:none" points="1865.55,274.117 2004.94,274.117 "/>
<path clip-path="url(#clip720)" d="M1935.24 261.825 L1922.95 286.408 L1947.54 286.408 L1935.24 261.825 Z" fill="#e26f46" fill-rule="evenodd" fill-opacity="1" stroke="#000000" stroke-opacity="1" stroke-width="5.51385"/>
<path clip-path="url(#clip720)" d="M2073.87 247.21 Q2073.87 248.276 2073.42 250.325 Q2071.98 256.105 2066.61 260.081 Q2065.71 260.819 2064.11 261.761 Q2066.04 263.032 2067.72 265.368 Q2070.22 269.221 2070.22 274.427 Q2070.22 276.845 2069.57 279.797 Q2067.72 286.642 2061.24 291.561 Q2054.73 296.356 2046.98 296.356 Q2042.8 296.356 2039.93 294.143 Q2037.1 291.888 2035.99 288.117 L2030.3 311.112 Q2030.17 311.686 2029.44 311.686 L2029.03 311.686 Q2028.17 311.686 2028.17 310.702 L2041.12 259.056 Q2041.98 255.572 2043.37 252.293 Q2044.77 249.014 2046.69 246.062 Q2048.66 243.111 2050.92 240.939 Q2053.17 238.725 2055.96 237.455 Q2058.74 236.143 2061.7 236.143 Q2067.88 236.143 2071.41 240.365 Q2073.87 243.357 2073.87 247.21 M2069.16 245.734 Q2069.16 243.193 2068.13 241.431 Q2066.04 238.069 2061.61 238.069 Q2058.95 238.069 2056.41 239.299 Q2053.91 240.488 2051.9 242.537 Q2049.89 244.587 2048.17 247.374 Q2046.45 250.161 2045.18 253.195 Q2043.95 256.187 2043.13 259.466 L2038.09 279.797 Q2037.59 281.969 2037.59 283.896 Q2037.59 288.486 2040.13 291.479 Q2042.68 294.471 2047.06 294.471 Q2052.88 294.471 2057.88 290.126 Q2062.23 286.232 2064.03 279.387 Q2065.06 275.083 2065.06 272.091 Q2065.06 268.811 2063.87 266.27 Q2063.01 264.221 2061.33 262.991 Q2058.21 264.098 2055.05 264.098 Q2053.54 264.098 2052.72 264.057 Q2051.94 264.016 2050.79 263.852 Q2049.69 263.688 2049.15 263.237 Q2048.66 262.786 2048.66 262.089 Q2048.66 261.679 2048.74 261.515 Q2048.91 260.86 2049.44 260.409 Q2049.97 259.958 2050.59 259.753 Q2051.2 259.507 2052.23 259.384 Q2053.29 259.261 2053.99 259.261 Q2054.69 259.22 2055.87 259.22 Q2058.66 259.22 2061.49 260.327 Q2062.56 259.753 2063.7 258.728 Q2067.35 255.326 2068.58 249.915 Q2069.16 247.907 2069.16 245.734 M2058.83 261.597 Q2057.1 261.146 2055.79 261.146 Q2051 261.146 2050.75 261.925 Q2050.75 262.007 2050.92 262.089 Q2051.08 262.13 2051.45 262.171 Q2051.86 262.171 2052.19 262.212 Q2052.55 262.253 2053.17 262.253 Q2053.78 262.253 2054.11 262.253 Q2054.48 262.253 2055.14 262.253 Q2056.78 262.253 2058.83 261.597 Z" fill="#000000" fill-rule="nonzero" fill-opacity="1" /><path clip-path="url(#clip720)" d="M2098.51 282.666 Q2098.59 281.641 2100.19 281.641 L2151.63 281.641 Q2154.05 281.641 2154.09 282.584 Q2154.09 283.609 2151.79 283.568 L2100.76 283.568 Q2098.51 283.609 2098.51 282.666 M2098.51 266.27 Q2098.51 265.245 2100.27 265.286 L2151.55 265.286 Q2154.05 265.286 2154.09 266.27 Q2154.09 267.213 2151.96 267.213 L2100.19 267.213 Q2098.51 267.213 2098.51 266.27 Z" fill="#000000" fill-rule="nonzero" fill-opacity="1" /><path clip-path="url(#clip720)" d="M2186.47 281.887 Q2186.47 279.387 2187.82 278.444 Q2189.17 277.46 2190.61 277.46 Q2192.53 277.46 2193.64 278.69 Q2194.79 279.879 2194.79 281.559 Q2194.79 283.24 2193.64 284.469 Q2192.53 285.658 2190.61 285.658 Q2189.66 285.658 2189.17 285.494 Q2190.28 289.347 2193.64 292.134 Q2197.04 294.922 2201.51 294.922 Q2207.13 294.922 2210.49 289.47 Q2212.5 285.945 2212.5 277.952 Q2212.5 270.902 2210.98 267.377 Q2208.64 262.007 2203.85 262.007 Q2197.04 262.007 2193.03 267.869 Q2192.53 268.607 2191.96 268.647 Q2191.14 268.647 2190.94 268.197 Q2190.77 267.705 2190.77 266.434 L2190.77 241.595 Q2190.77 239.586 2191.59 239.586 Q2191.92 239.586 2192.62 239.832 Q2197.9 242.168 2203.76 242.209 Q2209.79 242.209 2215.2 239.75 Q2215.61 239.504 2215.86 239.504 Q2216.68 239.504 2216.72 240.447 Q2216.72 240.775 2216.02 241.759 Q2215.36 242.701 2213.93 243.972 Q2212.5 245.202 2210.65 246.39 Q2208.81 247.579 2206.1 248.399 Q2203.44 249.178 2200.49 249.178 Q2196.96 249.178 2193.35 248.071 L2193.35 264.426 Q2197.7 260.163 2204.01 260.163 Q2210.73 260.163 2215.36 265.573 Q2220 270.984 2220 278.526 Q2220 286.437 2214.5 291.847 Q2209.05 297.258 2201.67 297.258 Q2194.95 297.258 2190.69 292.462 Q2186.47 287.667 2186.47 281.887 Z" fill="#000000" fill-rule="nonzero" fill-opacity="1" /><polyline clip-path="url(#clip720)" style="stroke:#3da44d; stroke-linecap:round; stroke-linejoin:round; stroke-width:7; stroke-opacity:1; fill:none" points="1865.55,364.837 2004.94,364.837 "/>
<path clip-path="url(#clip720)" d="M1935.24 352.545 L1922.95 377.128 L1947.54 377.128 L1935.24 352.545 Z" fill="#3da44d" fill-rule="evenodd" fill-opacity="1" stroke="#000000" stroke-opacity="1" stroke-width="5.51385"/>
<path clip-path="url(#clip720)" d="M2073.87 337.93 Q2073.87 338.996 2073.42 341.045 Q2071.98 346.825 2066.61 350.801 Q2065.71 351.539 2064.11 352.481 Q2066.04 353.752 2067.72 356.088 Q2070.22 359.941 2070.22 365.147 Q2070.22 367.565 2069.57 370.517 Q2067.72 377.362 2061.24 382.281 Q2054.73 387.076 2046.98 387.076 Q2042.8 387.076 2039.93 384.863 Q2037.1 382.608 2035.99 378.837 L2030.3 401.832 Q2030.17 402.406 2029.44 402.406 L2029.03 402.406 Q2028.17 402.406 2028.17 401.422 L2041.12 349.776 Q2041.98 346.292 2043.37 343.013 Q2044.77 339.734 2046.69 336.782 Q2048.66 333.831 2050.92 331.659 Q2053.17 329.445 2055.96 328.175 Q2058.74 326.863 2061.7 326.863 Q2067.88 326.863 2071.41 331.085 Q2073.87 334.077 2073.87 337.93 M2069.16 336.454 Q2069.16 333.913 2068.13 332.151 Q2066.04 328.789 2061.61 328.789 Q2058.95 328.789 2056.41 330.019 Q2053.91 331.208 2051.9 333.257 Q2049.89 335.307 2048.17 338.094 Q2046.45 340.881 2045.18 343.915 Q2043.95 346.907 2043.13 350.186 L2038.09 370.517 Q2037.59 372.689 2037.59 374.616 Q2037.59 379.206 2040.13 382.199 Q2042.68 385.191 2047.06 385.191 Q2052.88 385.191 2057.88 380.846 Q2062.23 376.952 2064.03 370.107 Q2065.06 365.803 2065.06 362.811 Q2065.06 359.531 2063.87 356.99 Q2063.01 354.941 2061.33 353.711 Q2058.21 354.818 2055.05 354.818 Q2053.54 354.818 2052.72 354.777 Q2051.94 354.736 2050.79 354.572 Q2049.69 354.408 2049.15 353.957 Q2048.66 353.506 2048.66 352.809 Q2048.66 352.399 2048.74 352.235 Q2048.91 351.58 2049.44 351.129 Q2049.97 350.678 2050.59 350.473 Q2051.2 350.227 2052.23 350.104 Q2053.29 349.981 2053.99 349.981 Q2054.69 349.94 2055.87 349.94 Q2058.66 349.94 2061.49 351.047 Q2062.56 350.473 2063.7 349.448 Q2067.35 346.046 2068.58 340.635 Q2069.16 338.627 2069.16 336.454 M2058.83 352.317 Q2057.1 351.866 2055.79 351.866 Q2051 351.866 2050.75 352.645 Q2050.75 352.727 2050.92 352.809 Q2051.08 352.85 2051.45 352.891 Q2051.86 352.891 2052.19 352.932 Q2052.55 352.973 2053.17 352.973 Q2053.78 352.973 2054.11 352.973 Q2054.48 352.973 2055.14 352.973 Q2056.78 352.973 2058.83 352.317 Z" fill="#000000" fill-rule="nonzero" fill-opacity="1" /><path clip-path="url(#clip720)" d="M2098.51 373.386 Q2098.59 372.361 2100.19 372.361 L2151.63 372.361 Q2154.05 372.361 2154.09 373.304 Q2154.09 374.329 2151.79 374.288 L2100.76 374.288 Q2098.51 374.329 2098.51 373.386 M2098.51 356.99 Q2098.51 355.965 2100.27 356.006 L2151.55 356.006 Q2154.05 356.006 2154.09 356.99 Q2154.09 357.933 2151.96 357.933 L2100.19 357.933 Q2098.51 357.933 2098.51 356.99 Z" fill="#000000" fill-rule="nonzero" fill-opacity="1" /><path clip-path="url(#clip720)" d="M2186.47 373.468 Q2186.47 364.081 2198.56 358.015 Q2193.35 354.49 2192.41 353.465 Q2188.72 349.366 2188.72 344.242 Q2188.72 338.381 2193.15 334.323 Q2197.62 330.224 2203.93 330.224 Q2209.95 330.224 2214.5 333.708 Q2219.05 337.192 2219.05 342.726 Q2219.05 350.514 2208.89 355.76 Q2215.61 359.941 2217.21 361.704 Q2221.31 366.254 2221.31 372.033 Q2221.31 378.755 2216.14 383.387 Q2210.98 387.978 2203.85 387.978 Q2196.88 387.978 2191.67 383.92 Q2186.47 379.862 2186.47 373.468 M2190.65 373.468 Q2190.65 378.673 2194.54 382.158 Q2198.48 385.642 2203.93 385.642 Q2209.22 385.642 2213.15 382.608 Q2217.13 379.575 2217.13 375.066 Q2217.13 373.304 2216.51 371.787 Q2215.94 370.271 2214.75 369.082 Q2213.6 367.852 2212.86 367.319 Q2212.17 366.746 2210.81 365.803 L2200.49 359.286 Q2190.65 364.737 2190.65 373.468 M2192.41 340.963 Q2192.41 344.98 2196.63 347.768 L2207.04 354.49 Q2215.36 349.612 2215.36 342.726 Q2215.36 338.258 2211.96 335.307 Q2208.56 332.315 2203.85 332.315 Q2199.21 332.315 2195.81 334.774 Q2192.41 337.192 2192.41 340.963 Z" fill="#000000" fill-rule="nonzero" fill-opacity="1" /><polyline clip-path="url(#clip720)" style="stroke:#c271d2; stroke-linecap:round; stroke-linejoin:round; stroke-width:7; stroke-opacity:1; fill:none" points="1865.55,455.557 2004.94,455.557 "/>
<path clip-path="url(#clip720)" d="M1935.24 443.265 L1922.95 467.848 L1947.54 467.848 L1935.24 443.265 Z" fill="#c271d2" fill-rule="evenodd" fill-opacity="1" stroke="#000000" stroke-opacity="1" stroke-width="5.51385"/>
<path clip-path="url(#clip720)" d="M2073.87 428.65 Q2073.87 429.716 2073.42 431.765 Q2071.98 437.545 2066.61 441.521 Q2065.71 442.259 2064.11 443.201 Q2066.04 444.472 2067.72 446.808 Q2070.22 450.661 2070.22 455.867 Q2070.22 458.285 2069.57 461.237 Q2067.72 468.082 2061.24 473.001 Q2054.73 477.796 2046.98 477.796 Q2042.8 477.796 2039.93 475.583 Q2037.1 473.328 2035.99 469.557 L2030.3 492.552 Q2030.17 493.126 2029.44 493.126 L2029.03 493.126 Q2028.17 493.126 2028.17 492.142 L2041.12 440.496 Q2041.98 437.012 2043.37 433.733 Q2044.77 430.454 2046.69 427.502 Q2048.66 424.551 2050.92 422.379 Q2053.17 420.165 2055.96 418.895 Q2058.74 417.583 2061.7 417.583 Q2067.88 417.583 2071.41 421.805 Q2073.87 424.797 2073.87 428.65 M2069.16 427.174 Q2069.16 424.633 2068.13 422.871 Q2066.04 419.509 2061.61 419.509 Q2058.95 419.509 2056.41 420.739 Q2053.91 421.928 2051.9 423.977 Q2049.89 426.027 2048.17 428.814 Q2046.45 431.601 2045.18 434.635 Q2043.95 437.627 2043.13 440.906 L2038.09 461.237 Q2037.59 463.409 2037.59 465.336 Q2037.59 469.926 2040.13 472.919 Q2042.68 475.911 2047.06 475.911 Q2052.88 475.911 2057.88 471.566 Q2062.23 467.672 2064.03 460.827 Q2065.06 456.523 2065.06 453.531 Q2065.06 450.251 2063.87 447.71 Q2063.01 445.661 2061.33 444.431 Q2058.21 445.538 2055.05 445.538 Q2053.54 445.538 2052.72 445.497 Q2051.94 445.456 2050.79 445.292 Q2049.69 445.128 2049.15 444.677 Q2048.66 444.226 2048.66 443.529 Q2048.66 443.119 2048.74 442.955 Q2048.91 442.3 2049.44 441.849 Q2049.97 441.398 2050.59 441.193 Q2051.2 440.947 2052.23 440.824 Q2053.29 440.701 2053.99 440.701 Q2054.69 440.66 2055.87 440.66 Q2058.66 440.66 2061.49 441.767 Q2062.56 441.193 2063.7 440.168 Q2067.35 436.766 2068.58 431.355 Q2069.16 429.347 2069.16 427.174 M2058.83 443.037 Q2057.1 442.586 2055.79 442.586 Q2051 442.586 2050.75 443.365 Q2050.75 443.447 2050.92 443.529 Q2051.08 443.57 2051.45 443.611 Q2051.86 443.611 2052.19 443.652 Q2052.55 443.693 2053.17 443.693 Q2053.78 443.693 2054.11 443.693 Q2054.48 443.693 2055.14 443.693 Q2056.78 443.693 2058.83 443.037 Z" fill="#000000" fill-rule="nonzero" fill-opacity="1" /><path clip-path="url(#clip720)" d="M2098.51 464.106 Q2098.59 463.081 2100.19 463.081 L2151.63 463.081 Q2154.05 463.081 2154.09 464.024 Q2154.09 465.049 2151.79 465.008 L2100.76 465.008 Q2098.51 465.049 2098.51 464.106 M2098.51 447.71 Q2098.51 446.685 2100.27 446.726 L2151.55 446.726 Q2154.05 446.726 2154.09 447.71 Q2154.09 448.653 2151.96 448.653 L2100.19 448.653 Q2098.51 448.653 2098.51 447.71 Z" fill="#000000" fill-rule="nonzero" fill-opacity="1" /><path clip-path="url(#clip720)" d="M2186.47 428.937 L2186.47 426.314 Q2196.55 426.314 2201.76 420.944 Q2203.19 420.944 2203.44 421.272 Q2203.68 421.6 2203.68 423.117 L2203.68 470.213 Q2203.68 472.714 2204.91 473.492 Q2206.14 474.271 2211.51 474.271 L2214.18 474.271 L2214.18 476.853 Q2211.22 476.608 2200.57 476.608 Q2189.91 476.608 2187 476.853 L2187 474.271 L2189.66 474.271 Q2194.95 474.271 2196.22 473.533 Q2197.49 472.755 2197.49 470.213 L2197.49 426.724 Q2193.11 428.937 2186.47 428.937 Z" fill="#000000" fill-rule="nonzero" fill-opacity="1" /><path clip-path="url(#clip720)" d="M2218.26 450.006 Q2218.26 437.668 2221.38 430.946 Q2225.72 420.944 2235.97 420.944 Q2238.14 420.944 2240.4 421.559 Q2242.69 422.133 2245.56 424.387 Q2248.47 426.642 2250.24 430.331 Q2253.6 437.463 2253.6 450.006 Q2253.6 462.261 2250.48 468.943 Q2245.93 478.698 2235.89 478.698 Q2232.12 478.698 2228.26 476.772 Q2224.45 474.845 2222.03 470.213 Q2218.26 463.286 2218.26 450.006 M2225.23 448.981 Q2225.23 461.646 2226.13 466.688 Q2227.16 472.14 2229.95 474.517 Q2232.77 476.853 2235.89 476.853 Q2239.25 476.853 2242.04 474.353 Q2244.87 471.812 2245.73 466.36 Q2246.67 460.991 2246.63 448.981 Q2246.63 437.299 2245.81 432.626 Q2244.7 427.174 2241.75 425.002 Q2238.84 422.789 2235.89 422.789 Q2234.78 422.789 2233.59 423.117 Q2232.45 423.444 2230.77 424.387 Q2229.08 425.33 2227.77 427.666 Q2226.5 430.003 2225.89 433.528 Q2225.23 438.078 2225.23 448.981 Z" fill="#000000" fill-rule="nonzero" fill-opacity="1" /></svg>
