<?xml version="1.0" encoding="utf-8"?>
<svg xmlns="http://www.w3.org/2000/svg" xmlns:xlink="http://www.w3.org/1999/xlink" width="600" height="400" viewBox="0 0 2400 1600">
<defs>
  <clipPath id="clip590">
    <rect x="0" y="0" width="2400" height="1600"/>
  </clipPath>
</defs>
<path clip-path="url(#clip590)" d="M0 1600 L2400 1600 L2400 0 L0 0  Z" fill="#ffffff" fill-rule="evenodd" fill-opacity="1"/>
<defs>
  <clipPath id="clip591">
    <rect x="480" y="0" width="1681" height="1600"/>
  </clipPath>
</defs>
<path clip-path="url(#clip590)" d="M262.719 1410.22 L2352.76 1410.22 L2352.76 47.2441 L262.719 47.2441  Z" fill="#ffffff" fill-rule="evenodd" fill-opacity="1"/>
<defs>
  <clipPath id="clip592">
    <rect x="262" y="47" width="2091" height="1364"/>
  </clipPath>
</defs>
<polyline clip-path="url(#clip590)" style="stroke:#000000; stroke-linecap:round; stroke-linejoin:round; stroke-width:4; stroke-opacity:1; fill:none" points="262.719,1410.22 2352.76,1410.22 "/>
<polyline clip-path="url(#clip590)" style="stroke:#000000; stroke-linecap:round; stroke-linejoin:round; stroke-width:4; stroke-opacity:1; fill:none" points="262.719,47.2441 2352.76,47.2441 "/>
<polyline clip-path="url(#clip590)" style="stroke:#000000; stroke-linecap:round; stroke-linejoin:round; stroke-width:4; stroke-opacity:1; fill:none" points="321.871,1410.22 321.871,1391.32 "/>
<polyline clip-path="url(#clip590)" style="stroke:#000000; stroke-linecap:round; stroke-linejoin:round; stroke-width:4; stroke-opacity:1; fill:none" points="885.223,1410.22 885.223,1391.32 "/>
<polyline clip-path="url(#clip590)" style="stroke:#000000; stroke-linecap:round; stroke-linejoin:round; stroke-width:4; stroke-opacity:1; fill:none" points="1448.58,1410.22 1448.58,1391.32 "/>
<polyline clip-path="url(#clip590)" style="stroke:#000000; stroke-linecap:round; stroke-linejoin:round; stroke-width:4; stroke-opacity:1; fill:none" points="2011.93,1410.22 2011.93,1391.32 "/>
<path clip-path="url(#clip590)" d="M326.349 1466.71 Q326.719 1467.08 326.719 1467.61 Q326.719 1468.13 326.349 1468.51 Q325.978 1468.88 325.453 1468.88 L285.866 1468.88 Q285.341 1468.88 284.97 1468.51 Q284.6 1468.13 284.6 1467.61 Q284.6 1467.08 284.97 1466.71 Q285.341 1466.34 285.866 1466.34 L325.453 1466.34 Q325.978 1466.34 326.349 1466.71 Z" fill="#000000" fill-rule="nonzero" fill-opacity="1" /><path clip-path="url(#clip590)" d="M332.895 1473.88 Q332.895 1466.81 342.004 1462.24 Q338.083 1459.58 337.372 1458.81 Q334.593 1455.72 334.593 1451.86 Q334.593 1447.45 337.928 1444.39 Q341.294 1441.3 346.05 1441.3 Q350.589 1441.3 354.016 1443.93 Q357.444 1446.55 357.444 1450.72 Q357.444 1456.59 349.786 1460.54 Q354.85 1463.69 356.054 1465.02 Q359.142 1468.44 359.142 1472.8 Q359.142 1477.86 355.252 1481.35 Q351.361 1484.81 345.988 1484.81 Q340.738 1484.81 336.817 1481.75 Q332.895 1478.7 332.895 1473.88 M336.045 1473.88 Q336.045 1477.8 338.978 1480.42 Q341.943 1483.05 346.05 1483.05 Q350.033 1483.05 352.997 1480.76 Q355.993 1478.48 355.993 1475.08 Q355.993 1473.75 355.529 1472.61 Q355.097 1471.47 354.202 1470.57 Q353.337 1469.65 352.781 1469.25 Q352.256 1468.81 351.237 1468.1 L343.456 1463.19 Q336.045 1467.3 336.045 1473.88 M337.372 1449.39 Q337.372 1452.42 340.553 1454.52 L348.396 1459.58 Q354.665 1455.91 354.665 1450.72 Q354.665 1447.35 352.102 1445.13 Q349.539 1442.88 345.988 1442.88 Q342.498 1442.88 339.935 1444.73 Q337.372 1446.55 337.372 1449.39 Z" fill="#000000" fill-rule="nonzero" fill-opacity="1" /><path clip-path="url(#clip590)" d="M889.701 1466.71 Q890.071 1467.08 890.071 1467.61 Q890.071 1468.13 889.701 1468.51 Q889.33 1468.88 888.805 1468.88 L849.218 1468.88 Q848.693 1468.88 848.323 1468.51 Q847.952 1468.13 847.952 1467.61 Q847.952 1467.08 848.323 1466.71 Q848.693 1466.34 849.218 1466.34 L888.805 1466.34 Q889.33 1466.34 889.701 1466.71 Z" fill="#000000" fill-rule="nonzero" fill-opacity="1" /><path clip-path="url(#clip590)" d="M896.247 1463.44 Q896.247 1453.5 901.311 1447.41 Q906.376 1441.3 912.891 1441.3 Q916.689 1441.3 918.789 1443.25 Q920.92 1445.16 920.92 1448.12 Q920.92 1449.76 919.962 1450.47 Q919.005 1451.18 918.017 1451.18 Q916.875 1451.18 915.979 1450.41 Q915.084 1449.64 915.084 1448.25 Q915.084 1445.41 918.573 1445.41 Q916.936 1442.88 913.015 1442.88 Q911.81 1442.88 910.575 1443.25 Q909.34 1443.59 907.734 1444.76 Q906.129 1445.93 904.893 1447.79 Q903.658 1449.64 902.794 1453.13 Q901.929 1456.62 901.929 1461.16 L901.929 1462.67 Q904.523 1456.4 909.834 1456.43 Q915.145 1456.43 918.82 1460.48 Q922.495 1464.52 922.495 1470.51 Q922.495 1476.66 918.666 1480.73 Q914.836 1484.81 909.464 1484.81 Q907.055 1484.81 904.863 1483.79 Q902.701 1482.8 900.663 1480.52 Q898.656 1478.23 897.451 1473.85 Q896.247 1469.46 896.247 1463.44 M902.052 1469.12 Q902.052 1475.33 903.195 1478.29 Q903.38 1478.79 903.782 1479.47 Q904.214 1480.15 904.924 1481.04 Q905.665 1481.91 906.87 1482.49 Q908.074 1483.05 909.464 1483.05 Q913.694 1483.05 915.732 1478.94 Q916.813 1476.66 916.813 1470.45 Q916.813 1464.12 915.67 1461.8 Q913.725 1457.88 909.772 1457.88 Q907.117 1457.88 905.264 1459.7 Q903.442 1461.53 902.732 1463.97 Q902.052 1466.41 902.052 1469.12 Z" fill="#000000" fill-rule="nonzero" fill-opacity="1" /><path clip-path="url(#clip590)" d="M1452.61 1466.71 Q1452.98 1467.08 1452.98 1467.61 Q1452.98 1468.13 1452.61 1468.51 Q1452.23 1468.88 1451.71 1468.88 L1412.12 1468.88 Q1411.6 1468.88 1411.23 1468.51 Q1410.86 1468.13 1410.86 1467.61 Q1410.86 1467.08 1411.23 1466.71 Q1411.6 1466.34 1412.12 1466.34 L1451.71 1466.34 Q1452.23 1466.34 1452.61 1466.71 Z" fill="#000000" fill-rule="nonzero" fill-opacity="1" /><path clip-path="url(#clip590)" d="M1458.26 1472.98 L1458.26 1471.04 L1477.68 1441.36 Q1478.17 1440.59 1478.95 1440.62 Q1479.66 1440.62 1479.81 1440.9 Q1479.96 1441.18 1479.96 1442.26 L1479.96 1471.04 L1486.29 1471.04 L1486.29 1472.98 L1479.96 1472.98 L1479.96 1478.48 Q1479.96 1480.3 1480.71 1480.89 Q1481.48 1481.47 1484.75 1481.47 L1486.08 1481.47 L1486.08 1483.42 Q1483.48 1483.23 1477.49 1483.23 Q1471.53 1483.23 1468.94 1483.42 L1468.94 1481.47 L1470.27 1481.47 Q1473.54 1481.47 1474.31 1480.92 Q1475.09 1480.33 1475.09 1478.48 L1475.09 1472.98 L1458.26 1472.98 M1460.05 1471.04 L1475.46 1471.04 L1475.46 1447.45 L1460.05 1471.04 Z" fill="#000000" fill-rule="nonzero" fill-opacity="1" /><path clip-path="url(#clip590)" d="M2016.65 1466.71 Q2017.02 1467.08 2017.02 1467.61 Q2017.02 1468.13 2016.65 1468.51 Q2016.28 1468.88 2015.76 1468.88 L1976.17 1468.88 Q1975.64 1468.88 1975.27 1468.51 Q1974.9 1468.13 1974.9 1467.61 Q1974.9 1467.08 1975.27 1466.71 Q1975.64 1466.34 1976.17 1466.34 L2015.76 1466.34 Q2016.28 1466.34 2016.65 1466.71 Z" fill="#000000" fill-rule="nonzero" fill-opacity="1" /><path clip-path="url(#clip590)" d="M2023.69 1483.42 Q2023.69 1482.28 2023.79 1481.94 Q2023.91 1481.6 2024.4 1481.07 L2036.54 1467.55 Q2043.18 1460.08 2043.18 1453.56 Q2043.18 1449.33 2040.95 1446.3 Q2038.76 1443.28 2034.72 1443.28 Q2031.94 1443.28 2029.59 1444.98 Q2027.24 1446.67 2026.16 1449.7 Q2026.35 1449.64 2027 1449.64 Q2028.57 1449.64 2029.44 1450.63 Q2030.33 1451.61 2030.33 1452.94 Q2030.33 1454.64 2029.22 1455.47 Q2028.14 1456.28 2027.06 1456.28 Q2026.63 1456.28 2026.04 1456.18 Q2025.48 1456.09 2024.59 1455.23 Q2023.69 1454.33 2023.69 1452.76 Q2023.69 1448.34 2027.03 1444.82 Q2030.39 1441.3 2035.52 1441.3 Q2041.32 1441.3 2045.12 1444.76 Q2048.95 1448.19 2048.95 1453.56 Q2048.95 1455.44 2048.37 1457.17 Q2047.81 1458.87 2047.04 1460.2 Q2046.3 1461.53 2044.26 1463.66 Q2042.22 1465.79 2040.58 1467.3 Q2038.95 1468.81 2035.27 1472.03 L2028.57 1478.54 L2039.97 1478.54 Q2045.52 1478.54 2045.96 1478.05 Q2046.57 1477.15 2047.35 1472.43 L2048.95 1472.43 L2047.16 1483.42 L2023.69 1483.42 Z" fill="#000000" fill-rule="nonzero" fill-opacity="1" /><path clip-path="url(#clip590)" d="M1333.27 1517.34 Q1333.27 1518.78 1332.07 1518.78 Q1329.97 1518.85 1328.53 1519.27 Q1327.09 1519.66 1326.24 1520.43 Q1325.43 1521.21 1324.98 1522.05 Q1324.56 1522.86 1324.27 1524.09 L1317.88 1549.63 Q1316.05 1556.83 1310.15 1562.07 Q1304.25 1567.27 1297.54 1567.27 Q1293.71 1567.27 1290.51 1565.69 Q1287.35 1564.11 1285.38 1560.91 Q1283.41 1557.71 1283.41 1553.46 Q1283.41 1551.42 1283.94 1549.28 L1288.3 1531.5 L1289.91 1525.18 Q1291.11 1520.5 1291.11 1520.08 Q1291.11 1519.42 1290.69 1519.24 Q1290.3 1519.03 1289.18 1518.92 L1286.44 1518.78 Q1285.59 1518.78 1285.24 1518.75 Q1284.92 1518.71 1284.68 1518.54 Q1284.43 1518.36 1284.43 1517.97 Q1284.43 1517.48 1284.54 1517.17 Q1284.68 1516.82 1284.92 1516.71 Q1285.17 1516.6 1285.35 1516.57 Q1285.52 1516.53 1285.8 1516.53 L1295.08 1516.75 L1304.28 1516.53 Q1305.3 1516.53 1305.3 1517.34 Q1305.3 1518.36 1304.85 1518.57 Q1304.39 1518.78 1302.84 1518.78 Q1300.21 1518.78 1299.01 1519.13 Q1297.85 1519.45 1297.5 1520.01 Q1297.19 1520.54 1296.8 1522.09 L1289.81 1550.09 Q1289.46 1551.49 1289.25 1552.9 Q1289.07 1554.27 1289.07 1554.97 L1289.04 1555.67 Q1289.04 1560.14 1291.49 1562.59 Q1293.99 1565.05 1297.82 1565.05 Q1303.44 1565.05 1308.68 1560.59 Q1313.95 1556.13 1315.74 1549.14 L1322.2 1523.46 Q1322.41 1522.82 1322.41 1521.94 Q1322.41 1520.54 1321.36 1519.7 Q1320.34 1518.82 1317.53 1518.78 Q1316.23 1518.78 1316.23 1517.97 Q1316.23 1517.31 1316.47 1516.99 Q1316.76 1516.64 1316.97 1516.6 Q1317.21 1516.53 1317.53 1516.53 Q1318.72 1516.53 1321.25 1516.64 Q1323.78 1516.75 1325.01 1516.75 Q1326.24 1516.75 1328.7 1516.64 Q1331.16 1516.53 1332.36 1516.53 Q1332.78 1516.53 1332.99 1516.75 Q1333.23 1516.92 1333.27 1517.13 L1333.27 1517.34 Z" fill="#000000" fill-rule="nonzero" fill-opacity="1" /><polyline clip-path="url(#clip590)" style="stroke:#000000; stroke-linecap:round; stroke-linejoin:round; stroke-width:4; stroke-opacity:1; fill:none" points="262.719,1410.22 262.719,47.2441 "/>
<polyline clip-path="url(#clip590)" style="stroke:#000000; stroke-linecap:round; stroke-linejoin:round; stroke-width:4; stroke-opacity:1; fill:none" points="2352.76,1410.22 2352.76,47.2441 "/>
<polyline clip-path="url(#clip590)" style="stroke:#000000; stroke-linecap:round; stroke-linejoin:round; stroke-width:4; stroke-opacity:1; fill:none" points="262.719,1172.65 281.617,1172.65 "/>
<polyline clip-path="url(#clip590)" style="stroke:#000000; stroke-linecap:round; stroke-linejoin:round; stroke-width:4; stroke-opacity:1; fill:none" points="262.719,926.833 281.617,926.833 "/>
<polyline clip-path="url(#clip590)" style="stroke:#000000; stroke-linecap:round; stroke-linejoin:round; stroke-width:4; stroke-opacity:1; fill:none" points="262.719,681.013 281.617,681.013 "/>
<polyline clip-path="url(#clip590)" style="stroke:#000000; stroke-linecap:round; stroke-linejoin:round; stroke-width:4; stroke-opacity:1; fill:none" points="262.719,435.192 281.617,435.192 "/>
<polyline clip-path="url(#clip590)" style="stroke:#000000; stroke-linecap:round; stroke-linejoin:round; stroke-width:4; stroke-opacity:1; fill:none" points="262.719,189.372 281.617,189.372 "/>
<path clip-path="url(#clip590)" d="M119.97 1174.03 Q119.97 1164.73 122.317 1159.67 Q125.59 1152.13 133.31 1152.13 Q134.946 1152.13 136.644 1152.6 Q138.374 1153.03 140.535 1154.73 Q142.728 1156.43 144.055 1159.21 Q146.588 1164.58 146.588 1174.03 Q146.588 1183.26 144.241 1188.29 Q140.813 1195.64 133.248 1195.64 Q130.407 1195.64 127.504 1194.19 Q124.632 1192.74 122.811 1189.25 Q119.97 1184.03 119.97 1174.03 M125.219 1173.26 Q125.219 1182.8 125.899 1186.6 Q126.671 1190.7 128.77 1192.49 Q130.901 1194.25 133.248 1194.25 Q135.78 1194.25 137.88 1192.37 Q140.01 1190.46 140.659 1186.35 Q141.369 1182.3 141.338 1173.26 Q141.338 1164.46 140.721 1160.94 Q139.887 1156.83 137.664 1155.19 Q135.471 1153.52 133.248 1153.52 Q132.414 1153.52 131.519 1153.77 Q130.654 1154.02 129.388 1154.73 Q128.122 1155.44 127.134 1157.2 Q126.176 1158.96 125.713 1161.61 Q125.219 1165.04 125.219 1173.26 Z" fill="#000000" fill-rule="nonzero" fill-opacity="1" /><path clip-path="url(#clip590)" d="M155.45 1193.23 Q154.493 1192.22 154.493 1190.89 Q154.493 1189.56 155.45 1188.6 Q156.407 1187.61 157.858 1187.61 Q159.248 1187.61 160.174 1188.54 Q161.132 1189.44 161.132 1190.92 Q161.132 1192.37 160.113 1193.33 Q159.125 1194.25 157.858 1194.25 Q156.407 1194.25 155.45 1193.23 Z" fill="#000000" fill-rule="nonzero" fill-opacity="1" /><path clip-path="url(#clip590)" d="M169.16 1174.03 Q169.16 1164.73 171.507 1159.67 Q174.78 1152.13 182.5 1152.13 Q184.137 1152.13 185.835 1152.6 Q187.564 1153.03 189.726 1154.73 Q191.918 1156.43 193.246 1159.21 Q195.778 1164.58 195.778 1174.03 Q195.778 1183.26 193.431 1188.29 Q190.004 1195.64 182.438 1195.64 Q179.597 1195.64 176.695 1194.19 Q173.823 1192.74 172.001 1189.25 Q169.16 1184.03 169.16 1174.03 M174.41 1173.26 Q174.41 1182.8 175.089 1186.6 Q175.861 1190.7 177.961 1192.49 Q180.092 1194.25 182.438 1194.25 Q184.97 1194.25 187.07 1192.37 Q189.201 1190.46 189.849 1186.35 Q190.56 1182.3 190.529 1173.26 Q190.529 1164.46 189.911 1160.94 Q189.077 1156.83 186.854 1155.19 Q184.662 1153.52 182.438 1153.52 Q181.605 1153.52 180.709 1153.77 Q179.844 1154.02 178.578 1154.73 Q177.312 1155.44 176.324 1157.2 Q175.367 1158.96 174.904 1161.61 Q174.41 1165.04 174.41 1173.26 Z" fill="#000000" fill-rule="nonzero" fill-opacity="1" /><path clip-path="url(#clip590)" d="M201.46 1194.25 Q201.46 1193.11 201.553 1192.77 Q201.676 1192.43 202.17 1191.91 L214.306 1178.38 Q220.945 1170.91 220.945 1164.39 Q220.945 1160.16 218.721 1157.14 Q216.529 1154.11 212.484 1154.11 Q209.705 1154.11 207.358 1155.81 Q205.011 1157.51 203.93 1160.53 Q204.116 1160.47 204.764 1160.47 Q206.339 1160.47 207.203 1161.46 Q208.099 1162.45 208.099 1163.78 Q208.099 1165.47 206.987 1166.31 Q205.907 1167.11 204.826 1167.11 Q204.393 1167.11 203.807 1167.02 Q203.251 1166.93 202.355 1166.06 Q201.46 1165.17 201.46 1163.59 Q201.46 1159.18 204.795 1155.65 Q208.161 1152.13 213.287 1152.13 Q219.092 1152.13 222.89 1155.59 Q226.719 1159.02 226.719 1164.39 Q226.719 1166.28 226.132 1168.01 Q225.577 1169.7 224.805 1171.03 Q224.064 1172.36 222.025 1174.49 Q219.987 1176.62 218.351 1178.13 Q216.714 1179.65 213.04 1182.86 L206.339 1189.37 L217.733 1189.37 Q223.292 1189.37 223.724 1188.88 Q224.341 1187.99 225.113 1183.26 L226.719 1183.26 L224.928 1194.25 L201.46 1194.25 Z" fill="#000000" fill-rule="nonzero" fill-opacity="1" /><path clip-path="url(#clip590)" d="M119.476 928.207 Q119.476 918.913 121.822 913.849 Q125.096 906.314 132.815 906.314 Q134.452 906.314 136.15 906.777 Q137.88 907.21 140.041 908.908 Q142.234 910.606 143.561 913.385 Q146.094 918.758 146.094 928.207 Q146.094 937.44 143.747 942.474 Q140.319 949.823 132.754 949.823 Q129.913 949.823 127.01 948.372 Q124.138 946.92 122.317 943.431 Q119.476 938.212 119.476 928.207 M124.725 927.435 Q124.725 936.977 125.404 940.775 Q126.176 944.882 128.276 946.673 Q130.407 948.433 132.754 948.433 Q135.286 948.433 137.386 946.55 Q139.516 944.635 140.165 940.528 Q140.875 936.483 140.844 927.435 Q140.844 918.635 140.226 915.115 Q139.393 911.008 137.169 909.371 Q134.977 907.704 132.754 907.704 Q131.92 907.704 131.024 907.951 Q130.16 908.198 128.894 908.908 Q127.628 909.618 126.64 911.378 Q125.682 913.138 125.219 915.794 Q124.725 919.222 124.725 927.435 Z" fill="#000000" fill-rule="nonzero" fill-opacity="1" /><path clip-path="url(#clip590)" d="M154.956 947.414 Q153.999 946.395 153.999 945.067 Q153.999 943.74 154.956 942.782 Q155.913 941.794 157.364 941.794 Q158.754 941.794 159.68 942.721 Q160.638 943.616 160.638 945.098 Q160.638 946.55 159.619 947.507 Q158.63 948.433 157.364 948.433 Q155.913 948.433 154.956 947.414 Z" fill="#000000" fill-rule="nonzero" fill-opacity="1" /><path clip-path="url(#clip590)" d="M168.666 928.207 Q168.666 918.913 171.013 913.849 Q174.286 906.314 182.006 906.314 Q183.643 906.314 185.341 906.777 Q187.07 907.21 189.232 908.908 Q191.424 910.606 192.752 913.385 Q195.284 918.758 195.284 928.207 Q195.284 937.44 192.937 942.474 Q189.51 949.823 181.944 949.823 Q179.103 949.823 176.201 948.372 Q173.329 946.92 171.507 943.431 Q168.666 938.212 168.666 928.207 M173.916 927.435 Q173.916 936.977 174.595 940.775 Q175.367 944.882 177.467 946.673 Q179.597 948.433 181.944 948.433 Q184.476 948.433 186.576 946.55 Q188.707 944.635 189.355 940.528 Q190.066 936.483 190.035 927.435 Q190.035 918.635 189.417 915.115 Q188.583 911.008 186.36 909.371 Q184.168 907.704 181.944 907.704 Q181.111 907.704 180.215 907.951 Q179.35 908.198 178.084 908.908 Q176.818 909.618 175.83 911.378 Q174.873 913.138 174.41 915.794 Q173.916 919.222 173.916 927.435 Z" fill="#000000" fill-rule="nonzero" fill-opacity="1" /><path clip-path="url(#clip590)" d="M200.472 939.911 Q200.472 938.027 201.553 937.132 Q202.633 936.236 204.023 936.236 Q205.474 936.236 206.493 937.193 Q207.543 938.12 207.543 939.756 Q207.543 941.516 206.308 942.504 Q205.104 943.493 203.374 943.246 Q204.888 945.778 207.667 946.92 Q210.477 948.063 213.071 948.063 Q215.788 948.063 217.98 945.716 Q220.204 943.369 220.204 937.626 Q220.204 932.747 218.289 929.937 Q216.405 927.127 212.669 927.127 L209.89 927.127 Q208.933 927.127 208.655 927.034 Q208.377 926.941 208.377 926.416 Q208.377 925.799 209.334 925.675 Q210.291 925.675 211.804 925.49 Q215.479 925.367 217.424 922.186 Q219.185 919.222 219.185 914.991 Q219.185 911.131 217.332 909.525 Q215.51 907.889 213.132 907.889 Q210.909 907.889 208.47 908.815 Q206.03 909.742 204.702 911.811 Q208.624 911.811 208.624 914.991 Q208.624 916.381 207.728 917.307 Q206.864 918.203 205.412 918.203 Q204.023 918.203 203.097 917.338 Q202.17 916.442 202.17 914.929 Q202.17 911.316 205.382 908.815 Q208.624 906.314 213.379 906.314 Q218.073 906.314 221.531 908.784 Q225.021 911.255 225.021 915.053 Q225.021 918.789 222.55 921.846 Q220.08 924.903 216.158 926.169 Q220.976 927.127 223.847 930.4 Q226.719 933.642 226.719 937.626 Q226.719 942.566 222.828 946.21 Q218.938 949.823 213.256 949.823 Q208.006 949.823 204.239 946.982 Q200.472 944.141 200.472 939.911 Z" fill="#000000" fill-rule="nonzero" fill-opacity="1" /><path clip-path="url(#clip590)" d="M118.58 682.387 Q118.58 673.092 120.927 668.028 Q124.2 660.493 131.92 660.493 Q133.557 660.493 135.255 660.957 Q136.984 661.389 139.146 663.087 Q141.338 664.786 142.666 667.565 Q145.198 672.938 145.198 682.387 Q145.198 691.62 142.851 696.653 Q139.424 704.002 131.858 704.002 Q129.017 704.002 126.115 702.551 Q123.243 701.1 121.421 697.61 Q118.58 692.392 118.58 682.387 M123.83 681.615 Q123.83 691.157 124.509 694.955 Q125.281 699.062 127.381 700.853 Q129.511 702.613 131.858 702.613 Q134.39 702.613 136.49 700.729 Q138.621 698.815 139.269 694.708 Q139.979 690.662 139.949 681.615 Q139.949 672.814 139.331 669.294 Q138.497 665.187 136.274 663.551 Q134.082 661.883 131.858 661.883 Q131.024 661.883 130.129 662.13 Q129.264 662.377 127.998 663.087 Q126.732 663.798 125.744 665.558 Q124.787 667.318 124.324 669.973 Q123.83 673.401 123.83 681.615 Z" fill="#000000" fill-rule="nonzero" fill-opacity="1" /><path clip-path="url(#clip590)" d="M154.06 701.594 Q153.103 700.575 153.103 699.247 Q153.103 697.919 154.06 696.962 Q155.018 695.974 156.469 695.974 Q157.858 695.974 158.785 696.9 Q159.742 697.796 159.742 699.278 Q159.742 700.729 158.723 701.686 Q157.735 702.613 156.469 702.613 Q155.018 702.613 154.06 701.594 Z" fill="#000000" fill-rule="nonzero" fill-opacity="1" /><path clip-path="url(#clip590)" d="M167.771 682.387 Q167.771 673.092 170.118 668.028 Q173.391 660.493 181.111 660.493 Q182.747 660.493 184.445 660.957 Q186.175 661.389 188.336 663.087 Q190.529 664.786 191.856 667.565 Q194.389 672.938 194.389 682.387 Q194.389 691.62 192.042 696.653 Q188.614 704.002 181.049 704.002 Q178.208 704.002 175.305 702.551 Q172.433 701.1 170.612 697.61 Q167.771 692.392 167.771 682.387 M173.02 681.615 Q173.02 691.157 173.7 694.955 Q174.472 699.062 176.571 700.853 Q178.702 702.613 181.049 702.613 Q183.581 702.613 185.681 700.729 Q187.811 698.815 188.46 694.708 Q189.17 690.662 189.139 681.615 Q189.139 672.814 188.522 669.294 Q187.688 665.187 185.465 663.551 Q183.272 661.883 181.049 661.883 Q180.215 661.883 179.32 662.13 Q178.455 662.377 177.189 663.087 Q175.923 663.798 174.935 665.558 Q173.977 667.318 173.514 669.973 Q173.02 673.401 173.02 681.615 Z" fill="#000000" fill-rule="nonzero" fill-opacity="1" /><path clip-path="url(#clip590)" d="M198.681 692.176 L198.681 690.23 L218.104 660.555 Q218.598 659.783 219.37 659.814 Q220.08 659.814 220.234 660.092 Q220.389 660.37 220.389 661.451 L220.389 690.23 L226.719 690.23 L226.719 692.176 L220.389 692.176 L220.389 697.672 Q220.389 699.494 221.13 700.081 Q221.902 700.667 225.175 700.667 L226.503 700.667 L226.503 702.613 Q223.909 702.427 217.919 702.427 Q211.959 702.427 209.365 702.613 L209.365 700.667 L210.693 700.667 Q213.966 700.667 214.738 700.111 Q215.51 699.525 215.51 697.672 L215.51 692.176 L198.681 692.176 M200.472 690.23 L215.881 690.23 L215.881 666.638 L200.472 690.23 Z" fill="#000000" fill-rule="nonzero" fill-opacity="1" /><path clip-path="url(#clip590)" d="M119.97 436.566 Q119.97 427.272 122.317 422.207 Q125.59 414.673 133.31 414.673 Q134.946 414.673 136.644 415.136 Q138.374 415.568 140.535 417.267 Q142.728 418.965 144.055 421.744 Q146.588 427.117 146.588 436.566 Q146.588 445.799 144.241 450.832 Q140.813 458.182 133.248 458.182 Q130.407 458.182 127.504 456.73 Q124.632 455.279 122.811 451.79 Q119.97 446.571 119.97 436.566 M125.219 435.794 Q125.219 445.336 125.899 449.134 Q126.671 453.241 128.77 455.032 Q130.901 456.792 133.248 456.792 Q135.78 456.792 137.88 454.908 Q140.01 452.994 140.659 448.887 Q141.369 444.842 141.338 435.794 Q141.338 426.994 140.721 423.473 Q139.887 419.367 137.664 417.73 Q135.471 416.062 133.248 416.062 Q132.414 416.062 131.519 416.309 Q130.654 416.557 129.388 417.267 Q128.122 417.977 127.134 419.737 Q126.176 421.497 125.713 424.153 Q125.219 427.58 125.219 435.794 Z" fill="#000000" fill-rule="nonzero" fill-opacity="1" /><path clip-path="url(#clip590)" d="M155.45 455.773 Q154.493 454.754 154.493 453.426 Q154.493 452.098 155.45 451.141 Q156.407 450.153 157.858 450.153 Q159.248 450.153 160.174 451.079 Q161.132 451.975 161.132 453.457 Q161.132 454.908 160.113 455.866 Q159.125 456.792 157.858 456.792 Q156.407 456.792 155.45 455.773 Z" fill="#000000" fill-rule="nonzero" fill-opacity="1" /><path clip-path="url(#clip590)" d="M169.16 436.566 Q169.16 427.272 171.507 422.207 Q174.78 414.673 182.5 414.673 Q184.137 414.673 185.835 415.136 Q187.564 415.568 189.726 417.267 Q191.918 418.965 193.246 421.744 Q195.778 427.117 195.778 436.566 Q195.778 445.799 193.431 450.832 Q190.004 458.182 182.438 458.182 Q179.597 458.182 176.695 456.73 Q173.823 455.279 172.001 451.79 Q169.16 446.571 169.16 436.566 M174.41 435.794 Q174.41 445.336 175.089 449.134 Q175.861 453.241 177.961 455.032 Q180.092 456.792 182.438 456.792 Q184.97 456.792 187.07 454.908 Q189.201 452.994 189.849 448.887 Q190.56 444.842 190.529 435.794 Q190.529 426.994 189.911 423.473 Q189.077 419.367 186.854 417.73 Q184.662 416.062 182.438 416.062 Q181.605 416.062 180.709 416.309 Q179.844 416.557 178.578 417.267 Q177.312 417.977 176.324 419.737 Q175.367 421.497 174.904 424.153 Q174.41 427.58 174.41 435.794 Z" fill="#000000" fill-rule="nonzero" fill-opacity="1" /><path clip-path="url(#clip590)" d="M201.46 446.602 Q201.46 444.718 202.479 444.008 Q203.498 443.267 204.579 443.267 Q206.03 443.267 206.864 444.193 Q207.728 445.089 207.728 446.355 Q207.728 447.621 206.864 448.547 Q206.03 449.443 204.579 449.443 Q203.869 449.443 203.498 449.319 Q204.332 452.222 206.864 454.322 Q209.427 456.422 212.793 456.422 Q217.023 456.422 219.555 452.315 Q221.068 449.659 221.068 443.638 Q221.068 438.326 219.926 435.671 Q218.166 431.626 214.553 431.626 Q209.427 431.626 206.401 436.041 Q206.03 436.597 205.598 436.628 Q204.98 436.628 204.826 436.288 Q204.702 435.918 204.702 434.961 L204.702 416.248 Q204.702 414.735 205.32 414.735 Q205.567 414.735 206.092 414.92 Q210.075 416.68 214.491 416.711 Q219.03 416.711 223.106 414.858 Q223.415 414.673 223.6 414.673 Q224.218 414.673 224.249 415.383 Q224.249 415.63 223.724 416.371 Q223.23 417.081 222.149 418.039 Q221.068 418.965 219.679 419.861 Q218.289 420.756 216.251 421.374 Q214.244 421.96 212.021 421.96 Q209.365 421.96 206.648 421.127 L206.648 433.447 Q209.921 430.236 214.676 430.236 Q219.74 430.236 223.23 434.312 Q226.719 438.388 226.719 444.07 Q226.719 450.03 222.581 454.106 Q218.474 458.182 212.916 458.182 Q207.852 458.182 204.64 454.569 Q201.46 450.956 201.46 446.602 Z" fill="#000000" fill-rule="nonzero" fill-opacity="1" /><path clip-path="url(#clip590)" d="M119.476 190.746 Q119.476 181.451 121.822 176.387 Q125.096 168.852 132.815 168.852 Q134.452 168.852 136.15 169.316 Q137.88 169.748 140.041 171.446 Q142.234 173.145 143.561 175.924 Q146.094 181.297 146.094 190.746 Q146.094 199.979 143.747 205.012 Q140.319 212.361 132.754 212.361 Q129.913 212.361 127.01 210.91 Q124.138 209.458 122.317 205.969 Q119.476 200.751 119.476 190.746 M124.725 189.974 Q124.725 199.515 125.404 203.314 Q126.176 207.42 128.276 209.211 Q130.407 210.972 132.754 210.972 Q135.286 210.972 137.386 209.088 Q139.516 207.173 140.165 203.066 Q140.875 199.021 140.844 189.974 Q140.844 181.173 140.226 177.653 Q139.393 173.546 137.169 171.909 Q134.977 170.242 132.754 170.242 Q131.92 170.242 131.024 170.489 Q130.16 170.736 128.894 171.446 Q127.628 172.156 126.64 173.917 Q125.682 175.677 125.219 178.332 Q124.725 181.76 124.725 189.974 Z" fill="#000000" fill-rule="nonzero" fill-opacity="1" /><path clip-path="url(#clip590)" d="M154.956 209.953 Q153.999 208.934 153.999 207.606 Q153.999 206.278 154.956 205.321 Q155.913 204.333 157.364 204.333 Q158.754 204.333 159.68 205.259 Q160.638 206.154 160.638 207.637 Q160.638 209.088 159.619 210.045 Q158.63 210.972 157.364 210.972 Q155.913 210.972 154.956 209.953 Z" fill="#000000" fill-rule="nonzero" fill-opacity="1" /><path clip-path="url(#clip590)" d="M168.666 190.746 Q168.666 181.451 171.013 176.387 Q174.286 168.852 182.006 168.852 Q183.643 168.852 185.341 169.316 Q187.07 169.748 189.232 171.446 Q191.424 173.145 192.752 175.924 Q195.284 181.297 195.284 190.746 Q195.284 199.979 192.937 205.012 Q189.51 212.361 181.944 212.361 Q179.103 212.361 176.201 210.91 Q173.329 209.458 171.507 205.969 Q168.666 200.751 168.666 190.746 M173.916 189.974 Q173.916 199.515 174.595 203.314 Q175.367 207.42 177.467 209.211 Q179.597 210.972 181.944 210.972 Q184.476 210.972 186.576 209.088 Q188.707 207.173 189.355 203.066 Q190.066 199.021 190.035 189.974 Q190.035 181.173 189.417 177.653 Q188.583 173.546 186.36 171.909 Q184.168 170.242 181.944 170.242 Q181.111 170.242 180.215 170.489 Q179.35 170.736 178.084 171.446 Q176.818 172.156 175.83 173.917 Q174.873 175.677 174.41 178.332 Q173.916 181.76 173.916 189.974 Z" fill="#000000" fill-rule="nonzero" fill-opacity="1" /><path clip-path="url(#clip590)" d="M200.472 190.993 Q200.472 181.05 205.536 174.966 Q210.6 168.852 217.116 168.852 Q220.914 168.852 223.014 170.798 Q225.144 172.712 225.144 175.677 Q225.144 177.313 224.187 178.023 Q223.23 178.734 222.242 178.734 Q221.099 178.734 220.204 177.962 Q219.308 177.19 219.308 175.8 Q219.308 172.959 222.797 172.959 Q221.161 170.427 217.239 170.427 Q216.035 170.427 214.8 170.798 Q213.565 171.137 211.959 172.311 Q210.353 173.484 209.118 175.337 Q207.883 177.19 207.018 180.679 Q206.154 184.168 206.154 188.708 L206.154 190.221 Q208.747 183.952 214.059 183.983 Q219.37 183.983 223.044 188.028 Q226.719 192.073 226.719 198.064 Q226.719 204.209 222.89 208.285 Q219.061 212.361 213.688 212.361 Q211.28 212.361 209.087 211.342 Q206.926 210.354 204.888 208.069 Q202.88 205.784 201.676 201.399 Q200.472 197.014 200.472 190.993 M206.277 196.674 Q206.277 202.881 207.42 205.846 Q207.605 206.34 208.006 207.019 Q208.439 207.698 209.149 208.594 Q209.89 209.458 211.094 210.045 Q212.299 210.601 213.688 210.601 Q217.919 210.601 219.957 206.494 Q221.037 204.209 221.037 198.002 Q221.037 191.672 219.895 189.356 Q217.949 185.434 213.997 185.434 Q211.341 185.434 209.489 187.256 Q207.667 189.078 206.956 191.518 Q206.277 193.957 206.277 196.674 Z" fill="#000000" fill-rule="nonzero" fill-opacity="1" /><path clip-path="url(#clip590)" d="M22.112 781.268 Q23.3768 781.584 23.8335 782.251 L24.9578 784.851 Q24.9578 786.151 24.6767 786.292 Q23.9389 786.889 23.166 786.994 Q22.6038 786.994 22.2525 787.311 Q21.866 787.592 21.866 788.084 Q21.866 789.102 22.393 789.735 Q23.5876 791.246 26.3983 792.194 Q28.7171 793.002 37.641 795.286 L67.6452 802.629 L69.7883 806.669 Q57.6672 809.796 48.0406 813.099 Q38.3788 816.401 30.79 820.688 L42.103 823.85 Q55.4889 828.066 57.1402 828.874 Q62.6211 831.368 66.1344 835.514 Q69.5775 839.625 69.5775 843.489 Q69.5775 845.984 68.0668 847.108 Q66.802 848.127 65.3264 847.741 Q63.9562 847.459 62.6913 845.878 Q61.9535 844.895 61.9535 844.087 Q61.9535 842.822 62.6211 842.33 Q62.6913 842.26 62.9373 842.154 Q63.1832 842.049 63.5345 841.908 Q63.8508 841.768 64.0264 841.698 Q65.0453 841.276 65.0453 839.906 Q65.0453 837.657 63.0427 835.163 Q62.2697 834.214 61.1455 833.406 Q59.986 832.563 59.2834 832.211 Q58.5807 831.825 56.9997 831.052 Q52.7485 829.19 46.038 827.433 L27.4171 822.761 Q25.2389 824.447 24.1848 825.993 Q23.0254 827.714 23.0254 829.12 Q23.0254 831.755 24.5362 833.476 Q25.2389 834.39 26.3983 835.233 Q27.5577 836.041 28.3657 836.463 Q29.1738 836.884 30.6494 837.517 L31.0008 839.168 Q24.5713 837.552 21.4444 833.722 Q18.8445 830.385 18.8445 825.993 Q18.8445 821.777 23.3768 818.509 Q24.8172 817.385 26.855 816.331 Q28.8576 815.242 30.0873 814.75 Q31.2818 814.223 33.952 813.134 L60.3725 803.578 L59.4942 802.84 L34.7601 797.289 Q30.3332 796.235 25.9064 794.127 Q22.3228 792.51 20.812 790.613 Q18.4932 787.767 18.4932 784.289 Q18.4932 782.673 19.5823 781.689 Q20.5661 780.916 22.112 781.268 Z" fill="#000000" fill-rule="nonzero" fill-opacity="1" /><path clip-path="url(#clip590)" d="M51.308 776.374 Q39.1518 776.374 29.3495 771.842 Q25.2389 769.91 21.7958 767.204 Q18.3527 764.499 16.8419 762.707 Q15.3312 760.915 15.3312 760.424 Q15.3312 759.721 16.0338 759.686 Q16.3852 759.686 17.2635 760.634 Q29.0684 772.228 51.308 772.193 Q73.6179 772.193 84.9661 760.915 Q86.1958 759.686 86.5822 759.686 Q87.2849 759.686 87.2849 760.424 Q87.2849 760.915 85.8444 762.637 Q84.4039 764.359 81.1014 767.029 Q77.7988 769.699 73.7584 771.631 Q63.9562 776.374 51.308 776.374 Z" fill="#000000" fill-rule="nonzero" fill-opacity="1" /><path clip-path="url(#clip590)" d="M39.995 715.359 Q42.4543 715.359 42.4543 718.872 L42.4543 727.094 Q48.2865 728.359 53.9079 728.359 Q60.6185 728.359 65.7831 726.286 Q66.802 725.864 67.3641 725.864 Q68.4181 725.864 69.2613 726.813 Q70.1045 727.726 70.1045 728.815 Q70.1045 729.729 69.4019 730.326 Q68.6992 730.888 66.4858 731.38 Q63.8859 731.977 61.0049 731.977 Q57.5618 731.977 54.2593 731.415 Q50.9216 730.853 42.4543 728.956 L42.4543 737.072 L58.3699 741.112 Q63.7454 742.553 65.3966 743.044 Q66.3804 743.361 66.6966 743.466 Q67.0128 743.571 67.7857 743.888 Q68.5235 744.169 68.8046 744.379 Q69.0505 744.59 69.437 744.942 Q69.8586 745.293 69.964 745.715 Q70.1045 746.136 70.1045 746.663 Q70.1045 747.471 69.5775 748.104 Q69.0857 748.736 68.1371 748.736 Q67.5047 748.736 66.4155 748.174 Q52.0107 741.499 42.4543 738.969 L42.4543 743.044 Q42.4543 748.666 48.0055 752.179 Q48.7433 752.741 48.8135 753.057 Q48.8487 753.198 48.8487 753.339 Q48.8487 753.725 48.673 753.971 Q48.4973 754.182 48.3217 754.182 L48.146 754.217 Q47.9352 754.217 46.9866 753.69 Q46.0028 753.128 44.4921 752.074 Q42.9814 750.985 41.6814 749.825 Q40.4869 748.701 39.7491 747.612 Q38.9761 746.487 38.695 745.433 Q38.414 744.379 38.3437 743.782 Q38.2734 743.185 38.2734 742.342 L38.2734 718.24 Q38.2734 717.327 38.3437 716.835 Q38.3788 716.343 38.8004 715.851 Q39.1869 715.359 39.995 715.359 Z" fill="#000000" fill-rule="nonzero" fill-opacity="1" /><path clip-path="url(#clip590)" d="M68.1371 712.589 Q66.9776 713.608 65.4669 713.608 Q63.9562 713.608 62.8319 712.624 Q61.6725 711.605 61.6725 709.778 Q61.6725 707.635 63.7454 706.406 Q65.7831 705.176 69.2262 705.176 Q72.9504 705.176 76.3935 706.687 Q79.8717 708.197 81.523 709.673 Q83.1743 711.149 83.1743 711.746 Q83.1743 712.449 82.4013 712.449 Q82.1203 712.449 81.5933 711.957 Q76.0421 706.792 69.2262 706.757 Q68.1371 706.757 68.1371 706.897 L68.2776 707.073 Q69.2965 708.303 69.2965 709.778 Q69.2965 711.57 68.1371 712.589 Z" fill="#000000" fill-rule="nonzero" fill-opacity="1" /><path clip-path="url(#clip590)" d="M39.995 643.613 Q42.4543 643.613 42.4543 647.127 L42.4543 655.348 Q48.2865 656.613 53.9079 656.613 Q60.6185 656.613 65.7831 654.54 Q66.802 654.118 67.3641 654.118 Q68.4181 654.118 69.2613 655.067 Q70.1045 655.98 70.1045 657.069 Q70.1045 657.983 69.4019 658.58 Q68.6992 659.142 66.4858 659.634 Q63.8859 660.232 61.0049 660.232 Q57.5618 660.232 54.2593 659.669 Q50.9216 659.107 42.4543 657.21 L42.4543 665.326 L58.3699 669.366 Q63.7454 670.807 65.3966 671.299 Q66.3804 671.615 66.6966 671.72 Q67.0128 671.826 67.7857 672.142 Q68.5235 672.423 68.8046 672.634 Q69.0505 672.844 69.437 673.196 Q69.8586 673.547 69.964 673.969 Q70.1045 674.39 70.1045 674.917 Q70.1045 675.725 69.5775 676.358 Q69.0857 676.99 68.1371 676.99 Q67.5047 676.99 66.4155 676.428 Q52.0107 669.753 42.4543 667.223 L42.4543 671.299 Q42.4543 676.92 48.0055 680.433 Q48.7433 680.996 48.8135 681.312 Q48.8487 681.452 48.8487 681.593 Q48.8487 681.979 48.673 682.225 Q48.4973 682.436 48.3217 682.436 L48.146 682.471 Q47.9352 682.471 46.9866 681.944 Q46.0028 681.382 44.4921 680.328 Q42.9814 679.239 41.6814 678.079 Q40.4869 676.955 39.7491 675.866 Q38.9761 674.742 38.695 673.688 Q38.414 672.634 38.3437 672.036 Q38.2734 671.439 38.2734 670.596 L38.2734 646.494 Q38.2734 645.581 38.3437 645.089 Q38.3788 644.597 38.8004 644.105 Q39.1869 643.613 39.995 643.613 Z" fill="#000000" fill-rule="nonzero" fill-opacity="1" /><path clip-path="url(#clip590)" d="M86.5822 636.966 Q86.2309 636.966 85.3526 636.053 Q73.5476 624.459 51.308 624.459 Q28.9982 624.459 17.7202 635.596 Q16.4203 636.966 16.0338 636.966 Q15.3312 636.966 15.3312 636.264 Q15.3312 635.772 16.7716 634.05 Q18.2121 632.293 21.5147 629.658 Q24.8172 626.988 28.8576 625.021 Q38.6599 620.278 51.308 620.278 Q63.4643 620.278 73.2666 624.81 Q77.3772 626.742 80.8203 629.448 Q84.2634 632.153 85.7742 633.945 Q87.2849 635.737 87.2849 636.264 Q87.2849 636.966 86.5822 636.966 Z" fill="#000000" fill-rule="nonzero" fill-opacity="1" /><polyline clip-path="url(#clip592)" style="stroke:#009af9; stroke-linecap:round; stroke-linejoin:round; stroke-width:4; stroke-opacity:1; fill:none" points="2293.6,1199.88 2011.93,1033.61 1730.25,837.486 1448.58,591.241 1166.9,471.551 885.223,361.521 603.547,209.558 321.871,86.2592 "/>
<path clip-path="url(#clip592)" d="M2269.6 1175.88 L2269.6 1223.88 L2317.6 1223.88 L2317.6 1175.88 L2269.6 1175.88 Z" fill="#009af9" fill-rule="evenodd" fill-opacity="1" stroke="#000000" stroke-opacity="1" stroke-width="3.2"/>
<path clip-path="url(#clip592)" d="M1987.93 1009.61 L1987.93 1057.61 L2035.93 1057.61 L2035.93 1009.61 L1987.93 1009.61 Z" fill="#009af9" fill-rule="evenodd" fill-opacity="1" stroke="#000000" stroke-opacity="1" stroke-width="3.2"/>
<path clip-path="url(#clip592)" d="M1706.25 813.486 L1706.25 861.486 L1754.25 861.486 L1754.25 813.486 L1706.25 813.486 Z" fill="#009af9" fill-rule="evenodd" fill-opacity="1" stroke="#000000" stroke-opacity="1" stroke-width="3.2"/>
<path clip-path="url(#clip592)" d="M1424.58 567.241 L1424.58 615.241 L1472.58 615.241 L1472.58 567.241 L1424.58 567.241 Z" fill="#009af9" fill-rule="evenodd" fill-opacity="1" stroke="#000000" stroke-opacity="1" stroke-width="3.2"/>
<path clip-path="url(#clip592)" d="M1142.9 447.551 L1142.9 495.551 L1190.9 495.551 L1190.9 447.551 L1142.9 447.551 Z" fill="#009af9" fill-rule="evenodd" fill-opacity="1" stroke="#000000" stroke-opacity="1" stroke-width="3.2"/>
<path clip-path="url(#clip592)" d="M861.223 337.521 L861.223 385.521 L909.223 385.521 L909.223 337.521 L861.223 337.521 Z" fill="#009af9" fill-rule="evenodd" fill-opacity="1" stroke="#000000" stroke-opacity="1" stroke-width="3.2"/>
<path clip-path="url(#clip592)" d="M579.547 185.558 L579.547 233.558 L627.547 233.558 L627.547 185.558 L579.547 185.558 Z" fill="#009af9" fill-rule="evenodd" fill-opacity="1" stroke="#000000" stroke-opacity="1" stroke-width="3.2"/>
<path clip-path="url(#clip592)" d="M297.871 62.2592 L297.871 110.259 L345.871 110.259 L345.871 62.2592 L297.871 62.2592 Z" fill="#009af9" fill-rule="evenodd" fill-opacity="1" stroke="#000000" stroke-opacity="1" stroke-width="3.2"/>
<polyline clip-path="url(#clip592)" style="stroke:#000000; stroke-linecap:round; stroke-linejoin:round; stroke-width:4; stroke-opacity:1; fill:none" points="2293.6,1199.93 2293.6,1199.83 "/>
<polyline clip-path="url(#clip592)" style="stroke:#000000; stroke-linecap:round; stroke-linejoin:round; stroke-width:4; stroke-opacity:1; fill:none" points="2011.93,1033.67 2011.93,1033.56 "/>
<polyline clip-path="url(#clip592)" style="stroke:#000000; stroke-linecap:round; stroke-linejoin:round; stroke-width:4; stroke-opacity:1; fill:none" points="1730.25,837.581 1730.25,837.391 "/>
<polyline clip-path="url(#clip592)" style="stroke:#000000; stroke-linecap:round; stroke-linejoin:round; stroke-width:4; stroke-opacity:1; fill:none" points="1448.58,591.41 1448.58,591.072 "/>
<polyline clip-path="url(#clip592)" style="stroke:#000000; stroke-linecap:round; stroke-linejoin:round; stroke-width:4; stroke-opacity:1; fill:none" points="1166.9,471.678 1166.9,471.423 "/>
<polyline clip-path="url(#clip592)" style="stroke:#000000; stroke-linecap:round; stroke-linejoin:round; stroke-width:4; stroke-opacity:1; fill:none" points="885.223,361.69 885.223,361.353 "/>
<polyline clip-path="url(#clip592)" style="stroke:#000000; stroke-linecap:round; stroke-linejoin:round; stroke-width:4; stroke-opacity:1; fill:none" points="603.547,209.767 603.547,209.349 "/>
<polyline clip-path="url(#clip592)" style="stroke:#000000; stroke-linecap:round; stroke-linejoin:round; stroke-width:4; stroke-opacity:1; fill:none" points="321.871,86.6994 321.871,85.8189 "/>
<line clip-path="url(#clip592)" x1="2317.6" y1="1199.93" x2="2269.6" y2="1199.93" style="stroke:#000000; stroke-width:4; stroke-opacity:1"/>
<line clip-path="url(#clip592)" x1="2317.6" y1="1199.83" x2="2269.6" y2="1199.83" style="stroke:#000000; stroke-width:4; stroke-opacity:1"/>
<line clip-path="url(#clip592)" x1="2035.93" y1="1033.67" x2="1987.93" y2="1033.67" style="stroke:#000000; stroke-width:4; stroke-opacity:1"/>
<line clip-path="url(#clip592)" x1="2035.93" y1="1033.56" x2="1987.93" y2="1033.56" style="stroke:#000000; stroke-width:4; stroke-opacity:1"/>
<line clip-path="url(#clip592)" x1="1754.25" y1="837.581" x2="1706.25" y2="837.581" style="stroke:#000000; stroke-width:4; stroke-opacity:1"/>
<line clip-path="url(#clip592)" x1="1754.25" y1="837.391" x2="1706.25" y2="837.391" style="stroke:#000000; stroke-width:4; stroke-opacity:1"/>
<line clip-path="url(#clip592)" x1="1472.58" y1="591.41" x2="1424.58" y2="591.41" style="stroke:#000000; stroke-width:4; stroke-opacity:1"/>
<line clip-path="url(#clip592)" x1="1472.58" y1="591.072" x2="1424.58" y2="591.072" style="stroke:#000000; stroke-width:4; stroke-opacity:1"/>
<line clip-path="url(#clip592)" x1="1190.9" y1="471.678" x2="1142.9" y2="471.678" style="stroke:#000000; stroke-width:4; stroke-opacity:1"/>
<line clip-path="url(#clip592)" x1="1190.9" y1="471.423" x2="1142.9" y2="471.423" style="stroke:#000000; stroke-width:4; stroke-opacity:1"/>
<line clip-path="url(#clip592)" x1="909.223" y1="361.69" x2="861.223" y2="361.69" style="stroke:#000000; stroke-width:4; stroke-opacity:1"/>
<line clip-path="url(#clip592)" x1="909.223" y1="361.353" x2="861.223" y2="361.353" style="stroke:#000000; stroke-width:4; stroke-opacity:1"/>
<line clip-path="url(#clip592)" x1="627.547" y1="209.767" x2="579.547" y2="209.767" style="stroke:#000000; stroke-width:4; stroke-opacity:1"/>
<line clip-path="url(#clip592)" x1="627.547" y1="209.349" x2="579.547" y2="209.349" style="stroke:#000000; stroke-width:4; stroke-opacity:1"/>
<line clip-path="url(#clip592)" x1="345.871" y1="86.6994" x2="297.871" y2="86.6994" style="stroke:#000000; stroke-width:4; stroke-opacity:1"/>
<line clip-path="url(#clip592)" x1="345.871" y1="85.8189" x2="297.871" y2="85.8189" style="stroke:#000000; stroke-width:4; stroke-opacity:1"/>
<polyline clip-path="url(#clip592)" style="stroke:#e26f46; stroke-linecap:round; stroke-linejoin:round; stroke-width:4; stroke-opacity:1; fill:none" points="2293.6,1371.64 2011.93,1323.24 1730.25,1259.82 1448.58,1172.66 1166.9,1012.24 885.223,870.505 603.547,731.482 321.871,576.953 "/>
<path clip-path="url(#clip592)" d="M2269.6 1347.64 L2269.6 1395.64 L2317.6 1395.64 L2317.6 1347.64 L2269.6 1347.64 Z" fill="#e26f46" fill-rule="evenodd" fill-opacity="1" stroke="#000000" stroke-opacity="1" stroke-width="3.2"/>
<path clip-path="url(#clip592)" d="M1987.93 1299.24 L1987.93 1347.24 L2035.93 1347.24 L2035.93 1299.24 L1987.93 1299.24 Z" fill="#e26f46" fill-rule="evenodd" fill-opacity="1" stroke="#000000" stroke-opacity="1" stroke-width="3.2"/>
<path clip-path="url(#clip592)" d="M1706.25 1235.82 L1706.25 1283.82 L1754.25 1283.82 L1754.25 1235.82 L1706.25 1235.82 Z" fill="#e26f46" fill-rule="evenodd" fill-opacity="1" stroke="#000000" stroke-opacity="1" stroke-width="3.2"/>
<path clip-path="url(#clip592)" d="M1424.58 1148.66 L1424.58 1196.66 L1472.58 1196.66 L1472.58 1148.66 L1424.58 1148.66 Z" fill="#e26f46" fill-rule="evenodd" fill-opacity="1" stroke="#000000" stroke-opacity="1" stroke-width="3.2"/>
<path clip-path="url(#clip592)" d="M1142.9 988.244 L1142.9 1036.24 L1190.9 1036.24 L1190.9 988.244 L1142.9 988.244 Z" fill="#e26f46" fill-rule="evenodd" fill-opacity="1" stroke="#000000" stroke-opacity="1" stroke-width="3.2"/>
<path clip-path="url(#clip592)" d="M861.223 846.505 L861.223 894.505 L909.223 894.505 L909.223 846.505 L861.223 846.505 Z" fill="#e26f46" fill-rule="evenodd" fill-opacity="1" stroke="#000000" stroke-opacity="1" stroke-width="3.2"/>
<path clip-path="url(#clip592)" d="M579.547 707.482 L579.547 755.482 L627.547 755.482 L627.547 707.482 L579.547 707.482 Z" fill="#e26f46" fill-rule="evenodd" fill-opacity="1" stroke="#000000" stroke-opacity="1" stroke-width="3.2"/>
<path clip-path="url(#clip592)" d="M297.871 552.953 L297.871 600.953 L345.871 600.953 L345.871 552.953 L297.871 552.953 Z" fill="#e26f46" fill-rule="evenodd" fill-opacity="1" stroke="#000000" stroke-opacity="1" stroke-width="3.2"/>
<polyline clip-path="url(#clip592)" style="stroke:#000000; stroke-linecap:round; stroke-linejoin:round; stroke-width:4; stroke-opacity:1; fill:none" points="2293.6,1371.65 2293.6,1371.64 "/>
<polyline clip-path="url(#clip592)" style="stroke:#000000; stroke-linecap:round; stroke-linejoin:round; stroke-width:4; stroke-opacity:1; fill:none" points="2011.93,1323.25 2011.93,1323.24 "/>
<polyline clip-path="url(#clip592)" style="stroke:#000000; stroke-linecap:round; stroke-linejoin:round; stroke-width:4; stroke-opacity:1; fill:none" points="1730.25,1259.83 1730.25,1259.81 "/>
<polyline clip-path="url(#clip592)" style="stroke:#000000; stroke-linecap:round; stroke-linejoin:round; stroke-width:4; stroke-opacity:1; fill:none" points="1448.58,1172.68 1448.58,1172.65 "/>
<polyline clip-path="url(#clip592)" style="stroke:#000000; stroke-linecap:round; stroke-linejoin:round; stroke-width:4; stroke-opacity:1; fill:none" points="1166.9,1012.26 1166.9,1012.22 "/>
<polyline clip-path="url(#clip592)" style="stroke:#000000; stroke-linecap:round; stroke-linejoin:round; stroke-width:4; stroke-opacity:1; fill:none" points="885.223,870.53 885.223,870.48 "/>
<polyline clip-path="url(#clip592)" style="stroke:#000000; stroke-linecap:round; stroke-linejoin:round; stroke-width:4; stroke-opacity:1; fill:none" points="603.547,731.511 603.547,731.452 "/>
<polyline clip-path="url(#clip592)" style="stroke:#000000; stroke-linecap:round; stroke-linejoin:round; stroke-width:4; stroke-opacity:1; fill:none" points="321.871,576.987 321.871,576.918 "/>
<line clip-path="url(#clip592)" x1="2317.6" y1="1371.65" x2="2269.6" y2="1371.65" style="stroke:#000000; stroke-width:4; stroke-opacity:1"/>
<line clip-path="url(#clip592)" x1="2317.6" y1="1371.64" x2="2269.6" y2="1371.64" style="stroke:#000000; stroke-width:4; stroke-opacity:1"/>
<line clip-path="url(#clip592)" x1="2035.93" y1="1323.25" x2="1987.93" y2="1323.25" style="stroke:#000000; stroke-width:4; stroke-opacity:1"/>
<line clip-path="url(#clip592)" x1="2035.93" y1="1323.24" x2="1987.93" y2="1323.24" style="stroke:#000000; stroke-width:4; stroke-opacity:1"/>
<line clip-path="url(#clip592)" x1="1754.25" y1="1259.83" x2="1706.25" y2="1259.83" style="stroke:#000000; stroke-width:4; stroke-opacity:1"/>
<line clip-path="url(#clip592)" x1="1754.25" y1="1259.81" x2="1706.25" y2="1259.81" style="stroke:#000000; stroke-width:4; stroke-opacity:1"/>
<line clip-path="url(#clip592)" x1="1472.58" y1="1172.68" x2="1424.58" y2="1172.68" style="stroke:#000000; stroke-width:4; stroke-opacity:1"/>
<line clip-path="url(#clip592)" x1="1472.58" y1="1172.65" x2="1424.58" y2="1172.65" style="stroke:#000000; stroke-width:4; stroke-opacity:1"/>
<line clip-path="url(#clip592)" x1="1190.9" y1="1012.26" x2="1142.9" y2="1012.26" style="stroke:#000000; stroke-width:4; stroke-opacity:1"/>
<line clip-path="url(#clip592)" x1="1190.9" y1="1012.22" x2="1142.9" y2="1012.22" style="stroke:#000000; stroke-width:4; stroke-opacity:1"/>
<line clip-path="url(#clip592)" x1="909.223" y1="870.53" x2="861.223" y2="870.53" style="stroke:#000000; stroke-width:4; stroke-opacity:1"/>
<line clip-path="url(#clip592)" x1="909.223" y1="870.48" x2="861.223" y2="870.48" style="stroke:#000000; stroke-width:4; stroke-opacity:1"/>
<line clip-path="url(#clip592)" x1="627.547" y1="731.511" x2="579.547" y2="731.511" style="stroke:#000000; stroke-width:4; stroke-opacity:1"/>
<line clip-path="url(#clip592)" x1="627.547" y1="731.452" x2="579.547" y2="731.452" style="stroke:#000000; stroke-width:4; stroke-opacity:1"/>
<line clip-path="url(#clip592)" x1="345.871" y1="576.987" x2="297.871" y2="576.987" style="stroke:#000000; stroke-width:4; stroke-opacity:1"/>
<line clip-path="url(#clip592)" x1="345.871" y1="576.918" x2="297.871" y2="576.918" style="stroke:#000000; stroke-width:4; stroke-opacity:1"/>
<polyline clip-path="url(#clip592)" style="stroke:#3da44d; stroke-linecap:round; stroke-linejoin:round; stroke-width:4; stroke-opacity:1; fill:none" points="2293.6,1363.16 2011.93,1283.04 1730.25,1105.7 1448.58,767.631 1166.9,617.456 885.223,457.387 603.547,391.164 321.871,268.448 "/>
<path clip-path="url(#clip592)" d="M2269.6 1339.16 L2269.6 1387.16 L2317.6 1387.16 L2317.6 1339.16 L2269.6 1339.16 Z" fill="#3da44d" fill-rule="evenodd" fill-opacity="1" stroke="#000000" stroke-opacity="1" stroke-width="3.2"/>
<path clip-path="url(#clip592)" d="M1987.93 1259.04 L1987.93 1307.04 L2035.93 1307.04 L2035.93 1259.04 L1987.93 1259.04 Z" fill="#3da44d" fill-rule="evenodd" fill-opacity="1" stroke="#000000" stroke-opacity="1" stroke-width="3.2"/>
<path clip-path="url(#clip592)" d="M1706.25 1081.7 L1706.25 1129.7 L1754.25 1129.7 L1754.25 1081.7 L1706.25 1081.7 Z" fill="#3da44d" fill-rule="evenodd" fill-opacity="1" stroke="#000000" stroke-opacity="1" stroke-width="3.2"/>
<path clip-path="url(#clip592)" d="M1424.58 743.631 L1424.58 791.631 L1472.58 791.631 L1472.58 743.631 L1424.58 743.631 Z" fill="#3da44d" fill-rule="evenodd" fill-opacity="1" stroke="#000000" stroke-opacity="1" stroke-width="3.2"/>
<path clip-path="url(#clip592)" d="M1142.9 593.456 L1142.9 641.456 L1190.9 641.456 L1190.9 593.456 L1142.9 593.456 Z" fill="#3da44d" fill-rule="evenodd" fill-opacity="1" stroke="#000000" stroke-opacity="1" stroke-width="3.2"/>
<path clip-path="url(#clip592)" d="M861.223 433.387 L861.223 481.387 L909.223 481.387 L909.223 433.387 L861.223 433.387 Z" fill="#3da44d" fill-rule="evenodd" fill-opacity="1" stroke="#000000" stroke-opacity="1" stroke-width="3.2"/>
<path clip-path="url(#clip592)" d="M579.547 367.164 L579.547 415.164 L627.547 415.164 L627.547 367.164 L579.547 367.164 Z" fill="#3da44d" fill-rule="evenodd" fill-opacity="1" stroke="#000000" stroke-opacity="1" stroke-width="3.2"/>
<path clip-path="url(#clip592)" d="M297.871 244.448 L297.871 292.448 L345.871 292.448 L345.871 244.448 L297.871 244.448 Z" fill="#3da44d" fill-rule="evenodd" fill-opacity="1" stroke="#000000" stroke-opacity="1" stroke-width="3.2"/>
<polyline clip-path="url(#clip592)" style="stroke:#000000; stroke-linecap:round; stroke-linejoin:round; stroke-width:4; stroke-opacity:1; fill:none" points="2293.6,1363.16 2293.6,1363.16 "/>
<polyline clip-path="url(#clip592)" style="stroke:#000000; stroke-linecap:round; stroke-linejoin:round; stroke-width:4; stroke-opacity:1; fill:none" points="2011.93,1283.04 2011.93,1283.03 "/>
<polyline clip-path="url(#clip592)" style="stroke:#000000; stroke-linecap:round; stroke-linejoin:round; stroke-width:4; stroke-opacity:1; fill:none" points="1730.25,1105.72 1730.25,1105.69 "/>
<polyline clip-path="url(#clip592)" style="stroke:#000000; stroke-linecap:round; stroke-linejoin:round; stroke-width:4; stroke-opacity:1; fill:none" points="1448.58,767.654 1448.58,767.608 "/>
<polyline clip-path="url(#clip592)" style="stroke:#000000; stroke-linecap:round; stroke-linejoin:round; stroke-width:4; stroke-opacity:1; fill:none" points="1166.9,617.483 1166.9,617.428 "/>
<polyline clip-path="url(#clip592)" style="stroke:#000000; stroke-linecap:round; stroke-linejoin:round; stroke-width:4; stroke-opacity:1; fill:none" points="885.223,457.418 885.223,457.356 "/>
<polyline clip-path="url(#clip592)" style="stroke:#000000; stroke-linecap:round; stroke-linejoin:round; stroke-width:4; stroke-opacity:1; fill:none" points="603.547,391.197 603.547,391.131 "/>
<polyline clip-path="url(#clip592)" style="stroke:#000000; stroke-linecap:round; stroke-linejoin:round; stroke-width:4; stroke-opacity:1; fill:none" points="321.871,268.484 321.871,268.412 "/>
<line clip-path="url(#clip592)" x1="2317.6" y1="1363.16" x2="2269.6" y2="1363.16" style="stroke:#000000; stroke-width:4; stroke-opacity:1"/>
<line clip-path="url(#clip592)" x1="2317.6" y1="1363.16" x2="2269.6" y2="1363.16" style="stroke:#000000; stroke-width:4; stroke-opacity:1"/>
<line clip-path="url(#clip592)" x1="2035.93" y1="1283.04" x2="1987.93" y2="1283.04" style="stroke:#000000; stroke-width:4; stroke-opacity:1"/>
<line clip-path="url(#clip592)" x1="2035.93" y1="1283.03" x2="1987.93" y2="1283.03" style="stroke:#000000; stroke-width:4; stroke-opacity:1"/>
<line clip-path="url(#clip592)" x1="1754.25" y1="1105.72" x2="1706.25" y2="1105.72" style="stroke:#000000; stroke-width:4; stroke-opacity:1"/>
<line clip-path="url(#clip592)" x1="1754.25" y1="1105.69" x2="1706.25" y2="1105.69" style="stroke:#000000; stroke-width:4; stroke-opacity:1"/>
<line clip-path="url(#clip592)" x1="1472.58" y1="767.654" x2="1424.58" y2="767.654" style="stroke:#000000; stroke-width:4; stroke-opacity:1"/>
<line clip-path="url(#clip592)" x1="1472.58" y1="767.608" x2="1424.58" y2="767.608" style="stroke:#000000; stroke-width:4; stroke-opacity:1"/>
<line clip-path="url(#clip592)" x1="1190.9" y1="617.483" x2="1142.9" y2="617.483" style="stroke:#000000; stroke-width:4; stroke-opacity:1"/>
<line clip-path="url(#clip592)" x1="1190.9" y1="617.428" x2="1142.9" y2="617.428" style="stroke:#000000; stroke-width:4; stroke-opacity:1"/>
<line clip-path="url(#clip592)" x1="909.223" y1="457.418" x2="861.223" y2="457.418" style="stroke:#000000; stroke-width:4; stroke-opacity:1"/>
<line clip-path="url(#clip592)" x1="909.223" y1="457.356" x2="861.223" y2="457.356" style="stroke:#000000; stroke-width:4; stroke-opacity:1"/>
<line clip-path="url(#clip592)" x1="627.547" y1="391.197" x2="579.547" y2="391.197" style="stroke:#000000; stroke-width:4; stroke-opacity:1"/>
<line clip-path="url(#clip592)" x1="627.547" y1="391.131" x2="579.547" y2="391.131" style="stroke:#000000; stroke-width:4; stroke-opacity:1"/>
<line clip-path="url(#clip592)" x1="345.871" y1="268.484" x2="297.871" y2="268.484" style="stroke:#000000; stroke-width:4; stroke-opacity:1"/>
<line clip-path="url(#clip592)" x1="345.871" y1="268.412" x2="297.871" y2="268.412" style="stroke:#000000; stroke-width:4; stroke-opacity:1"/>
<polyline clip-path="url(#clip592)" style="stroke:#c271d2; stroke-linecap:round; stroke-linejoin:round; stroke-width:4; stroke-opacity:1; fill:none" points="2293.6,1357.49 2011.93,1243.19 1730.25,963.678 1448.58,765.65 1166.9,606.982 885.223,447.928 603.547,372.255 321.871,372.438 "/>
<path clip-path="url(#clip592)" d="M2269.6 1333.49 L2269.6 1381.49 L2317.6 1381.49 L2317.6 1333.49 L2269.6 1333.49 Z" fill="#c271d2" fill-rule="evenodd" fill-opacity="1" stroke="#000000" stroke-opacity="1" stroke-width="3.2"/>
<path clip-path="url(#clip592)" d="M1987.93 1219.19 L1987.93 1267.19 L2035.93 1267.19 L2035.93 1219.19 L1987.93 1219.19 Z" fill="#c271d2" fill-rule="evenodd" fill-opacity="1" stroke="#000000" stroke-opacity="1" stroke-width="3.2"/>
<path clip-path="url(#clip592)" d="M1706.25 939.678 L1706.25 987.678 L1754.25 987.678 L1754.25 939.678 L1706.25 939.678 Z" fill="#c271d2" fill-rule="evenodd" fill-opacity="1" stroke="#000000" stroke-opacity="1" stroke-width="3.2"/>
<path clip-path="url(#clip592)" d="M1424.58 741.65 L1424.58 789.65 L1472.58 789.65 L1472.58 741.65 L1424.58 741.65 Z" fill="#c271d2" fill-rule="evenodd" fill-opacity="1" stroke="#000000" stroke-opacity="1" stroke-width="3.2"/>
<path clip-path="url(#clip592)" d="M1142.9 582.982 L1142.9 630.982 L1190.9 630.982 L1190.9 582.982 L1142.9 582.982 Z" fill="#c271d2" fill-rule="evenodd" fill-opacity="1" stroke="#000000" stroke-opacity="1" stroke-width="3.2"/>
<path clip-path="url(#clip592)" d="M861.223 423.928 L861.223 471.928 L909.223 471.928 L909.223 423.928 L861.223 423.928 Z" fill="#c271d2" fill-rule="evenodd" fill-opacity="1" stroke="#000000" stroke-opacity="1" stroke-width="3.2"/>
<path clip-path="url(#clip592)" d="M579.547 348.255 L579.547 396.255 L627.547 396.255 L627.547 348.255 L579.547 348.255 Z" fill="#c271d2" fill-rule="evenodd" fill-opacity="1" stroke="#000000" stroke-opacity="1" stroke-width="3.2"/>
<path clip-path="url(#clip592)" d="M297.871 348.438 L297.871 396.438 L345.871 396.438 L345.871 348.438 L297.871 348.438 Z" fill="#c271d2" fill-rule="evenodd" fill-opacity="1" stroke="#000000" stroke-opacity="1" stroke-width="3.2"/>
<polyline clip-path="url(#clip592)" style="stroke:#000000; stroke-linecap:round; stroke-linejoin:round; stroke-width:4; stroke-opacity:1; fill:none" points="2293.6,1357.5 2293.6,1357.49 "/>
<polyline clip-path="url(#clip592)" style="stroke:#000000; stroke-linecap:round; stroke-linejoin:round; stroke-width:4; stroke-opacity:1; fill:none" points="2011.93,1243.2 2011.93,1243.18 "/>
<polyline clip-path="url(#clip592)" style="stroke:#000000; stroke-linecap:round; stroke-linejoin:round; stroke-width:4; stroke-opacity:1; fill:none" points="1730.25,963.696 1730.25,963.66 "/>
<polyline clip-path="url(#clip592)" style="stroke:#000000; stroke-linecap:round; stroke-linejoin:round; stroke-width:4; stroke-opacity:1; fill:none" points="1448.58,765.674 1448.58,765.627 "/>
<polyline clip-path="url(#clip592)" style="stroke:#000000; stroke-linecap:round; stroke-linejoin:round; stroke-width:4; stroke-opacity:1; fill:none" points="1166.9,607.01 1166.9,606.954 "/>
<polyline clip-path="url(#clip592)" style="stroke:#000000; stroke-linecap:round; stroke-linejoin:round; stroke-width:4; stroke-opacity:1; fill:none" points="885.223,447.959 885.223,447.897 "/>
<polyline clip-path="url(#clip592)" style="stroke:#000000; stroke-linecap:round; stroke-linejoin:round; stroke-width:4; stroke-opacity:1; fill:none" points="603.547,372.288 603.547,372.221 "/>
<polyline clip-path="url(#clip592)" style="stroke:#000000; stroke-linecap:round; stroke-linejoin:round; stroke-width:4; stroke-opacity:1; fill:none" points="321.871,372.473 321.871,372.402 "/>
<line clip-path="url(#clip592)" x1="2317.6" y1="1357.5" x2="2269.6" y2="1357.5" style="stroke:#000000; stroke-width:4; stroke-opacity:1"/>
<line clip-path="url(#clip592)" x1="2317.6" y1="1357.49" x2="2269.6" y2="1357.49" style="stroke:#000000; stroke-width:4; stroke-opacity:1"/>
<line clip-path="url(#clip592)" x1="2035.93" y1="1243.2" x2="1987.93" y2="1243.2" style="stroke:#000000; stroke-width:4; stroke-opacity:1"/>
<line clip-path="url(#clip592)" x1="2035.93" y1="1243.18" x2="1987.93" y2="1243.18" style="stroke:#000000; stroke-width:4; stroke-opacity:1"/>
<line clip-path="url(#clip592)" x1="1754.25" y1="963.696" x2="1706.25" y2="963.696" style="stroke:#000000; stroke-width:4; stroke-opacity:1"/>
<line clip-path="url(#clip592)" x1="1754.25" y1="963.66" x2="1706.25" y2="963.66" style="stroke:#000000; stroke-width:4; stroke-opacity:1"/>
<line clip-path="url(#clip592)" x1="1472.58" y1="765.674" x2="1424.58" y2="765.674" style="stroke:#000000; stroke-width:4; stroke-opacity:1"/>
<line clip-path="url(#clip592)" x1="1472.58" y1="765.627" x2="1424.58" y2="765.627" style="stroke:#000000; stroke-width:4; stroke-opacity:1"/>
<line clip-path="url(#clip592)" x1="1190.9" y1="607.01" x2="1142.9" y2="607.01" style="stroke:#000000; stroke-width:4; stroke-opacity:1"/>
<line clip-path="url(#clip592)" x1="1190.9" y1="606.954" x2="1142.9" y2="606.954" style="stroke:#000000; stroke-width:4; stroke-opacity:1"/>
<line clip-path="url(#clip592)" x1="909.223" y1="447.959" x2="861.223" y2="447.959" style="stroke:#000000; stroke-width:4; stroke-opacity:1"/>
<line clip-path="url(#clip592)" x1="909.223" y1="447.897" x2="861.223" y2="447.897" style="stroke:#000000; stroke-width:4; stroke-opacity:1"/>
<line clip-path="url(#clip592)" x1="627.547" y1="372.288" x2="579.547" y2="372.288" style="stroke:#000000; stroke-width:4; stroke-opacity:1"/>
<line clip-path="url(#clip592)" x1="627.547" y1="372.221" x2="579.547" y2="372.221" style="stroke:#000000; stroke-width:4; stroke-opacity:1"/>
<line clip-path="url(#clip592)" x1="345.871" y1="372.473" x2="297.871" y2="372.473" style="stroke:#000000; stroke-width:4; stroke-opacity:1"/>
<line clip-path="url(#clip592)" x1="345.871" y1="372.402" x2="297.871" y2="372.402" style="stroke:#000000; stroke-width:4; stroke-opacity:1"/>
<path clip-path="url(#clip590)" d="M1842.42 546.277 L2283.09 546.277 L2283.09 92.6766 L1842.42 92.6766  Z" fill="#ffffff" fill-rule="evenodd" fill-opacity="1"/>
<polyline clip-path="url(#clip590)" style="stroke:#000000; stroke-linecap:round; stroke-linejoin:round; stroke-width:4; stroke-opacity:0; fill:none" points="1842.42,546.277 2283.09,546.277 2283.09,92.6766 1842.42,92.6766 1842.42,546.277 "/>
<polyline clip-path="url(#clip590)" style="stroke:#009af9; stroke-linecap:round; stroke-linejoin:round; stroke-width:7; stroke-opacity:1; fill:none" points="1865.64,183.397 2004.97,183.397 "/>
<path clip-path="url(#clip590)" d="M1923.02 171.11 L1923.02 195.684 L1947.59 195.684 L1947.59 171.11 L1923.02 171.11 Z" fill="#009af9" fill-rule="evenodd" fill-opacity="1" stroke="#000000" stroke-opacity="1" stroke-width="5.51385"/>
<path clip-path="url(#clip590)" d="M2085.3 154.706 Q2085.3 155.485 2085.13 156.141 L2082.84 170.733 Q2082.71 171.84 2082.47 172.249 Q2082.26 172.659 2081.61 172.659 Q2080.58 172.659 2080.58 171.594 Q2080.58 170.979 2080.83 169.995 Q2081.52 165.363 2081.52 163.273 Q2081.52 161.879 2081.24 160.854 Q2080.99 159.789 2080.58 159.051 Q2080.21 158.313 2079.35 157.821 Q2078.49 157.329 2077.67 157.042 Q2076.85 156.755 2075.38 156.632 Q2073.9 156.469 2072.63 156.428 Q2071.36 156.387 2069.27 156.387 Q2064.72 156.387 2063.98 156.551 Q2063.2 156.755 2062.79 157.37 Q2062.42 157.944 2062.01 159.666 L2050.86 204.221 L2050.54 205.984 Q2050.54 206.967 2051.15 207.295 Q2051.77 207.623 2053.65 207.828 Q2056.36 208.033 2059.02 208.033 Q2059.1 208.033 2059.27 208.033 Q2060.17 208.033 2060.54 208.074 Q2060.91 208.074 2061.28 208.156 Q2061.64 208.238 2061.73 208.443 Q2061.85 208.607 2061.85 208.935 Q2061.85 209.714 2061.52 210.123 Q2061.19 210.492 2060.87 210.574 Q2060.58 210.615 2060.01 210.615 Q2058.86 210.615 2056.4 210.533 Q2053.94 210.451 2052.71 210.451 L2045.74 210.369 L2038.61 210.451 Q2037.5 210.451 2035.17 210.533 Q2032.83 210.615 2031.72 210.615 Q2030.29 210.615 2030.29 209.591 Q2030.29 208.443 2030.82 208.238 Q2031.39 208.033 2033.81 208.033 Q2037.22 208.033 2039.06 207.869 Q2040.9 207.705 2041.89 207.131 Q2042.91 206.557 2043.2 205.984 Q2043.49 205.369 2043.81 203.975 L2055.09 159.174 Q2055.41 158.19 2055.41 157.411 Q2055.41 157.001 2055.29 156.837 Q2055.21 156.673 2054.68 156.551 Q2054.14 156.387 2053.04 156.387 L2049.76 156.387 Q2046.4 156.387 2044.31 156.551 Q2042.26 156.673 2040.29 157.288 Q2038.36 157.903 2037.22 158.764 Q2036.11 159.625 2034.88 161.387 Q2033.65 163.15 2032.75 165.281 Q2031.89 167.413 2030.66 170.897 Q2030.25 172.044 2030 172.372 Q2029.8 172.659 2029.22 172.659 Q2028.81 172.659 2028.48 172.413 Q2028.2 172.126 2028.2 171.758 Q2028.61 170.405 2028.69 170.241 L2033.73 155.444 Q2034.14 154.255 2034.51 154.05 Q2034.92 153.804 2036.44 153.804 L2083 153.804 Q2083.74 153.804 2083.98 153.804 Q2084.23 153.804 2084.64 153.886 Q2085.05 153.968 2085.17 154.173 Q2085.3 154.378 2085.3 154.706 Z" fill="#000000" fill-rule="nonzero" fill-opacity="1" /><path clip-path="url(#clip590)" d="M2100.04 197.868 Q2100.12 196.843 2101.72 196.843 L2153.16 196.843 Q2155.58 196.843 2155.62 197.786 Q2155.62 198.81 2153.33 198.769 L2102.3 198.769 Q2100.04 198.81 2100.04 197.868 M2100.04 181.472 Q2100.04 180.447 2101.8 180.488 L2153.08 180.488 Q2155.58 180.488 2155.62 181.472 Q2155.62 182.415 2153.49 182.415 L2101.72 182.415 Q2100.04 182.415 2100.04 181.472 Z" fill="#000000" fill-rule="nonzero" fill-opacity="1" /><path clip-path="url(#clip590)" d="M2188 183.767 Q2188 171.43 2191.12 164.707 Q2195.46 154.706 2205.71 154.706 Q2207.88 154.706 2210.14 155.321 Q2212.43 155.895 2215.3 158.149 Q2218.21 160.404 2219.97 164.093 Q2223.33 171.225 2223.33 183.767 Q2223.33 196.023 2220.22 202.704 Q2215.67 212.46 2205.63 212.46 Q2201.86 212.46 2198 210.533 Q2194.19 208.607 2191.77 203.975 Q2188 197.048 2188 183.767 M2194.97 182.743 Q2194.97 195.408 2195.87 200.45 Q2196.9 205.902 2199.68 208.279 Q2202.51 210.615 2205.63 210.615 Q2208.99 210.615 2211.77 208.115 Q2214.6 205.574 2215.46 200.122 Q2216.41 194.753 2216.37 182.743 Q2216.37 171.061 2215.55 166.388 Q2214.44 160.936 2211.49 158.764 Q2208.58 156.551 2205.63 156.551 Q2204.52 156.551 2203.33 156.878 Q2202.18 157.206 2200.5 158.149 Q2198.82 159.092 2197.51 161.428 Q2196.24 163.765 2195.62 167.29 Q2194.97 171.84 2194.97 182.743 Z" fill="#000000" fill-rule="nonzero" fill-opacity="1" /><polyline clip-path="url(#clip590)" style="stroke:#e26f46; stroke-linecap:round; stroke-linejoin:round; stroke-width:7; stroke-opacity:1; fill:none" points="1865.64,274.117 2004.97,274.117 "/>
<path clip-path="url(#clip590)" d="M1923.02 261.83 L1923.02 286.404 L1947.59 286.404 L1947.59 261.83 L1923.02 261.83 Z" fill="#e26f46" fill-rule="evenodd" fill-opacity="1" stroke="#000000" stroke-opacity="1" stroke-width="5.51385"/>
<path clip-path="url(#clip590)" d="M2073.9 247.21 Q2073.9 248.276 2073.45 250.325 Q2072.02 256.105 2066.65 260.081 Q2065.74 260.819 2064.15 261.761 Q2066.07 263.032 2067.75 265.368 Q2070.25 269.221 2070.25 274.427 Q2070.25 276.845 2069.6 279.797 Q2067.75 286.642 2061.28 291.561 Q2054.76 296.356 2047.01 296.356 Q2042.83 296.356 2039.96 294.143 Q2037.13 291.888 2036.03 288.117 L2030.33 311.112 Q2030.21 311.686 2029.47 311.686 L2029.06 311.686 Q2028.2 311.686 2028.2 310.702 L2041.15 259.056 Q2042.01 255.572 2043.4 252.293 Q2044.8 249.014 2046.72 246.062 Q2048.69 243.111 2050.95 240.939 Q2053.2 238.725 2055.99 237.455 Q2058.78 236.143 2061.73 236.143 Q2067.92 236.143 2071.44 240.365 Q2073.9 243.357 2073.9 247.21 M2069.19 245.734 Q2069.19 243.193 2068.16 241.431 Q2066.07 238.069 2061.64 238.069 Q2058.98 238.069 2056.44 239.299 Q2053.94 240.488 2051.93 242.537 Q2049.92 244.587 2048.2 247.374 Q2046.48 250.161 2045.21 253.195 Q2043.98 256.187 2043.16 259.466 L2038.12 279.797 Q2037.63 281.969 2037.63 283.896 Q2037.63 288.486 2040.17 291.479 Q2042.71 294.471 2047.09 294.471 Q2052.91 294.471 2057.91 290.126 Q2062.26 286.232 2064.06 279.387 Q2065.09 275.083 2065.09 272.091 Q2065.09 268.811 2063.9 266.27 Q2063.04 264.221 2061.36 262.991 Q2058.24 264.098 2055.09 264.098 Q2053.57 264.098 2052.75 264.057 Q2051.97 264.016 2050.82 263.852 Q2049.72 263.688 2049.18 263.237 Q2048.69 262.786 2048.69 262.089 Q2048.69 261.679 2048.77 261.515 Q2048.94 260.86 2049.47 260.409 Q2050 259.958 2050.62 259.753 Q2051.23 259.507 2052.26 259.384 Q2053.32 259.261 2054.02 259.261 Q2054.72 259.22 2055.91 259.22 Q2058.69 259.22 2061.52 260.327 Q2062.59 259.753 2063.74 258.728 Q2067.38 255.326 2068.61 249.915 Q2069.19 247.907 2069.19 245.734 M2058.86 261.597 Q2057.14 261.146 2055.82 261.146 Q2051.03 261.146 2050.78 261.925 Q2050.78 262.007 2050.95 262.089 Q2051.11 262.13 2051.48 262.171 Q2051.89 262.171 2052.22 262.212 Q2052.59 262.253 2053.2 262.253 Q2053.82 262.253 2054.14 262.253 Q2054.51 262.253 2055.17 262.253 Q2056.81 262.253 2058.86 261.597 Z" fill="#000000" fill-rule="nonzero" fill-opacity="1" /><path clip-path="url(#clip590)" d="M2098.54 282.666 Q2098.62 281.641 2100.22 281.641 L2151.66 281.641 Q2154.08 281.641 2154.12 282.584 Q2154.12 283.609 2151.82 283.568 L2100.79 283.568 Q2098.54 283.609 2098.54 282.666 M2098.54 266.27 Q2098.54 265.245 2100.3 265.286 L2151.58 265.286 Q2154.08 265.286 2154.12 266.27 Q2154.12 267.213 2151.99 267.213 L2100.22 267.213 Q2098.54 267.213 2098.54 266.27 Z" fill="#000000" fill-rule="nonzero" fill-opacity="1" /><path clip-path="url(#clip590)" d="M2186.5 281.887 Q2186.5 279.387 2187.85 278.444 Q2189.2 277.46 2190.64 277.46 Q2192.57 277.46 2193.67 278.69 Q2194.82 279.879 2194.82 281.559 Q2194.82 283.24 2193.67 284.469 Q2192.57 285.658 2190.64 285.658 Q2189.7 285.658 2189.2 285.494 Q2190.31 289.347 2193.67 292.134 Q2197.07 294.922 2201.54 294.922 Q2207.16 294.922 2210.52 289.47 Q2212.53 285.945 2212.53 277.952 Q2212.53 270.902 2211.01 267.377 Q2208.67 262.007 2203.88 262.007 Q2197.07 262.007 2193.06 267.869 Q2192.57 268.607 2191.99 268.647 Q2191.17 268.647 2190.97 268.197 Q2190.8 267.705 2190.8 266.434 L2190.8 241.595 Q2190.8 239.586 2191.62 239.586 Q2191.95 239.586 2192.65 239.832 Q2197.93 242.168 2203.8 242.209 Q2209.82 242.209 2215.23 239.75 Q2215.64 239.504 2215.89 239.504 Q2216.71 239.504 2216.75 240.447 Q2216.75 240.775 2216.05 241.759 Q2215.4 242.701 2213.96 243.972 Q2212.53 245.202 2210.68 246.39 Q2208.84 247.579 2206.13 248.399 Q2203.47 249.178 2200.52 249.178 Q2196.99 249.178 2193.38 248.071 L2193.38 264.426 Q2197.73 260.163 2204.04 260.163 Q2210.76 260.163 2215.4 265.573 Q2220.03 270.984 2220.03 278.526 Q2220.03 286.437 2214.54 291.847 Q2209.08 297.258 2201.71 297.258 Q2194.98 297.258 2190.72 292.462 Q2186.5 287.667 2186.5 281.887 Z" fill="#000000" fill-rule="nonzero" fill-opacity="1" /><polyline clip-path="url(#clip590)" style="stroke:#3da44d; stroke-linecap:round; stroke-linejoin:round; stroke-width:7; stroke-opacity:1; fill:none" points="1865.64,364.837 2004.97,364.837 "/>
<path clip-path="url(#clip590)" d="M1923.02 352.55 L1923.02 377.124 L1947.59 377.124 L1947.59 352.55 L1923.02 352.55 Z" fill="#3da44d" fill-rule="evenodd" fill-opacity="1" stroke="#000000" stroke-opacity="1" stroke-width="5.51385"/>
<path clip-path="url(#clip590)" d="M2073.9 337.93 Q2073.9 338.996 2073.45 341.045 Q2072.02 346.825 2066.65 350.801 Q2065.74 351.539 2064.15 352.481 Q2066.07 353.752 2067.75 356.088 Q2070.25 359.941 2070.25 365.147 Q2070.25 367.565 2069.6 370.517 Q2067.75 377.362 2061.28 382.281 Q2054.76 387.076 2047.01 387.076 Q2042.83 387.076 2039.96 384.863 Q2037.13 382.608 2036.03 378.837 L2030.33 401.832 Q2030.21 402.406 2029.47 402.406 L2029.06 402.406 Q2028.2 402.406 2028.2 401.422 L2041.15 349.776 Q2042.01 346.292 2043.4 343.013 Q2044.8 339.734 2046.72 336.782 Q2048.69 333.831 2050.95 331.659 Q2053.2 329.445 2055.99 328.175 Q2058.78 326.863 2061.73 326.863 Q2067.92 326.863 2071.44 331.085 Q2073.9 334.077 2073.9 337.93 M2069.19 336.454 Q2069.19 333.913 2068.16 332.151 Q2066.07 328.789 2061.64 328.789 Q2058.98 328.789 2056.44 330.019 Q2053.94 331.208 2051.93 333.257 Q2049.92 335.307 2048.2 338.094 Q2046.48 340.881 2045.21 343.915 Q2043.98 346.907 2043.16 350.186 L2038.12 370.517 Q2037.63 372.689 2037.63 374.616 Q2037.63 379.206 2040.17 382.199 Q2042.71 385.191 2047.09 385.191 Q2052.91 385.191 2057.91 380.846 Q2062.26 376.952 2064.06 370.107 Q2065.09 365.803 2065.09 362.811 Q2065.09 359.531 2063.9 356.99 Q2063.04 354.941 2061.36 353.711 Q2058.24 354.818 2055.09 354.818 Q2053.57 354.818 2052.75 354.777 Q2051.97 354.736 2050.82 354.572 Q2049.72 354.408 2049.18 353.957 Q2048.69 353.506 2048.69 352.809 Q2048.69 352.399 2048.77 352.235 Q2048.94 351.58 2049.47 351.129 Q2050 350.678 2050.62 350.473 Q2051.23 350.227 2052.26 350.104 Q2053.32 349.981 2054.02 349.981 Q2054.72 349.94 2055.91 349.94 Q2058.69 349.94 2061.52 351.047 Q2062.59 350.473 2063.74 349.448 Q2067.38 346.046 2068.61 340.635 Q2069.19 338.627 2069.19 336.454 M2058.86 352.317 Q2057.14 351.866 2055.82 351.866 Q2051.03 351.866 2050.78 352.645 Q2050.78 352.727 2050.95 352.809 Q2051.11 352.85 2051.48 352.891 Q2051.89 352.891 2052.22 352.932 Q2052.59 352.973 2053.2 352.973 Q2053.82 352.973 2054.14 352.973 Q2054.51 352.973 2055.17 352.973 Q2056.81 352.973 2058.86 352.317 Z" fill="#000000" fill-rule="nonzero" fill-opacity="1" /><path clip-path="url(#clip590)" d="M2098.54 373.386 Q2098.62 372.361 2100.22 372.361 L2151.66 372.361 Q2154.08 372.361 2154.12 373.304 Q2154.12 374.329 2151.82 374.288 L2100.79 374.288 Q2098.54 374.329 2098.54 373.386 M2098.54 356.99 Q2098.54 355.965 2100.3 356.006 L2151.58 356.006 Q2154.08 356.006 2154.12 356.99 Q2154.12 357.933 2151.99 357.933 L2100.22 357.933 Q2098.54 357.933 2098.54 356.99 Z" fill="#000000" fill-rule="nonzero" fill-opacity="1" /><path clip-path="url(#clip590)" d="M2186.5 373.468 Q2186.5 364.081 2198.59 358.015 Q2193.38 354.49 2192.44 353.465 Q2188.75 349.366 2188.75 344.242 Q2188.75 338.381 2193.18 334.323 Q2197.65 330.224 2203.96 330.224 Q2209.99 330.224 2214.54 333.708 Q2219.09 337.192 2219.09 342.726 Q2219.09 350.514 2208.92 355.76 Q2215.64 359.941 2217.24 361.704 Q2221.34 366.254 2221.34 372.033 Q2221.34 378.755 2216.17 383.387 Q2211.01 387.978 2203.88 387.978 Q2196.91 387.978 2191.7 383.92 Q2186.5 379.862 2186.5 373.468 M2190.68 373.468 Q2190.68 378.673 2194.57 382.158 Q2198.51 385.642 2203.96 385.642 Q2209.25 385.642 2213.18 382.608 Q2217.16 379.575 2217.16 375.066 Q2217.16 373.304 2216.54 371.787 Q2215.97 370.271 2214.78 369.082 Q2213.63 367.852 2212.9 367.319 Q2212.2 366.746 2210.85 365.803 L2200.52 359.286 Q2190.68 364.737 2190.68 373.468 M2192.44 340.963 Q2192.44 344.98 2196.66 347.768 L2207.08 354.49 Q2215.4 349.612 2215.4 342.726 Q2215.4 338.258 2211.99 335.307 Q2208.59 332.315 2203.88 332.315 Q2199.25 332.315 2195.84 334.774 Q2192.44 337.192 2192.44 340.963 Z" fill="#000000" fill-rule="nonzero" fill-opacity="1" /><polyline clip-path="url(#clip590)" style="stroke:#c271d2; stroke-linecap:round; stroke-linejoin:round; stroke-width:7; stroke-opacity:1; fill:none" points="1865.64,455.557 2004.97,455.557 "/>
<path clip-path="url(#clip590)" d="M1923.02 443.27 L1923.02 467.844 L1947.59 467.844 L1947.59 443.27 L1923.02 443.27 Z" fill="#c271d2" fill-rule="evenodd" fill-opacity="1" stroke="#000000" stroke-opacity="1" stroke-width="5.51385"/>
<path clip-path="url(#clip590)" d="M2073.9 428.65 Q2073.9 429.716 2073.45 431.765 Q2072.02 437.545 2066.65 441.521 Q2065.74 442.259 2064.15 443.201 Q2066.07 444.472 2067.75 446.808 Q2070.25 450.661 2070.25 455.867 Q2070.25 458.285 2069.6 461.237 Q2067.75 468.082 2061.28 473.001 Q2054.76 477.796 2047.01 477.796 Q2042.83 477.796 2039.96 475.583 Q2037.13 473.328 2036.03 469.557 L2030.33 492.552 Q2030.21 493.126 2029.47 493.126 L2029.06 493.126 Q2028.2 493.126 2028.2 492.142 L2041.15 440.496 Q2042.01 437.012 2043.4 433.733 Q2044.8 430.454 2046.72 427.502 Q2048.69 424.551 2050.95 422.379 Q2053.2 420.165 2055.99 418.895 Q2058.78 417.583 2061.73 417.583 Q2067.92 417.583 2071.44 421.805 Q2073.9 424.797 2073.9 428.65 M2069.19 427.174 Q2069.19 424.633 2068.16 422.871 Q2066.07 419.509 2061.64 419.509 Q2058.98 419.509 2056.44 420.739 Q2053.94 421.928 2051.93 423.977 Q2049.92 426.027 2048.2 428.814 Q2046.48 431.601 2045.21 434.635 Q2043.98 437.627 2043.16 440.906 L2038.12 461.237 Q2037.63 463.409 2037.63 465.336 Q2037.63 469.926 2040.17 472.919 Q2042.71 475.911 2047.09 475.911 Q2052.91 475.911 2057.91 471.566 Q2062.26 467.672 2064.06 460.827 Q2065.09 456.523 2065.09 453.531 Q2065.09 450.251 2063.9 447.71 Q2063.04 445.661 2061.36 444.431 Q2058.24 445.538 2055.09 445.538 Q2053.57 445.538 2052.75 445.497 Q2051.97 445.456 2050.82 445.292 Q2049.72 445.128 2049.18 444.677 Q2048.69 444.226 2048.69 443.529 Q2048.69 443.119 2048.77 442.955 Q2048.94 442.3 2049.47 441.849 Q2050 441.398 2050.62 441.193 Q2051.23 440.947 2052.26 440.824 Q2053.32 440.701 2054.02 440.701 Q2054.72 440.66 2055.91 440.66 Q2058.69 440.66 2061.52 441.767 Q2062.59 441.193 2063.74 440.168 Q2067.38 436.766 2068.61 431.355 Q2069.19 429.347 2069.19 427.174 M2058.86 443.037 Q2057.14 442.586 2055.82 442.586 Q2051.03 442.586 2050.78 443.365 Q2050.78 443.447 2050.95 443.529 Q2051.11 443.57 2051.48 443.611 Q2051.89 443.611 2052.22 443.652 Q2052.59 443.693 2053.2 443.693 Q2053.82 443.693 2054.14 443.693 Q2054.51 443.693 2055.17 443.693 Q2056.81 443.693 2058.86 443.037 Z" fill="#000000" fill-rule="nonzero" fill-opacity="1" /><path clip-path="url(#clip590)" d="M2098.54 464.106 Q2098.62 463.081 2100.22 463.081 L2151.66 463.081 Q2154.08 463.081 2154.12 464.024 Q2154.12 465.049 2151.82 465.008 L2100.79 465.008 Q2098.54 465.049 2098.54 464.106 M2098.54 447.71 Q2098.54 446.685 2100.3 446.726 L2151.58 446.726 Q2154.08 446.726 2154.12 447.71 Q2154.12 448.653 2151.99 448.653 L2100.22 448.653 Q2098.54 448.653 2098.54 447.71 Z" fill="#000000" fill-rule="nonzero" fill-opacity="1" /><path clip-path="url(#clip590)" d="M2186.5 428.937 L2186.5 426.314 Q2196.58 426.314 2201.79 420.944 Q2203.22 420.944 2203.47 421.272 Q2203.71 421.6 2203.71 423.117 L2203.71 470.213 Q2203.71 472.714 2204.94 473.492 Q2206.17 474.271 2211.54 474.271 L2214.21 474.271 L2214.21 476.853 Q2211.26 476.608 2200.6 476.608 Q2189.94 476.608 2187.03 476.853 L2187.03 474.271 L2189.7 474.271 Q2194.98 474.271 2196.25 473.533 Q2197.52 472.755 2197.52 470.213 L2197.52 426.724 Q2193.14 428.937 2186.5 428.937 Z" fill="#000000" fill-rule="nonzero" fill-opacity="1" /><path clip-path="url(#clip590)" d="M2218.3 450.006 Q2218.3 437.668 2221.41 430.946 Q2225.76 420.944 2236 420.944 Q2238.17 420.944 2240.43 421.559 Q2242.72 422.133 2245.59 424.387 Q2248.5 426.642 2250.27 430.331 Q2253.63 437.463 2253.63 450.006 Q2253.63 462.261 2250.51 468.943 Q2245.96 478.698 2235.92 478.698 Q2232.15 478.698 2228.3 476.772 Q2224.48 474.845 2222.07 470.213 Q2218.3 463.286 2218.3 450.006 M2225.26 448.981 Q2225.26 461.646 2226.17 466.688 Q2227.19 472.14 2229.98 474.517 Q2232.81 476.853 2235.92 476.853 Q2239.28 476.853 2242.07 474.353 Q2244.9 471.812 2245.76 466.36 Q2246.7 460.991 2246.66 448.981 Q2246.66 437.299 2245.84 432.626 Q2244.73 427.174 2241.78 425.002 Q2238.87 422.789 2235.92 422.789 Q2234.81 422.789 2233.63 423.117 Q2232.48 423.444 2230.8 424.387 Q2229.12 425.33 2227.8 427.666 Q2226.53 430.003 2225.92 433.528 Q2225.26 438.078 2225.26 448.981 Z" fill="#000000" fill-rule="nonzero" fill-opacity="1" /></svg>
