<?xml version="1.0" encoding="utf-8"?>
<svg xmlns="http://www.w3.org/2000/svg" xmlns:xlink="http://www.w3.org/1999/xlink" width="600" height="400" viewBox="0 0 2400 1600">
<defs>
  <clipPath id="clip460">
    <rect x="0" y="0" width="2400" height="1600"/>
  </clipPath>
</defs>
<path clip-path="url(#clip460)" d="M0 1600 L2400 1600 L2400 0 L0 0  Z" fill="#ffffff" fill-rule="evenodd" fill-opacity="1"/>
<defs>
  <clipPath id="clip461">
    <rect x="480" y="0" width="1681" height="1600"/>
  </clipPath>
</defs>
<path clip-path="url(#clip460)" d="M274.849 1410.22 L2352.76 1410.22 L2352.76 47.2441 L274.849 47.2441  Z" fill="#ffffff" fill-rule="evenodd" fill-opacity="1"/>
<defs>
  <clipPath id="clip462">
    <rect x="274" y="47" width="2079" height="1364"/>
  </clipPath>
</defs>
<polyline clip-path="url(#clip460)" style="stroke:#000000; stroke-linecap:round; stroke-linejoin:round; stroke-width:4; stroke-opacity:1; fill:none" points="274.849,1410.22 2352.76,1410.22 "/>
<polyline clip-path="url(#clip460)" style="stroke:#000000; stroke-linecap:round; stroke-linejoin:round; stroke-width:4; stroke-opacity:1; fill:none" points="274.849,47.2441 2352.76,47.2441 "/>
<polyline clip-path="url(#clip460)" style="stroke:#000000; stroke-linecap:round; stroke-linejoin:round; stroke-width:4; stroke-opacity:1; fill:none" points="333.658,1410.22 333.658,1391.32 "/>
<polyline clip-path="url(#clip460)" style="stroke:#000000; stroke-linecap:round; stroke-linejoin:round; stroke-width:4; stroke-opacity:1; fill:none" points="893.74,1410.22 893.74,1391.32 "/>
<polyline clip-path="url(#clip460)" style="stroke:#000000; stroke-linecap:round; stroke-linejoin:round; stroke-width:4; stroke-opacity:1; fill:none" points="1453.82,1410.22 1453.82,1391.32 "/>
<polyline clip-path="url(#clip460)" style="stroke:#000000; stroke-linecap:round; stroke-linejoin:round; stroke-width:4; stroke-opacity:1; fill:none" points="2013.91,1410.22 2013.91,1391.32 "/>
<path clip-path="url(#clip460)" d="M338.135 1466.71 Q338.506 1467.08 338.506 1467.61 Q338.506 1468.13 338.135 1468.51 Q337.765 1468.88 337.24 1468.88 L297.652 1468.88 Q297.127 1468.88 296.757 1468.51 Q296.386 1468.13 296.386 1467.61 Q296.386 1467.08 296.757 1466.71 Q297.127 1466.34 297.652 1466.34 L337.24 1466.34 Q337.765 1466.34 338.135 1466.71 Z" fill="#000000" fill-rule="nonzero" fill-opacity="1" /><path clip-path="url(#clip460)" d="M344.681 1473.88 Q344.681 1466.81 353.791 1462.24 Q349.869 1459.58 349.159 1458.81 Q346.38 1455.72 346.38 1451.86 Q346.38 1447.45 349.715 1444.39 Q353.081 1441.3 357.836 1441.3 Q362.375 1441.3 365.803 1443.93 Q369.23 1446.55 369.23 1450.72 Q369.23 1456.59 361.572 1460.54 Q366.637 1463.69 367.841 1465.02 Q370.929 1468.44 370.929 1472.8 Q370.929 1477.86 367.038 1481.35 Q363.147 1484.81 357.774 1484.81 Q352.525 1484.81 348.603 1481.75 Q344.681 1478.7 344.681 1473.88 M347.831 1473.88 Q347.831 1477.8 350.765 1480.42 Q353.729 1483.05 357.836 1483.05 Q361.819 1483.05 364.784 1480.76 Q367.779 1478.48 367.779 1475.08 Q367.779 1473.75 367.316 1472.61 Q366.884 1471.47 365.988 1470.57 Q365.123 1469.65 364.568 1469.25 Q364.043 1468.81 363.024 1468.1 L355.242 1463.19 Q347.831 1467.3 347.831 1473.88 M349.159 1449.39 Q349.159 1452.42 352.339 1454.52 L360.183 1459.58 Q366.451 1455.91 366.451 1450.72 Q366.451 1447.35 363.888 1445.13 Q361.325 1442.88 357.774 1442.88 Q354.285 1442.88 351.722 1444.73 Q349.159 1446.55 349.159 1449.39 Z" fill="#000000" fill-rule="nonzero" fill-opacity="1" /><path clip-path="url(#clip460)" d="M898.218 1466.71 Q898.588 1467.08 898.588 1467.61 Q898.588 1468.13 898.218 1468.51 Q897.847 1468.88 897.322 1468.88 L857.735 1468.88 Q857.21 1468.88 856.84 1468.51 Q856.469 1468.13 856.469 1467.61 Q856.469 1467.08 856.84 1466.71 Q857.21 1466.34 857.735 1466.34 L897.322 1466.34 Q897.847 1466.34 898.218 1466.71 Z" fill="#000000" fill-rule="nonzero" fill-opacity="1" /><path clip-path="url(#clip460)" d="M904.764 1463.44 Q904.764 1453.5 909.828 1447.41 Q914.893 1441.3 921.408 1441.3 Q925.206 1441.3 927.306 1443.25 Q929.437 1445.16 929.437 1448.12 Q929.437 1449.76 928.479 1450.47 Q927.522 1451.18 926.534 1451.18 Q925.392 1451.18 924.496 1450.41 Q923.601 1449.64 923.601 1448.25 Q923.601 1445.41 927.09 1445.41 Q925.453 1442.88 921.532 1442.88 Q920.327 1442.88 919.092 1443.25 Q917.857 1443.59 916.251 1444.76 Q914.646 1445.93 913.41 1447.79 Q912.175 1449.64 911.311 1453.13 Q910.446 1456.62 910.446 1461.16 L910.446 1462.67 Q913.04 1456.4 918.351 1456.43 Q923.662 1456.43 927.337 1460.48 Q931.012 1464.52 931.012 1470.51 Q931.012 1476.66 927.183 1480.73 Q923.353 1484.81 917.981 1484.81 Q915.572 1484.81 913.38 1483.79 Q911.218 1482.8 909.18 1480.52 Q907.173 1478.23 905.968 1473.85 Q904.764 1469.46 904.764 1463.44 M910.569 1469.12 Q910.569 1475.33 911.712 1478.29 Q911.897 1478.79 912.299 1479.47 Q912.731 1480.15 913.441 1481.04 Q914.182 1481.91 915.387 1482.49 Q916.591 1483.05 917.981 1483.05 Q922.211 1483.05 924.249 1478.94 Q925.33 1476.66 925.33 1470.45 Q925.33 1464.12 924.187 1461.8 Q922.242 1457.88 918.289 1457.88 Q915.634 1457.88 913.781 1459.7 Q911.959 1461.53 911.249 1463.97 Q910.569 1466.41 910.569 1469.12 Z" fill="#000000" fill-rule="nonzero" fill-opacity="1" /><path clip-path="url(#clip460)" d="M1457.85 1466.71 Q1458.22 1467.08 1458.22 1467.61 Q1458.22 1468.13 1457.85 1468.51 Q1457.48 1468.88 1456.96 1468.88 L1417.37 1468.88 Q1416.85 1468.88 1416.47 1468.51 Q1416.1 1468.13 1416.1 1467.61 Q1416.1 1467.08 1416.47 1466.71 Q1416.85 1466.34 1417.37 1466.34 L1456.96 1466.34 Q1457.48 1466.34 1457.85 1466.71 Z" fill="#000000" fill-rule="nonzero" fill-opacity="1" /><path clip-path="url(#clip460)" d="M1463.5 1472.98 L1463.5 1471.04 L1482.93 1441.36 Q1483.42 1440.59 1484.19 1440.62 Q1484.9 1440.62 1485.06 1440.9 Q1485.21 1441.18 1485.21 1442.26 L1485.21 1471.04 L1491.54 1471.04 L1491.54 1472.98 L1485.21 1472.98 L1485.21 1478.48 Q1485.21 1480.3 1485.95 1480.89 Q1486.72 1481.47 1490 1481.47 L1491.33 1481.47 L1491.33 1483.42 Q1488.73 1483.23 1482.74 1483.23 Q1476.78 1483.23 1474.19 1483.42 L1474.19 1481.47 L1475.52 1481.47 Q1478.79 1481.47 1479.56 1480.92 Q1480.33 1480.33 1480.33 1478.48 L1480.33 1472.98 L1463.5 1472.98 M1465.29 1471.04 L1480.7 1471.04 L1480.7 1447.45 L1465.29 1471.04 Z" fill="#000000" fill-rule="nonzero" fill-opacity="1" /><path clip-path="url(#clip460)" d="M2018.63 1466.71 Q2019 1467.08 2019 1467.61 Q2019 1468.13 2018.63 1468.51 Q2018.26 1468.88 2017.73 1468.88 L1978.15 1468.88 Q1977.62 1468.88 1977.25 1468.51 Q1976.88 1468.13 1976.88 1467.61 Q1976.88 1467.08 1977.25 1466.71 Q1977.62 1466.34 1978.15 1466.34 L2017.73 1466.34 Q2018.26 1466.34 2018.63 1466.71 Z" fill="#000000" fill-rule="nonzero" fill-opacity="1" /><path clip-path="url(#clip460)" d="M2025.67 1483.42 Q2025.67 1482.28 2025.76 1481.94 Q2025.89 1481.6 2026.38 1481.07 L2038.52 1467.55 Q2045.16 1460.08 2045.16 1453.56 Q2045.16 1449.33 2042.93 1446.3 Q2040.74 1443.28 2036.69 1443.28 Q2033.92 1443.28 2031.57 1444.98 Q2029.22 1446.67 2028.14 1449.7 Q2028.33 1449.64 2028.97 1449.64 Q2030.55 1449.64 2031.41 1450.63 Q2032.31 1451.61 2032.31 1452.94 Q2032.31 1454.64 2031.2 1455.47 Q2030.12 1456.28 2029.04 1456.28 Q2028.6 1456.28 2028.02 1456.18 Q2027.46 1456.09 2026.57 1455.23 Q2025.67 1454.33 2025.67 1452.76 Q2025.67 1448.34 2029.01 1444.82 Q2032.37 1441.3 2037.5 1441.3 Q2043.3 1441.3 2047.1 1444.76 Q2050.93 1448.19 2050.93 1453.56 Q2050.93 1455.44 2050.34 1457.17 Q2049.79 1458.87 2049.02 1460.2 Q2048.27 1461.53 2046.24 1463.66 Q2044.2 1465.79 2042.56 1467.3 Q2040.93 1468.81 2037.25 1472.03 L2030.55 1478.54 L2041.94 1478.54 Q2047.5 1478.54 2047.93 1478.05 Q2048.55 1477.15 2049.32 1472.43 L2050.93 1472.43 L2049.14 1483.42 L2025.67 1483.42 Z" fill="#000000" fill-rule="nonzero" fill-opacity="1" /><path clip-path="url(#clip460)" d="M1339.33 1517.34 Q1339.33 1518.78 1338.14 1518.78 Q1336.03 1518.85 1334.59 1519.27 Q1333.15 1519.66 1332.31 1520.43 Q1331.5 1521.21 1331.04 1522.05 Q1330.62 1522.86 1330.34 1524.09 L1323.94 1549.63 Q1322.12 1556.83 1316.22 1562.07 Q1310.31 1567.27 1303.6 1567.27 Q1299.77 1567.27 1296.58 1565.69 Q1293.41 1564.11 1291.45 1560.91 Q1289.48 1557.71 1289.48 1553.46 Q1289.48 1551.42 1290.01 1549.28 L1294.36 1531.5 L1295.98 1525.18 Q1297.17 1520.5 1297.17 1520.08 Q1297.17 1519.42 1296.75 1519.24 Q1296.37 1519.03 1295.24 1518.92 L1292.5 1518.78 Q1291.66 1518.78 1291.31 1518.75 Q1290.99 1518.71 1290.74 1518.54 Q1290.5 1518.36 1290.5 1517.97 Q1290.5 1517.48 1290.6 1517.17 Q1290.74 1516.82 1290.99 1516.71 Q1291.24 1516.6 1291.41 1516.57 Q1291.59 1516.53 1291.87 1516.53 L1301.14 1516.75 L1310.35 1516.53 Q1311.37 1516.53 1311.37 1517.34 Q1311.37 1518.36 1310.91 1518.57 Q1310.45 1518.78 1308.91 1518.78 Q1306.27 1518.78 1305.08 1519.13 Q1303.92 1519.45 1303.57 1520.01 Q1303.25 1520.54 1302.86 1522.09 L1295.87 1550.09 Q1295.52 1551.49 1295.31 1552.9 Q1295.14 1554.27 1295.14 1554.97 L1295.1 1555.67 Q1295.1 1560.14 1297.56 1562.59 Q1300.05 1565.05 1303.88 1565.05 Q1309.51 1565.05 1314.74 1560.59 Q1320.01 1556.13 1321.8 1549.14 L1328.27 1523.46 Q1328.48 1522.82 1328.48 1521.94 Q1328.48 1520.54 1327.42 1519.7 Q1326.4 1518.82 1323.59 1518.78 Q1322.29 1518.78 1322.29 1517.97 Q1322.29 1517.31 1322.54 1516.99 Q1322.82 1516.64 1323.03 1516.6 Q1323.28 1516.53 1323.59 1516.53 Q1324.79 1516.53 1327.32 1516.64 Q1329.85 1516.75 1331.08 1516.75 Q1332.31 1516.75 1334.77 1516.64 Q1337.23 1516.53 1338.42 1516.53 Q1338.84 1516.53 1339.05 1516.75 Q1339.3 1516.92 1339.33 1517.13 L1339.33 1517.34 Z" fill="#000000" fill-rule="nonzero" fill-opacity="1" /><polyline clip-path="url(#clip460)" style="stroke:#000000; stroke-linecap:round; stroke-linejoin:round; stroke-width:4; stroke-opacity:1; fill:none" points="274.849,1410.22 274.849,47.2441 "/>
<polyline clip-path="url(#clip460)" style="stroke:#000000; stroke-linecap:round; stroke-linejoin:round; stroke-width:4; stroke-opacity:1; fill:none" points="2352.76,1410.22 2352.76,47.2441 "/>
<polyline clip-path="url(#clip460)" style="stroke:#000000; stroke-linecap:round; stroke-linejoin:round; stroke-width:4; stroke-opacity:1; fill:none" points="274.849,1245.22 293.747,1245.22 "/>
<polyline clip-path="url(#clip460)" style="stroke:#000000; stroke-linecap:round; stroke-linejoin:round; stroke-width:4; stroke-opacity:1; fill:none" points="274.849,909.204 293.747,909.204 "/>
<polyline clip-path="url(#clip460)" style="stroke:#000000; stroke-linecap:round; stroke-linejoin:round; stroke-width:4; stroke-opacity:1; fill:none" points="274.849,573.192 293.747,573.192 "/>
<polyline clip-path="url(#clip460)" style="stroke:#000000; stroke-linecap:round; stroke-linejoin:round; stroke-width:4; stroke-opacity:1; fill:none" points="274.849,237.179 293.747,237.179 "/>
<path clip-path="url(#clip460)" d="M132.099 1246.59 Q132.099 1237.3 134.446 1232.23 Q137.72 1224.7 145.439 1224.7 Q147.076 1224.7 148.774 1225.16 Q150.504 1225.59 152.665 1227.29 Q154.857 1228.99 156.185 1231.77 Q158.717 1237.14 158.717 1246.59 Q158.717 1255.82 156.371 1260.86 Q152.943 1268.21 145.378 1268.21 Q142.537 1268.21 139.634 1266.75 Q136.762 1265.3 134.94 1261.81 Q132.099 1256.6 132.099 1246.59 M137.349 1245.82 Q137.349 1255.36 138.028 1259.16 Q138.8 1263.27 140.9 1265.06 Q143.031 1266.82 145.378 1266.82 Q147.91 1266.82 150.009 1264.93 Q152.14 1263.02 152.789 1258.91 Q153.499 1254.87 153.468 1245.82 Q153.468 1237.02 152.85 1233.5 Q152.017 1229.39 149.793 1227.75 Q147.601 1226.09 145.378 1226.09 Q144.544 1226.09 143.648 1226.33 Q142.784 1226.58 141.518 1227.29 Q140.252 1228 139.263 1229.76 Q138.306 1231.52 137.843 1234.18 Q137.349 1237.6 137.349 1245.82 Z" fill="#000000" fill-rule="nonzero" fill-opacity="1" /><path clip-path="url(#clip460)" d="M167.58 1265.8 Q166.622 1264.78 166.622 1263.45 Q166.622 1262.12 167.58 1261.17 Q168.537 1260.18 169.988 1260.18 Q171.378 1260.18 172.304 1261.1 Q173.261 1262 173.261 1263.48 Q173.261 1264.93 172.242 1265.89 Q171.254 1266.82 169.988 1266.82 Q168.537 1266.82 167.58 1265.8 Z" fill="#000000" fill-rule="nonzero" fill-opacity="1" /><path clip-path="url(#clip460)" d="M181.29 1246.59 Q181.29 1237.3 183.637 1232.23 Q186.91 1224.7 194.63 1224.7 Q196.266 1224.7 197.965 1225.16 Q199.694 1225.59 201.856 1227.29 Q204.048 1228.99 205.376 1231.77 Q207.908 1237.14 207.908 1246.59 Q207.908 1255.82 205.561 1260.86 Q202.134 1268.21 194.568 1268.21 Q191.727 1268.21 188.825 1266.75 Q185.953 1265.3 184.131 1261.81 Q181.29 1256.6 181.29 1246.59 M186.54 1245.82 Q186.54 1255.36 187.219 1259.16 Q187.991 1263.27 190.091 1265.06 Q192.221 1266.82 194.568 1266.82 Q197.1 1266.82 199.2 1264.93 Q201.331 1263.02 201.979 1258.91 Q202.689 1254.87 202.658 1245.82 Q202.658 1237.02 202.041 1233.5 Q201.207 1229.39 198.984 1227.75 Q196.791 1226.09 194.568 1226.09 Q193.734 1226.09 192.839 1226.33 Q191.974 1226.58 190.708 1227.29 Q189.442 1228 188.454 1229.76 Q187.497 1231.52 187.034 1234.18 Q186.54 1237.6 186.54 1245.82 Z" fill="#000000" fill-rule="nonzero" fill-opacity="1" /><path clip-path="url(#clip460)" d="M213.59 1256.63 Q213.59 1254.74 214.609 1254.03 Q215.628 1253.29 216.709 1253.29 Q218.16 1253.29 218.994 1254.22 Q219.858 1255.11 219.858 1256.38 Q219.858 1257.65 218.994 1258.57 Q218.16 1259.47 216.709 1259.47 Q215.998 1259.47 215.628 1259.34 Q216.461 1262.25 218.994 1264.35 Q221.557 1266.45 224.922 1266.45 Q229.153 1266.45 231.685 1262.34 Q233.198 1259.68 233.198 1253.66 Q233.198 1248.35 232.055 1245.7 Q230.295 1241.65 226.682 1241.65 Q221.557 1241.65 218.53 1246.07 Q218.16 1246.62 217.728 1246.65 Q217.11 1246.65 216.956 1246.31 Q216.832 1245.94 216.832 1244.99 L216.832 1226.27 Q216.832 1224.76 217.45 1224.76 Q217.697 1224.76 218.222 1224.94 Q222.205 1226.7 226.621 1226.74 Q231.16 1226.74 235.236 1224.88 Q235.545 1224.7 235.73 1224.7 Q236.348 1224.7 236.379 1225.41 Q236.379 1225.65 235.854 1226.4 Q235.36 1227.11 234.279 1228.06 Q233.198 1228.99 231.808 1229.89 Q230.419 1230.78 228.381 1231.4 Q226.374 1231.98 224.15 1231.98 Q221.495 1231.98 218.777 1231.15 L218.777 1243.47 Q222.051 1240.26 226.806 1240.26 Q231.87 1240.26 235.36 1244.34 Q238.849 1248.41 238.849 1254.09 Q238.849 1260.05 234.711 1264.13 Q230.604 1268.21 225.046 1268.21 Q219.982 1268.21 216.77 1264.59 Q213.59 1260.98 213.59 1256.63 Z" fill="#000000" fill-rule="nonzero" fill-opacity="1" /><path clip-path="url(#clip460)" d="M131.42 910.578 Q131.42 901.284 133.767 896.22 Q137.04 888.685 144.76 888.685 Q146.397 888.685 148.095 889.148 Q149.824 889.581 151.986 891.279 Q154.178 892.977 155.506 895.756 Q158.038 901.129 158.038 910.578 Q158.038 919.811 155.691 924.845 Q152.264 932.194 144.698 932.194 Q141.857 932.194 138.955 930.742 Q136.083 929.291 134.261 925.802 Q131.42 920.583 131.42 910.578 M136.67 909.806 Q136.67 919.348 137.349 923.146 Q138.121 927.253 140.221 929.044 Q142.351 930.804 144.698 930.804 Q147.23 930.804 149.33 928.921 Q151.461 927.006 152.109 922.899 Q152.819 918.854 152.789 909.806 Q152.789 901.006 152.171 897.486 Q151.337 893.379 149.114 891.742 Q146.922 890.075 144.698 890.075 Q143.864 890.075 142.969 890.322 Q142.104 890.569 140.838 891.279 Q139.572 891.989 138.584 893.749 Q137.627 895.509 137.164 898.165 Q136.67 901.593 136.67 909.806 Z" fill="#000000" fill-rule="nonzero" fill-opacity="1" /><path clip-path="url(#clip460)" d="M166.9 929.785 Q165.943 928.766 165.943 927.438 Q165.943 926.111 166.9 925.153 Q167.858 924.165 169.309 924.165 Q170.698 924.165 171.625 925.092 Q172.582 925.987 172.582 927.469 Q172.582 928.921 171.563 929.878 Q170.575 930.804 169.309 930.804 Q167.858 930.804 166.9 929.785 Z" fill="#000000" fill-rule="nonzero" fill-opacity="1" /><path clip-path="url(#clip460)" d="M183.76 894.706 L183.76 892.73 Q191.357 892.73 195.278 888.685 Q196.359 888.685 196.544 888.932 Q196.73 889.179 196.73 890.322 L196.73 925.802 Q196.73 927.685 197.656 928.272 Q198.582 928.859 202.628 928.859 L204.635 928.859 L204.635 930.804 Q202.411 930.619 194.383 930.619 Q186.354 930.619 184.162 930.804 L184.162 928.859 L186.169 928.859 Q190.152 928.859 191.11 928.303 Q192.067 927.716 192.067 925.802 L192.067 893.039 Q188.763 894.706 183.76 894.706 Z" fill="#000000" fill-rule="nonzero" fill-opacity="1" /><path clip-path="url(#clip460)" d="M212.231 910.578 Q212.231 901.284 214.578 896.22 Q217.851 888.685 225.571 888.685 Q227.207 888.685 228.906 889.148 Q230.635 889.581 232.797 891.279 Q234.989 892.977 236.317 895.756 Q238.849 901.129 238.849 910.578 Q238.849 919.811 236.502 924.845 Q233.074 932.194 225.509 932.194 Q222.668 932.194 219.766 930.742 Q216.894 929.291 215.072 925.802 Q212.231 920.583 212.231 910.578 M217.48 909.806 Q217.48 919.348 218.16 923.146 Q218.932 927.253 221.032 929.044 Q223.162 930.804 225.509 930.804 Q228.041 930.804 230.141 928.921 Q232.272 927.006 232.92 922.899 Q233.63 918.854 233.599 909.806 Q233.599 901.006 232.982 897.486 Q232.148 893.379 229.925 891.742 Q227.732 890.075 225.509 890.075 Q224.675 890.075 223.78 890.322 Q222.915 890.569 221.649 891.279 Q220.383 891.989 219.395 893.749 Q218.438 895.509 217.975 898.165 Q217.48 901.593 217.48 909.806 Z" fill="#000000" fill-rule="nonzero" fill-opacity="1" /><path clip-path="url(#clip460)" d="M132.099 574.566 Q132.099 565.271 134.446 560.207 Q137.72 552.673 145.439 552.673 Q147.076 552.673 148.774 553.136 Q150.504 553.568 152.665 555.266 Q154.857 556.965 156.185 559.744 Q158.717 565.117 158.717 574.566 Q158.717 583.799 156.371 588.832 Q152.943 596.181 145.378 596.181 Q142.537 596.181 139.634 594.73 Q136.762 593.279 134.94 589.789 Q132.099 584.571 132.099 574.566 M137.349 573.794 Q137.349 583.336 138.028 587.134 Q138.8 591.241 140.9 593.032 Q143.031 594.792 145.378 594.792 Q147.91 594.792 150.009 592.908 Q152.14 590.994 152.789 586.887 Q153.499 582.842 153.468 573.794 Q153.468 564.993 152.85 561.473 Q152.017 557.366 149.793 555.73 Q147.601 554.062 145.378 554.062 Q144.544 554.062 143.648 554.309 Q142.784 554.556 141.518 555.266 Q140.252 555.977 139.263 557.737 Q138.306 559.497 137.843 562.153 Q137.349 565.58 137.349 573.794 Z" fill="#000000" fill-rule="nonzero" fill-opacity="1" /><path clip-path="url(#clip460)" d="M167.58 593.773 Q166.622 592.754 166.622 591.426 Q166.622 590.098 167.58 589.141 Q168.537 588.153 169.988 588.153 Q171.378 588.153 172.304 589.079 Q173.261 589.975 173.261 591.457 Q173.261 592.908 172.242 593.865 Q171.254 594.792 169.988 594.792 Q168.537 594.792 167.58 593.773 Z" fill="#000000" fill-rule="nonzero" fill-opacity="1" /><path clip-path="url(#clip460)" d="M184.44 558.694 L184.44 556.718 Q192.036 556.718 195.958 552.673 Q197.038 552.673 197.224 552.92 Q197.409 553.167 197.409 554.309 L197.409 589.789 Q197.409 591.673 198.335 592.26 Q199.262 592.846 203.307 592.846 L205.314 592.846 L205.314 594.792 Q203.091 594.607 195.062 594.607 Q187.034 594.607 184.841 594.792 L184.841 592.846 L186.848 592.846 Q190.832 592.846 191.789 592.291 Q192.746 591.704 192.746 589.789 L192.746 557.027 Q189.442 558.694 184.44 558.694 Z" fill="#000000" fill-rule="nonzero" fill-opacity="1" /><path clip-path="url(#clip460)" d="M213.59 584.602 Q213.59 582.718 214.609 582.008 Q215.628 581.267 216.709 581.267 Q218.16 581.267 218.994 582.193 Q219.858 583.089 219.858 584.355 Q219.858 585.621 218.994 586.547 Q218.16 587.443 216.709 587.443 Q215.998 587.443 215.628 587.319 Q216.461 590.222 218.994 592.322 Q221.557 594.421 224.922 594.421 Q229.153 594.421 231.685 590.314 Q233.198 587.659 233.198 581.637 Q233.198 576.326 232.055 573.67 Q230.295 569.625 226.682 569.625 Q221.557 569.625 218.53 574.041 Q218.16 574.597 217.728 574.628 Q217.11 574.628 216.956 574.288 Q216.832 573.918 216.832 572.96 L216.832 554.247 Q216.832 552.734 217.45 552.734 Q217.697 552.734 218.222 552.92 Q222.205 554.68 226.621 554.711 Q231.16 554.711 235.236 552.858 Q235.545 552.673 235.73 552.673 Q236.348 552.673 236.379 553.383 Q236.379 553.63 235.854 554.371 Q235.36 555.081 234.279 556.038 Q233.198 556.965 231.808 557.86 Q230.419 558.756 228.381 559.373 Q226.374 559.96 224.15 559.96 Q221.495 559.96 218.777 559.126 L218.777 571.447 Q222.051 568.236 226.806 568.236 Q231.87 568.236 235.36 572.312 Q238.849 576.388 238.849 582.07 Q238.849 588.029 234.711 592.105 Q230.604 596.181 225.046 596.181 Q219.982 596.181 216.77 592.569 Q213.59 588.956 213.59 584.602 Z" fill="#000000" fill-rule="nonzero" fill-opacity="1" /><path clip-path="url(#clip460)" d="M131.42 238.554 Q131.42 229.259 133.767 224.195 Q137.04 216.66 144.76 216.66 Q146.397 216.66 148.095 217.123 Q149.824 217.556 151.986 219.254 Q154.178 220.952 155.506 223.732 Q158.038 229.105 158.038 238.554 Q158.038 247.786 155.691 252.82 Q152.264 260.169 144.698 260.169 Q141.857 260.169 138.955 258.718 Q136.083 257.266 134.261 253.777 Q131.42 248.558 131.42 238.554 M136.67 237.782 Q136.67 247.323 137.349 251.121 Q138.121 255.228 140.221 257.019 Q142.351 258.779 144.698 258.779 Q147.23 258.779 149.33 256.896 Q151.461 254.981 152.109 250.874 Q152.819 246.829 152.789 237.782 Q152.789 228.981 152.171 225.461 Q151.337 221.354 149.114 219.717 Q146.922 218.05 144.698 218.05 Q143.864 218.05 142.969 218.297 Q142.104 218.544 140.838 219.254 Q139.572 219.964 138.584 221.724 Q137.627 223.485 137.164 226.14 Q136.67 229.568 136.67 237.782 Z" fill="#000000" fill-rule="nonzero" fill-opacity="1" /><path clip-path="url(#clip460)" d="M166.9 257.76 Q165.943 256.741 165.943 255.414 Q165.943 254.086 166.9 253.129 Q167.858 252.14 169.309 252.14 Q170.698 252.14 171.625 253.067 Q172.582 253.962 172.582 255.445 Q172.582 256.896 171.563 257.853 Q170.575 258.779 169.309 258.779 Q167.858 258.779 166.9 257.76 Z" fill="#000000" fill-rule="nonzero" fill-opacity="1" /><path clip-path="url(#clip460)" d="M181.29 258.779 Q181.29 257.637 181.383 257.297 Q181.506 256.958 182 256.433 L194.136 242.908 Q200.775 235.435 200.775 228.919 Q200.775 224.689 198.552 221.663 Q196.359 218.637 192.314 218.637 Q189.535 218.637 187.188 220.335 Q184.841 222.033 183.76 225.059 Q183.946 224.998 184.594 224.998 Q186.169 224.998 187.034 225.986 Q187.929 226.974 187.929 228.302 Q187.929 230 186.817 230.834 Q185.737 231.637 184.656 231.637 Q184.224 231.637 183.637 231.544 Q183.081 231.451 182.186 230.587 Q181.29 229.691 181.29 228.116 Q181.29 223.701 184.625 220.18 Q187.991 216.66 193.117 216.66 Q198.922 216.66 202.72 220.119 Q206.549 223.546 206.549 228.919 Q206.549 230.803 205.963 232.532 Q205.407 234.231 204.635 235.558 Q203.894 236.886 201.856 239.017 Q199.818 241.147 198.181 242.661 Q196.544 244.174 192.87 247.385 L186.169 253.901 L197.563 253.901 Q203.122 253.901 203.554 253.406 Q204.172 252.511 204.944 247.786 L206.549 247.786 L204.758 258.779 L181.29 258.779 Z" fill="#000000" fill-rule="nonzero" fill-opacity="1" /><path clip-path="url(#clip460)" d="M212.231 238.554 Q212.231 229.259 214.578 224.195 Q217.851 216.66 225.571 216.66 Q227.207 216.66 228.906 217.123 Q230.635 217.556 232.797 219.254 Q234.989 220.952 236.317 223.732 Q238.849 229.105 238.849 238.554 Q238.849 247.786 236.502 252.82 Q233.074 260.169 225.509 260.169 Q222.668 260.169 219.766 258.718 Q216.894 257.266 215.072 253.777 Q212.231 248.558 212.231 238.554 M217.48 237.782 Q217.48 247.323 218.16 251.121 Q218.932 255.228 221.032 257.019 Q223.162 258.779 225.509 258.779 Q228.041 258.779 230.141 256.896 Q232.272 254.981 232.92 250.874 Q233.63 246.829 233.599 237.782 Q233.599 228.981 232.982 225.461 Q232.148 221.354 229.925 219.717 Q227.732 218.05 225.509 218.05 Q224.675 218.05 223.78 218.297 Q222.915 218.544 221.649 219.254 Q220.383 219.964 219.395 221.724 Q218.438 223.485 217.975 226.14 Q217.48 229.568 217.48 237.782 Z" fill="#000000" fill-rule="nonzero" fill-opacity="1" /><path clip-path="url(#clip460)" d="M8.35834 810.283 Q8.40753 810.283 8.45671 810.332 Q11.0636 810.652 12.5147 811.267 Q13.9411 811.882 14.6051 813.259 Q15.097 814.267 15.097 815.522 Q15.097 817.415 13.8427 820.145 Q13.7935 820.244 13.5476 820.785 Q13.3016 821.326 13.2279 821.522 Q13.1541 821.719 13.0065 822.137 Q12.8344 822.555 12.7852 822.875 Q12.736 823.195 12.736 823.514 Q12.736 824.203 13.0311 824.793 Q13.6214 825.998 14.5067 826.736 Q15.3675 827.499 16.9169 827.695 Q17.1136 827.745 17.2612 827.917 Q17.4088 828.089 17.4088 828.31 Q17.4088 828.532 17.2366 828.728 Q17.0645 828.925 16.8185 828.925 Q16.7693 828.925 16.7202 828.876 Q14.1132 828.556 12.6868 827.941 Q11.2358 827.326 10.5718 825.949 Q10.0553 824.867 10.0553 823.687 Q10.0553 821.842 11.3342 819.038 Q11.3833 818.94 11.6293 818.399 Q11.8752 817.858 11.949 817.661 Q12.0228 817.464 12.1949 817.046 Q12.3425 816.628 12.3917 816.309 Q12.4409 815.989 12.4409 815.669 Q12.4409 815.054 12.1212 814.415 Q11.5309 813.21 10.6701 812.447 Q9.80936 811.685 8.25996 811.488 Q8.06322 811.439 7.91565 811.267 Q7.7435 811.095 7.7435 810.873 Q7.7435 810.652 7.94025 810.455 Q8.1124 810.283 8.35834 810.283 Z" fill="#000000" fill-rule="nonzero" fill-opacity="1" /><path clip-path="url(#clip460)" d="M35.7443 799.087 Q39.6792 799.087 43.298 802.003 Q46.9168 804.884 49.1302 809.592 Q51.3085 814.265 51.3085 819.289 L51.3085 831.516 L69.2969 835.978 Q69.4023 836.013 69.8591 836.118 Q70.2807 836.224 70.5266 836.224 Q71.4049 836.224 71.6157 835.135 Q71.8265 834.01 71.8265 831.516 Q71.8265 829.9 72.1076 829.654 Q72.2833 829.513 72.5995 829.513 Q73.0914 829.513 73.4427 829.654 Q73.7589 829.794 73.8643 830.075 Q73.9697 830.321 74.0048 830.497 Q74.04 830.673 74.04 830.954 Q74.04 831.691 73.9697 833.272 Q73.8994 834.818 73.8994 835.626 L73.8292 840.229 L74.04 849.364 Q74.04 850.453 73.1616 850.453 Q72.4941 850.453 72.213 850.172 Q71.8968 849.891 71.8617 849.574 Q71.8265 849.258 71.8265 848.45 Q71.8265 846.694 71.7211 845.639 Q71.6157 844.585 71.4752 843.918 Q71.2995 843.215 70.8077 842.864 Q70.3158 842.477 69.8942 842.302 Q69.4375 842.126 68.4186 841.88 L29.7715 832.254 Q28.6121 831.972 28.4365 831.972 Q27.8392 831.972 27.6284 832.324 Q27.3825 832.64 27.2771 833.554 Q27.1365 835.31 27.1365 836.645 Q27.1365 837.524 27.1014 837.875 Q27.0663 838.191 26.8906 838.472 Q26.6798 838.718 26.2582 838.718 Q25.5906 838.718 25.3096 838.437 Q24.9934 838.121 24.9582 837.77 Q24.888 837.418 24.888 836.575 L24.888 813.246 Q24.888 806.536 28.0851 802.812 Q31.2823 799.087 35.7443 799.087 M34.0227 805.763 Q27.1365 805.763 27.1365 815.565 L27.1365 822.451 Q27.1365 824.735 27.5581 825.297 Q27.9446 825.859 29.877 826.351 L49.4464 831.235 L49.4464 821.081 Q49.4464 814.265 45.6168 810.014 Q43.8602 808.082 40.2062 806.922 Q36.5523 805.763 34.0227 805.763 Z" fill="#000000" fill-rule="nonzero" fill-opacity="1" /><path clip-path="url(#clip460)" d="M65.0882 770.329 Q66.6376 770.329 66.6376 774.83 Q66.6376 775.518 66.613 775.912 Q66.5884 776.281 66.3671 776.871 Q66.1457 777.461 65.7276 777.879 Q66.7606 779.798 68.8264 781.79 Q70.8923 783.782 73.4992 785.405 Q76.0815 787.028 79.1803 788.086 Q82.2791 789.119 85.0828 789.119 Q88.8948 789.119 90.8131 787.004 Q91.5755 786.143 91.9936 785.159 Q92.4116 784.175 93.4938 780.954 Q94.3545 778.445 94.7234 777.609 Q95.0923 776.773 95.7564 776.183 Q97.109 774.83 99.1257 774.83 Q101.388 774.83 103.307 776.453 Q105.225 778.052 105.225 780.314 Q105.225 781.544 104.708 782.724 Q104.217 783.905 103.651 784.52 Q103.085 785.135 102.815 785.135 Q102.569 785.135 102.397 784.987 Q102.249 784.839 102.249 784.643 Q102.249 784.421 102.593 784.028 Q104.118 782.257 104.118 780.314 Q104.118 779.035 103.036 778.273 Q101.979 777.486 100.798 777.486 Q100.134 777.486 99.5684 777.732 Q99.0027 777.953 98.6584 778.273 Q98.3387 778.568 98.0436 779.06 Q97.7484 779.552 97.6255 779.872 Q97.5025 780.167 97.355 780.609 Q96.445 783.29 96.2974 783.684 Q96.0269 784.52 95.8793 784.938 Q95.7318 785.356 95.3875 786.168 Q95.0677 786.979 94.7972 787.446 Q94.5267 787.889 94.0594 788.602 Q93.5675 789.291 93.1003 789.684 Q92.633 790.078 91.9444 790.57 Q91.2312 791.037 90.4688 791.308 Q89.6818 791.553 88.6734 791.726 Q87.6405 791.898 86.4846 791.898 Q83.6809 791.898 80.7543 791.037 Q77.8277 790.152 75.3929 788.75 Q72.9335 787.348 70.7693 785.602 Q68.6051 783.831 67.1049 782.06 Q65.5801 780.265 64.7685 778.642 Q63.6618 779.208 62.2599 779.208 Q62.0386 779.208 61.7927 779.183 Q61.5221 779.158 61.0057 779.109 Q60.4646 779.035 60.1449 778.839 Q59.8006 778.617 59.8006 778.298 Q59.8006 778.027 59.9727 777.855 Q60.1449 777.683 60.44 777.683 Q61.5959 777.929 62.3091 777.929 Q63.3666 777.929 64.2274 777.584 Q63.711 776.207 63.711 774.363 Q63.711 772.469 63.9815 771.411 Q64.252 770.329 65.0882 770.329 M65.1374 771.633 Q64.8177 772.813 64.8177 774.412 Q64.8177 775.912 65.1866 776.724 Q65.4325 776.33 65.4817 775.986 Q65.5309 775.641 65.5309 774.756 Q65.5309 772.69 65.1374 771.633 Z" fill="#000000" fill-rule="nonzero" fill-opacity="1" /><path clip-path="url(#clip460)" d="M56.0515 762.368 Q43.8953 762.368 34.093 757.836 Q29.9824 755.904 26.5393 753.198 Q23.0962 750.493 21.5854 748.701 Q20.0747 746.91 20.0747 746.418 Q20.0747 745.715 20.7773 745.68 Q21.1287 745.68 22.007 746.628 Q33.8119 758.223 56.0515 758.187 Q78.3614 758.187 89.7096 746.91 Q90.9393 745.68 91.3257 745.68 Q92.0284 745.68 92.0284 746.418 Q92.0284 746.91 90.5879 748.631 Q89.1474 750.353 85.8449 753.023 Q82.5423 755.693 78.5019 757.625 Q68.6997 762.368 56.0515 762.368 Z" fill="#000000" fill-rule="nonzero" fill-opacity="1" /><path clip-path="url(#clip460)" d="M51.0274 738.771 Q40.4522 738.771 34.6903 736.101 Q26.1176 732.377 26.1176 723.593 Q26.1176 721.731 26.6447 719.799 Q27.1365 717.831 29.0689 715.372 Q31.0012 712.877 34.1633 711.367 Q40.2765 708.486 51.0274 708.486 Q61.5324 708.486 67.2592 711.156 Q75.621 715.056 75.621 723.664 Q75.621 726.896 73.9697 730.198 Q72.3184 733.466 68.3483 735.539 Q62.4107 738.771 51.0274 738.771 M50.1491 732.798 Q61.0054 732.798 65.3268 732.025 Q69.9996 731.147 72.0374 728.758 Q74.04 726.334 74.04 723.664 Q74.04 720.783 71.8968 718.393 Q69.7185 715.969 65.0458 715.231 Q60.4432 714.423 50.1491 714.459 Q40.136 714.459 36.1307 715.161 Q31.458 716.11 29.5959 718.639 Q27.6987 721.134 27.6987 723.664 Q27.6987 724.612 27.9797 725.631 Q28.2608 726.615 29.0689 728.055 Q29.877 729.496 31.8796 730.62 Q33.8822 731.709 36.9037 732.236 Q40.8035 732.798 50.1491 732.798 Z" fill="#000000" fill-rule="nonzero" fill-opacity="1" /><path clip-path="url(#clip460)" d="M72.8806 702.119 Q71.7211 703.138 70.2104 703.138 Q68.6997 703.138 67.5754 702.154 Q66.416 701.136 66.416 699.309 Q66.416 697.165 68.4889 695.936 Q70.5266 694.706 73.9697 694.706 Q77.6939 694.706 81.137 696.217 Q84.6152 697.728 86.2665 699.203 Q87.9178 700.679 87.9178 701.276 Q87.9178 701.979 87.1448 701.979 Q86.8638 701.979 86.3368 701.487 Q80.7856 696.322 73.9697 696.287 Q72.8806 696.287 72.8806 696.428 L73.0211 696.603 Q74.04 697.833 74.04 699.309 Q74.04 701.1 72.8806 702.119 Z" fill="#000000" fill-rule="nonzero" fill-opacity="1" /><path clip-path="url(#clip460)" d="M51.0274 672.001 Q40.4522 672.001 34.6903 669.331 Q26.1176 665.607 26.1176 656.824 Q26.1176 654.961 26.6447 653.029 Q27.1365 651.062 29.0689 648.602 Q31.0012 646.108 34.1633 644.597 Q40.2765 641.716 51.0274 641.716 Q61.5324 641.716 67.2592 644.386 Q75.621 648.286 75.621 656.894 Q75.621 660.126 73.9697 663.429 Q72.3184 666.696 68.3483 668.769 Q62.4107 672.001 51.0274 672.001 M50.1491 666.029 Q61.0054 666.029 65.3268 665.256 Q69.9996 664.377 72.0374 661.988 Q74.04 659.564 74.04 656.894 Q74.04 654.013 71.8968 651.624 Q69.7185 649.2 65.0458 648.462 Q60.4432 647.654 50.1491 647.689 Q40.136 647.689 36.1307 648.391 Q31.458 649.34 29.5959 651.87 Q27.6987 654.364 27.6987 656.894 Q27.6987 657.842 27.9797 658.861 Q28.2608 659.845 29.0689 661.286 Q29.877 662.726 31.8796 663.85 Q33.8822 664.939 36.9037 665.466 Q40.8035 666.029 50.1491 666.029 Z" fill="#000000" fill-rule="nonzero" fill-opacity="1" /><path clip-path="url(#clip460)" d="M91.3257 634.64 Q90.9744 634.64 90.0961 633.727 Q78.2911 622.133 56.0515 622.133 Q33.7417 622.133 22.4637 633.27 Q21.1638 634.64 20.7773 634.64 Q20.0747 634.64 20.0747 633.938 Q20.0747 633.446 21.5151 631.724 Q22.9556 629.968 26.2582 627.333 Q29.5607 624.663 33.6011 622.695 Q43.4034 617.952 56.0515 617.952 Q68.2078 617.952 78.0101 622.484 Q82.1207 624.417 85.5638 627.122 Q89.0069 629.827 90.5177 631.619 Q92.0284 633.411 92.0284 633.938 Q92.0284 634.64 91.3257 634.64 Z" fill="#000000" fill-rule="nonzero" fill-opacity="1" /><polyline clip-path="url(#clip462)" style="stroke:#009af9; stroke-linecap:round; stroke-linejoin:round; stroke-width:4; stroke-opacity:1; fill:none" points="2293.95,1186.41 2013.91,1022.29 1733.86,821.888 1453.82,594.181 1173.78,446.59 893.74,313.389 613.699,192.57 333.658,86.0646 "/>
<path clip-path="url(#clip462)" d="M2293.95 1162.41 L2269.95 1186.41 L2293.95 1210.41 L2317.95 1186.41 L2293.95 1162.41 Z" fill="#009af9" fill-rule="evenodd" fill-opacity="1" stroke="#000000" stroke-opacity="1" stroke-width="3.2"/>
<path clip-path="url(#clip462)" d="M2013.91 998.285 L1989.91 1022.29 L2013.91 1046.29 L2037.91 1022.29 L2013.91 998.285 Z" fill="#009af9" fill-rule="evenodd" fill-opacity="1" stroke="#000000" stroke-opacity="1" stroke-width="3.2"/>
<path clip-path="url(#clip462)" d="M1733.86 797.888 L1709.86 821.888 L1733.86 845.888 L1757.86 821.888 L1733.86 797.888 Z" fill="#009af9" fill-rule="evenodd" fill-opacity="1" stroke="#000000" stroke-opacity="1" stroke-width="3.2"/>
<path clip-path="url(#clip462)" d="M1453.82 570.181 L1429.82 594.181 L1453.82 618.181 L1477.82 594.181 L1453.82 570.181 Z" fill="#009af9" fill-rule="evenodd" fill-opacity="1" stroke="#000000" stroke-opacity="1" stroke-width="3.2"/>
<path clip-path="url(#clip462)" d="M1173.78 422.59 L1149.78 446.59 L1173.78 470.59 L1197.78 446.59 L1173.78 422.59 Z" fill="#009af9" fill-rule="evenodd" fill-opacity="1" stroke="#000000" stroke-opacity="1" stroke-width="3.2"/>
<path clip-path="url(#clip462)" d="M893.74 289.389 L869.74 313.389 L893.74 337.389 L917.74 313.389 L893.74 289.389 Z" fill="#009af9" fill-rule="evenodd" fill-opacity="1" stroke="#000000" stroke-opacity="1" stroke-width="3.2"/>
<path clip-path="url(#clip462)" d="M613.699 168.57 L589.699 192.57 L613.699 216.57 L637.699 192.57 L613.699 168.57 Z" fill="#009af9" fill-rule="evenodd" fill-opacity="1" stroke="#000000" stroke-opacity="1" stroke-width="3.2"/>
<path clip-path="url(#clip462)" d="M333.658 62.0646 L309.658 86.0646 L333.658 110.065 L357.658 86.0646 L333.658 62.0646 Z" fill="#009af9" fill-rule="evenodd" fill-opacity="1" stroke="#000000" stroke-opacity="1" stroke-width="3.2"/>
<polyline clip-path="url(#clip462)" style="stroke:#000000; stroke-linecap:round; stroke-linejoin:round; stroke-width:4; stroke-opacity:1; fill:none" points="2293.95,1186.44 2293.95,1186.39 "/>
<polyline clip-path="url(#clip462)" style="stroke:#000000; stroke-linecap:round; stroke-linejoin:round; stroke-width:4; stroke-opacity:1; fill:none" points="2013.91,1022.31 2013.91,1022.26 "/>
<polyline clip-path="url(#clip462)" style="stroke:#000000; stroke-linecap:round; stroke-linejoin:round; stroke-width:4; stroke-opacity:1; fill:none" points="1733.86,821.942 1733.86,821.835 "/>
<polyline clip-path="url(#clip462)" style="stroke:#000000; stroke-linecap:round; stroke-linejoin:round; stroke-width:4; stroke-opacity:1; fill:none" points="1453.82,594.273 1453.82,594.089 "/>
<polyline clip-path="url(#clip462)" style="stroke:#000000; stroke-linecap:round; stroke-linejoin:round; stroke-width:4; stroke-opacity:1; fill:none" points="1173.78,446.658 1173.78,446.522 "/>
<polyline clip-path="url(#clip462)" style="stroke:#000000; stroke-linecap:round; stroke-linejoin:round; stroke-width:4; stroke-opacity:1; fill:none" points="893.74,313.484 893.74,313.294 "/>
<polyline clip-path="url(#clip462)" style="stroke:#000000; stroke-linecap:round; stroke-linejoin:round; stroke-width:4; stroke-opacity:1; fill:none" points="613.699,192.686 613.699,192.455 "/>
<polyline clip-path="url(#clip462)" style="stroke:#000000; stroke-linecap:round; stroke-linejoin:round; stroke-width:4; stroke-opacity:1; fill:none" points="333.658,86.3103 333.658,85.8189 "/>
<line clip-path="url(#clip462)" x1="2317.95" y1="1186.44" x2="2269.95" y2="1186.44" style="stroke:#000000; stroke-width:4; stroke-opacity:1"/>
<line clip-path="url(#clip462)" x1="2317.95" y1="1186.39" x2="2269.95" y2="1186.39" style="stroke:#000000; stroke-width:4; stroke-opacity:1"/>
<line clip-path="url(#clip462)" x1="2037.91" y1="1022.31" x2="1989.91" y2="1022.31" style="stroke:#000000; stroke-width:4; stroke-opacity:1"/>
<line clip-path="url(#clip462)" x1="2037.91" y1="1022.26" x2="1989.91" y2="1022.26" style="stroke:#000000; stroke-width:4; stroke-opacity:1"/>
<line clip-path="url(#clip462)" x1="1757.86" y1="821.942" x2="1709.86" y2="821.942" style="stroke:#000000; stroke-width:4; stroke-opacity:1"/>
<line clip-path="url(#clip462)" x1="1757.86" y1="821.835" x2="1709.86" y2="821.835" style="stroke:#000000; stroke-width:4; stroke-opacity:1"/>
<line clip-path="url(#clip462)" x1="1477.82" y1="594.273" x2="1429.82" y2="594.273" style="stroke:#000000; stroke-width:4; stroke-opacity:1"/>
<line clip-path="url(#clip462)" x1="1477.82" y1="594.089" x2="1429.82" y2="594.089" style="stroke:#000000; stroke-width:4; stroke-opacity:1"/>
<line clip-path="url(#clip462)" x1="1197.78" y1="446.658" x2="1149.78" y2="446.658" style="stroke:#000000; stroke-width:4; stroke-opacity:1"/>
<line clip-path="url(#clip462)" x1="1197.78" y1="446.522" x2="1149.78" y2="446.522" style="stroke:#000000; stroke-width:4; stroke-opacity:1"/>
<line clip-path="url(#clip462)" x1="917.74" y1="313.484" x2="869.74" y2="313.484" style="stroke:#000000; stroke-width:4; stroke-opacity:1"/>
<line clip-path="url(#clip462)" x1="917.74" y1="313.294" x2="869.74" y2="313.294" style="stroke:#000000; stroke-width:4; stroke-opacity:1"/>
<line clip-path="url(#clip462)" x1="637.699" y1="192.686" x2="589.699" y2="192.686" style="stroke:#000000; stroke-width:4; stroke-opacity:1"/>
<line clip-path="url(#clip462)" x1="637.699" y1="192.455" x2="589.699" y2="192.455" style="stroke:#000000; stroke-width:4; stroke-opacity:1"/>
<line clip-path="url(#clip462)" x1="357.658" y1="86.3103" x2="309.658" y2="86.3103" style="stroke:#000000; stroke-width:4; stroke-opacity:1"/>
<line clip-path="url(#clip462)" x1="357.658" y1="85.8189" x2="309.658" y2="85.8189" style="stroke:#000000; stroke-width:4; stroke-opacity:1"/>
<polyline clip-path="url(#clip462)" style="stroke:#e26f46; stroke-linecap:round; stroke-linejoin:round; stroke-width:4; stroke-opacity:1; fill:none" points="2293.95,1371.64 2013.91,1336.68 1733.86,1286.58 1453.82,1213.89 1173.78,1104.72 893.74,982.583 613.699,851.2 333.658,727.26 "/>
<path clip-path="url(#clip462)" d="M2293.95 1347.64 L2269.95 1371.64 L2293.95 1395.64 L2317.95 1371.64 L2293.95 1347.64 Z" fill="#e26f46" fill-rule="evenodd" fill-opacity="1" stroke="#000000" stroke-opacity="1" stroke-width="3.2"/>
<path clip-path="url(#clip462)" d="M2013.91 1312.68 L1989.91 1336.68 L2013.91 1360.68 L2037.91 1336.68 L2013.91 1312.68 Z" fill="#e26f46" fill-rule="evenodd" fill-opacity="1" stroke="#000000" stroke-opacity="1" stroke-width="3.2"/>
<path clip-path="url(#clip462)" d="M1733.86 1262.58 L1709.86 1286.58 L1733.86 1310.58 L1757.86 1286.58 L1733.86 1262.58 Z" fill="#e26f46" fill-rule="evenodd" fill-opacity="1" stroke="#000000" stroke-opacity="1" stroke-width="3.2"/>
<path clip-path="url(#clip462)" d="M1453.82 1189.89 L1429.82 1213.89 L1453.82 1237.89 L1477.82 1213.89 L1453.82 1189.89 Z" fill="#e26f46" fill-rule="evenodd" fill-opacity="1" stroke="#000000" stroke-opacity="1" stroke-width="3.2"/>
<path clip-path="url(#clip462)" d="M1173.78 1080.72 L1149.78 1104.72 L1173.78 1128.72 L1197.78 1104.72 L1173.78 1080.72 Z" fill="#e26f46" fill-rule="evenodd" fill-opacity="1" stroke="#000000" stroke-opacity="1" stroke-width="3.2"/>
<path clip-path="url(#clip462)" d="M893.74 958.583 L869.74 982.583 L893.74 1006.58 L917.74 982.583 L893.74 958.583 Z" fill="#e26f46" fill-rule="evenodd" fill-opacity="1" stroke="#000000" stroke-opacity="1" stroke-width="3.2"/>
<path clip-path="url(#clip462)" d="M613.699 827.2 L589.699 851.2 L613.699 875.2 L637.699 851.2 L613.699 827.2 Z" fill="#e26f46" fill-rule="evenodd" fill-opacity="1" stroke="#000000" stroke-opacity="1" stroke-width="3.2"/>
<path clip-path="url(#clip462)" d="M333.658 703.26 L309.658 727.26 L333.658 751.26 L357.658 727.26 L333.658 703.26 Z" fill="#e26f46" fill-rule="evenodd" fill-opacity="1" stroke="#000000" stroke-opacity="1" stroke-width="3.2"/>
<polyline clip-path="url(#clip462)" style="stroke:#000000; stroke-linecap:round; stroke-linejoin:round; stroke-width:4; stroke-opacity:1; fill:none" points="2293.95,1371.65 2293.95,1371.64 "/>
<polyline clip-path="url(#clip462)" style="stroke:#000000; stroke-linecap:round; stroke-linejoin:round; stroke-width:4; stroke-opacity:1; fill:none" points="2013.91,1336.68 2013.91,1336.68 "/>
<polyline clip-path="url(#clip462)" style="stroke:#000000; stroke-linecap:round; stroke-linejoin:round; stroke-width:4; stroke-opacity:1; fill:none" points="1733.86,1286.58 1733.86,1286.57 "/>
<polyline clip-path="url(#clip462)" style="stroke:#000000; stroke-linecap:round; stroke-linejoin:round; stroke-width:4; stroke-opacity:1; fill:none" points="1453.82,1213.9 1453.82,1213.88 "/>
<polyline clip-path="url(#clip462)" style="stroke:#000000; stroke-linecap:round; stroke-linejoin:round; stroke-width:4; stroke-opacity:1; fill:none" points="1173.78,1104.76 1173.78,1104.68 "/>
<polyline clip-path="url(#clip462)" style="stroke:#000000; stroke-linecap:round; stroke-linejoin:round; stroke-width:4; stroke-opacity:1; fill:none" points="893.74,982.651 893.74,982.515 "/>
<polyline clip-path="url(#clip462)" style="stroke:#000000; stroke-linecap:round; stroke-linejoin:round; stroke-width:4; stroke-opacity:1; fill:none" points="613.699,851.34 613.699,851.06 "/>
<polyline clip-path="url(#clip462)" style="stroke:#000000; stroke-linecap:round; stroke-linejoin:round; stroke-width:4; stroke-opacity:1; fill:none" points="333.658,727.643 333.658,726.877 "/>
<line clip-path="url(#clip462)" x1="2317.95" y1="1371.65" x2="2269.95" y2="1371.65" style="stroke:#000000; stroke-width:4; stroke-opacity:1"/>
<line clip-path="url(#clip462)" x1="2317.95" y1="1371.64" x2="2269.95" y2="1371.64" style="stroke:#000000; stroke-width:4; stroke-opacity:1"/>
<line clip-path="url(#clip462)" x1="2037.91" y1="1336.68" x2="1989.91" y2="1336.68" style="stroke:#000000; stroke-width:4; stroke-opacity:1"/>
<line clip-path="url(#clip462)" x1="2037.91" y1="1336.68" x2="1989.91" y2="1336.68" style="stroke:#000000; stroke-width:4; stroke-opacity:1"/>
<line clip-path="url(#clip462)" x1="1757.86" y1="1286.58" x2="1709.86" y2="1286.58" style="stroke:#000000; stroke-width:4; stroke-opacity:1"/>
<line clip-path="url(#clip462)" x1="1757.86" y1="1286.57" x2="1709.86" y2="1286.57" style="stroke:#000000; stroke-width:4; stroke-opacity:1"/>
<line clip-path="url(#clip462)" x1="1477.82" y1="1213.9" x2="1429.82" y2="1213.9" style="stroke:#000000; stroke-width:4; stroke-opacity:1"/>
<line clip-path="url(#clip462)" x1="1477.82" y1="1213.88" x2="1429.82" y2="1213.88" style="stroke:#000000; stroke-width:4; stroke-opacity:1"/>
<line clip-path="url(#clip462)" x1="1197.78" y1="1104.76" x2="1149.78" y2="1104.76" style="stroke:#000000; stroke-width:4; stroke-opacity:1"/>
<line clip-path="url(#clip462)" x1="1197.78" y1="1104.68" x2="1149.78" y2="1104.68" style="stroke:#000000; stroke-width:4; stroke-opacity:1"/>
<line clip-path="url(#clip462)" x1="917.74" y1="982.651" x2="869.74" y2="982.651" style="stroke:#000000; stroke-width:4; stroke-opacity:1"/>
<line clip-path="url(#clip462)" x1="917.74" y1="982.515" x2="869.74" y2="982.515" style="stroke:#000000; stroke-width:4; stroke-opacity:1"/>
<line clip-path="url(#clip462)" x1="637.699" y1="851.34" x2="589.699" y2="851.34" style="stroke:#000000; stroke-width:4; stroke-opacity:1"/>
<line clip-path="url(#clip462)" x1="637.699" y1="851.06" x2="589.699" y2="851.06" style="stroke:#000000; stroke-width:4; stroke-opacity:1"/>
<line clip-path="url(#clip462)" x1="357.658" y1="727.643" x2="309.658" y2="727.643" style="stroke:#000000; stroke-width:4; stroke-opacity:1"/>
<line clip-path="url(#clip462)" x1="357.658" y1="726.877" x2="309.658" y2="726.877" style="stroke:#000000; stroke-width:4; stroke-opacity:1"/>
<polyline clip-path="url(#clip462)" style="stroke:#3da44d; stroke-linecap:round; stroke-linejoin:round; stroke-width:4; stroke-opacity:1; fill:none" points="2293.95,1364.58 2013.91,1303.64 1733.86,1159.16 1453.82,1006.66 1173.78,927.862 893.74,849.892 613.699,599.691 333.658,750.38 "/>
<path clip-path="url(#clip462)" d="M2293.95 1340.58 L2269.95 1364.58 L2293.95 1388.58 L2317.95 1364.58 L2293.95 1340.58 Z" fill="#3da44d" fill-rule="evenodd" fill-opacity="1" stroke="#000000" stroke-opacity="1" stroke-width="3.2"/>
<path clip-path="url(#clip462)" d="M2013.91 1279.64 L1989.91 1303.64 L2013.91 1327.64 L2037.91 1303.64 L2013.91 1279.64 Z" fill="#3da44d" fill-rule="evenodd" fill-opacity="1" stroke="#000000" stroke-opacity="1" stroke-width="3.2"/>
<path clip-path="url(#clip462)" d="M1733.86 1135.16 L1709.86 1159.16 L1733.86 1183.16 L1757.86 1159.16 L1733.86 1135.16 Z" fill="#3da44d" fill-rule="evenodd" fill-opacity="1" stroke="#000000" stroke-opacity="1" stroke-width="3.2"/>
<path clip-path="url(#clip462)" d="M1453.82 982.657 L1429.82 1006.66 L1453.82 1030.66 L1477.82 1006.66 L1453.82 982.657 Z" fill="#3da44d" fill-rule="evenodd" fill-opacity="1" stroke="#000000" stroke-opacity="1" stroke-width="3.2"/>
<path clip-path="url(#clip462)" d="M1173.78 903.862 L1149.78 927.862 L1173.78 951.862 L1197.78 927.862 L1173.78 903.862 Z" fill="#3da44d" fill-rule="evenodd" fill-opacity="1" stroke="#000000" stroke-opacity="1" stroke-width="3.2"/>
<path clip-path="url(#clip462)" d="M893.74 825.892 L869.74 849.892 L893.74 873.892 L917.74 849.892 L893.74 825.892 Z" fill="#3da44d" fill-rule="evenodd" fill-opacity="1" stroke="#000000" stroke-opacity="1" stroke-width="3.2"/>
<path clip-path="url(#clip462)" d="M613.699 575.691 L589.699 599.691 L613.699 623.691 L637.699 599.691 L613.699 575.691 Z" fill="#3da44d" fill-rule="evenodd" fill-opacity="1" stroke="#000000" stroke-opacity="1" stroke-width="3.2"/>
<path clip-path="url(#clip462)" d="M333.658 726.38 L309.658 750.38 L333.658 774.38 L357.658 750.38 L333.658 726.38 Z" fill="#3da44d" fill-rule="evenodd" fill-opacity="1" stroke="#000000" stroke-opacity="1" stroke-width="3.2"/>
<polyline clip-path="url(#clip462)" style="stroke:#000000; stroke-linecap:round; stroke-linejoin:round; stroke-width:4; stroke-opacity:1; fill:none" points="2293.95,1364.58 2293.95,1364.58 "/>
<polyline clip-path="url(#clip462)" style="stroke:#000000; stroke-linecap:round; stroke-linejoin:round; stroke-width:4; stroke-opacity:1; fill:none" points="2013.91,1303.64 2013.91,1303.63 "/>
<polyline clip-path="url(#clip462)" style="stroke:#000000; stroke-linecap:round; stroke-linejoin:round; stroke-width:4; stroke-opacity:1; fill:none" points="1733.86,1159.19 1733.86,1159.12 "/>
<polyline clip-path="url(#clip462)" style="stroke:#000000; stroke-linecap:round; stroke-linejoin:round; stroke-width:4; stroke-opacity:1; fill:none" points="1453.82,1006.77 1453.82,1006.54 "/>
<polyline clip-path="url(#clip462)" style="stroke:#000000; stroke-linecap:round; stroke-linejoin:round; stroke-width:4; stroke-opacity:1; fill:none" points="1173.78,927.914 1173.78,927.809 "/>
<polyline clip-path="url(#clip462)" style="stroke:#000000; stroke-linecap:round; stroke-linejoin:round; stroke-width:4; stroke-opacity:1; fill:none" points="893.74,850.008 893.74,849.777 "/>
<polyline clip-path="url(#clip462)" style="stroke:#000000; stroke-linecap:round; stroke-linejoin:round; stroke-width:4; stroke-opacity:1; fill:none" points="613.699,600.659 613.699,598.723 "/>
<polyline clip-path="url(#clip462)" style="stroke:#000000; stroke-linecap:round; stroke-linejoin:round; stroke-width:4; stroke-opacity:1; fill:none" points="333.658,750.645 333.658,750.115 "/>
<line clip-path="url(#clip462)" x1="2317.95" y1="1364.58" x2="2269.95" y2="1364.58" style="stroke:#000000; stroke-width:4; stroke-opacity:1"/>
<line clip-path="url(#clip462)" x1="2317.95" y1="1364.58" x2="2269.95" y2="1364.58" style="stroke:#000000; stroke-width:4; stroke-opacity:1"/>
<line clip-path="url(#clip462)" x1="2037.91" y1="1303.64" x2="1989.91" y2="1303.64" style="stroke:#000000; stroke-width:4; stroke-opacity:1"/>
<line clip-path="url(#clip462)" x1="2037.91" y1="1303.63" x2="1989.91" y2="1303.63" style="stroke:#000000; stroke-width:4; stroke-opacity:1"/>
<line clip-path="url(#clip462)" x1="1757.86" y1="1159.19" x2="1709.86" y2="1159.19" style="stroke:#000000; stroke-width:4; stroke-opacity:1"/>
<line clip-path="url(#clip462)" x1="1757.86" y1="1159.12" x2="1709.86" y2="1159.12" style="stroke:#000000; stroke-width:4; stroke-opacity:1"/>
<line clip-path="url(#clip462)" x1="1477.82" y1="1006.77" x2="1429.82" y2="1006.77" style="stroke:#000000; stroke-width:4; stroke-opacity:1"/>
<line clip-path="url(#clip462)" x1="1477.82" y1="1006.54" x2="1429.82" y2="1006.54" style="stroke:#000000; stroke-width:4; stroke-opacity:1"/>
<line clip-path="url(#clip462)" x1="1197.78" y1="927.914" x2="1149.78" y2="927.914" style="stroke:#000000; stroke-width:4; stroke-opacity:1"/>
<line clip-path="url(#clip462)" x1="1197.78" y1="927.809" x2="1149.78" y2="927.809" style="stroke:#000000; stroke-width:4; stroke-opacity:1"/>
<line clip-path="url(#clip462)" x1="917.74" y1="850.008" x2="869.74" y2="850.008" style="stroke:#000000; stroke-width:4; stroke-opacity:1"/>
<line clip-path="url(#clip462)" x1="917.74" y1="849.777" x2="869.74" y2="849.777" style="stroke:#000000; stroke-width:4; stroke-opacity:1"/>
<line clip-path="url(#clip462)" x1="637.699" y1="600.659" x2="589.699" y2="600.659" style="stroke:#000000; stroke-width:4; stroke-opacity:1"/>
<line clip-path="url(#clip462)" x1="637.699" y1="598.723" x2="589.699" y2="598.723" style="stroke:#000000; stroke-width:4; stroke-opacity:1"/>
<line clip-path="url(#clip462)" x1="357.658" y1="750.645" x2="309.658" y2="750.645" style="stroke:#000000; stroke-width:4; stroke-opacity:1"/>
<line clip-path="url(#clip462)" x1="357.658" y1="750.115" x2="309.658" y2="750.115" style="stroke:#000000; stroke-width:4; stroke-opacity:1"/>
<polyline clip-path="url(#clip462)" style="stroke:#c271d2; stroke-linecap:round; stroke-linejoin:round; stroke-width:4; stroke-opacity:1; fill:none" points="2293.95,1359.59 2013.91,1271.21 1733.86,1071.74 1453.82,931.954 1173.78,860.304 893.74,791.431 613.699,750.951 333.658,616.411 "/>
<path clip-path="url(#clip462)" d="M2293.95 1335.59 L2269.95 1359.59 L2293.95 1383.59 L2317.95 1359.59 L2293.95 1335.59 Z" fill="#c271d2" fill-rule="evenodd" fill-opacity="1" stroke="#000000" stroke-opacity="1" stroke-width="3.2"/>
<path clip-path="url(#clip462)" d="M2013.91 1247.21 L1989.91 1271.21 L2013.91 1295.21 L2037.91 1271.21 L2013.91 1247.21 Z" fill="#c271d2" fill-rule="evenodd" fill-opacity="1" stroke="#000000" stroke-opacity="1" stroke-width="3.2"/>
<path clip-path="url(#clip462)" d="M1733.86 1047.74 L1709.86 1071.74 L1733.86 1095.74 L1757.86 1071.74 L1733.86 1047.74 Z" fill="#c271d2" fill-rule="evenodd" fill-opacity="1" stroke="#000000" stroke-opacity="1" stroke-width="3.2"/>
<path clip-path="url(#clip462)" d="M1453.82 907.954 L1429.82 931.954 L1453.82 955.954 L1477.82 931.954 L1453.82 907.954 Z" fill="#c271d2" fill-rule="evenodd" fill-opacity="1" stroke="#000000" stroke-opacity="1" stroke-width="3.2"/>
<path clip-path="url(#clip462)" d="M1173.78 836.304 L1149.78 860.304 L1173.78 884.304 L1197.78 860.304 L1173.78 836.304 Z" fill="#c271d2" fill-rule="evenodd" fill-opacity="1" stroke="#000000" stroke-opacity="1" stroke-width="3.2"/>
<path clip-path="url(#clip462)" d="M893.74 767.431 L869.74 791.431 L893.74 815.431 L917.74 791.431 L893.74 767.431 Z" fill="#c271d2" fill-rule="evenodd" fill-opacity="1" stroke="#000000" stroke-opacity="1" stroke-width="3.2"/>
<path clip-path="url(#clip462)" d="M613.699 726.951 L589.699 750.951 L613.699 774.951 L637.699 750.951 L613.699 726.951 Z" fill="#c271d2" fill-rule="evenodd" fill-opacity="1" stroke="#000000" stroke-opacity="1" stroke-width="3.2"/>
<path clip-path="url(#clip462)" d="M333.658 592.411 L309.658 616.411 L333.658 640.411 L357.658 616.411 L333.658 592.411 Z" fill="#c271d2" fill-rule="evenodd" fill-opacity="1" stroke="#000000" stroke-opacity="1" stroke-width="3.2"/>
<polyline clip-path="url(#clip462)" style="stroke:#000000; stroke-linecap:round; stroke-linejoin:round; stroke-width:4; stroke-opacity:1; fill:none" points="2293.95,1359.59 2293.95,1359.59 "/>
<polyline clip-path="url(#clip462)" style="stroke:#000000; stroke-linecap:round; stroke-linejoin:round; stroke-width:4; stroke-opacity:1; fill:none" points="2013.91,1271.21 2013.91,1271.2 "/>
<polyline clip-path="url(#clip462)" style="stroke:#000000; stroke-linecap:round; stroke-linejoin:round; stroke-width:4; stroke-opacity:1; fill:none" points="1733.86,1071.78 1733.86,1071.7 "/>
<polyline clip-path="url(#clip462)" style="stroke:#000000; stroke-linecap:round; stroke-linejoin:round; stroke-width:4; stroke-opacity:1; fill:none" points="1453.82,932.022 1453.82,931.887 "/>
<polyline clip-path="url(#clip462)" style="stroke:#000000; stroke-linecap:round; stroke-linejoin:round; stroke-width:4; stroke-opacity:1; fill:none" points="1173.78,860.4 1173.78,860.209 "/>
<polyline clip-path="url(#clip462)" style="stroke:#000000; stroke-linecap:round; stroke-linejoin:round; stroke-width:4; stroke-opacity:1; fill:none" points="893.74,791.601 893.74,791.261 "/>
<polyline clip-path="url(#clip462)" style="stroke:#000000; stroke-linecap:round; stroke-linejoin:round; stroke-width:4; stroke-opacity:1; fill:none" points="613.699,751.051 613.699,750.851 "/>
<polyline clip-path="url(#clip462)" style="stroke:#000000; stroke-linecap:round; stroke-linejoin:round; stroke-width:4; stroke-opacity:1; fill:none" points="333.658,616.628 333.658,616.194 "/>
<line clip-path="url(#clip462)" x1="2317.95" y1="1359.59" x2="2269.95" y2="1359.59" style="stroke:#000000; stroke-width:4; stroke-opacity:1"/>
<line clip-path="url(#clip462)" x1="2317.95" y1="1359.59" x2="2269.95" y2="1359.59" style="stroke:#000000; stroke-width:4; stroke-opacity:1"/>
<line clip-path="url(#clip462)" x1="2037.91" y1="1271.21" x2="1989.91" y2="1271.21" style="stroke:#000000; stroke-width:4; stroke-opacity:1"/>
<line clip-path="url(#clip462)" x1="2037.91" y1="1271.2" x2="1989.91" y2="1271.2" style="stroke:#000000; stroke-width:4; stroke-opacity:1"/>
<line clip-path="url(#clip462)" x1="1757.86" y1="1071.78" x2="1709.86" y2="1071.78" style="stroke:#000000; stroke-width:4; stroke-opacity:1"/>
<line clip-path="url(#clip462)" x1="1757.86" y1="1071.7" x2="1709.86" y2="1071.7" style="stroke:#000000; stroke-width:4; stroke-opacity:1"/>
<line clip-path="url(#clip462)" x1="1477.82" y1="932.022" x2="1429.82" y2="932.022" style="stroke:#000000; stroke-width:4; stroke-opacity:1"/>
<line clip-path="url(#clip462)" x1="1477.82" y1="931.887" x2="1429.82" y2="931.887" style="stroke:#000000; stroke-width:4; stroke-opacity:1"/>
<line clip-path="url(#clip462)" x1="1197.78" y1="860.4" x2="1149.78" y2="860.4" style="stroke:#000000; stroke-width:4; stroke-opacity:1"/>
<line clip-path="url(#clip462)" x1="1197.78" y1="860.209" x2="1149.78" y2="860.209" style="stroke:#000000; stroke-width:4; stroke-opacity:1"/>
<line clip-path="url(#clip462)" x1="917.74" y1="791.601" x2="869.74" y2="791.601" style="stroke:#000000; stroke-width:4; stroke-opacity:1"/>
<line clip-path="url(#clip462)" x1="917.74" y1="791.261" x2="869.74" y2="791.261" style="stroke:#000000; stroke-width:4; stroke-opacity:1"/>
<line clip-path="url(#clip462)" x1="637.699" y1="751.051" x2="589.699" y2="751.051" style="stroke:#000000; stroke-width:4; stroke-opacity:1"/>
<line clip-path="url(#clip462)" x1="637.699" y1="750.851" x2="589.699" y2="750.851" style="stroke:#000000; stroke-width:4; stroke-opacity:1"/>
<line clip-path="url(#clip462)" x1="357.658" y1="616.628" x2="309.658" y2="616.628" style="stroke:#000000; stroke-width:4; stroke-opacity:1"/>
<line clip-path="url(#clip462)" x1="357.658" y1="616.194" x2="309.658" y2="616.194" style="stroke:#000000; stroke-width:4; stroke-opacity:1"/>
<path clip-path="url(#clip460)" d="M1844.03 546.277 L2283.49 546.277 L2283.49 92.6766 L1844.03 92.6766  Z" fill="#ffffff" fill-rule="evenodd" fill-opacity="1"/>
<polyline clip-path="url(#clip460)" style="stroke:#000000; stroke-linecap:round; stroke-linejoin:round; stroke-width:4; stroke-opacity:0; fill:none" points="1844.03,546.277 2283.49,546.277 2283.49,92.6766 1844.03,92.6766 1844.03,546.277 "/>
<polyline clip-path="url(#clip460)" style="stroke:#009af9; stroke-linecap:round; stroke-linejoin:round; stroke-width:7; stroke-opacity:1; fill:none" points="1867.12,183.397 2005.65,183.397 "/>
<path clip-path="url(#clip460)" d="M1936.39 171.181 L1924.17 183.397 L1936.39 195.612 L1948.6 183.397 L1936.39 171.181 Z" fill="#009af9" fill-rule="evenodd" fill-opacity="1" stroke="#000000" stroke-opacity="1" stroke-width="5.51385"/>
<path clip-path="url(#clip460)" d="M2085.83 154.706 Q2085.83 155.485 2085.67 156.141 L2083.38 170.733 Q2083.25 171.84 2083.01 172.249 Q2082.8 172.659 2082.15 172.659 Q2081.12 172.659 2081.12 171.594 Q2081.12 170.979 2081.37 169.995 Q2082.06 165.363 2082.06 163.273 Q2082.06 161.879 2081.78 160.854 Q2081.53 159.789 2081.12 159.051 Q2080.75 158.313 2079.89 157.821 Q2079.03 157.329 2078.21 157.042 Q2077.39 156.755 2075.92 156.632 Q2074.44 156.469 2073.17 156.428 Q2071.9 156.387 2069.81 156.387 Q2065.26 156.387 2064.52 156.551 Q2063.74 156.755 2063.33 157.37 Q2062.96 157.944 2062.55 159.666 L2051.4 204.221 L2051.08 205.984 Q2051.08 206.967 2051.69 207.295 Q2052.31 207.623 2054.19 207.828 Q2056.9 208.033 2059.56 208.033 Q2059.64 208.033 2059.81 208.033 Q2060.71 208.033 2061.08 208.074 Q2061.45 208.074 2061.81 208.156 Q2062.18 208.238 2062.27 208.443 Q2062.39 208.607 2062.39 208.935 Q2062.39 209.714 2062.06 210.123 Q2061.73 210.492 2061.41 210.574 Q2061.12 210.615 2060.54 210.615 Q2059.4 210.615 2056.94 210.533 Q2054.48 210.451 2053.25 210.451 L2046.28 210.369 L2039.15 210.451 Q2038.04 210.451 2035.7 210.533 Q2033.37 210.615 2032.26 210.615 Q2030.83 210.615 2030.83 209.591 Q2030.83 208.443 2031.36 208.238 Q2031.93 208.033 2034.35 208.033 Q2037.75 208.033 2039.6 207.869 Q2041.44 207.705 2042.43 207.131 Q2043.45 206.557 2043.74 205.984 Q2044.03 205.369 2044.35 203.975 L2055.63 159.174 Q2055.95 158.19 2055.95 157.411 Q2055.95 157.001 2055.83 156.837 Q2055.75 156.673 2055.22 156.551 Q2054.68 156.387 2053.58 156.387 L2050.3 156.387 Q2046.94 156.387 2044.85 156.551 Q2042.8 156.673 2040.83 157.288 Q2038.9 157.903 2037.75 158.764 Q2036.65 159.625 2035.42 161.387 Q2034.19 163.15 2033.29 165.281 Q2032.43 167.413 2031.2 170.897 Q2030.79 172.044 2030.54 172.372 Q2030.34 172.659 2029.76 172.659 Q2029.35 172.659 2029.02 172.413 Q2028.74 172.126 2028.74 171.758 Q2029.15 170.405 2029.23 170.241 L2034.27 155.444 Q2034.68 154.255 2035.05 154.05 Q2035.46 153.804 2036.98 153.804 L2083.54 153.804 Q2084.28 153.804 2084.52 153.804 Q2084.77 153.804 2085.18 153.886 Q2085.59 153.968 2085.71 154.173 Q2085.83 154.378 2085.83 154.706 Z" fill="#000000" fill-rule="nonzero" fill-opacity="1" /><path clip-path="url(#clip460)" d="M2100.58 197.868 Q2100.66 196.843 2102.26 196.843 L2153.7 196.843 Q2156.12 196.843 2156.16 197.786 Q2156.16 198.81 2153.87 198.769 L2102.83 198.769 Q2100.58 198.81 2100.58 197.868 M2100.58 181.472 Q2100.58 180.447 2102.34 180.488 L2153.62 180.488 Q2156.12 180.488 2156.16 181.472 Q2156.16 182.415 2154.03 182.415 L2102.26 182.415 Q2100.58 182.415 2100.58 181.472 Z" fill="#000000" fill-rule="nonzero" fill-opacity="1" /><path clip-path="url(#clip460)" d="M2188.54 183.767 Q2188.54 171.43 2191.66 164.707 Q2196 154.706 2206.25 154.706 Q2208.42 154.706 2210.67 155.321 Q2212.97 155.895 2215.84 158.149 Q2218.75 160.404 2220.51 164.093 Q2223.87 171.225 2223.87 183.767 Q2223.87 196.023 2220.76 202.704 Q2216.21 212.46 2206.17 212.46 Q2202.39 212.46 2198.54 210.533 Q2194.73 208.607 2192.31 203.975 Q2188.54 197.048 2188.54 183.767 M2195.51 182.743 Q2195.51 195.408 2196.41 200.45 Q2197.43 205.902 2200.22 208.279 Q2203.05 210.615 2206.17 210.615 Q2209.53 210.615 2212.31 208.115 Q2215.14 205.574 2216 200.122 Q2216.95 194.753 2216.9 182.743 Q2216.9 171.061 2216.08 166.388 Q2214.98 160.936 2212.03 158.764 Q2209.12 156.551 2206.17 156.551 Q2205.06 156.551 2203.87 156.878 Q2202.72 157.206 2201.04 158.149 Q2199.36 159.092 2198.05 161.428 Q2196.78 163.765 2196.16 167.29 Q2195.51 171.84 2195.51 182.743 Z" fill="#000000" fill-rule="nonzero" fill-opacity="1" /><polyline clip-path="url(#clip460)" style="stroke:#e26f46; stroke-linecap:round; stroke-linejoin:round; stroke-width:7; stroke-opacity:1; fill:none" points="1867.12,274.117 2005.65,274.117 "/>
<path clip-path="url(#clip460)" d="M1936.39 261.901 L1924.17 274.117 L1936.39 286.332 L1948.6 274.117 L1936.39 261.901 Z" fill="#e26f46" fill-rule="evenodd" fill-opacity="1" stroke="#000000" stroke-opacity="1" stroke-width="5.51385"/>
<path clip-path="url(#clip460)" d="M2074.44 247.21 Q2074.44 248.276 2073.99 250.325 Q2072.55 256.105 2067.18 260.081 Q2066.28 260.819 2064.68 261.761 Q2066.61 263.032 2068.29 265.368 Q2070.79 269.221 2070.79 274.427 Q2070.79 276.845 2070.14 279.797 Q2068.29 286.642 2061.81 291.561 Q2055.3 296.356 2047.55 296.356 Q2043.37 296.356 2040.5 294.143 Q2037.67 291.888 2036.57 288.117 L2030.87 311.112 Q2030.75 311.686 2030.01 311.686 L2029.6 311.686 Q2028.74 311.686 2028.74 310.702 L2041.69 259.056 Q2042.55 255.572 2043.94 252.293 Q2045.34 249.014 2047.26 246.062 Q2049.23 243.111 2051.49 240.939 Q2053.74 238.725 2056.53 237.455 Q2059.31 236.143 2062.27 236.143 Q2068.46 236.143 2071.98 240.365 Q2074.44 243.357 2074.44 247.21 M2069.73 245.734 Q2069.73 243.193 2068.7 241.431 Q2066.61 238.069 2062.18 238.069 Q2059.52 238.069 2056.98 239.299 Q2054.48 240.488 2052.47 242.537 Q2050.46 244.587 2048.74 247.374 Q2047.02 250.161 2045.75 253.195 Q2044.52 256.187 2043.7 259.466 L2038.66 279.797 Q2038.16 281.969 2038.16 283.896 Q2038.16 288.486 2040.71 291.479 Q2043.25 294.471 2047.63 294.471 Q2053.45 294.471 2058.45 290.126 Q2062.8 286.232 2064.6 279.387 Q2065.63 275.083 2065.63 272.091 Q2065.63 268.811 2064.44 266.27 Q2063.58 264.221 2061.9 262.991 Q2058.78 264.098 2055.63 264.098 Q2054.11 264.098 2053.29 264.057 Q2052.51 264.016 2051.36 263.852 Q2050.26 263.688 2049.72 263.237 Q2049.23 262.786 2049.23 262.089 Q2049.23 261.679 2049.31 261.515 Q2049.48 260.86 2050.01 260.409 Q2050.54 259.958 2051.16 259.753 Q2051.77 259.507 2052.8 259.384 Q2053.86 259.261 2054.56 259.261 Q2055.26 259.22 2056.45 259.22 Q2059.23 259.22 2062.06 260.327 Q2063.13 259.753 2064.27 258.728 Q2067.92 255.326 2069.15 249.915 Q2069.73 247.907 2069.73 245.734 M2059.4 261.597 Q2057.68 261.146 2056.36 261.146 Q2051.57 261.146 2051.32 261.925 Q2051.32 262.007 2051.49 262.089 Q2051.65 262.13 2052.02 262.171 Q2052.43 262.171 2052.76 262.212 Q2053.13 262.253 2053.74 262.253 Q2054.35 262.253 2054.68 262.253 Q2055.05 262.253 2055.71 262.253 Q2057.35 262.253 2059.4 261.597 Z" fill="#000000" fill-rule="nonzero" fill-opacity="1" /><path clip-path="url(#clip460)" d="M2099.08 282.666 Q2099.16 281.641 2100.76 281.641 L2152.2 281.641 Q2154.62 281.641 2154.66 282.584 Q2154.66 283.609 2152.36 283.568 L2101.33 283.568 Q2099.08 283.609 2099.08 282.666 M2099.08 266.27 Q2099.08 265.245 2100.84 265.286 L2152.12 265.286 Q2154.62 265.286 2154.66 266.27 Q2154.66 267.213 2152.53 267.213 L2100.76 267.213 Q2099.08 267.213 2099.08 266.27 Z" fill="#000000" fill-rule="nonzero" fill-opacity="1" /><path clip-path="url(#clip460)" d="M2187.04 281.887 Q2187.04 279.387 2188.39 278.444 Q2189.74 277.46 2191.18 277.46 Q2193.1 277.46 2194.21 278.69 Q2195.36 279.879 2195.36 281.559 Q2195.36 283.24 2194.21 284.469 Q2193.1 285.658 2191.18 285.658 Q2190.24 285.658 2189.74 285.494 Q2190.85 289.347 2194.21 292.134 Q2197.61 294.922 2202.08 294.922 Q2207.7 294.922 2211.06 289.47 Q2213.07 285.945 2213.07 277.952 Q2213.07 270.902 2211.55 267.377 Q2209.21 262.007 2204.42 262.007 Q2197.61 262.007 2193.6 267.869 Q2193.1 268.607 2192.53 268.647 Q2191.71 268.647 2191.51 268.197 Q2191.34 267.705 2191.34 266.434 L2191.34 241.595 Q2191.34 239.586 2192.16 239.586 Q2192.49 239.586 2193.19 239.832 Q2198.47 242.168 2204.34 242.209 Q2210.36 242.209 2215.77 239.75 Q2216.18 239.504 2216.43 239.504 Q2217.25 239.504 2217.29 240.447 Q2217.29 240.775 2216.59 241.759 Q2215.94 242.701 2214.5 243.972 Q2213.07 245.202 2211.22 246.39 Q2209.38 247.579 2206.67 248.399 Q2204.01 249.178 2201.06 249.178 Q2197.53 249.178 2193.92 248.071 L2193.92 264.426 Q2198.27 260.163 2204.58 260.163 Q2211.3 260.163 2215.94 265.573 Q2220.57 270.984 2220.57 278.526 Q2220.57 286.437 2215.07 291.847 Q2209.62 297.258 2202.24 297.258 Q2195.52 297.258 2191.26 292.462 Q2187.04 287.667 2187.04 281.887 Z" fill="#000000" fill-rule="nonzero" fill-opacity="1" /><polyline clip-path="url(#clip460)" style="stroke:#3da44d; stroke-linecap:round; stroke-linejoin:round; stroke-width:7; stroke-opacity:1; fill:none" points="1867.12,364.837 2005.65,364.837 "/>
<path clip-path="url(#clip460)" d="M1936.39 352.621 L1924.17 364.837 L1936.39 377.052 L1948.6 364.837 L1936.39 352.621 Z" fill="#3da44d" fill-rule="evenodd" fill-opacity="1" stroke="#000000" stroke-opacity="1" stroke-width="5.51385"/>
<path clip-path="url(#clip460)" d="M2074.44 337.93 Q2074.44 338.996 2073.99 341.045 Q2072.55 346.825 2067.18 350.801 Q2066.28 351.539 2064.68 352.481 Q2066.61 353.752 2068.29 356.088 Q2070.79 359.941 2070.79 365.147 Q2070.79 367.565 2070.14 370.517 Q2068.29 377.362 2061.81 382.281 Q2055.3 387.076 2047.55 387.076 Q2043.37 387.076 2040.5 384.863 Q2037.67 382.608 2036.57 378.837 L2030.87 401.832 Q2030.75 402.406 2030.01 402.406 L2029.6 402.406 Q2028.74 402.406 2028.74 401.422 L2041.69 349.776 Q2042.55 346.292 2043.94 343.013 Q2045.34 339.734 2047.26 336.782 Q2049.23 333.831 2051.49 331.659 Q2053.74 329.445 2056.53 328.175 Q2059.31 326.863 2062.27 326.863 Q2068.46 326.863 2071.98 331.085 Q2074.44 334.077 2074.44 337.93 M2069.73 336.454 Q2069.73 333.913 2068.7 332.151 Q2066.61 328.789 2062.18 328.789 Q2059.52 328.789 2056.98 330.019 Q2054.48 331.208 2052.47 333.257 Q2050.46 335.307 2048.74 338.094 Q2047.02 340.881 2045.75 343.915 Q2044.52 346.907 2043.7 350.186 L2038.66 370.517 Q2038.16 372.689 2038.16 374.616 Q2038.16 379.206 2040.71 382.199 Q2043.25 385.191 2047.63 385.191 Q2053.45 385.191 2058.45 380.846 Q2062.8 376.952 2064.6 370.107 Q2065.63 365.803 2065.63 362.811 Q2065.63 359.531 2064.44 356.99 Q2063.58 354.941 2061.9 353.711 Q2058.78 354.818 2055.63 354.818 Q2054.11 354.818 2053.29 354.777 Q2052.51 354.736 2051.36 354.572 Q2050.26 354.408 2049.72 353.957 Q2049.23 353.506 2049.23 352.809 Q2049.23 352.399 2049.31 352.235 Q2049.48 351.58 2050.01 351.129 Q2050.54 350.678 2051.16 350.473 Q2051.77 350.227 2052.8 350.104 Q2053.86 349.981 2054.56 349.981 Q2055.26 349.94 2056.45 349.94 Q2059.23 349.94 2062.06 351.047 Q2063.13 350.473 2064.27 349.448 Q2067.92 346.046 2069.15 340.635 Q2069.73 338.627 2069.73 336.454 M2059.4 352.317 Q2057.68 351.866 2056.36 351.866 Q2051.57 351.866 2051.32 352.645 Q2051.32 352.727 2051.49 352.809 Q2051.65 352.85 2052.02 352.891 Q2052.43 352.891 2052.76 352.932 Q2053.13 352.973 2053.74 352.973 Q2054.35 352.973 2054.68 352.973 Q2055.05 352.973 2055.71 352.973 Q2057.35 352.973 2059.4 352.317 Z" fill="#000000" fill-rule="nonzero" fill-opacity="1" /><path clip-path="url(#clip460)" d="M2099.08 373.386 Q2099.16 372.361 2100.76 372.361 L2152.2 372.361 Q2154.62 372.361 2154.66 373.304 Q2154.66 374.329 2152.36 374.288 L2101.33 374.288 Q2099.08 374.329 2099.08 373.386 M2099.08 356.99 Q2099.08 355.965 2100.84 356.006 L2152.12 356.006 Q2154.62 356.006 2154.66 356.99 Q2154.66 357.933 2152.53 357.933 L2100.76 357.933 Q2099.08 357.933 2099.08 356.99 Z" fill="#000000" fill-rule="nonzero" fill-opacity="1" /><path clip-path="url(#clip460)" d="M2187.04 373.468 Q2187.04 364.081 2199.13 358.015 Q2193.92 354.49 2192.98 353.465 Q2189.29 349.366 2189.29 344.242 Q2189.29 338.381 2193.72 334.323 Q2198.19 330.224 2204.5 330.224 Q2210.52 330.224 2215.07 333.708 Q2219.62 337.192 2219.62 342.726 Q2219.62 350.514 2209.46 355.76 Q2216.18 359.941 2217.78 361.704 Q2221.88 366.254 2221.88 372.033 Q2221.88 378.755 2216.71 383.387 Q2211.55 387.978 2204.42 387.978 Q2197.45 387.978 2192.24 383.92 Q2187.04 379.862 2187.04 373.468 M2191.22 373.468 Q2191.22 378.673 2195.11 382.158 Q2199.05 385.642 2204.5 385.642 Q2209.79 385.642 2213.72 382.608 Q2217.7 379.575 2217.7 375.066 Q2217.7 373.304 2217.08 371.787 Q2216.51 370.271 2215.32 369.082 Q2214.17 367.852 2213.43 367.319 Q2212.74 366.746 2211.39 365.803 L2201.06 359.286 Q2191.22 364.737 2191.22 373.468 M2192.98 340.963 Q2192.98 344.98 2197.2 347.768 L2207.61 354.49 Q2215.94 349.612 2215.94 342.726 Q2215.94 338.258 2212.53 335.307 Q2209.13 332.315 2204.42 332.315 Q2199.79 332.315 2196.38 334.774 Q2192.98 337.192 2192.98 340.963 Z" fill="#000000" fill-rule="nonzero" fill-opacity="1" /><polyline clip-path="url(#clip460)" style="stroke:#c271d2; stroke-linecap:round; stroke-linejoin:round; stroke-width:7; stroke-opacity:1; fill:none" points="1867.12,455.557 2005.65,455.557 "/>
<path clip-path="url(#clip460)" d="M1936.39 443.341 L1924.17 455.557 L1936.39 467.772 L1948.6 455.557 L1936.39 443.341 Z" fill="#c271d2" fill-rule="evenodd" fill-opacity="1" stroke="#000000" stroke-opacity="1" stroke-width="5.51385"/>
<path clip-path="url(#clip460)" d="M2074.44 428.65 Q2074.44 429.716 2073.99 431.765 Q2072.55 437.545 2067.18 441.521 Q2066.28 442.259 2064.68 443.201 Q2066.61 444.472 2068.29 446.808 Q2070.79 450.661 2070.79 455.867 Q2070.79 458.285 2070.14 461.237 Q2068.29 468.082 2061.81 473.001 Q2055.3 477.796 2047.55 477.796 Q2043.37 477.796 2040.5 475.583 Q2037.67 473.328 2036.57 469.557 L2030.87 492.552 Q2030.75 493.126 2030.01 493.126 L2029.6 493.126 Q2028.74 493.126 2028.74 492.142 L2041.69 440.496 Q2042.55 437.012 2043.94 433.733 Q2045.34 430.454 2047.26 427.502 Q2049.23 424.551 2051.49 422.379 Q2053.74 420.165 2056.53 418.895 Q2059.31 417.583 2062.27 417.583 Q2068.46 417.583 2071.98 421.805 Q2074.44 424.797 2074.44 428.65 M2069.73 427.174 Q2069.73 424.633 2068.7 422.871 Q2066.61 419.509 2062.18 419.509 Q2059.52 419.509 2056.98 420.739 Q2054.48 421.928 2052.47 423.977 Q2050.46 426.027 2048.74 428.814 Q2047.02 431.601 2045.75 434.635 Q2044.52 437.627 2043.7 440.906 L2038.66 461.237 Q2038.16 463.409 2038.16 465.336 Q2038.16 469.926 2040.71 472.919 Q2043.25 475.911 2047.63 475.911 Q2053.45 475.911 2058.45 471.566 Q2062.8 467.672 2064.6 460.827 Q2065.63 456.523 2065.63 453.531 Q2065.63 450.251 2064.44 447.71 Q2063.58 445.661 2061.9 444.431 Q2058.78 445.538 2055.63 445.538 Q2054.11 445.538 2053.29 445.497 Q2052.51 445.456 2051.36 445.292 Q2050.26 445.128 2049.72 444.677 Q2049.23 444.226 2049.23 443.529 Q2049.23 443.119 2049.31 442.955 Q2049.48 442.3 2050.01 441.849 Q2050.54 441.398 2051.16 441.193 Q2051.77 440.947 2052.8 440.824 Q2053.86 440.701 2054.56 440.701 Q2055.26 440.66 2056.45 440.66 Q2059.23 440.66 2062.06 441.767 Q2063.13 441.193 2064.27 440.168 Q2067.92 436.766 2069.15 431.355 Q2069.73 429.347 2069.73 427.174 M2059.4 443.037 Q2057.68 442.586 2056.36 442.586 Q2051.57 442.586 2051.32 443.365 Q2051.32 443.447 2051.49 443.529 Q2051.65 443.57 2052.02 443.611 Q2052.43 443.611 2052.76 443.652 Q2053.13 443.693 2053.74 443.693 Q2054.35 443.693 2054.68 443.693 Q2055.05 443.693 2055.71 443.693 Q2057.35 443.693 2059.4 443.037 Z" fill="#000000" fill-rule="nonzero" fill-opacity="1" /><path clip-path="url(#clip460)" d="M2099.08 464.106 Q2099.16 463.081 2100.76 463.081 L2152.2 463.081 Q2154.62 463.081 2154.66 464.024 Q2154.66 465.049 2152.36 465.008 L2101.33 465.008 Q2099.08 465.049 2099.08 464.106 M2099.08 447.71 Q2099.08 446.685 2100.84 446.726 L2152.12 446.726 Q2154.62 446.726 2154.66 447.71 Q2154.66 448.653 2152.53 448.653 L2100.76 448.653 Q2099.08 448.653 2099.08 447.71 Z" fill="#000000" fill-rule="nonzero" fill-opacity="1" /><path clip-path="url(#clip460)" d="M2187.04 428.937 L2187.04 426.314 Q2197.12 426.314 2202.33 420.944 Q2203.76 420.944 2204.01 421.272 Q2204.25 421.6 2204.25 423.117 L2204.25 470.213 Q2204.25 472.714 2205.48 473.492 Q2206.71 474.271 2212.08 474.271 L2214.75 474.271 L2214.75 476.853 Q2211.8 476.608 2201.14 476.608 Q2190.48 476.608 2187.57 476.853 L2187.57 474.271 L2190.24 474.271 Q2195.52 474.271 2196.79 473.533 Q2198.06 472.755 2198.06 470.213 L2198.06 426.724 Q2193.68 428.937 2187.04 428.937 Z" fill="#000000" fill-rule="nonzero" fill-opacity="1" /><path clip-path="url(#clip460)" d="M2218.83 450.006 Q2218.83 437.668 2221.95 430.946 Q2226.29 420.944 2236.54 420.944 Q2238.71 420.944 2240.97 421.559 Q2243.26 422.133 2246.13 424.387 Q2249.04 426.642 2250.81 430.331 Q2254.17 437.463 2254.17 450.006 Q2254.17 462.261 2251.05 468.943 Q2246.5 478.698 2236.46 478.698 Q2232.69 478.698 2228.84 476.772 Q2225.02 474.845 2222.61 470.213 Q2218.83 463.286 2218.83 450.006 M2225.8 448.981 Q2225.8 461.646 2226.7 466.688 Q2227.73 472.14 2230.52 474.517 Q2233.34 476.853 2236.46 476.853 Q2239.82 476.853 2242.61 474.353 Q2245.44 471.812 2246.3 466.36 Q2247.24 460.991 2247.2 448.981 Q2247.2 437.299 2246.38 432.626 Q2245.27 427.174 2242.32 425.002 Q2239.41 422.789 2236.46 422.789 Q2235.35 422.789 2234.16 423.117 Q2233.02 423.444 2231.34 424.387 Q2229.66 425.33 2228.34 427.666 Q2227.07 430.003 2226.46 433.528 Q2225.8 438.078 2225.8 448.981 Z" fill="#000000" fill-rule="nonzero" fill-opacity="1" /></svg>
