<?xml version="1.0" encoding="utf-8"?>
<svg xmlns="http://www.w3.org/2000/svg" xmlns:xlink="http://www.w3.org/1999/xlink" width="600" height="400" viewBox="0 0 2400 1600">
<defs>
  <clipPath id="clip940">
    <rect x="0" y="0" width="2400" height="1600"/>
  </clipPath>
</defs>
<path clip-path="url(#clip940)" d="M0 1600 L2400 1600 L2400 0 L0 0  Z" fill="#ffffff" fill-rule="evenodd" fill-opacity="1"/>
<defs>
  <clipPath id="clip941">
    <rect x="480" y="0" width="1681" height="1600"/>
  </clipPath>
</defs>
<path clip-path="url(#clip940)" d="M194.421 1410.22 L2352.76 1410.22 L2352.76 47.2441 L194.421 47.2441  Z" fill="#ffffff" fill-rule="evenodd" fill-opacity="1"/>
<defs>
  <clipPath id="clip942">
    <rect x="194" y="47" width="2159" height="1364"/>
  </clipPath>
</defs>
<polyline clip-path="url(#clip940)" style="stroke:#000000; stroke-linecap:round; stroke-linejoin:round; stroke-width:4; stroke-opacity:1; fill:none" points="194.421,1410.22 2352.76,1410.22 "/>
<polyline clip-path="url(#clip940)" style="stroke:#000000; stroke-linecap:round; stroke-linejoin:round; stroke-width:4; stroke-opacity:1; fill:none" points="194.421,47.2441 2352.76,47.2441 "/>
<polyline clip-path="url(#clip940)" style="stroke:#000000; stroke-linecap:round; stroke-linejoin:round; stroke-width:4; stroke-opacity:1; fill:none" points="255.506,1410.22 255.506,1391.32 "/>
<polyline clip-path="url(#clip940)" style="stroke:#000000; stroke-linecap:round; stroke-linejoin:round; stroke-width:4; stroke-opacity:1; fill:none" points="837.267,1410.22 837.267,1391.32 "/>
<polyline clip-path="url(#clip940)" style="stroke:#000000; stroke-linecap:round; stroke-linejoin:round; stroke-width:4; stroke-opacity:1; fill:none" points="1419.03,1410.22 1419.03,1391.32 "/>
<polyline clip-path="url(#clip940)" style="stroke:#000000; stroke-linecap:round; stroke-linejoin:round; stroke-width:4; stroke-opacity:1; fill:none" points="2000.79,1410.22 2000.79,1391.32 "/>
<path clip-path="url(#clip940)" d="M259.983 1466.71 Q260.354 1467.08 260.354 1467.61 Q260.354 1468.13 259.983 1468.51 Q259.613 1468.88 259.088 1468.88 L219.501 1468.88 Q218.976 1468.88 218.605 1468.51 Q218.235 1468.13 218.235 1467.61 Q218.235 1467.08 218.605 1466.71 Q218.976 1466.34 219.501 1466.34 L259.088 1466.34 Q259.613 1466.34 259.983 1466.71 Z" fill="#000000" fill-rule="nonzero" fill-opacity="1" /><path clip-path="url(#clip940)" d="M266.53 1473.88 Q266.53 1466.81 275.639 1462.24 Q271.717 1459.58 271.007 1458.81 Q268.228 1455.72 268.228 1451.86 Q268.228 1447.45 271.563 1444.39 Q274.929 1441.3 279.684 1441.3 Q284.223 1441.3 287.651 1443.93 Q291.079 1446.55 291.079 1450.72 Q291.079 1456.59 283.421 1460.54 Q288.485 1463.69 289.689 1465.02 Q292.777 1468.44 292.777 1472.8 Q292.777 1477.86 288.886 1481.35 Q284.995 1484.81 279.622 1484.81 Q274.373 1484.81 270.451 1481.75 Q266.53 1478.7 266.53 1473.88 M269.679 1473.88 Q269.679 1477.8 272.613 1480.42 Q275.577 1483.05 279.684 1483.05 Q283.668 1483.05 286.632 1480.76 Q289.627 1478.48 289.627 1475.08 Q289.627 1473.75 289.164 1472.61 Q288.732 1471.47 287.836 1470.57 Q286.972 1469.65 286.416 1469.25 Q285.891 1468.81 284.872 1468.1 L277.09 1463.19 Q269.679 1467.3 269.679 1473.88 M271.007 1449.39 Q271.007 1452.42 274.188 1454.52 L282.031 1459.58 Q288.3 1455.91 288.3 1450.72 Q288.3 1447.35 285.737 1445.13 Q283.174 1442.88 279.622 1442.88 Q276.133 1442.88 273.57 1444.73 Q271.007 1446.55 271.007 1449.39 Z" fill="#000000" fill-rule="nonzero" fill-opacity="1" /><path clip-path="url(#clip940)" d="M841.745 1466.71 Q842.115 1467.08 842.115 1467.61 Q842.115 1468.13 841.745 1468.51 Q841.374 1468.88 840.849 1468.88 L801.262 1468.88 Q800.737 1468.88 800.367 1468.51 Q799.996 1468.13 799.996 1467.61 Q799.996 1467.08 800.367 1466.71 Q800.737 1466.34 801.262 1466.34 L840.849 1466.34 Q841.374 1466.34 841.745 1466.71 Z" fill="#000000" fill-rule="nonzero" fill-opacity="1" /><path clip-path="url(#clip940)" d="M848.291 1463.44 Q848.291 1453.5 853.355 1447.41 Q858.42 1441.3 864.935 1441.3 Q868.733 1441.3 870.833 1443.25 Q872.964 1445.16 872.964 1448.12 Q872.964 1449.76 872.006 1450.47 Q871.049 1451.18 870.061 1451.18 Q868.918 1451.18 868.023 1450.41 Q867.127 1449.64 867.127 1448.25 Q867.127 1445.41 870.617 1445.41 Q868.98 1442.88 865.059 1442.88 Q863.854 1442.88 862.619 1443.25 Q861.384 1443.59 859.778 1444.76 Q858.173 1445.93 856.937 1447.79 Q855.702 1449.64 854.838 1453.13 Q853.973 1456.62 853.973 1461.16 L853.973 1462.67 Q856.567 1456.4 861.878 1456.43 Q867.189 1456.43 870.864 1460.48 Q874.538 1464.52 874.538 1470.51 Q874.538 1476.66 870.709 1480.73 Q866.88 1484.81 861.507 1484.81 Q859.099 1484.81 856.906 1483.79 Q854.745 1482.8 852.707 1480.52 Q850.7 1478.23 849.495 1473.85 Q848.291 1469.46 848.291 1463.44 M854.096 1469.12 Q854.096 1475.33 855.239 1478.29 Q855.424 1478.79 855.826 1479.47 Q856.258 1480.15 856.968 1481.04 Q857.709 1481.91 858.914 1482.49 Q860.118 1483.05 861.507 1483.05 Q865.738 1483.05 867.776 1478.94 Q868.857 1476.66 868.857 1470.45 Q868.857 1464.12 867.714 1461.8 Q865.769 1457.88 861.816 1457.88 Q859.161 1457.88 857.308 1459.7 Q855.486 1461.53 854.776 1463.97 Q854.096 1466.41 854.096 1469.12 Z" fill="#000000" fill-rule="nonzero" fill-opacity="1" /><path clip-path="url(#clip940)" d="M1423.06 1466.71 Q1423.43 1467.08 1423.43 1467.61 Q1423.43 1468.13 1423.06 1468.51 Q1422.69 1468.88 1422.16 1468.88 L1382.58 1468.88 Q1382.05 1468.88 1381.68 1468.51 Q1381.31 1468.13 1381.31 1467.61 Q1381.31 1467.08 1381.68 1466.71 Q1382.05 1466.34 1382.58 1466.34 L1422.16 1466.34 Q1422.69 1466.34 1423.06 1466.71 Z" fill="#000000" fill-rule="nonzero" fill-opacity="1" /><path clip-path="url(#clip940)" d="M1428.71 1472.98 L1428.71 1471.04 L1448.13 1441.36 Q1448.63 1440.59 1449.4 1440.62 Q1450.11 1440.62 1450.26 1440.9 Q1450.42 1441.18 1450.42 1442.26 L1450.42 1471.04 L1456.75 1471.04 L1456.75 1472.98 L1450.42 1472.98 L1450.42 1478.48 Q1450.42 1480.3 1451.16 1480.89 Q1451.93 1481.47 1455.2 1481.47 L1456.53 1481.47 L1456.53 1483.42 Q1453.94 1483.23 1447.95 1483.23 Q1441.99 1483.23 1439.39 1483.42 L1439.39 1481.47 L1440.72 1481.47 Q1443.99 1481.47 1444.77 1480.92 Q1445.54 1480.33 1445.54 1478.48 L1445.54 1472.98 L1428.71 1472.98 M1430.5 1471.04 L1445.91 1471.04 L1445.91 1447.45 L1430.5 1471.04 Z" fill="#000000" fill-rule="nonzero" fill-opacity="1" /><path clip-path="url(#clip940)" d="M2005.51 1466.71 Q2005.89 1467.08 2005.89 1467.61 Q2005.89 1468.13 2005.51 1468.51 Q2005.14 1468.88 2004.62 1468.88 L1965.03 1468.88 Q1964.51 1468.88 1964.14 1468.51 Q1963.77 1468.13 1963.77 1467.61 Q1963.77 1467.08 1964.14 1466.71 Q1964.51 1466.34 1965.03 1466.34 L2004.62 1466.34 Q2005.14 1466.34 2005.51 1466.71 Z" fill="#000000" fill-rule="nonzero" fill-opacity="1" /><path clip-path="url(#clip940)" d="M2012.56 1483.42 Q2012.56 1482.28 2012.65 1481.94 Q2012.77 1481.6 2013.27 1481.07 L2025.4 1467.55 Q2032.04 1460.08 2032.04 1453.56 Q2032.04 1449.33 2029.82 1446.3 Q2027.62 1443.28 2023.58 1443.28 Q2020.8 1443.28 2018.45 1444.98 Q2016.11 1446.67 2015.03 1449.7 Q2015.21 1449.64 2015.86 1449.64 Q2017.43 1449.64 2018.3 1450.63 Q2019.19 1451.61 2019.19 1452.94 Q2019.19 1454.64 2018.08 1455.47 Q2017 1456.28 2015.92 1456.28 Q2015.49 1456.28 2014.9 1456.18 Q2014.35 1456.09 2013.45 1455.23 Q2012.56 1454.33 2012.56 1452.76 Q2012.56 1448.34 2015.89 1444.82 Q2019.26 1441.3 2024.38 1441.3 Q2030.19 1441.3 2033.99 1444.76 Q2037.81 1448.19 2037.81 1453.56 Q2037.81 1455.44 2037.23 1457.17 Q2036.67 1458.87 2035.9 1460.2 Q2035.16 1461.53 2033.12 1463.66 Q2031.08 1465.79 2029.45 1467.3 Q2027.81 1468.81 2024.13 1472.03 L2017.43 1478.54 L2028.83 1478.54 Q2034.39 1478.54 2034.82 1478.05 Q2035.44 1477.15 2036.21 1472.43 L2037.81 1472.43 L2036.02 1483.42 L2012.56 1483.42 Z" fill="#000000" fill-rule="nonzero" fill-opacity="1" /><path clip-path="url(#clip940)" d="M1299.12 1517.34 Q1299.12 1518.78 1297.92 1518.78 Q1295.82 1518.85 1294.38 1519.27 Q1292.94 1519.66 1292.09 1520.43 Q1291.28 1521.21 1290.83 1522.05 Q1290.41 1522.86 1290.13 1524.09 L1283.73 1549.63 Q1281.9 1556.83 1276 1562.07 Q1270.1 1567.27 1263.39 1567.27 Q1259.56 1567.27 1256.36 1565.69 Q1253.2 1564.11 1251.23 1560.91 Q1249.26 1557.71 1249.26 1553.46 Q1249.26 1551.42 1249.79 1549.28 L1254.15 1531.5 L1255.76 1525.18 Q1256.96 1520.5 1256.96 1520.08 Q1256.96 1519.42 1256.54 1519.24 Q1256.15 1519.03 1255.03 1518.92 L1252.29 1518.78 Q1251.44 1518.78 1251.09 1518.75 Q1250.78 1518.71 1250.53 1518.54 Q1250.28 1518.36 1250.28 1517.97 Q1250.28 1517.48 1250.39 1517.17 Q1250.53 1516.82 1250.78 1516.71 Q1251.02 1516.6 1251.2 1516.57 Q1251.37 1516.53 1251.65 1516.53 L1260.93 1516.75 L1270.13 1516.53 Q1271.15 1516.53 1271.15 1517.34 Q1271.15 1518.36 1270.7 1518.57 Q1270.24 1518.78 1268.69 1518.78 Q1266.06 1518.78 1264.86 1519.13 Q1263.7 1519.45 1263.35 1520.01 Q1263.04 1520.54 1262.65 1522.09 L1255.66 1550.09 Q1255.31 1551.49 1255.1 1552.9 Q1254.92 1554.27 1254.92 1554.97 L1254.89 1555.67 Q1254.89 1560.14 1257.35 1562.59 Q1259.84 1565.05 1263.67 1565.05 Q1269.29 1565.05 1274.53 1560.59 Q1279.8 1556.13 1281.59 1549.14 L1288.05 1523.46 Q1288.26 1522.82 1288.26 1521.94 Q1288.26 1520.54 1287.21 1519.7 Q1286.19 1518.82 1283.38 1518.78 Q1282.08 1518.78 1282.08 1517.97 Q1282.08 1517.31 1282.33 1516.99 Q1282.61 1516.64 1282.82 1516.6 Q1283.06 1516.53 1283.38 1516.53 Q1284.57 1516.53 1287.1 1516.64 Q1289.63 1516.75 1290.86 1516.75 Q1292.09 1516.75 1294.55 1516.64 Q1297.01 1516.53 1298.21 1516.53 Q1298.63 1516.53 1298.84 1516.75 Q1299.08 1516.92 1299.12 1517.13 L1299.12 1517.34 Z" fill="#000000" fill-rule="nonzero" fill-opacity="1" /><polyline clip-path="url(#clip940)" style="stroke:#000000; stroke-linecap:round; stroke-linejoin:round; stroke-width:4; stroke-opacity:1; fill:none" points="194.421,1410.22 194.421,47.2441 "/>
<polyline clip-path="url(#clip940)" style="stroke:#000000; stroke-linecap:round; stroke-linejoin:round; stroke-width:4; stroke-opacity:1; fill:none" points="2352.76,1410.22 2352.76,47.2441 "/>
<polyline clip-path="url(#clip940)" style="stroke:#000000; stroke-linecap:round; stroke-linejoin:round; stroke-width:4; stroke-opacity:1; fill:none" points="194.421,1199.2 213.318,1199.2 "/>
<polyline clip-path="url(#clip940)" style="stroke:#000000; stroke-linecap:round; stroke-linejoin:round; stroke-width:4; stroke-opacity:1; fill:none" points="194.421,922.032 213.318,922.032 "/>
<polyline clip-path="url(#clip940)" style="stroke:#000000; stroke-linecap:round; stroke-linejoin:round; stroke-width:4; stroke-opacity:1; fill:none" points="194.421,644.867 213.318,644.867 "/>
<polyline clip-path="url(#clip940)" style="stroke:#000000; stroke-linecap:round; stroke-linejoin:round; stroke-width:4; stroke-opacity:1; fill:none" points="194.421,367.702 213.318,367.702 "/>
<polyline clip-path="url(#clip940)" style="stroke:#000000; stroke-linecap:round; stroke-linejoin:round; stroke-width:4; stroke-opacity:1; fill:none" points="194.421,90.5377 213.318,90.5377 "/>
<path clip-path="url(#clip940)" d="M51.6715 1200.57 Q51.6715 1191.28 54.0183 1186.21 Q57.2915 1178.68 65.0113 1178.68 Q66.6479 1178.68 68.3462 1179.14 Q70.0755 1179.57 72.237 1181.27 Q74.4294 1182.97 75.7572 1185.75 Q78.2893 1191.12 78.2893 1200.57 Q78.2893 1209.8 75.9425 1214.84 Q72.5149 1222.19 64.9495 1222.19 Q62.1086 1222.19 59.206 1220.73 Q56.3342 1219.28 54.5124 1215.79 Q51.6715 1210.58 51.6715 1200.57 M56.9209 1199.8 Q56.9209 1209.34 57.6003 1213.14 Q58.3723 1217.25 60.472 1219.04 Q62.6027 1220.8 64.9495 1220.8 Q67.4816 1220.8 69.5814 1218.91 Q71.7121 1217 72.3605 1212.89 Q73.0708 1208.85 73.0399 1199.8 Q73.0399 1191 72.4223 1187.48 Q71.5886 1183.37 69.3652 1181.73 Q67.1728 1180.07 64.9495 1180.07 Q64.1158 1180.07 63.2203 1180.31 Q62.3557 1180.56 61.0896 1181.27 Q59.8236 1181.98 58.8354 1183.74 Q57.8782 1185.5 57.415 1188.16 Q56.9209 1191.58 56.9209 1199.8 Z" fill="#000000" fill-rule="nonzero" fill-opacity="1" /><path clip-path="url(#clip940)" d="M87.1517 1219.78 Q86.1944 1218.76 86.1944 1217.43 Q86.1944 1216.1 87.1517 1215.15 Q88.1089 1214.16 89.5602 1214.16 Q90.9498 1214.16 91.8762 1215.08 Q92.8334 1215.98 92.8334 1217.46 Q92.8334 1218.91 91.8144 1219.87 Q90.8263 1220.8 89.5602 1220.8 Q88.1089 1220.8 87.1517 1219.78 Z" fill="#000000" fill-rule="nonzero" fill-opacity="1" /><path clip-path="url(#clip940)" d="M100.862 1200.57 Q100.862 1191.28 103.209 1186.21 Q106.482 1178.68 114.202 1178.68 Q115.838 1178.68 117.537 1179.14 Q119.266 1179.57 121.428 1181.27 Q123.62 1182.97 124.948 1185.75 Q127.48 1191.12 127.48 1200.57 Q127.48 1209.8 125.133 1214.84 Q121.705 1222.19 114.14 1222.19 Q111.299 1222.19 108.397 1220.73 Q105.525 1219.28 103.703 1215.79 Q100.862 1210.58 100.862 1200.57 M106.111 1199.8 Q106.111 1209.34 106.791 1213.14 Q107.563 1217.25 109.663 1219.04 Q111.793 1220.8 114.14 1220.8 Q116.672 1220.8 118.772 1218.91 Q120.903 1217 121.551 1212.89 Q122.261 1208.85 122.23 1199.8 Q122.23 1191 121.613 1187.48 Q120.779 1183.37 118.556 1181.73 Q116.363 1180.07 114.14 1180.07 Q113.306 1180.07 112.411 1180.31 Q111.546 1180.56 110.28 1181.27 Q109.014 1181.98 108.026 1183.74 Q107.069 1185.5 106.606 1188.16 Q106.111 1191.58 106.111 1199.8 Z" fill="#000000" fill-rule="nonzero" fill-opacity="1" /><path clip-path="url(#clip940)" d="M133.162 1210.61 Q133.162 1208.72 134.181 1208.01 Q135.2 1207.27 136.28 1207.27 Q137.732 1207.27 138.566 1208.2 Q139.43 1209.09 139.43 1210.36 Q139.43 1211.63 138.566 1212.55 Q137.732 1213.45 136.28 1213.45 Q135.57 1213.45 135.2 1213.32 Q136.033 1216.23 138.566 1218.33 Q141.129 1220.43 144.494 1220.43 Q148.725 1220.43 151.257 1216.32 Q152.77 1213.66 152.77 1207.64 Q152.77 1202.33 151.627 1199.67 Q149.867 1195.63 146.254 1195.63 Q141.129 1195.63 138.102 1200.05 Q137.732 1200.6 137.299 1200.63 Q136.682 1200.63 136.528 1200.29 Q136.404 1199.92 136.404 1198.96 L136.404 1180.25 Q136.404 1178.74 137.022 1178.74 Q137.269 1178.74 137.794 1178.92 Q141.777 1180.68 146.193 1180.72 Q150.732 1180.72 154.808 1178.86 Q155.117 1178.68 155.302 1178.68 Q155.92 1178.68 155.951 1179.39 Q155.951 1179.63 155.426 1180.38 Q154.932 1181.09 153.851 1182.04 Q152.77 1182.97 151.38 1183.86 Q149.991 1184.76 147.953 1185.38 Q145.946 1185.96 143.722 1185.96 Q141.067 1185.96 138.349 1185.13 L138.349 1197.45 Q141.623 1194.24 146.378 1194.24 Q151.442 1194.24 154.932 1198.32 Q158.421 1202.39 158.421 1208.07 Q158.421 1214.03 154.283 1218.11 Q150.176 1222.19 144.618 1222.19 Q139.554 1222.19 136.342 1218.57 Q133.162 1214.96 133.162 1210.61 Z" fill="#000000" fill-rule="nonzero" fill-opacity="1" /><path clip-path="url(#clip940)" d="M50.9921 923.406 Q50.9921 914.111 53.3389 909.047 Q56.6121 901.512 64.3319 901.512 Q65.9685 901.512 67.6669 901.976 Q69.3961 902.408 71.5577 904.106 Q73.7501 905.805 75.0779 908.584 Q77.61 913.957 77.61 923.406 Q77.61 932.639 75.2632 937.672 Q71.8356 945.021 64.2702 945.021 Q61.4293 945.021 58.5267 943.57 Q55.6549 942.119 53.833 938.629 Q50.9921 933.411 50.9921 923.406 M56.2416 922.634 Q56.2416 932.175 56.9209 935.974 Q57.6929 940.081 59.7927 941.872 Q61.9234 943.632 64.2702 943.632 Q66.8023 943.632 68.9021 941.748 Q71.0327 939.834 71.6812 935.727 Q72.3914 931.681 72.3605 922.634 Q72.3605 913.833 71.7429 910.313 Q70.9092 906.206 68.6859 904.569 Q66.4935 902.902 64.2702 902.902 Q63.4364 902.902 62.5409 903.149 Q61.6763 903.396 60.4103 904.106 Q59.1442 904.816 58.1561 906.577 Q57.1988 908.337 56.7357 910.992 Q56.2416 914.42 56.2416 922.634 Z" fill="#000000" fill-rule="nonzero" fill-opacity="1" /><path clip-path="url(#clip940)" d="M86.4723 942.613 Q85.5151 941.594 85.5151 940.266 Q85.5151 938.938 86.4723 937.981 Q87.4296 936.993 88.8809 936.993 Q90.2705 936.993 91.1968 937.919 Q92.1541 938.814 92.1541 940.297 Q92.1541 941.748 91.1351 942.705 Q90.147 943.632 88.8809 943.632 Q87.4296 943.632 86.4723 942.613 Z" fill="#000000" fill-rule="nonzero" fill-opacity="1" /><path clip-path="url(#clip940)" d="M103.332 907.534 L103.332 905.558 Q110.929 905.558 114.85 901.512 Q115.931 901.512 116.116 901.759 Q116.302 902.006 116.302 903.149 L116.302 938.629 Q116.302 940.513 117.228 941.1 Q118.154 941.686 122.2 941.686 L124.207 941.686 L124.207 943.632 Q121.983 943.446 113.955 943.446 Q105.926 943.446 103.734 943.632 L103.734 941.686 L105.741 941.686 Q109.724 941.686 110.682 941.13 Q111.639 940.544 111.639 938.629 L111.639 905.866 Q108.335 907.534 103.332 907.534 Z" fill="#000000" fill-rule="nonzero" fill-opacity="1" /><path clip-path="url(#clip940)" d="M131.803 923.406 Q131.803 914.111 134.15 909.047 Q137.423 901.512 145.143 901.512 Q146.779 901.512 148.478 901.976 Q150.207 902.408 152.369 904.106 Q154.561 905.805 155.889 908.584 Q158.421 913.957 158.421 923.406 Q158.421 932.639 156.074 937.672 Q152.646 945.021 145.081 945.021 Q142.24 945.021 139.338 943.57 Q136.466 942.119 134.644 938.629 Q131.803 933.411 131.803 923.406 M137.052 922.634 Q137.052 932.175 137.732 935.974 Q138.504 940.081 140.604 941.872 Q142.734 943.632 145.081 943.632 Q147.613 943.632 149.713 941.748 Q151.844 939.834 152.492 935.727 Q153.202 931.681 153.171 922.634 Q153.171 913.833 152.554 910.313 Q151.72 906.206 149.497 904.569 Q147.304 902.902 145.081 902.902 Q144.247 902.902 143.352 903.149 Q142.487 903.396 141.221 904.106 Q139.955 904.816 138.967 906.577 Q138.01 908.337 137.547 910.992 Q137.052 914.42 137.052 922.634 Z" fill="#000000" fill-rule="nonzero" fill-opacity="1" /><path clip-path="url(#clip940)" d="M51.6715 646.241 Q51.6715 636.946 54.0183 631.882 Q57.2915 624.348 65.0113 624.348 Q66.6479 624.348 68.3462 624.811 Q70.0755 625.243 72.237 626.942 Q74.4294 628.64 75.7572 631.419 Q78.2893 636.792 78.2893 646.241 Q78.2893 655.474 75.9425 660.507 Q72.5149 667.857 64.9495 667.857 Q62.1086 667.857 59.206 666.405 Q56.3342 664.954 54.5124 661.465 Q51.6715 656.246 51.6715 646.241 M56.9209 645.469 Q56.9209 655.011 57.6003 658.809 Q58.3723 662.916 60.472 664.707 Q62.6027 666.467 64.9495 666.467 Q67.4816 666.467 69.5814 664.583 Q71.7121 662.669 72.3605 658.562 Q73.0708 654.517 73.0399 645.469 Q73.0399 636.669 72.4223 633.148 Q71.5886 629.041 69.3652 627.405 Q67.1728 625.737 64.9495 625.737 Q64.1158 625.737 63.2203 625.984 Q62.3557 626.231 61.0896 626.942 Q59.8236 627.652 58.8354 629.412 Q57.8782 631.172 57.415 633.828 Q56.9209 637.255 56.9209 645.469 Z" fill="#000000" fill-rule="nonzero" fill-opacity="1" /><path clip-path="url(#clip940)" d="M87.1517 665.448 Q86.1944 664.429 86.1944 663.101 Q86.1944 661.773 87.1517 660.816 Q88.1089 659.828 89.5602 659.828 Q90.9498 659.828 91.8762 660.754 Q92.8334 661.65 92.8334 663.132 Q92.8334 664.583 91.8144 665.541 Q90.8263 666.467 89.5602 666.467 Q88.1089 666.467 87.1517 665.448 Z" fill="#000000" fill-rule="nonzero" fill-opacity="1" /><path clip-path="url(#clip940)" d="M104.012 630.369 L104.012 628.393 Q111.608 628.393 115.53 624.348 Q116.61 624.348 116.796 624.595 Q116.981 624.842 116.981 625.984 L116.981 661.465 Q116.981 663.348 117.907 663.935 Q118.834 664.522 122.879 664.522 L124.886 664.522 L124.886 666.467 Q122.663 666.282 114.634 666.282 Q106.606 666.282 104.413 666.467 L104.413 664.522 L106.42 664.522 Q110.404 664.522 111.361 663.966 Q112.318 663.379 112.318 661.465 L112.318 628.702 Q109.014 630.369 104.012 630.369 Z" fill="#000000" fill-rule="nonzero" fill-opacity="1" /><path clip-path="url(#clip940)" d="M133.162 656.277 Q133.162 654.393 134.181 653.683 Q135.2 652.942 136.28 652.942 Q137.732 652.942 138.566 653.868 Q139.43 654.764 139.43 656.03 Q139.43 657.296 138.566 658.222 Q137.732 659.118 136.28 659.118 Q135.57 659.118 135.2 658.994 Q136.033 661.897 138.566 663.997 Q141.129 666.096 144.494 666.096 Q148.725 666.096 151.257 661.99 Q152.77 659.334 152.77 653.312 Q152.77 648.001 151.627 645.346 Q149.867 641.3 146.254 641.3 Q141.129 641.3 138.102 645.716 Q137.732 646.272 137.299 646.303 Q136.682 646.303 136.528 645.963 Q136.404 645.593 136.404 644.635 L136.404 625.923 Q136.404 624.41 137.022 624.41 Q137.269 624.41 137.794 624.595 Q141.777 626.355 146.193 626.386 Q150.732 626.386 154.808 624.533 Q155.117 624.348 155.302 624.348 Q155.92 624.348 155.951 625.058 Q155.951 625.305 155.426 626.046 Q154.932 626.756 153.851 627.714 Q152.77 628.64 151.38 629.535 Q149.991 630.431 147.953 631.049 Q145.946 631.635 143.722 631.635 Q141.067 631.635 138.349 630.802 L138.349 643.122 Q141.623 639.911 146.378 639.911 Q151.442 639.911 154.932 643.987 Q158.421 648.063 158.421 653.745 Q158.421 659.704 154.283 663.78 Q150.176 667.857 144.618 667.857 Q139.554 667.857 136.342 664.244 Q133.162 660.631 133.162 656.277 Z" fill="#000000" fill-rule="nonzero" fill-opacity="1" /><path clip-path="url(#clip940)" d="M50.9921 369.076 Q50.9921 359.782 53.3389 354.718 Q56.6121 347.183 64.3319 347.183 Q65.9685 347.183 67.6669 347.646 Q69.3961 348.079 71.5577 349.777 Q73.7501 351.475 75.0779 354.254 Q77.61 359.627 77.61 369.076 Q77.61 378.309 75.2632 383.343 Q71.8356 390.692 64.2702 390.692 Q61.4293 390.692 58.5267 389.241 Q55.6549 387.789 53.833 384.3 Q50.9921 379.081 50.9921 369.076 M56.2416 368.304 Q56.2416 377.846 56.9209 381.644 Q57.6929 385.751 59.7927 387.542 Q61.9234 389.302 64.2702 389.302 Q66.8023 389.302 68.9021 387.419 Q71.0327 385.504 71.6812 381.397 Q72.3914 377.352 72.3605 368.304 Q72.3605 359.504 71.7429 355.984 Q70.9092 351.877 68.6859 350.24 Q66.4935 348.573 64.2702 348.573 Q63.4364 348.573 62.5409 348.82 Q61.6763 349.067 60.4103 349.777 Q59.1442 350.487 58.1561 352.247 Q57.1988 354.007 56.7357 356.663 Q56.2416 360.091 56.2416 368.304 Z" fill="#000000" fill-rule="nonzero" fill-opacity="1" /><path clip-path="url(#clip940)" d="M86.4723 388.283 Q85.5151 387.264 85.5151 385.936 Q85.5151 384.609 86.4723 383.651 Q87.4296 382.663 88.8809 382.663 Q90.2705 382.663 91.1968 383.59 Q92.1541 384.485 92.1541 385.967 Q92.1541 387.419 91.1351 388.376 Q90.147 389.302 88.8809 389.302 Q87.4296 389.302 86.4723 388.283 Z" fill="#000000" fill-rule="nonzero" fill-opacity="1" /><path clip-path="url(#clip940)" d="M100.862 389.302 Q100.862 388.16 100.955 387.82 Q101.078 387.48 101.572 386.956 L113.708 373.43 Q120.347 365.958 120.347 359.442 Q120.347 355.212 118.124 352.186 Q115.931 349.159 111.886 349.159 Q109.107 349.159 106.76 350.858 Q104.413 352.556 103.332 355.582 Q103.518 355.52 104.166 355.52 Q105.741 355.52 106.606 356.509 Q107.501 357.497 107.501 358.825 Q107.501 360.523 106.389 361.357 Q105.309 362.16 104.228 362.16 Q103.796 362.16 103.209 362.067 Q102.653 361.974 101.758 361.11 Q100.862 360.214 100.862 358.639 Q100.862 354.224 104.197 350.703 Q107.563 347.183 112.689 347.183 Q118.494 347.183 122.292 350.642 Q126.121 354.069 126.121 359.442 Q126.121 361.326 125.535 363.055 Q124.979 364.753 124.207 366.081 Q123.466 367.409 121.428 369.54 Q119.39 371.67 117.753 373.183 Q116.116 374.696 112.442 377.908 L105.741 384.423 L117.135 384.423 Q122.694 384.423 123.126 383.929 Q123.744 383.034 124.515 378.309 L126.121 378.309 L124.33 389.302 L100.862 389.302 Z" fill="#000000" fill-rule="nonzero" fill-opacity="1" /><path clip-path="url(#clip940)" d="M131.803 369.076 Q131.803 359.782 134.15 354.718 Q137.423 347.183 145.143 347.183 Q146.779 347.183 148.478 347.646 Q150.207 348.079 152.369 349.777 Q154.561 351.475 155.889 354.254 Q158.421 359.627 158.421 369.076 Q158.421 378.309 156.074 383.343 Q152.646 390.692 145.081 390.692 Q142.24 390.692 139.338 389.241 Q136.466 387.789 134.644 384.3 Q131.803 379.081 131.803 369.076 M137.052 368.304 Q137.052 377.846 137.732 381.644 Q138.504 385.751 140.604 387.542 Q142.734 389.302 145.081 389.302 Q147.613 389.302 149.713 387.419 Q151.844 385.504 152.492 381.397 Q153.202 377.352 153.171 368.304 Q153.171 359.504 152.554 355.984 Q151.72 351.877 149.497 350.24 Q147.304 348.573 145.081 348.573 Q144.247 348.573 143.352 348.82 Q142.487 349.067 141.221 349.777 Q139.955 350.487 138.967 352.247 Q138.01 354.007 137.547 356.663 Q137.052 360.091 137.052 368.304 Z" fill="#000000" fill-rule="nonzero" fill-opacity="1" /><path clip-path="url(#clip940)" d="M51.6715 91.9118 Q51.6715 82.6172 54.0183 77.553 Q57.2915 70.0184 65.0113 70.0184 Q66.6479 70.0184 68.3462 70.4816 Q70.0755 70.9139 72.237 72.6123 Q74.4294 74.3107 75.7572 77.0898 Q78.2893 82.4628 78.2893 91.9118 Q78.2893 101.145 75.9425 106.178 Q72.5149 113.527 64.9495 113.527 Q62.1086 113.527 59.206 112.076 Q56.3342 110.625 54.5124 107.135 Q51.6715 101.917 51.6715 91.9118 M56.9209 91.1398 Q56.9209 100.681 57.6003 104.48 Q58.3723 108.587 60.472 110.378 Q62.6027 112.138 64.9495 112.138 Q67.4816 112.138 69.5814 110.254 Q71.7121 108.34 72.3605 104.233 Q73.0708 100.187 73.0399 91.1398 Q73.0399 82.3392 72.4223 78.819 Q71.5886 74.7121 69.3652 73.0755 Q67.1728 71.408 64.9495 71.408 Q64.1158 71.408 63.2203 71.655 Q62.3557 71.9021 61.0896 72.6123 Q59.8236 73.3225 58.8354 75.0826 Q57.8782 76.8427 57.415 79.4984 Q56.9209 82.9259 56.9209 91.1398 Z" fill="#000000" fill-rule="nonzero" fill-opacity="1" /><path clip-path="url(#clip940)" d="M87.1517 111.119 Q86.1944 110.1 86.1944 108.772 Q86.1944 107.444 87.1517 106.487 Q88.1089 105.499 89.5602 105.499 Q90.9498 105.499 91.8762 106.425 Q92.8334 107.321 92.8334 108.803 Q92.8334 110.254 91.8144 111.211 Q90.8263 112.138 89.5602 112.138 Q88.1089 112.138 87.1517 111.119 Z" fill="#000000" fill-rule="nonzero" fill-opacity="1" /><path clip-path="url(#clip940)" d="M101.541 112.138 Q101.541 110.995 101.634 110.655 Q101.758 110.316 102.252 109.791 L114.387 96.2658 Q121.026 88.793 121.026 82.2775 Q121.026 78.047 118.803 75.0209 Q116.61 71.9947 112.565 71.9947 Q109.786 71.9947 107.439 73.6931 Q105.092 75.3914 104.012 78.4176 Q104.197 78.3558 104.845 78.3558 Q106.42 78.3558 107.285 79.344 Q108.18 80.3321 108.18 81.6599 Q108.18 83.3583 107.069 84.192 Q105.988 84.9949 104.907 84.9949 Q104.475 84.9949 103.888 84.9022 Q103.332 84.8096 102.437 83.945 Q101.541 83.0495 101.541 81.4746 Q101.541 77.0589 104.876 73.5387 Q108.242 70.0184 113.368 70.0184 Q119.173 70.0184 122.972 73.4769 Q126.801 76.9045 126.801 82.2775 Q126.801 84.1611 126.214 85.8904 Q125.658 87.5887 124.886 88.9165 Q124.145 90.2443 122.107 92.375 Q120.069 94.5056 118.432 96.0187 Q116.796 97.5318 113.121 100.743 L106.42 107.259 L117.815 107.259 Q123.373 107.259 123.805 106.765 Q124.423 105.869 125.195 101.145 L126.801 101.145 L125.01 112.138 L101.541 112.138 Z" fill="#000000" fill-rule="nonzero" fill-opacity="1" /><path clip-path="url(#clip940)" d="M133.162 101.948 Q133.162 100.064 134.181 99.3537 Q135.2 98.6126 136.28 98.6126 Q137.732 98.6126 138.566 99.539 Q139.43 100.434 139.43 101.701 Q139.43 102.967 138.566 103.893 Q137.732 104.788 136.28 104.788 Q135.57 104.788 135.2 104.665 Q136.033 107.568 138.566 109.667 Q141.129 111.767 144.494 111.767 Q148.725 111.767 151.257 107.66 Q152.77 105.005 152.77 98.9831 Q152.77 93.6719 151.627 91.0163 Q149.867 86.9711 146.254 86.9711 Q141.129 86.9711 138.102 91.3868 Q137.732 91.9427 137.299 91.9736 Q136.682 91.9736 136.528 91.6339 Q136.404 91.2633 136.404 90.3061 L136.404 71.5933 Q136.404 70.0802 137.022 70.0802 Q137.269 70.0802 137.794 70.2655 Q141.777 72.0256 146.193 72.0565 Q150.732 72.0565 154.808 70.2037 Q155.117 70.0184 155.302 70.0184 Q155.92 70.0184 155.951 70.7287 Q155.951 70.9757 155.426 71.7168 Q154.932 72.427 153.851 73.3843 Q152.77 74.3107 151.38 75.2061 Q149.991 76.1016 147.953 76.7192 Q145.946 77.3059 143.722 77.3059 Q141.067 77.3059 138.349 76.4722 L138.349 88.793 Q141.623 85.5816 146.378 85.5816 Q151.442 85.5816 154.932 89.6576 Q158.421 93.7337 158.421 99.4154 Q158.421 105.375 154.283 109.451 Q150.176 113.527 144.618 113.527 Q139.554 113.527 136.342 109.914 Q133.162 106.302 133.162 101.948 Z" fill="#000000" fill-rule="nonzero" fill-opacity="1" /><polyline clip-path="url(#clip942)" style="stroke:#009af9; stroke-linecap:round; stroke-linejoin:round; stroke-width:4; stroke-opacity:1; fill:none" points="2291.67,1150.69 2000.79,1015.31 1709.91,850.008 1419.03,662.18 1128.15,540.438 837.267,430.565 546.387,330.906 255.506,243.053 "/>
<path clip-path="url(#clip942)" d="M2291.67 1126.69 L2267.67 1150.69 L2291.67 1174.69 L2315.67 1150.69 L2291.67 1126.69 Z" fill="#009af9" fill-rule="evenodd" fill-opacity="1" stroke="#000000" stroke-opacity="1" stroke-width="3.2"/>
<path clip-path="url(#clip942)" d="M2000.79 991.308 L1976.79 1015.31 L2000.79 1039.31 L2024.79 1015.31 L2000.79 991.308 Z" fill="#009af9" fill-rule="evenodd" fill-opacity="1" stroke="#000000" stroke-opacity="1" stroke-width="3.2"/>
<path clip-path="url(#clip942)" d="M1709.91 826.008 L1685.91 850.008 L1709.91 874.008 L1733.91 850.008 L1709.91 826.008 Z" fill="#009af9" fill-rule="evenodd" fill-opacity="1" stroke="#000000" stroke-opacity="1" stroke-width="3.2"/>
<path clip-path="url(#clip942)" d="M1419.03 638.18 L1395.03 662.18 L1419.03 686.18 L1443.03 662.18 L1419.03 638.18 Z" fill="#009af9" fill-rule="evenodd" fill-opacity="1" stroke="#000000" stroke-opacity="1" stroke-width="3.2"/>
<path clip-path="url(#clip942)" d="M1128.15 516.438 L1104.15 540.438 L1128.15 564.438 L1152.15 540.438 L1128.15 516.438 Z" fill="#009af9" fill-rule="evenodd" fill-opacity="1" stroke="#000000" stroke-opacity="1" stroke-width="3.2"/>
<path clip-path="url(#clip942)" d="M837.267 406.565 L813.267 430.565 L837.267 454.565 L861.267 430.565 L837.267 406.565 Z" fill="#009af9" fill-rule="evenodd" fill-opacity="1" stroke="#000000" stroke-opacity="1" stroke-width="3.2"/>
<path clip-path="url(#clip942)" d="M546.387 306.906 L522.387 330.906 L546.387 354.906 L570.387 330.906 L546.387 306.906 Z" fill="#009af9" fill-rule="evenodd" fill-opacity="1" stroke="#000000" stroke-opacity="1" stroke-width="3.2"/>
<path clip-path="url(#clip942)" d="M255.506 219.053 L231.506 243.053 L255.506 267.053 L279.506 243.053 L255.506 219.053 Z" fill="#009af9" fill-rule="evenodd" fill-opacity="1" stroke="#000000" stroke-opacity="1" stroke-width="3.2"/>
<polyline clip-path="url(#clip942)" style="stroke:#000000; stroke-linecap:round; stroke-linejoin:round; stroke-width:4; stroke-opacity:1; fill:none" points="2291.67,1150.71 2291.67,1150.67 "/>
<polyline clip-path="url(#clip942)" style="stroke:#000000; stroke-linecap:round; stroke-linejoin:round; stroke-width:4; stroke-opacity:1; fill:none" points="2000.79,1015.33 2000.79,1015.28 "/>
<polyline clip-path="url(#clip942)" style="stroke:#000000; stroke-linecap:round; stroke-linejoin:round; stroke-width:4; stroke-opacity:1; fill:none" points="1709.91,850.052 1709.91,849.964 "/>
<polyline clip-path="url(#clip942)" style="stroke:#000000; stroke-linecap:round; stroke-linejoin:round; stroke-width:4; stroke-opacity:1; fill:none" points="1419.03,662.256 1419.03,662.104 "/>
<polyline clip-path="url(#clip942)" style="stroke:#000000; stroke-linecap:round; stroke-linejoin:round; stroke-width:4; stroke-opacity:1; fill:none" points="1128.15,540.494 1128.15,540.382 "/>
<polyline clip-path="url(#clip942)" style="stroke:#000000; stroke-linecap:round; stroke-linejoin:round; stroke-width:4; stroke-opacity:1; fill:none" points="837.267,430.643 837.267,430.486 "/>
<polyline clip-path="url(#clip942)" style="stroke:#000000; stroke-linecap:round; stroke-linejoin:round; stroke-width:4; stroke-opacity:1; fill:none" points="546.387,331.001 546.387,330.811 "/>
<polyline clip-path="url(#clip942)" style="stroke:#000000; stroke-linecap:round; stroke-linejoin:round; stroke-width:4; stroke-opacity:1; fill:none" points="255.506,243.256 255.506,242.85 "/>
<line clip-path="url(#clip942)" x1="2315.67" y1="1150.71" x2="2267.67" y2="1150.71" style="stroke:#000000; stroke-width:4; stroke-opacity:1"/>
<line clip-path="url(#clip942)" x1="2315.67" y1="1150.67" x2="2267.67" y2="1150.67" style="stroke:#000000; stroke-width:4; stroke-opacity:1"/>
<line clip-path="url(#clip942)" x1="2024.79" y1="1015.33" x2="1976.79" y2="1015.33" style="stroke:#000000; stroke-width:4; stroke-opacity:1"/>
<line clip-path="url(#clip942)" x1="2024.79" y1="1015.28" x2="1976.79" y2="1015.28" style="stroke:#000000; stroke-width:4; stroke-opacity:1"/>
<line clip-path="url(#clip942)" x1="1733.91" y1="850.052" x2="1685.91" y2="850.052" style="stroke:#000000; stroke-width:4; stroke-opacity:1"/>
<line clip-path="url(#clip942)" x1="1733.91" y1="849.964" x2="1685.91" y2="849.964" style="stroke:#000000; stroke-width:4; stroke-opacity:1"/>
<line clip-path="url(#clip942)" x1="1443.03" y1="662.256" x2="1395.03" y2="662.256" style="stroke:#000000; stroke-width:4; stroke-opacity:1"/>
<line clip-path="url(#clip942)" x1="1443.03" y1="662.104" x2="1395.03" y2="662.104" style="stroke:#000000; stroke-width:4; stroke-opacity:1"/>
<line clip-path="url(#clip942)" x1="1152.15" y1="540.494" x2="1104.15" y2="540.494" style="stroke:#000000; stroke-width:4; stroke-opacity:1"/>
<line clip-path="url(#clip942)" x1="1152.15" y1="540.382" x2="1104.15" y2="540.382" style="stroke:#000000; stroke-width:4; stroke-opacity:1"/>
<line clip-path="url(#clip942)" x1="861.267" y1="430.643" x2="813.267" y2="430.643" style="stroke:#000000; stroke-width:4; stroke-opacity:1"/>
<line clip-path="url(#clip942)" x1="861.267" y1="430.486" x2="813.267" y2="430.486" style="stroke:#000000; stroke-width:4; stroke-opacity:1"/>
<line clip-path="url(#clip942)" x1="570.387" y1="331.001" x2="522.387" y2="331.001" style="stroke:#000000; stroke-width:4; stroke-opacity:1"/>
<line clip-path="url(#clip942)" x1="570.387" y1="330.811" x2="522.387" y2="330.811" style="stroke:#000000; stroke-width:4; stroke-opacity:1"/>
<line clip-path="url(#clip942)" x1="279.506" y1="243.256" x2="231.506" y2="243.256" style="stroke:#000000; stroke-width:4; stroke-opacity:1"/>
<line clip-path="url(#clip942)" x1="279.506" y1="242.85" x2="231.506" y2="242.85" style="stroke:#000000; stroke-width:4; stroke-opacity:1"/>
<polyline clip-path="url(#clip942)" style="stroke:#e26f46; stroke-linecap:round; stroke-linejoin:round; stroke-width:4; stroke-opacity:1; fill:none" points="2291.67,915.759 2000.79,808.815 1709.91,611.521 1419.03,465.209 1128.15,311.967 837.267,264.655 546.387,180.69 255.506,85.8963 "/>
<path clip-path="url(#clip942)" d="M2291.67 895.759 L2271.67 935.759 L2311.67 935.759 L2291.67 895.759 Z" fill="#e26f46" fill-rule="evenodd" fill-opacity="1" stroke="#000000" stroke-opacity="1" stroke-width="3.2"/>
<path clip-path="url(#clip942)" d="M2000.79 788.815 L1980.79 828.815 L2020.79 828.815 L2000.79 788.815 Z" fill="#e26f46" fill-rule="evenodd" fill-opacity="1" stroke="#000000" stroke-opacity="1" stroke-width="3.2"/>
<path clip-path="url(#clip942)" d="M1709.91 591.521 L1689.91 631.521 L1729.91 631.521 L1709.91 591.521 Z" fill="#e26f46" fill-rule="evenodd" fill-opacity="1" stroke="#000000" stroke-opacity="1" stroke-width="3.2"/>
<path clip-path="url(#clip942)" d="M1419.03 445.209 L1399.03 485.209 L1439.03 485.209 L1419.03 445.209 Z" fill="#e26f46" fill-rule="evenodd" fill-opacity="1" stroke="#000000" stroke-opacity="1" stroke-width="3.2"/>
<path clip-path="url(#clip942)" d="M1128.15 291.967 L1108.15 331.967 L1148.15 331.967 L1128.15 291.967 Z" fill="#e26f46" fill-rule="evenodd" fill-opacity="1" stroke="#000000" stroke-opacity="1" stroke-width="3.2"/>
<path clip-path="url(#clip942)" d="M837.267 244.655 L817.267 284.655 L857.267 284.655 L837.267 244.655 Z" fill="#e26f46" fill-rule="evenodd" fill-opacity="1" stroke="#000000" stroke-opacity="1" stroke-width="3.2"/>
<path clip-path="url(#clip942)" d="M546.387 160.69 L526.387 200.69 L566.387 200.69 L546.387 160.69 Z" fill="#e26f46" fill-rule="evenodd" fill-opacity="1" stroke="#000000" stroke-opacity="1" stroke-width="3.2"/>
<path clip-path="url(#clip942)" d="M255.506 65.8963 L235.506 105.896 L275.506 105.896 L255.506 65.8963 Z" fill="#e26f46" fill-rule="evenodd" fill-opacity="1" stroke="#000000" stroke-opacity="1" stroke-width="3.2"/>
<polyline clip-path="url(#clip942)" style="stroke:#000000; stroke-linecap:round; stroke-linejoin:round; stroke-width:4; stroke-opacity:1; fill:none" points="2291.67,915.8 2291.67,915.718 "/>
<polyline clip-path="url(#clip942)" style="stroke:#000000; stroke-linecap:round; stroke-linejoin:round; stroke-width:4; stroke-opacity:1; fill:none" points="2000.79,808.835 2000.79,808.796 "/>
<polyline clip-path="url(#clip942)" style="stroke:#000000; stroke-linecap:round; stroke-linejoin:round; stroke-width:4; stroke-opacity:1; fill:none" points="1709.91,611.566 1709.91,611.476 "/>
<polyline clip-path="url(#clip942)" style="stroke:#000000; stroke-linecap:round; stroke-linejoin:round; stroke-width:4; stroke-opacity:1; fill:none" points="1419.03,465.258 1419.03,465.161 "/>
<polyline clip-path="url(#clip942)" style="stroke:#000000; stroke-linecap:round; stroke-linejoin:round; stroke-width:4; stroke-opacity:1; fill:none" points="1128.15,312.039 1128.15,311.896 "/>
<polyline clip-path="url(#clip942)" style="stroke:#000000; stroke-linecap:round; stroke-linejoin:round; stroke-width:4; stroke-opacity:1; fill:none" points="837.267,264.711 837.267,264.6 "/>
<polyline clip-path="url(#clip942)" style="stroke:#000000; stroke-linecap:round; stroke-linejoin:round; stroke-width:4; stroke-opacity:1; fill:none" points="546.387,180.748 546.387,180.633 "/>
<polyline clip-path="url(#clip942)" style="stroke:#000000; stroke-linecap:round; stroke-linejoin:round; stroke-width:4; stroke-opacity:1; fill:none" points="255.506,85.9737 255.506,85.8189 "/>
<line clip-path="url(#clip942)" x1="2311.67" y1="915.8" x2="2271.67" y2="915.8" style="stroke:#000000; stroke-width:4; stroke-opacity:1"/>
<line clip-path="url(#clip942)" x1="2311.67" y1="915.718" x2="2271.67" y2="915.718" style="stroke:#000000; stroke-width:4; stroke-opacity:1"/>
<line clip-path="url(#clip942)" x1="2020.79" y1="808.835" x2="1980.79" y2="808.835" style="stroke:#000000; stroke-width:4; stroke-opacity:1"/>
<line clip-path="url(#clip942)" x1="2020.79" y1="808.796" x2="1980.79" y2="808.796" style="stroke:#000000; stroke-width:4; stroke-opacity:1"/>
<line clip-path="url(#clip942)" x1="1729.91" y1="611.566" x2="1689.91" y2="611.566" style="stroke:#000000; stroke-width:4; stroke-opacity:1"/>
<line clip-path="url(#clip942)" x1="1729.91" y1="611.476" x2="1689.91" y2="611.476" style="stroke:#000000; stroke-width:4; stroke-opacity:1"/>
<line clip-path="url(#clip942)" x1="1439.03" y1="465.258" x2="1399.03" y2="465.258" style="stroke:#000000; stroke-width:4; stroke-opacity:1"/>
<line clip-path="url(#clip942)" x1="1439.03" y1="465.161" x2="1399.03" y2="465.161" style="stroke:#000000; stroke-width:4; stroke-opacity:1"/>
<line clip-path="url(#clip942)" x1="1148.15" y1="312.039" x2="1108.15" y2="312.039" style="stroke:#000000; stroke-width:4; stroke-opacity:1"/>
<line clip-path="url(#clip942)" x1="1148.15" y1="311.896" x2="1108.15" y2="311.896" style="stroke:#000000; stroke-width:4; stroke-opacity:1"/>
<line clip-path="url(#clip942)" x1="857.267" y1="264.711" x2="817.267" y2="264.711" style="stroke:#000000; stroke-width:4; stroke-opacity:1"/>
<line clip-path="url(#clip942)" x1="857.267" y1="264.6" x2="817.267" y2="264.6" style="stroke:#000000; stroke-width:4; stroke-opacity:1"/>
<line clip-path="url(#clip942)" x1="566.387" y1="180.748" x2="526.387" y2="180.748" style="stroke:#000000; stroke-width:4; stroke-opacity:1"/>
<line clip-path="url(#clip942)" x1="566.387" y1="180.633" x2="526.387" y2="180.633" style="stroke:#000000; stroke-width:4; stroke-opacity:1"/>
<line clip-path="url(#clip942)" x1="275.506" y1="85.9737" x2="235.506" y2="85.9737" style="stroke:#000000; stroke-width:4; stroke-opacity:1"/>
<line clip-path="url(#clip942)" x1="275.506" y1="85.8189" x2="235.506" y2="85.8189" style="stroke:#000000; stroke-width:4; stroke-opacity:1"/>
<polyline clip-path="url(#clip942)" style="stroke:#3da44d; stroke-linecap:round; stroke-linejoin:round; stroke-width:4; stroke-opacity:1; fill:none" points="2291.67,1371.63 2000.79,1334.14 1709.91,1289.91 1419.03,1234.39 1128.15,1207.4 837.267,1182.58 546.387,1148.32 255.506,1120.51 "/>
<path clip-path="url(#clip942)" d="M2271.67 1351.63 L2271.67 1391.63 L2311.67 1391.63 L2311.67 1351.63 L2271.67 1351.63 Z" fill="#3da44d" fill-rule="evenodd" fill-opacity="1" stroke="#000000" stroke-opacity="1" stroke-width="3.2"/>
<path clip-path="url(#clip942)" d="M1980.79 1314.14 L1980.79 1354.14 L2020.79 1354.14 L2020.79 1314.14 L1980.79 1314.14 Z" fill="#3da44d" fill-rule="evenodd" fill-opacity="1" stroke="#000000" stroke-opacity="1" stroke-width="3.2"/>
<path clip-path="url(#clip942)" d="M1689.91 1269.91 L1689.91 1309.91 L1729.91 1309.91 L1729.91 1269.91 L1689.91 1269.91 Z" fill="#3da44d" fill-rule="evenodd" fill-opacity="1" stroke="#000000" stroke-opacity="1" stroke-width="3.2"/>
<path clip-path="url(#clip942)" d="M1399.03 1214.39 L1399.03 1254.39 L1439.03 1254.39 L1439.03 1214.39 L1399.03 1214.39 Z" fill="#3da44d" fill-rule="evenodd" fill-opacity="1" stroke="#000000" stroke-opacity="1" stroke-width="3.2"/>
<path clip-path="url(#clip942)" d="M1108.15 1187.4 L1108.15 1227.4 L1148.15 1227.4 L1148.15 1187.4 L1108.15 1187.4 Z" fill="#3da44d" fill-rule="evenodd" fill-opacity="1" stroke="#000000" stroke-opacity="1" stroke-width="3.2"/>
<path clip-path="url(#clip942)" d="M817.267 1162.58 L817.267 1202.58 L857.267 1202.58 L857.267 1162.58 L817.267 1162.58 Z" fill="#3da44d" fill-rule="evenodd" fill-opacity="1" stroke="#000000" stroke-opacity="1" stroke-width="3.2"/>
<path clip-path="url(#clip942)" d="M526.387 1128.32 L526.387 1168.32 L566.387 1168.32 L566.387 1128.32 L526.387 1128.32 Z" fill="#3da44d" fill-rule="evenodd" fill-opacity="1" stroke="#000000" stroke-opacity="1" stroke-width="3.2"/>
<path clip-path="url(#clip942)" d="M235.506 1100.51 L235.506 1140.51 L275.506 1140.51 L275.506 1100.51 L235.506 1100.51 Z" fill="#3da44d" fill-rule="evenodd" fill-opacity="1" stroke="#000000" stroke-opacity="1" stroke-width="3.2"/>
<polyline clip-path="url(#clip942)" style="stroke:#000000; stroke-linecap:round; stroke-linejoin:round; stroke-width:4; stroke-opacity:1; fill:none" points="2291.67,1371.65 2291.67,1371.62 "/>
<polyline clip-path="url(#clip942)" style="stroke:#000000; stroke-linecap:round; stroke-linejoin:round; stroke-width:4; stroke-opacity:1; fill:none" points="2000.79,1334.15 2000.79,1334.13 "/>
<polyline clip-path="url(#clip942)" style="stroke:#000000; stroke-linecap:round; stroke-linejoin:round; stroke-width:4; stroke-opacity:1; fill:none" points="1709.91,1289.94 1709.91,1289.89 "/>
<polyline clip-path="url(#clip942)" style="stroke:#000000; stroke-linecap:round; stroke-linejoin:round; stroke-width:4; stroke-opacity:1; fill:none" points="1419.03,1234.42 1419.03,1234.35 "/>
<polyline clip-path="url(#clip942)" style="stroke:#000000; stroke-linecap:round; stroke-linejoin:round; stroke-width:4; stroke-opacity:1; fill:none" points="1128.15,1207.42 1128.15,1207.37 "/>
<polyline clip-path="url(#clip942)" style="stroke:#000000; stroke-linecap:round; stroke-linejoin:round; stroke-width:4; stroke-opacity:1; fill:none" points="837.267,1182.62 837.267,1182.55 "/>
<polyline clip-path="url(#clip942)" style="stroke:#000000; stroke-linecap:round; stroke-linejoin:round; stroke-width:4; stroke-opacity:1; fill:none" points="546.387,1148.36 546.387,1148.27 "/>
<polyline clip-path="url(#clip942)" style="stroke:#000000; stroke-linecap:round; stroke-linejoin:round; stroke-width:4; stroke-opacity:1; fill:none" points="255.506,1120.61 255.506,1120.41 "/>
<line clip-path="url(#clip942)" x1="2311.67" y1="1371.65" x2="2271.67" y2="1371.65" style="stroke:#000000; stroke-width:4; stroke-opacity:1"/>
<line clip-path="url(#clip942)" x1="2311.67" y1="1371.62" x2="2271.67" y2="1371.62" style="stroke:#000000; stroke-width:4; stroke-opacity:1"/>
<line clip-path="url(#clip942)" x1="2020.79" y1="1334.15" x2="1980.79" y2="1334.15" style="stroke:#000000; stroke-width:4; stroke-opacity:1"/>
<line clip-path="url(#clip942)" x1="2020.79" y1="1334.13" x2="1980.79" y2="1334.13" style="stroke:#000000; stroke-width:4; stroke-opacity:1"/>
<line clip-path="url(#clip942)" x1="1729.91" y1="1289.94" x2="1689.91" y2="1289.94" style="stroke:#000000; stroke-width:4; stroke-opacity:1"/>
<line clip-path="url(#clip942)" x1="1729.91" y1="1289.89" x2="1689.91" y2="1289.89" style="stroke:#000000; stroke-width:4; stroke-opacity:1"/>
<line clip-path="url(#clip942)" x1="1439.03" y1="1234.42" x2="1399.03" y2="1234.42" style="stroke:#000000; stroke-width:4; stroke-opacity:1"/>
<line clip-path="url(#clip942)" x1="1439.03" y1="1234.35" x2="1399.03" y2="1234.35" style="stroke:#000000; stroke-width:4; stroke-opacity:1"/>
<line clip-path="url(#clip942)" x1="1148.15" y1="1207.42" x2="1108.15" y2="1207.42" style="stroke:#000000; stroke-width:4; stroke-opacity:1"/>
<line clip-path="url(#clip942)" x1="1148.15" y1="1207.37" x2="1108.15" y2="1207.37" style="stroke:#000000; stroke-width:4; stroke-opacity:1"/>
<line clip-path="url(#clip942)" x1="857.267" y1="1182.62" x2="817.267" y2="1182.62" style="stroke:#000000; stroke-width:4; stroke-opacity:1"/>
<line clip-path="url(#clip942)" x1="857.267" y1="1182.55" x2="817.267" y2="1182.55" style="stroke:#000000; stroke-width:4; stroke-opacity:1"/>
<line clip-path="url(#clip942)" x1="566.387" y1="1148.36" x2="526.387" y2="1148.36" style="stroke:#000000; stroke-width:4; stroke-opacity:1"/>
<line clip-path="url(#clip942)" x1="566.387" y1="1148.27" x2="526.387" y2="1148.27" style="stroke:#000000; stroke-width:4; stroke-opacity:1"/>
<line clip-path="url(#clip942)" x1="275.506" y1="1120.61" x2="235.506" y2="1120.61" style="stroke:#000000; stroke-width:4; stroke-opacity:1"/>
<line clip-path="url(#clip942)" x1="275.506" y1="1120.41" x2="235.506" y2="1120.41" style="stroke:#000000; stroke-width:4; stroke-opacity:1"/>
<path clip-path="url(#clip940)" d="M1780.98 545.439 L2280.81 545.439 L2280.81 92.6766 L1780.98 92.6766  Z" fill="#ffffff" fill-rule="evenodd" fill-opacity="1"/>
<polyline clip-path="url(#clip940)" style="stroke:#000000; stroke-linecap:round; stroke-linejoin:round; stroke-width:4; stroke-opacity:0; fill:none" points="1780.98,545.439 2280.81,545.439 2280.81,92.6766 1780.98,92.6766 1780.98,545.439 "/>
<polyline clip-path="url(#clip940)" style="stroke:#009af9; stroke-linecap:round; stroke-linejoin:round; stroke-width:7; stroke-opacity:1; fill:none" points="1804.96,205.867 1948.85,205.867 "/>
<path clip-path="url(#clip940)" d="M1876.9 195.698 L1866.73 205.867 L1876.9 216.037 L1887.07 205.867 L1876.9 195.698 Z" fill="#009af9" fill-rule="evenodd" fill-opacity="1" stroke="#000000" stroke-opacity="1" stroke-width="5.51385"/>
<path clip-path="url(#clip940)" d="M2019.52 149.569 Q2019.52 149.626 2019.46 149.684 Q2019.09 152.725 2018.37 154.418 Q2017.65 156.082 2016.05 156.857 Q2014.87 157.431 2013.41 157.431 Q2011.2 157.431 2008.01 155.967 Q2007.9 155.91 2007.27 155.623 Q2006.64 155.336 2006.41 155.25 Q2006.18 155.164 2005.69 154.992 Q2005.2 154.791 2004.83 154.734 Q2004.45 154.676 2004.08 154.676 Q2003.28 154.676 2002.59 155.021 Q2001.18 155.709 2000.32 156.742 Q1999.43 157.746 1999.2 159.554 Q1999.15 159.784 1998.95 159.956 Q1998.75 160.128 1998.49 160.128 Q1998.23 160.128 1998 159.927 Q1997.77 159.726 1997.77 159.439 Q1997.77 159.382 1997.83 159.324 Q1998.2 156.283 1998.92 154.619 Q1999.63 152.926 2001.24 152.151 Q2002.5 151.549 2003.88 151.549 Q2006.03 151.549 2009.3 153.041 Q2009.42 153.098 2010.05 153.385 Q2010.68 153.672 2010.91 153.758 Q2011.14 153.844 2011.63 154.045 Q2012.12 154.217 2012.49 154.275 Q2012.86 154.332 2013.23 154.332 Q2013.95 154.332 2014.7 153.959 Q2016.1 153.27 2016.99 152.266 Q2017.88 151.262 2018.11 149.454 Q2018.17 149.225 2018.37 149.053 Q2018.57 148.852 2018.83 148.852 Q2019.09 148.852 2019.32 149.081 Q2019.52 149.282 2019.52 149.569 Z" fill="#000000" fill-rule="nonzero" fill-opacity="1" /><path clip-path="url(#clip940)" d="M2032.76 181.518 Q2032.76 186.108 2029.35 190.33 Q2025.99 194.552 2020.5 197.135 Q2015.05 199.676 2009.19 199.676 L1994.92 199.676 L1989.72 220.662 Q1989.68 220.785 1989.55 221.318 Q1989.43 221.81 1989.43 222.097 Q1989.43 223.122 1990.7 223.368 Q1992.01 223.614 1994.92 223.614 Q1996.81 223.614 1997.1 223.942 Q1997.26 224.147 1997.26 224.515 Q1997.26 225.089 1997.1 225.499 Q1996.93 225.868 1996.6 225.991 Q1996.32 226.114 1996.11 226.155 Q1995.91 226.196 1995.58 226.196 Q1994.72 226.196 1992.87 226.114 Q1991.07 226.032 1990.13 226.032 L1984.76 225.95 L1974.1 226.196 Q1972.83 226.196 1972.83 225.171 Q1972.83 224.392 1973.16 224.065 Q1973.49 223.696 1973.85 223.655 Q1974.22 223.614 1975.17 223.614 Q1977.22 223.614 1978.45 223.491 Q1979.68 223.368 1980.45 223.204 Q1981.27 222.999 1981.68 222.425 Q1982.13 221.851 1982.34 221.359 Q1982.54 220.826 1982.83 219.638 L1994.06 174.55 Q1994.39 173.197 1994.39 172.992 Q1994.39 172.295 1993.98 172.049 Q1993.61 171.762 1992.55 171.639 Q1990.5 171.475 1988.94 171.475 Q1987.91 171.475 1987.5 171.434 Q1987.14 171.393 1986.81 171.188 Q1986.52 170.942 1986.52 170.451 Q1986.52 169.672 1986.85 169.344 Q1987.22 168.975 1987.63 168.934 Q1988.04 168.852 1989.02 168.852 L2016.24 168.852 Q2024.07 168.852 2028.41 172.582 Q2032.76 176.312 2032.76 181.518 M2024.97 179.509 Q2024.97 171.475 2013.53 171.475 L2005.5 171.475 Q2002.83 171.475 2002.18 171.967 Q2001.52 172.418 2000.95 174.672 L1995.25 197.503 L2007.1 197.503 Q2015.05 197.503 2020.01 193.036 Q2022.26 190.986 2023.62 186.723 Q2024.97 182.46 2024.97 179.509 Z" fill="#000000" fill-rule="nonzero" fill-opacity="1" /><path clip-path="url(#clip940)" d="M2066.3 215.754 Q2066.3 217.562 2061.05 217.562 Q2060.24 217.562 2059.78 217.533 Q2059.35 217.505 2058.66 217.246 Q2057.98 216.988 2057.49 216.5 Q2055.25 217.706 2052.93 220.116 Q2050.6 222.526 2048.71 225.567 Q2046.81 228.58 2045.58 232.195 Q2044.38 235.81 2044.38 239.081 Q2044.38 243.529 2046.84 245.767 Q2047.85 246.656 2049 247.144 Q2050.14 247.632 2053.9 248.894 Q2056.83 249.899 2057.8 250.329 Q2058.78 250.759 2059.47 251.534 Q2061.05 253.112 2061.05 255.465 Q2061.05 258.105 2059.15 260.343 Q2057.29 262.581 2054.65 262.581 Q2053.21 262.581 2051.84 261.978 Q2050.46 261.404 2049.74 260.744 Q2049.02 260.084 2049.02 259.769 Q2049.02 259.482 2049.2 259.281 Q2049.37 259.109 2049.6 259.109 Q2049.86 259.109 2050.32 259.51 Q2052.38 261.289 2054.65 261.289 Q2056.14 261.289 2057.03 260.027 Q2057.95 258.793 2057.95 257.416 Q2057.95 256.641 2057.66 255.981 Q2057.4 255.321 2057.03 254.92 Q2056.69 254.547 2056.11 254.202 Q2055.54 253.858 2055.16 253.715 Q2054.82 253.571 2054.3 253.399 Q2051.18 252.337 2050.72 252.165 Q2049.74 251.85 2049.25 251.677 Q2048.77 251.505 2047.82 251.104 Q2046.87 250.731 2046.33 250.415 Q2045.81 250.099 2044.98 249.554 Q2044.18 248.98 2043.72 248.435 Q2043.26 247.89 2042.68 247.087 Q2042.14 246.255 2041.82 245.365 Q2041.54 244.447 2041.33 243.271 Q2041.13 242.065 2041.13 240.717 Q2041.13 237.446 2042.14 234.032 Q2043.17 230.617 2044.81 227.777 Q2046.44 224.907 2048.48 222.382 Q2050.54 219.857 2052.61 218.107 Q2054.71 216.328 2056.6 215.381 Q2055.94 214.09 2055.94 212.455 Q2055.94 212.197 2055.97 211.91 Q2056 211.594 2056.05 210.991 Q2056.14 210.36 2056.37 209.987 Q2056.63 209.586 2057 209.586 Q2057.32 209.586 2057.52 209.786 Q2057.72 209.987 2057.72 210.332 Q2057.43 211.68 2057.43 212.512 Q2057.43 213.746 2057.83 214.75 Q2059.44 214.148 2061.59 214.148 Q2063.8 214.148 2065.03 214.463 Q2066.3 214.779 2066.3 215.754 M2064.78 215.812 Q2063.4 215.439 2061.53 215.439 Q2059.78 215.439 2058.84 215.869 Q2059.3 216.156 2059.7 216.214 Q2060.1 216.271 2061.13 216.271 Q2063.54 216.271 2064.78 215.812 Z" fill="#000000" fill-rule="nonzero" fill-opacity="1" /><path clip-path="url(#clip940)" d="M2075.58 205.209 Q2075.58 191.027 2080.87 179.591 Q2083.13 174.795 2086.28 170.778 Q2089.44 166.762 2091.53 164.999 Q2093.62 163.236 2094.19 163.236 Q2095.01 163.236 2095.05 164.056 Q2095.05 164.466 2093.95 165.491 Q2080.42 179.263 2080.46 205.209 Q2080.46 231.238 2093.62 244.477 Q2095.05 245.912 2095.05 246.363 Q2095.05 247.183 2094.19 247.183 Q2093.62 247.183 2091.61 245.502 Q2089.6 243.821 2086.49 239.968 Q2083.37 236.115 2081.12 231.402 Q2075.58 219.966 2075.58 205.209 Z" fill="#000000" fill-rule="nonzero" fill-opacity="1" /><path clip-path="url(#clip940)" d="M2103.11 199.348 Q2103.11 187.01 2106.23 180.288 Q2110.57 170.287 2120.82 170.287 Q2122.99 170.287 2125.25 170.901 Q2127.54 171.475 2130.41 173.73 Q2133.32 175.984 2135.08 179.673 Q2138.45 186.805 2138.45 199.348 Q2138.45 211.604 2135.33 218.285 Q2130.78 228.041 2120.74 228.041 Q2116.97 228.041 2113.11 226.114 Q2109.3 224.188 2106.88 219.556 Q2103.11 212.629 2103.11 199.348 M2110.08 198.323 Q2110.08 210.989 2110.98 216.031 Q2112.01 221.482 2114.8 223.86 Q2117.62 226.196 2120.74 226.196 Q2124.1 226.196 2126.89 223.696 Q2129.72 221.154 2130.58 215.703 Q2131.52 210.333 2131.48 198.323 Q2131.48 186.641 2130.66 181.969 Q2129.55 176.517 2126.6 174.345 Q2123.69 172.131 2120.74 172.131 Q2119.63 172.131 2118.44 172.459 Q2117.3 172.787 2115.61 173.73 Q2113.93 174.672 2112.62 177.009 Q2111.35 179.345 2110.74 182.87 Q2110.08 187.42 2110.08 198.323 Z" fill="#000000" fill-rule="nonzero" fill-opacity="1" /><path clip-path="url(#clip940)" d="M2145.87 224.843 Q2144.68 223.491 2144.68 221.728 Q2144.68 219.966 2145.83 218.654 Q2147.02 217.301 2149.15 217.301 Q2151.65 217.301 2153.09 219.72 Q2154.52 222.097 2154.52 226.114 Q2154.52 230.459 2152.76 234.476 Q2151 238.534 2149.27 240.46 Q2147.55 242.387 2146.86 242.387 Q2146.04 242.387 2146.04 241.485 Q2146.04 241.157 2146.61 240.542 Q2152.64 234.066 2152.68 226.114 Q2152.68 224.843 2152.51 224.843 L2152.31 225.007 Q2150.87 226.196 2149.15 226.196 Q2147.06 226.196 2145.87 224.843 Z" fill="#000000" fill-rule="nonzero" fill-opacity="1" /><path clip-path="url(#clip940)" d="M2181.01 199.348 Q2181.01 187.01 2184.13 180.288 Q2188.47 170.287 2198.72 170.287 Q2200.89 170.287 2203.14 170.901 Q2205.44 171.475 2208.31 173.73 Q2211.22 175.984 2212.98 179.673 Q2216.34 186.805 2216.34 199.348 Q2216.34 211.604 2213.23 218.285 Q2208.68 228.041 2198.64 228.041 Q2194.86 228.041 2191.01 226.114 Q2187.2 224.188 2184.78 219.556 Q2181.01 212.629 2181.01 199.348 M2187.98 198.323 Q2187.98 210.989 2188.88 216.031 Q2189.91 221.482 2192.69 223.86 Q2195.52 226.196 2198.64 226.196 Q2202 226.196 2204.78 223.696 Q2207.61 221.154 2208.47 215.703 Q2209.42 210.333 2209.37 198.323 Q2209.37 186.641 2208.56 181.969 Q2207.45 176.517 2204.5 174.345 Q2201.59 172.131 2198.64 172.131 Q2197.53 172.131 2196.34 172.459 Q2195.19 172.787 2193.51 173.73 Q2191.83 174.672 2190.52 177.009 Q2189.25 179.345 2188.63 182.87 Q2187.98 187.42 2187.98 198.323 Z" fill="#000000" fill-rule="nonzero" fill-opacity="1" /><path clip-path="url(#clip940)" d="M2224.6 246.363 Q2224.6 245.953 2225.66 244.928 Q2239.19 231.156 2239.19 205.209 Q2239.19 179.181 2226.2 166.024 Q2224.6 164.507 2224.6 164.056 Q2224.6 163.236 2225.42 163.236 Q2225.99 163.236 2228 164.917 Q2230.05 166.598 2233.12 170.451 Q2236.24 174.304 2238.53 179.017 Q2244.07 190.453 2244.07 205.209 Q2244.07 219.392 2238.78 230.828 Q2236.52 235.624 2233.37 239.64 Q2230.21 243.657 2228.12 245.42 Q2226.03 247.183 2225.42 247.183 Q2224.6 247.183 2224.6 246.363 Z" fill="#000000" fill-rule="nonzero" fill-opacity="1" /><polyline clip-path="url(#clip940)" style="stroke:#e26f46; stroke-linecap:round; stroke-linejoin:round; stroke-width:7; stroke-opacity:1; fill:none" points="1804.96,319.058 1948.85,319.058 "/>
<path clip-path="url(#clip940)" d="M1876.9 308.888 L1866.73 329.228 L1887.07 329.228 L1876.9 308.888 Z" fill="#e26f46" fill-rule="evenodd" fill-opacity="1" stroke="#000000" stroke-opacity="1" stroke-width="6.51636"/>
<path clip-path="url(#clip940)" d="M2020.87 293.324 Q2019.19 299.759 2014.07 303.899 Q2009.27 307.875 2002.83 307.875 Q1996.93 307.875 1994.76 305.088 Q1993.41 303.407 1994.1 300.21 Q1994.55 298.161 1995.78 297.218 Q1996.85 296.275 1998.74 296.275 Q2000.37 296.275 2001.07 297.218 Q2001.65 298.12 2000.58 300.661 Q1999.31 303.284 2000.21 304.514 Q2000.87 305.334 2003.24 305.334 Q2006.61 305.334 2009.97 302.67 Q2013.45 299.841 2014.84 294.349 Q2015.99 289.43 2014.07 286.889 Q2011.85 284.02 2006.77 284.02 Q1999.39 284.02 1993.86 288.405 Q1989.47 291.93 1986.64 297.3 Q1983.32 303.448 1981.36 311.4 Q1979.47 319.024 1980 324.476 Q1980.41 330.296 1983.12 333.903 Q1986.36 338.248 1991.77 338.248 Q1996.73 338.248 2001.32 334.641 Q2004.15 332.346 2006.2 327.673 L2007.26 327.099 L2010.13 331.034 Q2008.2 333.822 2006.11 335.584 Q1999.19 341.118 1988.98 341.118 Q1985 341.118 1981.68 339.642 Q1978.4 338.125 1976.31 335.297 Q1973.69 331.895 1973.28 326.157 Q1972.83 320.5 1974.63 313.491 Q1976.81 304.678 1980.58 298.284 Q1984.06 292.094 1989.55 287.791 Q1997.55 281.355 2008.94 281.355 Q2017.22 281.355 2020.05 285.208 Q2022.14 287.914 2020.87 293.324 Z" fill="#000000" fill-rule="nonzero" fill-opacity="1" /><path clip-path="url(#clip940)" d="M2027.19 318.86 Q2027.19 304.678 2032.48 293.242 Q2034.73 288.446 2037.89 284.429 Q2041.04 280.412 2043.13 278.65 Q2045.22 276.887 2045.8 276.887 Q2046.62 276.887 2046.66 277.707 Q2046.66 278.117 2045.55 279.142 Q2032.02 292.914 2032.07 318.86 Q2032.07 344.889 2045.22 358.128 Q2046.66 359.563 2046.66 360.014 Q2046.66 360.833 2045.8 360.833 Q2045.22 360.833 2043.21 359.153 Q2041.21 357.472 2038.09 353.619 Q2034.98 349.766 2032.72 345.053 Q2027.19 333.617 2027.19 318.86 Z" fill="#000000" fill-rule="nonzero" fill-opacity="1" /><path clip-path="url(#clip940)" d="M2098.37 305.662 Q2098.37 308.531 2094.27 308.531 L2084.68 308.531 Q2083.21 315.335 2083.21 321.894 Q2083.21 329.723 2085.62 335.748 Q2086.12 336.937 2086.12 337.593 Q2086.12 338.822 2085.01 339.806 Q2083.94 340.79 2082.67 340.79 Q2081.61 340.79 2080.91 339.97 Q2080.25 339.15 2079.68 336.568 Q2078.98 333.535 2078.98 330.173 Q2078.98 326.157 2079.64 322.304 Q2080.3 318.41 2082.51 308.531 L2073.04 308.531 L2068.33 327.099 Q2066.65 333.371 2066.07 335.297 Q2065.7 336.445 2065.58 336.814 Q2065.46 337.183 2065.09 338.084 Q2064.76 338.945 2064.51 339.273 Q2064.27 339.56 2063.86 340.011 Q2063.45 340.503 2062.96 340.626 Q2062.46 340.79 2061.85 340.79 Q2060.91 340.79 2060.17 340.175 Q2059.43 339.601 2059.43 338.494 Q2059.43 337.756 2060.09 336.486 Q2067.88 319.68 2070.83 308.531 L2066.07 308.531 Q2059.51 308.531 2055.41 315.007 Q2054.76 315.868 2054.39 315.95 Q2054.23 315.991 2054.06 315.991 Q2053.61 315.991 2053.32 315.786 Q2053.08 315.581 2053.08 315.376 L2053.04 315.171 Q2053.04 314.925 2053.65 313.819 Q2054.31 312.671 2055.54 310.909 Q2056.81 309.146 2058.16 307.629 Q2059.47 306.236 2060.74 305.375 Q2062.05 304.473 2063.28 304.145 Q2064.51 303.817 2065.21 303.735 Q2065.91 303.653 2066.89 303.653 L2095.01 303.653 Q2096.08 303.653 2096.65 303.735 Q2097.22 303.776 2097.8 304.268 Q2098.37 304.719 2098.37 305.662 Z" fill="#000000" fill-rule="nonzero" fill-opacity="1" /><path clip-path="url(#clip940)" d="M2101.6 338.494 Q2100.41 337.142 2100.41 335.379 Q2100.41 333.617 2101.56 332.305 Q2102.75 330.952 2104.88 330.952 Q2107.38 330.952 2108.82 333.371 Q2110.25 335.748 2110.25 339.765 Q2110.25 344.11 2108.49 348.127 Q2106.73 352.185 2105 354.111 Q2103.28 356.038 2102.59 356.038 Q2101.77 356.038 2101.77 355.136 Q2101.77 354.808 2102.34 354.193 Q2108.36 347.717 2108.41 339.765 Q2108.41 338.494 2108.24 338.494 L2108.04 338.658 Q2106.6 339.847 2104.88 339.847 Q2102.79 339.847 2101.6 338.494 Z" fill="#000000" fill-rule="nonzero" fill-opacity="1" /><path clip-path="url(#clip940)" d="M2182.07 305.662 Q2182.07 308.531 2177.97 308.531 L2168.38 308.531 Q2166.91 315.335 2166.91 321.894 Q2166.91 329.723 2169.33 335.748 Q2169.82 336.937 2169.82 337.593 Q2169.82 338.822 2168.71 339.806 Q2167.65 340.79 2166.37 340.79 Q2165.31 340.79 2164.61 339.97 Q2163.96 339.15 2163.38 336.568 Q2162.69 333.535 2162.69 330.173 Q2162.69 326.157 2163.34 322.304 Q2164 318.41 2166.21 308.531 L2156.74 308.531 L2152.03 327.099 Q2150.35 333.371 2149.77 335.297 Q2149.41 336.445 2149.28 336.814 Q2149.16 337.183 2148.79 338.084 Q2148.46 338.945 2148.22 339.273 Q2147.97 339.56 2147.56 340.011 Q2147.15 340.503 2146.66 340.626 Q2146.17 340.79 2145.55 340.79 Q2144.61 340.79 2143.87 340.175 Q2143.13 339.601 2143.13 338.494 Q2143.13 337.756 2143.79 336.486 Q2151.58 319.68 2154.53 308.531 L2149.77 308.531 Q2143.22 308.531 2139.12 315.007 Q2138.46 315.868 2138.09 315.95 Q2137.93 315.991 2137.76 315.991 Q2137.31 315.991 2137.03 315.786 Q2136.78 315.581 2136.78 315.376 L2136.74 315.171 Q2136.74 314.925 2137.35 313.819 Q2138.01 312.671 2139.24 310.909 Q2140.51 309.146 2141.86 307.629 Q2143.17 306.236 2144.45 305.375 Q2145.76 304.473 2146.99 304.145 Q2148.22 303.817 2148.91 303.735 Q2149.61 303.653 2150.59 303.653 L2178.71 303.653 Q2179.78 303.653 2180.35 303.735 Q2180.93 303.776 2181.5 304.268 Q2182.07 304.719 2182.07 305.662 Z" fill="#000000" fill-rule="nonzero" fill-opacity="1" /><path clip-path="url(#clip940)" d="M2189.83 360.014 Q2189.83 359.604 2190.89 358.579 Q2204.42 344.807 2204.42 318.86 Q2204.42 292.832 2191.43 279.675 Q2189.83 278.158 2189.83 277.707 Q2189.83 276.887 2190.65 276.887 Q2191.22 276.887 2193.23 278.568 Q2195.28 280.249 2198.35 284.102 Q2201.47 287.955 2203.76 292.668 Q2209.3 304.104 2209.3 318.86 Q2209.3 333.043 2204.01 344.479 Q2201.76 349.274 2198.6 353.291 Q2195.44 357.308 2193.35 359.071 Q2191.26 360.833 2190.65 360.833 Q2189.83 360.833 2189.83 360.014 Z" fill="#000000" fill-rule="nonzero" fill-opacity="1" /><polyline clip-path="url(#clip940)" style="stroke:#3da44d; stroke-linecap:round; stroke-linejoin:round; stroke-width:7; stroke-opacity:1; fill:none" points="1804.96,432.248 1948.85,432.248 "/>
<path clip-path="url(#clip940)" d="M1866.73 422.079 L1866.73 442.418 L1887.07 442.418 L1887.07 422.079 L1866.73 422.079 Z" fill="#3da44d" fill-rule="evenodd" fill-opacity="1" stroke="#000000" stroke-opacity="1" stroke-width="6.51636"/>
<path clip-path="url(#clip940)" d="M2050.83 397.989 Q2050.46 399.465 2049.68 399.997 L2046.65 401.309 Q2045.14 401.309 2044.97 400.981 Q2044.27 400.12 2044.15 399.219 Q2044.15 398.563 2043.78 398.153 Q2043.45 397.702 2042.88 397.702 Q2041.69 397.702 2040.95 398.317 Q2039.19 399.711 2038.08 402.99 Q2037.14 405.695 2034.48 416.106 L2025.91 451.111 L2021.2 453.611 Q2017.55 439.47 2013.7 428.239 Q2009.84 416.967 2004.84 408.113 L2001.15 421.312 Q1996.23 436.929 1995.29 438.855 Q1992.38 445.25 1987.55 449.349 Q1982.75 453.365 1978.24 453.365 Q1975.33 453.365 1974.02 451.603 Q1972.83 450.127 1973.28 448.406 Q1973.61 446.807 1975.45 445.332 Q1976.6 444.471 1977.54 444.471 Q1979.02 444.471 1979.59 445.25 Q1979.68 445.332 1979.8 445.618 Q1979.92 445.905 1980.09 446.315 Q1980.25 446.684 1980.33 446.889 Q1980.82 448.078 1982.42 448.078 Q1985.04 448.078 1987.96 445.741 Q1989.06 444.84 1990 443.528 Q1990.99 442.175 1991.4 441.356 Q1991.85 440.536 1992.75 438.691 Q1994.92 433.732 1996.97 425.903 L2002.42 404.178 Q2000.46 401.637 1998.65 400.407 Q1996.64 399.055 1995.01 399.055 Q1991.93 399.055 1989.92 400.817 Q1988.86 401.637 1987.87 402.99 Q1986.93 404.342 1986.44 405.285 Q1985.95 406.228 1985.21 407.949 L1983.28 408.359 Q1985.17 400.858 1989.64 397.21 Q1993.53 394.177 1998.65 394.177 Q2003.57 394.177 2007.38 399.465 Q2008.7 401.145 2009.93 403.523 Q2011.2 405.859 2011.77 407.294 Q2012.38 408.687 2013.66 411.802 L2024.8 442.626 L2025.67 441.602 L2032.14 412.745 Q2033.37 407.58 2035.83 402.416 Q2037.72 398.235 2039.93 396.472 Q2043.25 393.767 2047.31 393.767 Q2049.19 393.767 2050.34 395.038 Q2051.24 396.185 2050.83 397.989 Z" fill="#000000" fill-rule="nonzero" fill-opacity="1" /><path clip-path="url(#clip940)" d="M2056.54 432.051 Q2056.54 417.869 2061.83 406.433 Q2064.08 401.637 2067.24 397.62 Q2070.39 393.603 2072.48 391.841 Q2074.57 390.078 2075.15 390.078 Q2075.97 390.078 2076.01 390.898 Q2076.01 391.308 2074.9 392.332 Q2061.38 406.105 2061.42 432.051 Q2061.42 458.079 2074.57 471.319 Q2076.01 472.753 2076.01 473.204 Q2076.01 474.024 2075.15 474.024 Q2074.57 474.024 2072.57 472.344 Q2070.56 470.663 2067.44 466.81 Q2064.33 462.957 2062.07 458.243 Q2056.54 446.807 2056.54 432.051 Z" fill="#000000" fill-rule="nonzero" fill-opacity="1" /><path clip-path="url(#clip940)" d="M2127.72 418.852 Q2127.72 421.722 2123.62 421.722 L2114.03 421.722 Q2112.56 428.526 2112.56 435.084 Q2112.56 442.913 2114.97 448.939 Q2115.47 450.127 2115.47 450.783 Q2115.47 452.013 2114.36 452.997 Q2113.29 453.98 2112.02 453.98 Q2110.96 453.98 2110.26 453.161 Q2109.61 452.341 2109.03 449.758 Q2108.33 446.725 2108.33 443.364 Q2108.33 439.347 2108.99 435.494 Q2109.65 431.6 2111.86 421.722 L2102.39 421.722 L2097.68 440.29 Q2096 446.561 2095.42 448.488 Q2095.05 449.635 2094.93 450.004 Q2094.81 450.373 2094.44 451.275 Q2094.11 452.136 2093.87 452.464 Q2093.62 452.751 2093.21 453.202 Q2092.8 453.693 2092.31 453.816 Q2091.82 453.98 2091.2 453.98 Q2090.26 453.98 2089.52 453.365 Q2088.78 452.792 2088.78 451.685 Q2088.78 450.947 2089.44 449.676 Q2097.23 432.871 2100.18 421.722 L2095.42 421.722 Q2088.86 421.722 2084.77 428.198 Q2084.11 429.059 2083.74 429.141 Q2083.58 429.182 2083.41 429.182 Q2082.96 429.182 2082.68 428.977 Q2082.43 428.772 2082.43 428.567 L2082.39 428.362 Q2082.39 428.116 2083 427.009 Q2083.66 425.862 2084.89 424.099 Q2086.16 422.337 2087.51 420.82 Q2088.82 419.426 2090.09 418.566 Q2091.41 417.664 2092.64 417.336 Q2093.87 417.008 2094.56 416.926 Q2095.26 416.844 2096.24 416.844 L2124.36 416.844 Q2125.43 416.844 2126 416.926 Q2126.57 416.967 2127.15 417.459 Q2127.72 417.91 2127.72 418.852 Z" fill="#000000" fill-rule="nonzero" fill-opacity="1" /><path clip-path="url(#clip940)" d="M2130.95 451.685 Q2129.76 450.332 2129.76 448.57 Q2129.76 446.807 2130.91 445.496 Q2132.1 444.143 2134.23 444.143 Q2136.73 444.143 2138.17 446.561 Q2139.6 448.939 2139.6 452.956 Q2139.6 457.3 2137.84 461.317 Q2136.08 465.375 2134.35 467.302 Q2132.63 469.228 2131.94 469.228 Q2131.12 469.228 2131.12 468.327 Q2131.12 467.999 2131.69 467.384 Q2137.72 460.907 2137.76 452.956 Q2137.76 451.685 2137.59 451.685 L2137.39 451.849 Q2135.95 453.038 2134.23 453.038 Q2132.14 453.038 2130.95 451.685 Z" fill="#000000" fill-rule="nonzero" fill-opacity="1" /><path clip-path="url(#clip940)" d="M2211.42 418.852 Q2211.42 421.722 2207.33 421.722 L2197.73 421.722 Q2196.26 428.526 2196.26 435.084 Q2196.26 442.913 2198.68 448.939 Q2199.17 450.127 2199.17 450.783 Q2199.17 452.013 2198.06 452.997 Q2197 453.98 2195.73 453.98 Q2194.66 453.98 2193.96 453.161 Q2193.31 452.341 2192.73 449.758 Q2192.04 446.725 2192.04 443.364 Q2192.04 439.347 2192.69 435.494 Q2193.35 431.6 2195.56 421.722 L2186.09 421.722 L2181.38 440.29 Q2179.7 446.561 2179.13 448.488 Q2178.76 449.635 2178.63 450.004 Q2178.51 450.373 2178.14 451.275 Q2177.81 452.136 2177.57 452.464 Q2177.32 452.751 2176.91 453.202 Q2176.5 453.693 2176.01 453.816 Q2175.52 453.98 2174.9 453.98 Q2173.96 453.98 2173.22 453.365 Q2172.48 452.792 2172.48 451.685 Q2172.48 450.947 2173.14 449.676 Q2180.93 432.871 2183.88 421.722 L2179.13 421.722 Q2172.57 421.722 2168.47 428.198 Q2167.81 429.059 2167.44 429.141 Q2167.28 429.182 2167.12 429.182 Q2166.66 429.182 2166.38 428.977 Q2166.13 428.772 2166.13 428.567 L2166.09 428.362 Q2166.09 428.116 2166.71 427.009 Q2167.36 425.862 2168.59 424.099 Q2169.86 422.337 2171.21 420.82 Q2172.53 419.426 2173.8 418.566 Q2175.11 417.664 2176.34 417.336 Q2177.57 417.008 2178.26 416.926 Q2178.96 416.844 2179.94 416.844 L2208.06 416.844 Q2209.13 416.844 2209.7 416.926 Q2210.28 416.967 2210.85 417.459 Q2211.42 417.91 2211.42 418.852 Z" fill="#000000" fill-rule="nonzero" fill-opacity="1" /><path clip-path="url(#clip940)" d="M2219.18 473.204 Q2219.18 472.794 2220.24 471.77 Q2233.77 457.997 2233.77 432.051 Q2233.77 406.023 2220.78 392.865 Q2219.18 391.349 2219.18 390.898 Q2219.18 390.078 2220 390.078 Q2220.57 390.078 2222.58 391.759 Q2224.63 393.439 2227.7 397.292 Q2230.82 401.145 2233.11 405.859 Q2238.65 417.295 2238.65 432.051 Q2238.65 446.233 2233.36 457.669 Q2231.11 462.465 2227.95 466.482 Q2224.79 470.499 2222.7 472.262 Q2220.61 474.024 2220 474.024 Q2219.18 474.024 2219.18 473.204 Z" fill="#000000" fill-rule="nonzero" fill-opacity="1" /></svg>
