<?xml version="1.0" encoding="utf-8"?>
<svg xmlns="http://www.w3.org/2000/svg" xmlns:xlink="http://www.w3.org/1999/xlink" width="600" height="400" viewBox="0 0 2400 1600">
<defs>
  <clipPath id="clip910">
    <rect x="0" y="0" width="2400" height="1600"/>
  </clipPath>
</defs>
<path clip-path="url(#clip910)" d="M0 1600 L2400 1600 L2400 0 L0 0  Z" fill="#ffffff" fill-rule="evenodd" fill-opacity="1"/>
<defs>
  <clipPath id="clip911">
    <rect x="480" y="0" width="1681" height="1600"/>
  </clipPath>
</defs>
<defs>
  <clipPath id="clip912">
    <rect x="261" y="47" width="2092" height="1364"/>
  </clipPath>
</defs>
<path clip-path="url(#clip910)" d="M261.33 1410.22 L2352.76 1410.22 L2352.76 47.2441 L261.33 47.2441  Z" fill="#ffffff" fill-rule="evenodd" fill-opacity="1"/>
<polyline clip-path="url(#clip910)" style="stroke:#000000; stroke-linecap:round; stroke-linejoin:round; stroke-width:4; stroke-opacity:1; fill:none" points="261.33,1410.22 2352.76,1410.22 "/>
<polyline clip-path="url(#clip910)" style="stroke:#000000; stroke-linecap:round; stroke-linejoin:round; stroke-width:4; stroke-opacity:1; fill:none" points="261.33,47.2441 2352.76,47.2441 "/>
<polyline clip-path="url(#clip910)" style="stroke:#000000; stroke-linecap:round; stroke-linejoin:round; stroke-width:4; stroke-opacity:1; fill:none" points="320.521,1410.22 320.521,1391.32 "/>
<polyline clip-path="url(#clip910)" style="stroke:#000000; stroke-linecap:round; stroke-linejoin:round; stroke-width:4; stroke-opacity:1; fill:none" points="649.361,1410.22 649.361,1391.32 "/>
<polyline clip-path="url(#clip910)" style="stroke:#000000; stroke-linecap:round; stroke-linejoin:round; stroke-width:4; stroke-opacity:1; fill:none" points="978.202,1410.22 978.202,1391.32 "/>
<polyline clip-path="url(#clip910)" style="stroke:#000000; stroke-linecap:round; stroke-linejoin:round; stroke-width:4; stroke-opacity:1; fill:none" points="1307.04,1410.22 1307.04,1391.32 "/>
<polyline clip-path="url(#clip910)" style="stroke:#000000; stroke-linecap:round; stroke-linejoin:round; stroke-width:4; stroke-opacity:1; fill:none" points="1635.88,1410.22 1635.88,1391.32 "/>
<polyline clip-path="url(#clip910)" style="stroke:#000000; stroke-linecap:round; stroke-linejoin:round; stroke-width:4; stroke-opacity:1; fill:none" points="1964.72,1410.22 1964.72,1391.32 "/>
<polyline clip-path="url(#clip910)" style="stroke:#000000; stroke-linecap:round; stroke-linejoin:round; stroke-width:4; stroke-opacity:1; fill:none" points="2293.56,1410.22 2293.56,1391.32 "/>
<path clip-path="url(#clip910)" d="M324.118 1466.71 Q324.489 1467.08 324.489 1467.61 Q324.489 1468.13 324.118 1468.51 Q323.748 1468.88 323.223 1468.88 L283.636 1468.88 Q283.111 1468.88 282.74 1468.51 Q282.37 1468.13 282.37 1467.61 Q282.37 1467.08 282.74 1466.71 Q283.111 1466.34 283.636 1466.34 L323.223 1466.34 Q323.748 1466.34 324.118 1466.71 Z" fill="#000000" fill-rule="nonzero" fill-opacity="1" /><path clip-path="url(#clip910)" d="M331.56 1453.68 L333.629 1440.68 L335.204 1440.68 Q335.389 1441.46 335.698 1441.79 Q336.038 1442.13 337.829 1442.41 Q339.651 1442.69 343.325 1442.69 L358.672 1442.69 Q358.672 1444.14 358.116 1444.91 L349.563 1456.93 Q346.845 1460.72 345.641 1467.73 Q344.931 1472.43 344.962 1478.11 L344.962 1481.32 Q344.962 1484.81 342.028 1484.81 Q339.126 1484.81 339.126 1481.32 Q339.126 1469.25 346.907 1457.54 Q347.741 1456.34 350.798 1452.05 Q353.886 1447.75 354.009 1447.57 L340.917 1447.57 Q335.173 1447.57 334.71 1447.94 Q334.092 1448.5 333.135 1453.68 L331.56 1453.68 Z" fill="#000000" fill-rule="nonzero" fill-opacity="1" /><path clip-path="url(#clip910)" d="M653.839 1466.71 Q654.21 1467.08 654.21 1467.61 Q654.21 1468.13 653.839 1468.51 Q653.468 1468.88 652.943 1468.88 L613.356 1468.88 Q612.831 1468.88 612.461 1468.51 Q612.09 1468.13 612.09 1467.61 Q612.09 1467.08 612.461 1466.71 Q612.831 1466.34 613.356 1466.34 L652.943 1466.34 Q653.468 1466.34 653.839 1466.71 Z" fill="#000000" fill-rule="nonzero" fill-opacity="1" /><path clip-path="url(#clip910)" d="M660.385 1463.44 Q660.385 1453.5 665.45 1447.41 Q670.514 1441.3 677.029 1441.3 Q680.827 1441.3 682.927 1443.25 Q685.058 1445.16 685.058 1448.12 Q685.058 1449.76 684.101 1450.47 Q683.143 1451.18 682.155 1451.18 Q681.013 1451.18 680.117 1450.41 Q679.222 1449.64 679.222 1448.25 Q679.222 1445.41 682.711 1445.41 Q681.074 1442.88 677.153 1442.88 Q675.948 1442.88 674.713 1443.25 Q673.478 1443.59 671.872 1444.76 Q670.267 1445.93 669.032 1447.79 Q667.796 1449.64 666.932 1453.13 Q666.067 1456.62 666.067 1461.16 L666.067 1462.67 Q668.661 1456.4 673.972 1456.43 Q679.283 1456.43 682.958 1460.48 Q686.633 1464.52 686.633 1470.51 Q686.633 1476.66 682.804 1480.73 Q678.975 1484.81 673.602 1484.81 Q671.193 1484.81 669.001 1483.79 Q666.839 1482.8 664.801 1480.52 Q662.794 1478.23 661.59 1473.85 Q660.385 1469.46 660.385 1463.44 M666.191 1469.12 Q666.191 1475.33 667.333 1478.29 Q667.518 1478.79 667.92 1479.47 Q668.352 1480.15 669.062 1481.04 Q669.804 1481.91 671.008 1482.49 Q672.212 1483.05 673.602 1483.05 Q677.832 1483.05 679.87 1478.94 Q680.951 1476.66 680.951 1470.45 Q680.951 1464.12 679.808 1461.8 Q677.863 1457.88 673.91 1457.88 Q671.255 1457.88 669.402 1459.7 Q667.58 1461.53 666.87 1463.97 Q666.191 1466.41 666.191 1469.12 Z" fill="#000000" fill-rule="nonzero" fill-opacity="1" /><path clip-path="url(#clip910)" d="M982.927 1466.71 Q983.297 1467.08 983.297 1467.61 Q983.297 1468.13 982.927 1468.51 Q982.556 1468.88 982.031 1468.88 L942.444 1468.88 Q941.919 1468.88 941.548 1468.51 Q941.178 1468.13 941.178 1467.61 Q941.178 1467.08 941.548 1466.71 Q941.919 1466.34 942.444 1466.34 L982.031 1466.34 Q982.556 1466.34 982.927 1466.71 Z" fill="#000000" fill-rule="nonzero" fill-opacity="1" /><path clip-path="url(#clip910)" d="M989.967 1473.23 Q989.967 1471.35 990.986 1470.64 Q992.005 1469.89 993.086 1469.89 Q994.537 1469.89 995.371 1470.82 Q996.236 1471.72 996.236 1472.98 Q996.236 1474.25 995.371 1475.18 Q994.537 1476.07 993.086 1476.07 Q992.376 1476.07 992.005 1475.95 Q992.839 1478.85 995.371 1480.95 Q997.934 1483.05 1001.3 1483.05 Q1005.53 1483.05 1008.06 1478.94 Q1009.58 1476.29 1009.58 1470.27 Q1009.58 1464.95 1008.43 1462.3 Q1006.67 1458.25 1003.06 1458.25 Q997.934 1458.25 994.908 1462.67 Q994.537 1463.22 994.105 1463.26 Q993.487 1463.26 993.333 1462.92 Q993.209 1462.55 993.209 1461.59 L993.209 1442.88 Q993.209 1441.36 993.827 1441.36 Q994.074 1441.36 994.599 1441.55 Q998.582 1443.31 1003 1443.34 Q1007.54 1443.34 1011.61 1441.49 Q1011.92 1441.3 1012.11 1441.3 Q1012.73 1441.3 1012.76 1442.01 Q1012.76 1442.26 1012.23 1443 Q1011.74 1443.71 1010.66 1444.67 Q1009.58 1445.59 1008.19 1446.49 Q1006.8 1447.38 1004.76 1448 Q1002.75 1448.59 1000.53 1448.59 Q997.872 1448.59 995.155 1447.75 L995.155 1460.08 Q998.428 1456.86 1003.18 1456.86 Q1008.25 1456.86 1011.74 1460.94 Q1015.23 1465.02 1015.23 1470.7 Q1015.23 1476.66 1011.09 1480.73 Q1006.98 1484.81 1001.42 1484.81 Q996.359 1484.81 993.148 1481.2 Q989.967 1477.58 989.967 1473.23 Z" fill="#000000" fill-rule="nonzero" fill-opacity="1" /><path clip-path="url(#clip910)" d="M1311.07 1466.71 Q1311.44 1467.08 1311.44 1467.61 Q1311.44 1468.13 1311.07 1468.51 Q1310.7 1468.88 1310.18 1468.88 L1270.59 1468.88 Q1270.06 1468.88 1269.69 1468.51 Q1269.32 1468.13 1269.32 1467.61 Q1269.32 1467.08 1269.69 1466.71 Q1270.06 1466.34 1270.59 1466.34 L1310.18 1466.34 Q1310.7 1466.34 1311.07 1466.71 Z" fill="#000000" fill-rule="nonzero" fill-opacity="1" /><path clip-path="url(#clip910)" d="M1316.72 1472.98 L1316.72 1471.04 L1336.15 1441.36 Q1336.64 1440.59 1337.41 1440.62 Q1338.12 1440.62 1338.28 1440.9 Q1338.43 1441.18 1338.43 1442.26 L1338.43 1471.04 L1344.76 1471.04 L1344.76 1472.98 L1338.43 1472.98 L1338.43 1478.48 Q1338.43 1480.3 1339.17 1480.89 Q1339.94 1481.47 1343.22 1481.47 L1344.55 1481.47 L1344.55 1483.42 Q1341.95 1483.23 1335.96 1483.23 Q1330 1483.23 1327.41 1483.42 L1327.41 1481.47 L1328.74 1481.47 Q1332.01 1481.47 1332.78 1480.92 Q1333.55 1480.33 1333.55 1478.48 L1333.55 1472.98 L1316.72 1472.98 M1318.51 1471.04 L1333.92 1471.04 L1333.92 1447.45 L1318.51 1471.04 Z" fill="#000000" fill-rule="nonzero" fill-opacity="1" /><path clip-path="url(#clip910)" d="M1640.36 1466.71 Q1640.73 1467.08 1640.73 1467.61 Q1640.73 1468.13 1640.36 1468.51 Q1639.99 1468.88 1639.47 1468.88 L1599.88 1468.88 Q1599.35 1468.88 1598.98 1468.51 Q1598.61 1468.13 1598.61 1467.61 Q1598.61 1467.08 1598.98 1466.71 Q1599.35 1466.34 1599.88 1466.34 L1639.47 1466.34 Q1639.99 1466.34 1640.36 1466.71 Z" fill="#000000" fill-rule="nonzero" fill-opacity="1" /><path clip-path="url(#clip910)" d="M1646.91 1474.9 Q1646.91 1473.01 1647.99 1472.12 Q1649.07 1471.22 1650.46 1471.22 Q1651.91 1471.22 1652.93 1472.18 Q1653.98 1473.11 1653.98 1474.74 Q1653.98 1476.5 1652.74 1477.49 Q1651.54 1478.48 1649.81 1478.23 Q1651.32 1480.76 1654.1 1481.91 Q1656.91 1483.05 1659.51 1483.05 Q1662.22 1483.05 1664.42 1480.7 Q1666.64 1478.36 1666.64 1472.61 Q1666.64 1467.73 1664.72 1464.92 Q1662.84 1462.11 1659.1 1462.11 L1656.33 1462.11 Q1655.37 1462.11 1655.09 1462.02 Q1654.81 1461.93 1654.81 1461.4 Q1654.81 1460.79 1655.77 1460.66 Q1656.73 1460.66 1658.24 1460.48 Q1661.91 1460.35 1663.86 1457.17 Q1665.62 1454.21 1665.62 1449.98 Q1665.62 1446.12 1663.77 1444.51 Q1661.95 1442.88 1659.57 1442.88 Q1657.34 1442.88 1654.9 1443.8 Q1652.47 1444.73 1651.14 1446.8 Q1655.06 1446.8 1655.06 1449.98 Q1655.06 1451.37 1654.16 1452.29 Q1653.3 1453.19 1651.85 1453.19 Q1650.46 1453.19 1649.53 1452.32 Q1648.61 1451.43 1648.61 1449.92 Q1648.61 1446.3 1651.82 1443.8 Q1655.06 1441.3 1659.81 1441.3 Q1664.51 1441.3 1667.97 1443.77 Q1671.46 1446.24 1671.46 1450.04 Q1671.46 1453.78 1668.99 1456.83 Q1666.52 1459.89 1662.59 1461.16 Q1667.41 1462.11 1670.28 1465.39 Q1673.15 1468.63 1673.15 1472.61 Q1673.15 1477.55 1669.26 1481.2 Q1665.37 1484.81 1659.69 1484.81 Q1654.44 1484.81 1650.67 1481.97 Q1646.91 1479.13 1646.91 1474.9 Z" fill="#000000" fill-rule="nonzero" fill-opacity="1" /><path clip-path="url(#clip910)" d="M1969.45 1466.71 Q1969.82 1467.08 1969.82 1467.61 Q1969.82 1468.13 1969.45 1468.51 Q1969.08 1468.88 1968.55 1468.88 L1928.97 1468.88 Q1928.44 1468.88 1928.07 1468.51 Q1927.7 1468.13 1927.7 1467.61 Q1927.7 1467.08 1928.07 1466.71 Q1928.44 1466.34 1928.97 1466.34 L1968.55 1466.34 Q1969.08 1466.34 1969.45 1466.71 Z" fill="#000000" fill-rule="nonzero" fill-opacity="1" /><path clip-path="url(#clip910)" d="M1976.49 1483.42 Q1976.49 1482.28 1976.58 1481.94 Q1976.71 1481.6 1977.2 1481.07 L1989.33 1467.55 Q1995.97 1460.08 1995.97 1453.56 Q1995.97 1449.33 1993.75 1446.3 Q1991.56 1443.28 1987.51 1443.28 Q1984.73 1443.28 1982.39 1444.98 Q1980.04 1446.67 1978.96 1449.7 Q1979.14 1449.64 1979.79 1449.64 Q1981.37 1449.64 1982.23 1450.63 Q1983.13 1451.61 1983.13 1452.94 Q1983.13 1454.64 1982.02 1455.47 Q1980.94 1456.28 1979.85 1456.28 Q1979.42 1456.28 1978.84 1456.18 Q1978.28 1456.09 1977.38 1455.23 Q1976.49 1454.33 1976.49 1452.76 Q1976.49 1448.34 1979.82 1444.82 Q1983.19 1441.3 1988.32 1441.3 Q1994.12 1441.3 1997.92 1444.76 Q2001.75 1448.19 2001.75 1453.56 Q2001.75 1455.44 2001.16 1457.17 Q2000.61 1458.87 1999.83 1460.2 Q1999.09 1461.53 1997.05 1463.66 Q1995.02 1465.79 1993.38 1467.3 Q1991.74 1468.81 1988.07 1472.03 L1981.37 1478.54 L1992.76 1478.54 Q1998.32 1478.54 1998.75 1478.05 Q1999.37 1477.15 2000.14 1472.43 L2001.75 1472.43 L1999.96 1483.42 L1976.49 1483.42 Z" fill="#000000" fill-rule="nonzero" fill-opacity="1" /><path clip-path="url(#clip910)" d="M2299.25 1466.71 Q2299.62 1467.08 2299.62 1467.61 Q2299.62 1468.13 2299.25 1468.51 Q2298.88 1468.88 2298.35 1468.88 L2258.76 1468.88 Q2258.24 1468.88 2257.87 1468.51 Q2257.5 1468.13 2257.5 1467.61 Q2257.5 1467.08 2257.87 1466.71 Q2258.24 1466.34 2258.76 1466.34 L2298.35 1466.34 Q2298.88 1466.34 2299.25 1466.71 Z" fill="#000000" fill-rule="nonzero" fill-opacity="1" /><path clip-path="url(#clip910)" d="M2308.76 1447.32 L2308.76 1445.35 Q2316.35 1445.35 2320.28 1441.3 Q2321.36 1441.3 2321.54 1441.55 Q2321.73 1441.79 2321.73 1442.94 L2321.73 1478.42 Q2321.73 1480.3 2322.65 1480.89 Q2323.58 1481.47 2327.62 1481.47 L2329.63 1481.47 L2329.63 1483.42 Q2327.41 1483.23 2319.38 1483.23 Q2311.35 1483.23 2309.16 1483.42 L2309.16 1481.47 L2311.17 1481.47 Q2315.15 1481.47 2316.11 1480.92 Q2317.06 1480.33 2317.06 1478.42 L2317.06 1445.65 Q2313.76 1447.32 2308.76 1447.32 Z" fill="#000000" fill-rule="nonzero" fill-opacity="1" /><path clip-path="url(#clip910)" d="M1332.57 1517.34 Q1332.57 1518.78 1331.38 1518.78 Q1329.27 1518.85 1327.83 1519.27 Q1326.39 1519.66 1325.55 1520.43 Q1324.74 1521.21 1324.28 1522.05 Q1323.86 1522.86 1323.58 1524.09 L1317.19 1549.63 Q1315.36 1556.83 1309.46 1562.07 Q1303.55 1567.27 1296.84 1567.27 Q1293.01 1567.27 1289.82 1565.69 Q1286.65 1564.11 1284.69 1560.91 Q1282.72 1557.71 1282.72 1553.46 Q1282.72 1551.42 1283.25 1549.28 L1287.6 1531.5 L1289.22 1525.18 Q1290.41 1520.5 1290.41 1520.08 Q1290.41 1519.42 1289.99 1519.24 Q1289.61 1519.03 1288.48 1518.92 L1285.74 1518.78 Q1284.9 1518.78 1284.55 1518.75 Q1284.23 1518.71 1283.98 1518.54 Q1283.74 1518.36 1283.74 1517.97 Q1283.74 1517.48 1283.84 1517.17 Q1283.98 1516.82 1284.23 1516.71 Q1284.48 1516.6 1284.65 1516.57 Q1284.83 1516.53 1285.11 1516.53 L1294.38 1516.75 L1303.59 1516.53 Q1304.61 1516.53 1304.61 1517.34 Q1304.61 1518.36 1304.15 1518.57 Q1303.69 1518.78 1302.15 1518.78 Q1299.51 1518.78 1298.32 1519.13 Q1297.16 1519.45 1296.81 1520.01 Q1296.49 1520.54 1296.11 1522.09 L1289.11 1550.09 Q1288.76 1551.49 1288.55 1552.9 Q1288.38 1554.27 1288.38 1554.97 L1288.34 1555.67 Q1288.34 1560.14 1290.8 1562.59 Q1293.29 1565.05 1297.12 1565.05 Q1302.75 1565.05 1307.98 1560.59 Q1313.25 1556.13 1315.04 1549.14 L1321.51 1523.46 Q1321.72 1522.82 1321.72 1521.94 Q1321.72 1520.54 1320.66 1519.7 Q1319.64 1518.82 1316.83 1518.78 Q1315.53 1518.78 1315.53 1517.97 Q1315.53 1517.31 1315.78 1516.99 Q1316.06 1516.64 1316.27 1516.6 Q1316.52 1516.53 1316.83 1516.53 Q1318.03 1516.53 1320.56 1516.64 Q1323.09 1516.75 1324.32 1516.75 Q1325.55 1516.75 1328.01 1516.64 Q1330.47 1516.53 1331.66 1516.53 Q1332.08 1516.53 1332.29 1516.75 Q1332.54 1516.92 1332.57 1517.13 L1332.57 1517.34 Z" fill="#000000" fill-rule="nonzero" fill-opacity="1" /><polyline clip-path="url(#clip910)" style="stroke:#000000; stroke-linecap:round; stroke-linejoin:round; stroke-width:4; stroke-opacity:1; fill:none" points="261.33,1410.22 261.33,47.2441 "/>
<polyline clip-path="url(#clip910)" style="stroke:#000000; stroke-linecap:round; stroke-linejoin:round; stroke-width:4; stroke-opacity:1; fill:none" points="2352.76,1410.22 2352.76,47.2441 "/>
<polyline clip-path="url(#clip910)" style="stroke:#000000; stroke-linecap:round; stroke-linejoin:round; stroke-width:4; stroke-opacity:1; fill:none" points="261.33,1267.95 280.227,1267.95 "/>
<polyline clip-path="url(#clip910)" style="stroke:#000000; stroke-linecap:round; stroke-linejoin:round; stroke-width:4; stroke-opacity:1; fill:none" points="261.33,1000.71 280.227,1000.71 "/>
<polyline clip-path="url(#clip910)" style="stroke:#000000; stroke-linecap:round; stroke-linejoin:round; stroke-width:4; stroke-opacity:1; fill:none" points="261.33,733.469 280.227,733.469 "/>
<polyline clip-path="url(#clip910)" style="stroke:#000000; stroke-linecap:round; stroke-linejoin:round; stroke-width:4; stroke-opacity:1; fill:none" points="261.33,466.227 280.227,466.227 "/>
<polyline clip-path="url(#clip910)" style="stroke:#000000; stroke-linecap:round; stroke-linejoin:round; stroke-width:4; stroke-opacity:1; fill:none" points="261.33,198.984 280.227,198.984 "/>
<path clip-path="url(#clip910)" d="M121.05 1253.46 L121.05 1251.48 Q128.647 1251.48 132.568 1247.44 Q133.649 1247.44 133.834 1247.68 Q134.02 1247.93 134.02 1249.07 L134.02 1284.55 Q134.02 1286.44 134.946 1287.02 Q135.873 1287.61 139.918 1287.61 L141.925 1287.61 L141.925 1289.55 Q139.702 1289.37 131.673 1289.37 Q123.644 1289.37 121.452 1289.55 L121.452 1287.61 L123.459 1287.61 Q127.442 1287.61 128.4 1287.05 Q129.357 1286.47 129.357 1284.55 L129.357 1251.79 Q126.053 1253.46 121.05 1253.46 Z" fill="#000000" fill-rule="nonzero" fill-opacity="1" /><path clip-path="url(#clip910)" d="M153.381 1288.54 Q152.424 1287.52 152.424 1286.19 Q152.424 1284.86 153.381 1283.9 Q154.338 1282.92 155.79 1282.92 Q157.179 1282.92 158.106 1283.84 Q159.063 1284.74 159.063 1286.22 Q159.063 1287.67 158.044 1288.63 Q157.056 1289.55 155.79 1289.55 Q154.338 1289.55 153.381 1288.54 Z" fill="#000000" fill-rule="nonzero" fill-opacity="1" /><path clip-path="url(#clip910)" d="M167.091 1269.33 Q167.091 1260.03 169.438 1254.97 Q172.711 1247.44 180.431 1247.44 Q182.068 1247.44 183.766 1247.9 Q185.495 1248.33 187.657 1250.03 Q189.849 1251.73 191.177 1254.51 Q193.709 1259.88 193.709 1269.33 Q193.709 1278.56 191.362 1283.6 Q187.935 1290.94 180.369 1290.94 Q177.529 1290.94 174.626 1289.49 Q171.754 1288.04 169.932 1284.55 Q167.091 1279.33 167.091 1269.33 M172.341 1268.56 Q172.341 1278.1 173.02 1281.9 Q173.792 1286 175.892 1287.79 Q178.023 1289.55 180.369 1289.55 Q182.902 1289.55 185.001 1287.67 Q187.132 1285.76 187.78 1281.65 Q188.491 1277.6 188.46 1268.56 Q188.46 1259.76 187.842 1256.24 Q187.008 1252.13 184.785 1250.49 Q182.593 1248.83 180.369 1248.83 Q179.536 1248.83 178.64 1249.07 Q177.776 1249.32 176.51 1250.03 Q175.243 1250.74 174.255 1252.5 Q173.298 1254.26 172.835 1256.92 Q172.341 1260.34 172.341 1268.56 Z" fill="#000000" fill-rule="nonzero" fill-opacity="1" /><path clip-path="url(#clip910)" d="M198.712 1269.33 Q198.712 1260.03 201.058 1254.97 Q204.332 1247.44 212.051 1247.44 Q213.688 1247.44 215.386 1247.9 Q217.116 1248.33 219.277 1250.03 Q221.47 1251.73 222.797 1254.51 Q225.33 1259.88 225.33 1269.33 Q225.33 1278.56 222.983 1283.6 Q219.555 1290.94 211.99 1290.94 Q209.149 1290.94 206.246 1289.49 Q203.374 1288.04 201.553 1284.55 Q198.712 1279.33 198.712 1269.33 M203.961 1268.56 Q203.961 1278.1 204.64 1281.9 Q205.412 1286 207.512 1287.79 Q209.643 1289.55 211.99 1289.55 Q214.522 1289.55 216.622 1287.67 Q218.752 1285.76 219.401 1281.65 Q220.111 1277.6 220.08 1268.56 Q220.08 1259.76 219.463 1256.24 Q218.629 1252.13 216.405 1250.49 Q214.213 1248.83 211.99 1248.83 Q211.156 1248.83 210.261 1249.07 Q209.396 1249.32 208.13 1250.03 Q206.864 1250.74 205.876 1252.5 Q204.918 1254.26 204.455 1256.92 Q203.961 1260.34 203.961 1268.56 Z" fill="#000000" fill-rule="nonzero" fill-opacity="1" /><path clip-path="url(#clip910)" d="M121.73 986.214 L121.73 984.238 Q129.326 984.238 133.248 980.193 Q134.329 980.193 134.514 980.44 Q134.699 980.687 134.699 981.83 L134.699 1017.31 Q134.699 1019.19 135.625 1019.78 Q136.552 1020.37 140.597 1020.37 L142.604 1020.37 L142.604 1022.31 Q140.381 1022.13 132.352 1022.13 Q124.324 1022.13 122.131 1022.31 L122.131 1020.37 L124.138 1020.37 Q128.122 1020.37 129.079 1019.81 Q130.036 1019.22 130.036 1017.31 L130.036 984.547 Q126.732 986.214 121.73 986.214 Z" fill="#000000" fill-rule="nonzero" fill-opacity="1" /><path clip-path="url(#clip910)" d="M154.06 1021.29 Q153.103 1020.27 153.103 1018.95 Q153.103 1017.62 154.06 1016.66 Q155.018 1015.67 156.469 1015.67 Q157.858 1015.67 158.785 1016.6 Q159.742 1017.49 159.742 1018.98 Q159.742 1020.43 158.723 1021.39 Q157.735 1022.31 156.469 1022.31 Q155.018 1022.31 154.06 1021.29 Z" fill="#000000" fill-rule="nonzero" fill-opacity="1" /><path clip-path="url(#clip910)" d="M168.45 1022.31 Q168.45 1021.17 168.543 1020.83 Q168.666 1020.49 169.16 1019.97 L181.296 1006.44 Q187.935 998.967 187.935 992.452 Q187.935 988.222 185.712 985.195 Q183.519 982.169 179.474 982.169 Q176.695 982.169 174.348 983.868 Q172.001 985.566 170.92 988.592 Q171.106 988.53 171.754 988.53 Q173.329 988.53 174.194 989.518 Q175.089 990.507 175.089 991.834 Q175.089 993.533 173.977 994.366 Q172.897 995.169 171.816 995.169 Q171.384 995.169 170.797 995.077 Q170.241 994.984 169.346 994.119 Q168.45 993.224 168.45 991.649 Q168.45 987.233 171.785 983.713 Q175.151 980.193 180.277 980.193 Q186.082 980.193 189.88 983.651 Q193.709 987.079 193.709 992.452 Q193.709 994.336 193.123 996.065 Q192.567 997.763 191.795 999.091 Q191.054 1000.42 189.016 1002.55 Q186.978 1004.68 185.341 1006.19 Q183.704 1007.71 180.03 1010.92 L173.329 1017.43 L184.723 1017.43 Q190.282 1017.43 190.714 1016.94 Q191.332 1016.04 192.104 1011.32 L193.709 1011.32 L191.918 1022.31 L168.45 1022.31 Z" fill="#000000" fill-rule="nonzero" fill-opacity="1" /><path clip-path="url(#clip910)" d="M200.07 1012.12 Q200.07 1010.24 201.089 1009.53 Q202.108 1008.79 203.189 1008.79 Q204.64 1008.79 205.474 1009.71 Q206.339 1010.61 206.339 1011.87 Q206.339 1013.14 205.474 1014.07 Q204.64 1014.96 203.189 1014.96 Q202.479 1014.96 202.108 1014.84 Q202.942 1017.74 205.474 1019.84 Q208.037 1021.94 211.403 1021.94 Q215.633 1021.94 218.166 1017.83 Q219.679 1015.18 219.679 1009.16 Q219.679 1003.85 218.536 1001.19 Q216.776 997.146 213.163 997.146 Q208.037 997.146 205.011 1001.56 Q204.64 1002.12 204.208 1002.15 Q203.591 1002.15 203.436 1001.81 Q203.313 1001.44 203.313 1000.48 L203.313 981.768 Q203.313 980.255 203.93 980.255 Q204.177 980.255 204.702 980.44 Q208.686 982.2 213.101 982.231 Q217.641 982.231 221.717 980.378 Q222.025 980.193 222.211 980.193 Q222.828 980.193 222.859 980.903 Q222.859 981.15 222.334 981.891 Q221.84 982.601 220.759 983.559 Q219.679 984.485 218.289 985.381 Q216.9 986.276 214.862 986.894 Q212.854 987.48 210.631 987.48 Q207.975 987.48 205.258 986.647 L205.258 998.967 Q208.531 995.756 213.287 995.756 Q218.351 995.756 221.84 999.832 Q225.33 1003.91 225.33 1009.59 Q225.33 1015.55 221.192 1019.63 Q217.085 1023.7 211.527 1023.7 Q206.462 1023.7 203.251 1020.09 Q200.07 1016.48 200.07 1012.12 Z" fill="#000000" fill-rule="nonzero" fill-opacity="1" /><path clip-path="url(#clip910)" d="M121.05 718.972 L121.05 716.995 Q128.647 716.995 132.568 712.95 Q133.649 712.95 133.834 713.197 Q134.02 713.444 134.02 714.587 L134.02 750.067 Q134.02 751.951 134.946 752.537 Q135.873 753.124 139.918 753.124 L141.925 753.124 L141.925 755.069 Q139.702 754.884 131.673 754.884 Q123.644 754.884 121.452 755.069 L121.452 753.124 L123.459 753.124 Q127.442 753.124 128.4 752.568 Q129.357 751.982 129.357 750.067 L129.357 717.304 Q126.053 718.972 121.05 718.972 Z" fill="#000000" fill-rule="nonzero" fill-opacity="1" /><path clip-path="url(#clip910)" d="M153.381 754.05 Q152.424 753.031 152.424 751.704 Q152.424 750.376 153.381 749.419 Q154.338 748.43 155.79 748.43 Q157.179 748.43 158.106 749.357 Q159.063 750.252 159.063 751.735 Q159.063 753.186 158.044 754.143 Q157.056 755.069 155.79 755.069 Q154.338 755.069 153.381 754.05 Z" fill="#000000" fill-rule="nonzero" fill-opacity="1" /><path clip-path="url(#clip910)" d="M167.771 744.879 Q167.771 742.996 168.79 742.285 Q169.809 741.544 170.89 741.544 Q172.341 741.544 173.175 742.471 Q174.039 743.366 174.039 744.632 Q174.039 745.898 173.175 746.825 Q172.341 747.72 170.89 747.72 Q170.179 747.72 169.809 747.597 Q170.642 750.499 173.175 752.599 Q175.738 754.699 179.103 754.699 Q183.334 754.699 185.866 750.592 Q187.379 747.936 187.379 741.915 Q187.379 736.604 186.236 733.948 Q184.476 729.903 180.864 729.903 Q175.738 729.903 172.711 734.319 Q172.341 734.874 171.909 734.905 Q171.291 734.905 171.137 734.566 Q171.013 734.195 171.013 733.238 L171.013 714.525 Q171.013 713.012 171.631 713.012 Q171.878 713.012 172.403 713.197 Q176.386 714.957 180.802 714.988 Q185.341 714.988 189.417 713.136 Q189.726 712.95 189.911 712.95 Q190.529 712.95 190.56 713.66 Q190.56 713.907 190.035 714.649 Q189.541 715.359 188.46 716.316 Q187.379 717.242 185.989 718.138 Q184.6 719.033 182.562 719.651 Q180.555 720.238 178.331 720.238 Q175.676 720.238 172.958 719.404 L172.958 731.725 Q176.232 728.513 180.987 728.513 Q186.051 728.513 189.541 732.589 Q193.03 736.665 193.03 742.347 Q193.03 748.307 188.892 752.383 Q184.785 756.459 179.227 756.459 Q174.163 756.459 170.951 752.846 Q167.771 749.233 167.771 744.879 Z" fill="#000000" fill-rule="nonzero" fill-opacity="1" /><path clip-path="url(#clip910)" d="M198.712 734.844 Q198.712 725.549 201.058 720.485 Q204.332 712.95 212.051 712.95 Q213.688 712.95 215.386 713.413 Q217.116 713.846 219.277 715.544 Q221.47 717.242 222.797 720.022 Q225.33 725.395 225.33 734.844 Q225.33 744.076 222.983 749.11 Q219.555 756.459 211.99 756.459 Q209.149 756.459 206.246 755.008 Q203.374 753.556 201.553 750.067 Q198.712 744.848 198.712 734.844 M203.961 734.072 Q203.961 743.613 204.64 747.411 Q205.412 751.518 207.512 753.309 Q209.643 755.069 211.99 755.069 Q214.522 755.069 216.622 753.186 Q218.752 751.271 219.401 747.164 Q220.111 743.119 220.08 734.072 Q220.08 725.271 219.463 721.751 Q218.629 717.644 216.405 716.007 Q214.213 714.34 211.99 714.34 Q211.156 714.34 210.261 714.587 Q209.396 714.834 208.13 715.544 Q206.864 716.254 205.876 718.014 Q204.918 719.775 204.455 722.43 Q203.961 725.858 203.961 734.072 Z" fill="#000000" fill-rule="nonzero" fill-opacity="1" /><path clip-path="url(#clip910)" d="M121.73 451.729 L121.73 449.753 Q129.326 449.753 133.248 445.708 Q134.329 445.708 134.514 445.955 Q134.699 446.202 134.699 447.344 L134.699 482.824 Q134.699 484.708 135.625 485.295 Q136.552 485.881 140.597 485.881 L142.604 485.881 L142.604 487.827 Q140.381 487.642 132.352 487.642 Q124.324 487.642 122.131 487.827 L122.131 485.881 L124.138 485.881 Q128.122 485.881 129.079 485.326 Q130.036 484.739 130.036 482.824 L130.036 450.062 Q126.732 451.729 121.73 451.729 Z" fill="#000000" fill-rule="nonzero" fill-opacity="1" /><path clip-path="url(#clip910)" d="M154.06 486.808 Q153.103 485.789 153.103 484.461 Q153.103 483.133 154.06 482.176 Q155.018 481.188 156.469 481.188 Q157.858 481.188 158.785 482.114 Q159.742 483.01 159.742 484.492 Q159.742 485.943 158.723 486.9 Q157.735 487.827 156.469 487.827 Q155.018 487.827 154.06 486.808 Z" fill="#000000" fill-rule="nonzero" fill-opacity="1" /><path clip-path="url(#clip910)" d="M168.851 458.09 L170.92 445.09 L172.495 445.09 Q172.681 445.862 172.989 446.202 Q173.329 446.541 175.12 446.819 Q176.942 447.097 180.616 447.097 L195.963 447.097 Q195.963 448.548 195.408 449.32 L186.854 461.332 Q184.137 465.131 182.932 472.14 Q182.222 476.834 182.253 482.516 L182.253 485.727 Q182.253 489.216 179.32 489.216 Q176.417 489.216 176.417 485.727 Q176.417 473.653 184.198 461.95 Q185.032 460.746 188.089 456.454 Q191.177 452.161 191.301 451.976 L178.208 451.976 Q172.464 451.976 172.001 452.347 Q171.384 452.902 170.426 458.09 L168.851 458.09 Z" fill="#000000" fill-rule="nonzero" fill-opacity="1" /><path clip-path="url(#clip910)" d="M200.07 477.637 Q200.07 475.753 201.089 475.043 Q202.108 474.302 203.189 474.302 Q204.64 474.302 205.474 475.228 Q206.339 476.124 206.339 477.39 Q206.339 478.656 205.474 479.582 Q204.64 480.478 203.189 480.478 Q202.479 480.478 202.108 480.354 Q202.942 483.257 205.474 485.356 Q208.037 487.456 211.403 487.456 Q215.633 487.456 218.166 483.349 Q219.679 480.694 219.679 474.672 Q219.679 469.361 218.536 466.705 Q216.776 462.66 213.163 462.66 Q208.037 462.66 205.011 467.076 Q204.64 467.632 204.208 467.663 Q203.591 467.663 203.436 467.323 Q203.313 466.952 203.313 465.995 L203.313 447.282 Q203.313 445.769 203.93 445.769 Q204.177 445.769 204.702 445.955 Q208.686 447.715 213.101 447.746 Q217.641 447.746 221.717 445.893 Q222.025 445.708 222.211 445.708 Q222.828 445.708 222.859 446.418 Q222.859 446.665 222.334 447.406 Q221.84 448.116 220.759 449.073 Q219.679 450 218.289 450.895 Q216.9 451.791 214.862 452.408 Q212.854 452.995 210.631 452.995 Q207.975 452.995 205.258 452.161 L205.258 464.482 Q208.531 461.271 213.287 461.271 Q218.351 461.271 221.84 465.347 Q225.33 469.423 225.33 475.105 Q225.33 481.064 221.192 485.14 Q217.085 489.216 211.527 489.216 Q206.462 489.216 203.251 485.603 Q200.07 481.991 200.07 477.637 Z" fill="#000000" fill-rule="nonzero" fill-opacity="1" /><path clip-path="url(#clip910)" d="M118.58 220.584 Q118.58 219.442 118.673 219.102 Q118.796 218.762 119.29 218.237 L131.426 204.712 Q138.065 197.239 138.065 190.724 Q138.065 186.493 135.842 183.467 Q133.649 180.441 129.604 180.441 Q126.825 180.441 124.478 182.139 Q122.131 183.838 121.05 186.864 Q121.236 186.802 121.884 186.802 Q123.459 186.802 124.324 187.79 Q125.219 188.779 125.219 190.106 Q125.219 191.805 124.108 192.638 Q123.027 193.441 121.946 193.441 Q121.514 193.441 120.927 193.349 Q120.371 193.256 119.476 192.391 Q118.58 191.496 118.58 189.921 Q118.58 185.505 121.915 181.985 Q125.281 178.465 130.407 178.465 Q136.212 178.465 140.01 181.923 Q143.839 185.351 143.839 190.724 Q143.839 192.608 143.253 194.337 Q142.697 196.035 141.925 197.363 Q141.184 198.691 139.146 200.821 Q137.108 202.952 135.471 204.465 Q133.834 205.978 130.16 209.19 L123.459 215.705 L134.853 215.705 Q140.412 215.705 140.844 215.211 Q141.462 214.316 142.234 209.591 L143.839 209.591 L142.048 220.584 L118.58 220.584 Z" fill="#000000" fill-rule="nonzero" fill-opacity="1" /><path clip-path="url(#clip910)" d="M153.381 219.565 Q152.424 218.546 152.424 217.218 Q152.424 215.89 153.381 214.933 Q154.338 213.945 155.79 213.945 Q157.179 213.945 158.106 214.871 Q159.063 215.767 159.063 217.249 Q159.063 218.7 158.044 219.658 Q157.056 220.584 155.79 220.584 Q154.338 220.584 153.381 219.565 Z" fill="#000000" fill-rule="nonzero" fill-opacity="1" /><path clip-path="url(#clip910)" d="M167.091 200.358 Q167.091 191.064 169.438 185.999 Q172.711 178.465 180.431 178.465 Q182.068 178.465 183.766 178.928 Q185.495 179.36 187.657 181.059 Q189.849 182.757 191.177 185.536 Q193.709 190.909 193.709 200.358 Q193.709 209.591 191.362 214.624 Q187.935 221.974 180.369 221.974 Q177.529 221.974 174.626 220.522 Q171.754 219.071 169.932 215.582 Q167.091 210.363 167.091 200.358 M172.341 199.586 Q172.341 209.128 173.02 212.926 Q173.792 217.033 175.892 218.824 Q178.023 220.584 180.369 220.584 Q182.902 220.584 185.001 218.7 Q187.132 216.786 187.78 212.679 Q188.491 208.634 188.46 199.586 Q188.46 190.786 187.842 187.265 Q187.008 183.158 184.785 181.522 Q182.593 179.854 180.369 179.854 Q179.536 179.854 178.64 180.101 Q177.776 180.348 176.51 181.059 Q175.243 181.769 174.255 183.529 Q173.298 185.289 172.835 187.945 Q172.341 191.372 172.341 199.586 Z" fill="#000000" fill-rule="nonzero" fill-opacity="1" /><path clip-path="url(#clip910)" d="M198.712 200.358 Q198.712 191.064 201.058 185.999 Q204.332 178.465 212.051 178.465 Q213.688 178.465 215.386 178.928 Q217.116 179.36 219.277 181.059 Q221.47 182.757 222.797 185.536 Q225.33 190.909 225.33 200.358 Q225.33 209.591 222.983 214.624 Q219.555 221.974 211.99 221.974 Q209.149 221.974 206.246 220.522 Q203.374 219.071 201.553 215.582 Q198.712 210.363 198.712 200.358 M203.961 199.586 Q203.961 209.128 204.64 212.926 Q205.412 217.033 207.512 218.824 Q209.643 220.584 211.99 220.584 Q214.522 220.584 216.622 218.7 Q218.752 216.786 219.401 212.679 Q220.111 208.634 220.08 199.586 Q220.08 190.786 219.463 187.265 Q218.629 183.158 216.405 181.522 Q214.213 179.854 211.99 179.854 Q211.156 179.854 210.261 180.101 Q209.396 180.348 208.13 181.059 Q206.864 181.769 205.876 183.529 Q204.918 185.289 204.455 187.945 Q203.961 191.372 203.961 199.586 Z" fill="#000000" fill-rule="nonzero" fill-opacity="1" /><path clip-path="url(#clip910)" d="M17.5075 718.305 Q18.5264 718.305 18.7372 718.762 Q18.948 719.184 18.948 720.729 Q18.948 723.364 19.2994 724.559 Q19.6156 725.718 20.1777 726.07 Q20.7047 726.386 22.2506 726.772 L61.1084 736.504 Q61.1436 736.504 61.6354 736.61 Q62.0922 736.715 62.3381 736.715 Q62.7948 736.715 63.0759 736.434 Q63.357 736.118 63.4975 735.345 Q63.6029 734.572 63.638 733.975 Q63.638 733.342 63.638 732.042 Q63.638 730.426 63.9191 730.18 Q64.0948 730.04 64.411 730.04 Q65.0785 730.04 65.4299 730.321 Q65.7461 730.567 65.8163 730.813 Q65.8515 731.024 65.8515 731.445 Q65.8515 732.183 65.7812 733.764 Q65.7109 735.345 65.7109 736.153 L65.6407 740.756 L65.8515 749.89 Q65.8515 750.874 65.0434 750.874 Q64.3407 750.874 64.0245 750.628 Q63.7083 750.382 63.6732 750.136 Q63.638 749.855 63.638 749.153 Q63.638 745.534 63.2867 744.339 Q62.9002 743.11 61.249 742.618 L41.3984 737.664 L41.3984 759.587 L61.1084 764.506 Q61.1436 764.506 61.6354 764.611 Q62.0922 764.717 62.3381 764.717 Q62.7948 764.717 63.0759 764.436 Q63.357 764.12 63.4975 763.347 Q63.6029 762.574 63.638 761.976 Q63.638 761.344 63.638 760.044 Q63.638 758.428 63.9191 758.147 Q64.0948 758.006 64.411 758.006 Q64.9029 758.006 65.2542 758.147 Q65.5704 758.252 65.6758 758.533 Q65.7812 758.779 65.8163 758.955 Q65.8515 759.131 65.8515 759.447 Q65.8515 760.185 65.7812 761.766 Q65.7109 763.311 65.7109 764.12 L65.6407 768.722 L65.8515 777.857 Q65.8515 778.876 65.0434 778.876 Q64.3407 778.876 64.0597 778.63 Q63.7434 778.384 63.7083 778.068 Q63.638 777.751 63.638 776.943 Q63.638 775.187 63.5326 774.133 Q63.4272 773.079 63.2867 772.411 Q63.111 771.708 62.6192 771.357 Q62.1273 770.971 61.7057 770.795 Q61.249 770.619 60.2301 770.373 L21.583 760.747 Q20.4236 760.466 20.248 760.466 Q19.5804 760.466 19.4048 760.887 Q19.194 761.274 19.0886 762.398 L18.948 765.138 Q18.948 765.982 18.9129 766.333 Q18.8778 766.649 18.7021 766.895 Q18.5264 767.141 18.14 767.141 Q17.6481 767.141 17.3319 767.036 Q16.9805 766.895 16.8751 766.649 Q16.7697 766.403 16.7346 766.228 Q16.6995 766.052 16.6995 765.771 L16.9103 756.495 L16.6995 747.29 Q16.6995 746.272 17.5075 746.272 Q18.5264 746.272 18.7372 746.728 Q18.948 747.185 18.948 748.731 Q18.948 751.296 19.2994 752.49 Q19.6156 753.685 20.1777 754.071 Q20.7398 754.423 22.2506 754.774 L39.1499 759.025 L39.1499 737.067 L21.583 732.745 Q20.3182 732.464 20.248 732.464 Q19.5804 732.464 19.4048 732.886 Q19.194 733.272 19.0886 734.396 L18.948 737.137 Q18.948 737.98 18.9129 738.331 Q18.8778 738.648 18.7021 738.929 Q18.5264 739.175 18.14 739.175 Q17.6481 739.175 17.3319 739.069 Q16.9805 738.929 16.8751 738.683 Q16.7697 738.437 16.7346 738.261 Q16.6995 738.085 16.6995 737.804 L16.9103 728.529 L16.6995 719.289 Q16.6995 718.305 17.5075 718.305 Z" fill="#000000" fill-rule="nonzero" fill-opacity="1" /><path clip-path="url(#clip910)" d="M57.0385 711.211 L55.4645 711.211 Q55.4645 705.161 52.2427 702.038 Q52.2427 701.177 52.4395 701.03 Q52.6362 700.882 53.5462 700.882 L81.8042 700.882 Q83.3044 700.882 83.7717 700.144 Q84.239 699.406 84.239 696.185 L84.239 694.586 L85.7883 694.586 Q85.6408 696.357 85.6408 702.751 Q85.6408 709.145 85.7883 710.892 L84.239 710.892 L84.239 709.293 Q84.239 706.12 83.7963 705.358 Q83.329 704.596 81.8042 704.596 L55.7104 704.596 Q57.0385 707.227 57.0385 711.211 Z" fill="#000000" fill-rule="nonzero" fill-opacity="1" /><polyline clip-path="url(#clip912)" style="stroke:#009af9; stroke-linecap:round; stroke-linejoin:round; stroke-width:4; stroke-opacity:1; fill:none" points="2293.56,242.501 1964.72,363.251 1307.04,579.463 978.202,786.873 649.361,857.695 320.521,1200.25 "/>
<path clip-path="url(#clip912)" d="M2277.56 226.501 L2277.56 258.501 L2309.56 258.501 L2309.56 226.501 L2277.56 226.501 Z" fill="#009af9" fill-rule="evenodd" fill-opacity="1" stroke="#000000" stroke-opacity="1" stroke-width="3.2"/>
<path clip-path="url(#clip912)" d="M1948.72 347.251 L1948.72 379.251 L1980.72 379.251 L1980.72 347.251 L1948.72 347.251 Z" fill="#009af9" fill-rule="evenodd" fill-opacity="1" stroke="#000000" stroke-opacity="1" stroke-width="3.2"/>
<path clip-path="url(#clip912)" d="M1291.04 563.463 L1291.04 595.463 L1323.04 595.463 L1323.04 563.463 L1291.04 563.463 Z" fill="#009af9" fill-rule="evenodd" fill-opacity="1" stroke="#000000" stroke-opacity="1" stroke-width="3.2"/>
<path clip-path="url(#clip912)" d="M962.202 770.873 L962.202 802.873 L994.202 802.873 L994.202 770.873 L962.202 770.873 Z" fill="#009af9" fill-rule="evenodd" fill-opacity="1" stroke="#000000" stroke-opacity="1" stroke-width="3.2"/>
<path clip-path="url(#clip912)" d="M633.361 841.695 L633.361 873.695 L665.361 873.695 L665.361 841.695 L633.361 841.695 Z" fill="#009af9" fill-rule="evenodd" fill-opacity="1" stroke="#000000" stroke-opacity="1" stroke-width="3.2"/>
<path clip-path="url(#clip912)" d="M304.521 1184.25 L304.521 1216.25 L336.521 1216.25 L336.521 1184.25 L304.521 1184.25 Z" fill="#009af9" fill-rule="evenodd" fill-opacity="1" stroke="#000000" stroke-opacity="1" stroke-width="3.2"/>
<polyline clip-path="url(#clip912)" style="stroke:#000000; stroke-linecap:round; stroke-linejoin:round; stroke-width:4; stroke-opacity:1; fill:none" points="2293.56,244.971 2293.56,240.031 "/>
<polyline clip-path="url(#clip912)" style="stroke:#000000; stroke-linecap:round; stroke-linejoin:round; stroke-width:4; stroke-opacity:1; fill:none" points="1964.72,369.395 1964.72,357.107 "/>
<polyline clip-path="url(#clip912)" style="stroke:#000000; stroke-linecap:round; stroke-linejoin:round; stroke-width:4; stroke-opacity:1; fill:none" points="1307.04,590.964 1307.04,567.961 "/>
<polyline clip-path="url(#clip912)" style="stroke:#000000; stroke-linecap:round; stroke-linejoin:round; stroke-width:4; stroke-opacity:1; fill:none" points="978.202,843.947 978.202,729.799 "/>
<polyline clip-path="url(#clip912)" style="stroke:#000000; stroke-linecap:round; stroke-linejoin:round; stroke-width:4; stroke-opacity:1; fill:none" points="649.361,882.367 649.361,833.023 "/>
<polyline clip-path="url(#clip912)" style="stroke:#000000; stroke-linecap:round; stroke-linejoin:round; stroke-width:4; stroke-opacity:1; fill:none" points="320.521,1371.65 320.521,1028.85 "/>
<line clip-path="url(#clip912)" x1="2309.56" y1="244.971" x2="2277.56" y2="244.971" style="stroke:#000000; stroke-width:4; stroke-opacity:1"/>
<line clip-path="url(#clip912)" x1="2309.56" y1="240.031" x2="2277.56" y2="240.031" style="stroke:#000000; stroke-width:4; stroke-opacity:1"/>
<line clip-path="url(#clip912)" x1="1980.72" y1="369.395" x2="1948.72" y2="369.395" style="stroke:#000000; stroke-width:4; stroke-opacity:1"/>
<line clip-path="url(#clip912)" x1="1980.72" y1="357.107" x2="1948.72" y2="357.107" style="stroke:#000000; stroke-width:4; stroke-opacity:1"/>
<line clip-path="url(#clip912)" x1="1323.04" y1="590.964" x2="1291.04" y2="590.964" style="stroke:#000000; stroke-width:4; stroke-opacity:1"/>
<line clip-path="url(#clip912)" x1="1323.04" y1="567.961" x2="1291.04" y2="567.961" style="stroke:#000000; stroke-width:4; stroke-opacity:1"/>
<line clip-path="url(#clip912)" x1="994.202" y1="843.947" x2="962.202" y2="843.947" style="stroke:#000000; stroke-width:4; stroke-opacity:1"/>
<line clip-path="url(#clip912)" x1="994.202" y1="729.799" x2="962.202" y2="729.799" style="stroke:#000000; stroke-width:4; stroke-opacity:1"/>
<line clip-path="url(#clip912)" x1="665.361" y1="882.367" x2="633.361" y2="882.367" style="stroke:#000000; stroke-width:4; stroke-opacity:1"/>
<line clip-path="url(#clip912)" x1="665.361" y1="833.023" x2="633.361" y2="833.023" style="stroke:#000000; stroke-width:4; stroke-opacity:1"/>
<line clip-path="url(#clip912)" x1="336.521" y1="1371.65" x2="304.521" y2="1371.65" style="stroke:#000000; stroke-width:4; stroke-opacity:1"/>
<line clip-path="url(#clip912)" x1="336.521" y1="1028.85" x2="304.521" y2="1028.85" style="stroke:#000000; stroke-width:4; stroke-opacity:1"/>
<polyline clip-path="url(#clip912)" style="stroke:#e26f46; stroke-linecap:round; stroke-linejoin:round; stroke-width:4; stroke-opacity:1; fill:none" points="2293.56,99.2209 1964.72,88.6885 1307.04,118.92 978.202,111.751 649.361,141.973 320.521,163.965 "/>
<circle clip-path="url(#clip912)" cx="2293.56" cy="99.2209" r="18" fill="#e26f46" fill-rule="evenodd" fill-opacity="1" stroke="#000000" stroke-opacity="1" stroke-width="3.2"/>
<circle clip-path="url(#clip912)" cx="1964.72" cy="88.6885" r="18" fill="#e26f46" fill-rule="evenodd" fill-opacity="1" stroke="#000000" stroke-opacity="1" stroke-width="3.2"/>
<circle clip-path="url(#clip912)" cx="1307.04" cy="118.92" r="18" fill="#e26f46" fill-rule="evenodd" fill-opacity="1" stroke="#000000" stroke-opacity="1" stroke-width="3.2"/>
<circle clip-path="url(#clip912)" cx="978.202" cy="111.751" r="18" fill="#e26f46" fill-rule="evenodd" fill-opacity="1" stroke="#000000" stroke-opacity="1" stroke-width="3.2"/>
<circle clip-path="url(#clip912)" cx="649.361" cy="141.973" r="18" fill="#e26f46" fill-rule="evenodd" fill-opacity="1" stroke="#000000" stroke-opacity="1" stroke-width="3.2"/>
<circle clip-path="url(#clip912)" cx="320.521" cy="163.965" r="18" fill="#e26f46" fill-rule="evenodd" fill-opacity="1" stroke="#000000" stroke-opacity="1" stroke-width="3.2"/>
<polyline clip-path="url(#clip912)" style="stroke:#000000; stroke-linecap:round; stroke-linejoin:round; stroke-width:4; stroke-opacity:1; fill:none" points="2293.56,100.35 2293.56,98.0918 "/>
<polyline clip-path="url(#clip912)" style="stroke:#000000; stroke-linecap:round; stroke-linejoin:round; stroke-width:4; stroke-opacity:1; fill:none" points="1964.72,91.5582 1964.72,85.8189 "/>
<polyline clip-path="url(#clip912)" style="stroke:#000000; stroke-linecap:round; stroke-linejoin:round; stroke-width:4; stroke-opacity:1; fill:none" points="1307.04,122.313 1307.04,115.527 "/>
<polyline clip-path="url(#clip912)" style="stroke:#000000; stroke-linecap:round; stroke-linejoin:round; stroke-width:4; stroke-opacity:1; fill:none" points="978.202,127.383 978.202,96.1196 "/>
<polyline clip-path="url(#clip912)" style="stroke:#000000; stroke-linecap:round; stroke-linejoin:round; stroke-width:4; stroke-opacity:1; fill:none" points="649.361,152.628 649.361,131.317 "/>
<polyline clip-path="url(#clip912)" style="stroke:#000000; stroke-linecap:round; stroke-linejoin:round; stroke-width:4; stroke-opacity:1; fill:none" points="320.521,191.969 320.521,135.962 "/>
<line clip-path="url(#clip912)" x1="2313.56" y1="100.35" x2="2273.56" y2="100.35" style="stroke:#000000; stroke-width:4; stroke-opacity:1"/>
<line clip-path="url(#clip912)" x1="2313.56" y1="98.0918" x2="2273.56" y2="98.0918" style="stroke:#000000; stroke-width:4; stroke-opacity:1"/>
<line clip-path="url(#clip912)" x1="1984.72" y1="91.5582" x2="1944.72" y2="91.5582" style="stroke:#000000; stroke-width:4; stroke-opacity:1"/>
<line clip-path="url(#clip912)" x1="1984.72" y1="85.8189" x2="1944.72" y2="85.8189" style="stroke:#000000; stroke-width:4; stroke-opacity:1"/>
<line clip-path="url(#clip912)" x1="1327.04" y1="122.313" x2="1287.04" y2="122.313" style="stroke:#000000; stroke-width:4; stroke-opacity:1"/>
<line clip-path="url(#clip912)" x1="1327.04" y1="115.527" x2="1287.04" y2="115.527" style="stroke:#000000; stroke-width:4; stroke-opacity:1"/>
<line clip-path="url(#clip912)" x1="998.202" y1="127.383" x2="958.202" y2="127.383" style="stroke:#000000; stroke-width:4; stroke-opacity:1"/>
<line clip-path="url(#clip912)" x1="998.202" y1="96.1196" x2="958.202" y2="96.1196" style="stroke:#000000; stroke-width:4; stroke-opacity:1"/>
<line clip-path="url(#clip912)" x1="669.361" y1="152.628" x2="629.361" y2="152.628" style="stroke:#000000; stroke-width:4; stroke-opacity:1"/>
<line clip-path="url(#clip912)" x1="669.361" y1="131.317" x2="629.361" y2="131.317" style="stroke:#000000; stroke-width:4; stroke-opacity:1"/>
<line clip-path="url(#clip912)" x1="340.521" y1="191.969" x2="300.521" y2="191.969" style="stroke:#000000; stroke-width:4; stroke-opacity:1"/>
<line clip-path="url(#clip912)" x1="340.521" y1="135.962" x2="300.521" y2="135.962" style="stroke:#000000; stroke-width:4; stroke-opacity:1"/>
<path clip-path="url(#clip910)" d="M1908.02 1364.79 L2283.04 1364.79 L2283.04 1130.04 L1908.02 1130.04  Z" fill="#ffffff" fill-rule="evenodd" fill-opacity="1"/>
<polyline clip-path="url(#clip910)" style="stroke:#000000; stroke-linecap:round; stroke-linejoin:round; stroke-width:4; stroke-opacity:0; fill:none" points="1908.02,1364.79 2283.04,1364.79 2283.04,1130.04 1908.02,1130.04 1908.02,1364.79 "/>
<polyline clip-path="url(#clip910)" style="stroke:#009af9; stroke-linecap:round; stroke-linejoin:round; stroke-width:6; stroke-opacity:1; fill:none" points="1931.26,1208.29 2070.69,1208.29 "/>
<path clip-path="url(#clip910)" d="M1986.72 1194.03 L1986.72 1222.54 L2015.23 1222.54 L2015.23 1194.03 L1986.72 1194.03 Z" fill="#009af9" fill-rule="evenodd" fill-opacity="1" stroke="#000000" stroke-opacity="1" stroke-width="6.82667"/>
<path clip-path="url(#clip910)" d="M2154.49 1169.51 Q2154.49 1170.53 2154.04 1170.74 Q2153.62 1170.95 2152.07 1170.95 Q2149.44 1170.95 2148.24 1171.3 Q2147.08 1171.62 2146.73 1172.18 Q2146.41 1172.7 2146.03 1174.25 L2136.3 1213.11 Q2136.3 1213.14 2136.19 1213.64 Q2136.08 1214.09 2136.08 1214.34 Q2136.08 1214.79 2136.37 1215.08 Q2136.68 1215.36 2137.45 1215.5 Q2138.23 1215.6 2138.82 1215.64 Q2139.46 1215.64 2140.76 1215.64 Q2142.37 1215.64 2142.62 1215.92 Q2142.76 1216.09 2142.76 1216.41 Q2142.76 1217.08 2142.48 1217.43 Q2142.23 1217.75 2141.99 1217.82 Q2141.78 1217.85 2141.35 1217.85 Q2140.62 1217.85 2139.04 1217.78 Q2137.45 1217.71 2136.65 1217.71 L2132.04 1217.64 L2122.91 1217.85 Q2121.93 1217.85 2121.93 1217.04 Q2121.93 1216.34 2122.17 1216.02 Q2122.42 1215.71 2122.66 1215.67 Q2122.94 1215.64 2123.65 1215.64 Q2127.27 1215.64 2128.46 1215.29 Q2129.69 1214.9 2130.18 1213.25 L2135.14 1193.4 L2113.21 1193.4 L2108.29 1213.11 Q2108.29 1213.14 2108.19 1213.64 Q2108.08 1214.09 2108.08 1214.34 Q2108.08 1214.79 2108.36 1215.08 Q2108.68 1215.36 2109.45 1215.5 Q2110.23 1215.6 2110.82 1215.64 Q2111.46 1215.64 2112.76 1215.64 Q2114.37 1215.64 2114.65 1215.92 Q2114.79 1216.09 2114.79 1216.41 Q2114.79 1216.9 2114.65 1217.25 Q2114.55 1217.57 2114.27 1217.68 Q2114.02 1217.78 2113.84 1217.82 Q2113.67 1217.85 2113.35 1217.85 Q2112.62 1217.85 2111.03 1217.78 Q2109.49 1217.71 2108.68 1217.71 L2104.08 1217.64 L2094.94 1217.85 Q2093.92 1217.85 2093.92 1217.04 Q2093.92 1216.34 2094.17 1216.06 Q2094.42 1215.74 2094.73 1215.71 Q2095.05 1215.64 2095.86 1215.64 Q2097.61 1215.64 2098.67 1215.53 Q2099.72 1215.43 2100.39 1215.29 Q2101.09 1215.11 2101.44 1214.62 Q2101.83 1214.13 2102 1213.71 Q2102.18 1213.25 2102.43 1212.23 L2112.05 1173.58 Q2112.33 1172.42 2112.33 1172.25 Q2112.33 1171.58 2111.91 1171.4 Q2111.53 1171.19 2110.4 1171.09 L2107.66 1170.95 Q2106.82 1170.95 2106.47 1170.91 Q2106.15 1170.88 2105.9 1170.7 Q2105.66 1170.53 2105.66 1170.14 Q2105.66 1169.65 2105.76 1169.33 Q2105.9 1168.98 2106.15 1168.88 Q2106.4 1168.77 2106.57 1168.73 Q2106.75 1168.7 2107.03 1168.7 L2116.3 1168.91 L2125.51 1168.7 Q2126.53 1168.7 2126.53 1169.51 Q2126.53 1170.53 2126.07 1170.74 Q2125.61 1170.95 2124.07 1170.95 Q2121.5 1170.95 2120.31 1171.3 Q2119.11 1171.62 2118.73 1172.18 Q2118.38 1172.74 2118.03 1174.25 L2113.77 1191.15 L2135.73 1191.15 L2140.05 1173.58 Q2140.34 1172.32 2140.34 1172.25 Q2140.34 1171.58 2139.91 1171.4 Q2139.53 1171.19 2138.4 1171.09 L2135.66 1170.95 Q2134.82 1170.95 2134.47 1170.91 Q2134.15 1170.88 2133.87 1170.7 Q2133.63 1170.53 2133.63 1170.14 Q2133.63 1169.65 2133.73 1169.33 Q2133.87 1168.98 2134.12 1168.88 Q2134.36 1168.77 2134.54 1168.73 Q2134.71 1168.7 2135 1168.7 L2144.27 1168.91 L2153.51 1168.7 Q2154.49 1168.7 2154.49 1169.51 Z" fill="#000000" fill-rule="nonzero" fill-opacity="1" /><path clip-path="url(#clip910)" d="M2161.59 1209.04 L2161.59 1207.46 Q2167.64 1207.46 2170.76 1204.24 Q2171.62 1204.24 2171.77 1204.44 Q2171.92 1204.64 2171.92 1205.55 L2171.92 1233.8 Q2171.92 1235.3 2172.66 1235.77 Q2173.39 1236.24 2176.62 1236.24 L2178.21 1236.24 L2178.21 1237.79 Q2176.44 1237.64 2170.05 1237.64 Q2163.65 1237.64 2161.91 1237.79 L2161.91 1236.24 L2163.51 1236.24 Q2166.68 1236.24 2167.44 1235.8 Q2168.2 1235.33 2168.2 1233.8 L2168.2 1207.71 Q2165.57 1209.04 2161.59 1209.04 Z" fill="#000000" fill-rule="nonzero" fill-opacity="1" /><path clip-path="url(#clip910)" d="M2187.24 1236.98 Q2186.53 1236.17 2186.53 1235.11 Q2186.53 1234.05 2187.22 1233.26 Q2187.93 1232.45 2189.21 1232.45 Q2190.71 1232.45 2191.57 1233.9 Q2192.43 1235.33 2192.43 1237.74 Q2192.43 1240.35 2191.38 1242.76 Q2190.32 1245.19 2189.29 1246.35 Q2188.25 1247.5 2187.83 1247.5 Q2187.34 1247.5 2187.34 1246.96 Q2187.34 1246.76 2187.69 1246.4 Q2191.3 1242.51 2191.33 1237.74 Q2191.33 1236.98 2191.23 1236.98 L2191.11 1237.08 Q2190.25 1237.79 2189.21 1237.79 Q2187.96 1237.79 2187.24 1236.98 Z" fill="#000000" fill-rule="nonzero" fill-opacity="1" /><path clip-path="url(#clip910)" d="M2249.6 1230.58 Q2249.6 1230.78 2249.37 1231.54 Q2249.15 1232.3 2248.61 1233.48 Q2248.1 1234.66 2247.36 1235.75 Q2246.64 1236.8 2245.46 1237.59 Q2244.31 1238.35 2242.98 1238.35 Q2241.21 1238.35 2240.03 1237.17 Q2238.85 1235.99 2238.85 1234.22 Q2238.85 1233.26 2239.51 1231.44 Q2242.64 1223.13 2242.64 1220.15 Q2242.64 1216.64 2239.91 1216.64 Q2238.36 1216.64 2236.95 1217.28 Q2235.55 1217.92 2234.64 1218.8 Q2233.73 1219.69 2233.02 1220.7 Q2232.31 1221.7 2231.99 1222.37 Q2231.69 1223.03 2231.62 1223.33 L2228.59 1235.48 Q2228.35 1236.51 2228.17 1237 Q2228 1237.49 2227.53 1237.91 Q2227.07 1238.35 2226.33 1238.35 Q2225.71 1238.35 2225.27 1237.99 Q2224.85 1237.62 2224.85 1236.98 Q2224.85 1236.88 2224.98 1236.36 Q2225.1 1235.85 2225.27 1235.13 Q2225.44 1234.42 2225.52 1234 Q2226.4 1230.66 2226.53 1230.19 L2227.93 1224.34 Q2228.69 1221.43 2228.69 1220.15 Q2228.69 1216.64 2225.96 1216.64 Q2224.61 1216.64 2223.33 1217.15 Q2222.08 1217.65 2221.21 1218.33 Q2220.35 1219.02 2219.57 1219.98 Q2218.8 1220.92 2218.41 1221.56 Q2218.04 1222.17 2217.75 1222.79 L2217.11 1225.29 Q2216.96 1225.98 2216.25 1228.66 L2215.14 1233.21 Q2214.35 1236.61 2214.18 1236.93 Q2213.93 1237.62 2213.39 1237.99 Q2212.85 1238.35 2212.31 1238.35 Q2211.7 1238.35 2211.28 1237.99 Q2210.86 1237.62 2210.86 1236.98 Q2210.86 1236.88 2210.93 1236.51 Q2211.01 1236.14 2211.13 1235.62 Q2211.25 1235.11 2211.3 1234.81 L2214.23 1223.18 Q2214.77 1221.06 2214.89 1220.4 Q2215.04 1219.71 2215.04 1218.95 Q2215.04 1216.64 2213.47 1216.64 Q2212.19 1216.64 2211.35 1218.16 Q2210.52 1219.69 2209.8 1222.64 Q2209.58 1223.45 2209.43 1223.62 Q2209.31 1223.79 2208.94 1223.79 Q2208.33 1223.77 2208.33 1223.28 Q2208.33 1223.16 2208.52 1222.37 Q2208.72 1221.58 2209.09 1220.4 Q2209.48 1219.2 2209.9 1218.41 Q2210.15 1217.89 2210.37 1217.55 Q2210.59 1217.2 2211.03 1216.66 Q2211.48 1216.12 2212.14 1215.83 Q2212.8 1215.53 2213.61 1215.53 Q2215.41 1215.53 2216.74 1216.69 Q2218.09 1217.84 2218.26 1219.91 Q2221.53 1215.53 2226.11 1215.53 Q2228.69 1215.53 2230.24 1216.83 Q2231.69 1218.09 2231.86 1220.4 Q2235.26 1215.53 2240.08 1215.53 Q2242.86 1215.53 2244.36 1216.98 Q2245.86 1218.41 2245.86 1220.92 Q2245.86 1222.22 2245.19 1224.7 Q2244.53 1227.16 2244.09 1228.39 Q2243.64 1229.62 2242.78 1231.98 Q2241.87 1234.25 2241.87 1235.57 Q2241.87 1236.44 2242.17 1236.83 Q2242.46 1237.22 2243.1 1237.22 Q2244.09 1237.22 2244.95 1236.66 Q2245.81 1236.07 2246.42 1235.11 Q2247.06 1234.12 2247.48 1233.14 Q2247.9 1232.13 2248.22 1231 Q2248.41 1230.39 2248.51 1230.24 Q2248.64 1230.09 2248.98 1230.09 Q2249.6 1230.09 2249.6 1230.58 Z" fill="#000000" fill-rule="nonzero" fill-opacity="1" /><polyline clip-path="url(#clip910)" style="stroke:#e26f46; stroke-linecap:round; stroke-linejoin:round; stroke-width:6; stroke-opacity:1; fill:none" points="1931.26,1286.54 2070.69,1286.54 "/>
<circle clip-path="url(#clip910)" cx="2000.97" cy="1286.54" r="12.8293" fill="#e26f46" fill-rule="evenodd" fill-opacity="1" stroke="#000000" stroke-opacity="1" stroke-width="5.58545"/>
<path clip-path="url(#clip910)" d="M2154.49 1247.76 Q2154.49 1248.78 2154.04 1248.99 Q2153.62 1249.2 2152.07 1249.2 Q2149.44 1249.2 2148.24 1249.55 Q2147.08 1249.86 2146.73 1250.43 Q2146.41 1250.95 2146.03 1252.5 L2136.3 1291.36 Q2136.3 1291.39 2136.19 1291.88 Q2136.08 1292.34 2136.08 1292.59 Q2136.08 1293.04 2136.37 1293.33 Q2136.68 1293.61 2137.45 1293.75 Q2138.23 1293.85 2138.82 1293.89 Q2139.46 1293.89 2140.76 1293.89 Q2142.37 1293.89 2142.62 1294.17 Q2142.76 1294.34 2142.76 1294.66 Q2142.76 1295.33 2142.48 1295.68 Q2142.23 1296 2141.99 1296.07 Q2141.78 1296.1 2141.35 1296.1 Q2140.62 1296.1 2139.04 1296.03 Q2137.45 1295.96 2136.65 1295.96 L2132.04 1295.89 L2122.91 1296.1 Q2121.93 1296.1 2121.93 1295.29 Q2121.93 1294.59 2122.17 1294.27 Q2122.42 1293.96 2122.66 1293.92 Q2122.94 1293.89 2123.65 1293.89 Q2127.27 1293.89 2128.46 1293.54 Q2129.69 1293.15 2130.18 1291.5 L2135.14 1271.65 L2113.21 1271.65 L2108.29 1291.36 Q2108.29 1291.39 2108.19 1291.88 Q2108.08 1292.34 2108.08 1292.59 Q2108.08 1293.04 2108.36 1293.33 Q2108.68 1293.61 2109.45 1293.75 Q2110.23 1293.85 2110.82 1293.89 Q2111.46 1293.89 2112.76 1293.89 Q2114.37 1293.89 2114.65 1294.17 Q2114.79 1294.34 2114.79 1294.66 Q2114.79 1295.15 2114.65 1295.5 Q2114.55 1295.82 2114.27 1295.93 Q2114.02 1296.03 2113.84 1296.07 Q2113.67 1296.1 2113.35 1296.1 Q2112.62 1296.1 2111.03 1296.03 Q2109.49 1295.96 2108.68 1295.96 L2104.08 1295.89 L2094.94 1296.1 Q2093.92 1296.1 2093.92 1295.29 Q2093.92 1294.59 2094.17 1294.31 Q2094.42 1293.99 2094.73 1293.96 Q2095.05 1293.89 2095.86 1293.89 Q2097.61 1293.89 2098.67 1293.78 Q2099.72 1293.68 2100.39 1293.54 Q2101.09 1293.36 2101.44 1292.87 Q2101.83 1292.38 2102 1291.95 Q2102.18 1291.5 2102.43 1290.48 L2112.05 1251.83 Q2112.33 1250.67 2112.33 1250.5 Q2112.33 1249.83 2111.91 1249.65 Q2111.53 1249.44 2110.4 1249.34 L2107.66 1249.2 Q2106.82 1249.2 2106.47 1249.16 Q2106.15 1249.13 2105.9 1248.95 Q2105.66 1248.78 2105.66 1248.39 Q2105.66 1247.9 2105.76 1247.58 Q2105.9 1247.23 2106.15 1247.12 Q2106.4 1247.02 2106.57 1246.98 Q2106.75 1246.95 2107.03 1246.95 L2116.3 1247.16 L2125.51 1246.95 Q2126.53 1246.95 2126.53 1247.76 Q2126.53 1248.78 2126.07 1248.99 Q2125.61 1249.2 2124.07 1249.2 Q2121.5 1249.2 2120.31 1249.55 Q2119.11 1249.86 2118.73 1250.43 Q2118.38 1250.99 2118.03 1252.5 L2113.77 1269.4 L2135.73 1269.4 L2140.05 1251.83 Q2140.34 1250.57 2140.34 1250.5 Q2140.34 1249.83 2139.91 1249.65 Q2139.53 1249.44 2138.4 1249.34 L2135.66 1249.2 Q2134.82 1249.2 2134.47 1249.16 Q2134.15 1249.13 2133.87 1248.95 Q2133.63 1248.78 2133.63 1248.39 Q2133.63 1247.9 2133.73 1247.58 Q2133.87 1247.23 2134.12 1247.12 Q2134.36 1247.02 2134.54 1246.98 Q2134.71 1246.95 2135 1246.95 L2144.27 1247.16 L2153.51 1246.95 Q2154.49 1246.95 2154.49 1247.76 Z" fill="#000000" fill-rule="nonzero" fill-opacity="1" /><path clip-path="url(#clip910)" d="M2161.59 1287.29 L2161.59 1285.71 Q2167.64 1285.71 2170.76 1282.49 Q2171.62 1282.49 2171.77 1282.69 Q2171.92 1282.89 2171.92 1283.8 L2171.92 1312.05 Q2171.92 1313.55 2172.66 1314.02 Q2173.39 1314.49 2176.62 1314.49 L2178.21 1314.49 L2178.21 1316.04 Q2176.44 1315.89 2170.05 1315.89 Q2163.65 1315.89 2161.91 1316.04 L2161.91 1314.49 L2163.51 1314.49 Q2166.68 1314.49 2167.44 1314.05 Q2168.2 1313.58 2168.2 1312.05 L2168.2 1285.96 Q2165.57 1287.29 2161.59 1287.29 Z" fill="#000000" fill-rule="nonzero" fill-opacity="1" /><path clip-path="url(#clip910)" d="M2187.24 1315.23 Q2186.53 1314.41 2186.53 1313.36 Q2186.53 1312.3 2187.22 1311.51 Q2187.93 1310.7 2189.21 1310.7 Q2190.71 1310.7 2191.57 1312.15 Q2192.43 1313.58 2192.43 1315.99 Q2192.43 1318.6 2191.38 1321.01 Q2190.32 1323.44 2189.29 1324.6 Q2188.25 1325.75 2187.83 1325.75 Q2187.34 1325.75 2187.34 1325.21 Q2187.34 1325.01 2187.69 1324.65 Q2191.3 1320.76 2191.33 1315.99 Q2191.33 1315.23 2191.23 1315.23 L2191.11 1315.32 Q2190.25 1316.04 2189.21 1316.04 Q2187.96 1316.04 2187.24 1315.23 Z" fill="#000000" fill-rule="nonzero" fill-opacity="1" /><path clip-path="url(#clip910)" d="M2235.63 1308.83 Q2235.63 1309.03 2235.4 1309.79 Q2235.18 1310.55 2234.64 1311.73 Q2234.13 1312.91 2233.41 1314 Q2232.7 1315.05 2231.52 1315.84 Q2230.36 1316.6 2229.04 1316.6 Q2227.26 1316.6 2226.08 1315.42 Q2224.9 1314.24 2224.9 1312.47 Q2224.9 1311.49 2225.42 1310.14 Q2228.69 1301.4 2228.69 1298.4 Q2228.69 1294.89 2225.96 1294.89 Q2224.61 1294.89 2223.33 1295.4 Q2222.08 1295.9 2221.21 1296.58 Q2220.35 1297.27 2219.57 1298.23 Q2218.8 1299.17 2218.41 1299.81 Q2218.04 1300.42 2217.75 1301.04 L2217.11 1303.54 Q2216.96 1304.23 2216.25 1306.91 L2215.14 1311.46 Q2214.35 1314.86 2214.18 1315.18 Q2213.93 1315.87 2213.39 1316.23 Q2212.85 1316.6 2212.31 1316.6 Q2211.7 1316.6 2211.28 1316.23 Q2210.86 1315.87 2210.86 1315.23 Q2210.86 1315.13 2210.93 1314.76 Q2211.01 1314.39 2211.13 1313.87 Q2211.25 1313.36 2211.3 1313.06 L2214.23 1301.43 Q2214.77 1299.31 2214.89 1298.65 Q2215.04 1297.96 2215.04 1297.2 Q2215.04 1294.89 2213.47 1294.89 Q2212.19 1294.89 2211.35 1296.41 Q2210.52 1297.94 2209.8 1300.89 Q2209.58 1301.7 2209.43 1301.87 Q2209.31 1302.04 2208.94 1302.04 Q2208.33 1302.02 2208.33 1301.53 Q2208.33 1301.4 2208.52 1300.59 Q2208.72 1299.78 2209.09 1298.63 Q2209.48 1297.44 2209.85 1296.66 Q2210.17 1296.07 2210.34 1295.8 Q2210.54 1295.5 2211.01 1294.94 Q2211.5 1294.35 2212.14 1294.08 Q2212.8 1293.78 2213.61 1293.78 Q2215.43 1293.78 2216.76 1294.96 Q2218.09 1296.12 2218.26 1298.16 Q2221.53 1293.78 2226.11 1293.78 Q2228.81 1293.78 2230.36 1295.21 Q2231.91 1296.63 2231.91 1299.17 Q2231.91 1299.76 2231.79 1300.52 Q2231.69 1301.26 2231.45 1302.19 Q2231.22 1303.13 2231.03 1303.84 Q2230.83 1304.55 2230.44 1305.71 Q2230.04 1306.84 2229.87 1307.33 Q2229.7 1307.82 2229.28 1308.98 Q2228.89 1310.11 2228.84 1310.23 Q2227.93 1312.52 2227.93 1313.82 Q2227.93 1314.68 2228.2 1315.08 Q2228.49 1315.47 2229.13 1315.47 Q2230.85 1315.47 2232.13 1313.78 Q2233.44 1312.05 2234.27 1309.25 Q2234.47 1308.63 2234.57 1308.49 Q2234.69 1308.34 2235.04 1308.34 Q2235.63 1308.34 2235.63 1308.83 Z" fill="#000000" fill-rule="nonzero" fill-opacity="1" /></svg>
