<?xml version="1.0" encoding="utf-8"?>
<svg xmlns="http://www.w3.org/2000/svg" xmlns:xlink="http://www.w3.org/1999/xlink" width="600" height="400" viewBox="0 0 2400 1600">
<defs>
  <clipPath id="clip040">
    <rect x="0" y="0" width="2400" height="1600"/>
  </clipPath>
</defs>
<path clip-path="url(#clip040)" d="M0 1600 L2400 1600 L2400 0 L0 0  Z" fill="#ffffff" fill-rule="evenodd" fill-opacity="1"/>
<defs>
  <clipPath id="clip041">
    <rect x="480" y="0" width="1681" height="1600"/>
  </clipPath>
</defs>
<defs>
  <clipPath id="clip042">
    <rect x="233" y="47" width="2120" height="1364"/>
  </clipPath>
</defs>
<path clip-path="url(#clip040)" d="M233.996 1410.22 L2352.76 1410.22 L2352.76 47.2441 L233.996 47.2441  Z" fill="#ffffff" fill-rule="evenodd" fill-opacity="1"/>
<polyline clip-path="url(#clip040)" style="stroke:#000000; stroke-linecap:round; stroke-linejoin:round; stroke-width:4; stroke-opacity:1; fill:none" points="233.996,1410.22 2352.76,1410.22 "/>
<polyline clip-path="url(#clip040)" style="stroke:#000000; stroke-linecap:round; stroke-linejoin:round; stroke-width:4; stroke-opacity:1; fill:none" points="233.996,47.2441 2352.76,47.2441 "/>
<polyline clip-path="url(#clip040)" style="stroke:#000000; stroke-linecap:round; stroke-linejoin:round; stroke-width:4; stroke-opacity:1; fill:none" points="293.961,1410.22 293.961,1391.32 "/>
<polyline clip-path="url(#clip040)" style="stroke:#000000; stroke-linecap:round; stroke-linejoin:round; stroke-width:4; stroke-opacity:1; fill:none" points="627.099,1410.22 627.099,1391.32 "/>
<polyline clip-path="url(#clip040)" style="stroke:#000000; stroke-linecap:round; stroke-linejoin:round; stroke-width:4; stroke-opacity:1; fill:none" points="960.238,1410.22 960.238,1391.32 "/>
<polyline clip-path="url(#clip040)" style="stroke:#000000; stroke-linecap:round; stroke-linejoin:round; stroke-width:4; stroke-opacity:1; fill:none" points="1293.38,1410.22 1293.38,1391.32 "/>
<polyline clip-path="url(#clip040)" style="stroke:#000000; stroke-linecap:round; stroke-linejoin:round; stroke-width:4; stroke-opacity:1; fill:none" points="1626.51,1410.22 1626.51,1391.32 "/>
<polyline clip-path="url(#clip040)" style="stroke:#000000; stroke-linecap:round; stroke-linejoin:round; stroke-width:4; stroke-opacity:1; fill:none" points="1959.65,1410.22 1959.65,1391.32 "/>
<polyline clip-path="url(#clip040)" style="stroke:#000000; stroke-linecap:round; stroke-linejoin:round; stroke-width:4; stroke-opacity:1; fill:none" points="2292.79,1410.22 2292.79,1391.32 "/>
<path clip-path="url(#clip040)" d="M297.558 1466.71 Q297.929 1467.08 297.929 1467.61 Q297.929 1468.13 297.558 1468.51 Q297.188 1468.88 296.663 1468.88 L257.076 1468.88 Q256.551 1468.88 256.18 1468.51 Q255.81 1468.13 255.81 1467.61 Q255.81 1467.08 256.18 1466.71 Q256.551 1466.34 257.076 1466.34 L296.663 1466.34 Q297.188 1466.34 297.558 1466.71 Z" fill="#000000" fill-rule="nonzero" fill-opacity="1" /><path clip-path="url(#clip040)" d="M305 1453.68 L307.069 1440.68 L308.644 1440.68 Q308.829 1441.46 309.138 1441.79 Q309.478 1442.13 311.269 1442.41 Q313.091 1442.69 316.765 1442.69 L332.112 1442.69 Q332.112 1444.14 331.556 1444.91 L323.003 1456.93 Q320.285 1460.72 319.081 1467.73 Q318.371 1472.43 318.402 1478.11 L318.402 1481.32 Q318.402 1484.81 315.468 1484.81 Q312.566 1484.81 312.566 1481.32 Q312.566 1469.25 320.347 1457.54 Q321.181 1456.34 324.238 1452.05 Q327.326 1447.75 327.449 1447.57 L314.357 1447.57 Q308.613 1447.57 308.15 1447.94 Q307.532 1448.5 306.575 1453.68 L305 1453.68 Z" fill="#000000" fill-rule="nonzero" fill-opacity="1" /><path clip-path="url(#clip040)" d="M631.577 1466.71 Q631.947 1467.08 631.947 1467.61 Q631.947 1468.13 631.577 1468.51 Q631.206 1468.88 630.681 1468.88 L591.094 1468.88 Q590.569 1468.88 590.199 1468.51 Q589.828 1468.13 589.828 1467.61 Q589.828 1467.08 590.199 1466.71 Q590.569 1466.34 591.094 1466.34 L630.681 1466.34 Q631.206 1466.34 631.577 1466.71 Z" fill="#000000" fill-rule="nonzero" fill-opacity="1" /><path clip-path="url(#clip040)" d="M638.123 1463.44 Q638.123 1453.5 643.187 1447.41 Q648.252 1441.3 654.767 1441.3 Q658.565 1441.3 660.665 1443.25 Q662.796 1445.16 662.796 1448.12 Q662.796 1449.76 661.838 1450.47 Q660.881 1451.18 659.893 1451.18 Q658.75 1451.18 657.855 1450.41 Q656.959 1449.64 656.959 1448.25 Q656.959 1445.41 660.449 1445.41 Q658.812 1442.88 654.891 1442.88 Q653.686 1442.88 652.451 1443.25 Q651.216 1443.59 649.61 1444.76 Q648.004 1445.93 646.769 1447.79 Q645.534 1449.64 644.67 1453.13 Q643.805 1456.62 643.805 1461.16 L643.805 1462.67 Q646.399 1456.4 651.71 1456.43 Q657.021 1456.43 660.696 1460.48 Q664.37 1464.52 664.37 1470.51 Q664.37 1476.66 660.541 1480.73 Q656.712 1484.81 651.339 1484.81 Q648.931 1484.81 646.738 1483.79 Q644.577 1482.8 642.539 1480.52 Q640.532 1478.23 639.327 1473.85 Q638.123 1469.46 638.123 1463.44 M643.928 1469.12 Q643.928 1475.33 645.071 1478.29 Q645.256 1478.79 645.658 1479.47 Q646.09 1480.15 646.8 1481.04 Q647.541 1481.91 648.746 1482.49 Q649.95 1483.05 651.339 1483.05 Q655.57 1483.05 657.608 1478.94 Q658.689 1476.66 658.689 1470.45 Q658.689 1464.12 657.546 1461.8 Q655.601 1457.88 651.648 1457.88 Q648.993 1457.88 647.14 1459.7 Q645.318 1461.53 644.608 1463.97 Q643.928 1466.41 643.928 1469.12 Z" fill="#000000" fill-rule="nonzero" fill-opacity="1" /><path clip-path="url(#clip040)" d="M964.962 1466.71 Q965.333 1467.08 965.333 1467.61 Q965.333 1468.13 964.962 1468.51 Q964.592 1468.88 964.067 1468.88 L924.48 1468.88 Q923.955 1468.88 923.584 1468.51 Q923.213 1468.13 923.213 1467.61 Q923.213 1467.08 923.584 1466.71 Q923.955 1466.34 924.48 1466.34 L964.067 1466.34 Q964.592 1466.34 964.962 1466.71 Z" fill="#000000" fill-rule="nonzero" fill-opacity="1" /><path clip-path="url(#clip040)" d="M972.003 1473.23 Q972.003 1471.35 973.022 1470.64 Q974.041 1469.89 975.121 1469.89 Q976.573 1469.89 977.406 1470.82 Q978.271 1471.72 978.271 1472.98 Q978.271 1474.25 977.406 1475.18 Q976.573 1476.07 975.121 1476.07 Q974.411 1476.07 974.041 1475.95 Q974.874 1478.85 977.406 1480.95 Q979.969 1483.05 983.335 1483.05 Q987.566 1483.05 990.098 1478.94 Q991.611 1476.29 991.611 1470.27 Q991.611 1464.95 990.468 1462.3 Q988.708 1458.25 985.095 1458.25 Q979.969 1458.25 976.943 1462.67 Q976.573 1463.22 976.14 1463.26 Q975.523 1463.26 975.368 1462.92 Q975.245 1462.55 975.245 1461.59 L975.245 1442.88 Q975.245 1441.36 975.862 1441.36 Q976.11 1441.36 976.634 1441.55 Q980.618 1443.31 985.034 1443.34 Q989.573 1443.34 993.649 1441.49 Q993.958 1441.3 994.143 1441.3 Q994.761 1441.3 994.791 1442.01 Q994.791 1442.26 994.266 1443 Q993.772 1443.71 992.692 1444.67 Q991.611 1445.59 990.221 1446.49 Q988.832 1447.38 986.794 1448 Q984.787 1448.59 982.563 1448.59 Q979.908 1448.59 977.19 1447.75 L977.19 1460.08 Q980.463 1456.86 985.219 1456.86 Q990.283 1456.86 993.772 1460.94 Q997.262 1465.02 997.262 1470.7 Q997.262 1476.66 993.124 1480.73 Q989.017 1484.81 983.459 1484.81 Q978.395 1484.81 975.183 1481.2 Q972.003 1477.58 972.003 1473.23 Z" fill="#000000" fill-rule="nonzero" fill-opacity="1" /><path clip-path="url(#clip040)" d="M1297.41 1466.71 Q1297.78 1467.08 1297.78 1467.61 Q1297.78 1468.13 1297.41 1468.51 Q1297.04 1468.88 1296.51 1468.88 L1256.92 1468.88 Q1256.4 1468.88 1256.03 1468.51 Q1255.66 1468.13 1255.66 1467.61 Q1255.66 1467.08 1256.03 1466.71 Q1256.4 1466.34 1256.92 1466.34 L1296.51 1466.34 Q1297.04 1466.34 1297.41 1466.71 Z" fill="#000000" fill-rule="nonzero" fill-opacity="1" /><path clip-path="url(#clip040)" d="M1303.06 1472.98 L1303.06 1471.04 L1322.48 1441.36 Q1322.97 1440.59 1323.75 1440.62 Q1324.46 1440.62 1324.61 1440.9 Q1324.76 1441.18 1324.76 1442.26 L1324.76 1471.04 L1331.09 1471.04 L1331.09 1472.98 L1324.76 1472.98 L1324.76 1478.48 Q1324.76 1480.3 1325.51 1480.89 Q1326.28 1481.47 1329.55 1481.47 L1330.88 1481.47 L1330.88 1483.42 Q1328.28 1483.23 1322.29 1483.23 Q1316.33 1483.23 1313.74 1483.42 L1313.74 1481.47 L1315.07 1481.47 Q1318.34 1481.47 1319.11 1480.92 Q1319.89 1480.33 1319.89 1478.48 L1319.89 1472.98 L1303.06 1472.98 M1304.85 1471.04 L1320.26 1471.04 L1320.26 1447.45 L1304.85 1471.04 Z" fill="#000000" fill-rule="nonzero" fill-opacity="1" /><path clip-path="url(#clip040)" d="M1630.99 1466.71 Q1631.36 1467.08 1631.36 1467.61 Q1631.36 1468.13 1630.99 1468.51 Q1630.62 1468.88 1630.1 1468.88 L1590.51 1468.88 Q1589.98 1468.88 1589.61 1468.51 Q1589.24 1468.13 1589.24 1467.61 Q1589.24 1467.08 1589.61 1466.71 Q1589.98 1466.34 1590.51 1466.34 L1630.1 1466.34 Q1630.62 1466.34 1630.99 1466.71 Z" fill="#000000" fill-rule="nonzero" fill-opacity="1" /><path clip-path="url(#clip040)" d="M1637.54 1474.9 Q1637.54 1473.01 1638.62 1472.12 Q1639.7 1471.22 1641.09 1471.22 Q1642.54 1471.22 1643.56 1472.18 Q1644.61 1473.11 1644.61 1474.74 Q1644.61 1476.5 1643.37 1477.49 Q1642.17 1478.48 1640.44 1478.23 Q1641.95 1480.76 1644.73 1481.91 Q1647.54 1483.05 1650.14 1483.05 Q1652.85 1483.05 1655.05 1480.7 Q1657.27 1478.36 1657.27 1472.61 Q1657.27 1467.73 1655.36 1464.92 Q1653.47 1462.11 1649.74 1462.11 L1646.96 1462.11 Q1646 1462.11 1645.72 1462.02 Q1645.44 1461.93 1645.44 1461.4 Q1645.44 1460.79 1646.4 1460.66 Q1647.36 1460.66 1648.87 1460.48 Q1652.55 1460.35 1654.49 1457.17 Q1656.25 1454.21 1656.25 1449.98 Q1656.25 1446.12 1654.4 1444.51 Q1652.58 1442.88 1650.2 1442.88 Q1647.98 1442.88 1645.54 1443.8 Q1643.1 1444.73 1641.77 1446.8 Q1645.69 1446.8 1645.69 1449.98 Q1645.69 1451.37 1644.79 1452.29 Q1643.93 1453.19 1642.48 1453.19 Q1641.09 1453.19 1640.16 1452.32 Q1639.24 1451.43 1639.24 1449.92 Q1639.24 1446.3 1642.45 1443.8 Q1645.69 1441.3 1650.45 1441.3 Q1655.14 1441.3 1658.6 1443.77 Q1662.09 1446.24 1662.09 1450.04 Q1662.09 1453.78 1659.62 1456.83 Q1657.15 1459.89 1653.22 1461.16 Q1658.04 1462.11 1660.91 1465.39 Q1663.79 1468.63 1663.79 1472.61 Q1663.79 1477.55 1659.89 1481.2 Q1656 1484.81 1650.32 1484.81 Q1645.07 1484.81 1641.31 1481.97 Q1637.54 1479.13 1637.54 1474.9 Z" fill="#000000" fill-rule="nonzero" fill-opacity="1" /><path clip-path="url(#clip040)" d="M1964.38 1466.71 Q1964.75 1467.08 1964.75 1467.61 Q1964.75 1468.13 1964.38 1468.51 Q1964.01 1468.88 1963.48 1468.88 L1923.89 1468.88 Q1923.37 1468.88 1923 1468.51 Q1922.63 1468.13 1922.63 1467.61 Q1922.63 1467.08 1923 1466.71 Q1923.37 1466.34 1923.89 1466.34 L1963.48 1466.34 Q1964.01 1466.34 1964.38 1466.71 Z" fill="#000000" fill-rule="nonzero" fill-opacity="1" /><path clip-path="url(#clip040)" d="M1971.42 1483.42 Q1971.42 1482.28 1971.51 1481.94 Q1971.63 1481.6 1972.13 1481.07 L1984.26 1467.55 Q1990.9 1460.08 1990.9 1453.56 Q1990.9 1449.33 1988.68 1446.3 Q1986.49 1443.28 1982.44 1443.28 Q1979.66 1443.28 1977.32 1444.98 Q1974.97 1446.67 1973.89 1449.7 Q1974.07 1449.64 1974.72 1449.64 Q1976.3 1449.64 1977.16 1450.63 Q1978.06 1451.61 1978.06 1452.94 Q1978.06 1454.64 1976.95 1455.47 Q1975.86 1456.28 1974.78 1456.28 Q1974.35 1456.28 1973.76 1456.18 Q1973.21 1456.09 1972.31 1455.23 Q1971.42 1454.33 1971.42 1452.76 Q1971.42 1448.34 1974.75 1444.82 Q1978.12 1441.3 1983.24 1441.3 Q1989.05 1441.3 1992.85 1444.76 Q1996.68 1448.19 1996.68 1453.56 Q1996.68 1455.44 1996.09 1457.17 Q1995.53 1458.87 1994.76 1460.2 Q1994.02 1461.53 1991.98 1463.66 Q1989.95 1465.79 1988.31 1467.3 Q1986.67 1468.81 1983 1472.03 L1976.3 1478.54 L1987.69 1478.54 Q1993.25 1478.54 1993.68 1478.05 Q1994.3 1477.15 1995.07 1472.43 L1996.68 1472.43 L1994.89 1483.42 L1971.42 1483.42 Z" fill="#000000" fill-rule="nonzero" fill-opacity="1" /><path clip-path="url(#clip040)" d="M2298.47 1466.71 Q2298.84 1467.08 2298.84 1467.61 Q2298.84 1468.13 2298.47 1468.51 Q2298.1 1468.88 2297.58 1468.88 L2257.99 1468.88 Q2257.47 1468.88 2257.09 1468.51 Q2256.72 1468.13 2256.72 1467.61 Q2256.72 1467.08 2257.09 1466.71 Q2257.47 1466.34 2257.99 1466.34 L2297.58 1466.34 Q2298.1 1466.34 2298.47 1466.71 Z" fill="#000000" fill-rule="nonzero" fill-opacity="1" /><path clip-path="url(#clip040)" d="M2307.98 1447.32 L2307.98 1445.35 Q2315.58 1445.35 2319.5 1441.3 Q2320.58 1441.3 2320.77 1441.55 Q2320.95 1441.79 2320.95 1442.94 L2320.95 1478.42 Q2320.95 1480.3 2321.88 1480.89 Q2322.81 1481.47 2326.85 1481.47 L2328.86 1481.47 L2328.86 1483.42 Q2326.63 1483.23 2318.61 1483.23 Q2310.58 1483.23 2308.38 1483.42 L2308.38 1481.47 L2310.39 1481.47 Q2314.38 1481.47 2315.33 1480.92 Q2316.29 1480.33 2316.29 1478.42 L2316.29 1445.65 Q2312.99 1447.32 2307.98 1447.32 Z" fill="#000000" fill-rule="nonzero" fill-opacity="1" /><path clip-path="url(#clip040)" d="M1318.91 1517.34 Q1318.91 1518.78 1317.71 1518.78 Q1315.6 1518.85 1314.16 1519.27 Q1312.72 1519.66 1311.88 1520.43 Q1311.07 1521.21 1310.62 1522.05 Q1310.19 1522.86 1309.91 1524.09 L1303.52 1549.63 Q1301.69 1556.83 1295.79 1562.07 Q1289.89 1567.27 1283.18 1567.27 Q1279.35 1567.27 1276.15 1565.69 Q1272.99 1564.11 1271.02 1560.91 Q1269.05 1557.71 1269.05 1553.46 Q1269.05 1551.42 1269.58 1549.28 L1273.94 1531.5 L1275.55 1525.18 Q1276.75 1520.5 1276.75 1520.08 Q1276.75 1519.42 1276.33 1519.24 Q1275.94 1519.03 1274.81 1518.92 L1272.07 1518.78 Q1271.23 1518.78 1270.88 1518.75 Q1270.56 1518.71 1270.32 1518.54 Q1270.07 1518.36 1270.07 1517.97 Q1270.07 1517.48 1270.18 1517.17 Q1270.32 1516.82 1270.56 1516.71 Q1270.81 1516.6 1270.98 1516.57 Q1271.16 1516.53 1271.44 1516.53 L1280.72 1516.75 L1289.92 1516.53 Q1290.94 1516.53 1290.94 1517.34 Q1290.94 1518.36 1290.48 1518.57 Q1290.03 1518.78 1288.48 1518.78 Q1285.85 1518.78 1284.65 1519.13 Q1283.49 1519.45 1283.14 1520.01 Q1282.82 1520.54 1282.44 1522.09 L1275.45 1550.09 Q1275.1 1551.49 1274.88 1552.9 Q1274.71 1554.27 1274.71 1554.97 L1274.67 1555.67 Q1274.67 1560.14 1277.13 1562.59 Q1279.63 1565.05 1283.46 1565.05 Q1289.08 1565.05 1294.31 1560.59 Q1299.58 1556.13 1301.38 1549.14 L1307.84 1523.46 Q1308.05 1522.82 1308.05 1521.94 Q1308.05 1520.54 1307 1519.7 Q1305.98 1518.82 1303.17 1518.78 Q1301.87 1518.78 1301.87 1517.97 Q1301.87 1517.31 1302.11 1516.99 Q1302.39 1516.64 1302.61 1516.6 Q1302.85 1516.53 1303.17 1516.53 Q1304.36 1516.53 1306.89 1516.64 Q1309.42 1516.75 1310.65 1516.75 Q1311.88 1516.75 1314.34 1516.64 Q1316.8 1516.53 1317.99 1516.53 Q1318.42 1516.53 1318.63 1516.75 Q1318.87 1516.92 1318.91 1517.13 L1318.91 1517.34 Z" fill="#000000" fill-rule="nonzero" fill-opacity="1" /><polyline clip-path="url(#clip040)" style="stroke:#000000; stroke-linecap:round; stroke-linejoin:round; stroke-width:4; stroke-opacity:1; fill:none" points="233.996,1410.22 233.996,47.2441 "/>
<polyline clip-path="url(#clip040)" style="stroke:#000000; stroke-linecap:round; stroke-linejoin:round; stroke-width:4; stroke-opacity:1; fill:none" points="2352.76,1410.22 2352.76,47.2441 "/>
<polyline clip-path="url(#clip040)" style="stroke:#000000; stroke-linecap:round; stroke-linejoin:round; stroke-width:4; stroke-opacity:1; fill:none" points="233.996,1191.05 252.894,1191.05 "/>
<polyline clip-path="url(#clip040)" style="stroke:#000000; stroke-linecap:round; stroke-linejoin:round; stroke-width:4; stroke-opacity:1; fill:none" points="233.996,946.714 252.894,946.714 "/>
<polyline clip-path="url(#clip040)" style="stroke:#000000; stroke-linecap:round; stroke-linejoin:round; stroke-width:4; stroke-opacity:1; fill:none" points="233.996,702.374 252.894,702.374 "/>
<polyline clip-path="url(#clip040)" style="stroke:#000000; stroke-linecap:round; stroke-linejoin:round; stroke-width:4; stroke-opacity:1; fill:none" points="233.996,458.035 252.894,458.035 "/>
<polyline clip-path="url(#clip040)" style="stroke:#000000; stroke-linecap:round; stroke-linejoin:round; stroke-width:4; stroke-opacity:1; fill:none" points="233.996,213.696 252.894,213.696 "/>
<path clip-path="url(#clip040)" d="M122.373 1192.43 Q122.373 1183.13 124.72 1178.07 Q127.993 1170.53 135.713 1170.53 Q137.349 1170.53 139.048 1171 Q140.777 1171.43 142.938 1173.13 Q145.131 1174.83 146.459 1177.61 Q148.991 1182.98 148.991 1192.43 Q148.991 1201.66 146.644 1206.69 Q143.216 1214.04 135.651 1214.04 Q132.81 1214.04 129.907 1212.59 Q127.036 1211.14 125.214 1207.65 Q122.373 1202.43 122.373 1192.43 M127.622 1191.66 Q127.622 1201.2 128.302 1204.99 Q129.074 1209.1 131.173 1210.89 Q133.304 1212.65 135.651 1212.65 Q138.183 1212.65 140.283 1210.77 Q142.413 1208.85 143.062 1204.75 Q143.772 1200.7 143.741 1191.66 Q143.741 1182.85 143.124 1179.33 Q142.29 1175.23 140.067 1173.59 Q137.874 1171.92 135.651 1171.92 Q134.817 1171.92 133.922 1172.17 Q133.057 1172.42 131.791 1173.13 Q130.525 1173.84 129.537 1175.6 Q128.58 1177.36 128.116 1180.01 Q127.622 1183.44 127.622 1191.66 Z" fill="#000000" fill-rule="nonzero" fill-opacity="1" /><path clip-path="url(#clip040)" d="M157.853 1211.63 Q156.896 1210.61 156.896 1209.29 Q156.896 1207.96 157.853 1207 Q158.81 1206.01 160.262 1206.01 Q161.651 1206.01 162.578 1206.94 Q163.535 1207.84 163.535 1209.32 Q163.535 1210.77 162.516 1211.73 Q161.528 1212.65 160.262 1212.65 Q158.81 1212.65 157.853 1211.63 Z" fill="#000000" fill-rule="nonzero" fill-opacity="1" /><path clip-path="url(#clip040)" d="M171.749 1192.67 Q171.749 1182.73 176.813 1176.65 Q181.877 1170.53 188.393 1170.53 Q192.191 1170.53 194.291 1172.48 Q196.421 1174.39 196.421 1177.36 Q196.421 1178.99 195.464 1179.7 Q194.507 1180.42 193.519 1180.42 Q192.376 1180.42 191.481 1179.64 Q190.585 1178.87 190.585 1177.48 Q190.585 1174.64 194.074 1174.64 Q192.438 1172.11 188.516 1172.11 Q187.312 1172.11 186.077 1172.48 Q184.841 1172.82 183.236 1173.99 Q181.63 1175.17 180.395 1177.02 Q179.16 1178.87 178.295 1182.36 Q177.43 1185.85 177.43 1190.39 L177.43 1191.9 Q180.024 1185.63 185.336 1185.66 Q190.647 1185.66 194.321 1189.71 Q197.996 1193.75 197.996 1199.75 Q197.996 1205.89 194.167 1209.97 Q190.338 1214.04 184.965 1214.04 Q182.556 1214.04 180.364 1213.02 Q178.202 1212.04 176.164 1209.75 Q174.157 1207.47 172.953 1203.08 Q171.749 1198.7 171.749 1192.67 M177.554 1198.36 Q177.554 1204.56 178.697 1207.53 Q178.882 1208.02 179.283 1208.7 Q179.716 1209.38 180.426 1210.28 Q181.167 1211.14 182.371 1211.73 Q183.575 1212.28 184.965 1212.28 Q189.195 1212.28 191.233 1208.18 Q192.314 1205.89 192.314 1199.68 Q192.314 1193.35 191.172 1191.04 Q189.226 1187.12 185.274 1187.12 Q182.618 1187.12 180.765 1188.94 Q178.944 1190.76 178.233 1193.2 Q177.554 1195.64 177.554 1198.36 Z" fill="#000000" fill-rule="nonzero" fill-opacity="1" /><path clip-path="url(#clip040)" d="M122.373 948.088 Q122.373 938.793 124.72 933.729 Q127.993 926.194 135.713 926.194 Q137.349 926.194 139.048 926.658 Q140.777 927.09 142.938 928.788 Q145.131 930.487 146.459 933.266 Q148.991 938.639 148.991 948.088 Q148.991 957.321 146.644 962.354 Q143.216 969.703 135.651 969.703 Q132.81 969.703 129.907 968.252 Q127.036 966.801 125.214 963.311 Q122.373 958.093 122.373 948.088 M127.622 947.316 Q127.622 956.858 128.302 960.656 Q129.074 964.763 131.173 966.554 Q133.304 968.314 135.651 968.314 Q138.183 968.314 140.283 966.43 Q142.413 964.516 143.062 960.409 Q143.772 956.363 143.741 947.316 Q143.741 938.515 143.124 934.995 Q142.29 930.888 140.067 929.252 Q137.874 927.584 135.651 927.584 Q134.817 927.584 133.922 927.831 Q133.057 928.078 131.791 928.788 Q130.525 929.499 129.537 931.259 Q128.58 933.019 128.116 935.674 Q127.622 939.102 127.622 947.316 Z" fill="#000000" fill-rule="nonzero" fill-opacity="1" /><path clip-path="url(#clip040)" d="M157.853 967.295 Q156.896 966.276 156.896 964.948 Q156.896 963.62 157.853 962.663 Q158.81 961.675 160.262 961.675 Q161.651 961.675 162.578 962.601 Q163.535 963.497 163.535 964.979 Q163.535 966.43 162.516 967.387 Q161.528 968.314 160.262 968.314 Q158.81 968.314 157.853 967.295 Z" fill="#000000" fill-rule="nonzero" fill-opacity="1" /><path clip-path="url(#clip040)" d="M171.749 940.43 Q171.749 937.064 172.737 934.779 Q173.725 932.463 175.794 930.178 Q179.592 926.194 185.089 926.194 Q187.435 926.194 189.504 927.183 Q191.604 928.171 193.58 930.425 Q195.587 932.648 196.792 937.064 Q197.996 941.449 197.996 947.501 Q197.996 957.29 193.241 963.497 Q188.516 969.703 182.124 969.703 Q178.079 969.703 175.701 967.881 Q173.324 966.029 173.324 962.879 Q173.324 961.242 174.25 960.563 Q175.176 959.853 176.226 959.853 Q177.369 959.853 178.264 960.625 Q179.16 961.366 179.16 962.755 Q179.16 963.898 178.419 964.793 Q177.708 965.658 175.856 965.658 Q177.678 967.943 182.062 967.943 Q183.637 967.943 185.212 967.233 Q186.787 966.492 188.485 964.732 Q190.214 962.941 191.264 959.204 Q192.314 955.468 192.314 950.219 L192.314 948.211 Q189.782 954.542 184.409 954.542 Q179.098 954.542 175.423 950.466 Q171.749 946.389 171.749 940.43 M177.43 940.492 Q177.43 946.76 178.573 949.076 Q180.518 953.059 184.471 953.059 Q188.331 953.059 190.245 949.632 Q192.191 946.173 192.191 941.696 Q192.191 935.489 191.172 932.772 Q189.288 927.769 185.089 927.769 Q180.92 927.769 178.758 931.753 Q177.43 934.1 177.43 940.492 Z" fill="#000000" fill-rule="nonzero" fill-opacity="1" /><path clip-path="url(#clip040)" d="M126.017 687.877 L126.017 685.9 Q133.613 685.9 137.535 681.855 Q138.615 681.855 138.801 682.102 Q138.986 682.349 138.986 683.492 L138.986 718.972 Q138.986 720.856 139.912 721.442 Q140.839 722.029 144.884 722.029 L146.891 722.029 L146.891 723.974 Q144.668 723.789 136.639 723.789 Q128.61 723.789 126.418 723.974 L126.418 722.029 L128.425 722.029 Q132.409 722.029 133.366 721.473 Q134.323 720.887 134.323 718.972 L134.323 686.209 Q131.019 687.877 126.017 687.877 Z" fill="#000000" fill-rule="nonzero" fill-opacity="1" /><path clip-path="url(#clip040)" d="M158.347 722.955 Q157.39 721.936 157.39 720.609 Q157.39 719.281 158.347 718.324 Q159.304 717.335 160.756 717.335 Q162.145 717.335 163.072 718.262 Q164.029 719.157 164.029 720.64 Q164.029 722.091 163.01 723.048 Q162.022 723.974 160.756 723.974 Q159.304 723.974 158.347 722.955 Z" fill="#000000" fill-rule="nonzero" fill-opacity="1" /><path clip-path="url(#clip040)" d="M172.737 723.974 Q172.737 722.832 172.829 722.492 Q172.953 722.153 173.447 721.628 L185.583 708.103 Q192.222 700.63 192.222 694.114 Q192.222 689.884 189.998 686.858 Q187.806 683.832 183.761 683.832 Q180.982 683.832 178.635 685.53 Q176.288 687.228 175.207 690.254 Q175.392 690.193 176.041 690.193 Q177.616 690.193 178.48 691.181 Q179.376 692.169 179.376 693.497 Q179.376 695.195 178.264 696.029 Q177.183 696.832 176.103 696.832 Q175.67 696.832 175.084 696.739 Q174.528 696.646 173.632 695.782 Q172.737 694.886 172.737 693.311 Q172.737 688.896 176.072 685.375 Q179.438 681.855 184.564 681.855 Q190.369 681.855 194.167 685.314 Q197.996 688.741 197.996 694.114 Q197.996 695.998 197.409 697.727 Q196.853 699.426 196.082 700.753 Q195.34 702.081 193.302 704.212 Q191.264 706.342 189.628 707.856 Q187.991 709.369 184.317 712.58 L177.616 719.096 L189.01 719.096 Q194.568 719.096 195.001 718.602 Q195.618 717.706 196.39 712.981 L197.996 712.981 L196.205 723.974 L172.737 723.974 Z" fill="#000000" fill-rule="nonzero" fill-opacity="1" /><path clip-path="url(#clip040)" d="M126.017 443.537 L126.017 441.561 Q133.613 441.561 137.535 437.516 Q138.615 437.516 138.801 437.763 Q138.986 438.01 138.986 439.153 L138.986 474.633 Q138.986 476.516 139.912 477.103 Q140.839 477.69 144.884 477.69 L146.891 477.69 L146.891 479.635 Q144.668 479.45 136.639 479.45 Q128.61 479.45 126.418 479.635 L126.418 477.69 L128.425 477.69 Q132.409 477.69 133.366 477.134 Q134.323 476.547 134.323 474.633 L134.323 441.87 Q131.019 443.537 126.017 443.537 Z" fill="#000000" fill-rule="nonzero" fill-opacity="1" /><path clip-path="url(#clip040)" d="M158.347 478.616 Q157.39 477.597 157.39 476.269 Q157.39 474.942 158.347 473.984 Q159.304 472.996 160.756 472.996 Q162.145 472.996 163.072 473.923 Q164.029 474.818 164.029 476.3 Q164.029 477.752 163.01 478.709 Q162.022 479.635 160.756 479.635 Q159.304 479.635 158.347 478.616 Z" fill="#000000" fill-rule="nonzero" fill-opacity="1" /><path clip-path="url(#clip040)" d="M172.737 469.445 Q172.737 467.562 173.756 466.851 Q174.775 466.11 175.856 466.11 Q177.307 466.11 178.141 467.037 Q179.005 467.932 179.005 469.198 Q179.005 470.464 178.141 471.391 Q177.307 472.286 175.856 472.286 Q175.145 472.286 174.775 472.163 Q175.609 475.065 178.141 477.165 Q180.704 479.265 184.07 479.265 Q188.3 479.265 190.832 475.158 Q192.345 472.502 192.345 466.481 Q192.345 461.17 191.203 458.514 Q189.442 454.469 185.83 454.469 Q180.704 454.469 177.678 458.884 Q177.307 459.44 176.875 459.471 Q176.257 459.471 176.103 459.131 Q175.979 458.761 175.979 457.804 L175.979 439.091 Q175.979 437.578 176.597 437.578 Q176.844 437.578 177.369 437.763 Q181.352 439.523 185.768 439.554 Q190.307 439.554 194.383 437.701 Q194.692 437.516 194.877 437.516 Q195.495 437.516 195.526 438.226 Q195.526 438.473 195.001 439.214 Q194.507 439.925 193.426 440.882 Q192.345 441.808 190.956 442.704 Q189.566 443.599 187.528 444.217 Q185.521 444.804 183.298 444.804 Q180.642 444.804 177.925 443.97 L177.925 456.291 Q181.198 453.079 185.953 453.079 Q191.017 453.079 194.507 457.155 Q197.996 461.231 197.996 466.913 Q197.996 472.873 193.858 476.949 Q189.751 481.025 184.193 481.025 Q179.129 481.025 175.917 477.412 Q172.737 473.799 172.737 469.445 Z" fill="#000000" fill-rule="nonzero" fill-opacity="1" /><path clip-path="url(#clip040)" d="M125.523 199.198 L125.523 197.222 Q133.119 197.222 137.04 193.177 Q138.121 193.177 138.307 193.424 Q138.492 193.671 138.492 194.813 L138.492 230.294 Q138.492 232.177 139.418 232.764 Q140.345 233.351 144.39 233.351 L146.397 233.351 L146.397 235.296 Q144.174 235.111 136.145 235.111 Q128.116 235.111 125.924 235.296 L125.924 233.351 L127.931 233.351 Q131.915 233.351 132.872 232.795 Q133.829 232.208 133.829 230.294 L133.829 197.531 Q130.525 199.198 125.523 199.198 Z" fill="#000000" fill-rule="nonzero" fill-opacity="1" /><path clip-path="url(#clip040)" d="M157.853 234.277 Q156.896 233.258 156.896 231.93 Q156.896 230.602 157.853 229.645 Q158.81 228.657 160.262 228.657 Q161.651 228.657 162.578 229.583 Q163.535 230.479 163.535 231.961 Q163.535 233.412 162.516 234.37 Q161.528 235.296 160.262 235.296 Q158.81 235.296 157.853 234.277 Z" fill="#000000" fill-rule="nonzero" fill-opacity="1" /><path clip-path="url(#clip040)" d="M171.749 225.754 Q171.749 218.683 180.858 214.113 Q176.936 211.457 176.226 210.685 Q173.447 207.597 173.447 203.738 Q173.447 199.322 176.782 196.265 Q180.148 193.177 184.903 193.177 Q189.442 193.177 192.87 195.802 Q196.298 198.426 196.298 202.595 Q196.298 208.462 188.64 212.415 Q193.704 215.564 194.908 216.892 Q197.996 220.32 197.996 224.674 Q197.996 229.738 194.105 233.227 Q190.214 236.686 184.841 236.686 Q179.592 236.686 175.67 233.629 Q171.749 230.572 171.749 225.754 M174.898 225.754 Q174.898 229.676 177.832 232.301 Q180.796 234.926 184.903 234.926 Q188.887 234.926 191.851 232.64 Q194.846 230.355 194.846 226.959 Q194.846 225.631 194.383 224.488 Q193.951 223.346 193.055 222.45 Q192.191 221.524 191.635 221.123 Q191.11 220.69 190.091 219.98 L182.309 215.07 Q174.898 219.177 174.898 225.754 M176.226 201.267 Q176.226 204.293 179.407 206.393 L187.25 211.457 Q193.519 207.783 193.519 202.595 Q193.519 199.229 190.956 197.006 Q188.393 194.752 184.841 194.752 Q181.352 194.752 178.789 196.604 Q176.226 198.426 176.226 201.267 Z" fill="#000000" fill-rule="nonzero" fill-opacity="1" /><path clip-path="url(#clip040)" d="M11.6123 743.248 Q12.6312 743.248 12.842 743.705 Q13.0528 744.127 13.0528 745.672 Q13.0528 748.307 13.4041 749.502 Q13.7203 750.661 14.2824 751.013 Q14.8094 751.329 16.3553 751.715 L55.2132 761.447 Q55.2483 761.447 55.7402 761.553 Q56.1969 761.658 56.4428 761.658 Q56.8996 761.658 57.1806 761.377 Q57.4617 761.061 57.6023 760.288 Q57.7077 759.515 57.7428 758.918 Q57.7428 758.285 57.7428 756.985 Q57.7428 755.369 58.0239 755.123 Q58.1995 754.983 58.5157 754.983 Q59.1833 754.983 59.5346 755.264 Q59.8508 755.51 59.9211 755.756 Q59.9562 755.967 59.9562 756.388 Q59.9562 757.126 59.8859 758.707 Q59.8157 760.288 59.8157 761.096 L59.7454 765.699 L59.9562 774.833 Q59.9562 775.817 59.1481 775.817 Q58.4455 775.817 58.1293 775.571 Q57.8131 775.325 57.7779 775.079 Q57.7428 774.798 57.7428 774.096 Q57.7428 770.477 57.3915 769.282 Q57.005 768.053 55.3537 767.561 L35.5032 762.607 L35.5032 784.53 L55.2132 789.449 Q55.2483 789.449 55.7402 789.554 Q56.1969 789.66 56.4428 789.66 Q56.8996 789.66 57.1806 789.379 Q57.4617 789.062 57.6023 788.29 Q57.7077 787.517 57.7428 786.919 Q57.7428 786.287 57.7428 784.987 Q57.7428 783.371 58.0239 783.09 Q58.1995 782.949 58.5157 782.949 Q59.0076 782.949 59.3589 783.09 Q59.6751 783.195 59.7805 783.476 Q59.8859 783.722 59.9211 783.898 Q59.9562 784.073 59.9562 784.39 Q59.9562 785.127 59.8859 786.709 Q59.8157 788.254 59.8157 789.062 L59.7454 793.665 L59.9562 802.8 Q59.9562 803.819 59.1481 803.819 Q58.4455 803.819 58.1644 803.573 Q57.8482 803.327 57.8131 803.011 Q57.7428 802.694 57.7428 801.886 Q57.7428 800.13 57.6374 799.076 Q57.532 798.022 57.3915 797.354 Q57.2158 796.651 56.7239 796.3 Q56.232 795.914 55.8104 795.738 Q55.3537 795.562 54.3348 795.316 L15.6878 785.69 Q14.5284 785.409 14.3527 785.409 Q13.6852 785.409 13.5095 785.83 Q13.2987 786.217 13.1933 787.341 L13.0528 790.081 Q13.0528 790.925 13.0176 791.276 Q12.9825 791.592 12.8068 791.838 Q12.6312 792.084 12.2447 792.084 Q11.7528 792.084 11.4366 791.979 Q11.0853 791.838 10.9799 791.592 Q10.8745 791.346 10.8393 791.17 Q10.8042 790.995 10.8042 790.714 L11.015 781.438 L10.8042 772.233 Q10.8042 771.215 11.6123 771.215 Q12.6312 771.215 12.842 771.671 Q13.0528 772.128 13.0528 773.674 Q13.0528 776.239 13.4041 777.433 Q13.7203 778.628 14.2824 779.014 Q14.8446 779.366 16.3553 779.717 L33.2546 783.968 L33.2546 762.01 L15.6878 757.688 Q14.423 757.407 14.3527 757.407 Q13.6852 757.407 13.5095 757.829 Q13.2987 758.215 13.1933 759.339 L13.0528 762.08 Q13.0528 762.923 13.0176 763.274 Q12.9825 763.591 12.8068 763.872 Q12.6312 764.118 12.2447 764.118 Q11.7528 764.118 11.4366 764.012 Q11.0853 763.872 10.9799 763.626 Q10.8745 763.38 10.8393 763.204 Q10.8042 763.028 10.8042 762.747 L11.015 753.472 L10.8042 744.232 Q10.8042 743.248 11.6123 743.248 Z" fill="#000000" fill-rule="nonzero" fill-opacity="1" /><path clip-path="url(#clip040)" d="M53.5976 736.154 L52.0236 736.154 Q52.0236 730.104 48.8018 726.981 Q48.8018 726.12 48.9986 725.972 Q49.1953 725.825 50.1053 725.825 L78.3633 725.825 Q79.8635 725.825 80.3308 725.087 Q80.7981 724.349 80.7981 721.128 L80.7981 719.529 L82.3475 719.529 Q82.1999 721.3 82.1999 727.694 Q82.1999 734.088 82.3475 735.835 L80.7981 735.835 L80.7981 734.236 Q80.7981 731.063 80.3554 730.301 Q79.8881 729.539 78.3633 729.539 L52.2695 729.539 Q53.5976 732.17 53.5976 736.154 Z" fill="#000000" fill-rule="nonzero" fill-opacity="1" /><path clip-path="url(#clip040)" d="M94.2262 711.211 Q93.9802 711.211 93.4392 711.015 L45.9244 693.233 Q45.8752 693.233 45.6047 693.11 Q45.3341 692.987 45.162 692.914 Q44.9652 692.84 44.8177 692.692 Q44.6701 692.52 44.6701 692.323 Q44.6701 691.832 45.285 691.832 Q45.3341 691.832 45.9244 691.979 L93.4883 709.809 Q94.3491 710.105 94.5951 710.301 Q94.841 710.473 94.841 710.769 Q94.841 711.211 94.2262 711.211 Z" fill="#000000" fill-rule="nonzero" fill-opacity="1" /><path clip-path="url(#clip040)" d="M82.3475 686.268 Q81.4375 686.268 81.167 686.195 Q80.8964 686.096 80.4783 685.703 L69.7064 676.037 Q63.7547 670.75 58.5655 670.75 Q55.1962 670.75 52.786 672.52 Q50.3758 674.267 50.3758 677.488 Q50.3758 679.702 51.7285 681.571 Q53.0811 683.44 55.4913 684.301 Q55.4421 684.153 55.4421 683.637 Q55.4421 682.383 56.2291 681.694 Q57.0161 680.981 58.0736 680.981 Q59.4263 680.981 60.0903 681.866 Q60.7297 682.727 60.7297 683.588 Q60.7297 683.932 60.6559 684.399 Q60.5822 684.842 59.8935 685.555 Q59.1803 686.268 57.926 686.268 Q54.4092 686.268 51.6055 683.612 Q48.8018 680.931 48.8018 676.849 Q48.8018 672.225 51.5563 669.2 Q54.2862 666.151 58.5655 666.151 Q60.0657 666.151 61.4429 666.618 Q62.7956 667.061 63.8531 667.676 Q64.9106 668.266 66.6076 669.889 Q68.3045 671.512 69.5096 672.816 Q70.7147 674.119 73.2724 677.046 L78.4617 682.383 L78.4617 673.307 Q78.4617 668.881 78.0682 668.536 Q77.355 668.044 73.5921 667.43 L73.5921 666.151 L82.3475 667.577 L82.3475 686.268 Z" fill="#000000" fill-rule="nonzero" fill-opacity="1" /><polyline clip-path="url(#clip042)" style="stroke:#009af9; stroke-linecap:round; stroke-linejoin:round; stroke-width:4; stroke-opacity:1; fill:none" points="2292.79,324.64 1959.65,567.733 1293.38,1028.08 960.238,1132.51 627.099,1184.05 293.961,1323.04 "/>
<path clip-path="url(#clip042)" d="M2276.79 308.64 L2276.79 340.64 L2308.79 340.64 L2308.79 308.64 L2276.79 308.64 Z" fill="#009af9" fill-rule="evenodd" fill-opacity="1" stroke="#000000" stroke-opacity="1" stroke-width="3.2"/>
<path clip-path="url(#clip042)" d="M1943.65 551.733 L1943.65 583.733 L1975.65 583.733 L1975.65 551.733 L1943.65 551.733 Z" fill="#009af9" fill-rule="evenodd" fill-opacity="1" stroke="#000000" stroke-opacity="1" stroke-width="3.2"/>
<path clip-path="url(#clip042)" d="M1277.38 1012.08 L1277.38 1044.08 L1309.38 1044.08 L1309.38 1012.08 L1277.38 1012.08 Z" fill="#009af9" fill-rule="evenodd" fill-opacity="1" stroke="#000000" stroke-opacity="1" stroke-width="3.2"/>
<path clip-path="url(#clip042)" d="M944.238 1116.51 L944.238 1148.51 L976.238 1148.51 L976.238 1116.51 L944.238 1116.51 Z" fill="#009af9" fill-rule="evenodd" fill-opacity="1" stroke="#000000" stroke-opacity="1" stroke-width="3.2"/>
<path clip-path="url(#clip042)" d="M611.099 1168.05 L611.099 1200.05 L643.099 1200.05 L643.099 1168.05 L611.099 1168.05 Z" fill="#009af9" fill-rule="evenodd" fill-opacity="1" stroke="#000000" stroke-opacity="1" stroke-width="3.2"/>
<path clip-path="url(#clip042)" d="M277.961 1307.04 L277.961 1339.04 L309.961 1339.04 L309.961 1307.04 L277.961 1307.04 Z" fill="#009af9" fill-rule="evenodd" fill-opacity="1" stroke="#000000" stroke-opacity="1" stroke-width="3.2"/>
<polyline clip-path="url(#clip042)" style="stroke:#000000; stroke-linecap:round; stroke-linejoin:round; stroke-width:4; stroke-opacity:1; fill:none" points="2292.79,328.066 2292.79,321.214 "/>
<polyline clip-path="url(#clip042)" style="stroke:#000000; stroke-linecap:round; stroke-linejoin:round; stroke-width:4; stroke-opacity:1; fill:none" points="1959.65,590.044 1959.65,545.421 "/>
<polyline clip-path="url(#clip042)" style="stroke:#000000; stroke-linecap:round; stroke-linejoin:round; stroke-width:4; stroke-opacity:1; fill:none" points="1293.38,1059.47 1293.38,996.697 "/>
<polyline clip-path="url(#clip042)" style="stroke:#000000; stroke-linecap:round; stroke-linejoin:round; stroke-width:4; stroke-opacity:1; fill:none" points="960.238,1180.93 960.238,1084.1 "/>
<polyline clip-path="url(#clip042)" style="stroke:#000000; stroke-linecap:round; stroke-linejoin:round; stroke-width:4; stroke-opacity:1; fill:none" points="627.099,1232.49 627.099,1135.61 "/>
<polyline clip-path="url(#clip042)" style="stroke:#000000; stroke-linecap:round; stroke-linejoin:round; stroke-width:4; stroke-opacity:1; fill:none" points="293.961,1371.65 293.961,1274.43 "/>
<line clip-path="url(#clip042)" x1="2308.79" y1="328.066" x2="2276.79" y2="328.066" style="stroke:#000000; stroke-width:4; stroke-opacity:1"/>
<line clip-path="url(#clip042)" x1="2308.79" y1="321.214" x2="2276.79" y2="321.214" style="stroke:#000000; stroke-width:4; stroke-opacity:1"/>
<line clip-path="url(#clip042)" x1="1975.65" y1="590.044" x2="1943.65" y2="590.044" style="stroke:#000000; stroke-width:4; stroke-opacity:1"/>
<line clip-path="url(#clip042)" x1="1975.65" y1="545.421" x2="1943.65" y2="545.421" style="stroke:#000000; stroke-width:4; stroke-opacity:1"/>
<line clip-path="url(#clip042)" x1="1309.38" y1="1059.47" x2="1277.38" y2="1059.47" style="stroke:#000000; stroke-width:4; stroke-opacity:1"/>
<line clip-path="url(#clip042)" x1="1309.38" y1="996.697" x2="1277.38" y2="996.697" style="stroke:#000000; stroke-width:4; stroke-opacity:1"/>
<line clip-path="url(#clip042)" x1="976.238" y1="1180.93" x2="944.238" y2="1180.93" style="stroke:#000000; stroke-width:4; stroke-opacity:1"/>
<line clip-path="url(#clip042)" x1="976.238" y1="1084.1" x2="944.238" y2="1084.1" style="stroke:#000000; stroke-width:4; stroke-opacity:1"/>
<line clip-path="url(#clip042)" x1="643.099" y1="1232.49" x2="611.099" y2="1232.49" style="stroke:#000000; stroke-width:4; stroke-opacity:1"/>
<line clip-path="url(#clip042)" x1="643.099" y1="1135.61" x2="611.099" y2="1135.61" style="stroke:#000000; stroke-width:4; stroke-opacity:1"/>
<line clip-path="url(#clip042)" x1="309.961" y1="1371.65" x2="277.961" y2="1371.65" style="stroke:#000000; stroke-width:4; stroke-opacity:1"/>
<line clip-path="url(#clip042)" x1="309.961" y1="1274.43" x2="277.961" y2="1274.43" style="stroke:#000000; stroke-width:4; stroke-opacity:1"/>
<polyline clip-path="url(#clip042)" style="stroke:#e26f46; stroke-linecap:round; stroke-linejoin:round; stroke-width:4; stroke-opacity:1; fill:none" points="2292.79,87.0412 1959.65,120.334 1293.38,280.738 960.238,359.581 627.099,460.597 293.961,500.866 "/>
<circle clip-path="url(#clip042)" cx="2292.79" cy="87.0412" r="18" fill="#e26f46" fill-rule="evenodd" fill-opacity="1" stroke="#000000" stroke-opacity="1" stroke-width="3.2"/>
<circle clip-path="url(#clip042)" cx="1959.65" cy="120.334" r="18" fill="#e26f46" fill-rule="evenodd" fill-opacity="1" stroke="#000000" stroke-opacity="1" stroke-width="3.2"/>
<circle clip-path="url(#clip042)" cx="1293.38" cy="280.738" r="18" fill="#e26f46" fill-rule="evenodd" fill-opacity="1" stroke="#000000" stroke-opacity="1" stroke-width="3.2"/>
<circle clip-path="url(#clip042)" cx="960.238" cy="359.581" r="18" fill="#e26f46" fill-rule="evenodd" fill-opacity="1" stroke="#000000" stroke-opacity="1" stroke-width="3.2"/>
<circle clip-path="url(#clip042)" cx="627.099" cy="460.597" r="18" fill="#e26f46" fill-rule="evenodd" fill-opacity="1" stroke="#000000" stroke-opacity="1" stroke-width="3.2"/>
<circle clip-path="url(#clip042)" cx="293.961" cy="500.866" r="18" fill="#e26f46" fill-rule="evenodd" fill-opacity="1" stroke="#000000" stroke-opacity="1" stroke-width="3.2"/>
<polyline clip-path="url(#clip042)" style="stroke:#000000; stroke-linecap:round; stroke-linejoin:round; stroke-width:4; stroke-opacity:1; fill:none" points="2292.79,88.2635 2292.79,85.8189 "/>
<polyline clip-path="url(#clip042)" style="stroke:#000000; stroke-linecap:round; stroke-linejoin:round; stroke-width:4; stroke-opacity:1; fill:none" points="1959.65,123.11 1959.65,117.557 "/>
<polyline clip-path="url(#clip042)" style="stroke:#000000; stroke-linecap:round; stroke-linejoin:round; stroke-width:4; stroke-opacity:1; fill:none" points="1293.38,296.144 1293.38,265.332 "/>
<polyline clip-path="url(#clip042)" style="stroke:#000000; stroke-linecap:round; stroke-linejoin:round; stroke-width:4; stroke-opacity:1; fill:none" points="960.238,375.424 960.238,343.739 "/>
<polyline clip-path="url(#clip042)" style="stroke:#000000; stroke-linecap:round; stroke-linejoin:round; stroke-width:4; stroke-opacity:1; fill:none" points="627.099,485.777 627.099,435.418 "/>
<polyline clip-path="url(#clip042)" style="stroke:#000000; stroke-linecap:round; stroke-linejoin:round; stroke-width:4; stroke-opacity:1; fill:none" points="293.961,531.223 293.961,470.509 "/>
<line clip-path="url(#clip042)" x1="2312.79" y1="88.2635" x2="2272.79" y2="88.2635" style="stroke:#000000; stroke-width:4; stroke-opacity:1"/>
<line clip-path="url(#clip042)" x1="2312.79" y1="85.8189" x2="2272.79" y2="85.8189" style="stroke:#000000; stroke-width:4; stroke-opacity:1"/>
<line clip-path="url(#clip042)" x1="1979.65" y1="123.11" x2="1939.65" y2="123.11" style="stroke:#000000; stroke-width:4; stroke-opacity:1"/>
<line clip-path="url(#clip042)" x1="1979.65" y1="117.557" x2="1939.65" y2="117.557" style="stroke:#000000; stroke-width:4; stroke-opacity:1"/>
<line clip-path="url(#clip042)" x1="1313.38" y1="296.144" x2="1273.38" y2="296.144" style="stroke:#000000; stroke-width:4; stroke-opacity:1"/>
<line clip-path="url(#clip042)" x1="1313.38" y1="265.332" x2="1273.38" y2="265.332" style="stroke:#000000; stroke-width:4; stroke-opacity:1"/>
<line clip-path="url(#clip042)" x1="980.238" y1="375.424" x2="940.238" y2="375.424" style="stroke:#000000; stroke-width:4; stroke-opacity:1"/>
<line clip-path="url(#clip042)" x1="980.238" y1="343.739" x2="940.238" y2="343.739" style="stroke:#000000; stroke-width:4; stroke-opacity:1"/>
<line clip-path="url(#clip042)" x1="647.099" y1="485.777" x2="607.099" y2="485.777" style="stroke:#000000; stroke-width:4; stroke-opacity:1"/>
<line clip-path="url(#clip042)" x1="647.099" y1="435.418" x2="607.099" y2="435.418" style="stroke:#000000; stroke-width:4; stroke-opacity:1"/>
<line clip-path="url(#clip042)" x1="313.961" y1="531.223" x2="273.961" y2="531.223" style="stroke:#000000; stroke-width:4; stroke-opacity:1"/>
<line clip-path="url(#clip042)" x1="313.961" y1="470.509" x2="273.961" y2="470.509" style="stroke:#000000; stroke-width:4; stroke-opacity:1"/>
<path clip-path="url(#clip040)" d="M1854.49 1364.79 L2282.13 1364.79 L2282.13 1114.44 L1854.49 1114.44  Z" fill="#ffffff" fill-rule="evenodd" fill-opacity="1"/>
<polyline clip-path="url(#clip040)" style="stroke:#000000; stroke-linecap:round; stroke-linejoin:round; stroke-width:4; stroke-opacity:0; fill:none" points="1854.49,1364.79 2282.13,1364.79 2282.13,1114.44 1854.49,1114.44 1854.49,1364.79 "/>
<polyline clip-path="url(#clip040)" style="stroke:#009af9; stroke-linecap:round; stroke-linejoin:round; stroke-width:6; stroke-opacity:1; fill:none" points="1878.03,1197.89 2019.28,1197.89 "/>
<path clip-path="url(#clip040)" d="M1935.11 1184.35 L1935.11 1211.43 L1962.2 1211.43 L1962.2 1184.35 L1935.11 1184.35 Z" fill="#009af9" fill-rule="evenodd" fill-opacity="1" stroke="#000000" stroke-opacity="1" stroke-width="6.82667"/>
<path clip-path="url(#clip040)" d="M2103.39 1156.51 Q2103.39 1157.53 2102.94 1157.74 Q2102.52 1157.95 2100.97 1157.95 Q2098.33 1157.95 2097.14 1158.3 Q2095.98 1158.62 2095.63 1159.18 Q2095.31 1159.71 2094.93 1161.25 L2085.19 1200.11 Q2085.19 1200.14 2085.09 1200.64 Q2084.98 1201.09 2084.98 1201.34 Q2084.98 1201.8 2085.26 1202.08 Q2085.58 1202.36 2086.35 1202.5 Q2087.13 1202.6 2087.72 1202.64 Q2088.36 1202.64 2089.66 1202.64 Q2091.27 1202.64 2091.52 1202.92 Q2091.66 1203.1 2091.66 1203.41 Q2091.66 1204.08 2091.38 1204.43 Q2091.13 1204.75 2090.89 1204.82 Q2090.68 1204.85 2090.25 1204.85 Q2089.52 1204.85 2087.93 1204.78 Q2086.35 1204.71 2085.55 1204.71 L2080.94 1204.64 L2071.81 1204.85 Q2070.82 1204.85 2070.82 1204.04 Q2070.82 1203.34 2071.07 1203.03 Q2071.32 1202.71 2071.56 1202.67 Q2071.84 1202.64 2072.55 1202.64 Q2076.17 1202.64 2077.36 1202.29 Q2078.59 1201.9 2079.08 1200.25 L2084.04 1180.4 L2062.11 1180.4 L2057.19 1200.11 Q2057.19 1200.14 2057.09 1200.64 Q2056.98 1201.09 2056.98 1201.34 Q2056.98 1201.8 2057.26 1202.08 Q2057.58 1202.36 2058.35 1202.5 Q2059.13 1202.6 2059.72 1202.64 Q2060.36 1202.64 2061.65 1202.64 Q2063.27 1202.64 2063.55 1202.92 Q2063.69 1203.1 2063.69 1203.41 Q2063.69 1203.9 2063.55 1204.25 Q2063.45 1204.57 2063.17 1204.68 Q2062.92 1204.78 2062.74 1204.82 Q2062.57 1204.85 2062.25 1204.85 Q2061.51 1204.85 2059.93 1204.78 Q2058.39 1204.71 2057.58 1204.71 L2052.98 1204.64 L2043.84 1204.85 Q2042.82 1204.85 2042.82 1204.04 Q2042.82 1203.34 2043.07 1203.06 Q2043.32 1202.74 2043.63 1202.71 Q2043.95 1202.64 2044.76 1202.64 Q2046.51 1202.64 2047.57 1202.53 Q2048.62 1202.43 2049.29 1202.29 Q2049.99 1202.11 2050.34 1201.62 Q2050.73 1201.13 2050.9 1200.71 Q2051.08 1200.25 2051.33 1199.23 L2060.95 1160.58 Q2061.23 1159.42 2061.23 1159.25 Q2061.23 1158.58 2060.81 1158.41 Q2060.43 1158.19 2059.3 1158.09 L2056.56 1157.95 Q2055.72 1157.95 2055.37 1157.91 Q2055.05 1157.88 2054.8 1157.7 Q2054.56 1157.53 2054.56 1157.14 Q2054.56 1156.65 2054.66 1156.33 Q2054.8 1155.98 2055.05 1155.88 Q2055.3 1155.77 2055.47 1155.74 Q2055.65 1155.7 2055.93 1155.7 L2065.2 1155.91 L2074.41 1155.7 Q2075.43 1155.7 2075.43 1156.51 Q2075.43 1157.53 2074.97 1157.74 Q2074.51 1157.95 2072.97 1157.95 Q2070.4 1157.95 2069.21 1158.3 Q2068.01 1158.62 2067.63 1159.18 Q2067.28 1159.74 2066.93 1161.25 L2062.67 1178.15 L2084.63 1178.15 L2088.95 1160.58 Q2089.23 1159.32 2089.23 1159.25 Q2089.23 1158.58 2088.81 1158.41 Q2088.43 1158.19 2087.3 1158.09 L2084.56 1157.95 Q2083.72 1157.95 2083.37 1157.91 Q2083.05 1157.88 2082.77 1157.7 Q2082.52 1157.53 2082.52 1157.14 Q2082.52 1156.65 2082.63 1156.33 Q2082.77 1155.98 2083.02 1155.88 Q2083.26 1155.77 2083.44 1155.74 Q2083.61 1155.7 2083.89 1155.7 L2093.17 1155.91 L2102.41 1155.7 Q2103.39 1155.7 2103.39 1156.51 Z" fill="#000000" fill-rule="nonzero" fill-opacity="1" /><path clip-path="url(#clip040)" d="M2110.49 1198.49 L2110.49 1196.92 Q2116.54 1196.92 2119.66 1193.7 Q2120.52 1193.7 2120.67 1193.89 Q2120.82 1194.09 2120.82 1195 L2120.82 1223.26 Q2120.82 1224.76 2121.55 1225.23 Q2122.29 1225.69 2125.51 1225.69 L2127.11 1225.69 L2127.11 1227.24 Q2125.34 1227.1 2118.95 1227.1 Q2112.55 1227.1 2110.81 1227.24 L2110.81 1225.69 L2112.41 1225.69 Q2115.58 1225.69 2116.34 1225.25 Q2117.1 1224.78 2117.1 1223.26 L2117.1 1197.17 Q2114.47 1198.49 2110.49 1198.49 Z" fill="#000000" fill-rule="nonzero" fill-opacity="1" /><path clip-path="url(#clip040)" d="M2135.43 1239.12 Q2135.43 1238.88 2135.63 1238.34 L2153.41 1190.82 Q2153.41 1190.77 2153.53 1190.5 Q2153.65 1190.23 2153.73 1190.06 Q2153.8 1189.86 2153.95 1189.71 Q2154.12 1189.57 2154.32 1189.57 Q2154.81 1189.57 2154.81 1190.18 Q2154.81 1190.23 2154.66 1190.82 L2136.83 1238.38 Q2136.54 1239.25 2136.34 1239.49 Q2136.17 1239.74 2135.87 1239.74 Q2135.43 1239.74 2135.43 1239.12 Z" fill="#000000" fill-rule="nonzero" fill-opacity="1" /><path clip-path="url(#clip040)" d="M2160.37 1227.24 Q2160.37 1226.33 2160.45 1226.06 Q2160.55 1225.79 2160.94 1225.37 L2170.6 1214.6 Q2175.89 1208.65 2175.89 1203.46 Q2175.89 1200.09 2174.12 1197.68 Q2172.38 1195.27 2169.15 1195.27 Q2166.94 1195.27 2165.07 1196.62 Q2163.2 1197.98 2162.34 1200.39 Q2162.49 1200.34 2163.01 1200.34 Q2164.26 1200.34 2164.95 1201.13 Q2165.66 1201.91 2165.66 1202.97 Q2165.66 1204.32 2164.78 1204.99 Q2163.92 1205.63 2163.05 1205.63 Q2162.71 1205.63 2162.24 1205.55 Q2161.8 1205.48 2161.09 1204.79 Q2160.37 1204.08 2160.37 1202.82 Q2160.37 1199.31 2163.03 1196.5 Q2165.71 1193.7 2169.79 1193.7 Q2174.42 1193.7 2177.44 1196.45 Q2180.49 1199.18 2180.49 1203.46 Q2180.49 1204.96 2180.02 1206.34 Q2179.58 1207.69 2178.97 1208.75 Q2178.38 1209.81 2176.75 1211.5 Q2175.13 1213.2 2173.83 1214.41 Q2172.52 1215.61 2169.6 1218.17 L2164.26 1223.36 L2173.33 1223.36 Q2177.76 1223.36 2178.11 1222.96 Q2178.6 1222.25 2179.21 1218.49 L2180.49 1218.49 L2179.06 1227.24 L2160.37 1227.24 Z" fill="#000000" fill-rule="nonzero" fill-opacity="1" /><path clip-path="url(#clip040)" d="M2186.03 1226.43 Q2185.32 1225.62 2185.32 1224.56 Q2185.32 1223.51 2186.01 1222.72 Q2186.72 1221.91 2188 1221.91 Q2189.5 1221.91 2190.36 1223.36 Q2191.22 1224.78 2191.22 1227.19 Q2191.22 1229.8 2190.16 1232.21 Q2189.1 1234.65 2188.07 1235.8 Q2187.04 1236.96 2186.62 1236.96 Q2186.13 1236.96 2186.13 1236.42 Q2186.13 1236.22 2186.47 1235.85 Q2190.09 1231.97 2190.11 1227.19 Q2190.11 1226.43 2190.01 1226.43 L2189.89 1226.53 Q2189.03 1227.24 2188 1227.24 Q2186.74 1227.24 2186.03 1226.43 Z" fill="#000000" fill-rule="nonzero" fill-opacity="1" /><path clip-path="url(#clip040)" d="M2248.38 1220.04 Q2248.38 1220.23 2248.16 1221 Q2247.94 1221.76 2247.4 1222.94 Q2246.88 1224.12 2246.14 1225.2 Q2245.43 1226.26 2244.25 1227.05 Q2243.09 1227.81 2241.76 1227.81 Q2239.99 1227.81 2238.81 1226.63 Q2237.63 1225.45 2237.63 1223.68 Q2237.63 1222.72 2238.3 1220.9 Q2241.42 1212.59 2241.42 1209.61 Q2241.42 1206.09 2238.69 1206.09 Q2237.14 1206.09 2235.74 1206.73 Q2234.34 1207.37 2233.43 1208.26 Q2232.52 1209.14 2231.8 1210.15 Q2231.09 1211.16 2230.77 1211.82 Q2230.48 1212.49 2230.4 1212.78 L2227.38 1224.93 Q2227.13 1225.96 2226.96 1226.46 Q2226.79 1226.95 2226.32 1227.37 Q2225.85 1227.81 2225.11 1227.81 Q2224.5 1227.81 2224.06 1227.44 Q2223.64 1227.07 2223.64 1226.43 Q2223.64 1226.33 2223.76 1225.82 Q2223.89 1225.3 2224.06 1224.59 Q2224.23 1223.87 2224.3 1223.46 Q2225.19 1220.11 2225.31 1219.64 L2226.71 1213.79 Q2227.48 1210.89 2227.48 1209.61 Q2227.48 1206.09 2224.75 1206.09 Q2223.39 1206.09 2222.11 1206.61 Q2220.86 1207.1 2220 1207.79 Q2219.14 1208.48 2218.35 1209.44 Q2217.59 1210.37 2217.2 1211.01 Q2216.83 1211.63 2216.53 1212.24 L2215.89 1214.75 Q2215.74 1215.44 2215.03 1218.12 L2213.92 1222.67 Q2213.14 1226.06 2212.97 1226.38 Q2212.72 1227.07 2212.18 1227.44 Q2211.64 1227.81 2211.1 1227.81 Q2210.48 1227.81 2210.06 1227.44 Q2209.65 1227.07 2209.65 1226.43 Q2209.65 1226.33 2209.72 1225.96 Q2209.79 1225.6 2209.92 1225.08 Q2210.04 1224.56 2210.09 1224.27 L2213.01 1212.63 Q2213.56 1210.52 2213.68 1209.86 Q2213.83 1209.17 2213.83 1208.4 Q2213.83 1206.09 2212.25 1206.09 Q2210.97 1206.09 2210.14 1207.62 Q2209.3 1209.14 2208.59 1212.09 Q2208.37 1212.91 2208.22 1213.08 Q2208.1 1213.25 2207.73 1213.25 Q2207.11 1213.23 2207.11 1212.73 Q2207.11 1212.61 2207.31 1211.82 Q2207.51 1211.04 2207.87 1209.86 Q2208.27 1208.65 2208.69 1207.86 Q2208.93 1207.35 2209.15 1207 Q2209.38 1206.66 2209.82 1206.12 Q2210.26 1205.58 2210.92 1205.28 Q2211.59 1204.99 2212.4 1204.99 Q2214.2 1204.99 2215.52 1206.14 Q2216.88 1207.3 2217.05 1209.36 Q2220.32 1204.99 2224.89 1204.99 Q2227.48 1204.99 2229.03 1206.29 Q2230.48 1207.54 2230.65 1209.86 Q2234.04 1204.99 2238.86 1204.99 Q2241.64 1204.99 2243.14 1206.44 Q2244.64 1207.86 2244.64 1210.37 Q2244.64 1211.68 2243.98 1214.16 Q2243.31 1216.62 2242.87 1217.85 Q2242.43 1219.08 2241.57 1221.44 Q2240.66 1223.7 2240.66 1225.03 Q2240.66 1225.89 2240.95 1226.28 Q2241.25 1226.68 2241.89 1226.68 Q2242.87 1226.68 2243.73 1226.11 Q2244.59 1225.52 2245.21 1224.56 Q2245.85 1223.58 2246.27 1222.6 Q2246.68 1221.59 2247 1220.46 Q2247.2 1219.84 2247.3 1219.69 Q2247.42 1219.55 2247.77 1219.55 Q2248.38 1219.55 2248.38 1220.04 Z" fill="#000000" fill-rule="nonzero" fill-opacity="1" /><polyline clip-path="url(#clip040)" style="stroke:#e26f46; stroke-linecap:round; stroke-linejoin:round; stroke-width:6; stroke-opacity:1; fill:none" points="1878.03,1281.34 2019.28,1281.34 "/>
<circle clip-path="url(#clip040)" cx="1948.66" cy="1281.34" r="12.1871" fill="#e26f46" fill-rule="evenodd" fill-opacity="1" stroke="#000000" stroke-opacity="1" stroke-width="5.58545"/>
<path clip-path="url(#clip040)" d="M2103.39 1239.96 Q2103.39 1240.98 2102.94 1241.19 Q2102.52 1241.4 2100.97 1241.4 Q2098.33 1241.4 2097.14 1241.75 Q2095.98 1242.07 2095.63 1242.63 Q2095.31 1243.15 2094.93 1244.7 L2085.19 1283.56 Q2085.19 1283.59 2085.09 1284.09 Q2084.98 1284.54 2084.98 1284.79 Q2084.98 1285.24 2085.26 1285.53 Q2085.58 1285.81 2086.35 1285.95 Q2087.13 1286.05 2087.72 1286.09 Q2088.36 1286.09 2089.66 1286.09 Q2091.27 1286.09 2091.52 1286.37 Q2091.66 1286.54 2091.66 1286.86 Q2091.66 1287.53 2091.38 1287.88 Q2091.13 1288.2 2090.89 1288.27 Q2090.68 1288.3 2090.25 1288.3 Q2089.52 1288.3 2087.93 1288.23 Q2086.35 1288.16 2085.55 1288.16 L2080.94 1288.09 L2071.81 1288.3 Q2070.82 1288.3 2070.82 1287.49 Q2070.82 1286.79 2071.07 1286.47 Q2071.32 1286.16 2071.56 1286.12 Q2071.84 1286.09 2072.55 1286.09 Q2076.17 1286.09 2077.36 1285.74 Q2078.59 1285.35 2079.08 1283.7 L2084.04 1263.85 L2062.11 1263.85 L2057.19 1283.56 Q2057.19 1283.59 2057.09 1284.09 Q2056.98 1284.54 2056.98 1284.79 Q2056.98 1285.24 2057.26 1285.53 Q2057.58 1285.81 2058.35 1285.95 Q2059.13 1286.05 2059.72 1286.09 Q2060.36 1286.09 2061.65 1286.09 Q2063.27 1286.09 2063.55 1286.37 Q2063.69 1286.54 2063.69 1286.86 Q2063.69 1287.35 2063.55 1287.7 Q2063.45 1288.02 2063.17 1288.13 Q2062.92 1288.23 2062.74 1288.27 Q2062.57 1288.3 2062.25 1288.3 Q2061.51 1288.3 2059.93 1288.23 Q2058.39 1288.16 2057.58 1288.16 L2052.98 1288.09 L2043.84 1288.3 Q2042.82 1288.3 2042.82 1287.49 Q2042.82 1286.79 2043.07 1286.51 Q2043.32 1286.19 2043.63 1286.16 Q2043.95 1286.09 2044.76 1286.09 Q2046.51 1286.09 2047.57 1285.98 Q2048.62 1285.88 2049.29 1285.74 Q2049.99 1285.56 2050.34 1285.07 Q2050.73 1284.58 2050.9 1284.16 Q2051.08 1283.7 2051.33 1282.68 L2060.95 1244.03 Q2061.23 1242.87 2061.23 1242.7 Q2061.23 1242.03 2060.81 1241.85 Q2060.43 1241.64 2059.3 1241.54 L2056.56 1241.4 Q2055.72 1241.4 2055.37 1241.36 Q2055.05 1241.33 2054.8 1241.15 Q2054.56 1240.98 2054.56 1240.59 Q2054.56 1240.1 2054.66 1239.78 Q2054.8 1239.43 2055.05 1239.32 Q2055.3 1239.22 2055.47 1239.18 Q2055.65 1239.15 2055.93 1239.15 L2065.2 1239.36 L2074.41 1239.15 Q2075.43 1239.15 2075.43 1239.96 Q2075.43 1240.98 2074.97 1241.19 Q2074.51 1241.4 2072.97 1241.4 Q2070.4 1241.4 2069.21 1241.75 Q2068.01 1242.07 2067.63 1242.63 Q2067.28 1243.19 2066.93 1244.7 L2062.67 1261.6 L2084.63 1261.6 L2088.95 1244.03 Q2089.23 1242.77 2089.23 1242.7 Q2089.23 1242.03 2088.81 1241.85 Q2088.43 1241.64 2087.3 1241.54 L2084.56 1241.4 Q2083.72 1241.4 2083.37 1241.36 Q2083.05 1241.33 2082.77 1241.15 Q2082.52 1240.98 2082.52 1240.59 Q2082.52 1240.1 2082.63 1239.78 Q2082.77 1239.43 2083.02 1239.32 Q2083.26 1239.22 2083.44 1239.18 Q2083.61 1239.15 2083.89 1239.15 L2093.17 1239.36 L2102.41 1239.15 Q2103.39 1239.15 2103.39 1239.96 Z" fill="#000000" fill-rule="nonzero" fill-opacity="1" /><path clip-path="url(#clip040)" d="M2110.49 1281.94 L2110.49 1280.37 Q2116.54 1280.37 2119.66 1277.15 Q2120.52 1277.15 2120.67 1277.34 Q2120.82 1277.54 2120.82 1278.45 L2120.82 1306.71 Q2120.82 1308.21 2121.55 1308.68 Q2122.29 1309.14 2125.51 1309.14 L2127.11 1309.14 L2127.11 1310.69 Q2125.34 1310.54 2118.95 1310.54 Q2112.55 1310.54 2110.81 1310.69 L2110.81 1309.14 L2112.41 1309.14 Q2115.58 1309.14 2116.34 1308.7 Q2117.1 1308.23 2117.1 1306.71 L2117.1 1280.61 Q2114.47 1281.94 2110.49 1281.94 Z" fill="#000000" fill-rule="nonzero" fill-opacity="1" /><path clip-path="url(#clip040)" d="M2135.43 1322.57 Q2135.43 1322.33 2135.63 1321.78 L2153.41 1274.27 Q2153.41 1274.22 2153.53 1273.95 Q2153.65 1273.68 2153.73 1273.51 Q2153.8 1273.31 2153.95 1273.16 Q2154.12 1273.02 2154.32 1273.02 Q2154.81 1273.02 2154.81 1273.63 Q2154.81 1273.68 2154.66 1274.27 L2136.83 1321.83 Q2136.54 1322.69 2136.34 1322.94 Q2136.17 1323.19 2135.87 1323.19 Q2135.43 1323.19 2135.43 1322.57 Z" fill="#000000" fill-rule="nonzero" fill-opacity="1" /><path clip-path="url(#clip040)" d="M2160.37 1310.69 Q2160.37 1309.78 2160.45 1309.51 Q2160.55 1309.24 2160.94 1308.82 L2170.6 1298.05 Q2175.89 1292.1 2175.89 1286.91 Q2175.89 1283.54 2174.12 1281.13 Q2172.38 1278.72 2169.15 1278.72 Q2166.94 1278.72 2165.07 1280.07 Q2163.2 1281.43 2162.34 1283.84 Q2162.49 1283.79 2163.01 1283.79 Q2164.26 1283.79 2164.95 1284.57 Q2165.66 1285.36 2165.66 1286.42 Q2165.66 1287.77 2164.78 1288.44 Q2163.92 1289.07 2163.05 1289.07 Q2162.71 1289.07 2162.24 1289 Q2161.8 1288.93 2161.09 1288.24 Q2160.37 1287.53 2160.37 1286.27 Q2160.37 1282.75 2163.03 1279.95 Q2165.71 1277.15 2169.79 1277.15 Q2174.42 1277.15 2177.44 1279.9 Q2180.49 1282.63 2180.49 1286.91 Q2180.49 1288.41 2180.02 1289.79 Q2179.58 1291.14 2178.97 1292.2 Q2178.38 1293.26 2176.75 1294.95 Q2175.13 1296.65 2173.83 1297.85 Q2172.52 1299.06 2169.6 1301.62 L2164.26 1306.81 L2173.33 1306.81 Q2177.76 1306.81 2178.11 1306.41 Q2178.6 1305.7 2179.21 1301.94 L2180.49 1301.94 L2179.06 1310.69 L2160.37 1310.69 Z" fill="#000000" fill-rule="nonzero" fill-opacity="1" /><path clip-path="url(#clip040)" d="M2186.03 1309.88 Q2185.32 1309.07 2185.32 1308.01 Q2185.32 1306.95 2186.01 1306.17 Q2186.72 1305.36 2188 1305.36 Q2189.5 1305.36 2190.36 1306.81 Q2191.22 1308.23 2191.22 1310.64 Q2191.22 1313.25 2190.16 1315.66 Q2189.1 1318.1 2188.07 1319.25 Q2187.04 1320.41 2186.62 1320.41 Q2186.13 1320.41 2186.13 1319.87 Q2186.13 1319.67 2186.47 1319.3 Q2190.09 1315.41 2190.11 1310.64 Q2190.11 1309.88 2190.01 1309.88 L2189.89 1309.98 Q2189.03 1310.69 2188 1310.69 Q2186.74 1310.69 2186.03 1309.88 Z" fill="#000000" fill-rule="nonzero" fill-opacity="1" /><path clip-path="url(#clip040)" d="M2234.41 1303.49 Q2234.41 1303.68 2234.19 1304.45 Q2233.97 1305.21 2233.43 1306.39 Q2232.91 1307.57 2232.2 1308.65 Q2231.48 1309.71 2230.3 1310.5 Q2229.15 1311.26 2227.82 1311.26 Q2226.05 1311.26 2224.87 1310.08 Q2223.69 1308.9 2223.69 1307.13 Q2223.69 1306.14 2224.2 1304.79 Q2227.48 1296.06 2227.48 1293.06 Q2227.48 1289.54 2224.75 1289.54 Q2223.39 1289.54 2222.11 1290.06 Q2220.86 1290.55 2220 1291.24 Q2219.14 1291.93 2218.35 1292.89 Q2217.59 1293.82 2217.2 1294.46 Q2216.83 1295.08 2216.53 1295.69 L2215.89 1298.2 Q2215.74 1298.89 2215.03 1301.57 L2213.92 1306.12 Q2213.14 1309.51 2212.97 1309.83 Q2212.72 1310.52 2212.18 1310.89 Q2211.64 1311.26 2211.1 1311.26 Q2210.48 1311.26 2210.06 1310.89 Q2209.65 1310.52 2209.65 1309.88 Q2209.65 1309.78 2209.72 1309.41 Q2209.79 1309.04 2209.92 1308.53 Q2210.04 1308.01 2210.09 1307.72 L2213.01 1296.08 Q2213.56 1293.97 2213.68 1293.3 Q2213.83 1292.62 2213.83 1291.85 Q2213.83 1289.54 2212.25 1289.54 Q2210.97 1289.54 2210.14 1291.07 Q2209.3 1292.59 2208.59 1295.54 Q2208.37 1296.35 2208.22 1296.53 Q2208.1 1296.7 2207.73 1296.7 Q2207.11 1296.67 2207.11 1296.18 Q2207.11 1296.06 2207.31 1295.25 Q2207.51 1294.44 2207.87 1293.28 Q2208.27 1292.1 2208.64 1291.31 Q2208.96 1290.72 2209.13 1290.45 Q2209.33 1290.16 2209.79 1289.59 Q2210.29 1289 2210.92 1288.73 Q2211.59 1288.44 2212.4 1288.44 Q2214.22 1288.44 2215.55 1289.62 Q2216.88 1290.77 2217.05 1292.81 Q2220.32 1288.44 2224.89 1288.44 Q2227.6 1288.44 2229.15 1289.86 Q2230.7 1291.29 2230.7 1293.82 Q2230.7 1294.41 2230.57 1295.17 Q2230.48 1295.91 2230.23 1296.85 Q2230.01 1297.78 2229.81 1298.49 Q2229.62 1299.21 2229.22 1300.36 Q2228.83 1301.49 2228.66 1301.99 Q2228.48 1302.48 2228.07 1303.63 Q2227.67 1304.77 2227.62 1304.89 Q2226.71 1307.18 2226.71 1308.48 Q2226.71 1309.34 2226.98 1309.73 Q2227.28 1310.13 2227.92 1310.13 Q2229.64 1310.13 2230.92 1308.43 Q2232.22 1306.71 2233.06 1303.9 Q2233.26 1303.29 2233.35 1303.14 Q2233.48 1302.99 2233.82 1302.99 Q2234.41 1302.99 2234.41 1303.49 Z" fill="#000000" fill-rule="nonzero" fill-opacity="1" /></svg>
