<?xml version="1.0" encoding="utf-8"?>
<svg xmlns="http://www.w3.org/2000/svg" xmlns:xlink="http://www.w3.org/1999/xlink" width="600" height="400" viewBox="0 0 2400 1600">
<defs>
  <clipPath id="clip300">
    <rect x="0" y="0" width="2400" height="1600"/>
  </clipPath>
</defs>
<path clip-path="url(#clip300)" d="M0 1600 L2400 1600 L2400 0 L0 0  Z" fill="#ffffff" fill-rule="evenodd" fill-opacity="1"/>
<defs>
  <clipPath id="clip301">
    <rect x="480" y="0" width="1681" height="1600"/>
  </clipPath>
</defs>
<defs>
  <clipPath id="clip302">
    <rect x="245" y="47" width="2109" height="1364"/>
  </clipPath>
</defs>
<path clip-path="url(#clip300)" d="M245.15 1410.22 L2352.76 1410.22 L2352.76 47.2441 L245.15 47.2441  Z" fill="#ffffff" fill-rule="evenodd" fill-opacity="1"/>
<polyline clip-path="url(#clip300)" style="stroke:#000000; stroke-linecap:round; stroke-linejoin:round; stroke-width:4; stroke-opacity:1; fill:none" points="245.15,1410.22 2352.76,1410.22 "/>
<polyline clip-path="url(#clip300)" style="stroke:#000000; stroke-linecap:round; stroke-linejoin:round; stroke-width:4; stroke-opacity:1; fill:none" points="245.15,47.2441 2352.76,47.2441 "/>
<polyline clip-path="url(#clip300)" style="stroke:#000000; stroke-linecap:round; stroke-linejoin:round; stroke-width:4; stroke-opacity:1; fill:none" points="304.799,1410.22 304.799,1391.32 "/>
<polyline clip-path="url(#clip300)" style="stroke:#000000; stroke-linecap:round; stroke-linejoin:round; stroke-width:4; stroke-opacity:1; fill:none" points="636.184,1410.22 636.184,1391.32 "/>
<polyline clip-path="url(#clip300)" style="stroke:#000000; stroke-linecap:round; stroke-linejoin:round; stroke-width:4; stroke-opacity:1; fill:none" points="967.568,1410.22 967.568,1391.32 "/>
<polyline clip-path="url(#clip300)" style="stroke:#000000; stroke-linecap:round; stroke-linejoin:round; stroke-width:4; stroke-opacity:1; fill:none" points="1298.95,1410.22 1298.95,1391.32 "/>
<polyline clip-path="url(#clip300)" style="stroke:#000000; stroke-linecap:round; stroke-linejoin:round; stroke-width:4; stroke-opacity:1; fill:none" points="1630.34,1410.22 1630.34,1391.32 "/>
<polyline clip-path="url(#clip300)" style="stroke:#000000; stroke-linecap:round; stroke-linejoin:round; stroke-width:4; stroke-opacity:1; fill:none" points="1961.72,1410.22 1961.72,1391.32 "/>
<polyline clip-path="url(#clip300)" style="stroke:#000000; stroke-linecap:round; stroke-linejoin:round; stroke-width:4; stroke-opacity:1; fill:none" points="2293.11,1410.22 2293.11,1391.32 "/>
<path clip-path="url(#clip300)" d="M308.396 1466.71 Q308.767 1467.08 308.767 1467.61 Q308.767 1468.13 308.396 1468.51 Q308.026 1468.88 307.501 1468.88 L267.914 1468.88 Q267.389 1468.88 267.018 1468.51 Q266.648 1468.13 266.648 1467.61 Q266.648 1467.08 267.018 1466.71 Q267.389 1466.34 267.914 1466.34 L307.501 1466.34 Q308.026 1466.34 308.396 1466.71 Z" fill="#000000" fill-rule="nonzero" fill-opacity="1" /><path clip-path="url(#clip300)" d="M315.838 1453.68 L317.907 1440.68 L319.482 1440.68 Q319.667 1441.46 319.976 1441.79 Q320.316 1442.13 322.107 1442.41 Q323.929 1442.69 327.603 1442.69 L342.95 1442.69 Q342.95 1444.14 342.394 1444.91 L333.841 1456.93 Q331.123 1460.72 329.919 1467.73 Q329.209 1472.43 329.24 1478.11 L329.24 1481.32 Q329.24 1484.81 326.306 1484.81 Q323.404 1484.81 323.404 1481.32 Q323.404 1469.25 331.185 1457.54 Q332.019 1456.34 335.076 1452.05 Q338.164 1447.75 338.287 1447.57 L325.195 1447.57 Q319.451 1447.57 318.988 1447.94 Q318.37 1448.5 317.413 1453.68 L315.838 1453.68 Z" fill="#000000" fill-rule="nonzero" fill-opacity="1" /><path clip-path="url(#clip300)" d="M640.661 1466.71 Q641.032 1467.08 641.032 1467.61 Q641.032 1468.13 640.661 1468.51 Q640.29 1468.88 639.765 1468.88 L600.178 1468.88 Q599.653 1468.88 599.283 1468.51 Q598.912 1468.13 598.912 1467.61 Q598.912 1467.08 599.283 1466.71 Q599.653 1466.34 600.178 1466.34 L639.765 1466.34 Q640.29 1466.34 640.661 1466.71 Z" fill="#000000" fill-rule="nonzero" fill-opacity="1" /><path clip-path="url(#clip300)" d="M647.207 1463.44 Q647.207 1453.5 652.272 1447.41 Q657.336 1441.3 663.851 1441.3 Q667.649 1441.3 669.749 1443.25 Q671.88 1445.16 671.88 1448.12 Q671.88 1449.76 670.923 1450.47 Q669.965 1451.18 668.977 1451.18 Q667.835 1451.18 666.939 1450.41 Q666.044 1449.64 666.044 1448.25 Q666.044 1445.41 669.533 1445.41 Q667.896 1442.88 663.975 1442.88 Q662.77 1442.88 661.535 1443.25 Q660.3 1443.59 658.694 1444.76 Q657.089 1445.93 655.854 1447.79 Q654.618 1449.64 653.754 1453.13 Q652.889 1456.62 652.889 1461.16 L652.889 1462.67 Q655.483 1456.4 660.794 1456.43 Q666.105 1456.43 669.78 1460.48 Q673.455 1464.52 673.455 1470.51 Q673.455 1476.66 669.626 1480.73 Q665.797 1484.81 660.424 1484.81 Q658.015 1484.81 655.823 1483.79 Q653.661 1482.8 651.623 1480.52 Q649.616 1478.23 648.412 1473.85 Q647.207 1469.46 647.207 1463.44 M653.013 1469.12 Q653.013 1475.33 654.155 1478.29 Q654.34 1478.79 654.742 1479.47 Q655.174 1480.15 655.884 1481.04 Q656.626 1481.91 657.83 1482.49 Q659.034 1483.05 660.424 1483.05 Q664.654 1483.05 666.692 1478.94 Q667.773 1476.66 667.773 1470.45 Q667.773 1464.12 666.63 1461.8 Q664.685 1457.88 660.732 1457.88 Q658.077 1457.88 656.224 1459.7 Q654.402 1461.53 653.692 1463.97 Q653.013 1466.41 653.013 1469.12 Z" fill="#000000" fill-rule="nonzero" fill-opacity="1" /><path clip-path="url(#clip300)" d="M972.293 1466.71 Q972.663 1467.08 972.663 1467.61 Q972.663 1468.13 972.293 1468.51 Q971.922 1468.88 971.397 1468.88 L931.81 1468.88 Q931.285 1468.88 930.915 1468.51 Q930.544 1468.13 930.544 1467.61 Q930.544 1467.08 930.915 1466.71 Q931.285 1466.34 931.81 1466.34 L971.397 1466.34 Q971.922 1466.34 972.293 1466.71 Z" fill="#000000" fill-rule="nonzero" fill-opacity="1" /><path clip-path="url(#clip300)" d="M979.333 1473.23 Q979.333 1471.35 980.352 1470.64 Q981.371 1469.89 982.452 1469.89 Q983.903 1469.89 984.737 1470.82 Q985.602 1471.72 985.602 1472.98 Q985.602 1474.25 984.737 1475.18 Q983.903 1476.07 982.452 1476.07 Q981.742 1476.07 981.371 1475.95 Q982.205 1478.85 984.737 1480.95 Q987.3 1483.05 990.666 1483.05 Q994.896 1483.05 997.428 1478.94 Q998.941 1476.29 998.941 1470.27 Q998.941 1464.95 997.799 1462.3 Q996.039 1458.25 992.426 1458.25 Q987.3 1458.25 984.274 1462.67 Q983.903 1463.22 983.471 1463.26 Q982.853 1463.26 982.699 1462.92 Q982.575 1462.55 982.575 1461.59 L982.575 1442.88 Q982.575 1441.36 983.193 1441.36 Q983.44 1441.36 983.965 1441.55 Q987.948 1443.31 992.364 1443.34 Q996.903 1443.34 1000.98 1441.49 Q1001.29 1441.3 1001.47 1441.3 Q1002.09 1441.3 1002.12 1442.01 Q1002.12 1442.26 1001.6 1443 Q1001.1 1443.71 1000.02 1444.67 Q998.941 1445.59 997.552 1446.49 Q996.162 1447.38 994.124 1448 Q992.117 1448.59 989.894 1448.59 Q987.238 1448.59 984.521 1447.75 L984.521 1460.08 Q987.794 1456.86 992.549 1456.86 Q997.614 1456.86 1001.1 1460.94 Q1004.59 1465.02 1004.59 1470.7 Q1004.59 1476.66 1000.45 1480.73 Q996.348 1484.81 990.789 1484.81 Q985.725 1484.81 982.514 1481.2 Q979.333 1477.58 979.333 1473.23 Z" fill="#000000" fill-rule="nonzero" fill-opacity="1" /><path clip-path="url(#clip300)" d="M1302.98 1466.71 Q1303.35 1467.08 1303.35 1467.61 Q1303.35 1468.13 1302.98 1468.51 Q1302.61 1468.88 1302.09 1468.88 L1262.5 1468.88 Q1261.97 1468.88 1261.6 1468.51 Q1261.23 1468.13 1261.23 1467.61 Q1261.23 1467.08 1261.6 1466.71 Q1261.97 1466.34 1262.5 1466.34 L1302.09 1466.34 Q1302.61 1466.34 1302.98 1466.71 Z" fill="#000000" fill-rule="nonzero" fill-opacity="1" /><path clip-path="url(#clip300)" d="M1308.63 1472.98 L1308.63 1471.04 L1328.06 1441.36 Q1328.55 1440.59 1329.32 1440.62 Q1330.03 1440.62 1330.19 1440.9 Q1330.34 1441.18 1330.34 1442.26 L1330.34 1471.04 L1336.67 1471.04 L1336.67 1472.98 L1330.34 1472.98 L1330.34 1478.48 Q1330.34 1480.3 1331.08 1480.89 Q1331.85 1481.47 1335.13 1481.47 L1336.46 1481.47 L1336.46 1483.42 Q1333.86 1483.23 1327.87 1483.23 Q1321.91 1483.23 1319.32 1483.42 L1319.32 1481.47 L1320.65 1481.47 Q1323.92 1481.47 1324.69 1480.92 Q1325.46 1480.33 1325.46 1478.48 L1325.46 1472.98 L1308.63 1472.98 M1310.42 1471.04 L1325.83 1471.04 L1325.83 1447.45 L1310.42 1471.04 Z" fill="#000000" fill-rule="nonzero" fill-opacity="1" /><path clip-path="url(#clip300)" d="M1634.81 1466.71 Q1635.19 1467.08 1635.19 1467.61 Q1635.19 1468.13 1634.81 1468.51 Q1634.44 1468.88 1633.92 1468.88 L1594.33 1468.88 Q1593.81 1468.88 1593.44 1468.51 Q1593.07 1468.13 1593.07 1467.61 Q1593.07 1467.08 1593.44 1466.71 Q1593.81 1466.34 1594.33 1466.34 L1633.92 1466.34 Q1634.44 1466.34 1634.81 1466.71 Z" fill="#000000" fill-rule="nonzero" fill-opacity="1" /><path clip-path="url(#clip300)" d="M1641.36 1474.9 Q1641.36 1473.01 1642.44 1472.12 Q1643.52 1471.22 1644.91 1471.22 Q1646.36 1471.22 1647.38 1472.18 Q1648.43 1473.11 1648.43 1474.74 Q1648.43 1476.5 1647.2 1477.49 Q1645.99 1478.48 1644.26 1478.23 Q1645.78 1480.76 1648.56 1481.91 Q1651.37 1483.05 1653.96 1483.05 Q1656.68 1483.05 1658.87 1480.7 Q1661.09 1478.36 1661.09 1472.61 Q1661.09 1467.73 1659.18 1464.92 Q1657.29 1462.11 1653.56 1462.11 L1650.78 1462.11 Q1649.82 1462.11 1649.54 1462.02 Q1649.27 1461.93 1649.27 1461.4 Q1649.27 1460.79 1650.22 1460.66 Q1651.18 1460.66 1652.69 1460.48 Q1656.37 1460.35 1658.31 1457.17 Q1660.07 1454.21 1660.07 1449.98 Q1660.07 1446.12 1658.22 1444.51 Q1656.4 1442.88 1654.02 1442.88 Q1651.8 1442.88 1649.36 1443.8 Q1646.92 1444.73 1645.59 1446.8 Q1649.51 1446.8 1649.51 1449.98 Q1649.51 1451.37 1648.62 1452.29 Q1647.75 1453.19 1646.3 1453.19 Q1644.91 1453.19 1643.99 1452.32 Q1643.06 1451.43 1643.06 1449.92 Q1643.06 1446.3 1646.27 1443.8 Q1649.51 1441.3 1654.27 1441.3 Q1658.96 1441.3 1662.42 1443.77 Q1665.91 1446.24 1665.91 1450.04 Q1665.91 1453.78 1663.44 1456.83 Q1660.97 1459.89 1657.05 1461.16 Q1661.87 1462.11 1664.74 1465.39 Q1667.61 1468.63 1667.61 1472.61 Q1667.61 1477.55 1663.72 1481.2 Q1659.83 1484.81 1654.15 1484.81 Q1648.9 1484.81 1645.13 1481.97 Q1641.36 1479.13 1641.36 1474.9 Z" fill="#000000" fill-rule="nonzero" fill-opacity="1" /><path clip-path="url(#clip300)" d="M1966.45 1466.71 Q1966.82 1467.08 1966.82 1467.61 Q1966.82 1468.13 1966.45 1468.51 Q1966.08 1468.88 1965.55 1468.88 L1925.96 1468.88 Q1925.44 1468.88 1925.07 1468.51 Q1924.7 1468.13 1924.7 1467.61 Q1924.7 1467.08 1925.07 1466.71 Q1925.44 1466.34 1925.96 1466.34 L1965.55 1466.34 Q1966.08 1466.34 1966.45 1466.71 Z" fill="#000000" fill-rule="nonzero" fill-opacity="1" /><path clip-path="url(#clip300)" d="M1973.49 1483.42 Q1973.49 1482.28 1973.58 1481.94 Q1973.7 1481.6 1974.2 1481.07 L1986.33 1467.55 Q1992.97 1460.08 1992.97 1453.56 Q1992.97 1449.33 1990.75 1446.3 Q1988.56 1443.28 1984.51 1443.28 Q1981.73 1443.28 1979.38 1444.98 Q1977.04 1446.67 1975.96 1449.7 Q1976.14 1449.64 1976.79 1449.64 Q1978.37 1449.64 1979.23 1450.63 Q1980.13 1451.61 1980.13 1452.94 Q1980.13 1454.64 1979.01 1455.47 Q1977.93 1456.28 1976.85 1456.28 Q1976.42 1456.28 1975.83 1456.18 Q1975.28 1456.09 1974.38 1455.23 Q1973.49 1454.33 1973.49 1452.76 Q1973.49 1448.34 1976.82 1444.82 Q1980.19 1441.3 1985.31 1441.3 Q1991.12 1441.3 1994.92 1444.76 Q1998.75 1448.19 1998.75 1453.56 Q1998.75 1455.44 1998.16 1457.17 Q1997.6 1458.87 1996.83 1460.2 Q1996.09 1461.53 1994.05 1463.66 Q1992.01 1465.79 1990.38 1467.3 Q1988.74 1468.81 1985.07 1472.03 L1978.37 1478.54 L1989.76 1478.54 Q1995.32 1478.54 1995.75 1478.05 Q1996.37 1477.15 1997.14 1472.43 L1998.75 1472.43 L1996.96 1483.42 L1973.49 1483.42 Z" fill="#000000" fill-rule="nonzero" fill-opacity="1" /><path clip-path="url(#clip300)" d="M2298.79 1466.71 Q2299.16 1467.08 2299.16 1467.61 Q2299.16 1468.13 2298.79 1468.51 Q2298.42 1468.88 2297.89 1468.88 L2258.31 1468.88 Q2257.78 1468.88 2257.41 1468.51 Q2257.04 1468.13 2257.04 1467.61 Q2257.04 1467.08 2257.41 1466.71 Q2257.78 1466.34 2258.31 1466.34 L2297.89 1466.34 Q2298.42 1466.34 2298.79 1466.71 Z" fill="#000000" fill-rule="nonzero" fill-opacity="1" /><path clip-path="url(#clip300)" d="M2308.3 1447.32 L2308.3 1445.35 Q2315.9 1445.35 2319.82 1441.3 Q2320.9 1441.3 2321.08 1441.55 Q2321.27 1441.79 2321.27 1442.94 L2321.27 1478.42 Q2321.27 1480.3 2322.19 1480.89 Q2323.12 1481.47 2327.17 1481.47 L2329.17 1481.47 L2329.17 1483.42 Q2326.95 1483.23 2318.92 1483.23 Q2310.89 1483.23 2308.7 1483.42 L2308.7 1481.47 L2310.71 1481.47 Q2314.69 1481.47 2315.65 1480.92 Q2316.61 1480.33 2316.61 1478.42 L2316.61 1445.65 Q2313.3 1447.32 2308.3 1447.32 Z" fill="#000000" fill-rule="nonzero" fill-opacity="1" /><path clip-path="url(#clip300)" d="M1324.48 1517.34 Q1324.48 1518.78 1323.29 1518.78 Q1321.18 1518.85 1319.74 1519.27 Q1318.3 1519.66 1317.46 1520.43 Q1316.65 1521.21 1316.19 1522.05 Q1315.77 1522.86 1315.49 1524.09 L1309.1 1549.63 Q1307.27 1556.83 1301.37 1562.07 Q1295.46 1567.27 1288.75 1567.27 Q1284.92 1567.27 1281.73 1565.69 Q1278.56 1564.11 1276.6 1560.91 Q1274.63 1557.71 1274.63 1553.46 Q1274.63 1551.42 1275.16 1549.28 L1279.51 1531.5 L1281.13 1525.18 Q1282.32 1520.5 1282.32 1520.08 Q1282.32 1519.42 1281.9 1519.24 Q1281.52 1519.03 1280.39 1518.92 L1277.65 1518.78 Q1276.81 1518.78 1276.46 1518.75 Q1276.14 1518.71 1275.89 1518.54 Q1275.65 1518.36 1275.65 1517.97 Q1275.65 1517.48 1275.75 1517.17 Q1275.89 1516.82 1276.14 1516.71 Q1276.39 1516.6 1276.56 1516.57 Q1276.74 1516.53 1277.02 1516.53 L1286.29 1516.75 L1295.5 1516.53 Q1296.52 1516.53 1296.52 1517.34 Q1296.52 1518.36 1296.06 1518.57 Q1295.6 1518.78 1294.06 1518.78 Q1291.42 1518.78 1290.23 1519.13 Q1289.07 1519.45 1288.72 1520.01 Q1288.4 1520.54 1288.02 1522.09 L1281.02 1550.09 Q1280.67 1551.49 1280.46 1552.9 Q1280.29 1554.27 1280.29 1554.97 L1280.25 1555.67 Q1280.25 1560.14 1282.71 1562.59 Q1285.2 1565.05 1289.03 1565.05 Q1294.66 1565.05 1299.89 1560.59 Q1305.16 1556.13 1306.95 1549.14 L1313.42 1523.46 Q1313.63 1522.82 1313.63 1521.94 Q1313.63 1520.54 1312.57 1519.7 Q1311.55 1518.82 1308.74 1518.78 Q1307.44 1518.78 1307.44 1517.97 Q1307.44 1517.31 1307.69 1516.99 Q1307.97 1516.64 1308.18 1516.6 Q1308.43 1516.53 1308.74 1516.53 Q1309.94 1516.53 1312.47 1516.64 Q1315 1516.75 1316.23 1516.75 Q1317.46 1516.75 1319.92 1516.64 Q1322.38 1516.53 1323.57 1516.53 Q1323.99 1516.53 1324.2 1516.75 Q1324.45 1516.92 1324.48 1517.13 L1324.48 1517.34 Z" fill="#000000" fill-rule="nonzero" fill-opacity="1" /><polyline clip-path="url(#clip300)" style="stroke:#000000; stroke-linecap:round; stroke-linejoin:round; stroke-width:4; stroke-opacity:1; fill:none" points="245.15,1410.22 245.15,47.2441 "/>
<polyline clip-path="url(#clip300)" style="stroke:#000000; stroke-linecap:round; stroke-linejoin:round; stroke-width:4; stroke-opacity:1; fill:none" points="2352.76,1410.22 2352.76,47.2441 "/>
<polyline clip-path="url(#clip300)" style="stroke:#000000; stroke-linecap:round; stroke-linejoin:round; stroke-width:4; stroke-opacity:1; fill:none" points="245.15,1249.48 264.047,1249.48 "/>
<polyline clip-path="url(#clip300)" style="stroke:#000000; stroke-linecap:round; stroke-linejoin:round; stroke-width:4; stroke-opacity:1; fill:none" points="245.15,1016.05 264.047,1016.05 "/>
<polyline clip-path="url(#clip300)" style="stroke:#000000; stroke-linecap:round; stroke-linejoin:round; stroke-width:4; stroke-opacity:1; fill:none" points="245.15,782.618 264.047,782.618 "/>
<polyline clip-path="url(#clip300)" style="stroke:#000000; stroke-linecap:round; stroke-linejoin:round; stroke-width:4; stroke-opacity:1; fill:none" points="245.15,549.187 264.047,549.187 "/>
<polyline clip-path="url(#clip300)" style="stroke:#000000; stroke-linecap:round; stroke-linejoin:round; stroke-width:4; stroke-opacity:1; fill:none" points="245.15,315.756 264.047,315.756 "/>
<polyline clip-path="url(#clip300)" style="stroke:#000000; stroke-linecap:round; stroke-linejoin:round; stroke-width:4; stroke-opacity:1; fill:none" points="245.15,82.3244 264.047,82.3244 "/>
<path clip-path="url(#clip300)" d="M133.341 1250.85 Q133.341 1241.56 135.688 1236.5 Q138.961 1228.96 146.681 1228.96 Q148.318 1228.96 150.016 1229.42 Q151.745 1229.86 153.907 1231.55 Q156.099 1233.25 157.427 1236.03 Q159.959 1241.4 159.959 1250.85 Q159.959 1260.09 157.612 1265.12 Q154.185 1272.47 146.619 1272.47 Q143.778 1272.47 140.876 1271.02 Q138.004 1269.57 136.182 1266.08 Q133.341 1260.86 133.341 1250.85 M138.591 1250.08 Q138.591 1259.62 139.27 1263.42 Q140.042 1267.53 142.142 1269.32 Q144.272 1271.08 146.619 1271.08 Q149.151 1271.08 151.251 1269.2 Q153.382 1267.28 154.03 1263.17 Q154.74 1259.13 154.71 1250.08 Q154.71 1241.28 154.092 1237.76 Q153.258 1233.65 151.035 1232.02 Q148.843 1230.35 146.619 1230.35 Q145.786 1230.35 144.89 1230.6 Q144.025 1230.84 142.759 1231.55 Q141.493 1232.26 140.505 1234.02 Q139.548 1235.78 139.085 1238.44 Q138.591 1241.87 138.591 1250.08 Z" fill="#000000" fill-rule="nonzero" fill-opacity="1" /><path clip-path="url(#clip300)" d="M168.821 1270.06 Q167.864 1269.04 167.864 1267.71 Q167.864 1266.39 168.821 1265.43 Q169.779 1264.44 171.23 1264.44 Q172.62 1264.44 173.546 1265.37 Q174.503 1266.26 174.503 1267.74 Q174.503 1269.2 173.484 1270.15 Q172.496 1271.08 171.23 1271.08 Q169.779 1271.08 168.821 1270.06 Z" fill="#000000" fill-rule="nonzero" fill-opacity="1" /><path clip-path="url(#clip300)" d="M182.532 1250.85 Q182.532 1241.56 184.879 1236.5 Q188.152 1228.96 195.872 1228.96 Q197.508 1228.96 199.207 1229.42 Q200.936 1229.86 203.097 1231.55 Q205.29 1233.25 206.618 1236.03 Q209.15 1241.4 209.15 1250.85 Q209.15 1260.09 206.803 1265.12 Q203.375 1272.47 195.81 1272.47 Q192.969 1272.47 190.066 1271.02 Q187.195 1269.57 185.373 1266.08 Q182.532 1260.86 182.532 1250.85 M187.781 1250.08 Q187.781 1259.62 188.461 1263.42 Q189.233 1267.53 191.332 1269.32 Q193.463 1271.08 195.81 1271.08 Q198.342 1271.08 200.442 1269.2 Q202.572 1267.28 203.221 1263.17 Q203.931 1259.13 203.9 1250.08 Q203.9 1241.28 203.283 1237.76 Q202.449 1233.65 200.226 1232.02 Q198.033 1230.35 195.81 1230.35 Q194.976 1230.35 194.081 1230.6 Q193.216 1230.84 191.95 1231.55 Q190.684 1232.26 189.696 1234.02 Q188.738 1235.78 188.275 1238.44 Q187.781 1241.87 187.781 1250.08 Z" fill="#000000" fill-rule="nonzero" fill-opacity="1" /><path clip-path="url(#clip300)" d="M134.021 1017.42 Q134.021 1008.13 136.367 1003.06 Q139.641 995.529 147.36 995.529 Q148.997 995.529 150.695 995.993 Q152.425 996.425 154.586 998.123 Q156.779 999.822 158.106 1002.6 Q160.638 1007.97 160.638 1017.42 Q160.638 1026.66 158.292 1031.69 Q154.864 1039.04 147.299 1039.04 Q144.458 1039.04 141.555 1037.59 Q138.683 1036.14 136.861 1032.65 Q134.021 1027.43 134.021 1017.42 M139.27 1016.65 Q139.27 1026.19 139.949 1029.99 Q140.721 1034.1 142.821 1035.89 Q144.952 1037.65 147.299 1037.65 Q149.831 1037.65 151.93 1035.77 Q154.061 1033.85 154.71 1029.74 Q155.42 1025.7 155.389 1016.65 Q155.389 1007.85 154.771 1004.33 Q153.938 1000.22 151.714 998.587 Q149.522 996.919 147.299 996.919 Q146.465 996.919 145.569 997.166 Q144.705 997.413 143.439 998.123 Q142.173 998.834 141.185 1000.59 Q140.227 1002.35 139.764 1005.01 Q139.27 1008.44 139.27 1016.65 Z" fill="#000000" fill-rule="nonzero" fill-opacity="1" /><path clip-path="url(#clip300)" d="M169.501 1036.63 Q168.543 1035.61 168.543 1034.28 Q168.543 1032.96 169.501 1032 Q170.458 1031.01 171.909 1031.01 Q173.299 1031.01 174.225 1031.94 Q175.183 1032.83 175.183 1034.31 Q175.183 1035.77 174.164 1036.72 Q173.175 1037.65 171.909 1037.65 Q170.458 1037.65 169.501 1036.63 Z" fill="#000000" fill-rule="nonzero" fill-opacity="1" /><path clip-path="url(#clip300)" d="M183.89 1027.46 Q183.89 1025.57 184.909 1024.86 Q185.928 1024.12 187.009 1024.12 Q188.461 1024.12 189.294 1025.05 Q190.159 1025.95 190.159 1027.21 Q190.159 1028.48 189.294 1029.4 Q188.461 1030.3 187.009 1030.3 Q186.299 1030.3 185.928 1030.18 Q186.762 1033.08 189.294 1035.18 Q191.857 1037.28 195.223 1037.28 Q199.454 1037.28 201.986 1033.17 Q203.499 1030.52 203.499 1024.49 Q203.499 1019.18 202.356 1016.53 Q200.596 1012.48 196.983 1012.48 Q191.857 1012.48 188.831 1016.9 Q188.461 1017.45 188.028 1017.48 Q187.411 1017.48 187.256 1017.14 Q187.133 1016.77 187.133 1015.82 L187.133 997.104 Q187.133 995.591 187.75 995.591 Q187.997 995.591 188.522 995.777 Q192.506 997.537 196.921 997.567 Q201.461 997.567 205.537 995.715 Q205.846 995.529 206.031 995.529 Q206.648 995.529 206.679 996.24 Q206.679 996.487 206.154 997.228 Q205.66 997.938 204.58 998.895 Q203.499 999.822 202.109 1000.72 Q200.72 1001.61 198.682 1002.23 Q196.674 1002.82 194.451 1002.82 Q191.796 1002.82 189.078 1001.98 L189.078 1014.3 Q192.351 1011.09 197.107 1011.09 Q202.171 1011.09 205.66 1015.17 Q209.15 1019.24 209.15 1024.93 Q209.15 1030.89 205.012 1034.96 Q200.905 1039.04 195.347 1039.04 Q190.282 1039.04 187.071 1035.43 Q183.89 1031.81 183.89 1027.46 Z" fill="#000000" fill-rule="nonzero" fill-opacity="1" /><path clip-path="url(#clip300)" d="M136.491 768.12 L136.491 766.144 Q144.087 766.144 148.009 762.098 Q149.09 762.098 149.275 762.345 Q149.46 762.592 149.46 763.735 L149.46 799.215 Q149.46 801.099 150.387 801.686 Q151.313 802.272 155.358 802.272 L157.365 802.272 L157.365 804.218 Q155.142 804.032 147.113 804.032 Q139.085 804.032 136.892 804.218 L136.892 802.272 L138.899 802.272 Q142.883 802.272 143.84 801.716 Q144.797 801.13 144.797 799.215 L144.797 766.452 Q141.493 768.12 136.491 768.12 Z" fill="#000000" fill-rule="nonzero" fill-opacity="1" /><path clip-path="url(#clip300)" d="M168.821 803.199 Q167.864 802.18 167.864 800.852 Q167.864 799.524 168.821 798.567 Q169.779 797.579 171.23 797.579 Q172.62 797.579 173.546 798.505 Q174.503 799.4 174.503 800.883 Q174.503 802.334 173.484 803.291 Q172.496 804.218 171.23 804.218 Q169.779 804.218 168.821 803.199 Z" fill="#000000" fill-rule="nonzero" fill-opacity="1" /><path clip-path="url(#clip300)" d="M182.532 783.992 Q182.532 774.697 184.879 769.633 Q188.152 762.098 195.872 762.098 Q197.508 762.098 199.207 762.562 Q200.936 762.994 203.097 764.692 Q205.29 766.391 206.618 769.17 Q209.15 774.543 209.15 783.992 Q209.15 793.225 206.803 798.258 Q203.375 805.607 195.81 805.607 Q192.969 805.607 190.066 804.156 Q187.195 802.705 185.373 799.215 Q182.532 793.997 182.532 783.992 M187.781 783.22 Q187.781 792.761 188.461 796.56 Q189.233 800.667 191.332 802.458 Q193.463 804.218 195.81 804.218 Q198.342 804.218 200.442 802.334 Q202.572 800.419 203.221 796.313 Q203.931 792.267 203.9 783.22 Q203.9 774.419 203.283 770.899 Q202.449 766.792 200.226 765.155 Q198.033 763.488 195.81 763.488 Q194.976 763.488 194.081 763.735 Q193.216 763.982 191.95 764.692 Q190.684 765.402 189.696 767.163 Q188.738 768.923 188.275 771.578 Q187.781 775.006 187.781 783.22 Z" fill="#000000" fill-rule="nonzero" fill-opacity="1" /><path clip-path="url(#clip300)" d="M137.17 534.689 L137.17 532.713 Q144.767 532.713 148.688 528.667 Q149.769 528.667 149.954 528.914 Q150.139 529.161 150.139 530.304 L150.139 565.784 Q150.139 567.668 151.066 568.254 Q151.992 568.841 156.037 568.841 L158.045 568.841 L158.045 570.787 Q155.821 570.601 147.793 570.601 Q139.764 570.601 137.572 570.787 L137.572 568.841 L139.579 568.841 Q143.562 568.841 144.519 568.285 Q145.477 567.699 145.477 565.784 L145.477 533.021 Q142.173 534.689 137.17 534.689 Z" fill="#000000" fill-rule="nonzero" fill-opacity="1" /><path clip-path="url(#clip300)" d="M169.501 569.768 Q168.543 568.749 168.543 567.421 Q168.543 566.093 169.501 565.136 Q170.458 564.148 171.909 564.148 Q173.299 564.148 174.225 565.074 Q175.183 565.969 175.183 567.452 Q175.183 568.903 174.164 569.86 Q173.175 570.787 171.909 570.787 Q170.458 570.787 169.501 569.768 Z" fill="#000000" fill-rule="nonzero" fill-opacity="1" /><path clip-path="url(#clip300)" d="M183.89 560.596 Q183.89 558.713 184.909 558.003 Q185.928 557.261 187.009 557.261 Q188.461 557.261 189.294 558.188 Q190.159 559.083 190.159 560.349 Q190.159 561.615 189.294 562.542 Q188.461 563.437 187.009 563.437 Q186.299 563.437 185.928 563.314 Q186.762 566.216 189.294 568.316 Q191.857 570.416 195.223 570.416 Q199.454 570.416 201.986 566.309 Q203.499 563.653 203.499 557.632 Q203.499 552.321 202.356 549.665 Q200.596 545.62 196.983 545.62 Q191.857 545.62 188.831 550.036 Q188.461 550.592 188.028 550.622 Q187.411 550.622 187.256 550.283 Q187.133 549.912 187.133 548.955 L187.133 530.242 Q187.133 528.729 187.75 528.729 Q187.997 528.729 188.522 528.914 Q192.506 530.674 196.921 530.705 Q201.461 530.705 205.537 528.853 Q205.846 528.667 206.031 528.667 Q206.648 528.667 206.679 529.378 Q206.679 529.625 206.154 530.366 Q205.66 531.076 204.58 532.033 Q203.499 532.96 202.109 533.855 Q200.72 534.751 198.682 535.368 Q196.674 535.955 194.451 535.955 Q191.796 535.955 189.078 535.121 L189.078 547.442 Q192.351 544.23 197.107 544.23 Q202.171 544.23 205.66 548.307 Q209.15 552.383 209.15 558.064 Q209.15 564.024 205.012 568.1 Q200.905 572.176 195.347 572.176 Q190.282 572.176 187.071 568.563 Q183.89 564.95 183.89 560.596 Z" fill="#000000" fill-rule="nonzero" fill-opacity="1" /><path clip-path="url(#clip300)" d="M134.021 337.356 Q134.021 336.213 134.113 335.873 Q134.237 335.534 134.731 335.009 L146.866 321.484 Q153.505 314.011 153.505 307.495 Q153.505 303.265 151.282 300.239 Q149.09 297.213 145.044 297.213 Q142.265 297.213 139.918 298.911 Q137.572 300.609 136.491 303.635 Q136.676 303.574 137.325 303.574 Q138.899 303.574 139.764 304.562 Q140.66 305.55 140.66 306.878 Q140.66 308.576 139.548 309.41 Q138.467 310.213 137.386 310.213 Q136.954 310.213 136.367 310.12 Q135.812 310.027 134.916 309.163 Q134.021 308.267 134.021 306.692 Q134.021 302.277 137.355 298.757 Q140.721 295.236 145.847 295.236 Q151.653 295.236 155.451 298.695 Q159.28 302.122 159.28 307.495 Q159.28 309.379 158.693 311.108 Q158.137 312.807 157.365 314.134 Q156.624 315.462 154.586 317.593 Q152.548 319.723 150.911 321.237 Q149.275 322.75 145.6 325.961 L138.899 332.477 L150.294 332.477 Q155.852 332.477 156.284 331.983 Q156.902 331.087 157.674 326.363 L159.28 326.363 L157.489 337.356 L134.021 337.356 Z" fill="#000000" fill-rule="nonzero" fill-opacity="1" /><path clip-path="url(#clip300)" d="M168.821 336.336 Q167.864 335.317 167.864 333.99 Q167.864 332.662 168.821 331.705 Q169.779 330.716 171.23 330.716 Q172.62 330.716 173.546 331.643 Q174.503 332.538 174.503 334.021 Q174.503 335.472 173.484 336.429 Q172.496 337.356 171.23 337.356 Q169.779 337.356 168.821 336.336 Z" fill="#000000" fill-rule="nonzero" fill-opacity="1" /><path clip-path="url(#clip300)" d="M182.532 317.13 Q182.532 307.835 184.879 302.771 Q188.152 295.236 195.872 295.236 Q197.508 295.236 199.207 295.699 Q200.936 296.132 203.097 297.83 Q205.29 299.528 206.618 302.308 Q209.15 307.681 209.15 317.13 Q209.15 326.363 206.803 331.396 Q203.375 338.745 195.81 338.745 Q192.969 338.745 190.066 337.294 Q187.195 335.842 185.373 332.353 Q182.532 327.134 182.532 317.13 M187.781 316.358 Q187.781 325.899 188.461 329.697 Q189.233 333.804 191.332 335.595 Q193.463 337.356 195.81 337.356 Q198.342 337.356 200.442 335.472 Q202.572 333.557 203.221 329.45 Q203.931 325.405 203.9 316.358 Q203.9 307.557 203.283 304.037 Q202.449 299.93 200.226 298.293 Q198.033 296.626 195.81 296.626 Q194.976 296.626 194.081 296.873 Q193.216 297.12 191.95 297.83 Q190.684 298.54 189.696 300.3 Q188.738 302.061 188.275 304.716 Q187.781 308.144 187.781 316.358 Z" fill="#000000" fill-rule="nonzero" fill-opacity="1" /><path clip-path="url(#clip300)" d="M134.7 103.924 Q134.7 102.782 134.793 102.442 Q134.916 102.103 135.41 101.578 L147.546 88.0525 Q154.185 80.5798 154.185 74.0643 Q154.185 69.8338 151.961 66.8076 Q149.769 63.7815 145.724 63.7815 Q142.945 63.7815 140.598 65.4798 Q138.251 67.1782 137.17 70.2044 Q137.355 70.1426 138.004 70.1426 Q139.579 70.1426 140.443 71.1307 Q141.339 72.1189 141.339 73.4467 Q141.339 75.145 140.227 75.9788 Q139.146 76.7816 138.066 76.7816 Q137.633 76.7816 137.047 76.689 Q136.491 76.5963 135.595 75.7317 Q134.7 74.8362 134.7 73.2614 Q134.7 68.8457 138.035 65.3254 Q141.401 61.8052 146.527 61.8052 Q152.332 61.8052 156.13 65.2637 Q159.959 68.6913 159.959 74.0643 Q159.959 75.9479 159.372 77.6771 Q158.817 79.3755 158.045 80.7033 Q157.303 82.0311 155.265 84.1618 Q153.227 86.2924 151.591 87.8055 Q149.954 89.3186 146.28 92.53 L139.579 99.0455 L150.973 99.0455 Q156.531 99.0455 156.964 98.5515 Q157.581 97.656 158.353 92.9314 L159.959 92.9314 L158.168 103.924 L134.7 103.924 Z" fill="#000000" fill-rule="nonzero" fill-opacity="1" /><path clip-path="url(#clip300)" d="M169.501 102.905 Q168.543 101.886 168.543 100.559 Q168.543 99.2308 169.501 98.2735 Q170.458 97.2854 171.909 97.2854 Q173.299 97.2854 174.225 98.2118 Q175.183 99.1073 175.183 100.589 Q175.183 102.041 174.164 102.998 Q173.175 103.924 171.909 103.924 Q170.458 103.924 169.501 102.905 Z" fill="#000000" fill-rule="nonzero" fill-opacity="1" /><path clip-path="url(#clip300)" d="M183.89 93.7343 Q183.89 91.8507 184.909 91.1405 Q185.928 90.3994 187.009 90.3994 Q188.461 90.3994 189.294 91.3257 Q190.159 92.2212 190.159 93.4873 Q190.159 94.7533 189.294 95.6797 Q188.461 96.5752 187.009 96.5752 Q186.299 96.5752 185.928 96.4517 Q186.762 99.3543 189.294 101.454 Q191.857 103.554 195.223 103.554 Q199.454 103.554 201.986 99.447 Q203.499 96.7913 203.499 90.7699 Q203.499 85.4587 202.356 82.8031 Q200.596 78.7579 196.983 78.7579 Q191.857 78.7579 188.831 83.1736 Q188.461 83.7294 188.028 83.7603 Q187.411 83.7603 187.256 83.4207 Q187.133 83.0501 187.133 82.0928 L187.133 63.3801 Q187.133 61.867 187.75 61.867 Q187.997 61.867 188.522 62.0522 Q192.506 63.8124 196.921 63.8432 Q201.461 63.8432 205.537 61.9905 Q205.846 61.8052 206.031 61.8052 Q206.648 61.8052 206.679 62.5154 Q206.679 62.7625 206.154 63.5036 Q205.66 64.2138 204.58 65.171 Q203.499 66.0974 202.109 66.9929 Q200.72 67.8884 198.682 68.506 Q196.674 69.0927 194.451 69.0927 Q191.796 69.0927 189.078 68.259 L189.078 80.5798 Q192.351 77.3683 197.107 77.3683 Q202.171 77.3683 205.66 81.4444 Q209.15 85.5204 209.15 91.2022 Q209.15 97.1619 205.012 101.238 Q200.905 105.314 195.347 105.314 Q190.282 105.314 187.071 101.701 Q183.89 98.0883 183.89 93.7343 Z" fill="#000000" fill-rule="nonzero" fill-opacity="1" /><path clip-path="url(#clip300)" d="M60.1802 882.255 Q59.8992 882.255 58.0722 881.306 Q56.2101 880.358 49.5699 877.02 Q42.8945 873.682 35.9029 870.239 L10.958 857.837 Q9.37696 856.959 9.37696 855.834 Q9.37696 854.816 10.0094 854.359 Q10.6418 853.902 14.8929 851.794 Q16.9658 850.705 18.3009 850.073 L59.0208 829.73 Q59.8992 829.379 60.1802 829.344 Q60.8829 829.344 60.8829 830.573 L60.8829 880.358 Q60.8829 882.255 60.1802 882.255 M55.4021 877.512 L55.4021 838.795 L16.5442 858.153 L55.4021 877.512 Z" fill="#000000" fill-rule="nonzero" fill-opacity="1" /><path clip-path="url(#clip300)" d="M10.8877 780.238 L26.6276 784.137 Q27.5762 784.348 27.8221 784.524 Q28.0681 784.7 28.0681 785.191 Q28.0681 785.578 27.8924 785.824 Q27.7167 786.035 27.5411 786.035 L27.3654 786.07 Q27.26 786.07 26.733 785.999 Q26.1709 785.929 25.2574 785.859 Q24.3439 785.789 23.325 785.789 Q17.5631 785.789 14.8929 788.599 Q12.1877 791.375 12.1877 796.153 Q12.1877 799.456 13.9443 802.407 Q15.701 805.358 18.4766 807.045 Q21.217 808.731 24.098 808.731 Q26.733 808.731 28.4194 807.396 Q30.1058 806.061 30.668 804.339 L31.9679 799.526 Q33.2679 794.467 33.83 793.026 Q34.357 791.586 35.5515 790.391 Q38.8541 786.843 43.9836 786.843 Q48.4105 786.843 52.6968 789.337 Q56.9479 791.832 59.7235 796.118 Q62.4639 800.404 62.4639 805.147 Q62.4639 813.474 57.2993 817.304 L61.3748 820.817 Q62.1477 821.484 62.2883 821.695 Q62.4639 821.871 62.4639 822.117 Q62.4639 822.433 62.2531 822.679 Q62.0775 822.925 61.7613 822.925 Q61.5153 822.925 53.2589 820.852 Q45.0025 818.779 44.8268 818.604 Q44.5458 818.322 44.5458 817.866 Q44.5458 817.023 45.3538 817.023 Q45.5646 817.093 45.8457 817.163 Q48.3753 817.585 49.7455 817.585 Q52.3103 817.585 54.2778 816.706 Q56.2101 815.828 57.3344 814.528 Q58.4236 813.193 59.1262 811.401 Q59.7938 809.609 60.0397 808.099 Q60.2505 806.588 60.2505 805.007 Q60.2505 801.599 58.283 798.577 Q56.3155 795.521 53.2589 793.799 Q50.2023 792.042 47.0051 792.042 Q45.3187 792.042 44.0188 792.499 Q42.6837 792.956 41.9459 793.588 Q41.2081 794.186 40.6459 795.205 Q40.0838 796.223 39.873 796.926 Q39.627 797.594 39.3811 798.648 L37.3434 806.342 Q36.4299 809.434 33.7949 811.647 Q31.1598 813.825 27.1195 813.825 Q22.8683 813.825 18.9333 811.331 Q14.9632 808.801 12.5741 804.691 Q10.1499 800.545 10.1499 796.083 Q10.1499 792.569 11.5201 789.864 Q12.8552 787.159 15.3497 785.789 L11.239 782.31 Q10.431 781.608 10.2904 781.467 Q10.1499 781.292 10.1499 781.046 Q10.1499 780.624 10.3958 780.448 Q10.6418 780.238 10.8877 780.238 Z" fill="#000000" fill-rule="nonzero" fill-opacity="1" /><path clip-path="url(#clip300)" d="M82.3823 772.979 Q81.4723 772.979 81.2018 772.906 Q80.9313 772.807 80.5132 772.414 L69.7412 762.748 Q63.7896 757.461 58.6003 757.461 Q55.231 757.461 52.8208 759.232 Q50.4107 760.978 50.4107 764.199 Q50.4107 766.413 51.7633 768.282 Q53.1159 770.151 55.5261 771.012 Q55.4769 770.864 55.4769 770.348 Q55.4769 769.094 56.2639 768.405 Q57.0509 767.692 58.1084 767.692 Q59.4611 767.692 60.1251 768.577 Q60.7645 769.438 60.7645 770.299 Q60.7645 770.643 60.6908 771.11 Q60.617 771.553 59.9284 772.266 Q59.2152 772.979 57.9609 772.979 Q54.444 772.979 51.6403 770.323 Q48.8367 767.643 48.8367 763.56 Q48.8367 758.936 51.5911 755.911 Q54.321 752.862 58.6003 752.862 Q60.1005 752.862 61.4778 753.329 Q62.8304 753.772 63.8879 754.387 Q64.9455 754.977 66.6424 756.6 Q68.3394 758.223 69.5445 759.527 Q70.7495 760.83 73.3073 763.757 L78.4965 769.094 L78.4965 760.019 Q78.4965 755.592 78.103 755.247 Q77.3898 754.756 73.627 754.141 L73.627 752.862 L82.3823 754.288 L82.3823 772.979 Z" fill="#000000" fill-rule="nonzero" fill-opacity="1" /><path clip-path="url(#clip300)" d="M42.8945 745.382 Q30.7382 745.382 20.9359 740.85 Q16.8253 738.918 13.3822 736.212 Q9.9391 733.507 8.42835 731.715 Q6.91761 729.923 6.91761 729.431 Q6.91761 728.729 7.62028 728.694 Q7.97162 728.694 8.84996 729.642 Q20.6549 741.236 42.8945 741.201 Q65.2044 741.201 76.5525 729.923 Q77.7822 728.694 78.1687 728.694 Q78.8714 728.694 78.8714 729.431 Q78.8714 729.923 77.4309 731.645 Q75.9904 733.366 72.6878 736.037 Q69.3853 738.707 65.3449 740.639 Q55.5426 745.382 42.8945 745.382 Z" fill="#000000" fill-rule="nonzero" fill-opacity="1" /><path clip-path="url(#clip300)" d="M40.8216 683.779 Q46.0214 683.779 50.905 686.449 Q55.7885 689.084 58.7398 693.23 Q61.691 697.34 61.691 701.486 Q61.691 706.159 56.8425 708.583 Q74.4445 712.975 74.9013 713.221 Q76.412 714.239 76.412 715.715 Q76.412 716.629 75.8499 717.191 Q75.3229 717.753 74.4796 717.753 Q74.1986 717.718 73.3202 717.507 L45.0376 710.48 Q38.4676 708.864 33.7949 703.98 Q29.0869 699.062 29.0869 693.792 Q29.0869 689.611 32.2138 686.695 Q35.3407 683.779 40.8216 683.779 M37.7298 688.943 Q34.2165 688.943 32.4598 690.349 Q30.668 691.754 30.668 693.932 Q30.668 695.935 32.2841 698.359 Q33.9003 700.748 37.4839 702.856 Q39.5568 703.98 42.1215 704.788 Q44.6863 705.597 51.0104 707.178 Q53.54 707.74 53.6805 707.74 Q53.9616 707.74 54.594 707.599 Q55.2264 707.424 56.2101 707.002 Q57.1587 706.545 58.002 705.913 Q58.8452 705.28 59.4776 704.121 Q60.0748 702.962 60.0748 701.556 Q60.0748 699.378 58.3182 697.059 Q56.5263 694.705 53.2589 692.984 Q50.6239 691.543 45.67 690.243 Q40.6811 688.943 37.7298 688.943 Z" fill="#000000" fill-rule="nonzero" fill-opacity="1" /><path clip-path="url(#clip300)" d="M96.6761 641.878 Q97.1434 641.878 97.3894 642.075 Q97.6107 642.247 97.6599 642.419 Q97.6845 642.567 97.6845 642.788 Q97.6845 643.428 97.6107 645.641 Q97.5369 647.854 97.5369 648.494 Q97.5369 649.527 97.6107 651.642 Q97.6845 653.757 97.6845 654.79 Q97.6845 655.478 97.1188 655.478 Q96.7499 655.478 96.5532 655.405 Q96.3318 655.331 96.2581 655.134 Q96.1597 654.913 96.1597 654.79 Q96.1351 654.642 96.1351 654.273 Q96.1351 653.782 96.0859 653.265 Q96.0121 652.749 95.8646 652.109 Q95.717 651.47 95.3481 651.076 Q94.9792 650.658 94.4627 650.658 Q94.2414 650.658 92.4215 650.83 Q90.6015 651.002 88.4865 651.224 Q86.3468 651.445 86.0517 651.47 L86.0517 664.111 Q88.0438 665.267 89.421 666.078 Q90.7983 666.89 91.2656 667.185 Q91.7328 667.48 92.028 667.652 Q92.3231 667.824 92.4952 667.923 Q93.7987 668.636 94.3643 668.636 Q95.9383 668.636 96.1351 666.275 Q96.1351 665.463 96.7253 665.463 Q97.168 665.463 97.414 665.66 Q97.6353 665.857 97.6599 666.029 Q97.6845 666.177 97.6845 666.423 Q97.6845 667.234 97.6107 668.931 Q97.5369 670.628 97.5369 671.464 Q97.5369 672.177 97.6107 673.653 Q97.6845 675.129 97.6845 675.793 Q97.6845 676.088 97.5123 676.26 Q97.3402 676.432 97.1188 676.432 Q96.7745 676.432 96.5778 676.383 Q96.381 676.309 96.2826 676.112 Q96.1843 675.916 96.1843 675.817 Q96.1597 675.719 96.1351 675.375 Q96.0121 673.506 95.1267 672.055 Q94.2168 670.579 91.8804 669.177 L62.4665 651.666 Q62.1714 651.494 62.0238 651.371 Q61.8762 651.248 61.7533 651.002 Q61.6303 650.732 61.6303 650.338 Q61.6303 649.724 61.8271 649.601 Q61.9992 649.478 62.8354 649.404 L94.3152 646.33 Q94.9792 646.256 95.2497 646.207 Q95.4957 646.133 95.7662 645.813 Q96.0121 645.469 96.0859 644.854 Q96.1351 644.215 96.1351 643.034 Q96.1351 642.591 96.1597 642.419 Q96.1597 642.247 96.2826 642.075 Q96.4056 641.878 96.6761 641.878 M84.4777 651.617 L67.8771 653.216 L84.4777 663.152 L84.4777 651.617 Z" fill="#000000" fill-rule="nonzero" fill-opacity="1" /><path clip-path="url(#clip300)" d="M101.897 617.724 Q102.034 617.724 102.568 617.878 Q103.102 618.033 103.928 618.412 Q104.755 618.774 105.512 619.273 Q106.252 619.772 106.803 620.599 Q107.337 621.408 107.337 622.337 Q107.337 623.577 106.51 624.403 Q105.684 625.23 104.445 625.23 Q103.756 625.23 102.809 624.868 Q96.6977 622.578 94.5974 622.578 Q92.1356 622.578 92.1356 624.489 Q92.1356 625.436 92.4971 626.331 Q92.8414 627.209 93.3234 627.812 Q93.8055 628.414 94.4769 628.965 Q95.1311 629.499 95.5787 629.774 Q96.009 630.033 96.4394 630.239 L98.1954 630.687 Q98.6774 630.79 100.554 631.289 L103.739 632.064 Q106.115 632.615 106.338 632.735 Q106.82 632.908 107.079 633.286 Q107.337 633.665 107.337 634.044 Q107.337 634.474 107.079 634.767 Q106.82 635.06 106.373 635.06 Q106.304 635.06 106.046 635.008 Q105.787 634.956 105.426 634.87 Q105.064 634.784 104.858 634.75 L96.7149 632.701 Q95.2343 632.322 94.7695 632.236 Q94.2875 632.133 93.7538 632.133 Q92.1356 632.133 92.1356 633.235 Q92.1356 634.13 93.2029 634.715 Q94.2703 635.301 96.3361 635.8 Q96.9043 635.955 97.0248 636.058 Q97.1453 636.144 97.1453 636.402 Q97.1281 636.833 96.7837 636.833 Q96.6977 636.833 96.1296 636.695 Q95.5614 636.557 94.7523 636.299 Q93.926 636.024 93.3751 635.765 Q92.9619 635.542 92.7725 635.421 Q92.5659 635.283 92.17 634.956 Q91.7568 634.612 91.5674 634.164 Q91.3609 633.7 91.3609 633.131 Q91.3609 631.857 92.1872 630.928 Q92.9963 629.998 94.4252 629.878 Q91.3609 627.588 91.3609 624.386 Q91.3609 622.492 92.3594 621.408 Q93.3579 620.323 95.1311 620.323 Q95.5442 620.323 96.0779 620.409 Q96.5944 620.478 97.2486 620.65 Q97.9028 620.805 98.402 620.943 Q98.9012 621.081 99.7104 621.356 Q100.502 621.631 100.847 621.752 Q101.191 621.872 102 622.165 Q102.792 622.441 102.878 622.475 Q104.479 623.112 105.391 623.112 Q105.994 623.112 106.269 622.923 Q106.545 622.716 106.545 622.268 Q106.545 621.063 105.357 620.168 Q104.152 619.256 102.189 618.67 Q101.759 618.533 101.656 618.464 Q101.552 618.378 101.552 618.137 Q101.552 617.724 101.897 617.724 Z" fill="#000000" fill-rule="nonzero" fill-opacity="1" /><path clip-path="url(#clip300)" d="M78.1687 602.838 Q77.8173 602.838 76.939 601.925 Q65.1341 590.331 42.8945 590.331 Q20.5846 590.331 9.30669 601.468 Q8.00675 602.838 7.62028 602.838 Q6.91761 602.838 6.91761 602.136 Q6.91761 601.644 8.35809 599.922 Q9.79857 598.166 13.1011 595.53 Q16.4037 592.86 20.4441 590.893 Q30.2464 586.15 42.8945 586.15 Q55.0507 586.15 64.853 590.682 Q68.9637 592.614 72.4068 595.32 Q75.8499 598.025 77.3606 599.817 Q78.8714 601.609 78.8714 602.136 Q78.8714 602.838 78.1687 602.838 Z" fill="#000000" fill-rule="nonzero" fill-opacity="1" /><polyline clip-path="url(#clip302)" style="stroke:#009af9; stroke-linecap:round; stroke-linejoin:round; stroke-width:4; stroke-opacity:1; fill:none" points="2293.11,282.273 1961.72,161.947 1298.95,87.4856 967.568,104.523 636.184,182.137 304.799,185.253 "/>
<path clip-path="url(#clip302)" d="M2277.11 266.273 L2277.11 298.273 L2309.11 298.273 L2309.11 266.273 L2277.11 266.273 Z" fill="#009af9" fill-rule="evenodd" fill-opacity="1" stroke="#000000" stroke-opacity="1" stroke-width="3.2"/>
<path clip-path="url(#clip302)" d="M1945.72 145.947 L1945.72 177.947 L1977.72 177.947 L1977.72 145.947 L1945.72 145.947 Z" fill="#009af9" fill-rule="evenodd" fill-opacity="1" stroke="#000000" stroke-opacity="1" stroke-width="3.2"/>
<path clip-path="url(#clip302)" d="M1282.95 71.4856 L1282.95 103.486 L1314.95 103.486 L1314.95 71.4856 L1282.95 71.4856 Z" fill="#009af9" fill-rule="evenodd" fill-opacity="1" stroke="#000000" stroke-opacity="1" stroke-width="3.2"/>
<path clip-path="url(#clip302)" d="M951.568 88.5227 L951.568 120.523 L983.568 120.523 L983.568 88.5227 L951.568 88.5227 Z" fill="#009af9" fill-rule="evenodd" fill-opacity="1" stroke="#000000" stroke-opacity="1" stroke-width="3.2"/>
<path clip-path="url(#clip302)" d="M620.184 166.137 L620.184 198.137 L652.184 198.137 L652.184 166.137 L620.184 166.137 Z" fill="#009af9" fill-rule="evenodd" fill-opacity="1" stroke="#000000" stroke-opacity="1" stroke-width="3.2"/>
<path clip-path="url(#clip302)" d="M288.799 169.253 L288.799 201.253 L320.799 201.253 L320.799 169.253 L288.799 169.253 Z" fill="#009af9" fill-rule="evenodd" fill-opacity="1" stroke="#000000" stroke-opacity="1" stroke-width="3.2"/>
<polyline clip-path="url(#clip302)" style="stroke:#000000; stroke-linecap:round; stroke-linejoin:round; stroke-width:4; stroke-opacity:1; fill:none" points="2293.11,282.684 2293.11,281.863 "/>
<polyline clip-path="url(#clip302)" style="stroke:#000000; stroke-linecap:round; stroke-linejoin:round; stroke-width:4; stroke-opacity:1; fill:none" points="1961.72,163.063 1961.72,160.83 "/>
<polyline clip-path="url(#clip302)" style="stroke:#000000; stroke-linecap:round; stroke-linejoin:round; stroke-width:4; stroke-opacity:1; fill:none" points="1298.95,89.1524 1298.95,85.8189 "/>
<polyline clip-path="url(#clip302)" style="stroke:#000000; stroke-linecap:round; stroke-linejoin:round; stroke-width:4; stroke-opacity:1; fill:none" points="967.568,107.628 967.568,101.417 "/>
<polyline clip-path="url(#clip302)" style="stroke:#000000; stroke-linecap:round; stroke-linejoin:round; stroke-width:4; stroke-opacity:1; fill:none" points="636.184,190.553 636.184,173.721 "/>
<polyline clip-path="url(#clip302)" style="stroke:#000000; stroke-linecap:round; stroke-linejoin:round; stroke-width:4; stroke-opacity:1; fill:none" points="304.799,199.802 304.799,170.704 "/>
<line clip-path="url(#clip302)" x1="2309.11" y1="282.684" x2="2277.11" y2="282.684" style="stroke:#000000; stroke-width:4; stroke-opacity:1"/>
<line clip-path="url(#clip302)" x1="2309.11" y1="281.863" x2="2277.11" y2="281.863" style="stroke:#000000; stroke-width:4; stroke-opacity:1"/>
<line clip-path="url(#clip302)" x1="1977.72" y1="163.063" x2="1945.72" y2="163.063" style="stroke:#000000; stroke-width:4; stroke-opacity:1"/>
<line clip-path="url(#clip302)" x1="1977.72" y1="160.83" x2="1945.72" y2="160.83" style="stroke:#000000; stroke-width:4; stroke-opacity:1"/>
<line clip-path="url(#clip302)" x1="1314.95" y1="89.1524" x2="1282.95" y2="89.1524" style="stroke:#000000; stroke-width:4; stroke-opacity:1"/>
<line clip-path="url(#clip302)" x1="1314.95" y1="85.8189" x2="1282.95" y2="85.8189" style="stroke:#000000; stroke-width:4; stroke-opacity:1"/>
<line clip-path="url(#clip302)" x1="983.568" y1="107.628" x2="951.568" y2="107.628" style="stroke:#000000; stroke-width:4; stroke-opacity:1"/>
<line clip-path="url(#clip302)" x1="983.568" y1="101.417" x2="951.568" y2="101.417" style="stroke:#000000; stroke-width:4; stroke-opacity:1"/>
<line clip-path="url(#clip302)" x1="652.184" y1="190.553" x2="620.184" y2="190.553" style="stroke:#000000; stroke-width:4; stroke-opacity:1"/>
<line clip-path="url(#clip302)" x1="652.184" y1="173.721" x2="620.184" y2="173.721" style="stroke:#000000; stroke-width:4; stroke-opacity:1"/>
<line clip-path="url(#clip302)" x1="320.799" y1="199.802" x2="288.799" y2="199.802" style="stroke:#000000; stroke-width:4; stroke-opacity:1"/>
<line clip-path="url(#clip302)" x1="320.799" y1="170.704" x2="288.799" y2="170.704" style="stroke:#000000; stroke-width:4; stroke-opacity:1"/>
<polyline clip-path="url(#clip302)" style="stroke:#e26f46; stroke-linecap:round; stroke-linejoin:round; stroke-width:4; stroke-opacity:1; fill:none" points="2293.11,391.951 1961.72,513.196 1298.95,924.695 967.568,1056.7 636.184,1278.54 304.799,1340.51 "/>
<path clip-path="url(#clip302)" d="M2277.11 375.951 L2277.11 407.951 L2309.11 407.951 L2309.11 375.951 L2277.11 375.951 Z" fill="#e26f46" fill-rule="evenodd" fill-opacity="1" stroke="#000000" stroke-opacity="1" stroke-width="3.2"/>
<path clip-path="url(#clip302)" d="M1945.72 497.196 L1945.72 529.196 L1977.72 529.196 L1977.72 497.196 L1945.72 497.196 Z" fill="#e26f46" fill-rule="evenodd" fill-opacity="1" stroke="#000000" stroke-opacity="1" stroke-width="3.2"/>
<path clip-path="url(#clip302)" d="M1282.95 908.695 L1282.95 940.695 L1314.95 940.695 L1314.95 908.695 L1282.95 908.695 Z" fill="#e26f46" fill-rule="evenodd" fill-opacity="1" stroke="#000000" stroke-opacity="1" stroke-width="3.2"/>
<path clip-path="url(#clip302)" d="M951.568 1040.7 L951.568 1072.7 L983.568 1072.7 L983.568 1040.7 L951.568 1040.7 Z" fill="#e26f46" fill-rule="evenodd" fill-opacity="1" stroke="#000000" stroke-opacity="1" stroke-width="3.2"/>
<path clip-path="url(#clip302)" d="M620.184 1262.54 L620.184 1294.54 L652.184 1294.54 L652.184 1262.54 L620.184 1262.54 Z" fill="#e26f46" fill-rule="evenodd" fill-opacity="1" stroke="#000000" stroke-opacity="1" stroke-width="3.2"/>
<path clip-path="url(#clip302)" d="M288.799 1324.51 L288.799 1356.51 L320.799 1356.51 L320.799 1324.51 L288.799 1324.51 Z" fill="#e26f46" fill-rule="evenodd" fill-opacity="1" stroke="#000000" stroke-opacity="1" stroke-width="3.2"/>
<polyline clip-path="url(#clip302)" style="stroke:#000000; stroke-linecap:round; stroke-linejoin:round; stroke-width:4; stroke-opacity:1; fill:none" points="2293.11,392.271 2293.11,391.632 "/>
<polyline clip-path="url(#clip302)" style="stroke:#000000; stroke-linecap:round; stroke-linejoin:round; stroke-width:4; stroke-opacity:1; fill:none" points="1961.72,515.14 1961.72,511.251 "/>
<polyline clip-path="url(#clip302)" style="stroke:#000000; stroke-linecap:round; stroke-linejoin:round; stroke-width:4; stroke-opacity:1; fill:none" points="1298.95,932.371 1298.95,917.019 "/>
<polyline clip-path="url(#clip302)" style="stroke:#000000; stroke-linecap:round; stroke-linejoin:round; stroke-width:4; stroke-opacity:1; fill:none" points="967.568,1067.58 967.568,1045.83 "/>
<polyline clip-path="url(#clip302)" style="stroke:#000000; stroke-linecap:round; stroke-linejoin:round; stroke-width:4; stroke-opacity:1; fill:none" points="636.184,1299.03 636.184,1258.06 "/>
<polyline clip-path="url(#clip302)" style="stroke:#000000; stroke-linecap:round; stroke-linejoin:round; stroke-width:4; stroke-opacity:1; fill:none" points="304.799,1371.65 304.799,1309.37 "/>
<line clip-path="url(#clip302)" x1="2309.11" y1="392.271" x2="2277.11" y2="392.271" style="stroke:#000000; stroke-width:4; stroke-opacity:1"/>
<line clip-path="url(#clip302)" x1="2309.11" y1="391.632" x2="2277.11" y2="391.632" style="stroke:#000000; stroke-width:4; stroke-opacity:1"/>
<line clip-path="url(#clip302)" x1="1977.72" y1="515.14" x2="1945.72" y2="515.14" style="stroke:#000000; stroke-width:4; stroke-opacity:1"/>
<line clip-path="url(#clip302)" x1="1977.72" y1="511.251" x2="1945.72" y2="511.251" style="stroke:#000000; stroke-width:4; stroke-opacity:1"/>
<line clip-path="url(#clip302)" x1="1314.95" y1="932.371" x2="1282.95" y2="932.371" style="stroke:#000000; stroke-width:4; stroke-opacity:1"/>
<line clip-path="url(#clip302)" x1="1314.95" y1="917.019" x2="1282.95" y2="917.019" style="stroke:#000000; stroke-width:4; stroke-opacity:1"/>
<line clip-path="url(#clip302)" x1="983.568" y1="1067.58" x2="951.568" y2="1067.58" style="stroke:#000000; stroke-width:4; stroke-opacity:1"/>
<line clip-path="url(#clip302)" x1="983.568" y1="1045.83" x2="951.568" y2="1045.83" style="stroke:#000000; stroke-width:4; stroke-opacity:1"/>
<line clip-path="url(#clip302)" x1="652.184" y1="1299.03" x2="620.184" y2="1299.03" style="stroke:#000000; stroke-width:4; stroke-opacity:1"/>
<line clip-path="url(#clip302)" x1="652.184" y1="1258.06" x2="620.184" y2="1258.06" style="stroke:#000000; stroke-width:4; stroke-opacity:1"/>
<line clip-path="url(#clip302)" x1="320.799" y1="1371.65" x2="288.799" y2="1371.65" style="stroke:#000000; stroke-width:4; stroke-opacity:1"/>
<line clip-path="url(#clip302)" x1="320.799" y1="1309.37" x2="288.799" y2="1309.37" style="stroke:#000000; stroke-width:4; stroke-opacity:1"/>
<polyline clip-path="url(#clip302)" style="stroke:#3da44d; stroke-linecap:round; stroke-linejoin:round; stroke-width:4; stroke-opacity:1; fill:none" points="2293.11,339.978 1961.72,309.198 1298.95,222.142 967.568,241.865 636.184,262.305 304.799,456.571 "/>
<path clip-path="url(#clip302)" d="M2277.11 323.978 L2277.11 355.978 L2309.11 355.978 L2309.11 323.978 L2277.11 323.978 Z" fill="#3da44d" fill-rule="evenodd" fill-opacity="1" stroke="#000000" stroke-opacity="1" stroke-width="3.2"/>
<path clip-path="url(#clip302)" d="M1945.72 293.198 L1945.72 325.198 L1977.72 325.198 L1977.72 293.198 L1945.72 293.198 Z" fill="#3da44d" fill-rule="evenodd" fill-opacity="1" stroke="#000000" stroke-opacity="1" stroke-width="3.2"/>
<path clip-path="url(#clip302)" d="M1282.95 206.142 L1282.95 238.142 L1314.95 238.142 L1314.95 206.142 L1282.95 206.142 Z" fill="#3da44d" fill-rule="evenodd" fill-opacity="1" stroke="#000000" stroke-opacity="1" stroke-width="3.2"/>
<path clip-path="url(#clip302)" d="M951.568 225.865 L951.568 257.865 L983.568 257.865 L983.568 225.865 L951.568 225.865 Z" fill="#3da44d" fill-rule="evenodd" fill-opacity="1" stroke="#000000" stroke-opacity="1" stroke-width="3.2"/>
<path clip-path="url(#clip302)" d="M620.184 246.305 L620.184 278.305 L652.184 278.305 L652.184 246.305 L620.184 246.305 Z" fill="#3da44d" fill-rule="evenodd" fill-opacity="1" stroke="#000000" stroke-opacity="1" stroke-width="3.2"/>
<path clip-path="url(#clip302)" d="M288.799 440.571 L288.799 472.571 L320.799 472.571 L320.799 440.571 L288.799 440.571 Z" fill="#3da44d" fill-rule="evenodd" fill-opacity="1" stroke="#000000" stroke-opacity="1" stroke-width="3.2"/>
<polyline clip-path="url(#clip302)" style="stroke:#000000; stroke-linecap:round; stroke-linejoin:round; stroke-width:4; stroke-opacity:1; fill:none" points="2293.11,340.439 2293.11,339.517 "/>
<polyline clip-path="url(#clip302)" style="stroke:#000000; stroke-linecap:round; stroke-linejoin:round; stroke-width:4; stroke-opacity:1; fill:none" points="1961.72,310.823 1961.72,307.573 "/>
<polyline clip-path="url(#clip302)" style="stroke:#000000; stroke-linecap:round; stroke-linejoin:round; stroke-width:4; stroke-opacity:1; fill:none" points="1298.95,224.596 1298.95,219.689 "/>
<polyline clip-path="url(#clip302)" style="stroke:#000000; stroke-linecap:round; stroke-linejoin:round; stroke-width:4; stroke-opacity:1; fill:none" points="967.568,244.816 967.568,238.915 "/>
<polyline clip-path="url(#clip302)" style="stroke:#000000; stroke-linecap:round; stroke-linejoin:round; stroke-width:4; stroke-opacity:1; fill:none" points="636.184,268.126 636.184,256.484 "/>
<polyline clip-path="url(#clip302)" style="stroke:#000000; stroke-linecap:round; stroke-linejoin:round; stroke-width:4; stroke-opacity:1; fill:none" points="304.799,478.049 304.799,435.093 "/>
<line clip-path="url(#clip302)" x1="2309.11" y1="340.439" x2="2277.11" y2="340.439" style="stroke:#000000; stroke-width:4; stroke-opacity:1"/>
<line clip-path="url(#clip302)" x1="2309.11" y1="339.517" x2="2277.11" y2="339.517" style="stroke:#000000; stroke-width:4; stroke-opacity:1"/>
<line clip-path="url(#clip302)" x1="1977.72" y1="310.823" x2="1945.72" y2="310.823" style="stroke:#000000; stroke-width:4; stroke-opacity:1"/>
<line clip-path="url(#clip302)" x1="1977.72" y1="307.573" x2="1945.72" y2="307.573" style="stroke:#000000; stroke-width:4; stroke-opacity:1"/>
<line clip-path="url(#clip302)" x1="1314.95" y1="224.596" x2="1282.95" y2="224.596" style="stroke:#000000; stroke-width:4; stroke-opacity:1"/>
<line clip-path="url(#clip302)" x1="1314.95" y1="219.689" x2="1282.95" y2="219.689" style="stroke:#000000; stroke-width:4; stroke-opacity:1"/>
<line clip-path="url(#clip302)" x1="983.568" y1="244.816" x2="951.568" y2="244.816" style="stroke:#000000; stroke-width:4; stroke-opacity:1"/>
<line clip-path="url(#clip302)" x1="983.568" y1="238.915" x2="951.568" y2="238.915" style="stroke:#000000; stroke-width:4; stroke-opacity:1"/>
<line clip-path="url(#clip302)" x1="652.184" y1="268.126" x2="620.184" y2="268.126" style="stroke:#000000; stroke-width:4; stroke-opacity:1"/>
<line clip-path="url(#clip302)" x1="652.184" y1="256.484" x2="620.184" y2="256.484" style="stroke:#000000; stroke-width:4; stroke-opacity:1"/>
<line clip-path="url(#clip302)" x1="320.799" y1="478.049" x2="288.799" y2="478.049" style="stroke:#000000; stroke-width:4; stroke-opacity:1"/>
<line clip-path="url(#clip302)" x1="320.799" y1="435.093" x2="288.799" y2="435.093" style="stroke:#000000; stroke-width:4; stroke-opacity:1"/>
<path clip-path="url(#clip300)" d="M1691.17 1364.79 L2282.5 1364.79 L2282.5 944.883 L1691.17 944.883  Z" fill="#ffffff" fill-rule="evenodd" fill-opacity="1"/>
<polyline clip-path="url(#clip300)" style="stroke:#000000; stroke-linecap:round; stroke-linejoin:round; stroke-width:4; stroke-opacity:0; fill:none" points="1691.17,1364.79 2282.5,1364.79 2282.5,944.883 1691.17,944.883 1691.17,1364.79 "/>
<polyline clip-path="url(#clip300)" style="stroke:#009af9; stroke-linecap:round; stroke-linejoin:round; stroke-width:6; stroke-opacity:1; fill:none" points="1714.59,1049.86 1855.09,1049.86 "/>
<path clip-path="url(#clip300)" d="M1774.13 1039.15 L1774.13 1060.57 L1795.55 1060.57 L1795.55 1039.15 L1774.13 1039.15 Z" fill="#009af9" fill-rule="evenodd" fill-opacity="1" stroke="#000000" stroke-opacity="1" stroke-width="6.82667"/>
<path clip-path="url(#clip300)" d="M1878.51 1050.12 Q1878.51 1049.84 1879.46 1048.01 Q1880.41 1046.15 1883.75 1039.51 Q1887.08 1032.84 1890.53 1025.84 L1902.93 1000.9 Q1903.81 999.318 1904.93 999.318 Q1905.95 999.318 1906.41 999.95 Q1906.86 1000.58 1908.97 1004.83 Q1910.06 1006.91 1910.69 1008.24 L1931.04 1048.96 Q1931.39 1049.84 1931.42 1050.12 Q1931.42 1050.82 1930.19 1050.82 L1880.41 1050.82 Q1878.51 1050.82 1878.51 1050.12 M1883.25 1045.34 L1921.97 1045.34 L1902.61 1006.49 L1883.25 1045.34 Z" fill="#000000" fill-rule="nonzero" fill-opacity="1" /><path clip-path="url(#clip300)" d="M1980.53 1000.83 L1976.63 1016.57 Q1976.42 1017.52 1976.24 1017.76 Q1976.07 1018.01 1975.57 1018.01 Q1975.19 1018.01 1974.94 1017.83 Q1974.73 1017.66 1974.73 1017.48 L1974.7 1017.31 Q1974.7 1017.2 1974.77 1016.67 Q1974.84 1016.11 1974.91 1015.2 Q1974.98 1014.28 1974.98 1013.27 Q1974.98 1007.5 1972.17 1004.83 Q1969.39 1002.13 1964.61 1002.13 Q1961.31 1002.13 1958.36 1003.89 Q1955.41 1005.64 1953.72 1008.42 Q1952.04 1011.16 1952.04 1014.04 Q1952.04 1016.67 1953.37 1018.36 Q1954.71 1020.05 1956.43 1020.61 L1961.24 1021.91 Q1966.3 1023.21 1967.74 1023.77 Q1969.18 1024.3 1970.37 1025.49 Q1973.92 1028.8 1973.92 1033.92 Q1973.92 1038.35 1971.43 1042.64 Q1968.93 1046.89 1964.65 1049.66 Q1960.36 1052.41 1955.62 1052.41 Q1947.29 1052.41 1943.46 1047.24 L1939.95 1051.32 Q1939.28 1052.09 1939.07 1052.23 Q1938.9 1052.41 1938.65 1052.41 Q1938.33 1052.41 1938.09 1052.19 Q1937.84 1052.02 1937.84 1051.7 Q1937.84 1051.46 1939.91 1043.2 Q1941.99 1034.94 1942.16 1034.77 Q1942.44 1034.49 1942.9 1034.49 Q1943.74 1034.49 1943.74 1035.29 Q1943.67 1035.51 1943.6 1035.79 Q1943.18 1038.32 1943.18 1039.69 Q1943.18 1042.25 1944.06 1044.22 Q1944.94 1046.15 1946.24 1047.28 Q1947.57 1048.36 1949.37 1049.07 Q1951.16 1049.73 1952.67 1049.98 Q1954.18 1050.19 1955.76 1050.19 Q1959.17 1050.19 1962.19 1048.22 Q1965.25 1046.26 1966.97 1043.2 Q1968.72 1040.14 1968.72 1036.95 Q1968.72 1035.26 1968.27 1033.96 Q1967.81 1032.62 1967.18 1031.89 Q1966.58 1031.15 1965.56 1030.59 Q1964.54 1030.02 1963.84 1029.81 Q1963.17 1029.57 1962.12 1029.32 L1954.42 1027.28 Q1951.33 1026.37 1949.12 1023.74 Q1946.94 1021.1 1946.94 1017.06 Q1946.94 1012.81 1949.44 1008.87 Q1951.96 1004.9 1956.08 1002.52 Q1960.22 1000.09 1964.68 1000.09 Q1968.2 1000.09 1970.9 1001.46 Q1973.61 1002.8 1974.98 1005.29 L1978.46 1001.18 Q1979.16 1000.37 1979.3 1000.23 Q1979.47 1000.09 1979.72 1000.09 Q1980.14 1000.09 1980.32 1000.34 Q1980.53 1000.58 1980.53 1000.83 Z" fill="#000000" fill-rule="nonzero" fill-opacity="1" /><path clip-path="url(#clip300)" d="M1987.79 1072.32 Q1987.79 1071.41 1987.86 1071.14 Q1987.96 1070.87 1988.35 1070.45 L1998.02 1059.68 Q2003.31 1053.73 2003.31 1048.54 Q2003.31 1045.17 2001.53 1042.76 Q1999.79 1040.35 1996.57 1040.35 Q1994.35 1040.35 1992.48 1041.7 Q1990.62 1043.06 1989.75 1045.47 Q1989.9 1045.42 1990.42 1045.42 Q1991.67 1045.42 1992.36 1046.21 Q1993.07 1046.99 1993.07 1048.05 Q1993.07 1049.4 1992.19 1050.07 Q1991.33 1050.71 1990.47 1050.71 Q1990.12 1050.71 1989.66 1050.63 Q1989.21 1050.56 1988.5 1049.87 Q1987.79 1049.16 1987.79 1047.9 Q1987.79 1044.39 1990.44 1041.58 Q1993.12 1038.78 1997.21 1038.78 Q2001.83 1038.78 2004.85 1041.53 Q2007.9 1044.26 2007.9 1048.54 Q2007.9 1050.04 2007.44 1051.42 Q2006.99 1052.77 2006.38 1053.83 Q2005.79 1054.89 2004.17 1056.58 Q2002.54 1058.28 2001.24 1059.49 Q1999.94 1060.69 1997.01 1063.25 L1991.67 1068.44 L2000.75 1068.44 Q2005.17 1068.44 2005.52 1068.04 Q2006.01 1067.33 2006.63 1063.57 L2007.9 1063.57 L2006.48 1072.32 L1987.79 1072.32 Z" fill="#000000" fill-rule="nonzero" fill-opacity="1" /><path clip-path="url(#clip300)" d="M2015.38 1032.84 Q2015.38 1020.68 2019.92 1010.88 Q2021.85 1006.77 2024.55 1003.32 Q2027.26 999.88 2029.05 998.369 Q2030.84 996.859 2031.33 996.859 Q2032.04 996.859 2032.07 997.561 Q2032.07 997.913 2031.12 998.791 Q2019.53 1010.6 2019.56 1032.84 Q2019.56 1055.15 2030.84 1066.49 Q2032.07 1067.72 2032.07 1068.11 Q2032.07 1068.81 2031.33 1068.81 Q2030.84 1068.81 2029.12 1067.37 Q2027.4 1065.93 2024.73 1062.63 Q2022.06 1059.33 2020.13 1055.29 Q2015.38 1045.48 2015.38 1032.84 Z" fill="#000000" fill-rule="nonzero" fill-opacity="1" /><path clip-path="url(#clip300)" d="M2076.99 1030.76 Q2076.99 1035.96 2074.32 1040.85 Q2071.68 1045.73 2067.54 1048.68 Q2063.43 1051.63 2059.28 1051.63 Q2054.61 1051.63 2052.18 1046.78 Q2047.79 1064.39 2047.55 1064.84 Q2046.53 1066.35 2045.05 1066.35 Q2044.14 1066.35 2043.58 1065.79 Q2043.01 1065.26 2043.01 1064.42 Q2043.05 1064.14 2043.26 1063.26 L2050.29 1034.98 Q2051.9 1028.41 2056.79 1023.74 Q2061.7 1019.03 2066.97 1019.03 Q2071.16 1019.03 2074.07 1022.15 Q2076.99 1025.28 2076.99 1030.76 M2071.82 1027.67 Q2071.82 1024.16 2070.42 1022.4 Q2069.01 1020.61 2066.83 1020.61 Q2064.83 1020.61 2062.41 1022.23 Q2060.02 1023.84 2057.91 1027.42 Q2056.79 1029.5 2055.98 1032.06 Q2055.17 1034.63 2053.59 1040.95 Q2053.03 1043.48 2053.03 1043.62 Q2053.03 1043.9 2053.17 1044.54 Q2053.34 1045.17 2053.76 1046.15 Q2054.22 1047.1 2054.85 1047.94 Q2055.49 1048.79 2056.65 1049.42 Q2057.8 1050.02 2059.21 1050.02 Q2061.39 1050.02 2063.71 1048.26 Q2066.06 1046.47 2067.78 1043.2 Q2069.22 1040.56 2070.52 1035.61 Q2071.82 1030.62 2071.82 1027.67 Z" fill="#000000" fill-rule="nonzero" fill-opacity="1" /><path clip-path="url(#clip300)" d="M2118.89 1086.62 Q2118.89 1087.08 2118.69 1087.33 Q2118.52 1087.55 2118.35 1087.6 Q2118.2 1087.63 2117.98 1087.63 Q2117.34 1087.63 2115.13 1087.55 Q2112.91 1087.48 2112.27 1087.48 Q2111.24 1087.48 2109.12 1087.55 Q2107.01 1087.63 2105.98 1087.63 Q2105.29 1087.63 2105.29 1087.06 Q2105.29 1086.69 2105.36 1086.49 Q2105.44 1086.27 2105.63 1086.2 Q2105.85 1086.1 2105.98 1086.1 Q2106.12 1086.08 2106.49 1086.08 Q2106.98 1086.08 2107.5 1086.03 Q2108.02 1085.95 2108.66 1085.81 Q2109.3 1085.66 2109.69 1085.29 Q2110.11 1084.92 2110.11 1084.4 Q2110.11 1084.18 2109.94 1082.36 Q2109.76 1080.54 2109.54 1078.43 Q2109.32 1076.29 2109.3 1075.99 L2096.66 1075.99 Q2095.5 1077.98 2094.69 1079.36 Q2093.88 1080.74 2093.58 1081.21 Q2093.29 1081.67 2093.11 1081.97 Q2092.94 1082.26 2092.84 1082.44 Q2092.13 1083.74 2092.13 1084.31 Q2092.13 1085.88 2094.49 1086.08 Q2095.3 1086.08 2095.3 1086.67 Q2095.3 1087.11 2095.11 1087.36 Q2094.91 1087.58 2094.74 1087.6 Q2094.59 1087.63 2094.34 1087.63 Q2093.53 1087.63 2091.83 1087.55 Q2090.14 1087.48 2089.3 1087.48 Q2088.59 1087.48 2087.11 1087.55 Q2085.64 1087.63 2084.97 1087.63 Q2084.68 1087.63 2084.51 1087.45 Q2084.33 1087.28 2084.33 1087.06 Q2084.33 1086.72 2084.38 1086.52 Q2084.46 1086.32 2084.65 1086.22 Q2084.85 1086.13 2084.95 1086.13 Q2085.05 1086.1 2085.39 1086.08 Q2087.26 1085.95 2088.71 1085.07 Q2090.19 1084.16 2091.59 1081.82 L2109.1 1052.41 Q2109.27 1052.11 2109.39 1051.96 Q2109.52 1051.82 2109.76 1051.69 Q2110.03 1051.57 2110.43 1051.57 Q2111.04 1051.57 2111.17 1051.77 Q2111.29 1051.94 2111.36 1052.78 L2114.44 1084.26 Q2114.51 1084.92 2114.56 1085.19 Q2114.63 1085.44 2114.95 1085.71 Q2115.3 1085.95 2115.91 1086.03 Q2116.55 1086.08 2117.73 1086.08 Q2118.17 1086.08 2118.35 1086.1 Q2118.52 1086.1 2118.69 1086.22 Q2118.89 1086.35 2118.89 1086.62 M2109.15 1074.42 L2107.55 1057.82 L2097.61 1074.42 L2109.15 1074.42 Z" fill="#000000" fill-rule="nonzero" fill-opacity="1" /><path clip-path="url(#clip300)" d="M2123.93 1081.46 L2123.93 1080.35 Q2128.17 1080.35 2130.35 1078.1 Q2130.96 1078.1 2131.06 1078.24 Q2131.16 1078.37 2131.16 1079.01 L2131.16 1098.79 Q2131.16 1099.84 2131.68 1100.17 Q2132.2 1100.5 2134.45 1100.5 L2135.57 1100.5 L2135.57 1101.58 Q2134.33 1101.48 2129.86 1101.48 Q2125.38 1101.48 2124.16 1101.58 L2124.16 1100.5 L2125.28 1100.5 Q2127.5 1100.5 2128.03 1100.19 Q2128.56 1099.86 2128.56 1098.79 L2128.56 1080.53 Q2126.72 1081.46 2123.93 1081.46 Z" fill="#000000" fill-rule="nonzero" fill-opacity="1" /><path clip-path="url(#clip300)" d="M2136.75 1090.44 Q2136.75 1084.9 2139.58 1081.51 Q2142.4 1078.1 2146.03 1078.1 Q2148.15 1078.1 2149.32 1079.18 Q2150.51 1080.25 2150.51 1081.9 Q2150.51 1082.82 2149.98 1083.21 Q2149.44 1083.61 2148.89 1083.61 Q2148.25 1083.61 2147.76 1083.18 Q2147.26 1082.75 2147.26 1081.97 Q2147.26 1080.39 2149.2 1080.39 Q2148.29 1078.98 2146.1 1078.98 Q2145.43 1078.98 2144.74 1079.18 Q2144.05 1079.37 2143.16 1080.03 Q2142.26 1080.68 2141.57 1081.71 Q2140.89 1082.75 2140.4 1084.69 Q2139.92 1086.64 2139.92 1089.17 L2139.92 1090.01 Q2141.37 1086.52 2144.33 1086.54 Q2147.29 1086.54 2149.34 1088.79 Q2151.39 1091.05 2151.39 1094.39 Q2151.39 1097.81 2149.25 1100.08 Q2147.12 1102.36 2144.12 1102.36 Q2142.78 1102.36 2141.56 1101.79 Q2140.35 1101.24 2139.22 1099.96 Q2138.1 1098.69 2137.43 1096.24 Q2136.75 1093.8 2136.75 1090.44 M2139.99 1093.61 Q2139.99 1097.07 2140.63 1098.72 Q2140.73 1099 2140.96 1099.38 Q2141.2 1099.76 2141.59 1100.26 Q2142.01 1100.74 2142.68 1101.06 Q2143.35 1101.37 2144.12 1101.37 Q2146.48 1101.37 2147.62 1099.09 Q2148.22 1097.81 2148.22 1094.35 Q2148.22 1090.82 2147.58 1089.53 Q2146.5 1087.34 2144.3 1087.34 Q2142.81 1087.34 2141.78 1088.36 Q2140.77 1089.38 2140.37 1090.74 Q2139.99 1092.1 2139.99 1093.61 Z" fill="#000000" fill-rule="nonzero" fill-opacity="1" /><path clip-path="url(#clip300)" d="M2167.27 1068.11 Q2167.27 1067.76 2168.18 1066.88 Q2179.78 1055.08 2179.78 1032.84 Q2179.78 1010.53 2168.64 999.248 Q2167.27 997.948 2167.27 997.561 Q2167.27 996.859 2167.97 996.859 Q2168.47 996.859 2170.19 998.299 Q2171.94 999.74 2174.58 1003.04 Q2177.25 1006.34 2179.22 1010.39 Q2183.96 1020.19 2183.96 1032.84 Q2183.96 1044.99 2179.43 1054.79 Q2177.49 1058.9 2174.79 1062.35 Q2172.08 1065.79 2170.29 1067.3 Q2168.5 1068.81 2167.97 1068.81 Q2167.27 1068.81 2167.27 1068.11 Z" fill="#000000" fill-rule="nonzero" fill-opacity="1" /><polyline clip-path="url(#clip300)" style="stroke:#e26f46; stroke-linecap:round; stroke-linejoin:round; stroke-width:6; stroke-opacity:1; fill:none" points="1714.59,1154.84 1855.09,1154.84 "/>
<path clip-path="url(#clip300)" d="M1774.13 1144.13 L1774.13 1165.54 L1795.55 1165.54 L1795.55 1144.13 L1774.13 1144.13 Z" fill="#e26f46" fill-rule="evenodd" fill-opacity="1" stroke="#000000" stroke-opacity="1" stroke-width="6.82667"/>
<path clip-path="url(#clip300)" d="M1878.51 1155.1 Q1878.51 1154.82 1879.46 1152.99 Q1880.41 1151.13 1883.75 1144.49 Q1887.08 1137.81 1890.53 1130.82 L1902.93 1105.88 Q1903.81 1104.29 1904.93 1104.29 Q1905.95 1104.29 1906.41 1104.93 Q1906.86 1105.56 1908.97 1109.81 Q1910.06 1111.88 1910.69 1113.22 L1931.04 1153.94 Q1931.39 1154.82 1931.42 1155.1 Q1931.42 1155.8 1930.19 1155.8 L1880.41 1155.8 Q1878.51 1155.8 1878.51 1155.1 M1883.25 1150.32 L1921.97 1150.32 L1902.61 1111.46 L1883.25 1150.32 Z" fill="#000000" fill-rule="nonzero" fill-opacity="1" /><path clip-path="url(#clip300)" d="M1980.53 1105.8 L1976.63 1121.54 Q1976.42 1122.49 1976.24 1122.74 Q1976.07 1122.99 1975.57 1122.99 Q1975.19 1122.99 1974.94 1122.81 Q1974.73 1122.63 1974.73 1122.46 L1974.7 1122.28 Q1974.7 1122.18 1974.77 1121.65 Q1974.84 1121.09 1974.91 1120.17 Q1974.98 1119.26 1974.98 1118.24 Q1974.98 1112.48 1972.17 1109.81 Q1969.39 1107.1 1964.61 1107.1 Q1961.31 1107.1 1958.36 1108.86 Q1955.41 1110.62 1953.72 1113.39 Q1952.04 1116.13 1952.04 1119.02 Q1952.04 1121.65 1953.37 1123.34 Q1954.71 1125.02 1956.43 1125.59 L1961.24 1126.89 Q1966.3 1128.19 1967.74 1128.75 Q1969.18 1129.27 1970.37 1130.47 Q1973.92 1133.77 1973.92 1138.9 Q1973.92 1143.33 1971.43 1147.61 Q1968.93 1151.87 1964.65 1154.64 Q1960.36 1157.38 1955.62 1157.38 Q1947.29 1157.38 1943.46 1152.22 L1939.95 1156.29 Q1939.28 1157.06 1939.07 1157.21 Q1938.9 1157.38 1938.65 1157.38 Q1938.33 1157.38 1938.09 1157.17 Q1937.84 1156.99 1937.84 1156.68 Q1937.84 1156.43 1939.91 1148.18 Q1941.99 1139.92 1942.16 1139.74 Q1942.44 1139.46 1942.9 1139.46 Q1943.74 1139.46 1943.74 1140.27 Q1943.67 1140.48 1943.6 1140.76 Q1943.18 1143.29 1943.18 1144.66 Q1943.18 1147.23 1944.06 1149.2 Q1944.94 1151.13 1946.24 1152.25 Q1947.57 1153.34 1949.37 1154.04 Q1951.16 1154.71 1952.67 1154.96 Q1954.18 1155.17 1955.76 1155.17 Q1959.17 1155.17 1962.19 1153.2 Q1965.25 1151.23 1966.97 1148.18 Q1968.72 1145.12 1968.72 1141.92 Q1968.72 1140.24 1968.27 1138.94 Q1967.81 1137.6 1967.18 1136.86 Q1966.58 1136.13 1965.56 1135.56 Q1964.54 1135 1963.84 1134.79 Q1963.17 1134.54 1962.12 1134.3 L1954.42 1132.26 Q1951.33 1131.35 1949.12 1128.71 Q1946.94 1126.08 1946.94 1122.04 Q1946.94 1117.79 1949.44 1113.85 Q1951.96 1109.88 1956.08 1107.49 Q1960.22 1105.07 1964.68 1105.07 Q1968.2 1105.07 1970.9 1106.44 Q1973.61 1107.77 1974.98 1110.27 L1978.46 1106.16 Q1979.16 1105.35 1979.3 1105.21 Q1979.47 1105.07 1979.72 1105.07 Q1980.14 1105.07 1980.32 1105.31 Q1980.53 1105.56 1980.53 1105.8 Z" fill="#000000" fill-rule="nonzero" fill-opacity="1" /><path clip-path="url(#clip300)" d="M1987.79 1177.3 Q1987.79 1176.39 1987.86 1176.12 Q1987.96 1175.85 1988.35 1175.43 L1998.02 1164.66 Q2003.31 1158.71 2003.31 1153.52 Q2003.31 1150.15 2001.53 1147.74 Q1999.79 1145.33 1996.57 1145.33 Q1994.35 1145.33 1992.48 1146.68 Q1990.62 1148.03 1989.75 1150.44 Q1989.9 1150.39 1990.42 1150.39 Q1991.67 1150.39 1992.36 1151.18 Q1993.07 1151.97 1993.07 1153.03 Q1993.07 1154.38 1992.19 1155.04 Q1991.33 1155.68 1990.47 1155.68 Q1990.12 1155.68 1989.66 1155.61 Q1989.21 1155.53 1988.5 1154.85 Q1987.79 1154.13 1987.79 1152.88 Q1987.79 1149.36 1990.44 1146.56 Q1993.12 1143.75 1997.21 1143.75 Q2001.83 1143.75 2004.85 1146.51 Q2007.9 1149.24 2007.9 1153.52 Q2007.9 1155.02 2007.44 1156.39 Q2006.99 1157.75 2006.38 1158.81 Q2005.79 1159.86 2004.17 1161.56 Q2002.54 1163.26 2001.24 1164.46 Q1999.94 1165.67 1997.01 1168.22 L1991.67 1173.41 L2000.75 1173.41 Q2005.17 1173.41 2005.52 1173.02 Q2006.01 1172.31 2006.63 1168.54 L2007.9 1168.54 L2006.48 1177.3 L1987.79 1177.3 Z" fill="#000000" fill-rule="nonzero" fill-opacity="1" /><path clip-path="url(#clip300)" d="M2015.38 1137.81 Q2015.38 1125.66 2019.92 1115.85 Q2021.85 1111.74 2024.55 1108.3 Q2027.26 1104.86 2029.05 1103.35 Q2030.84 1101.83 2031.33 1101.83 Q2032.04 1101.83 2032.07 1102.54 Q2032.07 1102.89 2031.12 1103.77 Q2019.53 1115.57 2019.56 1137.81 Q2019.56 1160.12 2030.84 1171.47 Q2032.07 1172.7 2032.07 1173.09 Q2032.07 1173.79 2031.33 1173.79 Q2030.84 1173.79 2029.12 1172.35 Q2027.4 1170.91 2024.73 1167.61 Q2022.06 1164.3 2020.13 1160.26 Q2015.38 1150.46 2015.38 1137.81 Z" fill="#000000" fill-rule="nonzero" fill-opacity="1" /><path clip-path="url(#clip300)" d="M2076.99 1135.74 Q2076.99 1140.94 2074.32 1145.82 Q2071.68 1150.71 2067.54 1153.66 Q2063.43 1156.61 2059.28 1156.61 Q2054.61 1156.61 2052.18 1151.76 Q2047.79 1169.36 2047.55 1169.82 Q2046.53 1171.33 2045.05 1171.33 Q2044.14 1171.33 2043.58 1170.77 Q2043.01 1170.24 2043.01 1169.4 Q2043.05 1169.12 2043.26 1168.24 L2050.29 1139.95 Q2051.9 1133.38 2056.79 1128.71 Q2061.7 1124 2066.97 1124 Q2071.16 1124 2074.07 1127.13 Q2076.99 1130.26 2076.99 1135.74 M2071.82 1132.65 Q2071.82 1129.13 2070.42 1127.38 Q2069.01 1125.59 2066.83 1125.59 Q2064.83 1125.59 2062.41 1127.2 Q2060.02 1128.82 2057.91 1132.4 Q2056.79 1134.47 2055.98 1137.04 Q2055.17 1139.6 2053.59 1145.93 Q2053.03 1148.46 2053.03 1148.6 Q2053.03 1148.88 2053.17 1149.51 Q2053.34 1150.14 2053.76 1151.13 Q2054.22 1152.08 2054.85 1152.92 Q2055.49 1153.76 2056.65 1154.39 Q2057.8 1154.99 2059.21 1154.99 Q2061.39 1154.99 2063.71 1153.24 Q2066.06 1151.44 2067.78 1148.18 Q2069.22 1145.54 2070.52 1140.59 Q2071.82 1135.6 2071.82 1132.65 Z" fill="#000000" fill-rule="nonzero" fill-opacity="1" /><path clip-path="url(#clip300)" d="M2118.89 1191.59 Q2118.89 1192.06 2118.69 1192.31 Q2118.52 1192.53 2118.35 1192.58 Q2118.2 1192.6 2117.98 1192.6 Q2117.34 1192.6 2115.13 1192.53 Q2112.91 1192.45 2112.27 1192.45 Q2111.24 1192.45 2109.12 1192.53 Q2107.01 1192.6 2105.98 1192.6 Q2105.29 1192.6 2105.29 1192.04 Q2105.29 1191.67 2105.36 1191.47 Q2105.44 1191.25 2105.63 1191.18 Q2105.85 1191.08 2105.98 1191.08 Q2106.12 1191.05 2106.49 1191.05 Q2106.98 1191.05 2107.5 1191 Q2108.02 1190.93 2108.66 1190.78 Q2109.3 1190.63 2109.69 1190.27 Q2110.11 1189.9 2110.11 1189.38 Q2110.11 1189.16 2109.94 1187.34 Q2109.76 1185.52 2109.54 1183.4 Q2109.32 1181.26 2109.3 1180.97 L2096.66 1180.97 Q2095.5 1182.96 2094.69 1184.34 Q2093.88 1185.72 2093.58 1186.18 Q2093.29 1186.65 2093.11 1186.95 Q2092.94 1187.24 2092.84 1187.41 Q2092.13 1188.72 2092.13 1189.28 Q2092.13 1190.86 2094.49 1191.05 Q2095.3 1191.05 2095.3 1191.64 Q2095.3 1192.09 2095.11 1192.33 Q2094.91 1192.55 2094.74 1192.58 Q2094.59 1192.6 2094.34 1192.6 Q2093.53 1192.6 2091.83 1192.53 Q2090.14 1192.45 2089.3 1192.45 Q2088.59 1192.45 2087.11 1192.53 Q2085.64 1192.6 2084.97 1192.6 Q2084.68 1192.6 2084.51 1192.43 Q2084.33 1192.26 2084.33 1192.04 Q2084.33 1191.69 2084.38 1191.49 Q2084.46 1191.3 2084.65 1191.2 Q2084.85 1191.1 2084.95 1191.1 Q2085.05 1191.08 2085.39 1191.05 Q2087.26 1190.93 2088.71 1190.04 Q2090.19 1189.13 2091.59 1186.8 L2109.1 1157.38 Q2109.27 1157.09 2109.39 1156.94 Q2109.52 1156.79 2109.76 1156.67 Q2110.03 1156.55 2110.43 1156.55 Q2111.04 1156.55 2111.17 1156.74 Q2111.29 1156.92 2111.36 1157.75 L2114.44 1189.23 Q2114.51 1189.9 2114.56 1190.17 Q2114.63 1190.41 2114.95 1190.68 Q2115.3 1190.93 2115.91 1191 Q2116.55 1191.05 2117.73 1191.05 Q2118.17 1191.05 2118.35 1191.08 Q2118.52 1191.08 2118.69 1191.2 Q2118.89 1191.32 2118.89 1191.59 M2109.15 1179.39 L2107.55 1162.79 L2097.61 1179.39 L2109.15 1179.39 Z" fill="#000000" fill-rule="nonzero" fill-opacity="1" /><path clip-path="url(#clip300)" d="M2123.93 1186.43 L2123.93 1185.33 Q2128.17 1185.33 2130.35 1183.08 Q2130.96 1183.08 2131.06 1183.21 Q2131.16 1183.35 2131.16 1183.99 L2131.16 1203.77 Q2131.16 1204.82 2131.68 1205.15 Q2132.2 1205.47 2134.45 1205.47 L2135.57 1205.47 L2135.57 1206.56 Q2134.33 1206.45 2129.86 1206.45 Q2125.38 1206.45 2124.16 1206.56 L2124.16 1205.47 L2125.28 1205.47 Q2127.5 1205.47 2128.03 1205.16 Q2128.56 1204.84 2128.56 1203.77 L2128.56 1185.5 Q2126.72 1186.43 2123.93 1186.43 Z" fill="#000000" fill-rule="nonzero" fill-opacity="1" /><path clip-path="url(#clip300)" d="M2136.75 1195.42 Q2136.75 1189.88 2139.58 1186.48 Q2142.4 1183.08 2146.03 1183.08 Q2148.15 1183.08 2149.32 1184.16 Q2150.51 1185.23 2150.51 1186.88 Q2150.51 1187.79 2149.98 1188.19 Q2149.44 1188.58 2148.89 1188.58 Q2148.25 1188.58 2147.76 1188.15 Q2147.26 1187.72 2147.26 1186.95 Q2147.26 1185.37 2149.2 1185.37 Q2148.29 1183.95 2146.1 1183.95 Q2145.43 1183.95 2144.74 1184.16 Q2144.05 1184.35 2143.16 1185 Q2142.26 1185.66 2141.57 1186.69 Q2140.89 1187.72 2140.4 1189.67 Q2139.92 1191.61 2139.92 1194.15 L2139.92 1194.99 Q2141.37 1191.49 2144.33 1191.51 Q2147.29 1191.51 2149.34 1193.77 Q2151.39 1196.02 2151.39 1199.36 Q2151.39 1202.79 2149.25 1205.06 Q2147.12 1207.33 2144.12 1207.33 Q2142.78 1207.33 2141.56 1206.76 Q2140.35 1206.21 2139.22 1204.94 Q2138.1 1203.67 2137.43 1201.22 Q2136.75 1198.78 2136.75 1195.42 M2139.99 1198.59 Q2139.99 1202.05 2140.63 1203.7 Q2140.73 1203.98 2140.96 1204.35 Q2141.2 1204.73 2141.59 1205.23 Q2142.01 1205.71 2142.68 1206.04 Q2143.35 1206.35 2144.12 1206.35 Q2146.48 1206.35 2147.62 1204.06 Q2148.22 1202.79 2148.22 1199.33 Q2148.22 1195.8 2147.58 1194.51 Q2146.5 1192.32 2144.3 1192.32 Q2142.81 1192.32 2141.78 1193.34 Q2140.77 1194.35 2140.37 1195.71 Q2139.99 1197.07 2139.99 1198.59 Z" fill="#000000" fill-rule="nonzero" fill-opacity="1" /><path clip-path="url(#clip300)" d="M2164 1205.85 Q2164 1205.18 2164.98 1205.15 L2175 1205.15 L2175 1195.52 L2165.05 1195.52 Q2164 1195.52 2164 1194.82 Q2164 1194.11 2165.05 1194.11 L2175 1194.11 L2175 1184.18 Q2175 1183.13 2175.7 1183.13 Q2176.41 1183.11 2176.41 1184.18 L2176.41 1194.11 L2186.34 1194.11 Q2187.39 1194.11 2187.39 1194.82 Q2187.41 1195.52 2186.34 1195.52 L2176.41 1195.52 L2176.41 1205.15 L2186.34 1205.15 Q2187.39 1205.15 2187.39 1205.85 Q2187.41 1206.56 2186.38 1206.56 L2165.05 1206.56 Q2164 1206.56 2164 1205.85 Z" fill="#000000" fill-rule="nonzero" fill-opacity="1" /><path clip-path="url(#clip300)" d="M2200.94 1186.43 L2200.94 1185.33 Q2205.17 1185.33 2207.36 1183.08 Q2207.96 1183.08 2208.07 1183.21 Q2208.17 1183.35 2208.17 1183.99 L2208.17 1203.77 Q2208.17 1204.82 2208.69 1205.15 Q2209.2 1205.47 2211.46 1205.47 L2212.58 1205.47 L2212.58 1206.56 Q2211.34 1206.45 2206.86 1206.45 Q2202.39 1206.45 2201.16 1206.56 L2201.16 1205.47 L2202.28 1205.47 Q2204.5 1205.47 2205.04 1205.16 Q2205.57 1204.84 2205.57 1203.77 L2205.57 1185.5 Q2203.73 1186.43 2200.94 1186.43 Z" fill="#000000" fill-rule="nonzero" fill-opacity="1" /><path clip-path="url(#clip300)" d="M2231.46 1173.09 Q2231.46 1172.73 2232.37 1171.86 Q2243.96 1160.05 2243.96 1137.81 Q2243.96 1115.5 2232.83 1104.22 Q2231.46 1102.92 2231.46 1102.54 Q2231.46 1101.83 2232.16 1101.83 Q2232.65 1101.83 2234.37 1103.28 Q2236.13 1104.72 2238.76 1108.02 Q2241.43 1111.32 2243.4 1115.36 Q2248.14 1125.16 2248.14 1137.81 Q2248.14 1149.97 2243.61 1159.77 Q2241.68 1163.88 2238.97 1167.32 Q2236.27 1170.77 2234.48 1172.28 Q2232.68 1173.79 2232.16 1173.79 Q2231.46 1173.79 2231.46 1173.09 Z" fill="#000000" fill-rule="nonzero" fill-opacity="1" /><polyline clip-path="url(#clip300)" style="stroke:#3da44d; stroke-linecap:round; stroke-linejoin:round; stroke-width:6; stroke-opacity:1; fill:none" points="1714.59,1259.81 1855.09,1259.81 "/>
<path clip-path="url(#clip300)" d="M1774.13 1249.1 L1774.13 1270.52 L1795.55 1270.52 L1795.55 1249.1 L1774.13 1249.1 Z" fill="#3da44d" fill-rule="evenodd" fill-opacity="1" stroke="#000000" stroke-opacity="1" stroke-width="6.82667"/>
<path clip-path="url(#clip300)" d="M1878.51 1260.07 Q1878.51 1259.79 1879.46 1257.97 Q1880.41 1256.1 1883.75 1249.46 Q1887.08 1242.79 1890.53 1235.8 L1902.93 1210.85 Q1903.81 1209.27 1904.93 1209.27 Q1905.95 1209.27 1906.41 1209.9 Q1906.86 1210.54 1908.97 1214.79 Q1910.06 1216.86 1910.69 1218.19 L1931.04 1258.91 Q1931.39 1259.79 1931.42 1260.07 Q1931.42 1260.78 1930.19 1260.78 L1880.41 1260.78 Q1878.51 1260.78 1878.51 1260.07 M1883.25 1255.3 L1921.97 1255.3 L1902.61 1216.44 L1883.25 1255.3 Z" fill="#000000" fill-rule="nonzero" fill-opacity="1" /><path clip-path="url(#clip300)" d="M1980.53 1210.78 L1976.63 1226.52 Q1976.42 1227.47 1976.24 1227.72 Q1976.07 1227.96 1975.57 1227.96 Q1975.19 1227.96 1974.94 1227.79 Q1974.73 1227.61 1974.73 1227.43 L1974.7 1227.26 Q1974.7 1227.15 1974.77 1226.63 Q1974.84 1226.06 1974.91 1225.15 Q1974.98 1224.24 1974.98 1223.22 Q1974.98 1217.46 1972.17 1214.79 Q1969.39 1212.08 1964.61 1212.08 Q1961.31 1212.08 1958.36 1213.84 Q1955.41 1215.59 1953.72 1218.37 Q1952.04 1221.11 1952.04 1223.99 Q1952.04 1226.63 1953.37 1228.31 Q1954.71 1230 1956.43 1230.56 L1961.24 1231.86 Q1966.3 1233.16 1967.74 1233.72 Q1969.18 1234.25 1970.37 1235.44 Q1973.92 1238.75 1973.92 1243.88 Q1973.92 1248.3 1971.43 1252.59 Q1968.93 1256.84 1964.65 1259.62 Q1960.36 1262.36 1955.62 1262.36 Q1947.29 1262.36 1943.46 1257.19 L1939.95 1261.27 Q1939.28 1262.04 1939.07 1262.18 Q1938.9 1262.36 1938.65 1262.36 Q1938.33 1262.36 1938.09 1262.15 Q1937.84 1261.97 1937.84 1261.65 Q1937.84 1261.41 1939.91 1253.15 Q1941.99 1244.9 1942.16 1244.72 Q1942.44 1244.44 1942.9 1244.44 Q1943.74 1244.44 1943.74 1245.25 Q1943.67 1245.46 1943.6 1245.74 Q1943.18 1248.27 1943.18 1249.64 Q1943.18 1252.2 1944.06 1254.17 Q1944.94 1256.1 1946.24 1257.23 Q1947.57 1258.32 1949.37 1259.02 Q1951.16 1259.69 1952.67 1259.93 Q1954.18 1260.14 1955.76 1260.14 Q1959.17 1260.14 1962.19 1258.18 Q1965.25 1256.21 1966.97 1253.15 Q1968.72 1250.1 1968.72 1246.9 Q1968.72 1245.21 1968.27 1243.91 Q1967.81 1242.58 1967.18 1241.84 Q1966.58 1241.1 1965.56 1240.54 Q1964.54 1239.98 1963.84 1239.77 Q1963.17 1239.52 1962.12 1239.27 L1954.42 1237.24 Q1951.33 1236.32 1949.12 1233.69 Q1946.94 1231.05 1946.94 1227.01 Q1946.94 1222.76 1949.44 1218.83 Q1951.96 1214.86 1956.08 1212.47 Q1960.22 1210.04 1964.68 1210.04 Q1968.2 1210.04 1970.9 1211.41 Q1973.61 1212.75 1974.98 1215.24 L1978.46 1211.13 Q1979.16 1210.32 1979.3 1210.18 Q1979.47 1210.04 1979.72 1210.04 Q1980.14 1210.04 1980.32 1210.29 Q1980.53 1210.54 1980.53 1210.78 Z" fill="#000000" fill-rule="nonzero" fill-opacity="1" /><path clip-path="url(#clip300)" d="M1987.79 1282.28 Q1987.79 1281.37 1987.86 1281.1 Q1987.96 1280.82 1988.35 1280.41 L1998.02 1269.63 Q2003.31 1263.68 2003.31 1258.49 Q2003.31 1255.12 2001.53 1252.71 Q1999.79 1250.3 1996.57 1250.3 Q1994.35 1250.3 1992.48 1251.66 Q1990.62 1253.01 1989.75 1255.42 Q1989.9 1255.37 1990.42 1255.37 Q1991.67 1255.37 1992.36 1256.16 Q1993.07 1256.94 1993.07 1258 Q1993.07 1259.35 1992.19 1260.02 Q1991.33 1260.66 1990.47 1260.66 Q1990.12 1260.66 1989.66 1260.58 Q1989.21 1260.51 1988.5 1259.82 Q1987.79 1259.11 1987.79 1257.85 Q1987.79 1254.34 1990.44 1251.53 Q1993.12 1248.73 1997.21 1248.73 Q2001.83 1248.73 2004.85 1251.48 Q2007.9 1254.21 2007.9 1258.49 Q2007.9 1259.99 2007.44 1261.37 Q2006.99 1262.72 2006.38 1263.78 Q2005.79 1264.84 2004.17 1266.54 Q2002.54 1268.23 2001.24 1269.44 Q1999.94 1270.64 1997.01 1273.2 L1991.67 1278.39 L2000.75 1278.39 Q2005.17 1278.39 2005.52 1278 Q2006.01 1277.28 2006.63 1273.52 L2007.9 1273.52 L2006.48 1282.28 L1987.79 1282.28 Z" fill="#000000" fill-rule="nonzero" fill-opacity="1" /><path clip-path="url(#clip300)" d="M2015.38 1242.79 Q2015.38 1230.63 2019.92 1220.83 Q2021.85 1216.72 2024.55 1213.28 Q2027.26 1209.83 2029.05 1208.32 Q2030.84 1206.81 2031.33 1206.81 Q2032.04 1206.81 2032.07 1207.51 Q2032.07 1207.86 2031.12 1208.74 Q2019.53 1220.55 2019.56 1242.79 Q2019.56 1265.1 2030.84 1276.45 Q2032.07 1277.68 2032.07 1278.06 Q2032.07 1278.76 2031.33 1278.76 Q2030.84 1278.76 2029.12 1277.32 Q2027.4 1275.88 2024.73 1272.58 Q2022.06 1269.28 2020.13 1265.24 Q2015.38 1255.44 2015.38 1242.79 Z" fill="#000000" fill-rule="nonzero" fill-opacity="1" /><path clip-path="url(#clip300)" d="M2076.99 1240.71 Q2076.99 1245.91 2074.32 1250.8 Q2071.68 1255.68 2067.54 1258.63 Q2063.43 1261.58 2059.28 1261.58 Q2054.61 1261.58 2052.18 1256.74 Q2047.79 1274.34 2047.55 1274.79 Q2046.53 1276.31 2045.05 1276.31 Q2044.14 1276.31 2043.58 1275.74 Q2043.01 1275.22 2043.01 1274.37 Q2043.05 1274.09 2043.26 1273.21 L2050.29 1244.93 Q2051.9 1238.36 2056.79 1233.69 Q2061.7 1228.98 2066.97 1228.98 Q2071.16 1228.98 2074.07 1232.11 Q2076.99 1235.23 2076.99 1240.71 M2071.82 1237.62 Q2071.82 1234.11 2070.42 1232.35 Q2069.01 1230.56 2066.83 1230.56 Q2064.83 1230.56 2062.41 1232.18 Q2060.02 1233.79 2057.91 1237.38 Q2056.79 1239.45 2055.98 1242.01 Q2055.17 1244.58 2053.59 1250.9 Q2053.03 1253.43 2053.03 1253.57 Q2053.03 1253.85 2053.17 1254.49 Q2053.34 1255.12 2053.76 1256.1 Q2054.22 1257.05 2054.85 1257.9 Q2055.49 1258.74 2056.65 1259.37 Q2057.8 1259.97 2059.21 1259.97 Q2061.39 1259.97 2063.71 1258.21 Q2066.06 1256.42 2067.78 1253.15 Q2069.22 1250.52 2070.52 1245.56 Q2071.82 1240.57 2071.82 1237.62 Z" fill="#000000" fill-rule="nonzero" fill-opacity="1" /><path clip-path="url(#clip300)" d="M2118.89 1296.57 Q2118.89 1297.04 2118.69 1297.28 Q2118.52 1297.5 2118.35 1297.55 Q2118.2 1297.58 2117.98 1297.58 Q2117.34 1297.58 2115.13 1297.5 Q2112.91 1297.43 2112.27 1297.43 Q2111.24 1297.43 2109.12 1297.5 Q2107.01 1297.58 2105.98 1297.58 Q2105.29 1297.58 2105.29 1297.01 Q2105.29 1296.64 2105.36 1296.45 Q2105.44 1296.23 2105.63 1296.15 Q2105.85 1296.05 2105.98 1296.05 Q2106.12 1296.03 2106.49 1296.03 Q2106.98 1296.03 2107.5 1295.98 Q2108.02 1295.91 2108.66 1295.76 Q2109.3 1295.61 2109.69 1295.24 Q2110.11 1294.87 2110.11 1294.36 Q2110.11 1294.13 2109.94 1292.31 Q2109.76 1290.49 2109.54 1288.38 Q2109.32 1286.24 2109.3 1285.95 L2096.66 1285.95 Q2095.5 1287.94 2094.69 1289.31 Q2093.88 1290.69 2093.58 1291.16 Q2093.29 1291.63 2093.11 1291.92 Q2092.94 1292.22 2092.84 1292.39 Q2092.13 1293.69 2092.13 1294.26 Q2092.13 1295.83 2094.49 1296.03 Q2095.3 1296.03 2095.3 1296.62 Q2095.3 1297.06 2095.11 1297.31 Q2094.91 1297.53 2094.74 1297.55 Q2094.59 1297.58 2094.34 1297.58 Q2093.53 1297.58 2091.83 1297.5 Q2090.14 1297.43 2089.3 1297.43 Q2088.59 1297.43 2087.11 1297.5 Q2085.64 1297.58 2084.97 1297.58 Q2084.68 1297.58 2084.51 1297.41 Q2084.33 1297.23 2084.33 1297.01 Q2084.33 1296.67 2084.38 1296.47 Q2084.46 1296.27 2084.65 1296.18 Q2084.85 1296.08 2084.95 1296.08 Q2085.05 1296.05 2085.39 1296.03 Q2087.26 1295.91 2088.71 1295.02 Q2090.19 1294.11 2091.59 1291.77 L2109.1 1262.36 Q2109.27 1262.06 2109.39 1261.92 Q2109.52 1261.77 2109.76 1261.65 Q2110.03 1261.52 2110.43 1261.52 Q2111.04 1261.52 2111.17 1261.72 Q2111.29 1261.89 2111.36 1262.73 L2114.44 1294.21 Q2114.51 1294.87 2114.56 1295.14 Q2114.63 1295.39 2114.95 1295.66 Q2115.3 1295.91 2115.91 1295.98 Q2116.55 1296.03 2117.73 1296.03 Q2118.17 1296.03 2118.35 1296.05 Q2118.52 1296.05 2118.69 1296.18 Q2118.89 1296.3 2118.89 1296.57 M2109.15 1284.37 L2107.55 1267.77 L2097.61 1284.37 L2109.15 1284.37 Z" fill="#000000" fill-rule="nonzero" fill-opacity="1" /><path clip-path="url(#clip300)" d="M2123.93 1291.41 L2123.93 1290.31 Q2128.17 1290.31 2130.35 1288.05 Q2130.96 1288.05 2131.06 1288.19 Q2131.16 1288.33 2131.16 1288.96 L2131.16 1308.74 Q2131.16 1309.79 2131.68 1310.12 Q2132.2 1310.45 2134.45 1310.45 L2135.57 1310.45 L2135.57 1311.53 Q2134.33 1311.43 2129.86 1311.43 Q2125.38 1311.43 2124.16 1311.53 L2124.16 1310.45 L2125.28 1310.45 Q2127.5 1310.45 2128.03 1310.14 Q2128.56 1309.81 2128.56 1308.74 L2128.56 1290.48 Q2126.72 1291.41 2123.93 1291.41 Z" fill="#000000" fill-rule="nonzero" fill-opacity="1" /><path clip-path="url(#clip300)" d="M2136.75 1300.4 Q2136.75 1294.85 2139.58 1291.46 Q2142.4 1288.05 2146.03 1288.05 Q2148.15 1288.05 2149.32 1289.14 Q2150.51 1290.2 2150.51 1291.86 Q2150.51 1292.77 2149.98 1293.16 Q2149.44 1293.56 2148.89 1293.56 Q2148.25 1293.56 2147.76 1293.13 Q2147.26 1292.7 2147.26 1291.93 Q2147.26 1290.34 2149.2 1290.34 Q2148.29 1288.93 2146.1 1288.93 Q2145.43 1288.93 2144.74 1289.14 Q2144.05 1289.33 2143.16 1289.98 Q2142.26 1290.63 2141.57 1291.67 Q2140.89 1292.7 2140.4 1294.65 Q2139.92 1296.59 2139.92 1299.12 L2139.92 1299.96 Q2141.37 1296.47 2144.33 1296.49 Q2147.29 1296.49 2149.34 1298.74 Q2151.39 1301 2151.39 1304.34 Q2151.39 1307.76 2149.25 1310.04 Q2147.12 1312.31 2144.12 1312.31 Q2142.78 1312.31 2141.56 1311.74 Q2140.35 1311.19 2139.22 1309.92 Q2138.1 1308.64 2137.43 1306.2 Q2136.75 1303.75 2136.75 1300.4 M2139.99 1303.56 Q2139.99 1307.02 2140.63 1308.68 Q2140.73 1308.95 2140.96 1309.33 Q2141.2 1309.71 2141.59 1310.21 Q2142.01 1310.69 2142.68 1311.02 Q2143.35 1311.33 2144.12 1311.33 Q2146.48 1311.33 2147.62 1309.04 Q2148.22 1307.76 2148.22 1304.3 Q2148.22 1300.77 2147.58 1299.48 Q2146.5 1297.3 2144.3 1297.3 Q2142.81 1297.3 2141.78 1298.31 Q2140.77 1299.33 2140.37 1300.69 Q2139.99 1302.05 2139.99 1303.56 Z" fill="#000000" fill-rule="nonzero" fill-opacity="1" /><path clip-path="url(#clip300)" d="M2164 1310.83 Q2164 1310.16 2164.98 1310.12 L2175 1310.12 L2175 1300.5 L2165.05 1300.5 Q2164 1300.5 2164 1299.79 Q2164 1299.09 2165.05 1299.09 L2175 1299.09 L2175 1289.15 Q2175 1288.1 2175.7 1288.1 Q2176.41 1288.09 2176.41 1289.15 L2176.41 1299.09 L2186.34 1299.09 Q2187.39 1299.09 2187.39 1299.79 Q2187.41 1300.5 2186.34 1300.5 L2176.41 1300.5 L2176.41 1310.12 L2186.34 1310.12 Q2187.39 1310.12 2187.39 1310.83 Q2187.41 1311.53 2186.38 1311.53 L2165.05 1311.53 Q2164 1311.53 2164 1310.83 Z" fill="#000000" fill-rule="nonzero" fill-opacity="1" /><path clip-path="url(#clip300)" d="M2200.94 1311.53 Q2200.94 1310.9 2200.99 1310.71 Q2201.06 1310.52 2201.34 1310.23 L2208.1 1302.68 Q2211.8 1298.52 2211.8 1294.89 Q2211.8 1292.53 2210.56 1290.84 Q2209.34 1289.15 2207.09 1289.15 Q2205.54 1289.15 2204.23 1290.1 Q2202.92 1291.05 2202.32 1292.73 Q2202.42 1292.7 2202.78 1292.7 Q2203.66 1292.7 2204.14 1293.25 Q2204.64 1293.8 2204.64 1294.54 Q2204.64 1295.49 2204.02 1295.95 Q2203.42 1296.4 2202.82 1296.4 Q2202.57 1296.4 2202.25 1296.35 Q2201.94 1296.3 2201.44 1295.82 Q2200.94 1295.32 2200.94 1294.44 Q2200.94 1291.98 2202.8 1290.01 Q2204.67 1288.05 2207.53 1288.05 Q2210.77 1288.05 2212.89 1289.98 Q2215.02 1291.89 2215.02 1294.89 Q2215.02 1295.94 2214.69 1296.9 Q2214.38 1297.85 2213.95 1298.59 Q2213.54 1299.33 2212.4 1300.52 Q2211.27 1301.7 2210.36 1302.55 Q2209.44 1303.39 2207.39 1305.18 L2203.66 1308.81 L2210.01 1308.81 Q2213.11 1308.81 2213.35 1308.54 Q2213.7 1308.04 2214.13 1305.4 L2215.02 1305.4 L2214.02 1311.53 L2200.94 1311.53 Z" fill="#000000" fill-rule="nonzero" fill-opacity="1" /><path clip-path="url(#clip300)" d="M2231.46 1278.06 Q2231.46 1277.71 2232.37 1276.83 Q2243.96 1265.03 2243.96 1242.79 Q2243.96 1220.48 2232.83 1209.2 Q2231.46 1207.9 2231.46 1207.51 Q2231.46 1206.81 2232.16 1206.81 Q2232.65 1206.81 2234.37 1208.25 Q2236.13 1209.69 2238.76 1212.99 Q2241.43 1216.3 2243.4 1220.34 Q2248.14 1230.14 2248.14 1242.79 Q2248.14 1254.94 2243.61 1264.75 Q2241.68 1268.86 2238.97 1272.3 Q2236.27 1275.74 2234.48 1277.25 Q2232.68 1278.76 2232.16 1278.76 Q2231.46 1278.76 2231.46 1278.06 Z" fill="#000000" fill-rule="nonzero" fill-opacity="1" /></svg>
