<?xml version="1.0" encoding="utf-8"?>
<svg xmlns="http://www.w3.org/2000/svg" xmlns:xlink="http://www.w3.org/1999/xlink" width="600" height="400" viewBox="0 0 2400 1600">
<defs>
  <clipPath id="clip430">
    <rect x="0" y="0" width="2400" height="1600"/>
  </clipPath>
</defs>
<path clip-path="url(#clip430)" d="M0 1600 L2400 1600 L2400 0 L0 0  Z" fill="#ffffff" fill-rule="evenodd" fill-opacity="1"/>
<defs>
  <clipPath id="clip431">
    <rect x="480" y="0" width="1681" height="1600"/>
  </clipPath>
</defs>
<defs>
  <clipPath id="clip432">
    <rect x="292" y="47" width="2061" height="1364"/>
  </clipPath>
</defs>
<path clip-path="url(#clip430)" d="M292.58 1410.22 L2352.76 1410.22 L2352.76 47.2441 L292.58 47.2441  Z" fill="#ffffff" fill-rule="evenodd" fill-opacity="1"/>
<polyline clip-path="url(#clip430)" style="stroke:#000000; stroke-linecap:round; stroke-linejoin:round; stroke-width:4; stroke-opacity:1; fill:none" points="292.58,1410.22 2352.76,1410.22 "/>
<polyline clip-path="url(#clip430)" style="stroke:#000000; stroke-linecap:round; stroke-linejoin:round; stroke-width:4; stroke-opacity:1; fill:none" points="292.58,47.2441 2352.76,47.2441 "/>
<polyline clip-path="url(#clip430)" style="stroke:#000000; stroke-linecap:round; stroke-linejoin:round; stroke-width:4; stroke-opacity:1; fill:none" points="350.887,1410.22 350.887,1391.32 "/>
<polyline clip-path="url(#clip430)" style="stroke:#000000; stroke-linecap:round; stroke-linejoin:round; stroke-width:4; stroke-opacity:1; fill:none" points="674.814,1410.22 674.814,1391.32 "/>
<polyline clip-path="url(#clip430)" style="stroke:#000000; stroke-linecap:round; stroke-linejoin:round; stroke-width:4; stroke-opacity:1; fill:none" points="998.741,1410.22 998.741,1391.32 "/>
<polyline clip-path="url(#clip430)" style="stroke:#000000; stroke-linecap:round; stroke-linejoin:round; stroke-width:4; stroke-opacity:1; fill:none" points="1322.67,1410.22 1322.67,1391.32 "/>
<polyline clip-path="url(#clip430)" style="stroke:#000000; stroke-linecap:round; stroke-linejoin:round; stroke-width:4; stroke-opacity:1; fill:none" points="1646.6,1410.22 1646.6,1391.32 "/>
<polyline clip-path="url(#clip430)" style="stroke:#000000; stroke-linecap:round; stroke-linejoin:round; stroke-width:4; stroke-opacity:1; fill:none" points="1970.52,1410.22 1970.52,1391.32 "/>
<polyline clip-path="url(#clip430)" style="stroke:#000000; stroke-linecap:round; stroke-linejoin:round; stroke-width:4; stroke-opacity:1; fill:none" points="2294.45,1410.22 2294.45,1391.32 "/>
<path clip-path="url(#clip430)" d="M354.484 1466.71 Q354.855 1467.08 354.855 1467.61 Q354.855 1468.13 354.484 1468.51 Q354.114 1468.88 353.589 1468.88 L314.002 1468.88 Q313.477 1468.88 313.106 1468.51 Q312.736 1468.13 312.736 1467.61 Q312.736 1467.08 313.106 1466.71 Q313.477 1466.34 314.002 1466.34 L353.589 1466.34 Q354.114 1466.34 354.484 1466.71 Z" fill="#000000" fill-rule="nonzero" fill-opacity="1" /><path clip-path="url(#clip430)" d="M361.926 1453.68 L363.995 1440.68 L365.57 1440.68 Q365.755 1441.46 366.064 1441.79 Q366.404 1442.13 368.195 1442.41 Q370.017 1442.69 373.691 1442.69 L389.038 1442.69 Q389.038 1444.14 388.482 1444.91 L379.929 1456.93 Q377.211 1460.72 376.007 1467.73 Q375.297 1472.43 375.328 1478.11 L375.328 1481.32 Q375.328 1484.81 372.394 1484.81 Q369.492 1484.81 369.492 1481.32 Q369.492 1469.25 377.273 1457.54 Q378.107 1456.34 381.164 1452.05 Q384.252 1447.75 384.375 1447.57 L371.283 1447.57 Q365.539 1447.57 365.076 1447.94 Q364.458 1448.5 363.501 1453.68 L361.926 1453.68 Z" fill="#000000" fill-rule="nonzero" fill-opacity="1" /><path clip-path="url(#clip430)" d="M679.291 1466.71 Q679.662 1467.08 679.662 1467.61 Q679.662 1468.13 679.291 1468.51 Q678.921 1468.88 678.396 1468.88 L638.809 1468.88 Q638.284 1468.88 637.913 1468.51 Q637.543 1468.13 637.543 1467.61 Q637.543 1467.08 637.913 1466.71 Q638.284 1466.34 638.809 1466.34 L678.396 1466.34 Q678.921 1466.34 679.291 1466.71 Z" fill="#000000" fill-rule="nonzero" fill-opacity="1" /><path clip-path="url(#clip430)" d="M685.838 1463.44 Q685.838 1453.5 690.902 1447.41 Q695.966 1441.3 702.482 1441.3 Q706.28 1441.3 708.38 1443.25 Q710.51 1445.16 710.51 1448.12 Q710.51 1449.76 709.553 1450.47 Q708.596 1451.18 707.608 1451.18 Q706.465 1451.18 705.57 1450.41 Q704.674 1449.64 704.674 1448.25 Q704.674 1445.41 708.163 1445.41 Q706.527 1442.88 702.605 1442.88 Q701.401 1442.88 700.166 1443.25 Q698.931 1443.59 697.325 1444.76 Q695.719 1445.93 694.484 1447.79 Q693.249 1449.64 692.384 1453.13 Q691.52 1456.62 691.52 1461.16 L691.52 1462.67 Q694.113 1456.4 699.425 1456.43 Q704.736 1456.43 708.411 1460.48 Q712.085 1464.52 712.085 1470.51 Q712.085 1476.66 708.256 1480.73 Q704.427 1484.81 699.054 1484.81 Q696.646 1484.81 694.453 1483.79 Q692.292 1482.8 690.254 1480.52 Q688.246 1478.23 687.042 1473.85 Q685.838 1469.46 685.838 1463.44 M691.643 1469.12 Q691.643 1475.33 692.786 1478.29 Q692.971 1478.79 693.372 1479.47 Q693.805 1480.15 694.515 1481.04 Q695.256 1481.91 696.46 1482.49 Q697.665 1483.05 699.054 1483.05 Q703.285 1483.05 705.323 1478.94 Q706.403 1476.66 706.403 1470.45 Q706.403 1464.12 705.261 1461.8 Q703.315 1457.88 699.363 1457.88 Q696.707 1457.88 694.855 1459.7 Q693.033 1461.53 692.322 1463.97 Q691.643 1466.41 691.643 1469.12 Z" fill="#000000" fill-rule="nonzero" fill-opacity="1" /><path clip-path="url(#clip430)" d="M1003.47 1466.71 Q1003.84 1467.08 1003.84 1467.61 Q1003.84 1468.13 1003.47 1468.51 Q1003.09 1468.88 1002.57 1468.88 L962.983 1468.88 Q962.458 1468.88 962.087 1468.51 Q961.717 1468.13 961.717 1467.61 Q961.717 1467.08 962.087 1466.71 Q962.458 1466.34 962.983 1466.34 L1002.57 1466.34 Q1003.09 1466.34 1003.47 1466.71 Z" fill="#000000" fill-rule="nonzero" fill-opacity="1" /><path clip-path="url(#clip430)" d="M1010.51 1473.23 Q1010.51 1471.35 1011.52 1470.64 Q1012.54 1469.89 1013.62 1469.89 Q1015.08 1469.89 1015.91 1470.82 Q1016.77 1471.72 1016.77 1472.98 Q1016.77 1474.25 1015.91 1475.18 Q1015.08 1476.07 1013.62 1476.07 Q1012.91 1476.07 1012.54 1475.95 Q1013.38 1478.85 1015.91 1480.95 Q1018.47 1483.05 1021.84 1483.05 Q1026.07 1483.05 1028.6 1478.94 Q1030.11 1476.29 1030.11 1470.27 Q1030.11 1464.95 1028.97 1462.3 Q1027.21 1458.25 1023.6 1458.25 Q1018.47 1458.25 1015.45 1462.67 Q1015.08 1463.22 1014.64 1463.26 Q1014.03 1463.26 1013.87 1462.92 Q1013.75 1462.55 1013.75 1461.59 L1013.75 1442.88 Q1013.75 1441.36 1014.37 1441.36 Q1014.61 1441.36 1015.14 1441.55 Q1019.12 1443.31 1023.54 1443.34 Q1028.08 1443.34 1032.15 1441.49 Q1032.46 1441.3 1032.65 1441.3 Q1033.26 1441.3 1033.29 1442.01 Q1033.29 1442.26 1032.77 1443 Q1032.28 1443.71 1031.2 1444.67 Q1030.11 1445.59 1028.72 1446.49 Q1027.34 1447.38 1025.3 1448 Q1023.29 1448.59 1021.07 1448.59 Q1018.41 1448.59 1015.69 1447.75 L1015.69 1460.08 Q1018.97 1456.86 1023.72 1456.86 Q1028.79 1456.86 1032.28 1460.94 Q1035.77 1465.02 1035.77 1470.7 Q1035.77 1476.66 1031.63 1480.73 Q1027.52 1484.81 1021.96 1484.81 Q1016.9 1484.81 1013.69 1481.2 Q1010.51 1477.58 1010.51 1473.23 Z" fill="#000000" fill-rule="nonzero" fill-opacity="1" /><path clip-path="url(#clip430)" d="M1326.7 1466.71 Q1327.07 1467.08 1327.07 1467.61 Q1327.07 1468.13 1326.7 1468.51 Q1326.33 1468.88 1325.8 1468.88 L1286.22 1468.88 Q1285.69 1468.88 1285.32 1468.51 Q1284.95 1468.13 1284.95 1467.61 Q1284.95 1467.08 1285.32 1466.71 Q1285.69 1466.34 1286.22 1466.34 L1325.8 1466.34 Q1326.33 1466.34 1326.7 1466.71 Z" fill="#000000" fill-rule="nonzero" fill-opacity="1" /><path clip-path="url(#clip430)" d="M1332.35 1472.98 L1332.35 1471.04 L1351.77 1441.36 Q1352.27 1440.59 1353.04 1440.62 Q1353.75 1440.62 1353.9 1440.9 Q1354.06 1441.18 1354.06 1442.26 L1354.06 1471.04 L1360.39 1471.04 L1360.39 1472.98 L1354.06 1472.98 L1354.06 1478.48 Q1354.06 1480.3 1354.8 1480.89 Q1355.57 1481.47 1358.84 1481.47 L1360.17 1481.47 L1360.17 1483.42 Q1357.58 1483.23 1351.59 1483.23 Q1345.63 1483.23 1343.03 1483.42 L1343.03 1481.47 L1344.36 1481.47 Q1347.63 1481.47 1348.41 1480.92 Q1349.18 1480.33 1349.18 1478.48 L1349.18 1472.98 L1332.35 1472.98 M1334.14 1471.04 L1349.55 1471.04 L1349.55 1447.45 L1334.14 1471.04 Z" fill="#000000" fill-rule="nonzero" fill-opacity="1" /><path clip-path="url(#clip430)" d="M1651.07 1466.71 Q1651.44 1467.08 1651.44 1467.61 Q1651.44 1468.13 1651.07 1468.51 Q1650.7 1468.88 1650.18 1468.88 L1610.59 1468.88 Q1610.06 1468.88 1609.69 1468.51 Q1609.32 1468.13 1609.32 1467.61 Q1609.32 1467.08 1609.69 1466.71 Q1610.06 1466.34 1610.59 1466.34 L1650.18 1466.34 Q1650.7 1466.34 1651.07 1466.71 Z" fill="#000000" fill-rule="nonzero" fill-opacity="1" /><path clip-path="url(#clip430)" d="M1657.62 1474.9 Q1657.62 1473.01 1658.7 1472.12 Q1659.78 1471.22 1661.17 1471.22 Q1662.62 1471.22 1663.64 1472.18 Q1664.69 1473.11 1664.69 1474.74 Q1664.69 1476.5 1663.46 1477.49 Q1662.25 1478.48 1660.52 1478.23 Q1662.03 1480.76 1664.81 1481.91 Q1667.62 1483.05 1670.22 1483.05 Q1672.93 1483.05 1675.13 1480.7 Q1677.35 1478.36 1677.35 1472.61 Q1677.35 1467.73 1675.44 1464.92 Q1673.55 1462.11 1669.82 1462.11 L1667.04 1462.11 Q1666.08 1462.11 1665.8 1462.02 Q1665.52 1461.93 1665.52 1461.4 Q1665.52 1460.79 1666.48 1460.66 Q1667.44 1460.66 1668.95 1460.48 Q1672.63 1460.35 1674.57 1457.17 Q1676.33 1454.21 1676.33 1449.98 Q1676.33 1446.12 1674.48 1444.51 Q1672.66 1442.88 1670.28 1442.88 Q1668.06 1442.88 1665.62 1443.8 Q1663.18 1444.73 1661.85 1446.8 Q1665.77 1446.8 1665.77 1449.98 Q1665.77 1451.37 1664.88 1452.29 Q1664.01 1453.19 1662.56 1453.19 Q1661.17 1453.19 1660.24 1452.32 Q1659.32 1451.43 1659.32 1449.92 Q1659.32 1446.3 1662.53 1443.8 Q1665.77 1441.3 1670.53 1441.3 Q1675.22 1441.3 1678.68 1443.77 Q1682.17 1446.24 1682.17 1450.04 Q1682.17 1453.78 1679.7 1456.83 Q1677.23 1459.89 1673.31 1461.16 Q1678.12 1462.11 1680.99 1465.39 Q1683.87 1468.63 1683.87 1472.61 Q1683.87 1477.55 1679.98 1481.2 Q1676.08 1484.81 1670.4 1484.81 Q1665.15 1484.81 1661.39 1481.97 Q1657.62 1479.13 1657.62 1474.9 Z" fill="#000000" fill-rule="nonzero" fill-opacity="1" /><path clip-path="url(#clip430)" d="M1975.25 1466.71 Q1975.62 1467.08 1975.62 1467.61 Q1975.62 1468.13 1975.25 1468.51 Q1974.88 1468.88 1974.35 1468.88 L1934.76 1468.88 Q1934.24 1468.88 1933.87 1468.51 Q1933.5 1468.13 1933.5 1467.61 Q1933.5 1467.08 1933.87 1466.71 Q1934.24 1466.34 1934.76 1466.34 L1974.35 1466.34 Q1974.88 1466.34 1975.25 1466.71 Z" fill="#000000" fill-rule="nonzero" fill-opacity="1" /><path clip-path="url(#clip430)" d="M1982.29 1483.42 Q1982.29 1482.28 1982.38 1481.94 Q1982.5 1481.6 1983 1481.07 L1995.13 1467.55 Q2001.77 1460.08 2001.77 1453.56 Q2001.77 1449.33 1999.55 1446.3 Q1997.36 1443.28 1993.31 1443.28 Q1990.53 1443.28 1988.18 1444.98 Q1985.84 1446.67 1984.76 1449.7 Q1984.94 1449.64 1985.59 1449.64 Q1987.17 1449.64 1988.03 1450.63 Q1988.93 1451.61 1988.93 1452.94 Q1988.93 1454.64 1987.81 1455.47 Q1986.73 1456.28 1985.65 1456.28 Q1985.22 1456.28 1984.63 1456.18 Q1984.08 1456.09 1983.18 1455.23 Q1982.29 1454.33 1982.29 1452.76 Q1982.29 1448.34 1985.62 1444.82 Q1988.99 1441.3 1994.11 1441.3 Q1999.92 1441.3 2003.72 1444.76 Q2007.55 1448.19 2007.55 1453.56 Q2007.55 1455.44 2006.96 1457.17 Q2006.4 1458.87 2005.63 1460.2 Q2004.89 1461.53 2002.85 1463.66 Q2000.81 1465.79 1999.18 1467.3 Q1997.54 1468.81 1993.87 1472.03 L1987.17 1478.54 L1998.56 1478.54 Q2004.12 1478.54 2004.55 1478.05 Q2005.17 1477.15 2005.94 1472.43 L2007.55 1472.43 L2005.76 1483.42 L1982.29 1483.42 Z" fill="#000000" fill-rule="nonzero" fill-opacity="1" /><path clip-path="url(#clip430)" d="M2300.13 1466.71 Q2300.5 1467.08 2300.5 1467.61 Q2300.5 1468.13 2300.13 1468.51 Q2299.76 1468.88 2299.24 1468.88 L2259.65 1468.88 Q2259.12 1468.88 2258.75 1468.51 Q2258.38 1468.13 2258.38 1467.61 Q2258.38 1467.08 2258.75 1466.71 Q2259.12 1466.34 2259.65 1466.34 L2299.24 1466.34 Q2299.76 1466.34 2300.13 1466.71 Z" fill="#000000" fill-rule="nonzero" fill-opacity="1" /><path clip-path="url(#clip430)" d="M2309.64 1447.32 L2309.64 1445.35 Q2317.24 1445.35 2321.16 1441.3 Q2322.24 1441.3 2322.43 1441.55 Q2322.61 1441.79 2322.61 1442.94 L2322.61 1478.42 Q2322.61 1480.3 2323.54 1480.89 Q2324.46 1481.47 2328.51 1481.47 L2330.52 1481.47 L2330.52 1483.42 Q2328.29 1483.23 2320.26 1483.23 Q2312.24 1483.23 2310.04 1483.42 L2310.04 1481.47 L2312.05 1481.47 Q2316.03 1481.47 2316.99 1480.92 Q2317.95 1480.33 2317.95 1478.42 L2317.95 1445.65 Q2314.64 1447.32 2309.64 1447.32 Z" fill="#000000" fill-rule="nonzero" fill-opacity="1" /><path clip-path="url(#clip430)" d="M1348.2 1517.34 Q1348.2 1518.78 1347 1518.78 Q1344.9 1518.85 1343.46 1519.27 Q1342.02 1519.66 1341.17 1520.43 Q1340.36 1521.21 1339.91 1522.05 Q1339.49 1522.86 1339.2 1524.09 L1332.81 1549.63 Q1330.98 1556.83 1325.08 1562.07 Q1319.18 1567.27 1312.47 1567.27 Q1308.64 1567.27 1305.44 1565.69 Q1302.28 1564.11 1300.31 1560.91 Q1298.34 1557.71 1298.34 1553.46 Q1298.34 1551.42 1298.87 1549.28 L1303.23 1531.5 L1304.84 1525.18 Q1306.04 1520.5 1306.04 1520.08 Q1306.04 1519.42 1305.62 1519.24 Q1305.23 1519.03 1304.11 1518.92 L1301.37 1518.78 Q1300.52 1518.78 1300.17 1518.75 Q1299.86 1518.71 1299.61 1518.54 Q1299.36 1518.36 1299.36 1517.97 Q1299.36 1517.48 1299.47 1517.17 Q1299.61 1516.82 1299.86 1516.71 Q1300.1 1516.6 1300.28 1516.57 Q1300.45 1516.53 1300.73 1516.53 L1310.01 1516.75 L1319.21 1516.53 Q1320.23 1516.53 1320.23 1517.34 Q1320.23 1518.36 1319.78 1518.57 Q1319.32 1518.78 1317.77 1518.78 Q1315.14 1518.78 1313.94 1519.13 Q1312.78 1519.45 1312.43 1520.01 Q1312.12 1520.54 1311.73 1522.09 L1304.74 1550.09 Q1304.39 1551.49 1304.18 1552.9 Q1304 1554.27 1304 1554.97 L1303.97 1555.67 Q1303.97 1560.14 1306.43 1562.59 Q1308.92 1565.05 1312.75 1565.05 Q1318.37 1565.05 1323.61 1560.59 Q1328.88 1556.13 1330.67 1549.14 L1337.13 1523.46 Q1337.34 1522.82 1337.34 1521.94 Q1337.34 1520.54 1336.29 1519.7 Q1335.27 1518.82 1332.46 1518.78 Q1331.16 1518.78 1331.16 1517.97 Q1331.16 1517.31 1331.41 1516.99 Q1331.69 1516.64 1331.9 1516.6 Q1332.14 1516.53 1332.46 1516.53 Q1333.65 1516.53 1336.18 1516.64 Q1338.71 1516.75 1339.94 1516.75 Q1341.17 1516.75 1343.63 1516.64 Q1346.09 1516.53 1347.29 1516.53 Q1347.71 1516.53 1347.92 1516.75 Q1348.16 1516.92 1348.2 1517.13 L1348.2 1517.34 Z" fill="#000000" fill-rule="nonzero" fill-opacity="1" /><polyline clip-path="url(#clip430)" style="stroke:#000000; stroke-linecap:round; stroke-linejoin:round; stroke-width:4; stroke-opacity:1; fill:none" points="292.58,1410.22 292.58,47.2441 "/>
<polyline clip-path="url(#clip430)" style="stroke:#000000; stroke-linecap:round; stroke-linejoin:round; stroke-width:4; stroke-opacity:1; fill:none" points="2352.76,1410.22 2352.76,47.2441 "/>
<polyline clip-path="url(#clip430)" style="stroke:#000000; stroke-linecap:round; stroke-linejoin:round; stroke-width:4; stroke-opacity:1; fill:none" points="292.58,1293.57 311.478,1293.57 "/>
<polyline clip-path="url(#clip430)" style="stroke:#000000; stroke-linecap:round; stroke-linejoin:round; stroke-width:4; stroke-opacity:1; fill:none" points="292.58,1067.76 311.478,1067.76 "/>
<polyline clip-path="url(#clip430)" style="stroke:#000000; stroke-linecap:round; stroke-linejoin:round; stroke-width:4; stroke-opacity:1; fill:none" points="292.58,841.954 311.478,841.954 "/>
<polyline clip-path="url(#clip430)" style="stroke:#000000; stroke-linecap:round; stroke-linejoin:round; stroke-width:4; stroke-opacity:1; fill:none" points="292.58,616.147 311.478,616.147 "/>
<polyline clip-path="url(#clip430)" style="stroke:#000000; stroke-linecap:round; stroke-linejoin:round; stroke-width:4; stroke-opacity:1; fill:none" points="292.58,390.341 311.478,390.341 "/>
<polyline clip-path="url(#clip430)" style="stroke:#000000; stroke-linecap:round; stroke-linejoin:round; stroke-width:4; stroke-opacity:1; fill:none" points="292.58,164.535 311.478,164.535 "/>
<path clip-path="url(#clip430)" d="M175.09 1298.46 Q175.46 1298.83 175.46 1299.36 Q175.46 1299.88 175.09 1300.25 Q174.719 1300.62 174.194 1300.62 L134.607 1300.62 Q134.082 1300.62 133.712 1300.25 Q133.341 1299.88 133.341 1299.36 Q133.341 1298.83 133.712 1298.46 Q134.082 1298.09 134.607 1298.09 L174.194 1298.09 Q174.719 1298.09 175.09 1298.46 Z" fill="#000000" fill-rule="nonzero" fill-opacity="1" /><path clip-path="url(#clip430)" d="M181.451 1294.94 Q181.451 1285.65 183.798 1280.58 Q187.071 1273.05 194.791 1273.05 Q196.427 1273.05 198.126 1273.51 Q199.855 1273.94 202.017 1275.64 Q204.209 1277.34 205.537 1280.12 Q208.069 1285.49 208.069 1294.94 Q208.069 1304.17 205.722 1309.21 Q202.294 1316.56 194.729 1316.56 Q191.888 1316.56 188.986 1315.1 Q186.114 1313.65 184.292 1310.16 Q181.451 1304.95 181.451 1294.94 M186.7 1294.17 Q186.7 1303.71 187.38 1307.51 Q188.152 1311.62 190.252 1313.41 Q192.382 1315.17 194.729 1315.17 Q197.261 1315.17 199.361 1313.28 Q201.492 1311.37 202.14 1307.26 Q202.85 1303.22 202.819 1294.17 Q202.819 1285.37 202.202 1281.85 Q201.368 1277.74 199.145 1276.1 Q196.952 1274.44 194.729 1274.44 Q193.895 1274.44 193 1274.68 Q192.135 1274.93 190.869 1275.64 Q189.603 1276.35 188.615 1278.11 Q187.658 1279.87 187.195 1282.53 Q186.7 1285.95 186.7 1294.17 Z" fill="#000000" fill-rule="nonzero" fill-opacity="1" /><path clip-path="url(#clip430)" d="M216.931 1314.15 Q215.974 1313.13 215.974 1311.8 Q215.974 1310.47 216.931 1309.52 Q217.888 1308.53 219.34 1308.53 Q220.729 1308.53 221.656 1309.45 Q222.613 1310.35 222.613 1311.83 Q222.613 1313.28 221.594 1314.24 Q220.606 1315.17 219.34 1315.17 Q217.888 1315.17 216.931 1314.15 Z" fill="#000000" fill-rule="nonzero" fill-opacity="1" /><path clip-path="url(#clip430)" d="M231.321 1304.98 Q231.321 1303.09 232.34 1302.38 Q233.359 1301.64 234.44 1301.64 Q235.891 1301.64 236.725 1302.57 Q237.589 1303.46 237.589 1304.73 Q237.589 1306 236.725 1306.92 Q235.891 1307.82 234.44 1307.82 Q233.729 1307.82 233.359 1307.69 Q234.193 1310.6 236.725 1312.7 Q239.288 1314.8 242.654 1314.8 Q246.884 1314.8 249.416 1310.69 Q250.929 1308.03 250.929 1302.01 Q250.929 1296.7 249.787 1294.05 Q248.027 1290 244.414 1290 Q239.288 1290 236.262 1294.42 Q235.891 1294.97 235.459 1295 Q234.841 1295 234.687 1294.66 Q234.563 1294.29 234.563 1293.33 L234.563 1274.62 Q234.563 1273.11 235.181 1273.11 Q235.428 1273.11 235.953 1273.29 Q239.936 1275.05 244.352 1275.09 Q248.891 1275.09 252.967 1273.23 Q253.276 1273.05 253.461 1273.05 Q254.079 1273.05 254.11 1273.76 Q254.11 1274 253.585 1274.75 Q253.091 1275.46 252.01 1276.41 Q250.929 1277.34 249.54 1278.23 Q248.15 1279.13 246.112 1279.75 Q244.105 1280.33 241.882 1280.33 Q239.226 1280.33 236.509 1279.5 L236.509 1291.82 Q239.782 1288.61 244.537 1288.61 Q249.601 1288.61 253.091 1292.69 Q256.58 1296.76 256.58 1302.44 Q256.58 1308.4 252.442 1312.48 Q248.335 1316.56 242.777 1316.56 Q237.713 1316.56 234.501 1312.94 Q231.321 1309.33 231.321 1304.98 Z" fill="#000000" fill-rule="nonzero" fill-opacity="1" /><path clip-path="url(#clip430)" d="M180.772 1069.13 Q180.772 1059.84 183.118 1054.78 Q186.392 1047.24 194.111 1047.24 Q195.748 1047.24 197.446 1047.7 Q199.176 1048.14 201.337 1049.83 Q203.53 1051.53 204.857 1054.31 Q207.39 1059.69 207.39 1069.13 Q207.39 1078.37 205.043 1083.4 Q201.615 1090.75 194.05 1090.75 Q191.209 1090.75 188.306 1089.3 Q185.434 1087.85 183.613 1084.36 Q180.772 1079.14 180.772 1069.13 M186.021 1068.36 Q186.021 1077.9 186.7 1081.7 Q187.472 1085.81 189.572 1087.6 Q191.703 1089.36 194.05 1089.36 Q196.582 1089.36 198.682 1087.48 Q200.812 1085.56 201.461 1081.45 Q202.171 1077.41 202.14 1068.36 Q202.14 1059.56 201.522 1056.04 Q200.689 1051.93 198.465 1050.3 Q196.273 1048.63 194.05 1048.63 Q193.216 1048.63 192.32 1048.88 Q191.456 1049.12 190.19 1049.83 Q188.924 1050.54 187.936 1052.31 Q186.978 1054.07 186.515 1056.72 Q186.021 1060.15 186.021 1068.36 Z" fill="#000000" fill-rule="nonzero" fill-opacity="1" /><path clip-path="url(#clip430)" d="M216.252 1088.34 Q215.295 1087.32 215.295 1085.99 Q215.295 1084.67 216.252 1083.71 Q217.209 1082.72 218.66 1082.72 Q220.05 1082.72 220.976 1083.65 Q221.934 1084.54 221.934 1086.03 Q221.934 1087.48 220.915 1088.43 Q219.926 1089.36 218.66 1089.36 Q217.209 1089.36 216.252 1088.34 Z" fill="#000000" fill-rule="nonzero" fill-opacity="1" /><path clip-path="url(#clip430)" d="M229.962 1069.13 Q229.962 1059.84 232.309 1054.78 Q235.582 1047.24 243.302 1047.24 Q244.939 1047.24 246.637 1047.7 Q248.366 1048.14 250.528 1049.83 Q252.72 1051.53 254.048 1054.31 Q256.58 1059.69 256.58 1069.13 Q256.58 1078.37 254.233 1083.4 Q250.806 1090.75 243.24 1090.75 Q240.399 1090.75 237.497 1089.3 Q234.625 1087.85 232.803 1084.36 Q229.962 1079.14 229.962 1069.13 M235.212 1068.36 Q235.212 1077.9 235.891 1081.7 Q236.663 1085.81 238.763 1087.6 Q240.893 1089.36 243.24 1089.36 Q245.772 1089.36 247.872 1087.48 Q250.003 1085.56 250.651 1081.45 Q251.361 1077.41 251.331 1068.36 Q251.331 1059.56 250.713 1056.04 Q249.879 1051.93 247.656 1050.3 Q245.464 1048.63 243.24 1048.63 Q242.407 1048.63 241.511 1048.88 Q240.646 1049.12 239.38 1049.83 Q238.114 1050.54 237.126 1052.31 Q236.169 1054.07 235.706 1056.72 Q235.212 1060.15 235.212 1068.36 Z" fill="#000000" fill-rule="nonzero" fill-opacity="1" /><path clip-path="url(#clip430)" d="M181.451 843.328 Q181.451 834.033 183.798 828.969 Q187.071 821.435 194.791 821.435 Q196.427 821.435 198.126 821.898 Q199.855 822.33 202.017 824.028 Q204.209 825.727 205.537 828.506 Q208.069 833.879 208.069 843.328 Q208.069 852.561 205.722 857.594 Q202.294 864.943 194.729 864.943 Q191.888 864.943 188.986 863.492 Q186.114 862.041 184.292 858.551 Q181.451 853.333 181.451 843.328 M186.7 842.556 Q186.7 852.098 187.38 855.896 Q188.152 860.003 190.252 861.794 Q192.382 863.554 194.729 863.554 Q197.261 863.554 199.361 861.67 Q201.492 859.756 202.14 855.649 Q202.85 851.603 202.819 842.556 Q202.819 833.755 202.202 830.235 Q201.368 826.128 199.145 824.492 Q196.952 822.824 194.729 822.824 Q193.895 822.824 193 823.071 Q192.135 823.318 190.869 824.028 Q189.603 824.739 188.615 826.499 Q187.658 828.259 187.195 830.914 Q186.7 834.342 186.7 842.556 Z" fill="#000000" fill-rule="nonzero" fill-opacity="1" /><path clip-path="url(#clip430)" d="M216.931 862.535 Q215.974 861.516 215.974 860.188 Q215.974 858.86 216.931 857.903 Q217.888 856.915 219.34 856.915 Q220.729 856.915 221.656 857.841 Q222.613 858.737 222.613 860.219 Q222.613 861.67 221.594 862.627 Q220.606 863.554 219.34 863.554 Q217.888 863.554 216.931 862.535 Z" fill="#000000" fill-rule="nonzero" fill-opacity="1" /><path clip-path="url(#clip430)" d="M231.321 853.364 Q231.321 851.48 232.34 850.77 Q233.359 850.029 234.44 850.029 Q235.891 850.029 236.725 850.955 Q237.589 851.851 237.589 853.117 Q237.589 854.383 236.725 855.309 Q235.891 856.204 234.44 856.204 Q233.729 856.204 233.359 856.081 Q234.193 858.984 236.725 861.083 Q239.288 863.183 242.654 863.183 Q246.884 863.183 249.416 859.076 Q250.929 856.421 250.929 850.399 Q250.929 845.088 249.787 842.432 Q248.027 838.387 244.414 838.387 Q239.288 838.387 236.262 842.803 Q235.891 843.359 235.459 843.39 Q234.841 843.39 234.687 843.05 Q234.563 842.679 234.563 841.722 L234.563 823.009 Q234.563 821.496 235.181 821.496 Q235.428 821.496 235.953 821.682 Q239.936 823.442 244.352 823.473 Q248.891 823.473 252.967 821.62 Q253.276 821.435 253.461 821.435 Q254.079 821.435 254.11 822.145 Q254.11 822.392 253.585 823.133 Q253.091 823.843 252.01 824.8 Q250.929 825.727 249.54 826.622 Q248.15 827.518 246.112 828.135 Q244.105 828.722 241.882 828.722 Q239.226 828.722 236.509 827.888 L236.509 840.209 Q239.782 836.998 244.537 836.998 Q249.601 836.998 253.091 841.074 Q256.58 845.15 256.58 850.832 Q256.58 856.791 252.442 860.867 Q248.335 864.943 242.777 864.943 Q237.713 864.943 234.501 861.33 Q231.321 857.718 231.321 853.364 Z" fill="#000000" fill-rule="nonzero" fill-opacity="1" /><path clip-path="url(#clip430)" d="M183.921 601.65 L183.921 599.673 Q191.518 599.673 195.439 595.628 Q196.52 595.628 196.705 595.875 Q196.891 596.122 196.891 597.265 L196.891 632.745 Q196.891 634.629 197.817 635.215 Q198.743 635.802 202.789 635.802 L204.796 635.802 L204.796 637.747 Q202.572 637.562 194.544 637.562 Q186.515 637.562 184.323 637.747 L184.323 635.802 L186.33 635.802 Q190.313 635.802 191.271 635.246 Q192.228 634.659 192.228 632.745 L192.228 599.982 Q188.924 601.65 183.921 601.65 Z" fill="#000000" fill-rule="nonzero" fill-opacity="1" /><path clip-path="url(#clip430)" d="M216.252 636.728 Q215.295 635.709 215.295 634.382 Q215.295 633.054 216.252 632.097 Q217.209 631.108 218.66 631.108 Q220.05 631.108 220.976 632.035 Q221.934 632.93 221.934 634.412 Q221.934 635.864 220.915 636.821 Q219.926 637.747 218.66 637.747 Q217.209 637.747 216.252 636.728 Z" fill="#000000" fill-rule="nonzero" fill-opacity="1" /><path clip-path="url(#clip430)" d="M229.962 617.522 Q229.962 608.227 232.309 603.163 Q235.582 595.628 243.302 595.628 Q244.939 595.628 246.637 596.091 Q248.366 596.524 250.528 598.222 Q252.72 599.92 254.048 602.7 Q256.58 608.072 256.58 617.522 Q256.58 626.754 254.233 631.788 Q250.806 639.137 243.24 639.137 Q240.399 639.137 237.497 637.686 Q234.625 636.234 232.803 632.745 Q229.962 627.526 229.962 617.522 M235.212 616.75 Q235.212 626.291 235.891 630.089 Q236.663 634.196 238.763 635.987 Q240.893 637.747 243.24 637.747 Q245.772 637.747 247.872 635.864 Q250.003 633.949 250.651 629.842 Q251.361 625.797 251.331 616.75 Q251.331 607.949 250.713 604.429 Q249.879 600.322 247.656 598.685 Q245.464 597.018 243.24 597.018 Q242.407 597.018 241.511 597.265 Q240.646 597.512 239.38 598.222 Q238.114 598.932 237.126 600.692 Q236.169 602.452 235.706 605.108 Q235.212 608.536 235.212 616.75 Z" fill="#000000" fill-rule="nonzero" fill-opacity="1" /><path clip-path="url(#clip430)" d="M184.601 375.843 L184.601 373.867 Q192.197 373.867 196.119 369.822 Q197.199 369.822 197.385 370.069 Q197.57 370.316 197.57 371.458 L197.57 406.939 Q197.57 408.822 198.496 409.409 Q199.423 409.996 203.468 409.996 L205.475 409.996 L205.475 411.941 Q203.252 411.756 195.223 411.756 Q187.195 411.756 185.002 411.941 L185.002 409.996 L187.009 409.996 Q190.993 409.996 191.95 409.44 Q192.907 408.853 192.907 406.939 L192.907 374.176 Q189.603 375.843 184.601 375.843 Z" fill="#000000" fill-rule="nonzero" fill-opacity="1" /><path clip-path="url(#clip430)" d="M216.931 410.922 Q215.974 409.903 215.974 408.575 Q215.974 407.247 216.931 406.29 Q217.888 405.302 219.34 405.302 Q220.729 405.302 221.656 406.228 Q222.613 407.124 222.613 408.606 Q222.613 410.057 221.594 411.015 Q220.606 411.941 219.34 411.941 Q217.888 411.941 216.931 410.922 Z" fill="#000000" fill-rule="nonzero" fill-opacity="1" /><path clip-path="url(#clip430)" d="M231.321 401.751 Q231.321 399.867 232.34 399.157 Q233.359 398.416 234.44 398.416 Q235.891 398.416 236.725 399.342 Q237.589 400.238 237.589 401.504 Q237.589 402.77 236.725 403.696 Q235.891 404.592 234.44 404.592 Q233.729 404.592 233.359 404.468 Q234.193 407.371 236.725 409.471 Q239.288 411.571 242.654 411.571 Q246.884 411.571 249.416 407.464 Q250.929 404.808 250.929 398.787 Q250.929 393.475 249.787 390.82 Q248.027 386.775 244.414 386.775 Q239.288 386.775 236.262 391.19 Q235.891 391.746 235.459 391.777 Q234.841 391.777 234.687 391.437 Q234.563 391.067 234.563 390.109 L234.563 371.397 Q234.563 369.884 235.181 369.884 Q235.428 369.884 235.953 370.069 Q239.936 371.829 244.352 371.86 Q248.891 371.86 252.967 370.007 Q253.276 369.822 253.461 369.822 Q254.079 369.822 254.11 370.532 Q254.11 370.779 253.585 371.52 Q253.091 372.23 252.01 373.188 Q250.929 374.114 249.54 375.01 Q248.15 375.905 246.112 376.523 Q244.105 377.109 241.882 377.109 Q239.226 377.109 236.509 376.276 L236.509 388.596 Q239.782 385.385 244.537 385.385 Q249.601 385.385 253.091 389.461 Q256.58 393.537 256.58 399.219 Q256.58 405.179 252.442 409.255 Q248.335 413.331 242.777 413.331 Q237.713 413.331 234.501 409.718 Q231.321 406.105 231.321 401.751 Z" fill="#000000" fill-rule="nonzero" fill-opacity="1" /><path clip-path="url(#clip430)" d="M181.451 186.135 Q181.451 184.992 181.544 184.653 Q181.667 184.313 182.161 183.788 L194.297 170.263 Q200.936 162.79 200.936 156.275 Q200.936 152.044 198.712 149.018 Q196.52 145.992 192.475 145.992 Q189.696 145.992 187.349 147.69 Q185.002 149.388 183.921 152.415 Q184.107 152.353 184.755 152.353 Q186.33 152.353 187.195 153.341 Q188.09 154.329 188.09 155.657 Q188.09 157.355 186.978 158.189 Q185.898 158.992 184.817 158.992 Q184.385 158.992 183.798 158.899 Q183.242 158.807 182.346 157.942 Q181.451 157.047 181.451 155.472 Q181.451 151.056 184.786 147.536 Q188.152 144.015 193.278 144.015 Q199.083 144.015 202.881 147.474 Q206.71 150.902 206.71 156.275 Q206.71 158.158 206.123 159.887 Q205.568 161.586 204.796 162.914 Q204.055 164.241 202.017 166.372 Q199.979 168.503 198.342 170.016 Q196.705 171.529 193.031 174.74 L186.33 181.256 L197.724 181.256 Q203.283 181.256 203.715 180.762 Q204.332 179.866 205.104 175.142 L206.71 175.142 L204.919 186.135 L181.451 186.135 Z" fill="#000000" fill-rule="nonzero" fill-opacity="1" /><path clip-path="url(#clip430)" d="M216.252 185.116 Q215.295 184.097 215.295 182.769 Q215.295 181.441 216.252 180.484 Q217.209 179.496 218.66 179.496 Q220.05 179.496 220.976 180.422 Q221.934 181.318 221.934 182.8 Q221.934 184.251 220.915 185.208 Q219.926 186.135 218.66 186.135 Q217.209 186.135 216.252 185.116 Z" fill="#000000" fill-rule="nonzero" fill-opacity="1" /><path clip-path="url(#clip430)" d="M229.962 165.909 Q229.962 156.614 232.309 151.55 Q235.582 144.015 243.302 144.015 Q244.939 144.015 246.637 144.479 Q248.366 144.911 250.528 146.609 Q252.72 148.308 254.048 151.087 Q256.58 156.46 256.58 165.909 Q256.58 175.142 254.233 180.175 Q250.806 187.524 243.24 187.524 Q240.399 187.524 237.497 186.073 Q234.625 184.622 232.803 181.132 Q229.962 175.914 229.962 165.909 M235.212 165.137 Q235.212 174.679 235.891 178.477 Q236.663 182.584 238.763 184.375 Q240.893 186.135 243.24 186.135 Q245.772 186.135 247.872 184.251 Q250.003 182.337 250.651 178.23 Q251.361 174.184 251.331 165.137 Q251.331 156.336 250.713 152.816 Q249.879 148.709 247.656 147.073 Q245.464 145.405 243.24 145.405 Q242.407 145.405 241.511 145.652 Q240.646 145.899 239.38 146.609 Q238.114 147.32 237.126 149.08 Q236.169 150.84 235.706 153.495 Q235.212 156.923 235.212 165.137 Z" fill="#000000" fill-rule="nonzero" fill-opacity="1" /><path clip-path="url(#clip430)" d="M60.1802 887.114 Q59.8992 887.114 58.0722 886.166 Q56.2101 885.217 49.5699 881.88 Q42.8945 878.542 35.9029 875.099 L10.958 862.697 Q9.37696 861.818 9.37696 860.694 Q9.37696 859.675 10.0094 859.218 Q10.6418 858.762 14.8929 856.654 Q16.9658 855.564 18.3009 854.932 L59.0208 834.59 Q59.8992 834.238 60.1802 834.203 Q60.8829 834.203 60.8829 835.433 L60.8829 885.217 Q60.8829 887.114 60.1802 887.114 M55.4021 882.371 L55.4021 843.654 L16.5442 863.013 L55.4021 882.371 Z" fill="#000000" fill-rule="nonzero" fill-opacity="1" /><path clip-path="url(#clip430)" d="M10.8877 785.097 L26.6276 788.997 Q27.5762 789.208 27.8221 789.383 Q28.0681 789.559 28.0681 790.051 Q28.0681 790.437 27.8924 790.683 Q27.7167 790.894 27.5411 790.894 L27.3654 790.929 Q27.26 790.929 26.733 790.859 Q26.1709 790.789 25.2574 790.718 Q24.3439 790.648 23.325 790.648 Q17.5631 790.648 14.8929 793.459 Q12.1877 796.234 12.1877 801.013 Q12.1877 804.315 13.9443 807.266 Q15.701 810.218 18.4766 811.904 Q21.217 813.59 24.098 813.59 Q26.733 813.59 28.4194 812.255 Q30.1058 810.92 30.668 809.199 L31.9679 804.385 Q33.2679 799.326 33.83 797.886 Q34.357 796.445 35.5515 795.251 Q38.8541 791.702 43.9836 791.702 Q48.4105 791.702 52.6968 794.197 Q56.9479 796.691 59.7235 800.977 Q62.4639 805.264 62.4639 810.007 Q62.4639 818.334 57.2993 822.163 L61.3748 825.676 Q62.1477 826.344 62.2883 826.555 Q62.4639 826.73 62.4639 826.976 Q62.4639 827.293 62.2531 827.539 Q62.0775 827.784 61.7613 827.784 Q61.5153 827.784 53.2589 825.712 Q45.0025 823.639 44.8268 823.463 Q44.5458 823.182 44.5458 822.725 Q44.5458 821.882 45.3538 821.882 Q45.5646 821.952 45.8457 822.023 Q48.3753 822.444 49.7455 822.444 Q52.3103 822.444 54.2778 821.566 Q56.2101 820.687 57.3344 819.388 Q58.4236 818.052 59.1262 816.261 Q59.7938 814.469 60.0397 812.958 Q60.2505 811.447 60.2505 809.866 Q60.2505 806.458 58.283 803.437 Q56.3155 800.38 53.2589 798.659 Q50.2023 796.902 47.0051 796.902 Q45.3187 796.902 44.0188 797.359 Q42.6837 797.815 41.9459 798.448 Q41.2081 799.045 40.6459 800.064 Q40.0838 801.083 39.873 801.786 Q39.627 802.453 39.3811 803.507 L37.3434 811.201 Q36.4299 814.293 33.7949 816.507 Q31.1598 818.685 27.1195 818.685 Q22.8683 818.685 18.9333 816.19 Q14.9632 813.661 12.5741 809.55 Q10.1499 805.404 10.1499 800.942 Q10.1499 797.429 11.5201 794.724 Q12.8552 792.018 15.3497 790.648 L11.239 787.17 Q10.431 786.467 10.2904 786.327 Q10.1499 786.151 10.1499 785.905 Q10.1499 785.484 10.3958 785.308 Q10.6418 785.097 10.8877 785.097 Z" fill="#000000" fill-rule="nonzero" fill-opacity="1" /><path clip-path="url(#clip430)" d="M82.3823 777.839 Q81.4723 777.839 81.2018 777.765 Q80.9313 777.667 80.5132 777.273 L69.7412 767.608 Q63.7896 762.32 58.6003 762.32 Q55.231 762.32 52.8208 764.091 Q50.4107 765.837 50.4107 769.059 Q50.4107 771.272 51.7633 773.141 Q53.1159 775.011 55.5261 775.871 Q55.4769 775.724 55.4769 775.207 Q55.4769 773.953 56.2639 773.264 Q57.0509 772.551 58.1084 772.551 Q59.4611 772.551 60.1251 773.437 Q60.7645 774.297 60.7645 775.158 Q60.7645 775.502 60.6908 775.97 Q60.617 776.412 59.9284 777.126 Q59.2152 777.839 57.9609 777.839 Q54.444 777.839 51.6403 775.183 Q48.8367 772.502 48.8367 768.42 Q48.8367 763.796 51.5911 760.771 Q54.321 757.721 58.6003 757.721 Q60.1005 757.721 61.4778 758.189 Q62.8304 758.631 63.8879 759.246 Q64.9455 759.836 66.6424 761.46 Q68.3394 763.083 69.5445 764.386 Q70.7495 765.69 73.3073 768.616 L78.4965 773.953 L78.4965 764.878 Q78.4965 760.451 78.103 760.107 Q77.3898 759.615 73.627 759 L73.627 757.721 L82.3823 759.148 L82.3823 777.839 Z" fill="#000000" fill-rule="nonzero" fill-opacity="1" /><path clip-path="url(#clip430)" d="M42.8945 750.242 Q30.7382 750.242 20.9359 745.709 Q16.8253 743.777 13.3822 741.072 Q9.9391 738.366 8.42835 736.575 Q6.91761 734.783 6.91761 734.291 Q6.91761 733.588 7.62028 733.553 Q7.97162 733.553 8.84996 734.502 Q20.6549 746.096 42.8945 746.061 Q65.2044 746.061 76.5525 734.783 Q77.7822 733.553 78.1687 733.553 Q78.8714 733.553 78.8714 734.291 Q78.8714 734.783 77.4309 736.504 Q75.9904 738.226 72.6878 740.896 Q69.3853 743.566 65.3449 745.499 Q55.5426 750.242 42.8945 750.242 Z" fill="#000000" fill-rule="nonzero" fill-opacity="1" /><path clip-path="url(#clip430)" d="M40.8216 688.638 Q46.0214 688.638 50.905 691.308 Q55.7885 693.943 58.7398 698.089 Q61.691 702.2 61.691 706.345 Q61.691 711.018 56.8425 713.442 Q74.4445 717.834 74.9013 718.08 Q76.412 719.099 76.412 720.575 Q76.412 721.488 75.8499 722.05 Q75.3229 722.612 74.4796 722.612 Q74.1986 722.577 73.3202 722.366 L45.0376 715.34 Q38.4676 713.723 33.7949 708.84 Q29.0869 703.921 29.0869 698.651 Q29.0869 694.47 32.2138 691.554 Q35.3407 688.638 40.8216 688.638 M37.7298 693.803 Q34.2165 693.803 32.4598 695.208 Q30.668 696.613 30.668 698.792 Q30.668 700.794 32.2841 703.219 Q33.9003 705.608 37.4839 707.716 Q39.5568 708.84 42.1215 709.648 Q44.6863 710.456 51.0104 712.037 Q53.54 712.599 53.6805 712.599 Q53.9616 712.599 54.594 712.459 Q55.2264 712.283 56.2101 711.861 Q57.1587 711.405 58.002 710.772 Q58.8452 710.14 59.4776 708.98 Q60.0748 707.821 60.0748 706.416 Q60.0748 704.237 58.3182 701.919 Q56.5263 699.565 53.2589 697.843 Q50.6239 696.403 45.67 695.103 Q40.6811 693.803 37.7298 693.803 Z" fill="#000000" fill-rule="nonzero" fill-opacity="1" /><path clip-path="url(#clip430)" d="M96.6761 646.738 Q97.1434 646.738 97.3894 646.934 Q97.6107 647.107 97.6599 647.279 Q97.6845 647.426 97.6845 647.648 Q97.6845 648.287 97.6107 650.501 Q97.5369 652.714 97.5369 653.353 Q97.5369 654.386 97.6107 656.501 Q97.6845 658.616 97.6845 659.649 Q97.6845 660.338 97.1188 660.338 Q96.7499 660.338 96.5532 660.264 Q96.3318 660.19 96.2581 659.994 Q96.1597 659.772 96.1597 659.649 Q96.1351 659.502 96.1351 659.133 Q96.1351 658.641 96.0859 658.125 Q96.0121 657.608 95.8646 656.969 Q95.717 656.329 95.3481 655.936 Q94.9792 655.518 94.4627 655.518 Q94.2414 655.518 92.4215 655.69 Q90.6015 655.862 88.4865 656.083 Q86.3468 656.305 86.0517 656.329 L86.0517 668.97 Q88.0438 670.126 89.421 670.938 Q90.7983 671.749 91.2656 672.044 Q91.7328 672.34 92.028 672.512 Q92.3231 672.684 92.4952 672.782 Q93.7987 673.496 94.3643 673.496 Q95.9383 673.496 96.1351 671.135 Q96.1351 670.323 96.7253 670.323 Q97.168 670.323 97.414 670.52 Q97.6353 670.716 97.6599 670.889 Q97.6845 671.036 97.6845 671.282 Q97.6845 672.094 97.6107 673.791 Q97.5369 675.488 97.5369 676.324 Q97.5369 677.037 97.6107 678.513 Q97.6845 679.988 97.6845 680.652 Q97.6845 680.947 97.5123 681.12 Q97.3402 681.292 97.1188 681.292 Q96.7745 681.292 96.5778 681.242 Q96.381 681.169 96.2826 680.972 Q96.1843 680.775 96.1843 680.677 Q96.1597 680.578 96.1351 680.234 Q96.0121 678.365 95.1267 676.914 Q94.2168 675.438 91.8804 674.037 L62.4665 656.526 Q62.1714 656.354 62.0238 656.231 Q61.8762 656.108 61.7533 655.862 Q61.6303 655.591 61.6303 655.198 Q61.6303 654.583 61.8271 654.46 Q61.9992 654.337 62.8354 654.263 L94.3152 651.189 Q94.9792 651.115 95.2497 651.066 Q95.4957 650.992 95.7662 650.673 Q96.0121 650.328 96.0859 649.714 Q96.1351 649.074 96.1351 647.894 Q96.1351 647.451 96.1597 647.279 Q96.1597 647.107 96.2826 646.934 Q96.4056 646.738 96.6761 646.738 M84.4777 656.477 L67.8771 658.075 L84.4777 668.011 L84.4777 656.477 Z" fill="#000000" fill-rule="nonzero" fill-opacity="1" /><path clip-path="url(#clip430)" d="M101.897 612.805 Q102.034 612.805 102.568 612.96 Q103.102 613.115 103.928 613.493 Q104.755 613.855 105.512 614.371 Q106.252 614.87 106.803 615.697 Q107.337 616.506 107.337 617.436 Q107.337 618.675 106.51 619.501 Q105.684 620.328 104.445 620.328 Q103.773 620.328 102.499 619.863 Q96.6805 617.677 94.5974 617.677 Q92.1356 617.677 92.1356 619.588 Q92.1356 620.672 92.5832 621.653 Q93.0308 622.635 93.6505 623.272 Q94.2703 623.909 94.9761 624.408 Q95.682 624.907 96.1468 625.131 Q96.6116 625.338 96.8182 625.389 L105.323 627.507 Q106.046 627.679 106.39 627.799 Q106.734 627.92 107.027 628.247 Q107.337 628.574 107.337 629.09 Q107.337 629.521 107.079 629.831 Q106.82 630.123 106.373 630.123 Q106.304 630.123 105.942 630.037 Q105.581 629.951 105.082 629.831 Q104.582 629.71 104.29 629.659 Q101.948 629.039 101.621 628.953 L97.524 627.971 Q95.4926 627.438 94.5974 627.438 Q92.1356 627.438 92.1356 629.349 Q92.1356 630.296 92.4971 631.191 Q92.8414 632.069 93.3234 632.671 Q93.8055 633.274 94.4769 633.825 Q95.1311 634.358 95.5787 634.634 Q96.009 634.892 96.4394 635.099 L98.1954 635.546 Q98.6774 635.65 100.554 636.149 L103.739 636.924 Q106.115 637.474 106.338 637.595 Q106.82 637.767 107.079 638.146 Q107.337 638.525 107.337 638.903 Q107.337 639.334 107.079 639.626 Q106.82 639.919 106.373 639.919 Q106.304 639.919 106.046 639.867 Q105.787 639.816 105.426 639.73 Q105.064 639.644 104.858 639.609 L96.7149 637.561 Q95.2343 637.182 94.7695 637.096 Q94.2875 636.992 93.7538 636.992 Q92.1356 636.992 92.1356 638.094 Q92.1356 638.989 93.2029 639.575 Q94.2703 640.16 96.3361 640.659 Q96.9043 640.814 97.0248 640.918 Q97.1453 641.004 97.1453 641.262 Q97.1281 641.692 96.7837 641.692 Q96.6977 641.692 96.1468 641.555 Q95.5959 641.417 94.7695 641.159 Q93.926 640.883 93.3751 640.59 Q93.0135 640.418 92.7725 640.263 Q92.5315 640.108 92.1528 639.799 Q91.774 639.489 91.5674 639.024 Q91.3609 638.559 91.3609 637.991 Q91.3609 636.734 92.17 635.805 Q92.9791 634.858 94.4252 634.737 Q91.3609 632.448 91.3609 629.245 Q91.3609 627.438 92.2733 626.353 Q93.1513 625.338 94.7695 625.217 Q91.3609 622.841 91.3609 619.467 Q91.3609 617.522 92.3766 616.472 Q93.3751 615.421 95.1311 615.421 Q96.0435 615.421 97.7822 615.886 Q99.5038 616.351 100.365 616.661 Q101.225 616.971 102.878 617.573 Q104.462 618.21 105.391 618.21 Q105.994 618.21 106.269 618.004 Q106.545 617.797 106.545 617.35 Q106.545 616.661 106.149 616.058 Q105.736 615.456 105.064 615.025 Q104.376 614.578 103.687 614.285 Q102.981 613.993 102.189 613.769 Q101.759 613.631 101.656 613.562 Q101.552 613.476 101.552 613.235 Q101.552 612.805 101.897 612.805 Z" fill="#000000" fill-rule="nonzero" fill-opacity="1" /><path clip-path="url(#clip430)" d="M78.1687 597.979 Q77.8173 597.979 76.939 597.065 Q65.1341 585.471 42.8945 585.471 Q20.5846 585.471 9.30669 596.609 Q8.00675 597.979 7.62028 597.979 Q6.91761 597.979 6.91761 597.276 Q6.91761 596.784 8.35809 595.063 Q9.79857 593.306 13.1011 590.671 Q16.4037 588.001 20.4441 586.033 Q30.2464 581.29 42.8945 581.29 Q55.0507 581.29 64.853 585.823 Q68.9637 587.755 72.4068 590.46 Q75.8499 593.165 77.3606 594.957 Q78.8714 596.749 78.8714 597.276 Q78.8714 597.979 78.1687 597.979 Z" fill="#000000" fill-rule="nonzero" fill-opacity="1" /><polyline clip-path="url(#clip432)" style="stroke:#009af9; stroke-linecap:round; stroke-linejoin:round; stroke-width:4; stroke-opacity:1; fill:none" points="2294.45,125.962 1970.52,86.9906 1322.67,164.492 998.741,325.079 674.814,439.832 350.887,651.427 "/>
<path clip-path="url(#clip432)" d="M2278.45 109.962 L2278.45 141.962 L2310.45 141.962 L2310.45 109.962 L2278.45 109.962 Z" fill="#009af9" fill-rule="evenodd" fill-opacity="1" stroke="#000000" stroke-opacity="1" stroke-width="3.2"/>
<path clip-path="url(#clip432)" d="M1954.52 70.9906 L1954.52 102.991 L1986.52 102.991 L1986.52 70.9906 L1954.52 70.9906 Z" fill="#009af9" fill-rule="evenodd" fill-opacity="1" stroke="#000000" stroke-opacity="1" stroke-width="3.2"/>
<path clip-path="url(#clip432)" d="M1306.67 148.492 L1306.67 180.492 L1338.67 180.492 L1338.67 148.492 L1306.67 148.492 Z" fill="#009af9" fill-rule="evenodd" fill-opacity="1" stroke="#000000" stroke-opacity="1" stroke-width="3.2"/>
<path clip-path="url(#clip432)" d="M982.741 309.079 L982.741 341.079 L1014.74 341.079 L1014.74 309.079 L982.741 309.079 Z" fill="#009af9" fill-rule="evenodd" fill-opacity="1" stroke="#000000" stroke-opacity="1" stroke-width="3.2"/>
<path clip-path="url(#clip432)" d="M658.814 423.832 L658.814 455.832 L690.814 455.832 L690.814 423.832 L658.814 423.832 Z" fill="#009af9" fill-rule="evenodd" fill-opacity="1" stroke="#000000" stroke-opacity="1" stroke-width="3.2"/>
<path clip-path="url(#clip432)" d="M334.887 635.427 L334.887 667.427 L366.887 667.427 L366.887 635.427 L334.887 635.427 Z" fill="#009af9" fill-rule="evenodd" fill-opacity="1" stroke="#000000" stroke-opacity="1" stroke-width="3.2"/>
<polyline clip-path="url(#clip432)" style="stroke:#000000; stroke-linecap:round; stroke-linejoin:round; stroke-width:4; stroke-opacity:1; fill:none" points="2294.45,126.509 2294.45,125.415 "/>
<polyline clip-path="url(#clip432)" style="stroke:#000000; stroke-linecap:round; stroke-linejoin:round; stroke-width:4; stroke-opacity:1; fill:none" points="1970.52,88.1624 1970.52,85.8189 "/>
<polyline clip-path="url(#clip432)" style="stroke:#000000; stroke-linecap:round; stroke-linejoin:round; stroke-width:4; stroke-opacity:1; fill:none" points="1322.67,166.65 1322.67,162.334 "/>
<polyline clip-path="url(#clip432)" style="stroke:#000000; stroke-linecap:round; stroke-linejoin:round; stroke-width:4; stroke-opacity:1; fill:none" points="998.741,331.304 998.741,318.854 "/>
<polyline clip-path="url(#clip432)" style="stroke:#000000; stroke-linecap:round; stroke-linejoin:round; stroke-width:4; stroke-opacity:1; fill:none" points="674.814,448.429 674.814,431.236 "/>
<polyline clip-path="url(#clip432)" style="stroke:#000000; stroke-linecap:round; stroke-linejoin:round; stroke-width:4; stroke-opacity:1; fill:none" points="350.887,663.976 350.887,638.878 "/>
<line clip-path="url(#clip432)" x1="2310.45" y1="126.509" x2="2278.45" y2="126.509" style="stroke:#000000; stroke-width:4; stroke-opacity:1"/>
<line clip-path="url(#clip432)" x1="2310.45" y1="125.415" x2="2278.45" y2="125.415" style="stroke:#000000; stroke-width:4; stroke-opacity:1"/>
<line clip-path="url(#clip432)" x1="1986.52" y1="88.1624" x2="1954.52" y2="88.1624" style="stroke:#000000; stroke-width:4; stroke-opacity:1"/>
<line clip-path="url(#clip432)" x1="1986.52" y1="85.8189" x2="1954.52" y2="85.8189" style="stroke:#000000; stroke-width:4; stroke-opacity:1"/>
<line clip-path="url(#clip432)" x1="1338.67" y1="166.65" x2="1306.67" y2="166.65" style="stroke:#000000; stroke-width:4; stroke-opacity:1"/>
<line clip-path="url(#clip432)" x1="1338.67" y1="162.334" x2="1306.67" y2="162.334" style="stroke:#000000; stroke-width:4; stroke-opacity:1"/>
<line clip-path="url(#clip432)" x1="1014.74" y1="331.304" x2="982.741" y2="331.304" style="stroke:#000000; stroke-width:4; stroke-opacity:1"/>
<line clip-path="url(#clip432)" x1="1014.74" y1="318.854" x2="982.741" y2="318.854" style="stroke:#000000; stroke-width:4; stroke-opacity:1"/>
<line clip-path="url(#clip432)" x1="690.814" y1="448.429" x2="658.814" y2="448.429" style="stroke:#000000; stroke-width:4; stroke-opacity:1"/>
<line clip-path="url(#clip432)" x1="690.814" y1="431.236" x2="658.814" y2="431.236" style="stroke:#000000; stroke-width:4; stroke-opacity:1"/>
<line clip-path="url(#clip432)" x1="366.887" y1="663.976" x2="334.887" y2="663.976" style="stroke:#000000; stroke-width:4; stroke-opacity:1"/>
<line clip-path="url(#clip432)" x1="366.887" y1="638.878" x2="334.887" y2="638.878" style="stroke:#000000; stroke-width:4; stroke-opacity:1"/>
<polyline clip-path="url(#clip432)" style="stroke:#e26f46; stroke-linecap:round; stroke-linejoin:round; stroke-width:4; stroke-opacity:1; fill:none" points="2294.45,283.193 1970.52,455.372 1322.67,899.075 998.741,1106.54 674.814,1317.06 350.887,1341.65 "/>
<path clip-path="url(#clip432)" d="M2278.45 267.193 L2278.45 299.193 L2310.45 299.193 L2310.45 267.193 L2278.45 267.193 Z" fill="#e26f46" fill-rule="evenodd" fill-opacity="1" stroke="#000000" stroke-opacity="1" stroke-width="3.2"/>
<path clip-path="url(#clip432)" d="M1954.52 439.372 L1954.52 471.372 L1986.52 471.372 L1986.52 439.372 L1954.52 439.372 Z" fill="#e26f46" fill-rule="evenodd" fill-opacity="1" stroke="#000000" stroke-opacity="1" stroke-width="3.2"/>
<path clip-path="url(#clip432)" d="M1306.67 883.075 L1306.67 915.075 L1338.67 915.075 L1338.67 883.075 L1306.67 883.075 Z" fill="#e26f46" fill-rule="evenodd" fill-opacity="1" stroke="#000000" stroke-opacity="1" stroke-width="3.2"/>
<path clip-path="url(#clip432)" d="M982.741 1090.54 L982.741 1122.54 L1014.74 1122.54 L1014.74 1090.54 L982.741 1090.54 Z" fill="#e26f46" fill-rule="evenodd" fill-opacity="1" stroke="#000000" stroke-opacity="1" stroke-width="3.2"/>
<path clip-path="url(#clip432)" d="M658.814 1301.06 L658.814 1333.06 L690.814 1333.06 L690.814 1301.06 L658.814 1301.06 Z" fill="#e26f46" fill-rule="evenodd" fill-opacity="1" stroke="#000000" stroke-opacity="1" stroke-width="3.2"/>
<path clip-path="url(#clip432)" d="M334.887 1325.65 L334.887 1357.65 L366.887 1357.65 L366.887 1325.65 L334.887 1325.65 Z" fill="#e26f46" fill-rule="evenodd" fill-opacity="1" stroke="#000000" stroke-opacity="1" stroke-width="3.2"/>
<polyline clip-path="url(#clip432)" style="stroke:#000000; stroke-linecap:round; stroke-linejoin:round; stroke-width:4; stroke-opacity:1; fill:none" points="2294.45,283.552 2294.45,282.834 "/>
<polyline clip-path="url(#clip432)" style="stroke:#000000; stroke-linecap:round; stroke-linejoin:round; stroke-width:4; stroke-opacity:1; fill:none" points="1970.52,457.102 1970.52,453.641 "/>
<polyline clip-path="url(#clip432)" style="stroke:#000000; stroke-linecap:round; stroke-linejoin:round; stroke-width:4; stroke-opacity:1; fill:none" points="1322.67,906.125 1322.67,892.025 "/>
<polyline clip-path="url(#clip432)" style="stroke:#000000; stroke-linecap:round; stroke-linejoin:round; stroke-width:4; stroke-opacity:1; fill:none" points="998.741,1116.68 998.741,1096.39 "/>
<polyline clip-path="url(#clip432)" style="stroke:#000000; stroke-linecap:round; stroke-linejoin:round; stroke-width:4; stroke-opacity:1; fill:none" points="674.814,1338.23 674.814,1295.89 "/>
<polyline clip-path="url(#clip432)" style="stroke:#000000; stroke-linecap:round; stroke-linejoin:round; stroke-width:4; stroke-opacity:1; fill:none" points="350.887,1371.65 350.887,1311.65 "/>
<line clip-path="url(#clip432)" x1="2310.45" y1="283.552" x2="2278.45" y2="283.552" style="stroke:#000000; stroke-width:4; stroke-opacity:1"/>
<line clip-path="url(#clip432)" x1="2310.45" y1="282.834" x2="2278.45" y2="282.834" style="stroke:#000000; stroke-width:4; stroke-opacity:1"/>
<line clip-path="url(#clip432)" x1="1986.52" y1="457.102" x2="1954.52" y2="457.102" style="stroke:#000000; stroke-width:4; stroke-opacity:1"/>
<line clip-path="url(#clip432)" x1="1986.52" y1="453.641" x2="1954.52" y2="453.641" style="stroke:#000000; stroke-width:4; stroke-opacity:1"/>
<line clip-path="url(#clip432)" x1="1338.67" y1="906.125" x2="1306.67" y2="906.125" style="stroke:#000000; stroke-width:4; stroke-opacity:1"/>
<line clip-path="url(#clip432)" x1="1338.67" y1="892.025" x2="1306.67" y2="892.025" style="stroke:#000000; stroke-width:4; stroke-opacity:1"/>
<line clip-path="url(#clip432)" x1="1014.74" y1="1116.68" x2="982.741" y2="1116.68" style="stroke:#000000; stroke-width:4; stroke-opacity:1"/>
<line clip-path="url(#clip432)" x1="1014.74" y1="1096.39" x2="982.741" y2="1096.39" style="stroke:#000000; stroke-width:4; stroke-opacity:1"/>
<line clip-path="url(#clip432)" x1="690.814" y1="1338.23" x2="658.814" y2="1338.23" style="stroke:#000000; stroke-width:4; stroke-opacity:1"/>
<line clip-path="url(#clip432)" x1="690.814" y1="1295.89" x2="658.814" y2="1295.89" style="stroke:#000000; stroke-width:4; stroke-opacity:1"/>
<line clip-path="url(#clip432)" x1="366.887" y1="1371.65" x2="334.887" y2="1371.65" style="stroke:#000000; stroke-width:4; stroke-opacity:1"/>
<line clip-path="url(#clip432)" x1="366.887" y1="1311.65" x2="334.887" y2="1311.65" style="stroke:#000000; stroke-width:4; stroke-opacity:1"/>
<path clip-path="url(#clip430)" d="M1748.47 1364.79 L2284.08 1364.79 L2284.08 1049.86 L1748.47 1049.86  Z" fill="#ffffff" fill-rule="evenodd" fill-opacity="1"/>
<polyline clip-path="url(#clip430)" style="stroke:#000000; stroke-linecap:round; stroke-linejoin:round; stroke-width:4; stroke-opacity:0; fill:none" points="1748.47,1364.79 2284.08,1364.79 2284.08,1049.86 1748.47,1049.86 1748.47,1364.79 "/>
<polyline clip-path="url(#clip430)" style="stroke:#009af9; stroke-linecap:round; stroke-linejoin:round; stroke-width:6; stroke-opacity:1; fill:none" points="1771.36,1154.84 1908.7,1154.84 "/>
<path clip-path="url(#clip430)" d="M1829.56 1144.37 L1829.56 1165.3 L1850.5 1165.3 L1850.5 1144.37 L1829.56 1144.37 Z" fill="#009af9" fill-rule="evenodd" fill-opacity="1" stroke="#000000" stroke-opacity="1" stroke-width="6.82667"/>
<path clip-path="url(#clip430)" d="M1931.59 1155.1 Q1931.59 1154.82 1932.54 1152.99 Q1933.49 1151.13 1936.83 1144.49 Q1940.16 1137.81 1943.61 1130.82 L1956.01 1105.88 Q1956.89 1104.29 1958.01 1104.29 Q1959.03 1104.29 1959.49 1104.93 Q1959.94 1105.56 1962.05 1109.81 Q1963.14 1111.88 1963.77 1113.22 L1984.12 1153.94 Q1984.47 1154.82 1984.5 1155.1 Q1984.5 1155.8 1983.27 1155.8 L1933.49 1155.8 Q1931.59 1155.8 1931.59 1155.1 M1936.33 1150.32 L1975.05 1150.32 L1955.69 1111.46 L1936.33 1150.32 Z" fill="#000000" fill-rule="nonzero" fill-opacity="1" /><path clip-path="url(#clip430)" d="M2033.61 1105.8 L2029.71 1121.54 Q2029.5 1122.49 2029.32 1122.74 Q2029.15 1122.99 2028.66 1122.99 Q2028.27 1122.99 2028.02 1122.81 Q2027.81 1122.63 2027.81 1122.46 L2027.78 1122.28 Q2027.78 1122.18 2027.85 1121.65 Q2027.92 1121.09 2027.99 1120.17 Q2028.06 1119.26 2028.06 1118.24 Q2028.06 1112.48 2025.25 1109.81 Q2022.47 1107.1 2017.69 1107.1 Q2014.39 1107.1 2011.44 1108.86 Q2008.49 1110.62 2006.8 1113.39 Q2005.12 1116.13 2005.12 1119.02 Q2005.12 1121.65 2006.45 1123.34 Q2007.79 1125.02 2009.51 1125.59 L2014.32 1126.89 Q2019.38 1128.19 2020.82 1128.75 Q2022.26 1129.27 2023.46 1130.47 Q2027 1133.77 2027 1138.9 Q2027 1143.33 2024.51 1147.61 Q2022.02 1151.87 2017.73 1154.64 Q2013.44 1157.38 2008.7 1157.38 Q2000.37 1157.38 1996.54 1152.22 L1993.03 1156.29 Q1992.36 1157.06 1992.15 1157.21 Q1991.98 1157.38 1991.73 1157.38 Q1991.41 1157.38 1991.17 1157.17 Q1990.92 1156.99 1990.92 1156.68 Q1990.92 1156.43 1992.99 1148.18 Q1995.07 1139.92 1995.24 1139.74 Q1995.52 1139.46 1995.98 1139.46 Q1996.82 1139.46 1996.82 1140.27 Q1996.75 1140.48 1996.68 1140.76 Q1996.26 1143.29 1996.26 1144.66 Q1996.26 1147.23 1997.14 1149.2 Q1998.02 1151.13 1999.32 1152.25 Q2000.65 1153.34 2002.45 1154.04 Q2004.24 1154.71 2005.75 1154.96 Q2007.26 1155.17 2008.84 1155.17 Q2012.25 1155.17 2015.27 1153.2 Q2018.33 1151.23 2020.05 1148.18 Q2021.8 1145.12 2021.8 1141.92 Q2021.8 1140.24 2021.35 1138.94 Q2020.89 1137.6 2020.26 1136.86 Q2019.66 1136.13 2018.64 1135.56 Q2017.62 1135 2016.92 1134.79 Q2016.25 1134.54 2015.2 1134.3 L2007.5 1132.26 Q2004.41 1131.35 2002.2 1128.71 Q2000.02 1126.08 2000.02 1122.04 Q2000.02 1117.79 2002.52 1113.85 Q2005.05 1109.88 2009.16 1107.49 Q2013.3 1105.07 2017.76 1105.07 Q2021.28 1105.07 2023.98 1106.44 Q2026.69 1107.77 2028.06 1110.27 L2031.54 1106.16 Q2032.24 1105.35 2032.38 1105.21 Q2032.56 1105.07 2032.8 1105.07 Q2033.22 1105.07 2033.4 1105.31 Q2033.61 1105.56 2033.61 1105.8 Z" fill="#000000" fill-rule="nonzero" fill-opacity="1" /><path clip-path="url(#clip430)" d="M2040.87 1177.3 Q2040.87 1176.39 2040.94 1176.12 Q2041.04 1175.85 2041.43 1175.43 L2051.1 1164.66 Q2056.39 1158.71 2056.39 1153.52 Q2056.39 1150.15 2054.62 1147.74 Q2052.87 1145.33 2049.65 1145.33 Q2047.43 1145.33 2045.56 1146.68 Q2043.7 1148.03 2042.83 1150.44 Q2042.98 1150.39 2043.5 1150.39 Q2044.75 1150.39 2045.44 1151.18 Q2046.16 1151.97 2046.16 1153.03 Q2046.16 1154.38 2045.27 1155.04 Q2044.41 1155.68 2043.55 1155.68 Q2043.2 1155.68 2042.74 1155.61 Q2042.29 1155.53 2041.58 1154.85 Q2040.87 1154.13 2040.87 1152.88 Q2040.87 1149.36 2043.52 1146.56 Q2046.2 1143.75 2050.29 1143.75 Q2054.91 1143.75 2057.94 1146.51 Q2060.98 1149.24 2060.98 1153.52 Q2060.98 1155.02 2060.52 1156.39 Q2060.08 1157.75 2059.46 1158.81 Q2058.87 1159.86 2057.25 1161.56 Q2055.62 1163.26 2054.32 1164.46 Q2053.02 1165.67 2050.09 1168.22 L2044.75 1173.41 L2053.83 1173.41 Q2058.26 1173.41 2058.6 1173.02 Q2059.09 1172.31 2059.71 1168.54 L2060.98 1168.54 L2059.56 1177.3 L2040.87 1177.3 Z" fill="#000000" fill-rule="nonzero" fill-opacity="1" /><path clip-path="url(#clip430)" d="M2068.46 1137.81 Q2068.46 1125.66 2073 1115.85 Q2074.93 1111.74 2077.63 1108.3 Q2080.34 1104.86 2082.13 1103.35 Q2083.92 1101.83 2084.42 1101.83 Q2085.12 1101.83 2085.15 1102.54 Q2085.15 1102.89 2084.2 1103.77 Q2072.61 1115.57 2072.65 1137.81 Q2072.65 1160.12 2083.92 1171.47 Q2085.15 1172.7 2085.15 1173.09 Q2085.15 1173.79 2084.42 1173.79 Q2083.92 1173.79 2082.2 1172.35 Q2080.48 1170.91 2077.81 1167.61 Q2075.14 1164.3 2073.21 1160.26 Q2068.46 1150.46 2068.46 1137.81 Z" fill="#000000" fill-rule="nonzero" fill-opacity="1" /><path clip-path="url(#clip430)" d="M2130.07 1135.74 Q2130.07 1140.94 2127.4 1145.82 Q2124.76 1150.71 2120.62 1153.66 Q2116.51 1156.61 2112.36 1156.61 Q2107.69 1156.61 2105.26 1151.76 Q2100.87 1169.36 2100.63 1169.82 Q2099.61 1171.33 2098.13 1171.33 Q2097.22 1171.33 2096.66 1170.77 Q2096.09 1170.24 2096.09 1169.4 Q2096.13 1169.12 2096.34 1168.24 L2103.37 1139.95 Q2104.98 1133.38 2109.87 1128.71 Q2114.79 1124 2120.06 1124 Q2124.24 1124 2127.15 1127.13 Q2130.07 1130.26 2130.07 1135.74 M2124.9 1132.65 Q2124.9 1129.13 2123.5 1127.38 Q2122.09 1125.59 2119.91 1125.59 Q2117.91 1125.59 2115.49 1127.2 Q2113.1 1128.82 2110.99 1132.4 Q2109.87 1134.47 2109.06 1137.04 Q2108.25 1139.6 2106.67 1145.93 Q2106.11 1148.46 2106.11 1148.6 Q2106.11 1148.88 2106.25 1149.51 Q2106.42 1150.14 2106.84 1151.13 Q2107.3 1152.08 2107.93 1152.92 Q2108.57 1153.76 2109.73 1154.39 Q2110.89 1154.99 2112.29 1154.99 Q2114.47 1154.99 2116.79 1153.24 Q2119.14 1151.44 2120.86 1148.18 Q2122.3 1145.54 2123.6 1140.59 Q2124.9 1135.6 2124.9 1132.65 Z" fill="#000000" fill-rule="nonzero" fill-opacity="1" /><path clip-path="url(#clip430)" d="M2171.97 1191.59 Q2171.97 1192.06 2171.77 1192.31 Q2171.6 1192.53 2171.43 1192.58 Q2171.28 1192.6 2171.06 1192.6 Q2170.42 1192.6 2168.21 1192.53 Q2165.99 1192.45 2165.35 1192.45 Q2164.32 1192.45 2162.2 1192.53 Q2160.09 1192.6 2159.06 1192.6 Q2158.37 1192.6 2158.37 1192.04 Q2158.37 1191.67 2158.44 1191.47 Q2158.52 1191.25 2158.71 1191.18 Q2158.93 1191.08 2159.06 1191.08 Q2159.2 1191.05 2159.57 1191.05 Q2160.07 1191.05 2160.58 1191 Q2161.1 1190.93 2161.74 1190.78 Q2162.38 1190.63 2162.77 1190.27 Q2163.19 1189.9 2163.19 1189.38 Q2163.19 1189.16 2163.02 1187.34 Q2162.84 1185.52 2162.62 1183.4 Q2162.4 1181.26 2162.38 1180.97 L2149.74 1180.97 Q2148.58 1182.96 2147.77 1184.34 Q2146.96 1185.72 2146.66 1186.18 Q2146.37 1186.65 2146.19 1186.95 Q2146.02 1187.24 2145.92 1187.41 Q2145.21 1188.72 2145.21 1189.28 Q2145.21 1190.86 2147.57 1191.05 Q2148.38 1191.05 2148.38 1191.64 Q2148.38 1192.09 2148.19 1192.33 Q2147.99 1192.55 2147.82 1192.58 Q2147.67 1192.6 2147.42 1192.6 Q2146.61 1192.6 2144.92 1192.53 Q2143.22 1192.45 2142.38 1192.45 Q2141.67 1192.45 2140.19 1192.53 Q2138.72 1192.6 2138.05 1192.6 Q2137.76 1192.6 2137.59 1192.43 Q2137.41 1192.26 2137.41 1192.04 Q2137.41 1191.69 2137.46 1191.49 Q2137.54 1191.3 2137.73 1191.2 Q2137.93 1191.1 2138.03 1191.1 Q2138.13 1191.08 2138.47 1191.05 Q2140.34 1190.93 2141.79 1190.04 Q2143.27 1189.13 2144.67 1186.8 L2162.18 1157.38 Q2162.35 1157.09 2162.48 1156.94 Q2162.6 1156.79 2162.84 1156.67 Q2163.11 1156.55 2163.51 1156.55 Q2164.12 1156.55 2164.25 1156.74 Q2164.37 1156.92 2164.44 1157.75 L2167.52 1189.23 Q2167.59 1189.9 2167.64 1190.17 Q2167.71 1190.41 2168.03 1190.68 Q2168.38 1190.93 2168.99 1191 Q2169.63 1191.05 2170.81 1191.05 Q2171.26 1191.05 2171.43 1191.08 Q2171.6 1191.08 2171.77 1191.2 Q2171.97 1191.32 2171.97 1191.59 M2162.23 1179.39 L2160.63 1162.79 L2150.7 1179.39 L2162.23 1179.39 Z" fill="#000000" fill-rule="nonzero" fill-opacity="1" /><path clip-path="url(#clip430)" d="M2177.01 1195.28 Q2177.01 1190.1 2178.32 1187.28 Q2180.15 1183.08 2184.45 1183.08 Q2185.36 1183.08 2186.31 1183.33 Q2187.27 1183.57 2188.48 1184.52 Q2189.7 1185.47 2190.44 1187.02 Q2191.85 1190.01 2191.85 1195.28 Q2191.85 1200.43 2190.55 1203.23 Q2188.63 1207.33 2184.42 1207.33 Q2182.83 1207.33 2181.21 1206.52 Q2179.61 1205.71 2178.6 1203.77 Q2177.01 1200.86 2177.01 1195.28 M2179.94 1194.85 Q2179.94 1200.17 2180.32 1202.29 Q2180.75 1204.58 2181.92 1205.58 Q2183.11 1206.56 2184.42 1206.56 Q2185.83 1206.56 2187 1205.51 Q2188.19 1204.44 2188.55 1202.15 Q2188.94 1199.9 2188.93 1194.85 Q2188.93 1189.94 2188.58 1187.98 Q2188.12 1185.69 2186.88 1184.78 Q2185.66 1183.85 2184.42 1183.85 Q2183.95 1183.85 2183.45 1183.99 Q2182.97 1184.13 2182.26 1184.52 Q2181.56 1184.92 2181.01 1185.9 Q2180.47 1186.88 2180.22 1188.36 Q2179.94 1190.27 2179.94 1194.85 Z" fill="#000000" fill-rule="nonzero" fill-opacity="1" /><path clip-path="url(#clip430)" d="M2207.53 1173.09 Q2207.53 1172.73 2208.44 1171.86 Q2220.04 1160.05 2220.04 1137.81 Q2220.04 1115.5 2208.9 1104.22 Q2207.53 1102.92 2207.53 1102.54 Q2207.53 1101.83 2208.23 1101.83 Q2208.72 1101.83 2210.45 1103.28 Q2212.2 1104.72 2214.84 1108.02 Q2217.51 1111.32 2219.48 1115.36 Q2224.22 1125.16 2224.22 1137.81 Q2224.22 1149.97 2219.69 1159.77 Q2217.75 1163.88 2215.05 1167.32 Q2212.34 1170.77 2210.55 1172.28 Q2208.76 1173.79 2208.23 1173.79 Q2207.53 1173.79 2207.53 1173.09 Z" fill="#000000" fill-rule="nonzero" fill-opacity="1" /><polyline clip-path="url(#clip430)" style="stroke:#e26f46; stroke-linecap:round; stroke-linejoin:round; stroke-width:6; stroke-opacity:1; fill:none" points="1771.36,1259.81 1908.7,1259.81 "/>
<path clip-path="url(#clip430)" d="M1829.56 1249.34 L1829.56 1270.28 L1850.5 1270.28 L1850.5 1249.34 L1829.56 1249.34 Z" fill="#e26f46" fill-rule="evenodd" fill-opacity="1" stroke="#000000" stroke-opacity="1" stroke-width="6.82667"/>
<path clip-path="url(#clip430)" d="M1931.59 1260.46 Q1931.59 1260.18 1932.54 1258.35 Q1933.49 1256.49 1936.83 1249.85 Q1940.16 1243.17 1943.61 1236.18 L1956.01 1211.23 Q1956.89 1209.65 1958.01 1209.65 Q1959.03 1209.65 1959.49 1210.29 Q1959.94 1210.92 1962.05 1215.17 Q1963.14 1217.24 1963.77 1218.58 L1984.12 1259.3 Q1984.47 1260.18 1984.5 1260.46 Q1984.5 1261.16 1983.27 1261.16 L1933.49 1261.16 Q1931.59 1261.16 1931.59 1260.46 M1936.33 1255.68 L1975.05 1255.68 L1955.69 1216.82 L1936.33 1255.68 Z" fill="#000000" fill-rule="nonzero" fill-opacity="1" /><path clip-path="url(#clip430)" d="M2033.61 1211.16 L2029.71 1226.9 Q2029.5 1227.85 2029.32 1228.1 Q2029.15 1228.34 2028.66 1228.34 Q2028.27 1228.34 2028.02 1228.17 Q2027.81 1227.99 2027.81 1227.82 L2027.78 1227.64 Q2027.78 1227.54 2027.85 1227.01 Q2027.92 1226.45 2027.99 1225.53 Q2028.06 1224.62 2028.06 1223.6 Q2028.06 1217.84 2025.25 1215.17 Q2022.47 1212.46 2017.69 1212.46 Q2014.39 1212.46 2011.44 1214.22 Q2008.49 1215.98 2006.8 1218.75 Q2005.12 1221.49 2005.12 1224.37 Q2005.12 1227.01 2006.45 1228.7 Q2007.79 1230.38 2009.51 1230.94 L2014.32 1232.24 Q2019.38 1233.54 2020.82 1234.11 Q2022.26 1234.63 2023.46 1235.83 Q2027 1239.13 2027 1244.26 Q2027 1248.69 2024.51 1252.97 Q2022.02 1257.22 2017.73 1260 Q2013.44 1262.74 2008.7 1262.74 Q2000.37 1262.74 1996.54 1257.58 L1993.03 1261.65 Q1992.36 1262.42 1992.15 1262.56 Q1991.98 1262.74 1991.73 1262.74 Q1991.41 1262.74 1991.17 1262.53 Q1990.92 1262.35 1990.92 1262.04 Q1990.92 1261.79 1992.99 1253.54 Q1995.07 1245.28 1995.24 1245.1 Q1995.52 1244.82 1995.98 1244.82 Q1996.82 1244.82 1996.82 1245.63 Q1996.75 1245.84 1996.68 1246.12 Q1996.26 1248.65 1996.26 1250.02 Q1996.26 1252.59 1997.14 1254.55 Q1998.02 1256.49 1999.32 1257.61 Q2000.65 1258.7 2002.45 1259.4 Q2004.24 1260.07 2005.75 1260.32 Q2007.26 1260.53 2008.84 1260.53 Q2012.25 1260.53 2015.27 1258.56 Q2018.33 1256.59 2020.05 1253.54 Q2021.8 1250.48 2021.8 1247.28 Q2021.8 1245.59 2021.35 1244.29 Q2020.89 1242.96 2020.26 1242.22 Q2019.66 1241.48 2018.64 1240.92 Q2017.62 1240.36 2016.92 1240.15 Q2016.25 1239.9 2015.2 1239.66 L2007.5 1237.62 Q2004.41 1236.71 2002.2 1234.07 Q2000.02 1231.44 2000.02 1227.4 Q2000.02 1223.14 2002.52 1219.21 Q2005.05 1215.24 2009.16 1212.85 Q2013.3 1210.43 2017.76 1210.43 Q2021.28 1210.43 2023.98 1211.8 Q2026.69 1213.13 2028.06 1215.63 L2031.54 1211.52 Q2032.24 1210.71 2032.38 1210.57 Q2032.56 1210.43 2032.8 1210.43 Q2033.22 1210.43 2033.4 1210.67 Q2033.61 1210.92 2033.61 1211.16 Z" fill="#000000" fill-rule="nonzero" fill-opacity="1" /><path clip-path="url(#clip430)" d="M2040.87 1282.66 Q2040.87 1281.75 2040.94 1281.48 Q2041.04 1281.21 2041.43 1280.79 L2051.1 1270.02 Q2056.39 1264.07 2056.39 1258.88 Q2056.39 1255.51 2054.62 1253.1 Q2052.87 1250.69 2049.65 1250.69 Q2047.43 1250.69 2045.56 1252.04 Q2043.7 1253.39 2042.83 1255.8 Q2042.98 1255.75 2043.5 1255.75 Q2044.75 1255.75 2045.44 1256.54 Q2046.16 1257.33 2046.16 1258.38 Q2046.16 1259.74 2045.27 1260.4 Q2044.41 1261.04 2043.55 1261.04 Q2043.2 1261.04 2042.74 1260.97 Q2042.29 1260.89 2041.58 1260.2 Q2040.87 1259.49 2040.87 1258.24 Q2040.87 1254.72 2043.52 1251.92 Q2046.2 1249.11 2050.29 1249.11 Q2054.91 1249.11 2057.94 1251.87 Q2060.98 1254.6 2060.98 1258.88 Q2060.98 1260.38 2060.52 1261.75 Q2060.08 1263.11 2059.46 1264.16 Q2058.87 1265.22 2057.25 1266.92 Q2055.62 1268.62 2054.32 1269.82 Q2053.02 1271.03 2050.09 1273.58 L2044.75 1278.77 L2053.83 1278.77 Q2058.26 1278.77 2058.6 1278.38 Q2059.09 1277.67 2059.71 1273.9 L2060.98 1273.9 L2059.56 1282.66 L2040.87 1282.66 Z" fill="#000000" fill-rule="nonzero" fill-opacity="1" /><path clip-path="url(#clip430)" d="M2068.46 1243.17 Q2068.46 1231.01 2073 1221.21 Q2074.93 1217.1 2077.63 1213.66 Q2080.34 1210.22 2082.13 1208.7 Q2083.92 1207.19 2084.42 1207.19 Q2085.12 1207.19 2085.15 1207.9 Q2085.15 1208.25 2084.2 1209.13 Q2072.61 1220.93 2072.65 1243.17 Q2072.65 1265.48 2083.92 1276.83 Q2085.15 1278.06 2085.15 1278.44 Q2085.15 1279.15 2084.42 1279.15 Q2083.92 1279.15 2082.2 1277.71 Q2080.48 1276.27 2077.81 1272.96 Q2075.14 1269.66 2073.21 1265.62 Q2068.46 1255.82 2068.46 1243.17 Z" fill="#000000" fill-rule="nonzero" fill-opacity="1" /><path clip-path="url(#clip430)" d="M2130.07 1241.1 Q2130.07 1246.3 2127.4 1251.18 Q2124.76 1256.06 2120.62 1259.02 Q2116.51 1261.97 2112.36 1261.97 Q2107.69 1261.97 2105.26 1257.12 Q2100.87 1274.72 2100.63 1275.18 Q2099.61 1276.69 2098.13 1276.69 Q2097.22 1276.69 2096.66 1276.13 Q2096.09 1275.6 2096.09 1274.76 Q2096.13 1274.47 2096.34 1273.6 L2103.37 1245.31 Q2104.98 1238.74 2109.87 1234.07 Q2114.79 1229.36 2120.06 1229.36 Q2124.24 1229.36 2127.15 1232.49 Q2130.07 1235.62 2130.07 1241.1 M2124.9 1238.01 Q2124.9 1234.49 2123.5 1232.74 Q2122.09 1230.94 2119.91 1230.94 Q2117.91 1230.94 2115.49 1232.56 Q2113.1 1234.18 2110.99 1237.76 Q2109.87 1239.83 2109.06 1242.4 Q2108.25 1244.96 2106.67 1251.29 Q2106.11 1253.82 2106.11 1253.96 Q2106.11 1254.24 2106.25 1254.87 Q2106.42 1255.5 2106.84 1256.49 Q2107.3 1257.43 2107.93 1258.28 Q2108.57 1259.12 2109.73 1259.75 Q2110.89 1260.35 2112.29 1260.35 Q2114.47 1260.35 2116.79 1258.59 Q2119.14 1256.8 2120.86 1253.54 Q2122.3 1250.9 2123.6 1245.95 Q2124.9 1240.96 2124.9 1238.01 Z" fill="#000000" fill-rule="nonzero" fill-opacity="1" /><path clip-path="url(#clip430)" d="M2171.97 1296.95 Q2171.97 1297.42 2171.77 1297.67 Q2171.6 1297.89 2171.43 1297.94 Q2171.28 1297.96 2171.06 1297.96 Q2170.42 1297.96 2168.21 1297.89 Q2165.99 1297.81 2165.35 1297.81 Q2164.32 1297.81 2162.2 1297.89 Q2160.09 1297.96 2159.06 1297.96 Q2158.37 1297.96 2158.37 1297.39 Q2158.37 1297.03 2158.44 1296.83 Q2158.52 1296.61 2158.71 1296.53 Q2158.93 1296.44 2159.06 1296.44 Q2159.2 1296.41 2159.57 1296.41 Q2160.07 1296.41 2160.58 1296.36 Q2161.1 1296.29 2161.74 1296.14 Q2162.38 1295.99 2162.77 1295.62 Q2163.19 1295.26 2163.19 1294.74 Q2163.19 1294.52 2163.02 1292.7 Q2162.84 1290.88 2162.62 1288.76 Q2162.4 1286.62 2162.38 1286.33 L2149.74 1286.33 Q2148.58 1288.32 2147.77 1289.7 Q2146.96 1291.07 2146.66 1291.54 Q2146.37 1292.01 2146.19 1292.3 Q2146.02 1292.6 2145.92 1292.77 Q2145.21 1294.07 2145.21 1294.64 Q2145.21 1296.21 2147.57 1296.41 Q2148.38 1296.41 2148.38 1297 Q2148.38 1297.44 2148.19 1297.69 Q2147.99 1297.91 2147.82 1297.94 Q2147.67 1297.96 2147.42 1297.96 Q2146.61 1297.96 2144.92 1297.89 Q2143.22 1297.81 2142.38 1297.81 Q2141.67 1297.81 2140.19 1297.89 Q2138.72 1297.96 2138.05 1297.96 Q2137.76 1297.96 2137.59 1297.79 Q2137.41 1297.62 2137.41 1297.39 Q2137.41 1297.05 2137.46 1296.85 Q2137.54 1296.66 2137.73 1296.56 Q2137.93 1296.46 2138.03 1296.46 Q2138.13 1296.44 2138.47 1296.41 Q2140.34 1296.29 2141.79 1295.4 Q2143.27 1294.49 2144.67 1292.16 L2162.18 1262.74 Q2162.35 1262.45 2162.48 1262.3 Q2162.6 1262.15 2162.84 1262.03 Q2163.11 1261.91 2163.51 1261.91 Q2164.12 1261.91 2164.25 1262.1 Q2164.37 1262.28 2164.44 1263.11 L2167.52 1294.59 Q2167.59 1295.26 2167.64 1295.53 Q2167.71 1295.77 2168.03 1296.04 Q2168.38 1296.29 2168.99 1296.36 Q2169.63 1296.41 2170.81 1296.41 Q2171.26 1296.41 2171.43 1296.44 Q2171.6 1296.44 2171.77 1296.56 Q2171.97 1296.68 2171.97 1296.95 M2162.23 1284.75 L2160.63 1268.15 L2150.7 1284.75 L2162.23 1284.75 Z" fill="#000000" fill-rule="nonzero" fill-opacity="1" /><path clip-path="url(#clip430)" d="M2177.01 1311.21 Q2177.01 1310.54 2178 1310.5 L2188.01 1310.5 L2188.01 1300.88 L2178.06 1300.88 Q2177.01 1300.88 2177.01 1300.18 Q2177.01 1299.47 2178.06 1299.47 L2188.01 1299.47 L2188.01 1289.54 Q2188.01 1288.49 2188.72 1288.49 Q2189.43 1288.47 2189.43 1289.54 L2189.43 1299.47 L2199.36 1299.47 Q2200.41 1299.47 2200.41 1300.18 Q2200.43 1300.88 2199.36 1300.88 L2189.43 1300.88 L2189.43 1310.5 L2199.36 1310.5 Q2200.41 1310.5 2200.41 1311.21 Q2200.43 1311.92 2199.39 1311.92 L2178.06 1311.92 Q2177.01 1311.92 2177.01 1311.21 Z" fill="#000000" fill-rule="nonzero" fill-opacity="1" /><path clip-path="url(#clip430)" d="M2203.05 1291.79 L2203.05 1290.69 Q2207.28 1290.69 2209.47 1288.43 Q2210.07 1288.43 2210.17 1288.57 Q2210.28 1288.71 2210.28 1289.35 L2210.28 1309.13 Q2210.28 1310.18 2210.79 1310.5 Q2211.31 1310.83 2213.57 1310.83 L2214.68 1310.83 L2214.68 1311.92 Q2213.45 1311.81 2208.97 1311.81 Q2204.49 1311.81 2203.27 1311.92 L2203.27 1310.83 L2204.39 1310.83 Q2206.61 1310.83 2207.14 1310.52 Q2207.68 1310.19 2207.68 1309.13 L2207.68 1290.86 Q2205.84 1291.79 2203.05 1291.79 Z" fill="#000000" fill-rule="nonzero" fill-opacity="1" /><path clip-path="url(#clip430)" d="M2233.56 1278.44 Q2233.56 1278.09 2234.48 1277.22 Q2246.07 1265.41 2246.07 1243.17 Q2246.07 1220.86 2234.93 1209.58 Q2233.56 1208.28 2233.56 1207.9 Q2233.56 1207.19 2234.27 1207.19 Q2234.76 1207.19 2236.48 1208.63 Q2238.24 1210.07 2240.87 1213.38 Q2243.54 1216.68 2245.51 1220.72 Q2250.25 1230.52 2250.25 1243.17 Q2250.25 1255.33 2245.72 1265.13 Q2243.79 1269.24 2241.08 1272.68 Q2238.38 1276.13 2236.58 1277.64 Q2234.79 1279.15 2234.27 1279.15 Q2233.56 1279.15 2233.56 1278.44 Z" fill="#000000" fill-rule="nonzero" fill-opacity="1" /></svg>
