<?xml version="1.0" encoding="utf-8"?>
<svg xmlns="http://www.w3.org/2000/svg" xmlns:xlink="http://www.w3.org/1999/xlink" width="600" height="400" viewBox="0 0 2400 1600">
<defs>
  <clipPath id="clip080">
    <rect x="0" y="0" width="2400" height="1600"/>
  </clipPath>
</defs>
<path clip-path="url(#clip080)" d="M0 1600 L2400 1600 L2400 0 L0 0  Z" fill="#ffffff" fill-rule="evenodd" fill-opacity="1"/>
<defs>
  <clipPath id="clip081">
    <rect x="480" y="0" width="1681" height="1600"/>
  </clipPath>
</defs>
<path clip-path="url(#clip080)" d="M227.115 1410.22 L2352.76 1410.22 L2352.76 47.2441 L227.115 47.2441  Z" fill="#ffffff" fill-rule="evenodd" fill-opacity="1"/>
<defs>
  <clipPath id="clip082">
    <rect x="227" y="47" width="2127" height="1364"/>
  </clipPath>
</defs>
<polyline clip-path="url(#clip080)" style="stroke:#000000; stroke-linecap:round; stroke-linejoin:round; stroke-width:4; stroke-opacity:1; fill:none" points="227.115,1410.22 2352.76,1410.22 "/>
<polyline clip-path="url(#clip080)" style="stroke:#000000; stroke-linecap:round; stroke-linejoin:round; stroke-width:4; stroke-opacity:1; fill:none" points="227.115,47.2441 2352.76,47.2441 "/>
<polyline clip-path="url(#clip080)" style="stroke:#000000; stroke-linecap:round; stroke-linejoin:round; stroke-width:4; stroke-opacity:1; fill:none" points="287.275,1410.22 287.275,1391.32 "/>
<polyline clip-path="url(#clip080)" style="stroke:#000000; stroke-linecap:round; stroke-linejoin:round; stroke-width:4; stroke-opacity:1; fill:none" points="860.224,1410.22 860.224,1391.32 "/>
<polyline clip-path="url(#clip080)" style="stroke:#000000; stroke-linecap:round; stroke-linejoin:round; stroke-width:4; stroke-opacity:1; fill:none" points="1433.17,1410.22 1433.17,1391.32 "/>
<polyline clip-path="url(#clip080)" style="stroke:#000000; stroke-linecap:round; stroke-linejoin:round; stroke-width:4; stroke-opacity:1; fill:none" points="2006.12,1410.22 2006.12,1391.32 "/>
<path clip-path="url(#clip080)" d="M291.753 1466.71 Q292.123 1467.08 292.123 1467.61 Q292.123 1468.13 291.753 1468.51 Q291.382 1468.88 290.857 1468.88 L251.27 1468.88 Q250.745 1468.88 250.374 1468.51 Q250.004 1468.13 250.004 1467.61 Q250.004 1467.08 250.374 1466.71 Q250.745 1466.34 251.27 1466.34 L290.857 1466.34 Q291.382 1466.34 291.753 1466.71 Z" fill="#000000" fill-rule="nonzero" fill-opacity="1" /><path clip-path="url(#clip080)" d="M298.299 1473.88 Q298.299 1466.81 307.408 1462.24 Q303.487 1459.58 302.776 1458.81 Q299.997 1455.72 299.997 1451.86 Q299.997 1447.45 303.332 1444.39 Q306.698 1441.3 311.453 1441.3 Q315.993 1441.3 319.42 1443.93 Q322.848 1446.55 322.848 1450.72 Q322.848 1456.59 315.19 1460.54 Q320.254 1463.69 321.458 1465.02 Q324.546 1468.44 324.546 1472.8 Q324.546 1477.86 320.655 1481.35 Q316.765 1484.81 311.392 1484.81 Q306.142 1484.81 302.221 1481.75 Q298.299 1478.7 298.299 1473.88 M301.449 1473.88 Q301.449 1477.8 304.382 1480.42 Q307.347 1483.05 311.453 1483.05 Q315.437 1483.05 318.401 1480.76 Q321.397 1478.48 321.397 1475.08 Q321.397 1473.75 320.933 1472.61 Q320.501 1471.47 319.606 1470.57 Q318.741 1469.65 318.185 1469.25 Q317.66 1468.81 316.641 1468.1 L308.86 1463.19 Q301.449 1467.3 301.449 1473.88 M302.776 1449.39 Q302.776 1452.42 305.957 1454.52 L313.8 1459.58 Q320.069 1455.91 320.069 1450.72 Q320.069 1447.35 317.506 1445.13 Q314.943 1442.88 311.392 1442.88 Q307.902 1442.88 305.339 1444.73 Q302.776 1446.55 302.776 1449.39 Z" fill="#000000" fill-rule="nonzero" fill-opacity="1" /><path clip-path="url(#clip080)" d="M864.701 1466.71 Q865.072 1467.08 865.072 1467.61 Q865.072 1468.13 864.701 1468.51 Q864.331 1468.88 863.806 1468.88 L824.219 1468.88 Q823.694 1468.88 823.323 1468.51 Q822.953 1468.13 822.953 1467.61 Q822.953 1467.08 823.323 1466.71 Q823.694 1466.34 824.219 1466.34 L863.806 1466.34 Q864.331 1466.34 864.701 1466.71 Z" fill="#000000" fill-rule="nonzero" fill-opacity="1" /><path clip-path="url(#clip080)" d="M871.248 1463.44 Q871.248 1453.5 876.312 1447.41 Q881.376 1441.3 887.892 1441.3 Q891.69 1441.3 893.79 1443.25 Q895.92 1445.16 895.92 1448.12 Q895.92 1449.76 894.963 1450.47 Q894.006 1451.18 893.018 1451.18 Q891.875 1451.18 890.98 1450.41 Q890.084 1449.64 890.084 1448.25 Q890.084 1445.41 893.573 1445.41 Q891.937 1442.88 888.015 1442.88 Q886.811 1442.88 885.576 1443.25 Q884.341 1443.59 882.735 1444.76 Q881.129 1445.93 879.894 1447.79 Q878.659 1449.64 877.794 1453.13 Q876.93 1456.62 876.93 1461.16 L876.93 1462.67 Q879.523 1456.4 884.835 1456.43 Q890.146 1456.43 893.821 1460.48 Q897.495 1464.52 897.495 1470.51 Q897.495 1476.66 893.666 1480.73 Q889.837 1484.81 884.464 1484.81 Q882.056 1484.81 879.863 1483.79 Q877.702 1482.8 875.664 1480.52 Q873.656 1478.23 872.452 1473.85 Q871.248 1469.46 871.248 1463.44 M877.053 1469.12 Q877.053 1475.33 878.196 1478.29 Q878.381 1478.79 878.782 1479.47 Q879.215 1480.15 879.925 1481.04 Q880.666 1481.91 881.87 1482.49 Q883.075 1483.05 884.464 1483.05 Q888.695 1483.05 890.733 1478.94 Q891.813 1476.66 891.813 1470.45 Q891.813 1464.12 890.671 1461.8 Q888.725 1457.88 884.773 1457.88 Q882.117 1457.88 880.265 1459.7 Q878.443 1461.53 877.732 1463.97 Q877.053 1466.41 877.053 1469.12 Z" fill="#000000" fill-rule="nonzero" fill-opacity="1" /><path clip-path="url(#clip080)" d="M1437.2 1466.71 Q1437.57 1467.08 1437.57 1467.61 Q1437.57 1468.13 1437.2 1468.51 Q1436.83 1468.88 1436.31 1468.88 L1396.72 1468.88 Q1396.2 1468.88 1395.82 1468.51 Q1395.45 1468.13 1395.45 1467.61 Q1395.45 1467.08 1395.82 1466.71 Q1396.2 1466.34 1396.72 1466.34 L1436.31 1466.34 Q1436.83 1466.34 1437.2 1466.71 Z" fill="#000000" fill-rule="nonzero" fill-opacity="1" /><path clip-path="url(#clip080)" d="M1442.85 1472.98 L1442.85 1471.04 L1462.28 1441.36 Q1462.77 1440.59 1463.54 1440.62 Q1464.25 1440.62 1464.41 1440.9 Q1464.56 1441.18 1464.56 1442.26 L1464.56 1471.04 L1470.89 1471.04 L1470.89 1472.98 L1464.56 1472.98 L1464.56 1478.48 Q1464.56 1480.3 1465.3 1480.89 Q1466.07 1481.47 1469.35 1481.47 L1470.68 1481.47 L1470.68 1483.42 Q1468.08 1483.23 1462.09 1483.23 Q1456.13 1483.23 1453.54 1483.42 L1453.54 1481.47 L1454.87 1481.47 Q1458.14 1481.47 1458.91 1480.92 Q1459.68 1480.33 1459.68 1478.48 L1459.68 1472.98 L1442.85 1472.98 M1444.64 1471.04 L1460.05 1471.04 L1460.05 1447.45 L1444.64 1471.04 Z" fill="#000000" fill-rule="nonzero" fill-opacity="1" /><path clip-path="url(#clip080)" d="M2010.85 1466.71 Q2011.22 1467.08 2011.22 1467.61 Q2011.22 1468.13 2010.85 1468.51 Q2010.48 1468.88 2009.95 1468.88 L1970.36 1468.88 Q1969.84 1468.88 1969.47 1468.51 Q1969.1 1468.13 1969.1 1467.61 Q1969.1 1467.08 1969.47 1466.71 Q1969.84 1466.34 1970.36 1466.34 L2009.95 1466.34 Q2010.48 1466.34 2010.85 1466.71 Z" fill="#000000" fill-rule="nonzero" fill-opacity="1" /><path clip-path="url(#clip080)" d="M2017.89 1483.42 Q2017.89 1482.28 2017.98 1481.94 Q2018.1 1481.6 2018.6 1481.07 L2030.73 1467.55 Q2037.37 1460.08 2037.37 1453.56 Q2037.37 1449.33 2035.15 1446.3 Q2032.96 1443.28 2028.91 1443.28 Q2026.13 1443.28 2023.78 1444.98 Q2021.44 1446.67 2020.36 1449.7 Q2020.54 1449.64 2021.19 1449.64 Q2022.77 1449.64 2023.63 1450.63 Q2024.53 1451.61 2024.53 1452.94 Q2024.53 1454.64 2023.41 1455.47 Q2022.33 1456.28 2021.25 1456.28 Q2020.82 1456.28 2020.23 1456.18 Q2019.68 1456.09 2018.78 1455.23 Q2017.89 1454.33 2017.89 1452.76 Q2017.89 1448.34 2021.22 1444.82 Q2024.59 1441.3 2029.71 1441.3 Q2035.52 1441.3 2039.32 1444.76 Q2043.15 1448.19 2043.15 1453.56 Q2043.15 1455.44 2042.56 1457.17 Q2042 1458.87 2041.23 1460.2 Q2040.49 1461.53 2038.45 1463.66 Q2036.41 1465.79 2034.78 1467.3 Q2033.14 1468.81 2029.47 1472.03 L2022.77 1478.54 L2034.16 1478.54 Q2039.72 1478.54 2040.15 1478.05 Q2040.77 1477.15 2041.54 1472.43 L2043.15 1472.43 L2041.35 1483.42 L2017.89 1483.42 Z" fill="#000000" fill-rule="nonzero" fill-opacity="1" /><path clip-path="url(#clip080)" d="M1315.47 1517.34 Q1315.47 1518.78 1314.27 1518.78 Q1312.16 1518.85 1310.72 1519.27 Q1309.28 1519.66 1308.44 1520.43 Q1307.63 1521.21 1307.18 1522.05 Q1306.75 1522.86 1306.47 1524.09 L1300.08 1549.63 Q1298.25 1556.83 1292.35 1562.07 Q1286.45 1567.27 1279.74 1567.27 Q1275.91 1567.27 1272.71 1565.69 Q1269.55 1564.11 1267.58 1560.91 Q1265.61 1557.71 1265.61 1553.46 Q1265.61 1551.42 1266.14 1549.28 L1270.5 1531.5 L1272.11 1525.18 Q1273.31 1520.5 1273.31 1520.08 Q1273.31 1519.42 1272.88 1519.24 Q1272.5 1519.03 1271.37 1518.92 L1268.63 1518.78 Q1267.79 1518.78 1267.44 1518.75 Q1267.12 1518.71 1266.88 1518.54 Q1266.63 1518.36 1266.63 1517.97 Q1266.63 1517.48 1266.74 1517.17 Q1266.88 1516.82 1267.12 1516.71 Q1267.37 1516.6 1267.54 1516.57 Q1267.72 1516.53 1268 1516.53 L1277.28 1516.75 L1286.48 1516.53 Q1287.5 1516.53 1287.5 1517.34 Q1287.5 1518.36 1287.04 1518.57 Q1286.59 1518.78 1285.04 1518.78 Q1282.41 1518.78 1281.21 1519.13 Q1280.05 1519.45 1279.7 1520.01 Q1279.38 1520.54 1279 1522.09 L1272.01 1550.09 Q1271.66 1551.49 1271.44 1552.9 Q1271.27 1554.27 1271.27 1554.97 L1271.23 1555.67 Q1271.23 1560.14 1273.69 1562.59 Q1276.19 1565.05 1280.02 1565.05 Q1285.64 1565.05 1290.87 1560.59 Q1296.14 1556.13 1297.94 1549.14 L1304.4 1523.46 Q1304.61 1522.82 1304.61 1521.94 Q1304.61 1520.54 1303.56 1519.7 Q1302.54 1518.82 1299.73 1518.78 Q1298.43 1518.78 1298.43 1517.97 Q1298.43 1517.31 1298.67 1516.99 Q1298.95 1516.64 1299.16 1516.6 Q1299.41 1516.53 1299.73 1516.53 Q1300.92 1516.53 1303.45 1516.64 Q1305.98 1516.75 1307.21 1516.75 Q1308.44 1516.75 1310.9 1516.64 Q1313.36 1516.53 1314.55 1516.53 Q1314.97 1516.53 1315.19 1516.75 Q1315.43 1516.92 1315.47 1517.13 L1315.47 1517.34 Z" fill="#000000" fill-rule="nonzero" fill-opacity="1" /><polyline clip-path="url(#clip080)" style="stroke:#000000; stroke-linecap:round; stroke-linejoin:round; stroke-width:4; stroke-opacity:1; fill:none" points="227.115,1410.22 227.115,47.2441 "/>
<polyline clip-path="url(#clip080)" style="stroke:#000000; stroke-linecap:round; stroke-linejoin:round; stroke-width:4; stroke-opacity:1; fill:none" points="2352.76,1410.22 2352.76,47.2441 "/>
<polyline clip-path="url(#clip080)" style="stroke:#000000; stroke-linecap:round; stroke-linejoin:round; stroke-width:4; stroke-opacity:1; fill:none" points="227.115,1137.39 246.013,1137.39 "/>
<polyline clip-path="url(#clip080)" style="stroke:#000000; stroke-linecap:round; stroke-linejoin:round; stroke-width:4; stroke-opacity:1; fill:none" points="227.115,833.406 246.013,833.406 "/>
<polyline clip-path="url(#clip080)" style="stroke:#000000; stroke-linecap:round; stroke-linejoin:round; stroke-width:4; stroke-opacity:1; fill:none" points="227.115,529.421 246.013,529.421 "/>
<polyline clip-path="url(#clip080)" style="stroke:#000000; stroke-linecap:round; stroke-linejoin:round; stroke-width:4; stroke-opacity:1; fill:none" points="227.115,225.436 246.013,225.436 "/>
<path clip-path="url(#clip080)" d="M119.136 1122.89 L119.136 1120.92 Q126.732 1120.92 130.654 1116.87 Q131.735 1116.87 131.92 1117.12 Q132.105 1117.37 132.105 1118.51 L132.105 1153.99 Q132.105 1155.87 133.032 1156.46 Q133.958 1157.05 138.003 1157.05 L140.01 1157.05 L140.01 1158.99 Q137.787 1158.81 129.758 1158.81 Q121.73 1158.81 119.537 1158.99 L119.537 1157.05 L121.545 1157.05 Q125.528 1157.05 126.485 1156.49 Q127.442 1155.9 127.442 1153.99 L127.442 1121.23 Q124.138 1122.89 119.136 1122.89 Z" fill="#000000" fill-rule="nonzero" fill-opacity="1" /><path clip-path="url(#clip080)" d="M151.467 1157.97 Q150.509 1156.95 150.509 1155.62 Q150.509 1154.3 151.467 1153.34 Q152.424 1152.35 153.875 1152.35 Q155.265 1152.35 156.191 1153.28 Q157.148 1154.17 157.148 1155.66 Q157.148 1157.11 156.129 1158.06 Q155.141 1158.99 153.875 1158.99 Q152.424 1158.99 151.467 1157.97 Z" fill="#000000" fill-rule="nonzero" fill-opacity="1" /><path clip-path="url(#clip080)" d="M165.856 1158.99 Q165.856 1157.85 165.949 1157.51 Q166.072 1157.17 166.566 1156.64 L178.702 1143.12 Q185.341 1135.65 185.341 1129.13 Q185.341 1124.9 183.118 1121.87 Q180.925 1118.85 176.88 1118.85 Q174.101 1118.85 171.754 1120.55 Q169.407 1122.24 168.327 1125.27 Q168.512 1125.21 169.16 1125.21 Q170.735 1125.21 171.6 1126.2 Q172.495 1127.18 172.495 1128.51 Q172.495 1130.21 171.384 1131.04 Q170.303 1131.85 169.222 1131.85 Q168.79 1131.85 168.203 1131.75 Q167.647 1131.66 166.752 1130.8 Q165.856 1129.9 165.856 1128.33 Q165.856 1123.91 169.191 1120.39 Q172.557 1116.87 177.683 1116.87 Q183.488 1116.87 187.286 1120.33 Q191.115 1123.76 191.115 1129.13 Q191.115 1131.01 190.529 1132.74 Q189.973 1134.44 189.201 1135.77 Q188.46 1137.1 186.422 1139.23 Q184.384 1141.36 182.747 1142.87 Q181.111 1144.38 177.436 1147.6 L170.735 1154.11 L182.13 1154.11 Q187.688 1154.11 188.12 1153.62 Q188.738 1152.72 189.51 1148 L191.115 1148 L189.324 1158.99 L165.856 1158.99 Z" fill="#000000" fill-rule="nonzero" fill-opacity="1" /><path clip-path="url(#clip080)" d="M119.136 818.908 L119.136 816.932 Q126.732 816.932 130.654 812.886 Q131.735 812.886 131.92 813.133 Q132.105 813.38 132.105 814.523 L132.105 850.003 Q132.105 851.887 133.032 852.474 Q133.958 853.06 138.003 853.06 L140.01 853.06 L140.01 855.006 Q137.787 854.82 129.758 854.82 Q121.73 854.82 119.537 855.006 L119.537 853.06 L121.545 853.06 Q125.528 853.06 126.485 852.504 Q127.442 851.918 127.442 850.003 L127.442 817.24 Q124.138 818.908 119.136 818.908 Z" fill="#000000" fill-rule="nonzero" fill-opacity="1" /><path clip-path="url(#clip080)" d="M151.467 853.987 Q150.509 852.968 150.509 851.64 Q150.509 850.312 151.467 849.355 Q152.424 848.367 153.875 848.367 Q155.265 848.367 156.191 849.293 Q157.148 850.188 157.148 851.671 Q157.148 853.122 156.129 854.079 Q155.141 855.006 153.875 855.006 Q152.424 855.006 151.467 853.987 Z" fill="#000000" fill-rule="nonzero" fill-opacity="1" /><path clip-path="url(#clip080)" d="M165.856 844.816 Q165.856 842.932 166.875 842.222 Q167.894 841.481 168.975 841.481 Q170.426 841.481 171.26 842.407 Q172.125 843.302 172.125 844.568 Q172.125 845.835 171.26 846.761 Q170.426 847.656 168.975 847.656 Q168.265 847.656 167.894 847.533 Q168.728 850.436 171.26 852.535 Q173.823 854.635 177.189 854.635 Q181.419 854.635 183.951 850.528 Q185.465 847.873 185.465 841.851 Q185.465 836.54 184.322 833.884 Q182.562 829.839 178.949 829.839 Q173.823 829.839 170.797 834.255 Q170.426 834.811 169.994 834.842 Q169.376 834.842 169.222 834.502 Q169.099 834.131 169.099 833.174 L169.099 814.461 Q169.099 812.948 169.716 812.948 Q169.963 812.948 170.488 813.133 Q174.472 814.894 178.887 814.924 Q183.426 814.924 187.503 813.072 Q187.811 812.886 187.997 812.886 Q188.614 812.886 188.645 813.597 Q188.645 813.844 188.12 814.585 Q187.626 815.295 186.545 816.252 Q185.465 817.179 184.075 818.074 Q182.685 818.97 180.647 819.587 Q178.64 820.174 176.417 820.174 Q173.761 820.174 171.044 819.34 L171.044 831.661 Q174.317 828.45 179.073 828.45 Q184.137 828.45 187.626 832.526 Q191.115 836.602 191.115 842.283 Q191.115 848.243 186.978 852.319 Q182.871 856.395 177.312 856.395 Q172.248 856.395 169.037 852.782 Q165.856 849.169 165.856 844.816 Z" fill="#000000" fill-rule="nonzero" fill-opacity="1" /><path clip-path="url(#clip080)" d="M118.642 514.923 L118.642 512.947 Q126.238 512.947 130.16 508.902 Q131.241 508.902 131.426 509.149 Q131.611 509.396 131.611 510.538 L131.611 546.018 Q131.611 547.902 132.538 548.489 Q133.464 549.075 137.509 549.075 L139.516 549.075 L139.516 551.021 Q137.293 550.836 129.264 550.836 Q121.236 550.836 119.043 551.021 L119.043 549.075 L121.05 549.075 Q125.034 549.075 125.991 548.52 Q126.948 547.933 126.948 546.018 L126.948 513.256 Q123.644 514.923 118.642 514.923 Z" fill="#000000" fill-rule="nonzero" fill-opacity="1" /><path clip-path="url(#clip080)" d="M150.972 550.002 Q150.015 548.983 150.015 547.655 Q150.015 546.327 150.972 545.37 Q151.93 544.382 153.381 544.382 Q154.771 544.382 155.697 545.308 Q156.654 546.204 156.654 547.686 Q156.654 549.137 155.635 550.094 Q154.647 551.021 153.381 551.021 Q151.93 551.021 150.972 550.002 Z" fill="#000000" fill-rule="nonzero" fill-opacity="1" /><path clip-path="url(#clip080)" d="M164.868 541.479 Q164.868 534.408 173.977 529.838 Q170.056 527.182 169.346 526.41 Q166.566 523.322 166.566 519.462 Q166.566 515.047 169.901 511.99 Q173.267 508.902 178.023 508.902 Q182.562 508.902 185.989 511.526 Q189.417 514.151 189.417 518.32 Q189.417 524.187 181.759 528.139 Q186.823 531.289 188.027 532.617 Q191.115 536.044 191.115 540.398 Q191.115 545.463 187.225 548.952 Q183.334 552.41 177.961 552.41 Q172.711 552.41 168.79 549.353 Q164.868 546.296 164.868 541.479 M168.018 541.479 Q168.018 545.401 170.951 548.026 Q173.916 550.65 178.023 550.65 Q182.006 550.65 184.97 548.365 Q187.966 546.08 187.966 542.683 Q187.966 541.356 187.503 540.213 Q187.07 539.071 186.175 538.175 Q185.31 537.249 184.754 536.847 Q184.229 536.415 183.21 535.705 L175.429 530.795 Q168.018 534.902 168.018 541.479 M169.346 516.992 Q169.346 520.018 172.526 522.118 L180.369 527.182 Q186.638 523.507 186.638 518.32 Q186.638 514.954 184.075 512.731 Q181.512 510.476 177.961 510.476 Q174.472 510.476 171.909 512.329 Q169.346 514.151 169.346 516.992 Z" fill="#000000" fill-rule="nonzero" fill-opacity="1" /><path clip-path="url(#clip080)" d="M118.58 247.036 Q118.58 245.893 118.673 245.554 Q118.796 245.214 119.29 244.689 L131.426 231.164 Q138.065 223.691 138.065 217.176 Q138.065 212.945 135.842 209.919 Q133.649 206.893 129.604 206.893 Q126.825 206.893 124.478 208.591 Q122.131 210.29 121.05 213.316 Q121.236 213.254 121.884 213.254 Q123.459 213.254 124.324 214.242 Q125.219 215.23 125.219 216.558 Q125.219 218.257 124.108 219.09 Q123.027 219.893 121.946 219.893 Q121.514 219.893 120.927 219.801 Q120.371 219.708 119.476 218.843 Q118.58 217.948 118.58 216.373 Q118.58 211.957 121.915 208.437 Q125.281 204.917 130.407 204.917 Q136.212 204.917 140.01 208.375 Q143.839 211.803 143.839 217.176 Q143.839 219.059 143.253 220.789 Q142.697 222.487 141.925 223.815 Q141.184 225.143 139.146 227.273 Q137.108 229.404 135.471 230.917 Q133.834 232.43 130.16 235.642 L123.459 242.157 L134.853 242.157 Q140.412 242.157 140.844 241.663 Q141.462 240.768 142.234 236.043 L143.839 236.043 L142.048 247.036 L118.58 247.036 Z" fill="#000000" fill-rule="nonzero" fill-opacity="1" /><path clip-path="url(#clip080)" d="M153.381 246.017 Q152.424 244.998 152.424 243.67 Q152.424 242.342 153.381 241.385 Q154.338 240.397 155.79 240.397 Q157.179 240.397 158.106 241.323 Q159.063 242.219 159.063 243.701 Q159.063 245.152 158.044 246.11 Q157.056 247.036 155.79 247.036 Q154.338 247.036 153.381 246.017 Z" fill="#000000" fill-rule="nonzero" fill-opacity="1" /><path clip-path="url(#clip080)" d="M170.241 210.938 L170.241 208.962 Q177.837 208.962 181.759 204.917 Q182.84 204.917 183.025 205.164 Q183.21 205.411 183.21 206.553 L183.21 242.034 Q183.21 243.917 184.137 244.504 Q185.063 245.091 189.108 245.091 L191.115 245.091 L191.115 247.036 Q188.892 246.851 180.864 246.851 Q172.835 246.851 170.642 247.036 L170.642 245.091 L172.65 245.091 Q176.633 245.091 177.59 244.535 Q178.548 243.948 178.548 242.034 L178.548 209.271 Q175.243 210.938 170.241 210.938 Z" fill="#000000" fill-rule="nonzero" fill-opacity="1" /><path clip-path="url(#clip080)" d="M17.5075 718.305 Q18.5264 718.305 18.7372 718.762 Q18.948 719.184 18.948 720.729 Q18.948 723.364 19.2994 724.559 Q19.6156 725.718 20.1777 726.07 Q20.7047 726.386 22.2506 726.772 L61.1084 736.504 Q61.1436 736.504 61.6354 736.61 Q62.0922 736.715 62.3381 736.715 Q62.7948 736.715 63.0759 736.434 Q63.357 736.118 63.4975 735.345 Q63.6029 734.572 63.638 733.975 Q63.638 733.342 63.638 732.042 Q63.638 730.426 63.9191 730.18 Q64.0948 730.04 64.411 730.04 Q65.0785 730.04 65.4299 730.321 Q65.7461 730.567 65.8163 730.813 Q65.8515 731.024 65.8515 731.445 Q65.8515 732.183 65.7812 733.764 Q65.7109 735.345 65.7109 736.153 L65.6407 740.756 L65.8515 749.89 Q65.8515 750.874 65.0434 750.874 Q64.3407 750.874 64.0245 750.628 Q63.7083 750.382 63.6732 750.136 Q63.638 749.855 63.638 749.153 Q63.638 745.534 63.2867 744.339 Q62.9002 743.11 61.249 742.618 L41.3984 737.664 L41.3984 759.587 L61.1084 764.506 Q61.1436 764.506 61.6354 764.611 Q62.0922 764.717 62.3381 764.717 Q62.7948 764.717 63.0759 764.436 Q63.357 764.12 63.4975 763.347 Q63.6029 762.574 63.638 761.976 Q63.638 761.344 63.638 760.044 Q63.638 758.428 63.9191 758.147 Q64.0948 758.006 64.411 758.006 Q64.9029 758.006 65.2542 758.147 Q65.5704 758.252 65.6758 758.533 Q65.7812 758.779 65.8163 758.955 Q65.8515 759.131 65.8515 759.447 Q65.8515 760.185 65.7812 761.766 Q65.7109 763.311 65.7109 764.12 L65.6407 768.722 L65.8515 777.857 Q65.8515 778.876 65.0434 778.876 Q64.3407 778.876 64.0597 778.63 Q63.7434 778.384 63.7083 778.068 Q63.638 777.751 63.638 776.943 Q63.638 775.187 63.5326 774.133 Q63.4272 773.079 63.2867 772.411 Q63.111 771.708 62.6192 771.357 Q62.1273 770.971 61.7057 770.795 Q61.249 770.619 60.2301 770.373 L21.583 760.747 Q20.4236 760.466 20.248 760.466 Q19.5804 760.466 19.4048 760.887 Q19.194 761.274 19.0886 762.398 L18.948 765.138 Q18.948 765.982 18.9129 766.333 Q18.8778 766.649 18.7021 766.895 Q18.5264 767.141 18.14 767.141 Q17.6481 767.141 17.3319 767.036 Q16.9805 766.895 16.8751 766.649 Q16.7697 766.403 16.7346 766.228 Q16.6995 766.052 16.6995 765.771 L16.9103 756.495 L16.6995 747.29 Q16.6995 746.272 17.5075 746.272 Q18.5264 746.272 18.7372 746.728 Q18.948 747.185 18.948 748.731 Q18.948 751.296 19.2994 752.49 Q19.6156 753.685 20.1777 754.071 Q20.7398 754.423 22.2506 754.774 L39.1499 759.025 L39.1499 737.067 L21.583 732.745 Q20.3182 732.464 20.248 732.464 Q19.5804 732.464 19.4048 732.886 Q19.194 733.272 19.0886 734.396 L18.948 737.137 Q18.948 737.98 18.9129 738.331 Q18.8778 738.648 18.7021 738.929 Q18.5264 739.175 18.14 739.175 Q17.6481 739.175 17.3319 739.069 Q16.9805 738.929 16.8751 738.683 Q16.7697 738.437 16.7346 738.261 Q16.6995 738.085 16.6995 737.804 L16.9103 728.529 L16.6995 719.289 Q16.6995 718.305 17.5075 718.305 Z" fill="#000000" fill-rule="nonzero" fill-opacity="1" /><path clip-path="url(#clip080)" d="M57.0385 711.211 L55.4645 711.211 Q55.4645 705.161 52.2427 702.038 Q52.2427 701.177 52.4395 701.03 Q52.6362 700.882 53.5462 700.882 L81.8042 700.882 Q83.3044 700.882 83.7717 700.144 Q84.239 699.406 84.239 696.185 L84.239 694.586 L85.7883 694.586 Q85.6408 696.357 85.6408 702.751 Q85.6408 709.145 85.7883 710.892 L84.239 710.892 L84.239 709.293 Q84.239 706.12 83.7963 705.358 Q83.329 704.596 81.8042 704.596 L55.7104 704.596 Q57.0385 707.227 57.0385 711.211 Z" fill="#000000" fill-rule="nonzero" fill-opacity="1" /><polyline clip-path="url(#clip082)" style="stroke:#009af9; stroke-linecap:round; stroke-linejoin:round; stroke-width:4; stroke-opacity:1; fill:none" points="2292.6,258.857 2006.12,337.878 1719.65,481.922 1433.17,640.15 1146.7,836.233 860.224,882.121 573.749,945.472 287.275,1268.92 "/>
<path clip-path="url(#clip082)" d="M2276.6 242.857 L2276.6 274.857 L2308.6 274.857 L2308.6 242.857 L2276.6 242.857 Z" fill="#009af9" fill-rule="evenodd" fill-opacity="1" stroke="#000000" stroke-opacity="1" stroke-width="3.2"/>
<path clip-path="url(#clip082)" d="M1990.12 321.878 L1990.12 353.878 L2022.12 353.878 L2022.12 321.878 L1990.12 321.878 Z" fill="#009af9" fill-rule="evenodd" fill-opacity="1" stroke="#000000" stroke-opacity="1" stroke-width="3.2"/>
<path clip-path="url(#clip082)" d="M1703.65 465.922 L1703.65 497.922 L1735.65 497.922 L1735.65 465.922 L1703.65 465.922 Z" fill="#009af9" fill-rule="evenodd" fill-opacity="1" stroke="#000000" stroke-opacity="1" stroke-width="3.2"/>
<path clip-path="url(#clip082)" d="M1417.17 624.15 L1417.17 656.15 L1449.17 656.15 L1449.17 624.15 L1417.17 624.15 Z" fill="#009af9" fill-rule="evenodd" fill-opacity="1" stroke="#000000" stroke-opacity="1" stroke-width="3.2"/>
<path clip-path="url(#clip082)" d="M1130.7 820.233 L1130.7 852.233 L1162.7 852.233 L1162.7 820.233 L1130.7 820.233 Z" fill="#009af9" fill-rule="evenodd" fill-opacity="1" stroke="#000000" stroke-opacity="1" stroke-width="3.2"/>
<path clip-path="url(#clip082)" d="M844.224 866.121 L844.224 898.121 L876.224 898.121 L876.224 866.121 L844.224 866.121 Z" fill="#009af9" fill-rule="evenodd" fill-opacity="1" stroke="#000000" stroke-opacity="1" stroke-width="3.2"/>
<path clip-path="url(#clip082)" d="M557.749 929.472 L557.749 961.472 L589.749 961.472 L589.749 929.472 L557.749 929.472 Z" fill="#009af9" fill-rule="evenodd" fill-opacity="1" stroke="#000000" stroke-opacity="1" stroke-width="3.2"/>
<path clip-path="url(#clip082)" d="M271.275 1252.92 L271.275 1284.92 L303.275 1284.92 L303.275 1252.92 L271.275 1252.92 Z" fill="#009af9" fill-rule="evenodd" fill-opacity="1" stroke="#000000" stroke-opacity="1" stroke-width="3.2"/>
<polyline clip-path="url(#clip082)" style="stroke:#000000; stroke-linecap:round; stroke-linejoin:round; stroke-width:4; stroke-opacity:1; fill:none" points="2292.6,261.326 2292.6,256.389 "/>
<polyline clip-path="url(#clip082)" style="stroke:#000000; stroke-linecap:round; stroke-linejoin:round; stroke-width:4; stroke-opacity:1; fill:none" points="2006.12,343.491 2006.12,332.264 "/>
<polyline clip-path="url(#clip082)" style="stroke:#000000; stroke-linecap:round; stroke-linejoin:round; stroke-width:4; stroke-opacity:1; fill:none" points="1719.65,500.603 1719.65,463.24 "/>
<polyline clip-path="url(#clip082)" style="stroke:#000000; stroke-linecap:round; stroke-linejoin:round; stroke-width:4; stroke-opacity:1; fill:none" points="1433.17,663.144 1433.17,617.156 "/>
<polyline clip-path="url(#clip082)" style="stroke:#000000; stroke-linecap:round; stroke-linejoin:round; stroke-width:4; stroke-opacity:1; fill:none" points="1146.7,865.133 1146.7,807.333 "/>
<polyline clip-path="url(#clip082)" style="stroke:#000000; stroke-linecap:round; stroke-linejoin:round; stroke-width:4; stroke-opacity:1; fill:none" points="860.224,920.137 860.224,844.104 "/>
<polyline clip-path="url(#clip082)" style="stroke:#000000; stroke-linecap:round; stroke-linejoin:round; stroke-width:4; stroke-opacity:1; fill:none" points="573.749,1003.64 573.749,887.306 "/>
<polyline clip-path="url(#clip082)" style="stroke:#000000; stroke-linecap:round; stroke-linejoin:round; stroke-width:4; stroke-opacity:1; fill:none" points="287.275,1371.65 287.275,1166.2 "/>
<line clip-path="url(#clip082)" x1="2308.6" y1="261.326" x2="2276.6" y2="261.326" style="stroke:#000000; stroke-width:4; stroke-opacity:1"/>
<line clip-path="url(#clip082)" x1="2308.6" y1="256.389" x2="2276.6" y2="256.389" style="stroke:#000000; stroke-width:4; stroke-opacity:1"/>
<line clip-path="url(#clip082)" x1="2022.12" y1="343.491" x2="1990.12" y2="343.491" style="stroke:#000000; stroke-width:4; stroke-opacity:1"/>
<line clip-path="url(#clip082)" x1="2022.12" y1="332.264" x2="1990.12" y2="332.264" style="stroke:#000000; stroke-width:4; stroke-opacity:1"/>
<line clip-path="url(#clip082)" x1="1735.65" y1="500.603" x2="1703.65" y2="500.603" style="stroke:#000000; stroke-width:4; stroke-opacity:1"/>
<line clip-path="url(#clip082)" x1="1735.65" y1="463.24" x2="1703.65" y2="463.24" style="stroke:#000000; stroke-width:4; stroke-opacity:1"/>
<line clip-path="url(#clip082)" x1="1449.17" y1="663.144" x2="1417.17" y2="663.144" style="stroke:#000000; stroke-width:4; stroke-opacity:1"/>
<line clip-path="url(#clip082)" x1="1449.17" y1="617.156" x2="1417.17" y2="617.156" style="stroke:#000000; stroke-width:4; stroke-opacity:1"/>
<line clip-path="url(#clip082)" x1="1162.7" y1="865.133" x2="1130.7" y2="865.133" style="stroke:#000000; stroke-width:4; stroke-opacity:1"/>
<line clip-path="url(#clip082)" x1="1162.7" y1="807.333" x2="1130.7" y2="807.333" style="stroke:#000000; stroke-width:4; stroke-opacity:1"/>
<line clip-path="url(#clip082)" x1="876.224" y1="920.137" x2="844.224" y2="920.137" style="stroke:#000000; stroke-width:4; stroke-opacity:1"/>
<line clip-path="url(#clip082)" x1="876.224" y1="844.104" x2="844.224" y2="844.104" style="stroke:#000000; stroke-width:4; stroke-opacity:1"/>
<line clip-path="url(#clip082)" x1="589.749" y1="1003.64" x2="557.749" y2="1003.64" style="stroke:#000000; stroke-width:4; stroke-opacity:1"/>
<line clip-path="url(#clip082)" x1="589.749" y1="887.306" x2="557.749" y2="887.306" style="stroke:#000000; stroke-width:4; stroke-opacity:1"/>
<line clip-path="url(#clip082)" x1="303.275" y1="1371.65" x2="271.275" y2="1371.65" style="stroke:#000000; stroke-width:4; stroke-opacity:1"/>
<line clip-path="url(#clip082)" x1="303.275" y1="1166.2" x2="271.275" y2="1166.2" style="stroke:#000000; stroke-width:4; stroke-opacity:1"/>
<polyline clip-path="url(#clip082)" style="stroke:#e26f46; stroke-linecap:round; stroke-linejoin:round; stroke-width:4; stroke-opacity:1; fill:none" points="2292.6,144.463 2006.12,110.168 1719.65,92.1301 1433.17,135.418 1146.7,172.616 860.224,197.918 573.749,185.388 287.275,183.266 "/>
<circle clip-path="url(#clip082)" cx="2292.6" cy="144.463" r="18" fill="#e26f46" fill-rule="evenodd" fill-opacity="1" stroke="#000000" stroke-opacity="1" stroke-width="3.2"/>
<circle clip-path="url(#clip082)" cx="2006.12" cy="110.168" r="18" fill="#e26f46" fill-rule="evenodd" fill-opacity="1" stroke="#000000" stroke-opacity="1" stroke-width="3.2"/>
<circle clip-path="url(#clip082)" cx="1719.65" cy="92.1301" r="18" fill="#e26f46" fill-rule="evenodd" fill-opacity="1" stroke="#000000" stroke-opacity="1" stroke-width="3.2"/>
<circle clip-path="url(#clip082)" cx="1433.17" cy="135.418" r="18" fill="#e26f46" fill-rule="evenodd" fill-opacity="1" stroke="#000000" stroke-opacity="1" stroke-width="3.2"/>
<circle clip-path="url(#clip082)" cx="1146.7" cy="172.616" r="18" fill="#e26f46" fill-rule="evenodd" fill-opacity="1" stroke="#000000" stroke-opacity="1" stroke-width="3.2"/>
<circle clip-path="url(#clip082)" cx="860.224" cy="197.918" r="18" fill="#e26f46" fill-rule="evenodd" fill-opacity="1" stroke="#000000" stroke-opacity="1" stroke-width="3.2"/>
<circle clip-path="url(#clip082)" cx="573.749" cy="185.388" r="18" fill="#e26f46" fill-rule="evenodd" fill-opacity="1" stroke="#000000" stroke-opacity="1" stroke-width="3.2"/>
<circle clip-path="url(#clip082)" cx="287.275" cy="183.266" r="18" fill="#e26f46" fill-rule="evenodd" fill-opacity="1" stroke="#000000" stroke-opacity="1" stroke-width="3.2"/>
<polyline clip-path="url(#clip082)" style="stroke:#000000; stroke-linecap:round; stroke-linejoin:round; stroke-width:4; stroke-opacity:1; fill:none" points="2292.6,144.781 2292.6,144.145 "/>
<polyline clip-path="url(#clip082)" style="stroke:#000000; stroke-linecap:round; stroke-linejoin:round; stroke-width:4; stroke-opacity:1; fill:none" points="2006.12,111.224 2006.12,109.112 "/>
<polyline clip-path="url(#clip082)" style="stroke:#000000; stroke-linecap:round; stroke-linejoin:round; stroke-width:4; stroke-opacity:1; fill:none" points="1719.65,98.4413 1719.65,85.8189 "/>
<polyline clip-path="url(#clip082)" style="stroke:#000000; stroke-linecap:round; stroke-linejoin:round; stroke-width:4; stroke-opacity:1; fill:none" points="1433.17,143.607 1433.17,127.23 "/>
<polyline clip-path="url(#clip082)" style="stroke:#000000; stroke-linecap:round; stroke-linejoin:round; stroke-width:4; stroke-opacity:1; fill:none" points="1146.7,179.223 1146.7,166.008 "/>
<polyline clip-path="url(#clip082)" style="stroke:#000000; stroke-linecap:round; stroke-linejoin:round; stroke-width:4; stroke-opacity:1; fill:none" points="860.224,205.531 860.224,190.304 "/>
<polyline clip-path="url(#clip082)" style="stroke:#000000; stroke-linecap:round; stroke-linejoin:round; stroke-width:4; stroke-opacity:1; fill:none" points="573.749,195.379 573.749,175.397 "/>
<polyline clip-path="url(#clip082)" style="stroke:#000000; stroke-linecap:round; stroke-linejoin:round; stroke-width:4; stroke-opacity:1; fill:none" points="287.275,196.533 287.275,169.999 "/>
<line clip-path="url(#clip082)" x1="2312.6" y1="144.781" x2="2272.6" y2="144.781" style="stroke:#000000; stroke-width:4; stroke-opacity:1"/>
<line clip-path="url(#clip082)" x1="2312.6" y1="144.145" x2="2272.6" y2="144.145" style="stroke:#000000; stroke-width:4; stroke-opacity:1"/>
<line clip-path="url(#clip082)" x1="2026.12" y1="111.224" x2="1986.12" y2="111.224" style="stroke:#000000; stroke-width:4; stroke-opacity:1"/>
<line clip-path="url(#clip082)" x1="2026.12" y1="109.112" x2="1986.12" y2="109.112" style="stroke:#000000; stroke-width:4; stroke-opacity:1"/>
<line clip-path="url(#clip082)" x1="1739.65" y1="98.4413" x2="1699.65" y2="98.4413" style="stroke:#000000; stroke-width:4; stroke-opacity:1"/>
<line clip-path="url(#clip082)" x1="1739.65" y1="85.8189" x2="1699.65" y2="85.8189" style="stroke:#000000; stroke-width:4; stroke-opacity:1"/>
<line clip-path="url(#clip082)" x1="1453.17" y1="143.607" x2="1413.17" y2="143.607" style="stroke:#000000; stroke-width:4; stroke-opacity:1"/>
<line clip-path="url(#clip082)" x1="1453.17" y1="127.23" x2="1413.17" y2="127.23" style="stroke:#000000; stroke-width:4; stroke-opacity:1"/>
<line clip-path="url(#clip082)" x1="1166.7" y1="179.223" x2="1126.7" y2="179.223" style="stroke:#000000; stroke-width:4; stroke-opacity:1"/>
<line clip-path="url(#clip082)" x1="1166.7" y1="166.008" x2="1126.7" y2="166.008" style="stroke:#000000; stroke-width:4; stroke-opacity:1"/>
<line clip-path="url(#clip082)" x1="880.224" y1="205.531" x2="840.224" y2="205.531" style="stroke:#000000; stroke-width:4; stroke-opacity:1"/>
<line clip-path="url(#clip082)" x1="880.224" y1="190.304" x2="840.224" y2="190.304" style="stroke:#000000; stroke-width:4; stroke-opacity:1"/>
<line clip-path="url(#clip082)" x1="593.749" y1="195.379" x2="553.749" y2="195.379" style="stroke:#000000; stroke-width:4; stroke-opacity:1"/>
<line clip-path="url(#clip082)" x1="593.749" y1="175.397" x2="553.749" y2="175.397" style="stroke:#000000; stroke-width:4; stroke-opacity:1"/>
<line clip-path="url(#clip082)" x1="307.275" y1="196.533" x2="267.275" y2="196.533" style="stroke:#000000; stroke-width:4; stroke-opacity:1"/>
<line clip-path="url(#clip082)" x1="307.275" y1="169.999" x2="267.275" y2="169.999" style="stroke:#000000; stroke-width:4; stroke-opacity:1"/>
<path clip-path="url(#clip080)" d="M1903.46 1364.79 L2281.9 1364.79 L2281.9 1130.04 L1903.46 1130.04  Z" fill="#ffffff" fill-rule="evenodd" fill-opacity="1"/>
<polyline clip-path="url(#clip080)" style="stroke:#000000; stroke-linecap:round; stroke-linejoin:round; stroke-width:4; stroke-opacity:0; fill:none" points="1903.46,1364.79 2281.9,1364.79 2281.9,1130.04 1903.46,1130.04 1903.46,1364.79 "/>
<polyline clip-path="url(#clip080)" style="stroke:#009af9; stroke-linecap:round; stroke-linejoin:round; stroke-width:6; stroke-opacity:1; fill:none" points="1927.08,1208.29 2068.79,1208.29 "/>
<path clip-path="url(#clip080)" d="M1983.44 1193.8 L1983.44 1222.78 L2012.42 1222.78 L2012.42 1193.8 L1983.44 1193.8 Z" fill="#009af9" fill-rule="evenodd" fill-opacity="1" stroke="#000000" stroke-opacity="1" stroke-width="6.82667"/>
<path clip-path="url(#clip080)" d="M2152.97 1169.51 Q2152.97 1170.53 2152.52 1170.74 Q2152.1 1170.95 2150.55 1170.95 Q2147.91 1170.95 2146.72 1171.3 Q2145.56 1171.62 2145.21 1172.18 Q2144.89 1172.7 2144.51 1174.25 L2134.77 1213.11 Q2134.77 1213.14 2134.67 1213.64 Q2134.56 1214.09 2134.56 1214.34 Q2134.56 1214.79 2134.84 1215.08 Q2135.16 1215.36 2135.93 1215.5 Q2136.71 1215.6 2137.3 1215.64 Q2137.94 1215.64 2139.24 1215.64 Q2140.85 1215.64 2141.1 1215.92 Q2141.24 1216.09 2141.24 1216.41 Q2141.24 1217.08 2140.96 1217.43 Q2140.71 1217.75 2140.47 1217.82 Q2140.26 1217.85 2139.83 1217.85 Q2139.1 1217.85 2137.52 1217.78 Q2135.93 1217.71 2135.13 1217.71 L2130.52 1217.64 L2121.39 1217.85 Q2120.41 1217.85 2120.41 1217.04 Q2120.41 1216.34 2120.65 1216.02 Q2120.9 1215.71 2121.14 1215.67 Q2121.42 1215.64 2122.13 1215.64 Q2125.75 1215.64 2126.94 1215.29 Q2128.17 1214.9 2128.66 1213.25 L2133.62 1193.4 L2111.69 1193.4 L2106.77 1213.11 Q2106.77 1213.14 2106.67 1213.64 Q2106.56 1214.09 2106.56 1214.34 Q2106.56 1214.79 2106.84 1215.08 Q2107.16 1215.36 2107.93 1215.5 Q2108.71 1215.6 2109.3 1215.64 Q2109.94 1215.64 2111.24 1215.64 Q2112.85 1215.64 2113.13 1215.92 Q2113.27 1216.09 2113.27 1216.41 Q2113.27 1216.9 2113.13 1217.25 Q2113.03 1217.57 2112.75 1217.68 Q2112.5 1217.78 2112.32 1217.82 Q2112.15 1217.85 2111.83 1217.85 Q2111.09 1217.85 2109.51 1217.78 Q2107.97 1217.71 2107.16 1217.71 L2102.56 1217.64 L2093.42 1217.85 Q2092.4 1217.85 2092.4 1217.04 Q2092.4 1216.34 2092.65 1216.06 Q2092.9 1215.74 2093.21 1215.71 Q2093.53 1215.64 2094.34 1215.64 Q2096.09 1215.64 2097.15 1215.53 Q2098.2 1215.43 2098.87 1215.29 Q2099.57 1215.11 2099.92 1214.62 Q2100.31 1214.13 2100.48 1213.71 Q2100.66 1213.25 2100.91 1212.23 L2110.53 1173.58 Q2110.81 1172.42 2110.81 1172.25 Q2110.81 1171.58 2110.39 1171.4 Q2110.01 1171.19 2108.88 1171.09 L2106.14 1170.95 Q2105.3 1170.95 2104.95 1170.91 Q2104.63 1170.88 2104.38 1170.7 Q2104.14 1170.53 2104.14 1170.14 Q2104.14 1169.65 2104.24 1169.33 Q2104.38 1168.98 2104.63 1168.88 Q2104.88 1168.77 2105.05 1168.73 Q2105.23 1168.7 2105.51 1168.7 L2114.78 1168.91 L2123.99 1168.7 Q2125.01 1168.7 2125.01 1169.51 Q2125.01 1170.53 2124.55 1170.74 Q2124.09 1170.95 2122.55 1170.95 Q2119.98 1170.95 2118.79 1171.3 Q2117.59 1171.62 2117.21 1172.18 Q2116.86 1172.74 2116.51 1174.25 L2112.25 1191.15 L2134.21 1191.15 L2138.53 1173.58 Q2138.82 1172.32 2138.82 1172.25 Q2138.82 1171.58 2138.39 1171.4 Q2138.01 1171.19 2136.88 1171.09 L2134.14 1170.95 Q2133.3 1170.95 2132.95 1170.91 Q2132.63 1170.88 2132.35 1170.7 Q2132.1 1170.53 2132.1 1170.14 Q2132.1 1169.65 2132.21 1169.33 Q2132.35 1168.98 2132.6 1168.88 Q2132.84 1168.77 2133.02 1168.73 Q2133.19 1168.7 2133.47 1168.7 L2142.75 1168.91 L2151.99 1168.7 Q2152.97 1168.7 2152.97 1169.51 Z" fill="#000000" fill-rule="nonzero" fill-opacity="1" /><path clip-path="url(#clip080)" d="M2160.07 1209.04 L2160.07 1207.46 Q2166.12 1207.46 2169.24 1204.24 Q2170.1 1204.24 2170.25 1204.44 Q2170.4 1204.64 2170.4 1205.55 L2170.4 1233.8 Q2170.4 1235.3 2171.13 1235.77 Q2171.87 1236.24 2175.09 1236.24 L2176.69 1236.24 L2176.69 1237.79 Q2174.92 1237.64 2168.53 1237.64 Q2162.13 1237.64 2160.39 1237.79 L2160.39 1236.24 L2161.99 1236.24 Q2165.16 1236.24 2165.92 1235.8 Q2166.68 1235.33 2166.68 1233.8 L2166.68 1207.71 Q2164.05 1209.04 2160.07 1209.04 Z" fill="#000000" fill-rule="nonzero" fill-opacity="1" /><path clip-path="url(#clip080)" d="M2185.72 1236.98 Q2185.01 1236.17 2185.01 1235.11 Q2185.01 1234.05 2185.7 1233.26 Q2186.41 1232.45 2187.69 1232.45 Q2189.19 1232.45 2190.05 1233.9 Q2190.91 1235.33 2190.91 1237.74 Q2190.91 1240.35 2189.86 1242.76 Q2188.8 1245.19 2187.77 1246.35 Q2186.73 1247.5 2186.31 1247.5 Q2185.82 1247.5 2185.82 1246.96 Q2185.82 1246.76 2186.17 1246.4 Q2189.78 1242.51 2189.81 1237.74 Q2189.81 1236.98 2189.71 1236.98 L2189.59 1237.08 Q2188.72 1237.79 2187.69 1237.79 Q2186.44 1237.79 2185.72 1236.98 Z" fill="#000000" fill-rule="nonzero" fill-opacity="1" /><path clip-path="url(#clip080)" d="M2248.07 1230.58 Q2248.07 1230.78 2247.85 1231.54 Q2247.63 1232.3 2247.09 1233.48 Q2246.57 1234.66 2245.84 1235.75 Q2245.12 1236.8 2243.94 1237.59 Q2242.79 1238.35 2241.46 1238.35 Q2239.69 1238.35 2238.51 1237.17 Q2237.33 1235.99 2237.33 1234.22 Q2237.33 1233.26 2237.99 1231.44 Q2241.11 1223.13 2241.11 1220.15 Q2241.11 1216.64 2238.38 1216.64 Q2236.84 1216.64 2235.43 1217.28 Q2234.03 1217.92 2233.12 1218.8 Q2232.21 1219.69 2231.5 1220.7 Q2230.79 1221.7 2230.47 1222.37 Q2230.17 1223.03 2230.1 1223.33 L2227.07 1235.48 Q2226.83 1236.51 2226.65 1237 Q2226.48 1237.49 2226.01 1237.91 Q2225.55 1238.35 2224.81 1238.35 Q2224.19 1238.35 2223.75 1237.99 Q2223.33 1237.62 2223.33 1236.98 Q2223.33 1236.88 2223.46 1236.36 Q2223.58 1235.85 2223.75 1235.13 Q2223.92 1234.42 2224 1234 Q2224.88 1230.66 2225.01 1230.19 L2226.41 1224.34 Q2227.17 1221.43 2227.17 1220.15 Q2227.17 1216.64 2224.44 1216.64 Q2223.09 1216.64 2221.81 1217.15 Q2220.55 1217.65 2219.69 1218.33 Q2218.83 1219.02 2218.05 1219.98 Q2217.28 1220.92 2216.89 1221.56 Q2216.52 1222.17 2216.23 1222.79 L2215.59 1225.29 Q2215.44 1225.98 2214.73 1228.66 L2213.62 1233.21 Q2212.83 1236.61 2212.66 1236.93 Q2212.41 1237.62 2211.87 1237.99 Q2211.33 1238.35 2210.79 1238.35 Q2210.18 1238.35 2209.76 1237.99 Q2209.34 1237.62 2209.34 1236.98 Q2209.34 1236.88 2209.41 1236.51 Q2209.49 1236.14 2209.61 1235.62 Q2209.73 1235.11 2209.78 1234.81 L2212.71 1223.18 Q2213.25 1221.06 2213.37 1220.4 Q2213.52 1219.71 2213.52 1218.95 Q2213.52 1216.64 2211.95 1216.64 Q2210.67 1216.64 2209.83 1218.16 Q2209 1219.69 2208.28 1222.64 Q2208.06 1223.45 2207.91 1223.62 Q2207.79 1223.79 2207.42 1223.79 Q2206.81 1223.77 2206.81 1223.28 Q2206.81 1223.16 2207 1222.37 Q2207.2 1221.58 2207.57 1220.4 Q2207.96 1219.2 2208.38 1218.41 Q2208.63 1217.89 2208.85 1217.55 Q2209.07 1217.2 2209.51 1216.66 Q2209.95 1216.12 2210.62 1215.83 Q2211.28 1215.53 2212.09 1215.53 Q2213.89 1215.53 2215.22 1216.69 Q2216.57 1217.84 2216.74 1219.91 Q2220.01 1215.53 2224.59 1215.53 Q2227.17 1215.53 2228.72 1216.83 Q2230.17 1218.09 2230.34 1220.4 Q2233.74 1215.53 2238.56 1215.53 Q2241.34 1215.53 2242.84 1216.98 Q2244.34 1218.41 2244.34 1220.92 Q2244.34 1222.22 2243.67 1224.7 Q2243.01 1227.16 2242.57 1228.39 Q2242.12 1229.62 2241.26 1231.98 Q2240.35 1234.25 2240.35 1235.57 Q2240.35 1236.44 2240.65 1236.83 Q2240.94 1237.22 2241.58 1237.22 Q2242.57 1237.22 2243.43 1236.66 Q2244.29 1236.07 2244.9 1235.11 Q2245.54 1234.12 2245.96 1233.14 Q2246.38 1232.13 2246.7 1231 Q2246.89 1230.39 2246.99 1230.24 Q2247.12 1230.09 2247.46 1230.09 Q2248.07 1230.09 2248.07 1230.58 Z" fill="#000000" fill-rule="nonzero" fill-opacity="1" /><polyline clip-path="url(#clip080)" style="stroke:#e26f46; stroke-linecap:round; stroke-linejoin:round; stroke-width:6; stroke-opacity:1; fill:none" points="1927.08,1286.54 2068.79,1286.54 "/>
<circle clip-path="url(#clip080)" cx="1997.93" cy="1286.54" r="13.0392" fill="#e26f46" fill-rule="evenodd" fill-opacity="1" stroke="#000000" stroke-opacity="1" stroke-width="5.58545"/>
<path clip-path="url(#clip080)" d="M2152.97 1247.76 Q2152.97 1248.78 2152.52 1248.99 Q2152.1 1249.2 2150.55 1249.2 Q2147.91 1249.2 2146.72 1249.55 Q2145.56 1249.86 2145.21 1250.43 Q2144.89 1250.95 2144.51 1252.5 L2134.77 1291.36 Q2134.77 1291.39 2134.67 1291.88 Q2134.56 1292.34 2134.56 1292.59 Q2134.56 1293.04 2134.84 1293.33 Q2135.16 1293.61 2135.93 1293.75 Q2136.71 1293.85 2137.3 1293.89 Q2137.94 1293.89 2139.24 1293.89 Q2140.85 1293.89 2141.1 1294.17 Q2141.24 1294.34 2141.24 1294.66 Q2141.24 1295.33 2140.96 1295.68 Q2140.71 1296 2140.47 1296.07 Q2140.26 1296.1 2139.83 1296.1 Q2139.1 1296.1 2137.52 1296.03 Q2135.93 1295.96 2135.13 1295.96 L2130.52 1295.89 L2121.39 1296.1 Q2120.41 1296.1 2120.41 1295.29 Q2120.41 1294.59 2120.65 1294.27 Q2120.9 1293.96 2121.14 1293.92 Q2121.42 1293.89 2122.13 1293.89 Q2125.75 1293.89 2126.94 1293.54 Q2128.17 1293.15 2128.66 1291.5 L2133.62 1271.65 L2111.69 1271.65 L2106.77 1291.36 Q2106.77 1291.39 2106.67 1291.88 Q2106.56 1292.34 2106.56 1292.59 Q2106.56 1293.04 2106.84 1293.33 Q2107.16 1293.61 2107.93 1293.75 Q2108.71 1293.85 2109.3 1293.89 Q2109.94 1293.89 2111.24 1293.89 Q2112.85 1293.89 2113.13 1294.17 Q2113.27 1294.34 2113.27 1294.66 Q2113.27 1295.15 2113.13 1295.5 Q2113.03 1295.82 2112.75 1295.93 Q2112.5 1296.03 2112.32 1296.07 Q2112.15 1296.1 2111.83 1296.1 Q2111.09 1296.1 2109.51 1296.03 Q2107.97 1295.96 2107.16 1295.96 L2102.56 1295.89 L2093.42 1296.1 Q2092.4 1296.1 2092.4 1295.29 Q2092.4 1294.59 2092.65 1294.31 Q2092.9 1293.99 2093.21 1293.96 Q2093.53 1293.89 2094.34 1293.89 Q2096.09 1293.89 2097.15 1293.78 Q2098.2 1293.68 2098.87 1293.54 Q2099.57 1293.36 2099.92 1292.87 Q2100.31 1292.38 2100.48 1291.95 Q2100.66 1291.5 2100.91 1290.48 L2110.53 1251.83 Q2110.81 1250.67 2110.81 1250.5 Q2110.81 1249.83 2110.39 1249.65 Q2110.01 1249.44 2108.88 1249.34 L2106.14 1249.2 Q2105.3 1249.2 2104.95 1249.16 Q2104.63 1249.13 2104.38 1248.95 Q2104.14 1248.78 2104.14 1248.39 Q2104.14 1247.9 2104.24 1247.58 Q2104.38 1247.23 2104.63 1247.12 Q2104.88 1247.02 2105.05 1246.98 Q2105.23 1246.95 2105.51 1246.95 L2114.78 1247.16 L2123.99 1246.95 Q2125.01 1246.95 2125.01 1247.76 Q2125.01 1248.78 2124.55 1248.99 Q2124.09 1249.2 2122.55 1249.2 Q2119.98 1249.2 2118.79 1249.55 Q2117.59 1249.86 2117.21 1250.43 Q2116.86 1250.99 2116.51 1252.5 L2112.25 1269.4 L2134.21 1269.4 L2138.53 1251.83 Q2138.82 1250.57 2138.82 1250.5 Q2138.82 1249.83 2138.39 1249.65 Q2138.01 1249.44 2136.88 1249.34 L2134.14 1249.2 Q2133.3 1249.2 2132.95 1249.16 Q2132.63 1249.13 2132.35 1248.95 Q2132.1 1248.78 2132.1 1248.39 Q2132.1 1247.9 2132.21 1247.58 Q2132.35 1247.23 2132.6 1247.12 Q2132.84 1247.02 2133.02 1246.98 Q2133.19 1246.95 2133.47 1246.95 L2142.75 1247.16 L2151.99 1246.95 Q2152.97 1246.95 2152.97 1247.76 Z" fill="#000000" fill-rule="nonzero" fill-opacity="1" /><path clip-path="url(#clip080)" d="M2160.07 1287.29 L2160.07 1285.71 Q2166.12 1285.71 2169.24 1282.49 Q2170.1 1282.49 2170.25 1282.69 Q2170.4 1282.89 2170.4 1283.8 L2170.4 1312.05 Q2170.4 1313.55 2171.13 1314.02 Q2171.87 1314.49 2175.09 1314.49 L2176.69 1314.49 L2176.69 1316.04 Q2174.92 1315.89 2168.53 1315.89 Q2162.13 1315.89 2160.39 1316.04 L2160.39 1314.49 L2161.99 1314.49 Q2165.16 1314.49 2165.92 1314.05 Q2166.68 1313.58 2166.68 1312.05 L2166.68 1285.96 Q2164.05 1287.29 2160.07 1287.29 Z" fill="#000000" fill-rule="nonzero" fill-opacity="1" /><path clip-path="url(#clip080)" d="M2185.72 1315.23 Q2185.01 1314.41 2185.01 1313.36 Q2185.01 1312.3 2185.7 1311.51 Q2186.41 1310.7 2187.69 1310.7 Q2189.19 1310.7 2190.05 1312.15 Q2190.91 1313.58 2190.91 1315.99 Q2190.91 1318.6 2189.86 1321.01 Q2188.8 1323.44 2187.77 1324.6 Q2186.73 1325.75 2186.31 1325.75 Q2185.82 1325.75 2185.82 1325.21 Q2185.82 1325.01 2186.17 1324.65 Q2189.78 1320.76 2189.81 1315.99 Q2189.81 1315.23 2189.71 1315.23 L2189.59 1315.32 Q2188.72 1316.04 2187.69 1316.04 Q2186.44 1316.04 2185.72 1315.23 Z" fill="#000000" fill-rule="nonzero" fill-opacity="1" /><path clip-path="url(#clip080)" d="M2234.11 1308.83 Q2234.11 1309.03 2233.88 1309.79 Q2233.66 1310.55 2233.12 1311.73 Q2232.61 1312.91 2231.89 1314 Q2231.18 1315.05 2230 1315.84 Q2228.84 1316.6 2227.51 1316.6 Q2225.74 1316.6 2224.56 1315.42 Q2223.38 1314.24 2223.38 1312.47 Q2223.38 1311.49 2223.9 1310.14 Q2227.17 1301.4 2227.17 1298.4 Q2227.17 1294.89 2224.44 1294.89 Q2223.09 1294.89 2221.81 1295.4 Q2220.55 1295.9 2219.69 1296.58 Q2218.83 1297.27 2218.05 1298.23 Q2217.28 1299.17 2216.89 1299.81 Q2216.52 1300.42 2216.23 1301.04 L2215.59 1303.54 Q2215.44 1304.23 2214.73 1306.91 L2213.62 1311.46 Q2212.83 1314.86 2212.66 1315.18 Q2212.41 1315.87 2211.87 1316.23 Q2211.33 1316.6 2210.79 1316.6 Q2210.18 1316.6 2209.76 1316.23 Q2209.34 1315.87 2209.34 1315.23 Q2209.34 1315.13 2209.41 1314.76 Q2209.49 1314.39 2209.61 1313.87 Q2209.73 1313.36 2209.78 1313.06 L2212.71 1301.43 Q2213.25 1299.31 2213.37 1298.65 Q2213.52 1297.96 2213.52 1297.2 Q2213.52 1294.89 2211.95 1294.89 Q2210.67 1294.89 2209.83 1296.41 Q2209 1297.94 2208.28 1300.89 Q2208.06 1301.7 2207.91 1301.87 Q2207.79 1302.04 2207.42 1302.04 Q2206.81 1302.02 2206.81 1301.53 Q2206.81 1301.4 2207 1300.59 Q2207.2 1299.78 2207.57 1298.63 Q2207.96 1297.44 2208.33 1296.66 Q2208.65 1296.07 2208.82 1295.8 Q2209.02 1295.5 2209.49 1294.94 Q2209.98 1294.35 2210.62 1294.08 Q2211.28 1293.78 2212.09 1293.78 Q2213.91 1293.78 2215.24 1294.96 Q2216.57 1296.12 2216.74 1298.16 Q2220.01 1293.78 2224.59 1293.78 Q2227.29 1293.78 2228.84 1295.21 Q2230.39 1296.63 2230.39 1299.17 Q2230.39 1299.76 2230.27 1300.52 Q2230.17 1301.26 2229.92 1302.19 Q2229.7 1303.13 2229.51 1303.84 Q2229.31 1304.55 2228.92 1305.71 Q2228.52 1306.84 2228.35 1307.33 Q2228.18 1307.82 2227.76 1308.98 Q2227.37 1310.11 2227.32 1310.23 Q2226.41 1312.52 2226.41 1313.82 Q2226.41 1314.68 2226.68 1315.08 Q2226.97 1315.47 2227.61 1315.47 Q2229.33 1315.47 2230.61 1313.78 Q2231.92 1312.05 2232.75 1309.25 Q2232.95 1308.63 2233.05 1308.49 Q2233.17 1308.34 2233.52 1308.34 Q2234.11 1308.34 2234.11 1308.83 Z" fill="#000000" fill-rule="nonzero" fill-opacity="1" /></svg>
