<?xml version="1.0" encoding="utf-8"?>
<svg xmlns="http://www.w3.org/2000/svg" xmlns:xlink="http://www.w3.org/1999/xlink" width="600" height="400" viewBox="0 0 2400 1600">
<defs>
  <clipPath id="clip210">
    <rect x="0" y="0" width="2400" height="1600"/>
  </clipPath>
</defs>
<path clip-path="url(#clip210)" d="M0 1600 L2400 1600 L2400 0 L0 0  Z" fill="#ffffff" fill-rule="evenodd" fill-opacity="1"/>
<defs>
  <clipPath id="clip211">
    <rect x="480" y="0" width="1681" height="1600"/>
  </clipPath>
</defs>
<path clip-path="url(#clip210)" d="M261.33 1410.22 L2352.76 1410.22 L2352.76 47.2441 L261.33 47.2441  Z" fill="#ffffff" fill-rule="evenodd" fill-opacity="1"/>
<defs>
  <clipPath id="clip212">
    <rect x="261" y="47" width="2092" height="1364"/>
  </clipPath>
</defs>
<polyline clip-path="url(#clip210)" style="stroke:#000000; stroke-linecap:round; stroke-linejoin:round; stroke-width:4; stroke-opacity:1; fill:none" points="261.33,1410.22 2352.76,1410.22 "/>
<polyline clip-path="url(#clip210)" style="stroke:#000000; stroke-linecap:round; stroke-linejoin:round; stroke-width:4; stroke-opacity:1; fill:none" points="261.33,47.2441 2352.76,47.2441 "/>
<polyline clip-path="url(#clip210)" style="stroke:#000000; stroke-linecap:round; stroke-linejoin:round; stroke-width:4; stroke-opacity:1; fill:none" points="320.521,1410.22 320.521,1391.32 "/>
<polyline clip-path="url(#clip210)" style="stroke:#000000; stroke-linecap:round; stroke-linejoin:round; stroke-width:4; stroke-opacity:1; fill:none" points="884.248,1410.22 884.248,1391.32 "/>
<polyline clip-path="url(#clip210)" style="stroke:#000000; stroke-linecap:round; stroke-linejoin:round; stroke-width:4; stroke-opacity:1; fill:none" points="1447.97,1410.22 1447.97,1391.32 "/>
<polyline clip-path="url(#clip210)" style="stroke:#000000; stroke-linecap:round; stroke-linejoin:round; stroke-width:4; stroke-opacity:1; fill:none" points="2011.7,1410.22 2011.7,1391.32 "/>
<path clip-path="url(#clip210)" d="M324.998 1466.71 Q325.369 1467.08 325.369 1467.61 Q325.369 1468.13 324.998 1468.51 Q324.628 1468.88 324.103 1468.88 L284.516 1468.88 Q283.991 1468.88 283.62 1468.51 Q283.25 1468.13 283.25 1467.61 Q283.25 1467.08 283.62 1466.71 Q283.991 1466.34 284.516 1466.34 L324.103 1466.34 Q324.628 1466.34 324.998 1466.71 Z" fill="#000000" fill-rule="nonzero" fill-opacity="1" /><path clip-path="url(#clip210)" d="M331.545 1473.88 Q331.545 1466.81 340.654 1462.24 Q336.732 1459.58 336.022 1458.81 Q333.243 1455.72 333.243 1451.86 Q333.243 1447.45 336.578 1444.39 Q339.944 1441.3 344.699 1441.3 Q349.239 1441.3 352.666 1443.93 Q356.094 1446.55 356.094 1450.72 Q356.094 1456.59 348.436 1460.54 Q353.5 1463.69 354.704 1465.02 Q357.792 1468.44 357.792 1472.8 Q357.792 1477.86 353.901 1481.35 Q350.01 1484.81 344.638 1484.81 Q339.388 1484.81 335.466 1481.75 Q331.545 1478.7 331.545 1473.88 M334.694 1473.88 Q334.694 1477.8 337.628 1480.42 Q340.592 1483.05 344.699 1483.05 Q348.683 1483.05 351.647 1480.76 Q354.642 1478.48 354.642 1475.08 Q354.642 1473.75 354.179 1472.61 Q353.747 1471.47 352.851 1470.57 Q351.987 1469.65 351.431 1469.25 Q350.906 1468.81 349.887 1468.1 L342.105 1463.19 Q334.694 1467.3 334.694 1473.88 M336.022 1449.39 Q336.022 1452.42 339.203 1454.52 L347.046 1459.58 Q353.315 1455.91 353.315 1450.72 Q353.315 1447.35 350.752 1445.13 Q348.189 1442.88 344.638 1442.88 Q341.148 1442.88 338.585 1444.73 Q336.022 1446.55 336.022 1449.39 Z" fill="#000000" fill-rule="nonzero" fill-opacity="1" /><path clip-path="url(#clip210)" d="M888.725 1466.71 Q889.096 1467.08 889.096 1467.61 Q889.096 1468.13 888.725 1468.51 Q888.355 1468.88 887.83 1468.88 L848.242 1468.88 Q847.718 1468.88 847.347 1468.51 Q846.976 1468.13 846.976 1467.61 Q846.976 1467.08 847.347 1466.71 Q847.718 1466.34 848.242 1466.34 L887.83 1466.34 Q888.355 1466.34 888.725 1466.71 Z" fill="#000000" fill-rule="nonzero" fill-opacity="1" /><path clip-path="url(#clip210)" d="M895.272 1463.44 Q895.272 1453.5 900.336 1447.41 Q905.4 1441.3 911.915 1441.3 Q915.714 1441.3 917.813 1443.25 Q919.944 1445.16 919.944 1448.12 Q919.944 1449.76 918.987 1450.47 Q918.029 1451.18 917.041 1451.18 Q915.899 1451.18 915.003 1450.41 Q914.108 1449.64 914.108 1448.25 Q914.108 1445.41 917.597 1445.41 Q915.961 1442.88 912.039 1442.88 Q910.835 1442.88 909.599 1443.25 Q908.364 1443.59 906.759 1444.76 Q905.153 1445.93 903.918 1447.79 Q902.683 1449.64 901.818 1453.13 Q900.953 1456.62 900.953 1461.16 L900.953 1462.67 Q903.547 1456.4 908.858 1456.43 Q914.17 1456.43 917.844 1460.48 Q921.519 1464.52 921.519 1470.51 Q921.519 1476.66 917.69 1480.73 Q913.861 1484.81 908.488 1484.81 Q906.079 1484.81 903.887 1483.79 Q901.725 1482.8 899.687 1480.52 Q897.68 1478.23 896.476 1473.85 Q895.272 1469.46 895.272 1463.44 M901.077 1469.12 Q901.077 1475.33 902.219 1478.29 Q902.405 1478.79 902.806 1479.47 Q903.238 1480.15 903.949 1481.04 Q904.69 1481.91 905.894 1482.49 Q907.098 1483.05 908.488 1483.05 Q912.718 1483.05 914.756 1478.94 Q915.837 1476.66 915.837 1470.45 Q915.837 1464.12 914.695 1461.8 Q912.749 1457.88 908.797 1457.88 Q906.141 1457.88 904.288 1459.7 Q902.466 1461.53 901.756 1463.97 Q901.077 1466.41 901.077 1469.12 Z" fill="#000000" fill-rule="nonzero" fill-opacity="1" /><path clip-path="url(#clip210)" d="M1452 1466.71 Q1452.37 1467.08 1452.37 1467.61 Q1452.37 1468.13 1452 1468.51 Q1451.63 1468.88 1451.11 1468.88 L1411.52 1468.88 Q1411 1468.88 1410.63 1468.51 Q1410.26 1468.13 1410.26 1467.61 Q1410.26 1467.08 1410.63 1466.71 Q1411 1466.34 1411.52 1466.34 L1451.11 1466.34 Q1451.63 1466.34 1452 1466.71 Z" fill="#000000" fill-rule="nonzero" fill-opacity="1" /><path clip-path="url(#clip210)" d="M1457.66 1472.98 L1457.66 1471.04 L1477.08 1441.36 Q1477.57 1440.59 1478.34 1440.62 Q1479.05 1440.62 1479.21 1440.9 Q1479.36 1441.18 1479.36 1442.26 L1479.36 1471.04 L1485.69 1471.04 L1485.69 1472.98 L1479.36 1472.98 L1479.36 1478.48 Q1479.36 1480.3 1480.1 1480.89 Q1480.88 1481.47 1484.15 1481.47 L1485.48 1481.47 L1485.48 1483.42 Q1482.88 1483.23 1476.89 1483.23 Q1470.93 1483.23 1468.34 1483.42 L1468.34 1481.47 L1469.67 1481.47 Q1472.94 1481.47 1473.71 1480.92 Q1474.48 1480.33 1474.48 1478.48 L1474.48 1472.98 L1457.66 1472.98 M1459.45 1471.04 L1474.85 1471.04 L1474.85 1447.45 L1459.45 1471.04 Z" fill="#000000" fill-rule="nonzero" fill-opacity="1" /><path clip-path="url(#clip210)" d="M2016.43 1466.71 Q2016.8 1467.08 2016.8 1467.61 Q2016.8 1468.13 2016.43 1468.51 Q2016.06 1468.88 2015.53 1468.88 L1975.94 1468.88 Q1975.42 1468.88 1975.05 1468.51 Q1974.68 1468.13 1974.68 1467.61 Q1974.68 1467.08 1975.05 1466.71 Q1975.42 1466.34 1975.94 1466.34 L2015.53 1466.34 Q2016.06 1466.34 2016.43 1466.71 Z" fill="#000000" fill-rule="nonzero" fill-opacity="1" /><path clip-path="url(#clip210)" d="M2023.47 1483.42 Q2023.47 1482.28 2023.56 1481.94 Q2023.68 1481.6 2024.18 1481.07 L2036.31 1467.55 Q2042.95 1460.08 2042.95 1453.56 Q2042.95 1449.33 2040.73 1446.3 Q2038.54 1443.28 2034.49 1443.28 Q2031.71 1443.28 2029.36 1444.98 Q2027.02 1446.67 2025.94 1449.7 Q2026.12 1449.64 2026.77 1449.64 Q2028.35 1449.64 2029.21 1450.63 Q2030.11 1451.61 2030.11 1452.94 Q2030.11 1454.64 2028.99 1455.47 Q2027.91 1456.28 2026.83 1456.28 Q2026.4 1456.28 2025.81 1456.18 Q2025.26 1456.09 2024.36 1455.23 Q2023.47 1454.33 2023.47 1452.76 Q2023.47 1448.34 2026.8 1444.82 Q2030.17 1441.3 2035.29 1441.3 Q2041.1 1441.3 2044.9 1444.76 Q2048.73 1448.19 2048.73 1453.56 Q2048.73 1455.44 2048.14 1457.17 Q2047.58 1458.87 2046.81 1460.2 Q2046.07 1461.53 2044.03 1463.66 Q2041.99 1465.79 2040.36 1467.3 Q2038.72 1468.81 2035.05 1472.03 L2028.35 1478.54 L2039.74 1478.54 Q2045.3 1478.54 2045.73 1478.05 Q2046.35 1477.15 2047.12 1472.43 L2048.73 1472.43 L2046.93 1483.42 L2023.47 1483.42 Z" fill="#000000" fill-rule="nonzero" fill-opacity="1" /><path clip-path="url(#clip210)" d="M1332.57 1517.34 Q1332.57 1518.78 1331.38 1518.78 Q1329.27 1518.85 1327.83 1519.27 Q1326.39 1519.66 1325.55 1520.43 Q1324.74 1521.21 1324.28 1522.05 Q1323.86 1522.86 1323.58 1524.09 L1317.19 1549.63 Q1315.36 1556.83 1309.46 1562.07 Q1303.55 1567.27 1296.84 1567.27 Q1293.01 1567.27 1289.82 1565.69 Q1286.65 1564.11 1284.69 1560.91 Q1282.72 1557.71 1282.72 1553.46 Q1282.72 1551.42 1283.25 1549.28 L1287.6 1531.5 L1289.22 1525.18 Q1290.41 1520.5 1290.41 1520.08 Q1290.41 1519.42 1289.99 1519.24 Q1289.61 1519.03 1288.48 1518.92 L1285.74 1518.78 Q1284.9 1518.78 1284.55 1518.75 Q1284.23 1518.71 1283.98 1518.54 Q1283.74 1518.36 1283.74 1517.97 Q1283.74 1517.48 1283.84 1517.17 Q1283.98 1516.82 1284.23 1516.71 Q1284.48 1516.6 1284.65 1516.57 Q1284.83 1516.53 1285.11 1516.53 L1294.38 1516.75 L1303.59 1516.53 Q1304.61 1516.53 1304.61 1517.34 Q1304.61 1518.36 1304.15 1518.57 Q1303.69 1518.78 1302.15 1518.78 Q1299.51 1518.78 1298.32 1519.13 Q1297.16 1519.45 1296.81 1520.01 Q1296.49 1520.54 1296.11 1522.09 L1289.11 1550.09 Q1288.76 1551.49 1288.55 1552.9 Q1288.38 1554.27 1288.38 1554.97 L1288.34 1555.67 Q1288.34 1560.14 1290.8 1562.59 Q1293.29 1565.05 1297.12 1565.05 Q1302.75 1565.05 1307.98 1560.59 Q1313.25 1556.13 1315.04 1549.14 L1321.51 1523.46 Q1321.72 1522.82 1321.72 1521.94 Q1321.72 1520.54 1320.66 1519.7 Q1319.64 1518.82 1316.83 1518.78 Q1315.53 1518.78 1315.53 1517.97 Q1315.53 1517.31 1315.78 1516.99 Q1316.06 1516.64 1316.27 1516.6 Q1316.52 1516.53 1316.83 1516.53 Q1318.03 1516.53 1320.56 1516.64 Q1323.09 1516.75 1324.32 1516.75 Q1325.55 1516.75 1328.01 1516.64 Q1330.47 1516.53 1331.66 1516.53 Q1332.08 1516.53 1332.29 1516.75 Q1332.54 1516.92 1332.57 1517.13 L1332.57 1517.34 Z" fill="#000000" fill-rule="nonzero" fill-opacity="1" /><polyline clip-path="url(#clip210)" style="stroke:#000000; stroke-linecap:round; stroke-linejoin:round; stroke-width:4; stroke-opacity:1; fill:none" points="261.33,1410.22 261.33,47.2441 "/>
<polyline clip-path="url(#clip210)" style="stroke:#000000; stroke-linecap:round; stroke-linejoin:round; stroke-width:4; stroke-opacity:1; fill:none" points="2352.76,1410.22 2352.76,47.2441 "/>
<polyline clip-path="url(#clip210)" style="stroke:#000000; stroke-linecap:round; stroke-linejoin:round; stroke-width:4; stroke-opacity:1; fill:none" points="261.33,1327.71 280.227,1327.71 "/>
<polyline clip-path="url(#clip210)" style="stroke:#000000; stroke-linecap:round; stroke-linejoin:round; stroke-width:4; stroke-opacity:1; fill:none" points="261.33,1066.51 280.227,1066.51 "/>
<polyline clip-path="url(#clip210)" style="stroke:#000000; stroke-linecap:round; stroke-linejoin:round; stroke-width:4; stroke-opacity:1; fill:none" points="261.33,805.303 280.227,805.303 "/>
<polyline clip-path="url(#clip210)" style="stroke:#000000; stroke-linecap:round; stroke-linejoin:round; stroke-width:4; stroke-opacity:1; fill:none" points="261.33,544.099 280.227,544.099 "/>
<polyline clip-path="url(#clip210)" style="stroke:#000000; stroke-linecap:round; stroke-linejoin:round; stroke-width:4; stroke-opacity:1; fill:none" points="261.33,282.894 280.227,282.894 "/>
<path clip-path="url(#clip210)" d="M121.05 1313.21 L121.05 1311.24 Q128.647 1311.24 132.568 1307.19 Q133.649 1307.19 133.834 1307.44 Q134.02 1307.69 134.02 1308.83 L134.02 1344.31 Q134.02 1346.19 134.946 1346.78 Q135.873 1347.37 139.918 1347.37 L141.925 1347.37 L141.925 1349.31 Q139.702 1349.13 131.673 1349.13 Q123.644 1349.13 121.452 1349.31 L121.452 1347.37 L123.459 1347.37 Q127.442 1347.37 128.4 1346.81 Q129.357 1346.22 129.357 1344.31 L129.357 1311.55 Q126.053 1313.21 121.05 1313.21 Z" fill="#000000" fill-rule="nonzero" fill-opacity="1" /><path clip-path="url(#clip210)" d="M153.381 1348.29 Q152.424 1347.27 152.424 1345.95 Q152.424 1344.62 153.381 1343.66 Q154.338 1342.67 155.79 1342.67 Q157.179 1342.67 158.106 1343.6 Q159.063 1344.5 159.063 1345.98 Q159.063 1347.43 158.044 1348.39 Q157.056 1349.31 155.79 1349.31 Q154.338 1349.31 153.381 1348.29 Z" fill="#000000" fill-rule="nonzero" fill-opacity="1" /><path clip-path="url(#clip210)" d="M167.091 1329.09 Q167.091 1319.79 169.438 1314.73 Q172.711 1307.19 180.431 1307.19 Q182.068 1307.19 183.766 1307.66 Q185.495 1308.09 187.657 1309.79 Q189.849 1311.49 191.177 1314.26 Q193.709 1319.64 193.709 1329.09 Q193.709 1338.32 191.362 1343.35 Q187.935 1350.7 180.369 1350.7 Q177.529 1350.7 174.626 1349.25 Q171.754 1347.8 169.932 1344.31 Q167.091 1339.09 167.091 1329.09 M172.341 1328.31 Q172.341 1337.86 173.02 1341.65 Q173.792 1345.76 175.892 1347.55 Q178.023 1349.31 180.369 1349.31 Q182.902 1349.31 185.001 1347.43 Q187.132 1345.51 187.78 1341.41 Q188.491 1337.36 188.46 1328.31 Q188.46 1319.51 187.842 1315.99 Q187.008 1311.89 184.785 1310.25 Q182.593 1308.58 180.369 1308.58 Q179.536 1308.58 178.64 1308.83 Q177.776 1309.08 176.51 1309.79 Q175.243 1310.5 174.255 1312.26 Q173.298 1314.02 172.835 1316.67 Q172.341 1320.1 172.341 1328.31 Z" fill="#000000" fill-rule="nonzero" fill-opacity="1" /><path clip-path="url(#clip210)" d="M198.712 1329.09 Q198.712 1319.79 201.058 1314.73 Q204.332 1307.19 212.051 1307.19 Q213.688 1307.19 215.386 1307.66 Q217.116 1308.09 219.277 1309.79 Q221.47 1311.49 222.797 1314.26 Q225.33 1319.64 225.33 1329.09 Q225.33 1338.32 222.983 1343.35 Q219.555 1350.7 211.99 1350.7 Q209.149 1350.7 206.246 1349.25 Q203.374 1347.8 201.553 1344.31 Q198.712 1339.09 198.712 1329.09 M203.961 1328.31 Q203.961 1337.86 204.64 1341.65 Q205.412 1345.76 207.512 1347.55 Q209.643 1349.31 211.99 1349.31 Q214.522 1349.31 216.622 1347.43 Q218.752 1345.51 219.401 1341.41 Q220.111 1337.36 220.08 1328.31 Q220.08 1319.51 219.463 1315.99 Q218.629 1311.89 216.405 1310.25 Q214.213 1308.58 211.99 1308.58 Q211.156 1308.58 210.261 1308.83 Q209.396 1309.08 208.13 1309.79 Q206.864 1310.5 205.876 1312.26 Q204.918 1314.02 204.455 1316.67 Q203.961 1320.1 203.961 1328.31 Z" fill="#000000" fill-rule="nonzero" fill-opacity="1" /><path clip-path="url(#clip210)" d="M121.73 1052.01 L121.73 1050.03 Q129.326 1050.03 133.248 1045.99 Q134.329 1045.99 134.514 1046.24 Q134.699 1046.48 134.699 1047.63 L134.699 1083.11 Q134.699 1084.99 135.625 1085.58 Q136.552 1086.16 140.597 1086.16 L142.604 1086.16 L142.604 1088.11 Q140.381 1087.92 132.352 1087.92 Q124.324 1087.92 122.131 1088.11 L122.131 1086.16 L124.138 1086.16 Q128.122 1086.16 129.079 1085.61 Q130.036 1085.02 130.036 1083.11 L130.036 1050.34 Q126.732 1052.01 121.73 1052.01 Z" fill="#000000" fill-rule="nonzero" fill-opacity="1" /><path clip-path="url(#clip210)" d="M154.06 1087.09 Q153.103 1086.07 153.103 1084.74 Q153.103 1083.41 154.06 1082.46 Q155.018 1081.47 156.469 1081.47 Q157.858 1081.47 158.785 1082.4 Q159.742 1083.29 159.742 1084.77 Q159.742 1086.22 158.723 1087.18 Q157.735 1088.11 156.469 1088.11 Q155.018 1088.11 154.06 1087.09 Z" fill="#000000" fill-rule="nonzero" fill-opacity="1" /><path clip-path="url(#clip210)" d="M168.45 1088.11 Q168.45 1086.97 168.543 1086.63 Q168.666 1086.29 169.16 1085.76 L181.296 1072.24 Q187.935 1064.76 187.935 1058.25 Q187.935 1054.02 185.712 1050.99 Q183.519 1047.96 179.474 1047.96 Q176.695 1047.96 174.348 1049.66 Q172.001 1051.36 170.92 1054.39 Q171.106 1054.33 171.754 1054.33 Q173.329 1054.33 174.194 1055.31 Q175.089 1056.3 175.089 1057.63 Q175.089 1059.33 173.977 1060.16 Q172.897 1060.97 171.816 1060.97 Q171.384 1060.97 170.797 1060.87 Q170.241 1060.78 169.346 1059.92 Q168.45 1059.02 168.45 1057.44 Q168.45 1053.03 171.785 1049.51 Q175.151 1045.99 180.277 1045.99 Q186.082 1045.99 189.88 1049.45 Q193.709 1052.87 193.709 1058.25 Q193.709 1060.13 193.123 1061.86 Q192.567 1063.56 191.795 1064.89 Q191.054 1066.21 189.016 1068.35 Q186.978 1070.48 185.341 1071.99 Q183.704 1073.5 180.03 1076.71 L173.329 1083.23 L184.723 1083.23 Q190.282 1083.23 190.714 1082.73 Q191.332 1081.84 192.104 1077.11 L193.709 1077.11 L191.918 1088.11 L168.45 1088.11 Z" fill="#000000" fill-rule="nonzero" fill-opacity="1" /><path clip-path="url(#clip210)" d="M200.07 1077.92 Q200.07 1076.03 201.089 1075.32 Q202.108 1074.58 203.189 1074.58 Q204.64 1074.58 205.474 1075.51 Q206.339 1076.4 206.339 1077.67 Q206.339 1078.94 205.474 1079.86 Q204.64 1080.76 203.189 1080.76 Q202.479 1080.76 202.108 1080.64 Q202.942 1083.54 205.474 1085.64 Q208.037 1087.74 211.403 1087.74 Q215.633 1087.74 218.166 1083.63 Q219.679 1080.97 219.679 1074.95 Q219.679 1069.64 218.536 1066.99 Q216.776 1062.94 213.163 1062.94 Q208.037 1062.94 205.011 1067.36 Q204.64 1067.91 204.208 1067.94 Q203.591 1067.94 203.436 1067.6 Q203.313 1067.23 203.313 1066.28 L203.313 1047.56 Q203.313 1046.05 203.93 1046.05 Q204.177 1046.05 204.702 1046.24 Q208.686 1048 213.101 1048.03 Q217.641 1048.03 221.717 1046.17 Q222.025 1045.99 222.211 1045.99 Q222.828 1045.99 222.859 1046.7 Q222.859 1046.95 222.334 1047.69 Q221.84 1048.4 220.759 1049.35 Q219.679 1050.28 218.289 1051.18 Q216.9 1052.07 214.862 1052.69 Q212.854 1053.28 210.631 1053.28 Q207.975 1053.28 205.258 1052.44 L205.258 1064.76 Q208.531 1061.55 213.287 1061.55 Q218.351 1061.55 221.84 1065.63 Q225.33 1069.7 225.33 1075.39 Q225.33 1081.35 221.192 1085.42 Q217.085 1089.5 211.527 1089.5 Q206.462 1089.5 203.251 1085.88 Q200.07 1082.27 200.07 1077.92 Z" fill="#000000" fill-rule="nonzero" fill-opacity="1" /><path clip-path="url(#clip210)" d="M121.05 790.805 L121.05 788.829 Q128.647 788.829 132.568 784.784 Q133.649 784.784 133.834 785.031 Q134.02 785.278 134.02 786.421 L134.02 821.901 Q134.02 823.784 134.946 824.371 Q135.873 824.958 139.918 824.958 L141.925 824.958 L141.925 826.903 Q139.702 826.718 131.673 826.718 Q123.644 826.718 121.452 826.903 L121.452 824.958 L123.459 824.958 Q127.442 824.958 128.4 824.402 Q129.357 823.815 129.357 821.901 L129.357 789.138 Q126.053 790.805 121.05 790.805 Z" fill="#000000" fill-rule="nonzero" fill-opacity="1" /><path clip-path="url(#clip210)" d="M153.381 825.884 Q152.424 824.865 152.424 823.537 Q152.424 822.21 153.381 821.252 Q154.338 820.264 155.79 820.264 Q157.179 820.264 158.106 821.191 Q159.063 822.086 159.063 823.568 Q159.063 825.02 158.044 825.977 Q157.056 826.903 155.79 826.903 Q154.338 826.903 153.381 825.884 Z" fill="#000000" fill-rule="nonzero" fill-opacity="1" /><path clip-path="url(#clip210)" d="M167.771 816.713 Q167.771 814.829 168.79 814.119 Q169.809 813.378 170.89 813.378 Q172.341 813.378 173.175 814.305 Q174.039 815.2 174.039 816.466 Q174.039 817.732 173.175 818.658 Q172.341 819.554 170.89 819.554 Q170.179 819.554 169.809 819.43 Q170.642 822.333 173.175 824.433 Q175.738 826.533 179.103 826.533 Q183.334 826.533 185.866 822.426 Q187.379 819.77 187.379 813.749 Q187.379 808.437 186.236 805.782 Q184.476 801.737 180.864 801.737 Q175.738 801.737 172.711 806.152 Q172.341 806.708 171.909 806.739 Q171.291 806.739 171.137 806.399 Q171.013 806.029 171.013 805.072 L171.013 786.359 Q171.013 784.846 171.631 784.846 Q171.878 784.846 172.403 785.031 Q176.386 786.791 180.802 786.822 Q185.341 786.822 189.417 784.969 Q189.726 784.784 189.911 784.784 Q190.529 784.784 190.56 785.494 Q190.56 785.741 190.035 786.482 Q189.541 787.193 188.46 788.15 Q187.379 789.076 185.989 789.972 Q184.6 790.867 182.562 791.485 Q180.555 792.071 178.331 792.071 Q175.676 792.071 172.958 791.238 L172.958 803.559 Q176.232 800.347 180.987 800.347 Q186.051 800.347 189.541 804.423 Q193.03 808.499 193.03 814.181 Q193.03 820.141 188.892 824.217 Q184.785 828.293 179.227 828.293 Q174.163 828.293 170.951 824.68 Q167.771 821.067 167.771 816.713 Z" fill="#000000" fill-rule="nonzero" fill-opacity="1" /><path clip-path="url(#clip210)" d="M198.712 806.677 Q198.712 797.383 201.058 792.319 Q204.332 784.784 212.051 784.784 Q213.688 784.784 215.386 785.247 Q217.116 785.679 219.277 787.378 Q221.47 789.076 222.797 791.855 Q225.33 797.228 225.33 806.677 Q225.33 815.91 222.983 820.944 Q219.555 828.293 211.99 828.293 Q209.149 828.293 206.246 826.841 Q203.374 825.39 201.553 821.901 Q198.712 816.682 198.712 806.677 M203.961 805.905 Q203.961 815.447 204.64 819.245 Q205.412 823.352 207.512 825.143 Q209.643 826.903 211.99 826.903 Q214.522 826.903 216.622 825.02 Q218.752 823.105 219.401 818.998 Q220.111 814.953 220.08 805.905 Q220.08 797.105 219.463 793.585 Q218.629 789.478 216.405 787.841 Q214.213 786.174 211.99 786.174 Q211.156 786.174 210.261 786.421 Q209.396 786.668 208.13 787.378 Q206.864 788.088 205.876 789.848 Q204.918 791.608 204.455 794.264 Q203.961 797.691 203.961 805.905 Z" fill="#000000" fill-rule="nonzero" fill-opacity="1" /><path clip-path="url(#clip210)" d="M121.73 529.601 L121.73 527.624 Q129.326 527.624 133.248 523.579 Q134.329 523.579 134.514 523.826 Q134.699 524.073 134.699 525.216 L134.699 560.696 Q134.699 562.58 135.625 563.166 Q136.552 563.753 140.597 563.753 L142.604 563.753 L142.604 565.699 Q140.381 565.513 132.352 565.513 Q124.324 565.513 122.131 565.699 L122.131 563.753 L124.138 563.753 Q128.122 563.753 129.079 563.197 Q130.036 562.611 130.036 560.696 L130.036 527.933 Q126.732 529.601 121.73 529.601 Z" fill="#000000" fill-rule="nonzero" fill-opacity="1" /><path clip-path="url(#clip210)" d="M154.06 564.68 Q153.103 563.66 153.103 562.333 Q153.103 561.005 154.06 560.048 Q155.018 559.059 156.469 559.059 Q157.858 559.059 158.785 559.986 Q159.742 560.881 159.742 562.364 Q159.742 563.815 158.723 564.772 Q157.735 565.699 156.469 565.699 Q155.018 565.699 154.06 564.68 Z" fill="#000000" fill-rule="nonzero" fill-opacity="1" /><path clip-path="url(#clip210)" d="M168.851 535.962 L170.92 522.962 L172.495 522.962 Q172.681 523.734 172.989 524.073 Q173.329 524.413 175.12 524.691 Q176.942 524.969 180.616 524.969 L195.963 524.969 Q195.963 526.42 195.408 527.192 L186.854 539.204 Q184.137 543.002 182.932 550.012 Q182.222 554.706 182.253 560.387 L182.253 563.599 Q182.253 567.088 179.32 567.088 Q176.417 567.088 176.417 563.599 Q176.417 551.525 184.198 539.822 Q185.032 538.617 188.089 534.325 Q191.177 530.033 191.301 529.848 L178.208 529.848 Q172.464 529.848 172.001 530.218 Q171.384 530.774 170.426 535.962 L168.851 535.962 Z" fill="#000000" fill-rule="nonzero" fill-opacity="1" /><path clip-path="url(#clip210)" d="M200.07 555.508 Q200.07 553.625 201.089 552.915 Q202.108 552.173 203.189 552.173 Q204.64 552.173 205.474 553.1 Q206.339 553.995 206.339 555.261 Q206.339 556.527 205.474 557.454 Q204.64 558.349 203.189 558.349 Q202.479 558.349 202.108 558.226 Q202.942 561.128 205.474 563.228 Q208.037 565.328 211.403 565.328 Q215.633 565.328 218.166 561.221 Q219.679 558.565 219.679 552.544 Q219.679 547.233 218.536 544.577 Q216.776 540.532 213.163 540.532 Q208.037 540.532 205.011 544.948 Q204.64 545.504 204.208 545.534 Q203.591 545.534 203.436 545.195 Q203.313 544.824 203.313 543.867 L203.313 525.154 Q203.313 523.641 203.93 523.641 Q204.177 523.641 204.702 523.826 Q208.686 525.586 213.101 525.617 Q217.641 525.617 221.717 523.765 Q222.025 523.579 222.211 523.579 Q222.828 523.579 222.859 524.29 Q222.859 524.537 222.334 525.278 Q221.84 525.988 220.759 526.945 Q219.679 527.871 218.289 528.767 Q216.9 529.662 214.862 530.28 Q212.854 530.867 210.631 530.867 Q207.975 530.867 205.258 530.033 L205.258 542.354 Q208.531 539.142 213.287 539.142 Q218.351 539.142 221.84 543.218 Q225.33 547.295 225.33 552.976 Q225.33 558.936 221.192 563.012 Q217.085 567.088 211.527 567.088 Q206.462 567.088 203.251 563.475 Q200.07 559.862 200.07 555.508 Z" fill="#000000" fill-rule="nonzero" fill-opacity="1" /><path clip-path="url(#clip210)" d="M118.58 304.494 Q118.58 303.351 118.673 303.012 Q118.796 302.672 119.29 302.147 L131.426 288.622 Q138.065 281.149 138.065 274.634 Q138.065 270.403 135.842 267.377 Q133.649 264.351 129.604 264.351 Q126.825 264.351 124.478 266.049 Q122.131 267.748 121.05 270.774 Q121.236 270.712 121.884 270.712 Q123.459 270.712 124.324 271.7 Q125.219 272.688 125.219 274.016 Q125.219 275.714 124.108 276.548 Q123.027 277.351 121.946 277.351 Q121.514 277.351 120.927 277.258 Q120.371 277.166 119.476 276.301 Q118.58 275.406 118.58 273.831 Q118.58 269.415 121.915 265.895 Q125.281 262.375 130.407 262.375 Q136.212 262.375 140.01 265.833 Q143.839 269.261 143.839 274.634 Q143.839 276.517 143.253 278.246 Q142.697 279.945 141.925 281.273 Q141.184 282.6 139.146 284.731 Q137.108 286.862 135.471 288.375 Q133.834 289.888 130.16 293.099 L123.459 299.615 L134.853 299.615 Q140.412 299.615 140.844 299.121 Q141.462 298.225 142.234 293.501 L143.839 293.501 L142.048 304.494 L118.58 304.494 Z" fill="#000000" fill-rule="nonzero" fill-opacity="1" /><path clip-path="url(#clip210)" d="M153.381 303.475 Q152.424 302.456 152.424 301.128 Q152.424 299.8 153.381 298.843 Q154.338 297.855 155.79 297.855 Q157.179 297.855 158.106 298.781 Q159.063 299.677 159.063 301.159 Q159.063 302.61 158.044 303.567 Q157.056 304.494 155.79 304.494 Q154.338 304.494 153.381 303.475 Z" fill="#000000" fill-rule="nonzero" fill-opacity="1" /><path clip-path="url(#clip210)" d="M167.091 284.268 Q167.091 274.973 169.438 269.909 Q172.711 262.375 180.431 262.375 Q182.068 262.375 183.766 262.838 Q185.495 263.27 187.657 264.968 Q189.849 266.667 191.177 269.446 Q193.709 274.819 193.709 284.268 Q193.709 293.501 191.362 298.534 Q187.935 305.883 180.369 305.883 Q177.529 305.883 174.626 304.432 Q171.754 302.981 169.932 299.491 Q167.091 294.273 167.091 284.268 M172.341 283.496 Q172.341 293.038 173.02 296.836 Q173.792 300.943 175.892 302.734 Q178.023 304.494 180.369 304.494 Q182.902 304.494 185.001 302.61 Q187.132 300.696 187.78 296.589 Q188.491 292.544 188.46 283.496 Q188.46 274.695 187.842 271.175 Q187.008 267.068 184.785 265.432 Q182.593 263.764 180.369 263.764 Q179.536 263.764 178.64 264.011 Q177.776 264.258 176.51 264.968 Q175.243 265.679 174.255 267.439 Q173.298 269.199 172.835 271.854 Q172.341 275.282 172.341 283.496 Z" fill="#000000" fill-rule="nonzero" fill-opacity="1" /><path clip-path="url(#clip210)" d="M198.712 284.268 Q198.712 274.973 201.058 269.909 Q204.332 262.375 212.051 262.375 Q213.688 262.375 215.386 262.838 Q217.116 263.27 219.277 264.968 Q221.47 266.667 222.797 269.446 Q225.33 274.819 225.33 284.268 Q225.33 293.501 222.983 298.534 Q219.555 305.883 211.99 305.883 Q209.149 305.883 206.246 304.432 Q203.374 302.981 201.553 299.491 Q198.712 294.273 198.712 284.268 M203.961 283.496 Q203.961 293.038 204.64 296.836 Q205.412 300.943 207.512 302.734 Q209.643 304.494 211.99 304.494 Q214.522 304.494 216.622 302.61 Q218.752 300.696 219.401 296.589 Q220.111 292.544 220.08 283.496 Q220.08 274.695 219.463 271.175 Q218.629 267.068 216.405 265.432 Q214.213 263.764 211.99 263.764 Q211.156 263.764 210.261 264.011 Q209.396 264.258 208.13 264.968 Q206.864 265.679 205.876 267.439 Q204.918 269.199 204.455 271.854 Q203.961 275.282 203.961 283.496 Z" fill="#000000" fill-rule="nonzero" fill-opacity="1" /><path clip-path="url(#clip210)" d="M17.5075 718.305 Q18.5264 718.305 18.7372 718.762 Q18.948 719.184 18.948 720.729 Q18.948 723.364 19.2994 724.559 Q19.6156 725.718 20.1777 726.07 Q20.7047 726.386 22.2506 726.772 L61.1084 736.504 Q61.1436 736.504 61.6354 736.61 Q62.0922 736.715 62.3381 736.715 Q62.7948 736.715 63.0759 736.434 Q63.357 736.118 63.4975 735.345 Q63.6029 734.572 63.638 733.975 Q63.638 733.342 63.638 732.042 Q63.638 730.426 63.9191 730.18 Q64.0948 730.04 64.411 730.04 Q65.0785 730.04 65.4299 730.321 Q65.7461 730.567 65.8163 730.813 Q65.8515 731.024 65.8515 731.445 Q65.8515 732.183 65.7812 733.764 Q65.7109 735.345 65.7109 736.153 L65.6407 740.756 L65.8515 749.89 Q65.8515 750.874 65.0434 750.874 Q64.3407 750.874 64.0245 750.628 Q63.7083 750.382 63.6732 750.136 Q63.638 749.855 63.638 749.153 Q63.638 745.534 63.2867 744.339 Q62.9002 743.11 61.249 742.618 L41.3984 737.664 L41.3984 759.587 L61.1084 764.506 Q61.1436 764.506 61.6354 764.611 Q62.0922 764.717 62.3381 764.717 Q62.7948 764.717 63.0759 764.436 Q63.357 764.12 63.4975 763.347 Q63.6029 762.574 63.638 761.976 Q63.638 761.344 63.638 760.044 Q63.638 758.428 63.9191 758.147 Q64.0948 758.006 64.411 758.006 Q64.9029 758.006 65.2542 758.147 Q65.5704 758.252 65.6758 758.533 Q65.7812 758.779 65.8163 758.955 Q65.8515 759.131 65.8515 759.447 Q65.8515 760.185 65.7812 761.766 Q65.7109 763.311 65.7109 764.12 L65.6407 768.722 L65.8515 777.857 Q65.8515 778.876 65.0434 778.876 Q64.3407 778.876 64.0597 778.63 Q63.7434 778.384 63.7083 778.068 Q63.638 777.751 63.638 776.943 Q63.638 775.187 63.5326 774.133 Q63.4272 773.079 63.2867 772.411 Q63.111 771.708 62.6192 771.357 Q62.1273 770.971 61.7057 770.795 Q61.249 770.619 60.2301 770.373 L21.583 760.747 Q20.4236 760.466 20.248 760.466 Q19.5804 760.466 19.4048 760.887 Q19.194 761.274 19.0886 762.398 L18.948 765.138 Q18.948 765.982 18.9129 766.333 Q18.8778 766.649 18.7021 766.895 Q18.5264 767.141 18.14 767.141 Q17.6481 767.141 17.3319 767.036 Q16.9805 766.895 16.8751 766.649 Q16.7697 766.403 16.7346 766.228 Q16.6995 766.052 16.6995 765.771 L16.9103 756.495 L16.6995 747.29 Q16.6995 746.272 17.5075 746.272 Q18.5264 746.272 18.7372 746.728 Q18.948 747.185 18.948 748.731 Q18.948 751.296 19.2994 752.49 Q19.6156 753.685 20.1777 754.071 Q20.7398 754.423 22.2506 754.774 L39.1499 759.025 L39.1499 737.067 L21.583 732.745 Q20.3182 732.464 20.248 732.464 Q19.5804 732.464 19.4048 732.886 Q19.194 733.272 19.0886 734.396 L18.948 737.137 Q18.948 737.98 18.9129 738.331 Q18.8778 738.648 18.7021 738.929 Q18.5264 739.175 18.14 739.175 Q17.6481 739.175 17.3319 739.069 Q16.9805 738.929 16.8751 738.683 Q16.7697 738.437 16.7346 738.261 Q16.6995 738.085 16.6995 737.804 L16.9103 728.529 L16.6995 719.289 Q16.6995 718.305 17.5075 718.305 Z" fill="#000000" fill-rule="nonzero" fill-opacity="1" /><path clip-path="url(#clip210)" d="M57.0385 711.211 L55.4645 711.211 Q55.4645 705.161 52.2427 702.038 Q52.2427 701.177 52.4395 701.03 Q52.6362 700.882 53.5462 700.882 L81.8042 700.882 Q83.3044 700.882 83.7717 700.144 Q84.239 699.406 84.239 696.185 L84.239 694.586 L85.7883 694.586 Q85.6408 696.357 85.6408 702.751 Q85.6408 709.145 85.7883 710.892 L84.239 710.892 L84.239 709.293 Q84.239 706.12 83.7963 705.358 Q83.329 704.596 81.8042 704.596 L55.7104 704.596 Q57.0385 707.227 57.0385 711.211 Z" fill="#000000" fill-rule="nonzero" fill-opacity="1" /><polyline clip-path="url(#clip212)" style="stroke:#009af9; stroke-linecap:round; stroke-linejoin:round; stroke-width:4; stroke-opacity:1; fill:none" points="2293.56,222.508 2011.7,316.093 1729.84,487.465 1447.97,649.615 1166.11,803.554 884.248,984.769 602.384,1310.28 320.521,1174.92 "/>
<path clip-path="url(#clip212)" d="M2277.56 206.508 L2277.56 238.508 L2309.56 238.508 L2309.56 206.508 L2277.56 206.508 Z" fill="#009af9" fill-rule="evenodd" fill-opacity="1" stroke="#000000" stroke-opacity="1" stroke-width="3.2"/>
<path clip-path="url(#clip212)" d="M1995.7 300.093 L1995.7 332.093 L2027.7 332.093 L2027.7 300.093 L1995.7 300.093 Z" fill="#009af9" fill-rule="evenodd" fill-opacity="1" stroke="#000000" stroke-opacity="1" stroke-width="3.2"/>
<path clip-path="url(#clip212)" d="M1713.84 471.465 L1713.84 503.465 L1745.84 503.465 L1745.84 471.465 L1713.84 471.465 Z" fill="#009af9" fill-rule="evenodd" fill-opacity="1" stroke="#000000" stroke-opacity="1" stroke-width="3.2"/>
<path clip-path="url(#clip212)" d="M1431.97 633.615 L1431.97 665.615 L1463.97 665.615 L1463.97 633.615 L1431.97 633.615 Z" fill="#009af9" fill-rule="evenodd" fill-opacity="1" stroke="#000000" stroke-opacity="1" stroke-width="3.2"/>
<path clip-path="url(#clip212)" d="M1150.11 787.554 L1150.11 819.554 L1182.11 819.554 L1182.11 787.554 L1150.11 787.554 Z" fill="#009af9" fill-rule="evenodd" fill-opacity="1" stroke="#000000" stroke-opacity="1" stroke-width="3.2"/>
<path clip-path="url(#clip212)" d="M868.248 968.769 L868.248 1000.77 L900.248 1000.77 L900.248 968.769 L868.248 968.769 Z" fill="#009af9" fill-rule="evenodd" fill-opacity="1" stroke="#000000" stroke-opacity="1" stroke-width="3.2"/>
<path clip-path="url(#clip212)" d="M586.384 1294.28 L586.384 1326.28 L618.384 1326.28 L618.384 1294.28 L586.384 1294.28 Z" fill="#009af9" fill-rule="evenodd" fill-opacity="1" stroke="#000000" stroke-opacity="1" stroke-width="3.2"/>
<path clip-path="url(#clip212)" d="M304.521 1158.92 L304.521 1190.92 L336.521 1190.92 L336.521 1158.92 L304.521 1158.92 Z" fill="#009af9" fill-rule="evenodd" fill-opacity="1" stroke="#000000" stroke-opacity="1" stroke-width="3.2"/>
<polyline clip-path="url(#clip212)" style="stroke:#000000; stroke-linecap:round; stroke-linejoin:round; stroke-width:4; stroke-opacity:1; fill:none" points="2293.56,225.037 2293.56,219.978 "/>
<polyline clip-path="url(#clip212)" style="stroke:#000000; stroke-linecap:round; stroke-linejoin:round; stroke-width:4; stroke-opacity:1; fill:none" points="2011.7,321.87 2011.7,310.317 "/>
<polyline clip-path="url(#clip212)" style="stroke:#000000; stroke-linecap:round; stroke-linejoin:round; stroke-width:4; stroke-opacity:1; fill:none" points="1729.84,497.783 1729.84,477.147 "/>
<polyline clip-path="url(#clip212)" style="stroke:#000000; stroke-linecap:round; stroke-linejoin:round; stroke-width:4; stroke-opacity:1; fill:none" points="1447.97,670.433 1447.97,628.797 "/>
<polyline clip-path="url(#clip212)" style="stroke:#000000; stroke-linecap:round; stroke-linejoin:round; stroke-width:4; stroke-opacity:1; fill:none" points="1166.11,835.907 1166.11,771.2 "/>
<polyline clip-path="url(#clip212)" style="stroke:#000000; stroke-linecap:round; stroke-linejoin:round; stroke-width:4; stroke-opacity:1; fill:none" points="884.248,1033.76 884.248,935.78 "/>
<polyline clip-path="url(#clip212)" style="stroke:#000000; stroke-linecap:round; stroke-linejoin:round; stroke-width:4; stroke-opacity:1; fill:none" points="602.384,1371.65 602.384,1248.91 "/>
<polyline clip-path="url(#clip212)" style="stroke:#000000; stroke-linecap:round; stroke-linejoin:round; stroke-width:4; stroke-opacity:1; fill:none" points="320.521,1246.2 320.521,1103.64 "/>
<line clip-path="url(#clip212)" x1="2309.56" y1="225.037" x2="2277.56" y2="225.037" style="stroke:#000000; stroke-width:4; stroke-opacity:1"/>
<line clip-path="url(#clip212)" x1="2309.56" y1="219.978" x2="2277.56" y2="219.978" style="stroke:#000000; stroke-width:4; stroke-opacity:1"/>
<line clip-path="url(#clip212)" x1="2027.7" y1="321.87" x2="1995.7" y2="321.87" style="stroke:#000000; stroke-width:4; stroke-opacity:1"/>
<line clip-path="url(#clip212)" x1="2027.7" y1="310.317" x2="1995.7" y2="310.317" style="stroke:#000000; stroke-width:4; stroke-opacity:1"/>
<line clip-path="url(#clip212)" x1="1745.84" y1="497.783" x2="1713.84" y2="497.783" style="stroke:#000000; stroke-width:4; stroke-opacity:1"/>
<line clip-path="url(#clip212)" x1="1745.84" y1="477.147" x2="1713.84" y2="477.147" style="stroke:#000000; stroke-width:4; stroke-opacity:1"/>
<line clip-path="url(#clip212)" x1="1463.97" y1="670.433" x2="1431.97" y2="670.433" style="stroke:#000000; stroke-width:4; stroke-opacity:1"/>
<line clip-path="url(#clip212)" x1="1463.97" y1="628.797" x2="1431.97" y2="628.797" style="stroke:#000000; stroke-width:4; stroke-opacity:1"/>
<line clip-path="url(#clip212)" x1="1182.11" y1="835.907" x2="1150.11" y2="835.907" style="stroke:#000000; stroke-width:4; stroke-opacity:1"/>
<line clip-path="url(#clip212)" x1="1182.11" y1="771.2" x2="1150.11" y2="771.2" style="stroke:#000000; stroke-width:4; stroke-opacity:1"/>
<line clip-path="url(#clip212)" x1="900.248" y1="1033.76" x2="868.248" y2="1033.76" style="stroke:#000000; stroke-width:4; stroke-opacity:1"/>
<line clip-path="url(#clip212)" x1="900.248" y1="935.78" x2="868.248" y2="935.78" style="stroke:#000000; stroke-width:4; stroke-opacity:1"/>
<line clip-path="url(#clip212)" x1="618.384" y1="1371.65" x2="586.384" y2="1371.65" style="stroke:#000000; stroke-width:4; stroke-opacity:1"/>
<line clip-path="url(#clip212)" x1="618.384" y1="1248.91" x2="586.384" y2="1248.91" style="stroke:#000000; stroke-width:4; stroke-opacity:1"/>
<line clip-path="url(#clip212)" x1="336.521" y1="1246.2" x2="304.521" y2="1246.2" style="stroke:#000000; stroke-width:4; stroke-opacity:1"/>
<line clip-path="url(#clip212)" x1="336.521" y1="1103.64" x2="304.521" y2="1103.64" style="stroke:#000000; stroke-width:4; stroke-opacity:1"/>
<polyline clip-path="url(#clip212)" style="stroke:#e26f46; stroke-linecap:round; stroke-linejoin:round; stroke-width:4; stroke-opacity:1; fill:none" points="2293.56,105.337 2011.7,87.286 1729.84,141.207 1447.97,170.41 1166.11,194.44 884.248,226.832 602.384,441.839 320.521,246.507 "/>
<circle clip-path="url(#clip212)" cx="2293.56" cy="105.337" r="18" fill="#e26f46" fill-rule="evenodd" fill-opacity="1" stroke="#000000" stroke-opacity="1" stroke-width="3.2"/>
<circle clip-path="url(#clip212)" cx="2011.7" cy="87.286" r="18" fill="#e26f46" fill-rule="evenodd" fill-opacity="1" stroke="#000000" stroke-opacity="1" stroke-width="3.2"/>
<circle clip-path="url(#clip212)" cx="1729.84" cy="141.207" r="18" fill="#e26f46" fill-rule="evenodd" fill-opacity="1" stroke="#000000" stroke-opacity="1" stroke-width="3.2"/>
<circle clip-path="url(#clip212)" cx="1447.97" cy="170.41" r="18" fill="#e26f46" fill-rule="evenodd" fill-opacity="1" stroke="#000000" stroke-opacity="1" stroke-width="3.2"/>
<circle clip-path="url(#clip212)" cx="1166.11" cy="194.44" r="18" fill="#e26f46" fill-rule="evenodd" fill-opacity="1" stroke="#000000" stroke-opacity="1" stroke-width="3.2"/>
<circle clip-path="url(#clip212)" cx="884.248" cy="226.832" r="18" fill="#e26f46" fill-rule="evenodd" fill-opacity="1" stroke="#000000" stroke-opacity="1" stroke-width="3.2"/>
<circle clip-path="url(#clip212)" cx="602.384" cy="441.839" r="18" fill="#e26f46" fill-rule="evenodd" fill-opacity="1" stroke="#000000" stroke-opacity="1" stroke-width="3.2"/>
<circle clip-path="url(#clip212)" cx="320.521" cy="246.507" r="18" fill="#e26f46" fill-rule="evenodd" fill-opacity="1" stroke="#000000" stroke-opacity="1" stroke-width="3.2"/>
<polyline clip-path="url(#clip212)" style="stroke:#000000; stroke-linecap:round; stroke-linejoin:round; stroke-width:4; stroke-opacity:1; fill:none" points="2293.56,105.828 2293.56,104.845 "/>
<polyline clip-path="url(#clip212)" style="stroke:#000000; stroke-linecap:round; stroke-linejoin:round; stroke-width:4; stroke-opacity:1; fill:none" points="2011.7,88.7531 2011.7,85.8189 "/>
<polyline clip-path="url(#clip212)" style="stroke:#000000; stroke-linecap:round; stroke-linejoin:round; stroke-width:4; stroke-opacity:1; fill:none" points="1729.84,144.808 1729.84,137.607 "/>
<polyline clip-path="url(#clip212)" style="stroke:#000000; stroke-linecap:round; stroke-linejoin:round; stroke-width:4; stroke-opacity:1; fill:none" points="1447.97,178.728 1447.97,162.092 "/>
<polyline clip-path="url(#clip212)" style="stroke:#000000; stroke-linecap:round; stroke-linejoin:round; stroke-width:4; stroke-opacity:1; fill:none" points="1166.11,211.149 1166.11,177.732 "/>
<polyline clip-path="url(#clip212)" style="stroke:#000000; stroke-linecap:round; stroke-linejoin:round; stroke-width:4; stroke-opacity:1; fill:none" points="884.248,234.065 884.248,219.599 "/>
<polyline clip-path="url(#clip212)" style="stroke:#000000; stroke-linecap:round; stroke-linejoin:round; stroke-width:4; stroke-opacity:1; fill:none" points="602.384,552.55 602.384,331.128 "/>
<polyline clip-path="url(#clip212)" style="stroke:#000000; stroke-linecap:round; stroke-linejoin:round; stroke-width:4; stroke-opacity:1; fill:none" points="320.521,259.044 320.521,233.97 "/>
<line clip-path="url(#clip212)" x1="2313.56" y1="105.828" x2="2273.56" y2="105.828" style="stroke:#000000; stroke-width:4; stroke-opacity:1"/>
<line clip-path="url(#clip212)" x1="2313.56" y1="104.845" x2="2273.56" y2="104.845" style="stroke:#000000; stroke-width:4; stroke-opacity:1"/>
<line clip-path="url(#clip212)" x1="2031.7" y1="88.7531" x2="1991.7" y2="88.7531" style="stroke:#000000; stroke-width:4; stroke-opacity:1"/>
<line clip-path="url(#clip212)" x1="2031.7" y1="85.8189" x2="1991.7" y2="85.8189" style="stroke:#000000; stroke-width:4; stroke-opacity:1"/>
<line clip-path="url(#clip212)" x1="1749.84" y1="144.808" x2="1709.84" y2="144.808" style="stroke:#000000; stroke-width:4; stroke-opacity:1"/>
<line clip-path="url(#clip212)" x1="1749.84" y1="137.607" x2="1709.84" y2="137.607" style="stroke:#000000; stroke-width:4; stroke-opacity:1"/>
<line clip-path="url(#clip212)" x1="1467.97" y1="178.728" x2="1427.97" y2="178.728" style="stroke:#000000; stroke-width:4; stroke-opacity:1"/>
<line clip-path="url(#clip212)" x1="1467.97" y1="162.092" x2="1427.97" y2="162.092" style="stroke:#000000; stroke-width:4; stroke-opacity:1"/>
<line clip-path="url(#clip212)" x1="1186.11" y1="211.149" x2="1146.11" y2="211.149" style="stroke:#000000; stroke-width:4; stroke-opacity:1"/>
<line clip-path="url(#clip212)" x1="1186.11" y1="177.732" x2="1146.11" y2="177.732" style="stroke:#000000; stroke-width:4; stroke-opacity:1"/>
<line clip-path="url(#clip212)" x1="904.248" y1="234.065" x2="864.248" y2="234.065" style="stroke:#000000; stroke-width:4; stroke-opacity:1"/>
<line clip-path="url(#clip212)" x1="904.248" y1="219.599" x2="864.248" y2="219.599" style="stroke:#000000; stroke-width:4; stroke-opacity:1"/>
<line clip-path="url(#clip212)" x1="622.384" y1="552.55" x2="582.384" y2="552.55" style="stroke:#000000; stroke-width:4; stroke-opacity:1"/>
<line clip-path="url(#clip212)" x1="622.384" y1="331.128" x2="582.384" y2="331.128" style="stroke:#000000; stroke-width:4; stroke-opacity:1"/>
<line clip-path="url(#clip212)" x1="340.521" y1="259.044" x2="300.521" y2="259.044" style="stroke:#000000; stroke-width:4; stroke-opacity:1"/>
<line clip-path="url(#clip212)" x1="340.521" y1="233.97" x2="300.521" y2="233.97" style="stroke:#000000; stroke-width:4; stroke-opacity:1"/>
<path clip-path="url(#clip210)" d="M1908.02 1364.79 L2283.04 1364.79 L2283.04 1130.04 L1908.02 1130.04  Z" fill="#ffffff" fill-rule="evenodd" fill-opacity="1"/>
<polyline clip-path="url(#clip210)" style="stroke:#000000; stroke-linecap:round; stroke-linejoin:round; stroke-width:4; stroke-opacity:0; fill:none" points="1908.02,1364.79 2283.04,1364.79 2283.04,1130.04 1908.02,1130.04 1908.02,1364.79 "/>
<polyline clip-path="url(#clip210)" style="stroke:#009af9; stroke-linecap:round; stroke-linejoin:round; stroke-width:6; stroke-opacity:1; fill:none" points="1931.26,1208.29 2070.69,1208.29 "/>
<path clip-path="url(#clip210)" d="M1986.72 1194.03 L1986.72 1222.54 L2015.23 1222.54 L2015.23 1194.03 L1986.72 1194.03 Z" fill="#009af9" fill-rule="evenodd" fill-opacity="1" stroke="#000000" stroke-opacity="1" stroke-width="6.82667"/>
<path clip-path="url(#clip210)" d="M2154.49 1169.51 Q2154.49 1170.53 2154.04 1170.74 Q2153.62 1170.95 2152.07 1170.95 Q2149.44 1170.95 2148.24 1171.3 Q2147.08 1171.62 2146.73 1172.18 Q2146.41 1172.7 2146.03 1174.25 L2136.3 1213.11 Q2136.3 1213.14 2136.19 1213.64 Q2136.08 1214.09 2136.08 1214.34 Q2136.08 1214.79 2136.37 1215.08 Q2136.68 1215.36 2137.45 1215.5 Q2138.23 1215.6 2138.82 1215.64 Q2139.46 1215.64 2140.76 1215.64 Q2142.37 1215.64 2142.62 1215.92 Q2142.76 1216.09 2142.76 1216.41 Q2142.76 1217.08 2142.48 1217.43 Q2142.23 1217.75 2141.99 1217.82 Q2141.78 1217.85 2141.35 1217.85 Q2140.62 1217.85 2139.04 1217.78 Q2137.45 1217.71 2136.65 1217.71 L2132.04 1217.64 L2122.91 1217.85 Q2121.93 1217.85 2121.93 1217.04 Q2121.93 1216.34 2122.17 1216.02 Q2122.42 1215.71 2122.66 1215.67 Q2122.94 1215.64 2123.65 1215.64 Q2127.27 1215.64 2128.46 1215.29 Q2129.69 1214.9 2130.18 1213.25 L2135.14 1193.4 L2113.21 1193.4 L2108.29 1213.11 Q2108.29 1213.14 2108.19 1213.64 Q2108.08 1214.09 2108.08 1214.34 Q2108.08 1214.79 2108.36 1215.08 Q2108.68 1215.36 2109.45 1215.5 Q2110.23 1215.6 2110.82 1215.64 Q2111.46 1215.64 2112.76 1215.64 Q2114.37 1215.64 2114.65 1215.92 Q2114.79 1216.09 2114.79 1216.41 Q2114.79 1216.9 2114.65 1217.25 Q2114.55 1217.57 2114.27 1217.68 Q2114.02 1217.78 2113.84 1217.82 Q2113.67 1217.85 2113.35 1217.85 Q2112.62 1217.85 2111.03 1217.78 Q2109.49 1217.71 2108.68 1217.71 L2104.08 1217.64 L2094.94 1217.85 Q2093.92 1217.85 2093.92 1217.04 Q2093.92 1216.34 2094.17 1216.06 Q2094.42 1215.74 2094.73 1215.71 Q2095.05 1215.64 2095.86 1215.64 Q2097.61 1215.64 2098.67 1215.53 Q2099.72 1215.43 2100.39 1215.29 Q2101.09 1215.11 2101.44 1214.62 Q2101.83 1214.13 2102 1213.71 Q2102.18 1213.25 2102.43 1212.23 L2112.05 1173.58 Q2112.33 1172.42 2112.33 1172.25 Q2112.33 1171.58 2111.91 1171.4 Q2111.53 1171.19 2110.4 1171.09 L2107.66 1170.95 Q2106.82 1170.95 2106.47 1170.91 Q2106.15 1170.88 2105.9 1170.7 Q2105.66 1170.53 2105.66 1170.14 Q2105.66 1169.65 2105.76 1169.33 Q2105.9 1168.98 2106.15 1168.88 Q2106.4 1168.77 2106.57 1168.73 Q2106.75 1168.7 2107.03 1168.7 L2116.3 1168.91 L2125.51 1168.7 Q2126.53 1168.7 2126.53 1169.51 Q2126.53 1170.53 2126.07 1170.74 Q2125.61 1170.95 2124.07 1170.95 Q2121.5 1170.95 2120.31 1171.3 Q2119.11 1171.62 2118.73 1172.18 Q2118.38 1172.74 2118.03 1174.25 L2113.77 1191.15 L2135.73 1191.15 L2140.05 1173.58 Q2140.34 1172.32 2140.34 1172.25 Q2140.34 1171.58 2139.91 1171.4 Q2139.53 1171.19 2138.4 1171.09 L2135.66 1170.95 Q2134.82 1170.95 2134.47 1170.91 Q2134.15 1170.88 2133.87 1170.7 Q2133.63 1170.53 2133.63 1170.14 Q2133.63 1169.65 2133.73 1169.33 Q2133.87 1168.98 2134.12 1168.88 Q2134.36 1168.77 2134.54 1168.73 Q2134.71 1168.7 2135 1168.7 L2144.27 1168.91 L2153.51 1168.7 Q2154.49 1168.7 2154.49 1169.51 Z" fill="#000000" fill-rule="nonzero" fill-opacity="1" /><path clip-path="url(#clip210)" d="M2161.59 1209.04 L2161.59 1207.46 Q2167.64 1207.46 2170.76 1204.24 Q2171.62 1204.24 2171.77 1204.44 Q2171.92 1204.64 2171.92 1205.55 L2171.92 1233.8 Q2171.92 1235.3 2172.66 1235.77 Q2173.39 1236.24 2176.62 1236.24 L2178.21 1236.24 L2178.21 1237.79 Q2176.44 1237.64 2170.05 1237.64 Q2163.65 1237.64 2161.91 1237.79 L2161.91 1236.24 L2163.51 1236.24 Q2166.68 1236.24 2167.44 1235.8 Q2168.2 1235.33 2168.2 1233.8 L2168.2 1207.71 Q2165.57 1209.04 2161.59 1209.04 Z" fill="#000000" fill-rule="nonzero" fill-opacity="1" /><path clip-path="url(#clip210)" d="M2187.24 1236.98 Q2186.53 1236.17 2186.53 1235.11 Q2186.53 1234.05 2187.22 1233.26 Q2187.93 1232.45 2189.21 1232.45 Q2190.71 1232.45 2191.57 1233.9 Q2192.43 1235.33 2192.43 1237.74 Q2192.43 1240.35 2191.38 1242.76 Q2190.32 1245.19 2189.29 1246.35 Q2188.25 1247.5 2187.83 1247.5 Q2187.34 1247.5 2187.34 1246.96 Q2187.34 1246.76 2187.69 1246.4 Q2191.3 1242.51 2191.33 1237.74 Q2191.33 1236.98 2191.23 1236.98 L2191.11 1237.08 Q2190.25 1237.79 2189.21 1237.79 Q2187.96 1237.79 2187.24 1236.98 Z" fill="#000000" fill-rule="nonzero" fill-opacity="1" /><path clip-path="url(#clip210)" d="M2249.6 1230.58 Q2249.6 1230.78 2249.37 1231.54 Q2249.15 1232.3 2248.61 1233.48 Q2248.1 1234.66 2247.36 1235.75 Q2246.64 1236.8 2245.46 1237.59 Q2244.31 1238.35 2242.98 1238.35 Q2241.21 1238.35 2240.03 1237.17 Q2238.85 1235.99 2238.85 1234.22 Q2238.85 1233.26 2239.51 1231.44 Q2242.64 1223.13 2242.64 1220.15 Q2242.64 1216.64 2239.91 1216.64 Q2238.36 1216.64 2236.95 1217.28 Q2235.55 1217.92 2234.64 1218.8 Q2233.73 1219.69 2233.02 1220.7 Q2232.31 1221.7 2231.99 1222.37 Q2231.69 1223.03 2231.62 1223.33 L2228.59 1235.48 Q2228.35 1236.51 2228.17 1237 Q2228 1237.49 2227.53 1237.91 Q2227.07 1238.35 2226.33 1238.35 Q2225.71 1238.35 2225.27 1237.99 Q2224.85 1237.62 2224.85 1236.98 Q2224.85 1236.88 2224.98 1236.36 Q2225.1 1235.85 2225.27 1235.13 Q2225.44 1234.42 2225.52 1234 Q2226.4 1230.66 2226.53 1230.19 L2227.93 1224.34 Q2228.69 1221.43 2228.69 1220.15 Q2228.69 1216.64 2225.96 1216.64 Q2224.61 1216.64 2223.33 1217.15 Q2222.08 1217.65 2221.21 1218.33 Q2220.35 1219.02 2219.57 1219.98 Q2218.8 1220.92 2218.41 1221.56 Q2218.04 1222.17 2217.75 1222.79 L2217.11 1225.29 Q2216.96 1225.98 2216.25 1228.66 L2215.14 1233.21 Q2214.35 1236.61 2214.18 1236.93 Q2213.93 1237.62 2213.39 1237.99 Q2212.85 1238.35 2212.31 1238.35 Q2211.7 1238.35 2211.28 1237.99 Q2210.86 1237.62 2210.86 1236.98 Q2210.86 1236.88 2210.93 1236.51 Q2211.01 1236.14 2211.13 1235.62 Q2211.25 1235.11 2211.3 1234.81 L2214.23 1223.18 Q2214.77 1221.06 2214.89 1220.4 Q2215.04 1219.71 2215.04 1218.95 Q2215.04 1216.64 2213.47 1216.64 Q2212.19 1216.64 2211.35 1218.16 Q2210.52 1219.69 2209.8 1222.64 Q2209.58 1223.45 2209.43 1223.62 Q2209.31 1223.79 2208.94 1223.79 Q2208.33 1223.77 2208.33 1223.28 Q2208.33 1223.16 2208.52 1222.37 Q2208.72 1221.58 2209.09 1220.4 Q2209.48 1219.2 2209.9 1218.41 Q2210.15 1217.89 2210.37 1217.55 Q2210.59 1217.2 2211.03 1216.66 Q2211.48 1216.12 2212.14 1215.83 Q2212.8 1215.53 2213.61 1215.53 Q2215.41 1215.53 2216.74 1216.69 Q2218.09 1217.84 2218.26 1219.91 Q2221.53 1215.53 2226.11 1215.53 Q2228.69 1215.53 2230.24 1216.83 Q2231.69 1218.09 2231.86 1220.4 Q2235.26 1215.53 2240.08 1215.53 Q2242.86 1215.53 2244.36 1216.98 Q2245.86 1218.41 2245.86 1220.92 Q2245.86 1222.22 2245.19 1224.7 Q2244.53 1227.16 2244.09 1228.39 Q2243.64 1229.62 2242.78 1231.98 Q2241.87 1234.25 2241.87 1235.57 Q2241.87 1236.44 2242.17 1236.83 Q2242.46 1237.22 2243.1 1237.22 Q2244.09 1237.22 2244.95 1236.66 Q2245.81 1236.07 2246.42 1235.11 Q2247.06 1234.12 2247.48 1233.14 Q2247.9 1232.13 2248.22 1231 Q2248.41 1230.39 2248.51 1230.24 Q2248.64 1230.09 2248.98 1230.09 Q2249.6 1230.09 2249.6 1230.58 Z" fill="#000000" fill-rule="nonzero" fill-opacity="1" /><polyline clip-path="url(#clip210)" style="stroke:#e26f46; stroke-linecap:round; stroke-linejoin:round; stroke-width:6; stroke-opacity:1; fill:none" points="1931.26,1286.54 2070.69,1286.54 "/>
<circle clip-path="url(#clip210)" cx="2000.97" cy="1286.54" r="12.8293" fill="#e26f46" fill-rule="evenodd" fill-opacity="1" stroke="#000000" stroke-opacity="1" stroke-width="5.58545"/>
<path clip-path="url(#clip210)" d="M2154.49 1247.76 Q2154.49 1248.78 2154.04 1248.99 Q2153.62 1249.2 2152.07 1249.2 Q2149.44 1249.2 2148.24 1249.55 Q2147.08 1249.86 2146.73 1250.43 Q2146.41 1250.95 2146.03 1252.5 L2136.3 1291.36 Q2136.3 1291.39 2136.19 1291.88 Q2136.08 1292.34 2136.08 1292.59 Q2136.08 1293.04 2136.37 1293.33 Q2136.68 1293.61 2137.45 1293.75 Q2138.23 1293.85 2138.82 1293.89 Q2139.46 1293.89 2140.76 1293.89 Q2142.37 1293.89 2142.62 1294.17 Q2142.76 1294.34 2142.76 1294.66 Q2142.76 1295.33 2142.48 1295.68 Q2142.23 1296 2141.99 1296.07 Q2141.78 1296.1 2141.35 1296.1 Q2140.62 1296.1 2139.04 1296.03 Q2137.45 1295.96 2136.65 1295.96 L2132.04 1295.89 L2122.91 1296.1 Q2121.93 1296.1 2121.93 1295.29 Q2121.93 1294.59 2122.17 1294.27 Q2122.42 1293.96 2122.66 1293.92 Q2122.94 1293.89 2123.65 1293.89 Q2127.27 1293.89 2128.46 1293.54 Q2129.69 1293.15 2130.18 1291.5 L2135.14 1271.65 L2113.21 1271.65 L2108.29 1291.36 Q2108.29 1291.39 2108.19 1291.88 Q2108.08 1292.34 2108.08 1292.59 Q2108.08 1293.04 2108.36 1293.33 Q2108.68 1293.61 2109.45 1293.75 Q2110.23 1293.85 2110.82 1293.89 Q2111.46 1293.89 2112.76 1293.89 Q2114.37 1293.89 2114.65 1294.17 Q2114.79 1294.34 2114.79 1294.66 Q2114.79 1295.15 2114.65 1295.5 Q2114.55 1295.82 2114.27 1295.93 Q2114.02 1296.03 2113.84 1296.07 Q2113.67 1296.1 2113.35 1296.1 Q2112.62 1296.1 2111.03 1296.03 Q2109.49 1295.96 2108.68 1295.96 L2104.08 1295.89 L2094.94 1296.1 Q2093.92 1296.1 2093.92 1295.29 Q2093.92 1294.59 2094.17 1294.31 Q2094.42 1293.99 2094.73 1293.96 Q2095.05 1293.89 2095.86 1293.89 Q2097.61 1293.89 2098.67 1293.78 Q2099.72 1293.68 2100.39 1293.54 Q2101.09 1293.36 2101.44 1292.87 Q2101.83 1292.38 2102 1291.95 Q2102.18 1291.5 2102.43 1290.48 L2112.05 1251.83 Q2112.33 1250.67 2112.33 1250.5 Q2112.33 1249.83 2111.91 1249.65 Q2111.53 1249.44 2110.4 1249.34 L2107.66 1249.2 Q2106.82 1249.2 2106.47 1249.16 Q2106.15 1249.13 2105.9 1248.95 Q2105.66 1248.78 2105.66 1248.39 Q2105.66 1247.9 2105.76 1247.58 Q2105.9 1247.23 2106.15 1247.12 Q2106.4 1247.02 2106.57 1246.98 Q2106.75 1246.95 2107.03 1246.95 L2116.3 1247.16 L2125.51 1246.95 Q2126.53 1246.95 2126.53 1247.76 Q2126.53 1248.78 2126.07 1248.99 Q2125.61 1249.2 2124.07 1249.2 Q2121.5 1249.2 2120.31 1249.55 Q2119.11 1249.86 2118.73 1250.43 Q2118.38 1250.99 2118.03 1252.5 L2113.77 1269.4 L2135.73 1269.4 L2140.05 1251.83 Q2140.34 1250.57 2140.34 1250.5 Q2140.34 1249.83 2139.91 1249.65 Q2139.53 1249.44 2138.4 1249.34 L2135.66 1249.2 Q2134.82 1249.2 2134.47 1249.16 Q2134.15 1249.13 2133.87 1248.95 Q2133.63 1248.78 2133.63 1248.39 Q2133.63 1247.9 2133.73 1247.58 Q2133.87 1247.23 2134.12 1247.12 Q2134.36 1247.02 2134.54 1246.98 Q2134.71 1246.95 2135 1246.95 L2144.27 1247.16 L2153.51 1246.95 Q2154.49 1246.95 2154.49 1247.76 Z" fill="#000000" fill-rule="nonzero" fill-opacity="1" /><path clip-path="url(#clip210)" d="M2161.59 1287.29 L2161.59 1285.71 Q2167.64 1285.71 2170.76 1282.49 Q2171.62 1282.49 2171.77 1282.69 Q2171.92 1282.89 2171.92 1283.8 L2171.92 1312.05 Q2171.92 1313.55 2172.66 1314.02 Q2173.39 1314.49 2176.62 1314.49 L2178.21 1314.49 L2178.21 1316.04 Q2176.44 1315.89 2170.05 1315.89 Q2163.65 1315.89 2161.91 1316.04 L2161.91 1314.49 L2163.51 1314.49 Q2166.68 1314.49 2167.44 1314.05 Q2168.2 1313.58 2168.2 1312.05 L2168.2 1285.96 Q2165.57 1287.29 2161.59 1287.29 Z" fill="#000000" fill-rule="nonzero" fill-opacity="1" /><path clip-path="url(#clip210)" d="M2187.24 1315.23 Q2186.53 1314.41 2186.53 1313.36 Q2186.53 1312.3 2187.22 1311.51 Q2187.93 1310.7 2189.21 1310.7 Q2190.71 1310.7 2191.57 1312.15 Q2192.43 1313.58 2192.43 1315.99 Q2192.43 1318.6 2191.38 1321.01 Q2190.32 1323.44 2189.29 1324.6 Q2188.25 1325.75 2187.83 1325.75 Q2187.34 1325.75 2187.34 1325.21 Q2187.34 1325.01 2187.69 1324.65 Q2191.3 1320.76 2191.33 1315.99 Q2191.33 1315.23 2191.23 1315.23 L2191.11 1315.32 Q2190.25 1316.04 2189.21 1316.04 Q2187.96 1316.04 2187.24 1315.23 Z" fill="#000000" fill-rule="nonzero" fill-opacity="1" /><path clip-path="url(#clip210)" d="M2235.63 1308.83 Q2235.63 1309.03 2235.4 1309.79 Q2235.18 1310.55 2234.64 1311.73 Q2234.13 1312.91 2233.41 1314 Q2232.7 1315.05 2231.52 1315.84 Q2230.36 1316.6 2229.04 1316.6 Q2227.26 1316.6 2226.08 1315.42 Q2224.9 1314.24 2224.9 1312.47 Q2224.9 1311.49 2225.42 1310.14 Q2228.69 1301.4 2228.69 1298.4 Q2228.69 1294.89 2225.96 1294.89 Q2224.61 1294.89 2223.33 1295.4 Q2222.08 1295.9 2221.21 1296.58 Q2220.35 1297.27 2219.57 1298.23 Q2218.8 1299.17 2218.41 1299.81 Q2218.04 1300.42 2217.75 1301.04 L2217.11 1303.54 Q2216.96 1304.23 2216.25 1306.91 L2215.14 1311.46 Q2214.35 1314.86 2214.18 1315.18 Q2213.93 1315.87 2213.39 1316.23 Q2212.85 1316.6 2212.31 1316.6 Q2211.7 1316.6 2211.28 1316.23 Q2210.86 1315.87 2210.86 1315.23 Q2210.86 1315.13 2210.93 1314.76 Q2211.01 1314.39 2211.13 1313.87 Q2211.25 1313.36 2211.3 1313.06 L2214.23 1301.43 Q2214.77 1299.31 2214.89 1298.65 Q2215.04 1297.96 2215.04 1297.2 Q2215.04 1294.89 2213.47 1294.89 Q2212.19 1294.89 2211.35 1296.41 Q2210.52 1297.94 2209.8 1300.89 Q2209.58 1301.7 2209.43 1301.87 Q2209.31 1302.04 2208.94 1302.04 Q2208.33 1302.02 2208.33 1301.53 Q2208.33 1301.4 2208.52 1300.59 Q2208.72 1299.78 2209.09 1298.63 Q2209.48 1297.44 2209.85 1296.66 Q2210.17 1296.07 2210.34 1295.8 Q2210.54 1295.5 2211.01 1294.94 Q2211.5 1294.35 2212.14 1294.08 Q2212.8 1293.78 2213.61 1293.78 Q2215.43 1293.78 2216.76 1294.96 Q2218.09 1296.12 2218.26 1298.16 Q2221.53 1293.78 2226.11 1293.78 Q2228.81 1293.78 2230.36 1295.21 Q2231.91 1296.63 2231.91 1299.17 Q2231.91 1299.76 2231.79 1300.52 Q2231.69 1301.26 2231.45 1302.19 Q2231.22 1303.13 2231.03 1303.84 Q2230.83 1304.55 2230.44 1305.71 Q2230.04 1306.84 2229.87 1307.33 Q2229.7 1307.82 2229.28 1308.98 Q2228.89 1310.11 2228.84 1310.23 Q2227.93 1312.52 2227.93 1313.82 Q2227.93 1314.68 2228.2 1315.08 Q2228.49 1315.47 2229.13 1315.47 Q2230.85 1315.47 2232.13 1313.78 Q2233.44 1312.05 2234.27 1309.25 Q2234.47 1308.63 2234.57 1308.49 Q2234.69 1308.34 2235.04 1308.34 Q2235.63 1308.34 2235.63 1308.83 Z" fill="#000000" fill-rule="nonzero" fill-opacity="1" /></svg>
