<?xml version="1.0" encoding="utf-8"?>
<svg xmlns="http://www.w3.org/2000/svg" xmlns:xlink="http://www.w3.org/1999/xlink" width="600" height="400" viewBox="0 0 2400 1600">
<defs>
  <clipPath id="clip950">
    <rect x="0" y="0" width="2400" height="1600"/>
  </clipPath>
</defs>
<path clip-path="url(#clip950)" d="M0 1600 L2400 1600 L2400 0 L0 0  Z" fill="#ffffff" fill-rule="evenodd" fill-opacity="1"/>
<defs>
  <clipPath id="clip951">
    <rect x="480" y="0" width="1681" height="1600"/>
  </clipPath>
</defs>
<path clip-path="url(#clip950)" d="M261.33 1410.22 L2352.76 1410.22 L2352.76 47.2441 L261.33 47.2441  Z" fill="#ffffff" fill-rule="evenodd" fill-opacity="1"/>
<defs>
  <clipPath id="clip952">
    <rect x="261" y="47" width="2092" height="1364"/>
  </clipPath>
</defs>
<polyline clip-path="url(#clip950)" style="stroke:#000000; stroke-linecap:round; stroke-linejoin:round; stroke-width:4; stroke-opacity:1; fill:none" points="261.33,1410.22 2352.76,1410.22 "/>
<polyline clip-path="url(#clip950)" style="stroke:#000000; stroke-linecap:round; stroke-linejoin:round; stroke-width:4; stroke-opacity:1; fill:none" points="261.33,47.2441 2352.76,47.2441 "/>
<polyline clip-path="url(#clip950)" style="stroke:#000000; stroke-linecap:round; stroke-linejoin:round; stroke-width:4; stroke-opacity:1; fill:none" points="320.521,1410.22 320.521,1391.32 "/>
<polyline clip-path="url(#clip950)" style="stroke:#000000; stroke-linecap:round; stroke-linejoin:round; stroke-width:4; stroke-opacity:1; fill:none" points="758.975,1410.22 758.975,1391.32 "/>
<polyline clip-path="url(#clip950)" style="stroke:#000000; stroke-linecap:round; stroke-linejoin:round; stroke-width:4; stroke-opacity:1; fill:none" points="1197.43,1410.22 1197.43,1391.32 "/>
<polyline clip-path="url(#clip950)" style="stroke:#000000; stroke-linecap:round; stroke-linejoin:round; stroke-width:4; stroke-opacity:1; fill:none" points="1635.88,1410.22 1635.88,1391.32 "/>
<polyline clip-path="url(#clip950)" style="stroke:#000000; stroke-linecap:round; stroke-linejoin:round; stroke-width:4; stroke-opacity:1; fill:none" points="2074.34,1410.22 2074.34,1391.32 "/>
<path clip-path="url(#clip950)" d="M309.096 1466.71 Q309.466 1467.08 309.466 1467.61 Q309.466 1468.13 309.096 1468.51 Q308.725 1468.88 308.2 1468.88 L268.613 1468.88 Q268.088 1468.88 267.717 1468.51 Q267.347 1468.13 267.347 1467.61 Q267.347 1467.08 267.717 1466.71 Q268.088 1466.34 268.613 1466.34 L308.2 1466.34 Q308.725 1466.34 309.096 1466.71 Z" fill="#000000" fill-rule="nonzero" fill-opacity="1" /><path clip-path="url(#clip950)" d="M318.606 1447.32 L318.606 1445.35 Q326.203 1445.35 330.124 1441.3 Q331.205 1441.3 331.39 1441.55 Q331.576 1441.79 331.576 1442.94 L331.576 1478.42 Q331.576 1480.3 332.502 1480.89 Q333.428 1481.47 337.474 1481.47 L339.481 1481.47 L339.481 1483.42 Q337.257 1483.23 329.229 1483.23 Q321.2 1483.23 319.008 1483.42 L319.008 1481.47 L321.015 1481.47 Q324.998 1481.47 325.956 1480.92 Q326.913 1480.33 326.913 1478.42 L326.913 1445.65 Q323.609 1447.32 318.606 1447.32 Z" fill="#000000" fill-rule="nonzero" fill-opacity="1" /><path clip-path="url(#clip950)" d="M347.077 1463.19 Q347.077 1453.9 349.424 1448.84 Q352.697 1441.3 360.417 1441.3 Q362.053 1441.3 363.752 1441.76 Q365.481 1442.2 367.643 1443.89 Q369.835 1445.59 371.163 1448.37 Q373.695 1453.74 373.695 1463.19 Q373.695 1472.43 371.348 1477.46 Q367.92 1484.81 360.355 1484.81 Q357.514 1484.81 354.611 1483.36 Q351.74 1481.91 349.918 1478.42 Q347.077 1473.2 347.077 1463.19 M352.326 1462.42 Q352.326 1471.96 353.006 1475.76 Q353.778 1479.87 355.878 1481.66 Q358.008 1483.42 360.355 1483.42 Q362.887 1483.42 364.987 1481.54 Q367.118 1479.62 367.766 1475.51 Q368.476 1471.47 368.445 1462.42 Q368.445 1453.62 367.828 1450.1 Q366.994 1445.99 364.771 1444.36 Q362.578 1442.69 360.355 1442.69 Q359.521 1442.69 358.626 1442.94 Q357.761 1443.18 356.495 1443.89 Q355.229 1444.6 354.241 1446.36 Q353.284 1448.12 352.821 1450.78 Q352.326 1454.21 352.326 1462.42 Z" fill="#000000" fill-rule="nonzero" fill-opacity="1" /><path clip-path="url(#clip950)" d="M763.453 1466.71 Q763.823 1467.08 763.823 1467.61 Q763.823 1468.13 763.453 1468.51 Q763.082 1468.88 762.557 1468.88 L722.97 1468.88 Q722.445 1468.88 722.074 1468.51 Q721.704 1468.13 721.704 1467.61 Q721.704 1467.08 722.074 1466.71 Q722.445 1466.34 722.97 1466.34 L762.557 1466.34 Q763.082 1466.34 763.453 1466.71 Z" fill="#000000" fill-rule="nonzero" fill-opacity="1" /><path clip-path="url(#clip950)" d="M769.999 1473.88 Q769.999 1466.81 779.108 1462.24 Q775.187 1459.58 774.476 1458.81 Q771.697 1455.72 771.697 1451.86 Q771.697 1447.45 775.032 1444.39 Q778.398 1441.3 783.153 1441.3 Q787.693 1441.3 791.12 1443.93 Q794.548 1446.55 794.548 1450.72 Q794.548 1456.59 786.89 1460.54 Q791.954 1463.69 793.158 1465.02 Q796.246 1468.44 796.246 1472.8 Q796.246 1477.86 792.355 1481.35 Q788.465 1484.81 783.092 1484.81 Q777.842 1484.81 773.921 1481.75 Q769.999 1478.7 769.999 1473.88 M773.149 1473.88 Q773.149 1477.8 776.082 1480.42 Q779.047 1483.05 783.153 1483.05 Q787.137 1483.05 790.101 1480.76 Q793.097 1478.48 793.097 1475.08 Q793.097 1473.75 792.633 1472.61 Q792.201 1471.47 791.306 1470.57 Q790.441 1469.65 789.885 1469.25 Q789.36 1468.81 788.341 1468.1 L780.56 1463.19 Q773.149 1467.3 773.149 1473.88 M774.476 1449.39 Q774.476 1452.42 777.657 1454.52 L785.5 1459.58 Q791.769 1455.91 791.769 1450.72 Q791.769 1447.35 789.206 1445.13 Q786.643 1442.88 783.092 1442.88 Q779.602 1442.88 777.039 1444.73 Q774.476 1446.55 774.476 1449.39 Z" fill="#000000" fill-rule="nonzero" fill-opacity="1" /><path clip-path="url(#clip950)" d="M1201.91 1466.71 Q1202.28 1467.08 1202.28 1467.61 Q1202.28 1468.13 1201.91 1468.51 Q1201.54 1468.88 1201.01 1468.88 L1161.42 1468.88 Q1160.9 1468.88 1160.53 1468.51 Q1160.16 1468.13 1160.16 1467.61 Q1160.16 1467.08 1160.53 1466.71 Q1160.9 1466.34 1161.42 1466.34 L1201.01 1466.34 Q1201.54 1466.34 1201.91 1466.71 Z" fill="#000000" fill-rule="nonzero" fill-opacity="1" /><path clip-path="url(#clip950)" d="M1208.45 1463.44 Q1208.45 1453.5 1213.52 1447.41 Q1218.58 1441.3 1225.1 1441.3 Q1228.9 1441.3 1230.99 1443.25 Q1233.13 1445.16 1233.13 1448.12 Q1233.13 1449.76 1232.17 1450.47 Q1231.21 1451.18 1230.22 1451.18 Q1229.08 1451.18 1228.18 1450.41 Q1227.29 1449.64 1227.29 1448.25 Q1227.29 1445.41 1230.78 1445.41 Q1229.14 1442.88 1225.22 1442.88 Q1224.02 1442.88 1222.78 1443.25 Q1221.55 1443.59 1219.94 1444.76 Q1218.33 1445.93 1217.1 1447.79 Q1215.86 1449.64 1215 1453.13 Q1214.13 1456.62 1214.13 1461.16 L1214.13 1462.67 Q1216.73 1456.4 1222.04 1456.43 Q1227.35 1456.43 1231.03 1460.48 Q1234.7 1464.52 1234.7 1470.51 Q1234.7 1476.66 1230.87 1480.73 Q1227.04 1484.81 1221.67 1484.81 Q1219.26 1484.81 1217.07 1483.79 Q1214.91 1482.8 1212.87 1480.52 Q1210.86 1478.23 1209.66 1473.85 Q1208.45 1469.46 1208.45 1463.44 M1214.26 1469.12 Q1214.26 1475.33 1215.4 1478.29 Q1215.59 1478.79 1215.99 1479.47 Q1216.42 1480.15 1217.13 1481.04 Q1217.87 1481.91 1219.08 1482.49 Q1220.28 1483.05 1221.67 1483.05 Q1225.9 1483.05 1227.94 1478.94 Q1229.02 1476.66 1229.02 1470.45 Q1229.02 1464.12 1227.88 1461.8 Q1225.93 1457.88 1221.98 1457.88 Q1219.32 1457.88 1217.47 1459.7 Q1215.65 1461.53 1214.94 1463.97 Q1214.26 1466.41 1214.26 1469.12 Z" fill="#000000" fill-rule="nonzero" fill-opacity="1" /><path clip-path="url(#clip950)" d="M1639.91 1466.71 Q1640.28 1467.08 1640.28 1467.61 Q1640.28 1468.13 1639.91 1468.51 Q1639.54 1468.88 1639.02 1468.88 L1599.43 1468.88 Q1598.91 1468.88 1598.53 1468.51 Q1598.16 1468.13 1598.16 1467.61 Q1598.16 1467.08 1598.53 1466.71 Q1598.91 1466.34 1599.43 1466.34 L1639.02 1466.34 Q1639.54 1466.34 1639.91 1466.71 Z" fill="#000000" fill-rule="nonzero" fill-opacity="1" /><path clip-path="url(#clip950)" d="M1645.56 1472.98 L1645.56 1471.04 L1664.99 1441.36 Q1665.48 1440.59 1666.25 1440.62 Q1666.96 1440.62 1667.12 1440.9 Q1667.27 1441.18 1667.27 1442.26 L1667.27 1471.04 L1673.6 1471.04 L1673.6 1472.98 L1667.27 1472.98 L1667.27 1478.48 Q1667.27 1480.3 1668.01 1480.89 Q1668.79 1481.47 1672.06 1481.47 L1673.39 1481.47 L1673.39 1483.42 Q1670.79 1483.23 1664.8 1483.23 Q1658.84 1483.23 1656.25 1483.42 L1656.25 1481.47 L1657.58 1481.47 Q1660.85 1481.47 1661.62 1480.92 Q1662.39 1480.33 1662.39 1478.48 L1662.39 1472.98 L1645.56 1472.98 M1647.35 1471.04 L1662.76 1471.04 L1662.76 1447.45 L1647.35 1471.04 Z" fill="#000000" fill-rule="nonzero" fill-opacity="1" /><path clip-path="url(#clip950)" d="M2079.06 1466.71 Q2079.43 1467.08 2079.43 1467.61 Q2079.43 1468.13 2079.06 1468.51 Q2078.69 1468.88 2078.17 1468.88 L2038.58 1468.88 Q2038.05 1468.88 2037.68 1468.51 Q2037.31 1468.13 2037.31 1467.61 Q2037.31 1467.08 2037.68 1466.71 Q2038.05 1466.34 2038.58 1466.34 L2078.17 1466.34 Q2078.69 1466.34 2079.06 1466.71 Z" fill="#000000" fill-rule="nonzero" fill-opacity="1" /><path clip-path="url(#clip950)" d="M2086.1 1483.42 Q2086.1 1482.28 2086.2 1481.94 Q2086.32 1481.6 2086.81 1481.07 L2098.95 1467.55 Q2105.59 1460.08 2105.59 1453.56 Q2105.59 1449.33 2103.36 1446.3 Q2101.17 1443.28 2097.13 1443.28 Q2094.35 1443.28 2092 1444.98 Q2089.65 1446.67 2088.57 1449.7 Q2088.76 1449.64 2089.41 1449.64 Q2090.98 1449.64 2091.85 1450.63 Q2092.74 1451.61 2092.74 1452.94 Q2092.74 1454.64 2091.63 1455.47 Q2090.55 1456.28 2089.47 1456.28 Q2089.04 1456.28 2088.45 1456.18 Q2087.89 1456.09 2087 1455.23 Q2086.1 1454.33 2086.1 1452.76 Q2086.1 1448.34 2089.44 1444.82 Q2092.8 1441.3 2097.93 1441.3 Q2103.73 1441.3 2107.53 1444.76 Q2111.36 1448.19 2111.36 1453.56 Q2111.36 1455.44 2110.77 1457.17 Q2110.22 1458.87 2109.45 1460.2 Q2108.71 1461.53 2106.67 1463.66 Q2104.63 1465.79 2102.99 1467.3 Q2101.36 1468.81 2097.68 1472.03 L2090.98 1478.54 L2102.38 1478.54 Q2107.93 1478.54 2108.37 1478.05 Q2108.98 1477.15 2109.76 1472.43 L2111.36 1472.43 L2109.57 1483.42 L2086.1 1483.42 Z" fill="#000000" fill-rule="nonzero" fill-opacity="1" /><path clip-path="url(#clip950)" d="M1332.57 1517.34 Q1332.57 1518.78 1331.38 1518.78 Q1329.27 1518.85 1327.83 1519.27 Q1326.39 1519.66 1325.55 1520.43 Q1324.74 1521.21 1324.28 1522.05 Q1323.86 1522.86 1323.58 1524.09 L1317.19 1549.63 Q1315.36 1556.83 1309.46 1562.07 Q1303.55 1567.27 1296.84 1567.27 Q1293.01 1567.27 1289.82 1565.69 Q1286.65 1564.11 1284.69 1560.91 Q1282.72 1557.71 1282.72 1553.46 Q1282.72 1551.42 1283.25 1549.28 L1287.6 1531.5 L1289.22 1525.18 Q1290.41 1520.5 1290.41 1520.08 Q1290.41 1519.42 1289.99 1519.24 Q1289.61 1519.03 1288.48 1518.92 L1285.74 1518.78 Q1284.9 1518.78 1284.55 1518.75 Q1284.23 1518.71 1283.98 1518.54 Q1283.74 1518.36 1283.74 1517.97 Q1283.74 1517.48 1283.84 1517.17 Q1283.98 1516.82 1284.23 1516.71 Q1284.48 1516.6 1284.65 1516.57 Q1284.83 1516.53 1285.11 1516.53 L1294.38 1516.75 L1303.59 1516.53 Q1304.61 1516.53 1304.61 1517.34 Q1304.61 1518.36 1304.15 1518.57 Q1303.69 1518.78 1302.15 1518.78 Q1299.51 1518.78 1298.32 1519.13 Q1297.16 1519.45 1296.81 1520.01 Q1296.49 1520.54 1296.11 1522.09 L1289.11 1550.09 Q1288.76 1551.49 1288.55 1552.9 Q1288.38 1554.27 1288.38 1554.97 L1288.34 1555.67 Q1288.34 1560.14 1290.8 1562.59 Q1293.29 1565.05 1297.12 1565.05 Q1302.75 1565.05 1307.98 1560.59 Q1313.25 1556.13 1315.04 1549.14 L1321.51 1523.46 Q1321.72 1522.82 1321.72 1521.94 Q1321.72 1520.54 1320.66 1519.7 Q1319.64 1518.82 1316.83 1518.78 Q1315.53 1518.78 1315.53 1517.97 Q1315.53 1517.31 1315.78 1516.99 Q1316.06 1516.64 1316.27 1516.6 Q1316.52 1516.53 1316.83 1516.53 Q1318.03 1516.53 1320.56 1516.64 Q1323.09 1516.75 1324.32 1516.75 Q1325.55 1516.75 1328.01 1516.64 Q1330.47 1516.53 1331.66 1516.53 Q1332.08 1516.53 1332.29 1516.75 Q1332.54 1516.92 1332.57 1517.13 L1332.57 1517.34 Z" fill="#000000" fill-rule="nonzero" fill-opacity="1" /><polyline clip-path="url(#clip950)" style="stroke:#000000; stroke-linecap:round; stroke-linejoin:round; stroke-width:4; stroke-opacity:1; fill:none" points="261.33,1410.22 261.33,47.2441 "/>
<polyline clip-path="url(#clip950)" style="stroke:#000000; stroke-linecap:round; stroke-linejoin:round; stroke-width:4; stroke-opacity:1; fill:none" points="2352.76,1410.22 2352.76,47.2441 "/>
<polyline clip-path="url(#clip950)" style="stroke:#000000; stroke-linecap:round; stroke-linejoin:round; stroke-width:4; stroke-opacity:1; fill:none" points="261.33,1394.31 280.227,1394.31 "/>
<polyline clip-path="url(#clip950)" style="stroke:#000000; stroke-linecap:round; stroke-linejoin:round; stroke-width:4; stroke-opacity:1; fill:none" points="261.33,1115.7 280.227,1115.7 "/>
<polyline clip-path="url(#clip950)" style="stroke:#000000; stroke-linecap:round; stroke-linejoin:round; stroke-width:4; stroke-opacity:1; fill:none" points="261.33,837.088 280.227,837.088 "/>
<polyline clip-path="url(#clip950)" style="stroke:#000000; stroke-linecap:round; stroke-linejoin:round; stroke-width:4; stroke-opacity:1; fill:none" points="261.33,558.475 280.227,558.475 "/>
<polyline clip-path="url(#clip950)" style="stroke:#000000; stroke-linecap:round; stroke-linejoin:round; stroke-width:4; stroke-opacity:1; fill:none" points="261.33,279.863 280.227,279.863 "/>
<path clip-path="url(#clip950)" d="M121.05 1379.81 L121.05 1377.84 Q128.647 1377.84 132.568 1373.79 Q133.649 1373.79 133.834 1374.04 Q134.02 1374.29 134.02 1375.43 L134.02 1410.91 Q134.02 1412.79 134.946 1413.38 Q135.873 1413.97 139.918 1413.97 L141.925 1413.97 L141.925 1415.91 Q139.702 1415.73 131.673 1415.73 Q123.644 1415.73 121.452 1415.91 L121.452 1413.97 L123.459 1413.97 Q127.442 1413.97 128.4 1413.41 Q129.357 1412.82 129.357 1410.91 L129.357 1378.15 Q126.053 1379.81 121.05 1379.81 Z" fill="#000000" fill-rule="nonzero" fill-opacity="1" /><path clip-path="url(#clip950)" d="M153.381 1414.89 Q152.424 1413.87 152.424 1412.55 Q152.424 1411.22 153.381 1410.26 Q154.338 1409.27 155.79 1409.27 Q157.179 1409.27 158.106 1410.2 Q159.063 1411.09 159.063 1412.58 Q159.063 1414.03 158.044 1414.99 Q157.056 1415.91 155.79 1415.91 Q154.338 1415.91 153.381 1414.89 Z" fill="#000000" fill-rule="nonzero" fill-opacity="1" /><path clip-path="url(#clip950)" d="M167.091 1395.69 Q167.091 1386.39 169.438 1381.33 Q172.711 1373.79 180.431 1373.79 Q182.068 1373.79 183.766 1374.26 Q185.495 1374.69 187.657 1376.39 Q189.849 1378.08 191.177 1380.86 Q193.709 1386.24 193.709 1395.69 Q193.709 1404.92 191.362 1409.95 Q187.935 1417.3 180.369 1417.3 Q177.529 1417.3 174.626 1415.85 Q171.754 1414.4 169.932 1410.91 Q167.091 1405.69 167.091 1395.69 M172.341 1394.91 Q172.341 1404.46 173.02 1408.25 Q173.792 1412.36 175.892 1414.15 Q178.023 1415.91 180.369 1415.91 Q182.902 1415.91 185.001 1414.03 Q187.132 1412.11 187.78 1408.01 Q188.491 1403.96 188.46 1394.91 Q188.46 1386.11 187.842 1382.59 Q187.008 1378.49 184.785 1376.85 Q182.593 1375.18 180.369 1375.18 Q179.536 1375.18 178.64 1375.43 Q177.776 1375.68 176.51 1376.39 Q175.243 1377.1 174.255 1378.86 Q173.298 1380.62 172.835 1383.27 Q172.341 1386.7 172.341 1394.91 Z" fill="#000000" fill-rule="nonzero" fill-opacity="1" /><path clip-path="url(#clip950)" d="M198.712 1395.69 Q198.712 1386.39 201.058 1381.33 Q204.332 1373.79 212.051 1373.79 Q213.688 1373.79 215.386 1374.26 Q217.116 1374.69 219.277 1376.39 Q221.47 1378.08 222.797 1380.86 Q225.33 1386.24 225.33 1395.69 Q225.33 1404.92 222.983 1409.95 Q219.555 1417.3 211.99 1417.3 Q209.149 1417.3 206.246 1415.85 Q203.374 1414.4 201.553 1410.91 Q198.712 1405.69 198.712 1395.69 M203.961 1394.91 Q203.961 1404.46 204.64 1408.25 Q205.412 1412.36 207.512 1414.15 Q209.643 1415.91 211.99 1415.91 Q214.522 1415.91 216.622 1414.03 Q218.752 1412.11 219.401 1408.01 Q220.111 1403.96 220.08 1394.91 Q220.08 1386.11 219.463 1382.59 Q218.629 1378.49 216.405 1376.85 Q214.213 1375.18 211.99 1375.18 Q211.156 1375.18 210.261 1375.43 Q209.396 1375.68 208.13 1376.39 Q206.864 1377.1 205.876 1378.86 Q204.918 1380.62 204.455 1383.27 Q203.961 1386.7 203.961 1394.91 Z" fill="#000000" fill-rule="nonzero" fill-opacity="1" /><path clip-path="url(#clip950)" d="M121.73 1101.2 L121.73 1099.23 Q129.326 1099.23 133.248 1095.18 Q134.329 1095.18 134.514 1095.43 Q134.699 1095.67 134.699 1096.82 L134.699 1132.3 Q134.699 1134.18 135.625 1134.77 Q136.552 1135.35 140.597 1135.35 L142.604 1135.35 L142.604 1137.3 Q140.381 1137.11 132.352 1137.11 Q124.324 1137.11 122.131 1137.3 L122.131 1135.35 L124.138 1135.35 Q128.122 1135.35 129.079 1134.8 Q130.036 1134.21 130.036 1132.3 L130.036 1099.53 Q126.732 1101.2 121.73 1101.2 Z" fill="#000000" fill-rule="nonzero" fill-opacity="1" /><path clip-path="url(#clip950)" d="M154.06 1136.28 Q153.103 1135.26 153.103 1133.93 Q153.103 1132.61 154.06 1131.65 Q155.018 1130.66 156.469 1130.66 Q157.858 1130.66 158.785 1131.59 Q159.742 1132.48 159.742 1133.96 Q159.742 1135.42 158.723 1136.37 Q157.735 1137.3 156.469 1137.3 Q155.018 1137.3 154.06 1136.28 Z" fill="#000000" fill-rule="nonzero" fill-opacity="1" /><path clip-path="url(#clip950)" d="M168.45 1137.3 Q168.45 1136.16 168.543 1135.82 Q168.666 1135.48 169.16 1134.95 L181.296 1121.43 Q187.935 1113.95 187.935 1107.44 Q187.935 1103.21 185.712 1100.18 Q183.519 1097.16 179.474 1097.16 Q176.695 1097.16 174.348 1098.86 Q172.001 1100.55 170.92 1103.58 Q171.106 1103.52 171.754 1103.52 Q173.329 1103.52 174.194 1104.51 Q175.089 1105.49 175.089 1106.82 Q175.089 1108.52 173.977 1109.35 Q172.897 1110.16 171.816 1110.16 Q171.384 1110.16 170.797 1110.06 Q170.241 1109.97 169.346 1109.11 Q168.45 1108.21 168.45 1106.64 Q168.45 1102.22 171.785 1098.7 Q175.151 1095.18 180.277 1095.18 Q186.082 1095.18 189.88 1098.64 Q193.709 1102.07 193.709 1107.44 Q193.709 1109.32 193.123 1111.05 Q192.567 1112.75 191.795 1114.08 Q191.054 1115.41 189.016 1117.54 Q186.978 1119.67 185.341 1121.18 Q183.704 1122.69 180.03 1125.91 L173.329 1132.42 L184.723 1132.42 Q190.282 1132.42 190.714 1131.93 Q191.332 1131.03 192.104 1126.31 L193.709 1126.31 L191.918 1137.3 L168.45 1137.3 Z" fill="#000000" fill-rule="nonzero" fill-opacity="1" /><path clip-path="url(#clip950)" d="M200.07 1127.11 Q200.07 1125.23 201.089 1124.52 Q202.108 1123.77 203.189 1123.77 Q204.64 1123.77 205.474 1124.7 Q206.339 1125.6 206.339 1126.86 Q206.339 1128.13 205.474 1129.05 Q204.64 1129.95 203.189 1129.95 Q202.479 1129.95 202.108 1129.83 Q202.942 1132.73 205.474 1134.83 Q208.037 1136.93 211.403 1136.93 Q215.633 1136.93 218.166 1132.82 Q219.679 1130.17 219.679 1124.15 Q219.679 1118.83 218.536 1116.18 Q216.776 1112.13 213.163 1112.13 Q208.037 1112.13 205.011 1116.55 Q204.64 1117.1 204.208 1117.14 Q203.591 1117.14 203.436 1116.8 Q203.313 1116.43 203.313 1115.47 L203.313 1096.76 Q203.313 1095.24 203.93 1095.24 Q204.177 1095.24 204.702 1095.43 Q208.686 1097.19 213.101 1097.22 Q217.641 1097.22 221.717 1095.37 Q222.025 1095.18 222.211 1095.18 Q222.828 1095.18 222.859 1095.89 Q222.859 1096.14 222.334 1096.88 Q221.84 1097.59 220.759 1098.55 Q219.679 1099.47 218.289 1100.37 Q216.9 1101.26 214.862 1101.88 Q212.854 1102.47 210.631 1102.47 Q207.975 1102.47 205.258 1101.63 L205.258 1113.95 Q208.531 1110.74 213.287 1110.74 Q218.351 1110.74 221.84 1114.82 Q225.33 1118.9 225.33 1124.58 Q225.33 1130.54 221.192 1134.61 Q217.085 1138.69 211.527 1138.69 Q206.462 1138.69 203.251 1135.08 Q200.07 1131.46 200.07 1127.11 Z" fill="#000000" fill-rule="nonzero" fill-opacity="1" /><path clip-path="url(#clip950)" d="M121.05 822.59 L121.05 820.613 Q128.647 820.613 132.568 816.568 Q133.649 816.568 133.834 816.815 Q134.02 817.062 134.02 818.205 L134.02 853.685 Q134.02 855.569 134.946 856.155 Q135.873 856.742 139.918 856.742 L141.925 856.742 L141.925 858.688 Q139.702 858.502 131.673 858.502 Q123.644 858.502 121.452 858.688 L121.452 856.742 L123.459 856.742 Q127.442 856.742 128.4 856.186 Q129.357 855.6 129.357 853.685 L129.357 820.922 Q126.053 822.59 121.05 822.59 Z" fill="#000000" fill-rule="nonzero" fill-opacity="1" /><path clip-path="url(#clip950)" d="M153.381 857.668 Q152.424 856.649 152.424 855.322 Q152.424 853.994 153.381 853.037 Q154.338 852.048 155.79 852.048 Q157.179 852.048 158.106 852.975 Q159.063 853.87 159.063 855.353 Q159.063 856.804 158.044 857.761 Q157.056 858.688 155.79 858.688 Q154.338 858.688 153.381 857.668 Z" fill="#000000" fill-rule="nonzero" fill-opacity="1" /><path clip-path="url(#clip950)" d="M167.771 848.497 Q167.771 846.614 168.79 845.904 Q169.809 845.162 170.89 845.162 Q172.341 845.162 173.175 846.089 Q174.039 846.984 174.039 848.25 Q174.039 849.516 173.175 850.443 Q172.341 851.338 170.89 851.338 Q170.179 851.338 169.809 851.215 Q170.642 854.117 173.175 856.217 Q175.738 858.317 179.103 858.317 Q183.334 858.317 185.866 854.21 Q187.379 851.554 187.379 845.533 Q187.379 840.222 186.236 837.566 Q184.476 833.521 180.864 833.521 Q175.738 833.521 172.711 837.937 Q172.341 838.493 171.909 838.523 Q171.291 838.523 171.137 838.184 Q171.013 837.813 171.013 836.856 L171.013 818.143 Q171.013 816.63 171.631 816.63 Q171.878 816.63 172.403 816.815 Q176.386 818.575 180.802 818.606 Q185.341 818.606 189.417 816.754 Q189.726 816.568 189.911 816.568 Q190.529 816.568 190.56 817.279 Q190.56 817.526 190.035 818.267 Q189.541 818.977 188.46 819.934 Q187.379 820.86 185.989 821.756 Q184.6 822.651 182.562 823.269 Q180.555 823.856 178.331 823.856 Q175.676 823.856 172.958 823.022 L172.958 835.343 Q176.232 832.131 180.987 832.131 Q186.051 832.131 189.541 836.207 Q193.03 840.284 193.03 845.965 Q193.03 851.925 188.892 856.001 Q184.785 860.077 179.227 860.077 Q174.163 860.077 170.951 856.464 Q167.771 852.851 167.771 848.497 Z" fill="#000000" fill-rule="nonzero" fill-opacity="1" /><path clip-path="url(#clip950)" d="M198.712 838.462 Q198.712 829.167 201.058 824.103 Q204.332 816.568 212.051 816.568 Q213.688 816.568 215.386 817.031 Q217.116 817.464 219.277 819.162 Q221.47 820.86 222.797 823.64 Q225.33 829.013 225.33 838.462 Q225.33 847.695 222.983 852.728 Q219.555 860.077 211.99 860.077 Q209.149 860.077 206.246 858.626 Q203.374 857.174 201.553 853.685 Q198.712 848.466 198.712 838.462 M203.961 837.69 Q203.961 847.231 204.64 851.029 Q205.412 855.136 207.512 856.927 Q209.643 858.688 211.99 858.688 Q214.522 858.688 216.622 856.804 Q218.752 854.889 219.401 850.782 Q220.111 846.737 220.08 837.69 Q220.08 828.889 219.463 825.369 Q218.629 821.262 216.405 819.625 Q214.213 817.958 211.99 817.958 Q211.156 817.958 210.261 818.205 Q209.396 818.452 208.13 819.162 Q206.864 819.872 205.876 821.632 Q204.918 823.393 204.455 826.048 Q203.961 829.476 203.961 837.69 Z" fill="#000000" fill-rule="nonzero" fill-opacity="1" /><path clip-path="url(#clip950)" d="M121.73 543.978 L121.73 542.001 Q129.326 542.001 133.248 537.956 Q134.329 537.956 134.514 538.203 Q134.699 538.45 134.699 539.593 L134.699 575.073 Q134.699 576.957 135.625 577.543 Q136.552 578.13 140.597 578.13 L142.604 578.13 L142.604 580.075 Q140.381 579.89 132.352 579.89 Q124.324 579.89 122.131 580.075 L122.131 578.13 L124.138 578.13 Q128.122 578.13 129.079 577.574 Q130.036 576.987 130.036 575.073 L130.036 542.31 Q126.732 543.978 121.73 543.978 Z" fill="#000000" fill-rule="nonzero" fill-opacity="1" /><path clip-path="url(#clip950)" d="M154.06 579.056 Q153.103 578.037 153.103 576.71 Q153.103 575.382 154.06 574.424 Q155.018 573.436 156.469 573.436 Q157.858 573.436 158.785 574.363 Q159.742 575.258 159.742 576.74 Q159.742 578.192 158.723 579.149 Q157.735 580.075 156.469 580.075 Q155.018 580.075 154.06 579.056 Z" fill="#000000" fill-rule="nonzero" fill-opacity="1" /><path clip-path="url(#clip950)" d="M168.851 550.339 L170.92 537.339 L172.495 537.339 Q172.681 538.111 172.989 538.45 Q173.329 538.79 175.12 539.068 Q176.942 539.346 180.616 539.346 L195.963 539.346 Q195.963 540.797 195.408 541.569 L186.854 553.581 Q184.137 557.379 182.932 564.389 Q182.222 569.082 182.253 574.764 L182.253 577.976 Q182.253 581.465 179.32 581.465 Q176.417 581.465 176.417 577.976 Q176.417 565.902 184.198 554.199 Q185.032 552.994 188.089 548.702 Q191.177 544.41 191.301 544.225 L178.208 544.225 Q172.464 544.225 172.001 544.595 Q171.384 545.151 170.426 550.339 L168.851 550.339 Z" fill="#000000" fill-rule="nonzero" fill-opacity="1" /><path clip-path="url(#clip950)" d="M200.07 569.885 Q200.07 568.002 201.089 567.291 Q202.108 566.55 203.189 566.55 Q204.64 566.55 205.474 567.477 Q206.339 568.372 206.339 569.638 Q206.339 570.904 205.474 571.831 Q204.64 572.726 203.189 572.726 Q202.479 572.726 202.108 572.603 Q202.942 575.505 205.474 577.605 Q208.037 579.705 211.403 579.705 Q215.633 579.705 218.166 575.598 Q219.679 572.942 219.679 566.921 Q219.679 561.61 218.536 558.954 Q216.776 554.909 213.163 554.909 Q208.037 554.909 205.011 559.325 Q204.64 559.88 204.208 559.911 Q203.591 559.911 203.436 559.572 Q203.313 559.201 203.313 558.244 L203.313 539.531 Q203.313 538.018 203.93 538.018 Q204.177 538.018 204.702 538.203 Q208.686 539.963 213.101 539.994 Q217.641 539.994 221.717 538.141 Q222.025 537.956 222.211 537.956 Q222.828 537.956 222.859 538.666 Q222.859 538.913 222.334 539.655 Q221.84 540.365 220.759 541.322 Q219.679 542.248 218.289 543.144 Q216.9 544.039 214.862 544.657 Q212.854 545.244 210.631 545.244 Q207.975 545.244 205.258 544.41 L205.258 556.731 Q208.531 553.519 213.287 553.519 Q218.351 553.519 221.84 557.595 Q225.33 561.671 225.33 567.353 Q225.33 573.313 221.192 577.389 Q217.085 581.465 211.527 581.465 Q206.462 581.465 203.251 577.852 Q200.07 574.239 200.07 569.885 Z" fill="#000000" fill-rule="nonzero" fill-opacity="1" /><path clip-path="url(#clip950)" d="M118.58 301.463 Q118.58 300.321 118.673 299.981 Q118.796 299.641 119.29 299.116 L131.426 285.591 Q138.065 278.119 138.065 271.603 Q138.065 267.373 135.842 264.346 Q133.649 261.32 129.604 261.32 Q126.825 261.32 124.478 263.019 Q122.131 264.717 121.05 267.743 Q121.236 267.681 121.884 267.681 Q123.459 267.681 124.324 268.67 Q125.219 269.658 125.219 270.985 Q125.219 272.684 124.108 273.518 Q123.027 274.32 121.946 274.32 Q121.514 274.32 120.927 274.228 Q120.371 274.135 119.476 273.271 Q118.58 272.375 118.58 270.8 Q118.58 266.384 121.915 262.864 Q125.281 259.344 130.407 259.344 Q136.212 259.344 140.01 262.802 Q143.839 266.23 143.839 271.603 Q143.839 273.487 143.253 275.216 Q142.697 276.914 141.925 278.242 Q141.184 279.57 139.146 281.701 Q137.108 283.831 135.471 285.344 Q133.834 286.857 130.16 290.069 L123.459 296.584 L134.853 296.584 Q140.412 296.584 140.844 296.09 Q141.462 295.195 142.234 290.47 L143.839 290.47 L142.048 301.463 L118.58 301.463 Z" fill="#000000" fill-rule="nonzero" fill-opacity="1" /><path clip-path="url(#clip950)" d="M153.381 300.444 Q152.424 299.425 152.424 298.097 Q152.424 296.77 153.381 295.812 Q154.338 294.824 155.79 294.824 Q157.179 294.824 158.106 295.751 Q159.063 296.646 159.063 298.128 Q159.063 299.58 158.044 300.537 Q157.056 301.463 155.79 301.463 Q154.338 301.463 153.381 300.444 Z" fill="#000000" fill-rule="nonzero" fill-opacity="1" /><path clip-path="url(#clip950)" d="M167.091 281.237 Q167.091 271.943 169.438 266.879 Q172.711 259.344 180.431 259.344 Q182.068 259.344 183.766 259.807 Q185.495 260.24 187.657 261.938 Q189.849 263.636 191.177 266.415 Q193.709 271.788 193.709 281.237 Q193.709 290.47 191.362 295.504 Q187.935 302.853 180.369 302.853 Q177.529 302.853 174.626 301.401 Q171.754 299.95 169.932 296.461 Q167.091 291.242 167.091 281.237 M172.341 280.465 Q172.341 290.007 173.02 293.805 Q173.792 297.912 175.892 299.703 Q178.023 301.463 180.369 301.463 Q182.902 301.463 185.001 299.58 Q187.132 297.665 187.78 293.558 Q188.491 289.513 188.46 280.465 Q188.46 271.665 187.842 268.145 Q187.008 264.038 184.785 262.401 Q182.593 260.734 180.369 260.734 Q179.536 260.734 178.64 260.981 Q177.776 261.228 176.51 261.938 Q175.243 262.648 174.255 264.408 Q173.298 266.168 172.835 268.824 Q172.341 272.252 172.341 280.465 Z" fill="#000000" fill-rule="nonzero" fill-opacity="1" /><path clip-path="url(#clip950)" d="M198.712 281.237 Q198.712 271.943 201.058 266.879 Q204.332 259.344 212.051 259.344 Q213.688 259.344 215.386 259.807 Q217.116 260.24 219.277 261.938 Q221.47 263.636 222.797 266.415 Q225.33 271.788 225.33 281.237 Q225.33 290.47 222.983 295.504 Q219.555 302.853 211.99 302.853 Q209.149 302.853 206.246 301.401 Q203.374 299.95 201.553 296.461 Q198.712 291.242 198.712 281.237 M203.961 280.465 Q203.961 290.007 204.64 293.805 Q205.412 297.912 207.512 299.703 Q209.643 301.463 211.99 301.463 Q214.522 301.463 216.622 299.58 Q218.752 297.665 219.401 293.558 Q220.111 289.513 220.08 280.465 Q220.08 271.665 219.463 268.145 Q218.629 264.038 216.405 262.401 Q214.213 260.734 211.99 260.734 Q211.156 260.734 210.261 260.981 Q209.396 261.228 208.13 261.938 Q206.864 262.648 205.876 264.408 Q204.918 266.168 204.455 268.824 Q203.961 272.252 203.961 280.465 Z" fill="#000000" fill-rule="nonzero" fill-opacity="1" /><path clip-path="url(#clip950)" d="M17.5075 718.305 Q18.5264 718.305 18.7372 718.762 Q18.948 719.184 18.948 720.729 Q18.948 723.364 19.2994 724.559 Q19.6156 725.718 20.1777 726.07 Q20.7047 726.386 22.2506 726.772 L61.1084 736.504 Q61.1436 736.504 61.6354 736.61 Q62.0922 736.715 62.3381 736.715 Q62.7948 736.715 63.0759 736.434 Q63.357 736.118 63.4975 735.345 Q63.6029 734.572 63.638 733.975 Q63.638 733.342 63.638 732.042 Q63.638 730.426 63.9191 730.18 Q64.0948 730.04 64.411 730.04 Q65.0785 730.04 65.4299 730.321 Q65.7461 730.567 65.8163 730.813 Q65.8515 731.024 65.8515 731.445 Q65.8515 732.183 65.7812 733.764 Q65.7109 735.345 65.7109 736.153 L65.6407 740.756 L65.8515 749.89 Q65.8515 750.874 65.0434 750.874 Q64.3407 750.874 64.0245 750.628 Q63.7083 750.382 63.6732 750.136 Q63.638 749.855 63.638 749.153 Q63.638 745.534 63.2867 744.339 Q62.9002 743.11 61.249 742.618 L41.3984 737.664 L41.3984 759.587 L61.1084 764.506 Q61.1436 764.506 61.6354 764.611 Q62.0922 764.717 62.3381 764.717 Q62.7948 764.717 63.0759 764.436 Q63.357 764.12 63.4975 763.347 Q63.6029 762.574 63.638 761.976 Q63.638 761.344 63.638 760.044 Q63.638 758.428 63.9191 758.147 Q64.0948 758.006 64.411 758.006 Q64.9029 758.006 65.2542 758.147 Q65.5704 758.252 65.6758 758.533 Q65.7812 758.779 65.8163 758.955 Q65.8515 759.131 65.8515 759.447 Q65.8515 760.185 65.7812 761.766 Q65.7109 763.311 65.7109 764.12 L65.6407 768.722 L65.8515 777.857 Q65.8515 778.876 65.0434 778.876 Q64.3407 778.876 64.0597 778.63 Q63.7434 778.384 63.7083 778.068 Q63.638 777.751 63.638 776.943 Q63.638 775.187 63.5326 774.133 Q63.4272 773.079 63.2867 772.411 Q63.111 771.708 62.6192 771.357 Q62.1273 770.971 61.7057 770.795 Q61.249 770.619 60.2301 770.373 L21.583 760.747 Q20.4236 760.466 20.248 760.466 Q19.5804 760.466 19.4048 760.887 Q19.194 761.274 19.0886 762.398 L18.948 765.138 Q18.948 765.982 18.9129 766.333 Q18.8778 766.649 18.7021 766.895 Q18.5264 767.141 18.14 767.141 Q17.6481 767.141 17.3319 767.036 Q16.9805 766.895 16.8751 766.649 Q16.7697 766.403 16.7346 766.228 Q16.6995 766.052 16.6995 765.771 L16.9103 756.495 L16.6995 747.29 Q16.6995 746.272 17.5075 746.272 Q18.5264 746.272 18.7372 746.728 Q18.948 747.185 18.948 748.731 Q18.948 751.296 19.2994 752.49 Q19.6156 753.685 20.1777 754.071 Q20.7398 754.423 22.2506 754.774 L39.1499 759.025 L39.1499 737.067 L21.583 732.745 Q20.3182 732.464 20.248 732.464 Q19.5804 732.464 19.4048 732.886 Q19.194 733.272 19.0886 734.396 L18.948 737.137 Q18.948 737.98 18.9129 738.331 Q18.8778 738.648 18.7021 738.929 Q18.5264 739.175 18.14 739.175 Q17.6481 739.175 17.3319 739.069 Q16.9805 738.929 16.8751 738.683 Q16.7697 738.437 16.7346 738.261 Q16.6995 738.085 16.6995 737.804 L16.9103 728.529 L16.6995 719.289 Q16.6995 718.305 17.5075 718.305 Z" fill="#000000" fill-rule="nonzero" fill-opacity="1" /><path clip-path="url(#clip950)" d="M57.0385 711.211 L55.4645 711.211 Q55.4645 705.161 52.2427 702.038 Q52.2427 701.177 52.4395 701.03 Q52.6362 700.882 53.5462 700.882 L81.8042 700.882 Q83.3044 700.882 83.7717 700.144 Q84.239 699.406 84.239 696.185 L84.239 694.586 L85.7883 694.586 Q85.6408 696.357 85.6408 702.751 Q85.6408 709.145 85.7883 710.892 L84.239 710.892 L84.239 709.293 Q84.239 706.12 83.7963 705.358 Q83.329 704.596 81.8042 704.596 L55.7104 704.596 Q57.0385 707.227 57.0385 711.211 Z" fill="#000000" fill-rule="nonzero" fill-opacity="1" /><polyline clip-path="url(#clip952)" style="stroke:#009af9; stroke-linecap:round; stroke-linejoin:round; stroke-width:4; stroke-opacity:1; fill:none" points="2293.56,255.275 2074.34,390.848 1855.11,544.425 1635.88,673.393 1416.66,873.249 1328.97,940.922 1285.12,935.823 1241.27,987.246 1197.43,991.354 1153.58,1104.22 1109.74,1109.37 1065.89,1129.36 978.202,1116.52 758.975,1215.76 320.521,1334.04 "/>
<path clip-path="url(#clip952)" d="M2277.56 239.275 L2277.56 271.275 L2309.56 271.275 L2309.56 239.275 L2277.56 239.275 Z" fill="#009af9" fill-rule="evenodd" fill-opacity="1" stroke="#000000" stroke-opacity="1" stroke-width="3.2"/>
<path clip-path="url(#clip952)" d="M2058.34 374.848 L2058.34 406.848 L2090.34 406.848 L2090.34 374.848 L2058.34 374.848 Z" fill="#009af9" fill-rule="evenodd" fill-opacity="1" stroke="#000000" stroke-opacity="1" stroke-width="3.2"/>
<path clip-path="url(#clip952)" d="M1839.11 528.425 L1839.11 560.425 L1871.11 560.425 L1871.11 528.425 L1839.11 528.425 Z" fill="#009af9" fill-rule="evenodd" fill-opacity="1" stroke="#000000" stroke-opacity="1" stroke-width="3.2"/>
<path clip-path="url(#clip952)" d="M1619.88 657.393 L1619.88 689.393 L1651.88 689.393 L1651.88 657.393 L1619.88 657.393 Z" fill="#009af9" fill-rule="evenodd" fill-opacity="1" stroke="#000000" stroke-opacity="1" stroke-width="3.2"/>
<path clip-path="url(#clip952)" d="M1400.66 857.249 L1400.66 889.249 L1432.66 889.249 L1432.66 857.249 L1400.66 857.249 Z" fill="#009af9" fill-rule="evenodd" fill-opacity="1" stroke="#000000" stroke-opacity="1" stroke-width="3.2"/>
<path clip-path="url(#clip952)" d="M1312.97 924.922 L1312.97 956.922 L1344.97 956.922 L1344.97 924.922 L1312.97 924.922 Z" fill="#009af9" fill-rule="evenodd" fill-opacity="1" stroke="#000000" stroke-opacity="1" stroke-width="3.2"/>
<path clip-path="url(#clip952)" d="M1269.12 919.823 L1269.12 951.823 L1301.12 951.823 L1301.12 919.823 L1269.12 919.823 Z" fill="#009af9" fill-rule="evenodd" fill-opacity="1" stroke="#000000" stroke-opacity="1" stroke-width="3.2"/>
<path clip-path="url(#clip952)" d="M1225.27 971.246 L1225.27 1003.25 L1257.27 1003.25 L1257.27 971.246 L1225.27 971.246 Z" fill="#009af9" fill-rule="evenodd" fill-opacity="1" stroke="#000000" stroke-opacity="1" stroke-width="3.2"/>
<path clip-path="url(#clip952)" d="M1181.43 975.354 L1181.43 1007.35 L1213.43 1007.35 L1213.43 975.354 L1181.43 975.354 Z" fill="#009af9" fill-rule="evenodd" fill-opacity="1" stroke="#000000" stroke-opacity="1" stroke-width="3.2"/>
<path clip-path="url(#clip952)" d="M1137.58 1088.22 L1137.58 1120.22 L1169.58 1120.22 L1169.58 1088.22 L1137.58 1088.22 Z" fill="#009af9" fill-rule="evenodd" fill-opacity="1" stroke="#000000" stroke-opacity="1" stroke-width="3.2"/>
<path clip-path="url(#clip952)" d="M1093.74 1093.37 L1093.74 1125.37 L1125.74 1125.37 L1125.74 1093.37 L1093.74 1093.37 Z" fill="#009af9" fill-rule="evenodd" fill-opacity="1" stroke="#000000" stroke-opacity="1" stroke-width="3.2"/>
<path clip-path="url(#clip952)" d="M1049.89 1113.36 L1049.89 1145.36 L1081.89 1145.36 L1081.89 1113.36 L1049.89 1113.36 Z" fill="#009af9" fill-rule="evenodd" fill-opacity="1" stroke="#000000" stroke-opacity="1" stroke-width="3.2"/>
<path clip-path="url(#clip952)" d="M962.202 1100.52 L962.202 1132.52 L994.202 1132.52 L994.202 1100.52 L962.202 1100.52 Z" fill="#009af9" fill-rule="evenodd" fill-opacity="1" stroke="#000000" stroke-opacity="1" stroke-width="3.2"/>
<path clip-path="url(#clip952)" d="M742.975 1199.76 L742.975 1231.76 L774.975 1231.76 L774.975 1199.76 L742.975 1199.76 Z" fill="#009af9" fill-rule="evenodd" fill-opacity="1" stroke="#000000" stroke-opacity="1" stroke-width="3.2"/>
<path clip-path="url(#clip952)" d="M304.521 1318.04 L304.521 1350.04 L336.521 1350.04 L336.521 1318.04 L304.521 1318.04 Z" fill="#009af9" fill-rule="evenodd" fill-opacity="1" stroke="#000000" stroke-opacity="1" stroke-width="3.2"/>
<polyline clip-path="url(#clip952)" style="stroke:#000000; stroke-linecap:round; stroke-linejoin:round; stroke-width:4; stroke-opacity:1; fill:none" points="2293.56,257.279 2293.56,253.271 "/>
<polyline clip-path="url(#clip952)" style="stroke:#000000; stroke-linecap:round; stroke-linejoin:round; stroke-width:4; stroke-opacity:1; fill:none" points="2074.34,394.9 2074.34,386.796 "/>
<polyline clip-path="url(#clip952)" style="stroke:#000000; stroke-linecap:round; stroke-linejoin:round; stroke-width:4; stroke-opacity:1; fill:none" points="1855.11,554.32 1855.11,534.53 "/>
<polyline clip-path="url(#clip952)" style="stroke:#000000; stroke-linecap:round; stroke-linejoin:round; stroke-width:4; stroke-opacity:1; fill:none" points="1635.88,684.742 1635.88,662.043 "/>
<polyline clip-path="url(#clip952)" style="stroke:#000000; stroke-linecap:round; stroke-linejoin:round; stroke-width:4; stroke-opacity:1; fill:none" points="1416.66,904.15 1416.66,842.349 "/>
<polyline clip-path="url(#clip952)" style="stroke:#000000; stroke-linecap:round; stroke-linejoin:round; stroke-width:4; stroke-opacity:1; fill:none" points="1328.97,965.147 1328.97,916.697 "/>
<polyline clip-path="url(#clip952)" style="stroke:#000000; stroke-linecap:round; stroke-linejoin:round; stroke-width:4; stroke-opacity:1; fill:none" points="1285.12,973.864 1285.12,897.783 "/>
<polyline clip-path="url(#clip952)" style="stroke:#000000; stroke-linecap:round; stroke-linejoin:round; stroke-width:4; stroke-opacity:1; fill:none" points="1241.27,1031.15 1241.27,943.339 "/>
<polyline clip-path="url(#clip952)" style="stroke:#000000; stroke-linecap:round; stroke-linejoin:round; stroke-width:4; stroke-opacity:1; fill:none" points="1197.43,1020.2 1197.43,962.505 "/>
<polyline clip-path="url(#clip952)" style="stroke:#000000; stroke-linecap:round; stroke-linejoin:round; stroke-width:4; stroke-opacity:1; fill:none" points="1153.58,1160.08 1153.58,1048.36 "/>
<polyline clip-path="url(#clip952)" style="stroke:#000000; stroke-linecap:round; stroke-linejoin:round; stroke-width:4; stroke-opacity:1; fill:none" points="1109.74,1177.66 1109.74,1041.09 "/>
<polyline clip-path="url(#clip952)" style="stroke:#000000; stroke-linecap:round; stroke-linejoin:round; stroke-width:4; stroke-opacity:1; fill:none" points="1065.89,1166.35 1065.89,1092.37 "/>
<polyline clip-path="url(#clip952)" style="stroke:#000000; stroke-linecap:round; stroke-linejoin:round; stroke-width:4; stroke-opacity:1; fill:none" points="978.202,1160.22 978.202,1072.83 "/>
<polyline clip-path="url(#clip952)" style="stroke:#000000; stroke-linecap:round; stroke-linejoin:round; stroke-width:4; stroke-opacity:1; fill:none" points="758.975,1244.04 758.975,1187.47 "/>
<polyline clip-path="url(#clip952)" style="stroke:#000000; stroke-linecap:round; stroke-linejoin:round; stroke-width:4; stroke-opacity:1; fill:none" points="320.521,1371.65 320.521,1296.43 "/>
<line clip-path="url(#clip952)" x1="2309.56" y1="257.279" x2="2277.56" y2="257.279" style="stroke:#000000; stroke-width:4; stroke-opacity:1"/>
<line clip-path="url(#clip952)" x1="2309.56" y1="253.271" x2="2277.56" y2="253.271" style="stroke:#000000; stroke-width:4; stroke-opacity:1"/>
<line clip-path="url(#clip952)" x1="2090.34" y1="394.9" x2="2058.34" y2="394.9" style="stroke:#000000; stroke-width:4; stroke-opacity:1"/>
<line clip-path="url(#clip952)" x1="2090.34" y1="386.796" x2="2058.34" y2="386.796" style="stroke:#000000; stroke-width:4; stroke-opacity:1"/>
<line clip-path="url(#clip952)" x1="1871.11" y1="554.32" x2="1839.11" y2="554.32" style="stroke:#000000; stroke-width:4; stroke-opacity:1"/>
<line clip-path="url(#clip952)" x1="1871.11" y1="534.53" x2="1839.11" y2="534.53" style="stroke:#000000; stroke-width:4; stroke-opacity:1"/>
<line clip-path="url(#clip952)" x1="1651.88" y1="684.742" x2="1619.88" y2="684.742" style="stroke:#000000; stroke-width:4; stroke-opacity:1"/>
<line clip-path="url(#clip952)" x1="1651.88" y1="662.043" x2="1619.88" y2="662.043" style="stroke:#000000; stroke-width:4; stroke-opacity:1"/>
<line clip-path="url(#clip952)" x1="1432.66" y1="904.15" x2="1400.66" y2="904.15" style="stroke:#000000; stroke-width:4; stroke-opacity:1"/>
<line clip-path="url(#clip952)" x1="1432.66" y1="842.349" x2="1400.66" y2="842.349" style="stroke:#000000; stroke-width:4; stroke-opacity:1"/>
<line clip-path="url(#clip952)" x1="1344.97" y1="965.147" x2="1312.97" y2="965.147" style="stroke:#000000; stroke-width:4; stroke-opacity:1"/>
<line clip-path="url(#clip952)" x1="1344.97" y1="916.697" x2="1312.97" y2="916.697" style="stroke:#000000; stroke-width:4; stroke-opacity:1"/>
<line clip-path="url(#clip952)" x1="1301.12" y1="973.864" x2="1269.12" y2="973.864" style="stroke:#000000; stroke-width:4; stroke-opacity:1"/>
<line clip-path="url(#clip952)" x1="1301.12" y1="897.783" x2="1269.12" y2="897.783" style="stroke:#000000; stroke-width:4; stroke-opacity:1"/>
<line clip-path="url(#clip952)" x1="1257.27" y1="1031.15" x2="1225.27" y2="1031.15" style="stroke:#000000; stroke-width:4; stroke-opacity:1"/>
<line clip-path="url(#clip952)" x1="1257.27" y1="943.339" x2="1225.27" y2="943.339" style="stroke:#000000; stroke-width:4; stroke-opacity:1"/>
<line clip-path="url(#clip952)" x1="1213.43" y1="1020.2" x2="1181.43" y2="1020.2" style="stroke:#000000; stroke-width:4; stroke-opacity:1"/>
<line clip-path="url(#clip952)" x1="1213.43" y1="962.505" x2="1181.43" y2="962.505" style="stroke:#000000; stroke-width:4; stroke-opacity:1"/>
<line clip-path="url(#clip952)" x1="1169.58" y1="1160.08" x2="1137.58" y2="1160.08" style="stroke:#000000; stroke-width:4; stroke-opacity:1"/>
<line clip-path="url(#clip952)" x1="1169.58" y1="1048.36" x2="1137.58" y2="1048.36" style="stroke:#000000; stroke-width:4; stroke-opacity:1"/>
<line clip-path="url(#clip952)" x1="1125.74" y1="1177.66" x2="1093.74" y2="1177.66" style="stroke:#000000; stroke-width:4; stroke-opacity:1"/>
<line clip-path="url(#clip952)" x1="1125.74" y1="1041.09" x2="1093.74" y2="1041.09" style="stroke:#000000; stroke-width:4; stroke-opacity:1"/>
<line clip-path="url(#clip952)" x1="1081.89" y1="1166.35" x2="1049.89" y2="1166.35" style="stroke:#000000; stroke-width:4; stroke-opacity:1"/>
<line clip-path="url(#clip952)" x1="1081.89" y1="1092.37" x2="1049.89" y2="1092.37" style="stroke:#000000; stroke-width:4; stroke-opacity:1"/>
<line clip-path="url(#clip952)" x1="994.202" y1="1160.22" x2="962.202" y2="1160.22" style="stroke:#000000; stroke-width:4; stroke-opacity:1"/>
<line clip-path="url(#clip952)" x1="994.202" y1="1072.83" x2="962.202" y2="1072.83" style="stroke:#000000; stroke-width:4; stroke-opacity:1"/>
<line clip-path="url(#clip952)" x1="774.975" y1="1244.04" x2="742.975" y2="1244.04" style="stroke:#000000; stroke-width:4; stroke-opacity:1"/>
<line clip-path="url(#clip952)" x1="774.975" y1="1187.47" x2="742.975" y2="1187.47" style="stroke:#000000; stroke-width:4; stroke-opacity:1"/>
<line clip-path="url(#clip952)" x1="336.521" y1="1371.65" x2="304.521" y2="1371.65" style="stroke:#000000; stroke-width:4; stroke-opacity:1"/>
<line clip-path="url(#clip952)" x1="336.521" y1="1296.43" x2="304.521" y2="1296.43" style="stroke:#000000; stroke-width:4; stroke-opacity:1"/>
<polyline clip-path="url(#clip952)" style="stroke:#e26f46; stroke-linecap:round; stroke-linejoin:round; stroke-width:4; stroke-opacity:1; fill:none" points="2293.56,101.005 2074.34,94.5545 1855.11,90.9064 1635.88,123.653 1416.66,140.992 1328.97,139.108 1285.12,131.301 1241.27,154.781 1197.43,165.428 1153.58,156.643 1109.74,156.637 1065.89,183.74 978.202,208.249 758.975,226.86 320.521,273.795 "/>
<circle clip-path="url(#clip952)" cx="2293.56" cy="101.005" r="18" fill="#e26f46" fill-rule="evenodd" fill-opacity="1" stroke="#000000" stroke-opacity="1" stroke-width="3.2"/>
<circle clip-path="url(#clip952)" cx="2074.34" cy="94.5545" r="18" fill="#e26f46" fill-rule="evenodd" fill-opacity="1" stroke="#000000" stroke-opacity="1" stroke-width="3.2"/>
<circle clip-path="url(#clip952)" cx="1855.11" cy="90.9064" r="18" fill="#e26f46" fill-rule="evenodd" fill-opacity="1" stroke="#000000" stroke-opacity="1" stroke-width="3.2"/>
<circle clip-path="url(#clip952)" cx="1635.88" cy="123.653" r="18" fill="#e26f46" fill-rule="evenodd" fill-opacity="1" stroke="#000000" stroke-opacity="1" stroke-width="3.2"/>
<circle clip-path="url(#clip952)" cx="1416.66" cy="140.992" r="18" fill="#e26f46" fill-rule="evenodd" fill-opacity="1" stroke="#000000" stroke-opacity="1" stroke-width="3.2"/>
<circle clip-path="url(#clip952)" cx="1328.97" cy="139.108" r="18" fill="#e26f46" fill-rule="evenodd" fill-opacity="1" stroke="#000000" stroke-opacity="1" stroke-width="3.2"/>
<circle clip-path="url(#clip952)" cx="1285.12" cy="131.301" r="18" fill="#e26f46" fill-rule="evenodd" fill-opacity="1" stroke="#000000" stroke-opacity="1" stroke-width="3.2"/>
<circle clip-path="url(#clip952)" cx="1241.27" cy="154.781" r="18" fill="#e26f46" fill-rule="evenodd" fill-opacity="1" stroke="#000000" stroke-opacity="1" stroke-width="3.2"/>
<circle clip-path="url(#clip952)" cx="1197.43" cy="165.428" r="18" fill="#e26f46" fill-rule="evenodd" fill-opacity="1" stroke="#000000" stroke-opacity="1" stroke-width="3.2"/>
<circle clip-path="url(#clip952)" cx="1153.58" cy="156.643" r="18" fill="#e26f46" fill-rule="evenodd" fill-opacity="1" stroke="#000000" stroke-opacity="1" stroke-width="3.2"/>
<circle clip-path="url(#clip952)" cx="1109.74" cy="156.637" r="18" fill="#e26f46" fill-rule="evenodd" fill-opacity="1" stroke="#000000" stroke-opacity="1" stroke-width="3.2"/>
<circle clip-path="url(#clip952)" cx="1065.89" cy="183.74" r="18" fill="#e26f46" fill-rule="evenodd" fill-opacity="1" stroke="#000000" stroke-opacity="1" stroke-width="3.2"/>
<circle clip-path="url(#clip952)" cx="978.202" cy="208.249" r="18" fill="#e26f46" fill-rule="evenodd" fill-opacity="1" stroke="#000000" stroke-opacity="1" stroke-width="3.2"/>
<circle clip-path="url(#clip952)" cx="758.975" cy="226.86" r="18" fill="#e26f46" fill-rule="evenodd" fill-opacity="1" stroke="#000000" stroke-opacity="1" stroke-width="3.2"/>
<circle clip-path="url(#clip952)" cx="320.521" cy="273.795" r="18" fill="#e26f46" fill-rule="evenodd" fill-opacity="1" stroke="#000000" stroke-opacity="1" stroke-width="3.2"/>
<polyline clip-path="url(#clip952)" style="stroke:#000000; stroke-linecap:round; stroke-linejoin:round; stroke-width:4; stroke-opacity:1; fill:none" points="2293.56,102.2 2293.56,99.811 "/>
<polyline clip-path="url(#clip952)" style="stroke:#000000; stroke-linecap:round; stroke-linejoin:round; stroke-width:4; stroke-opacity:1; fill:none" points="2074.34,96.4609 2074.34,92.6481 "/>
<polyline clip-path="url(#clip952)" style="stroke:#000000; stroke-linecap:round; stroke-linejoin:round; stroke-width:4; stroke-opacity:1; fill:none" points="1855.11,95.9938 1855.11,85.8189 "/>
<polyline clip-path="url(#clip952)" style="stroke:#000000; stroke-linecap:round; stroke-linejoin:round; stroke-width:4; stroke-opacity:1; fill:none" points="1635.88,127.177 1635.88,120.128 "/>
<polyline clip-path="url(#clip952)" style="stroke:#000000; stroke-linecap:round; stroke-linejoin:round; stroke-width:4; stroke-opacity:1; fill:none" points="1416.66,147.382 1416.66,134.603 "/>
<polyline clip-path="url(#clip952)" style="stroke:#000000; stroke-linecap:round; stroke-linejoin:round; stroke-width:4; stroke-opacity:1; fill:none" points="1328.97,145.797 1328.97,132.419 "/>
<polyline clip-path="url(#clip952)" style="stroke:#000000; stroke-linecap:round; stroke-linejoin:round; stroke-width:4; stroke-opacity:1; fill:none" points="1285.12,149.93 1285.12,112.672 "/>
<polyline clip-path="url(#clip952)" style="stroke:#000000; stroke-linecap:round; stroke-linejoin:round; stroke-width:4; stroke-opacity:1; fill:none" points="1241.27,161.101 1241.27,148.46 "/>
<polyline clip-path="url(#clip952)" style="stroke:#000000; stroke-linecap:round; stroke-linejoin:round; stroke-width:4; stroke-opacity:1; fill:none" points="1197.43,172.509 1197.43,158.347 "/>
<polyline clip-path="url(#clip952)" style="stroke:#000000; stroke-linecap:round; stroke-linejoin:round; stroke-width:4; stroke-opacity:1; fill:none" points="1153.58,166.399 1153.58,146.886 "/>
<polyline clip-path="url(#clip952)" style="stroke:#000000; stroke-linecap:round; stroke-linejoin:round; stroke-width:4; stroke-opacity:1; fill:none" points="1109.74,164.884 1109.74,148.391 "/>
<polyline clip-path="url(#clip952)" style="stroke:#000000; stroke-linecap:round; stroke-linejoin:round; stroke-width:4; stroke-opacity:1; fill:none" points="1065.89,192.717 1065.89,174.762 "/>
<polyline clip-path="url(#clip952)" style="stroke:#000000; stroke-linecap:round; stroke-linejoin:round; stroke-width:4; stroke-opacity:1; fill:none" points="978.202,234.209 978.202,182.288 "/>
<polyline clip-path="url(#clip952)" style="stroke:#000000; stroke-linecap:round; stroke-linejoin:round; stroke-width:4; stroke-opacity:1; fill:none" points="758.975,240.154 758.975,213.566 "/>
<polyline clip-path="url(#clip952)" style="stroke:#000000; stroke-linecap:round; stroke-linejoin:round; stroke-width:4; stroke-opacity:1; fill:none" points="320.521,291.654 320.521,255.936 "/>
<line clip-path="url(#clip952)" x1="2313.56" y1="102.2" x2="2273.56" y2="102.2" style="stroke:#000000; stroke-width:4; stroke-opacity:1"/>
<line clip-path="url(#clip952)" x1="2313.56" y1="99.811" x2="2273.56" y2="99.811" style="stroke:#000000; stroke-width:4; stroke-opacity:1"/>
<line clip-path="url(#clip952)" x1="2094.34" y1="96.4609" x2="2054.34" y2="96.4609" style="stroke:#000000; stroke-width:4; stroke-opacity:1"/>
<line clip-path="url(#clip952)" x1="2094.34" y1="92.6481" x2="2054.34" y2="92.6481" style="stroke:#000000; stroke-width:4; stroke-opacity:1"/>
<line clip-path="url(#clip952)" x1="1875.11" y1="95.9938" x2="1835.11" y2="95.9938" style="stroke:#000000; stroke-width:4; stroke-opacity:1"/>
<line clip-path="url(#clip952)" x1="1875.11" y1="85.8189" x2="1835.11" y2="85.8189" style="stroke:#000000; stroke-width:4; stroke-opacity:1"/>
<line clip-path="url(#clip952)" x1="1655.88" y1="127.177" x2="1615.88" y2="127.177" style="stroke:#000000; stroke-width:4; stroke-opacity:1"/>
<line clip-path="url(#clip952)" x1="1655.88" y1="120.128" x2="1615.88" y2="120.128" style="stroke:#000000; stroke-width:4; stroke-opacity:1"/>
<line clip-path="url(#clip952)" x1="1436.66" y1="147.382" x2="1396.66" y2="147.382" style="stroke:#000000; stroke-width:4; stroke-opacity:1"/>
<line clip-path="url(#clip952)" x1="1436.66" y1="134.603" x2="1396.66" y2="134.603" style="stroke:#000000; stroke-width:4; stroke-opacity:1"/>
<line clip-path="url(#clip952)" x1="1348.97" y1="145.797" x2="1308.97" y2="145.797" style="stroke:#000000; stroke-width:4; stroke-opacity:1"/>
<line clip-path="url(#clip952)" x1="1348.97" y1="132.419" x2="1308.97" y2="132.419" style="stroke:#000000; stroke-width:4; stroke-opacity:1"/>
<line clip-path="url(#clip952)" x1="1305.12" y1="149.93" x2="1265.12" y2="149.93" style="stroke:#000000; stroke-width:4; stroke-opacity:1"/>
<line clip-path="url(#clip952)" x1="1305.12" y1="112.672" x2="1265.12" y2="112.672" style="stroke:#000000; stroke-width:4; stroke-opacity:1"/>
<line clip-path="url(#clip952)" x1="1261.27" y1="161.101" x2="1221.27" y2="161.101" style="stroke:#000000; stroke-width:4; stroke-opacity:1"/>
<line clip-path="url(#clip952)" x1="1261.27" y1="148.46" x2="1221.27" y2="148.46" style="stroke:#000000; stroke-width:4; stroke-opacity:1"/>
<line clip-path="url(#clip952)" x1="1217.43" y1="172.509" x2="1177.43" y2="172.509" style="stroke:#000000; stroke-width:4; stroke-opacity:1"/>
<line clip-path="url(#clip952)" x1="1217.43" y1="158.347" x2="1177.43" y2="158.347" style="stroke:#000000; stroke-width:4; stroke-opacity:1"/>
<line clip-path="url(#clip952)" x1="1173.58" y1="166.399" x2="1133.58" y2="166.399" style="stroke:#000000; stroke-width:4; stroke-opacity:1"/>
<line clip-path="url(#clip952)" x1="1173.58" y1="146.886" x2="1133.58" y2="146.886" style="stroke:#000000; stroke-width:4; stroke-opacity:1"/>
<line clip-path="url(#clip952)" x1="1129.74" y1="164.884" x2="1089.74" y2="164.884" style="stroke:#000000; stroke-width:4; stroke-opacity:1"/>
<line clip-path="url(#clip952)" x1="1129.74" y1="148.391" x2="1089.74" y2="148.391" style="stroke:#000000; stroke-width:4; stroke-opacity:1"/>
<line clip-path="url(#clip952)" x1="1085.89" y1="192.717" x2="1045.89" y2="192.717" style="stroke:#000000; stroke-width:4; stroke-opacity:1"/>
<line clip-path="url(#clip952)" x1="1085.89" y1="174.762" x2="1045.89" y2="174.762" style="stroke:#000000; stroke-width:4; stroke-opacity:1"/>
<line clip-path="url(#clip952)" x1="998.202" y1="234.209" x2="958.202" y2="234.209" style="stroke:#000000; stroke-width:4; stroke-opacity:1"/>
<line clip-path="url(#clip952)" x1="998.202" y1="182.288" x2="958.202" y2="182.288" style="stroke:#000000; stroke-width:4; stroke-opacity:1"/>
<line clip-path="url(#clip952)" x1="778.975" y1="240.154" x2="738.975" y2="240.154" style="stroke:#000000; stroke-width:4; stroke-opacity:1"/>
<line clip-path="url(#clip952)" x1="778.975" y1="213.566" x2="738.975" y2="213.566" style="stroke:#000000; stroke-width:4; stroke-opacity:1"/>
<line clip-path="url(#clip952)" x1="340.521" y1="291.654" x2="300.521" y2="291.654" style="stroke:#000000; stroke-width:4; stroke-opacity:1"/>
<line clip-path="url(#clip952)" x1="340.521" y1="255.936" x2="300.521" y2="255.936" style="stroke:#000000; stroke-width:4; stroke-opacity:1"/>
<path clip-path="url(#clip950)" d="M1908.02 1364.79 L2283.04 1364.79 L2283.04 1130.04 L1908.02 1130.04  Z" fill="#ffffff" fill-rule="evenodd" fill-opacity="1"/>
<polyline clip-path="url(#clip950)" style="stroke:#000000; stroke-linecap:round; stroke-linejoin:round; stroke-width:4; stroke-opacity:0; fill:none" points="1908.02,1364.79 2283.04,1364.79 2283.04,1130.04 1908.02,1130.04 1908.02,1364.79 "/>
<polyline clip-path="url(#clip950)" style="stroke:#009af9; stroke-linecap:round; stroke-linejoin:round; stroke-width:6; stroke-opacity:1; fill:none" points="1931.26,1208.29 2070.69,1208.29 "/>
<path clip-path="url(#clip950)" d="M1986.72 1194.03 L1986.72 1222.54 L2015.23 1222.54 L2015.23 1194.03 L1986.72 1194.03 Z" fill="#009af9" fill-rule="evenodd" fill-opacity="1" stroke="#000000" stroke-opacity="1" stroke-width="6.82667"/>
<path clip-path="url(#clip950)" d="M2154.49 1169.51 Q2154.49 1170.53 2154.04 1170.74 Q2153.62 1170.95 2152.07 1170.95 Q2149.44 1170.95 2148.24 1171.3 Q2147.08 1171.62 2146.73 1172.18 Q2146.41 1172.7 2146.03 1174.25 L2136.3 1213.11 Q2136.3 1213.14 2136.19 1213.64 Q2136.08 1214.09 2136.08 1214.34 Q2136.08 1214.79 2136.37 1215.08 Q2136.68 1215.36 2137.45 1215.5 Q2138.23 1215.6 2138.82 1215.64 Q2139.46 1215.64 2140.76 1215.64 Q2142.37 1215.64 2142.62 1215.92 Q2142.76 1216.09 2142.76 1216.41 Q2142.76 1217.08 2142.48 1217.43 Q2142.23 1217.75 2141.99 1217.82 Q2141.78 1217.85 2141.35 1217.85 Q2140.62 1217.85 2139.04 1217.78 Q2137.45 1217.71 2136.65 1217.71 L2132.04 1217.64 L2122.91 1217.85 Q2121.93 1217.85 2121.93 1217.04 Q2121.93 1216.34 2122.17 1216.02 Q2122.42 1215.71 2122.66 1215.67 Q2122.94 1215.64 2123.65 1215.64 Q2127.27 1215.64 2128.46 1215.29 Q2129.69 1214.9 2130.18 1213.25 L2135.14 1193.4 L2113.21 1193.4 L2108.29 1213.11 Q2108.29 1213.14 2108.19 1213.64 Q2108.08 1214.09 2108.08 1214.34 Q2108.08 1214.79 2108.36 1215.08 Q2108.68 1215.36 2109.45 1215.5 Q2110.23 1215.6 2110.82 1215.64 Q2111.46 1215.64 2112.76 1215.64 Q2114.37 1215.64 2114.65 1215.92 Q2114.79 1216.09 2114.79 1216.41 Q2114.79 1216.9 2114.65 1217.25 Q2114.55 1217.57 2114.27 1217.68 Q2114.02 1217.78 2113.84 1217.82 Q2113.67 1217.85 2113.35 1217.85 Q2112.62 1217.85 2111.03 1217.78 Q2109.49 1217.71 2108.68 1217.71 L2104.08 1217.64 L2094.94 1217.85 Q2093.92 1217.85 2093.92 1217.04 Q2093.92 1216.34 2094.17 1216.06 Q2094.42 1215.74 2094.73 1215.71 Q2095.05 1215.64 2095.86 1215.64 Q2097.61 1215.64 2098.67 1215.53 Q2099.72 1215.43 2100.39 1215.29 Q2101.09 1215.11 2101.44 1214.62 Q2101.83 1214.13 2102 1213.71 Q2102.18 1213.25 2102.43 1212.23 L2112.05 1173.58 Q2112.33 1172.42 2112.33 1172.25 Q2112.33 1171.58 2111.91 1171.4 Q2111.53 1171.19 2110.4 1171.09 L2107.66 1170.95 Q2106.82 1170.95 2106.47 1170.91 Q2106.15 1170.88 2105.9 1170.7 Q2105.66 1170.53 2105.66 1170.14 Q2105.66 1169.65 2105.76 1169.33 Q2105.9 1168.98 2106.15 1168.88 Q2106.4 1168.77 2106.57 1168.73 Q2106.75 1168.7 2107.03 1168.7 L2116.3 1168.91 L2125.51 1168.7 Q2126.53 1168.7 2126.53 1169.51 Q2126.53 1170.53 2126.07 1170.74 Q2125.61 1170.95 2124.07 1170.95 Q2121.5 1170.95 2120.31 1171.3 Q2119.11 1171.62 2118.73 1172.18 Q2118.38 1172.74 2118.03 1174.25 L2113.77 1191.15 L2135.73 1191.15 L2140.05 1173.58 Q2140.34 1172.32 2140.34 1172.25 Q2140.34 1171.58 2139.91 1171.4 Q2139.53 1171.19 2138.4 1171.09 L2135.66 1170.95 Q2134.82 1170.95 2134.47 1170.91 Q2134.15 1170.88 2133.87 1170.7 Q2133.63 1170.53 2133.63 1170.14 Q2133.63 1169.65 2133.73 1169.33 Q2133.87 1168.98 2134.12 1168.88 Q2134.36 1168.77 2134.54 1168.73 Q2134.71 1168.7 2135 1168.7 L2144.27 1168.91 L2153.51 1168.7 Q2154.49 1168.7 2154.49 1169.51 Z" fill="#000000" fill-rule="nonzero" fill-opacity="1" /><path clip-path="url(#clip950)" d="M2161.59 1209.04 L2161.59 1207.46 Q2167.64 1207.46 2170.76 1204.24 Q2171.62 1204.24 2171.77 1204.44 Q2171.92 1204.64 2171.92 1205.55 L2171.92 1233.8 Q2171.92 1235.3 2172.66 1235.77 Q2173.39 1236.24 2176.62 1236.24 L2178.21 1236.24 L2178.21 1237.79 Q2176.44 1237.64 2170.05 1237.64 Q2163.65 1237.64 2161.91 1237.79 L2161.91 1236.24 L2163.51 1236.24 Q2166.68 1236.24 2167.44 1235.8 Q2168.2 1235.33 2168.2 1233.8 L2168.2 1207.71 Q2165.57 1209.04 2161.59 1209.04 Z" fill="#000000" fill-rule="nonzero" fill-opacity="1" /><path clip-path="url(#clip950)" d="M2187.24 1236.98 Q2186.53 1236.17 2186.53 1235.11 Q2186.53 1234.05 2187.22 1233.26 Q2187.93 1232.45 2189.21 1232.45 Q2190.71 1232.45 2191.57 1233.9 Q2192.43 1235.33 2192.43 1237.74 Q2192.43 1240.35 2191.38 1242.76 Q2190.32 1245.19 2189.29 1246.35 Q2188.25 1247.5 2187.83 1247.5 Q2187.34 1247.5 2187.34 1246.96 Q2187.34 1246.76 2187.69 1246.4 Q2191.3 1242.51 2191.33 1237.74 Q2191.33 1236.98 2191.23 1236.98 L2191.11 1237.08 Q2190.25 1237.79 2189.21 1237.79 Q2187.96 1237.79 2187.24 1236.98 Z" fill="#000000" fill-rule="nonzero" fill-opacity="1" /><path clip-path="url(#clip950)" d="M2249.6 1230.58 Q2249.6 1230.78 2249.37 1231.54 Q2249.15 1232.3 2248.61 1233.48 Q2248.1 1234.66 2247.36 1235.75 Q2246.64 1236.8 2245.46 1237.59 Q2244.31 1238.35 2242.98 1238.35 Q2241.21 1238.35 2240.03 1237.17 Q2238.85 1235.99 2238.85 1234.22 Q2238.85 1233.26 2239.51 1231.44 Q2242.64 1223.13 2242.64 1220.15 Q2242.64 1216.64 2239.91 1216.64 Q2238.36 1216.64 2236.95 1217.28 Q2235.55 1217.92 2234.64 1218.8 Q2233.73 1219.69 2233.02 1220.7 Q2232.31 1221.7 2231.99 1222.37 Q2231.69 1223.03 2231.62 1223.33 L2228.59 1235.48 Q2228.35 1236.51 2228.17 1237 Q2228 1237.49 2227.53 1237.91 Q2227.07 1238.35 2226.33 1238.35 Q2225.71 1238.35 2225.27 1237.99 Q2224.85 1237.62 2224.85 1236.98 Q2224.85 1236.88 2224.98 1236.36 Q2225.1 1235.85 2225.27 1235.13 Q2225.44 1234.42 2225.52 1234 Q2226.4 1230.66 2226.53 1230.19 L2227.93 1224.34 Q2228.69 1221.43 2228.69 1220.15 Q2228.69 1216.64 2225.96 1216.64 Q2224.61 1216.64 2223.33 1217.15 Q2222.08 1217.65 2221.21 1218.33 Q2220.35 1219.02 2219.57 1219.98 Q2218.8 1220.92 2218.41 1221.56 Q2218.04 1222.17 2217.75 1222.79 L2217.11 1225.29 Q2216.96 1225.98 2216.25 1228.66 L2215.14 1233.21 Q2214.35 1236.61 2214.18 1236.93 Q2213.93 1237.62 2213.39 1237.99 Q2212.85 1238.35 2212.31 1238.35 Q2211.7 1238.35 2211.28 1237.99 Q2210.86 1237.62 2210.86 1236.98 Q2210.86 1236.88 2210.93 1236.51 Q2211.01 1236.14 2211.13 1235.62 Q2211.25 1235.11 2211.3 1234.81 L2214.23 1223.18 Q2214.77 1221.06 2214.89 1220.4 Q2215.04 1219.71 2215.04 1218.95 Q2215.04 1216.64 2213.47 1216.64 Q2212.19 1216.64 2211.35 1218.16 Q2210.52 1219.69 2209.8 1222.64 Q2209.58 1223.45 2209.43 1223.62 Q2209.31 1223.79 2208.94 1223.79 Q2208.33 1223.77 2208.33 1223.28 Q2208.33 1223.16 2208.52 1222.37 Q2208.72 1221.58 2209.09 1220.4 Q2209.48 1219.2 2209.9 1218.41 Q2210.15 1217.89 2210.37 1217.55 Q2210.59 1217.2 2211.03 1216.66 Q2211.48 1216.12 2212.14 1215.83 Q2212.8 1215.53 2213.61 1215.53 Q2215.41 1215.53 2216.74 1216.69 Q2218.09 1217.84 2218.26 1219.91 Q2221.53 1215.53 2226.11 1215.53 Q2228.69 1215.53 2230.24 1216.83 Q2231.69 1218.09 2231.86 1220.4 Q2235.26 1215.53 2240.08 1215.53 Q2242.86 1215.53 2244.36 1216.98 Q2245.86 1218.41 2245.86 1220.92 Q2245.86 1222.22 2245.19 1224.7 Q2244.53 1227.16 2244.09 1228.39 Q2243.64 1229.62 2242.78 1231.98 Q2241.87 1234.25 2241.87 1235.57 Q2241.87 1236.44 2242.17 1236.83 Q2242.46 1237.22 2243.1 1237.22 Q2244.09 1237.22 2244.95 1236.66 Q2245.81 1236.07 2246.42 1235.11 Q2247.06 1234.12 2247.48 1233.14 Q2247.9 1232.13 2248.22 1231 Q2248.41 1230.39 2248.51 1230.24 Q2248.64 1230.09 2248.98 1230.09 Q2249.6 1230.09 2249.6 1230.58 Z" fill="#000000" fill-rule="nonzero" fill-opacity="1" /><polyline clip-path="url(#clip950)" style="stroke:#e26f46; stroke-linecap:round; stroke-linejoin:round; stroke-width:6; stroke-opacity:1; fill:none" points="1931.26,1286.54 2070.69,1286.54 "/>
<circle clip-path="url(#clip950)" cx="2000.97" cy="1286.54" r="12.8293" fill="#e26f46" fill-rule="evenodd" fill-opacity="1" stroke="#000000" stroke-opacity="1" stroke-width="5.58545"/>
<path clip-path="url(#clip950)" d="M2154.49 1247.76 Q2154.49 1248.78 2154.04 1248.99 Q2153.62 1249.2 2152.07 1249.2 Q2149.44 1249.2 2148.24 1249.55 Q2147.08 1249.86 2146.73 1250.43 Q2146.41 1250.95 2146.03 1252.5 L2136.3 1291.36 Q2136.3 1291.39 2136.19 1291.88 Q2136.08 1292.34 2136.08 1292.59 Q2136.08 1293.04 2136.37 1293.33 Q2136.68 1293.61 2137.45 1293.75 Q2138.23 1293.85 2138.82 1293.89 Q2139.46 1293.89 2140.76 1293.89 Q2142.37 1293.89 2142.62 1294.17 Q2142.76 1294.34 2142.76 1294.66 Q2142.76 1295.33 2142.48 1295.68 Q2142.23 1296 2141.99 1296.07 Q2141.78 1296.1 2141.35 1296.1 Q2140.62 1296.1 2139.04 1296.03 Q2137.45 1295.96 2136.65 1295.96 L2132.04 1295.89 L2122.91 1296.1 Q2121.93 1296.1 2121.93 1295.29 Q2121.93 1294.59 2122.17 1294.27 Q2122.42 1293.96 2122.66 1293.92 Q2122.94 1293.89 2123.65 1293.89 Q2127.27 1293.89 2128.46 1293.54 Q2129.69 1293.15 2130.18 1291.5 L2135.14 1271.65 L2113.21 1271.65 L2108.29 1291.36 Q2108.29 1291.39 2108.19 1291.88 Q2108.08 1292.34 2108.08 1292.59 Q2108.08 1293.04 2108.36 1293.33 Q2108.68 1293.61 2109.45 1293.75 Q2110.23 1293.85 2110.82 1293.89 Q2111.46 1293.89 2112.76 1293.89 Q2114.37 1293.89 2114.65 1294.17 Q2114.79 1294.34 2114.79 1294.66 Q2114.79 1295.15 2114.65 1295.5 Q2114.55 1295.82 2114.27 1295.93 Q2114.02 1296.03 2113.84 1296.07 Q2113.67 1296.1 2113.35 1296.1 Q2112.62 1296.1 2111.03 1296.03 Q2109.49 1295.96 2108.68 1295.96 L2104.08 1295.89 L2094.94 1296.1 Q2093.92 1296.1 2093.92 1295.29 Q2093.92 1294.59 2094.17 1294.31 Q2094.42 1293.99 2094.73 1293.96 Q2095.05 1293.89 2095.86 1293.89 Q2097.61 1293.89 2098.67 1293.78 Q2099.72 1293.68 2100.39 1293.54 Q2101.09 1293.36 2101.44 1292.87 Q2101.83 1292.38 2102 1291.95 Q2102.18 1291.5 2102.43 1290.48 L2112.05 1251.83 Q2112.33 1250.67 2112.33 1250.5 Q2112.33 1249.83 2111.91 1249.65 Q2111.53 1249.44 2110.4 1249.34 L2107.66 1249.2 Q2106.82 1249.2 2106.47 1249.16 Q2106.15 1249.13 2105.9 1248.95 Q2105.66 1248.78 2105.66 1248.39 Q2105.66 1247.9 2105.76 1247.58 Q2105.9 1247.23 2106.15 1247.12 Q2106.4 1247.02 2106.57 1246.98 Q2106.75 1246.95 2107.03 1246.95 L2116.3 1247.16 L2125.51 1246.95 Q2126.53 1246.95 2126.53 1247.76 Q2126.53 1248.78 2126.07 1248.99 Q2125.61 1249.2 2124.07 1249.2 Q2121.5 1249.2 2120.31 1249.55 Q2119.11 1249.86 2118.73 1250.43 Q2118.38 1250.99 2118.03 1252.5 L2113.77 1269.4 L2135.73 1269.4 L2140.05 1251.83 Q2140.34 1250.57 2140.34 1250.5 Q2140.34 1249.83 2139.91 1249.65 Q2139.53 1249.44 2138.4 1249.34 L2135.66 1249.2 Q2134.82 1249.2 2134.47 1249.16 Q2134.15 1249.13 2133.87 1248.95 Q2133.63 1248.78 2133.63 1248.39 Q2133.63 1247.9 2133.73 1247.58 Q2133.87 1247.23 2134.12 1247.12 Q2134.36 1247.02 2134.54 1246.98 Q2134.71 1246.95 2135 1246.95 L2144.27 1247.16 L2153.51 1246.95 Q2154.49 1246.95 2154.49 1247.76 Z" fill="#000000" fill-rule="nonzero" fill-opacity="1" /><path clip-path="url(#clip950)" d="M2161.59 1287.29 L2161.59 1285.71 Q2167.64 1285.71 2170.76 1282.49 Q2171.62 1282.49 2171.77 1282.69 Q2171.92 1282.89 2171.92 1283.8 L2171.92 1312.05 Q2171.92 1313.55 2172.66 1314.02 Q2173.39 1314.49 2176.62 1314.49 L2178.21 1314.49 L2178.21 1316.04 Q2176.44 1315.89 2170.05 1315.89 Q2163.65 1315.89 2161.91 1316.04 L2161.91 1314.49 L2163.51 1314.49 Q2166.68 1314.49 2167.44 1314.05 Q2168.2 1313.58 2168.2 1312.05 L2168.2 1285.96 Q2165.57 1287.29 2161.59 1287.29 Z" fill="#000000" fill-rule="nonzero" fill-opacity="1" /><path clip-path="url(#clip950)" d="M2187.24 1315.23 Q2186.53 1314.41 2186.53 1313.36 Q2186.53 1312.3 2187.22 1311.51 Q2187.93 1310.7 2189.21 1310.7 Q2190.71 1310.7 2191.57 1312.15 Q2192.43 1313.58 2192.43 1315.99 Q2192.43 1318.6 2191.38 1321.01 Q2190.32 1323.44 2189.29 1324.6 Q2188.25 1325.75 2187.83 1325.75 Q2187.34 1325.75 2187.34 1325.21 Q2187.34 1325.01 2187.69 1324.65 Q2191.3 1320.76 2191.33 1315.99 Q2191.33 1315.23 2191.23 1315.23 L2191.11 1315.32 Q2190.25 1316.04 2189.21 1316.04 Q2187.96 1316.04 2187.24 1315.23 Z" fill="#000000" fill-rule="nonzero" fill-opacity="1" /><path clip-path="url(#clip950)" d="M2235.63 1308.83 Q2235.63 1309.03 2235.4 1309.79 Q2235.18 1310.55 2234.64 1311.73 Q2234.13 1312.91 2233.41 1314 Q2232.7 1315.05 2231.52 1315.84 Q2230.36 1316.6 2229.04 1316.6 Q2227.26 1316.6 2226.08 1315.42 Q2224.9 1314.24 2224.9 1312.47 Q2224.9 1311.49 2225.42 1310.14 Q2228.69 1301.4 2228.69 1298.4 Q2228.69 1294.89 2225.96 1294.89 Q2224.61 1294.89 2223.33 1295.4 Q2222.08 1295.9 2221.21 1296.58 Q2220.35 1297.27 2219.57 1298.23 Q2218.8 1299.17 2218.41 1299.81 Q2218.04 1300.42 2217.75 1301.04 L2217.11 1303.54 Q2216.96 1304.23 2216.25 1306.91 L2215.14 1311.46 Q2214.35 1314.86 2214.18 1315.18 Q2213.93 1315.87 2213.39 1316.23 Q2212.85 1316.6 2212.31 1316.6 Q2211.7 1316.6 2211.28 1316.23 Q2210.86 1315.87 2210.86 1315.23 Q2210.86 1315.13 2210.93 1314.76 Q2211.01 1314.39 2211.13 1313.87 Q2211.25 1313.36 2211.3 1313.06 L2214.23 1301.43 Q2214.77 1299.31 2214.89 1298.65 Q2215.04 1297.96 2215.04 1297.2 Q2215.04 1294.89 2213.47 1294.89 Q2212.19 1294.89 2211.35 1296.41 Q2210.52 1297.94 2209.8 1300.89 Q2209.58 1301.7 2209.43 1301.87 Q2209.31 1302.04 2208.94 1302.04 Q2208.33 1302.02 2208.33 1301.53 Q2208.33 1301.4 2208.52 1300.59 Q2208.72 1299.78 2209.09 1298.63 Q2209.48 1297.44 2209.85 1296.66 Q2210.17 1296.07 2210.34 1295.8 Q2210.54 1295.5 2211.01 1294.94 Q2211.5 1294.35 2212.14 1294.08 Q2212.8 1293.78 2213.61 1293.78 Q2215.43 1293.78 2216.76 1294.96 Q2218.09 1296.12 2218.26 1298.16 Q2221.53 1293.78 2226.11 1293.78 Q2228.81 1293.78 2230.36 1295.21 Q2231.91 1296.63 2231.91 1299.17 Q2231.91 1299.76 2231.79 1300.52 Q2231.69 1301.26 2231.45 1302.19 Q2231.22 1303.13 2231.03 1303.84 Q2230.83 1304.55 2230.44 1305.71 Q2230.04 1306.84 2229.87 1307.33 Q2229.7 1307.82 2229.28 1308.98 Q2228.89 1310.11 2228.84 1310.23 Q2227.93 1312.52 2227.93 1313.82 Q2227.93 1314.68 2228.2 1315.08 Q2228.49 1315.47 2229.13 1315.47 Q2230.85 1315.47 2232.13 1313.78 Q2233.44 1312.05 2234.27 1309.25 Q2234.47 1308.63 2234.57 1308.49 Q2234.69 1308.34 2235.04 1308.34 Q2235.63 1308.34 2235.63 1308.83 Z" fill="#000000" fill-rule="nonzero" fill-opacity="1" /></svg>
