<?xml version="1.0" encoding="utf-8"?>
<svg xmlns="http://www.w3.org/2000/svg" xmlns:xlink="http://www.w3.org/1999/xlink" width="600" height="400" viewBox="0 0 2400 1600">
<defs>
  <clipPath id="clip580">
    <rect x="0" y="0" width="2400" height="1600"/>
  </clipPath>
</defs>
<path clip-path="url(#clip580)" d="M0 1600 L2400 1600 L2400 0 L0 0  Z" fill="#ffffff" fill-rule="evenodd" fill-opacity="1"/>
<defs>
  <clipPath id="clip581">
    <rect x="480" y="0" width="1681" height="1600"/>
  </clipPath>
</defs>
<defs>
  <clipPath id="clip582">
    <rect x="210" y="47" width="2143" height="1377"/>
  </clipPath>
</defs>
<path clip-path="url(#clip580)" d="M210.907 1423.18 L2352.76 1423.18 L2352.76 47.2441 L210.907 47.2441  Z" fill="#ffffff" fill-rule="evenodd" fill-opacity="1"/>
<polyline clip-path="url(#clip580)" style="stroke:#000000; stroke-linecap:round; stroke-linejoin:round; stroke-width:4; stroke-opacity:1; fill:none" points="210.907,1423.18 2352.76,1423.18 "/>
<polyline clip-path="url(#clip580)" style="stroke:#000000; stroke-linecap:round; stroke-linejoin:round; stroke-width:4; stroke-opacity:1; fill:none" points="210.907,47.2441 2352.76,47.2441 "/>
<polyline clip-path="url(#clip580)" style="stroke:#000000; stroke-linecap:round; stroke-linejoin:round; stroke-width:4; stroke-opacity:1; fill:none" points="608.294,1423.18 608.294,1404.28 "/>
<polyline clip-path="url(#clip580)" style="stroke:#000000; stroke-linecap:round; stroke-linejoin:round; stroke-width:4; stroke-opacity:1; fill:none" points="1029.25,1423.18 1029.25,1404.28 "/>
<polyline clip-path="url(#clip580)" style="stroke:#000000; stroke-linecap:round; stroke-linejoin:round; stroke-width:4; stroke-opacity:1; fill:none" points="1450.22,1423.18 1450.22,1404.28 "/>
<polyline clip-path="url(#clip580)" style="stroke:#000000; stroke-linecap:round; stroke-linejoin:round; stroke-width:4; stroke-opacity:1; fill:none" points="1871.18,1423.18 1871.18,1404.28 "/>
<polyline clip-path="url(#clip580)" style="stroke:#000000; stroke-linecap:round; stroke-linejoin:round; stroke-width:4; stroke-opacity:1; fill:none" points="2292.14,1423.18 2292.14,1404.28 "/>
<path clip-path="url(#clip580)" d="M579.478 1472.22 Q579.774 1472.51 579.774 1472.93 Q579.774 1473.35 579.478 1473.65 Q579.181 1473.94 578.761 1473.94 L547.091 1473.94 Q546.671 1473.94 546.375 1473.65 Q546.079 1473.35 546.079 1472.93 Q546.079 1472.51 546.375 1472.22 Q546.671 1471.92 547.091 1471.92 L578.761 1471.92 Q579.181 1471.92 579.478 1472.22 Z" fill="#000000" fill-rule="evenodd" fill-opacity="1" /><path clip-path="url(#clip580)" d="M587.086 1456.7 L587.086 1455.12 Q593.163 1455.12 596.301 1451.88 Q597.165 1451.88 597.313 1452.08 Q597.462 1452.28 597.462 1453.19 L597.462 1481.58 Q597.462 1483.08 598.203 1483.55 Q598.944 1484.02 602.18 1484.02 L603.786 1484.02 L603.786 1485.58 Q602.007 1485.43 595.584 1485.43 Q589.161 1485.43 587.407 1485.58 L587.407 1484.02 L589.013 1484.02 Q592.2 1484.02 592.966 1483.58 Q593.731 1483.11 593.731 1481.58 L593.731 1455.37 Q591.088 1456.7 587.086 1456.7 Z" fill="#000000" fill-rule="evenodd" fill-opacity="1" /><path clip-path="url(#clip580)" d="M609.863 1469.4 Q609.863 1461.96 611.74 1457.91 Q614.359 1451.88 620.534 1451.88 Q621.844 1451.88 623.202 1452.26 Q624.586 1452.6 626.315 1453.96 Q628.069 1455.32 629.131 1457.54 Q631.157 1461.84 631.157 1469.4 Q631.157 1476.79 629.279 1480.81 Q626.537 1486.69 620.485 1486.69 Q618.212 1486.69 615.89 1485.53 Q613.593 1484.37 612.135 1481.58 Q609.863 1477.4 609.863 1469.4 M614.062 1468.78 Q614.062 1476.41 614.606 1479.45 Q615.223 1482.74 616.903 1484.17 Q618.608 1485.58 620.485 1485.58 Q622.511 1485.58 624.191 1484.07 Q625.895 1482.54 626.414 1479.26 Q626.982 1476.02 626.957 1468.78 Q626.957 1461.74 626.463 1458.92 Q625.796 1455.64 624.018 1454.33 Q622.264 1453 620.485 1453 Q619.818 1453 619.102 1453.19 Q618.41 1453.39 617.397 1453.96 Q616.384 1454.53 615.594 1455.94 Q614.828 1457.34 614.457 1459.47 Q614.062 1462.21 614.062 1468.78 Z" fill="#000000" fill-rule="evenodd" fill-opacity="1" /><path clip-path="url(#clip580)" d="M638.247 1484.76 Q637.481 1483.95 637.481 1482.89 Q637.481 1481.82 638.247 1481.06 Q639.013 1480.27 640.174 1480.27 Q641.285 1480.27 642.026 1481.01 Q642.792 1481.73 642.792 1482.91 Q642.792 1484.07 641.977 1484.84 Q641.187 1485.58 640.174 1485.58 Q639.013 1485.58 638.247 1484.76 Z" fill="#000000" fill-rule="evenodd" fill-opacity="1" /><path clip-path="url(#clip580)" d="M649.215 1469.4 Q649.215 1461.96 651.093 1457.91 Q653.711 1451.88 659.887 1451.88 Q661.196 1451.88 662.555 1452.26 Q663.938 1452.6 665.668 1453.96 Q667.421 1455.32 668.484 1457.54 Q670.509 1461.84 670.509 1469.4 Q670.509 1476.79 668.632 1480.81 Q665.89 1486.69 659.838 1486.69 Q657.565 1486.69 655.243 1485.53 Q652.945 1484.37 651.488 1481.58 Q649.215 1477.4 649.215 1469.4 M653.415 1468.78 Q653.415 1476.41 653.958 1479.45 Q654.576 1482.74 656.256 1484.17 Q657.96 1485.58 659.838 1485.58 Q661.863 1485.58 663.543 1484.07 Q665.248 1482.54 665.766 1479.26 Q666.335 1476.02 666.31 1468.78 Q666.31 1461.74 665.816 1458.92 Q665.149 1455.64 663.37 1454.33 Q661.616 1453 659.838 1453 Q659.171 1453 658.454 1453.19 Q657.762 1453.39 656.75 1453.96 Q655.737 1454.53 654.946 1455.94 Q654.18 1457.34 653.81 1459.47 Q653.415 1462.21 653.415 1468.78 Z" fill="#000000" fill-rule="evenodd" fill-opacity="1" /><path clip-path="url(#clip580)" d="M1013.36 1472.22 Q1013.65 1472.51 1013.65 1472.93 Q1013.65 1473.35 1013.36 1473.65 Q1013.06 1473.94 1012.64 1473.94 L980.972 1473.94 Q980.552 1473.94 980.256 1473.65 Q979.959 1473.35 979.959 1472.93 Q979.959 1472.51 980.256 1472.22 Q980.552 1471.92 980.972 1471.92 L1012.64 1471.92 Q1013.06 1471.92 1013.36 1472.22 Z" fill="#000000" fill-rule="evenodd" fill-opacity="1" /><path clip-path="url(#clip580)" d="M1019.31 1461.79 L1020.97 1451.39 L1022.23 1451.39 Q1022.37 1452.01 1022.62 1452.28 Q1022.89 1452.55 1024.33 1452.77 Q1025.78 1453 1028.72 1453 L1041 1453 Q1041 1454.16 1040.56 1454.77 L1033.71 1464.38 Q1031.54 1467.42 1030.58 1473.03 Q1030.01 1476.79 1030.03 1481.33 L1030.03 1483.9 Q1030.03 1486.69 1027.69 1486.69 Q1025.36 1486.69 1025.36 1483.9 Q1025.36 1474.24 1031.59 1464.88 Q1032.26 1463.91 1034.7 1460.48 Q1037.17 1457.05 1037.27 1456.9 L1026.8 1456.9 Q1022.2 1456.9 1021.83 1457.2 Q1021.34 1457.64 1020.57 1461.79 L1019.31 1461.79 Z" fill="#000000" fill-rule="evenodd" fill-opacity="1" /><path clip-path="url(#clip580)" d="M1046.83 1484.76 Q1046.07 1483.95 1046.07 1482.89 Q1046.07 1481.82 1046.83 1481.06 Q1047.6 1480.27 1048.76 1480.27 Q1049.87 1480.27 1050.61 1481.01 Q1051.38 1481.73 1051.38 1482.91 Q1051.38 1484.07 1050.56 1484.84 Q1049.77 1485.58 1048.76 1485.58 Q1047.6 1485.58 1046.83 1484.76 Z" fill="#000000" fill-rule="evenodd" fill-opacity="1" /><path clip-path="url(#clip580)" d="M1058.34 1477.43 Q1058.34 1475.92 1059.16 1475.35 Q1059.97 1474.76 1060.84 1474.76 Q1062 1474.76 1062.67 1475.5 Q1063.36 1476.22 1063.36 1477.23 Q1063.36 1478.24 1062.67 1478.98 Q1062 1479.7 1060.84 1479.7 Q1060.27 1479.7 1059.97 1479.6 Q1060.64 1481.92 1062.67 1483.6 Q1064.72 1485.28 1067.41 1485.28 Q1070.79 1485.28 1072.82 1482 Q1074.03 1479.87 1074.03 1475.06 Q1074.03 1470.81 1073.12 1468.68 Q1071.71 1465.45 1068.82 1465.45 Q1064.72 1465.45 1062.3 1468.98 Q1062 1469.42 1061.65 1469.45 Q1061.16 1469.45 1061.04 1469.18 Q1060.94 1468.88 1060.94 1468.11 L1060.94 1453.14 Q1060.94 1451.93 1061.43 1451.93 Q1061.63 1451.93 1062.05 1452.08 Q1065.24 1453.49 1068.77 1453.51 Q1072.4 1453.51 1075.66 1452.03 Q1075.91 1451.88 1076.06 1451.88 Q1076.55 1451.88 1076.57 1452.45 Q1076.57 1452.65 1076.15 1453.24 Q1075.76 1453.81 1074.89 1454.58 Q1074.03 1455.32 1072.92 1456.03 Q1071.81 1456.75 1070.18 1457.25 Q1068.57 1457.71 1066.79 1457.71 Q1064.67 1457.71 1062.49 1457.05 L1062.49 1466.9 Q1065.11 1464.33 1068.92 1464.33 Q1072.97 1464.33 1075.76 1467.6 Q1078.55 1470.86 1078.55 1475.4 Q1078.55 1480.17 1075.24 1483.43 Q1071.95 1486.69 1067.51 1486.69 Q1063.46 1486.69 1060.89 1483.8 Q1058.34 1480.91 1058.34 1477.43 Z" fill="#000000" fill-rule="evenodd" fill-opacity="1" /><path clip-path="url(#clip580)" d="M1434.05 1472.22 Q1434.34 1472.51 1434.34 1472.93 Q1434.34 1473.35 1434.05 1473.65 Q1433.75 1473.94 1433.33 1473.94 L1401.66 1473.94 Q1401.24 1473.94 1400.94 1473.65 Q1400.65 1473.35 1400.65 1472.93 Q1400.65 1472.51 1400.94 1472.22 Q1401.24 1471.92 1401.66 1471.92 L1433.33 1471.92 Q1433.75 1471.92 1434.05 1472.22 Z" fill="#000000" fill-rule="evenodd" fill-opacity="1" /><path clip-path="url(#clip580)" d="M1439.68 1477.43 Q1439.68 1475.92 1440.49 1475.35 Q1441.31 1474.76 1442.17 1474.76 Q1443.34 1474.76 1444 1475.5 Q1444.69 1476.22 1444.69 1477.23 Q1444.69 1478.24 1444 1478.98 Q1443.34 1479.7 1442.17 1479.7 Q1441.61 1479.7 1441.31 1479.6 Q1441.98 1481.92 1444 1483.6 Q1446.05 1485.28 1448.75 1485.28 Q1452.13 1485.28 1454.16 1482 Q1455.37 1479.87 1455.37 1475.06 Q1455.37 1470.81 1454.45 1468.68 Q1453.04 1465.45 1450.15 1465.45 Q1446.05 1465.45 1443.63 1468.98 Q1443.34 1469.42 1442.99 1469.45 Q1442.5 1469.45 1442.37 1469.18 Q1442.27 1468.88 1442.27 1468.11 L1442.27 1453.14 Q1442.27 1451.93 1442.77 1451.93 Q1442.97 1451.93 1443.39 1452.08 Q1446.57 1453.49 1450.1 1453.51 Q1453.74 1453.51 1457 1452.03 Q1457.24 1451.88 1457.39 1451.88 Q1457.89 1451.88 1457.91 1452.45 Q1457.91 1452.65 1457.49 1453.24 Q1457.1 1453.81 1456.23 1454.58 Q1455.37 1455.32 1454.25 1456.03 Q1453.14 1456.75 1451.51 1457.25 Q1449.91 1457.71 1448.13 1457.71 Q1446 1457.71 1443.83 1457.05 L1443.83 1466.9 Q1446.45 1464.33 1450.25 1464.33 Q1454.3 1464.33 1457.1 1467.6 Q1459.89 1470.86 1459.89 1475.4 Q1459.89 1480.17 1456.58 1483.43 Q1453.29 1486.69 1448.84 1486.69 Q1444.79 1486.69 1442.22 1483.8 Q1439.68 1480.91 1439.68 1477.43 Z" fill="#000000" fill-rule="evenodd" fill-opacity="1" /><path clip-path="url(#clip580)" d="M1467.52 1484.76 Q1466.75 1483.95 1466.75 1482.89 Q1466.75 1481.82 1467.52 1481.06 Q1468.29 1480.27 1469.45 1480.27 Q1470.56 1480.27 1471.3 1481.01 Q1472.07 1481.73 1472.07 1482.91 Q1472.07 1484.07 1471.25 1484.84 Q1470.46 1485.58 1469.45 1485.58 Q1468.29 1485.58 1467.52 1484.76 Z" fill="#000000" fill-rule="evenodd" fill-opacity="1" /><path clip-path="url(#clip580)" d="M1478.49 1469.4 Q1478.49 1461.96 1480.37 1457.91 Q1482.98 1451.88 1489.16 1451.88 Q1490.47 1451.88 1491.83 1452.26 Q1493.21 1452.6 1494.94 1453.96 Q1496.7 1455.32 1497.76 1457.54 Q1499.78 1461.84 1499.78 1469.4 Q1499.78 1476.79 1497.91 1480.81 Q1495.16 1486.69 1489.11 1486.69 Q1486.84 1486.69 1484.52 1485.53 Q1482.22 1484.37 1480.76 1481.58 Q1478.49 1477.4 1478.49 1469.4 M1482.69 1468.78 Q1482.69 1476.41 1483.23 1479.45 Q1483.85 1482.74 1485.53 1484.17 Q1487.23 1485.58 1489.11 1485.58 Q1491.14 1485.58 1492.82 1484.07 Q1494.52 1482.54 1495.04 1479.26 Q1495.61 1476.02 1495.58 1468.78 Q1495.58 1461.74 1495.09 1458.92 Q1494.42 1455.64 1492.64 1454.33 Q1490.89 1453 1489.11 1453 Q1488.44 1453 1487.73 1453.19 Q1487.04 1453.39 1486.02 1453.96 Q1485.01 1454.53 1484.22 1455.94 Q1483.45 1457.34 1483.08 1459.47 Q1482.69 1462.21 1482.69 1468.78 Z" fill="#000000" fill-rule="evenodd" fill-opacity="1" /><path clip-path="url(#clip580)" d="M1855.28 1472.22 Q1855.58 1472.51 1855.58 1472.93 Q1855.58 1473.35 1855.28 1473.65 Q1854.98 1473.94 1854.56 1473.94 L1822.89 1473.94 Q1822.47 1473.94 1822.18 1473.65 Q1821.88 1473.35 1821.88 1472.93 Q1821.88 1472.51 1822.18 1472.22 Q1822.47 1471.92 1822.89 1471.92 L1854.56 1471.92 Q1854.98 1471.92 1855.28 1472.22 Z" fill="#000000" fill-rule="evenodd" fill-opacity="1" /><path clip-path="url(#clip580)" d="M1860.91 1485.58 Q1860.91 1484.67 1860.99 1484.39 Q1861.09 1484.12 1861.48 1483.7 L1871.19 1472.88 Q1876.5 1466.9 1876.5 1461.69 Q1876.5 1458.31 1874.72 1455.89 Q1872.97 1453.47 1869.73 1453.47 Q1867.51 1453.47 1865.63 1454.82 Q1863.75 1456.18 1862.89 1458.6 Q1863.04 1458.55 1863.56 1458.55 Q1864.82 1458.55 1865.51 1459.34 Q1866.22 1460.14 1866.22 1461.2 Q1866.22 1462.56 1865.33 1463.22 Q1864.47 1463.87 1863.61 1463.87 Q1863.26 1463.87 1862.79 1463.79 Q1862.35 1463.72 1861.63 1463.03 Q1860.91 1462.31 1860.91 1461.05 Q1860.91 1457.52 1863.58 1454.7 Q1866.27 1451.88 1870.37 1451.88 Q1875.02 1451.88 1878.06 1454.65 Q1881.12 1457.39 1881.12 1461.69 Q1881.12 1463.2 1880.65 1464.58 Q1880.21 1465.94 1879.59 1467 Q1879 1468.07 1877.36 1469.77 Q1875.73 1471.47 1874.43 1472.68 Q1873.12 1473.9 1870.18 1476.46 L1864.82 1481.68 L1873.93 1481.68 Q1878.38 1481.68 1878.72 1481.28 Q1879.22 1480.57 1879.84 1476.79 L1881.12 1476.79 L1879.69 1485.58 L1860.91 1485.58 Z" fill="#000000" fill-rule="evenodd" fill-opacity="1" /><path clip-path="url(#clip580)" d="M1888.75 1484.76 Q1887.99 1483.95 1887.99 1482.89 Q1887.99 1481.82 1888.75 1481.06 Q1889.52 1480.27 1890.68 1480.27 Q1891.79 1480.27 1892.53 1481.01 Q1893.3 1481.73 1893.3 1482.91 Q1893.3 1484.07 1892.48 1484.84 Q1891.69 1485.58 1890.68 1485.58 Q1889.52 1485.58 1888.75 1484.76 Z" fill="#000000" fill-rule="evenodd" fill-opacity="1" /><path clip-path="url(#clip580)" d="M1900.26 1477.43 Q1900.26 1475.92 1901.08 1475.35 Q1901.9 1474.76 1902.76 1474.76 Q1903.92 1474.76 1904.59 1475.5 Q1905.28 1476.22 1905.28 1477.23 Q1905.28 1478.24 1904.59 1478.98 Q1903.92 1479.7 1902.76 1479.7 Q1902.19 1479.7 1901.9 1479.6 Q1902.56 1481.92 1904.59 1483.6 Q1906.64 1485.28 1909.33 1485.28 Q1912.72 1485.28 1914.74 1482 Q1915.95 1479.87 1915.95 1475.06 Q1915.95 1470.81 1915.04 1468.68 Q1913.63 1465.45 1910.74 1465.45 Q1906.64 1465.45 1904.22 1468.98 Q1903.92 1469.42 1903.58 1469.45 Q1903.08 1469.45 1902.96 1469.18 Q1902.86 1468.88 1902.86 1468.11 L1902.86 1453.14 Q1902.86 1451.93 1903.35 1451.93 Q1903.55 1451.93 1903.97 1452.08 Q1907.16 1453.49 1910.69 1453.51 Q1914.32 1453.51 1917.58 1452.03 Q1917.83 1451.88 1917.98 1451.88 Q1918.47 1451.88 1918.5 1452.45 Q1918.5 1452.65 1918.08 1453.24 Q1917.68 1453.81 1916.82 1454.58 Q1915.95 1455.32 1914.84 1456.03 Q1913.73 1456.75 1912.1 1457.25 Q1910.49 1457.71 1908.71 1457.71 Q1906.59 1457.71 1904.42 1457.05 L1904.42 1466.9 Q1907.03 1464.33 1910.84 1464.33 Q1914.89 1464.33 1917.68 1467.6 Q1920.47 1470.86 1920.47 1475.4 Q1920.47 1480.17 1917.16 1483.43 Q1913.88 1486.69 1909.43 1486.69 Q1905.38 1486.69 1902.81 1483.8 Q1900.26 1480.91 1900.26 1477.43 Z" fill="#000000" fill-rule="evenodd" fill-opacity="1" /><path clip-path="url(#clip580)" d="M2261.81 1469.4 Q2261.81 1461.96 2263.69 1457.91 Q2266.31 1451.88 2272.49 1451.88 Q2273.8 1451.88 2275.15 1452.26 Q2276.54 1452.6 2278.27 1453.96 Q2280.02 1455.32 2281.08 1457.54 Q2283.11 1461.84 2283.11 1469.4 Q2283.11 1476.79 2281.23 1480.81 Q2278.49 1486.69 2272.44 1486.69 Q2270.16 1486.69 2267.84 1485.53 Q2265.54 1484.37 2264.09 1481.58 Q2261.81 1477.4 2261.81 1469.4 M2266.01 1468.78 Q2266.01 1476.41 2266.56 1479.45 Q2267.17 1482.74 2268.85 1484.17 Q2270.56 1485.58 2272.44 1485.58 Q2274.46 1485.58 2276.14 1484.07 Q2277.85 1482.54 2278.37 1479.26 Q2278.93 1476.02 2278.91 1468.78 Q2278.91 1461.74 2278.41 1458.92 Q2277.75 1455.64 2275.97 1454.33 Q2274.22 1453 2272.44 1453 Q2271.77 1453 2271.05 1453.19 Q2270.36 1453.39 2269.35 1453.96 Q2268.34 1454.53 2267.55 1455.94 Q2266.78 1457.34 2266.41 1459.47 Q2266.01 1462.21 2266.01 1468.78 Z" fill="#000000" fill-rule="evenodd" fill-opacity="1" /><path clip-path="url(#clip580)" d="M2290.2 1484.76 Q2289.43 1483.95 2289.43 1482.89 Q2289.43 1481.82 2290.2 1481.06 Q2290.96 1480.27 2292.13 1480.27 Q2293.24 1480.27 2293.98 1481.01 Q2294.74 1481.73 2294.74 1482.91 Q2294.74 1484.07 2293.93 1484.84 Q2293.14 1485.58 2292.13 1485.58 Q2290.96 1485.58 2290.2 1484.76 Z" fill="#000000" fill-rule="evenodd" fill-opacity="1" /><path clip-path="url(#clip580)" d="M2301.17 1469.4 Q2301.17 1461.96 2303.04 1457.91 Q2305.66 1451.88 2311.84 1451.88 Q2313.15 1451.88 2314.51 1452.26 Q2315.89 1452.6 2317.62 1453.96 Q2319.37 1455.32 2320.44 1457.54 Q2322.46 1461.84 2322.46 1469.4 Q2322.46 1476.79 2320.58 1480.81 Q2317.84 1486.69 2311.79 1486.69 Q2309.52 1486.69 2307.19 1485.53 Q2304.9 1484.37 2303.44 1481.58 Q2301.17 1477.4 2301.17 1469.4 M2305.37 1468.78 Q2305.37 1476.41 2305.91 1479.45 Q2306.53 1482.74 2308.21 1484.17 Q2309.91 1485.58 2311.79 1485.58 Q2313.81 1485.58 2315.49 1484.07 Q2317.2 1482.54 2317.72 1479.26 Q2318.29 1476.02 2318.26 1468.78 Q2318.26 1461.74 2317.77 1458.92 Q2317.1 1455.64 2315.32 1454.33 Q2313.57 1453 2311.79 1453 Q2311.12 1453 2310.41 1453.19 Q2309.71 1453.39 2308.7 1453.96 Q2307.69 1454.53 2306.9 1455.94 Q2306.13 1457.34 2305.76 1459.47 Q2305.37 1462.21 2305.37 1468.78 Z" fill="#000000" fill-rule="evenodd" fill-opacity="1" /><path clip-path="url(#clip580)" d="M1305.23 1516.81 Q1305.23 1518.13 1304.14 1518.13 Q1302.21 1518.2 1300.89 1518.58 Q1299.57 1518.94 1298.79 1519.64 Q1298.05 1520.35 1297.63 1521.13 Q1297.25 1521.87 1296.99 1522.99 L1291.13 1546.41 Q1289.45 1553.01 1284.04 1557.81 Q1278.63 1562.57 1272.48 1562.57 Q1268.97 1562.57 1266.04 1561.13 Q1263.14 1559.68 1261.34 1556.75 Q1259.53 1553.81 1259.53 1549.92 Q1259.53 1548.05 1260.02 1546.09 L1264.01 1529.79 L1265.49 1523.99 Q1266.59 1519.71 1266.59 1519.32 Q1266.59 1518.71 1266.2 1518.55 Q1265.85 1518.36 1264.82 1518.26 L1262.3 1518.13 Q1261.53 1518.13 1261.21 1518.1 Q1260.92 1518.07 1260.69 1517.91 Q1260.47 1517.74 1260.47 1517.39 Q1260.47 1516.94 1260.56 1516.65 Q1260.69 1516.33 1260.92 1516.23 Q1261.14 1516.13 1261.31 1516.1 Q1261.47 1516.07 1261.72 1516.07 L1270.23 1516.26 L1278.66 1516.07 Q1279.6 1516.07 1279.6 1516.81 Q1279.6 1517.74 1279.18 1517.94 Q1278.76 1518.13 1277.34 1518.13 Q1274.93 1518.13 1273.83 1518.45 Q1272.77 1518.74 1272.45 1519.26 Q1272.16 1519.74 1271.8 1521.16 L1265.4 1546.83 Q1265.07 1548.11 1264.88 1549.4 Q1264.72 1550.66 1264.72 1551.3 L1264.69 1551.95 Q1264.69 1556.04 1266.94 1558.29 Q1269.23 1560.55 1272.74 1560.55 Q1277.89 1560.55 1282.69 1556.46 Q1287.52 1552.37 1289.16 1545.96 L1295.09 1522.41 Q1295.28 1521.83 1295.28 1521.03 Q1295.28 1519.74 1294.32 1518.97 Q1293.38 1518.16 1290.81 1518.13 Q1289.61 1518.13 1289.61 1517.39 Q1289.61 1516.78 1289.84 1516.49 Q1290.1 1516.17 1290.29 1516.13 Q1290.52 1516.07 1290.81 1516.07 Q1291.9 1516.07 1294.22 1516.17 Q1296.54 1516.26 1297.67 1516.26 Q1298.79 1516.26 1301.05 1516.17 Q1303.3 1516.07 1304.4 1516.07 Q1304.78 1516.07 1304.98 1516.26 Q1305.2 1516.42 1305.23 1516.62 L1305.23 1516.81 Z" fill="#000000" fill-rule="evenodd" fill-opacity="1" /><polyline clip-path="url(#clip580)" style="stroke:#000000; stroke-linecap:round; stroke-linejoin:round; stroke-width:4; stroke-opacity:1; fill:none" points="210.907,1423.18 210.907,47.2441 "/>
<polyline clip-path="url(#clip580)" style="stroke:#000000; stroke-linecap:round; stroke-linejoin:round; stroke-width:4; stroke-opacity:1; fill:none" points="2352.76,1423.18 2352.76,47.2441 "/>
<polyline clip-path="url(#clip580)" style="stroke:#000000; stroke-linecap:round; stroke-linejoin:round; stroke-width:4; stroke-opacity:1; fill:none" points="210.907,1423.18 229.805,1423.18 "/>
<polyline clip-path="url(#clip580)" style="stroke:#000000; stroke-linecap:round; stroke-linejoin:round; stroke-width:4; stroke-opacity:1; fill:none" points="210.907,1079.2 229.805,1079.2 "/>
<polyline clip-path="url(#clip580)" style="stroke:#000000; stroke-linecap:round; stroke-linejoin:round; stroke-width:4; stroke-opacity:1; fill:none" points="210.907,735.212 229.805,735.212 "/>
<polyline clip-path="url(#clip580)" style="stroke:#000000; stroke-linecap:round; stroke-linejoin:round; stroke-width:4; stroke-opacity:1; fill:none" points="210.907,391.228 229.805,391.228 "/>
<polyline clip-path="url(#clip580)" style="stroke:#000000; stroke-linecap:round; stroke-linejoin:round; stroke-width:4; stroke-opacity:1; fill:none" points="210.907,47.2441 229.805,47.2441 "/>
<path clip-path="url(#clip580)" d="M114.26 1424.28 Q114.26 1416.84 116.138 1412.79 Q118.756 1406.76 124.932 1406.76 Q126.241 1406.76 127.6 1407.14 Q128.983 1407.48 130.713 1408.84 Q132.467 1410.2 133.529 1412.42 Q135.554 1416.72 135.554 1424.28 Q135.554 1431.67 133.677 1435.69 Q130.935 1441.57 124.883 1441.57 Q122.61 1441.57 120.288 1440.41 Q117.99 1439.25 116.533 1436.46 Q114.26 1432.28 114.26 1424.28 M118.46 1423.66 Q118.46 1431.29 119.003 1434.33 Q119.621 1437.62 121.301 1439.05 Q123.005 1440.46 124.883 1440.46 Q126.908 1440.46 128.588 1438.95 Q130.293 1437.42 130.811 1434.14 Q131.38 1430.9 131.355 1423.66 Q131.355 1416.62 130.861 1413.8 Q130.194 1410.52 128.415 1409.21 Q126.661 1407.88 124.883 1407.88 Q124.216 1407.88 123.499 1408.07 Q122.808 1408.27 121.795 1408.84 Q120.782 1409.41 119.991 1410.82 Q119.226 1412.22 118.855 1414.35 Q118.46 1417.09 118.46 1423.66 Z" fill="#000000" fill-rule="evenodd" fill-opacity="1" /><path clip-path="url(#clip580)" d="M142.644 1439.64 Q141.879 1438.83 141.879 1437.77 Q141.879 1436.7 142.644 1435.94 Q143.41 1435.15 144.571 1435.15 Q145.683 1435.15 146.424 1435.89 Q147.19 1436.61 147.19 1437.79 Q147.19 1438.95 146.375 1439.72 Q145.584 1440.46 144.571 1440.46 Q143.41 1440.46 142.644 1439.64 Z" fill="#000000" fill-rule="evenodd" fill-opacity="1" /><path clip-path="url(#clip580)" d="M153.613 1424.28 Q153.613 1416.84 155.49 1412.79 Q158.109 1406.76 164.284 1406.76 Q165.594 1406.76 166.952 1407.14 Q168.336 1407.48 170.065 1408.84 Q171.819 1410.2 172.881 1412.42 Q174.907 1416.72 174.907 1424.28 Q174.907 1431.67 173.029 1435.69 Q170.287 1441.57 164.235 1441.57 Q161.962 1441.57 159.64 1440.41 Q157.343 1439.25 155.885 1436.46 Q153.613 1432.28 153.613 1424.28 M157.812 1423.66 Q157.812 1431.29 158.356 1434.33 Q158.973 1437.62 160.653 1439.05 Q162.358 1440.46 164.235 1440.46 Q166.261 1440.46 167.941 1438.95 Q169.645 1437.42 170.164 1434.14 Q170.732 1430.9 170.707 1423.66 Q170.707 1416.62 170.213 1413.8 Q169.546 1410.52 167.768 1409.21 Q166.014 1407.88 164.235 1407.88 Q163.568 1407.88 162.852 1408.07 Q162.16 1408.27 161.147 1408.84 Q160.134 1409.41 159.344 1410.82 Q158.578 1412.22 158.207 1414.35 Q157.812 1417.09 157.812 1423.66 Z" fill="#000000" fill-rule="evenodd" fill-opacity="1" /><path clip-path="url(#clip580)" d="M114.804 1080.3 Q114.804 1072.86 116.681 1068.81 Q119.3 1062.78 125.475 1062.78 Q126.785 1062.78 128.143 1063.15 Q129.527 1063.5 131.256 1064.86 Q133.01 1066.21 134.072 1068.44 Q136.098 1072.74 136.098 1080.3 Q136.098 1087.68 134.22 1091.71 Q131.478 1097.59 125.426 1097.59 Q123.153 1097.59 120.831 1096.43 Q118.534 1095.27 117.076 1092.47 Q114.804 1088.3 114.804 1080.3 M119.003 1079.68 Q119.003 1087.31 119.547 1090.35 Q120.164 1093.64 121.844 1095.07 Q123.549 1096.48 125.426 1096.48 Q127.452 1096.48 129.132 1094.97 Q130.836 1093.44 131.355 1090.15 Q131.923 1086.92 131.898 1079.68 Q131.898 1072.64 131.404 1069.82 Q130.737 1066.54 128.959 1065.23 Q127.205 1063.89 125.426 1063.89 Q124.759 1063.89 124.043 1064.09 Q123.351 1064.29 122.338 1064.86 Q121.325 1065.42 120.535 1066.83 Q119.769 1068.24 119.398 1070.36 Q119.003 1073.11 119.003 1079.68 Z" fill="#000000" fill-rule="evenodd" fill-opacity="1" /><path clip-path="url(#clip580)" d="M143.188 1095.66 Q142.422 1094.85 142.422 1093.78 Q142.422 1092.72 143.188 1091.96 Q143.954 1091.16 145.115 1091.16 Q146.226 1091.16 146.967 1091.91 Q147.733 1092.62 147.733 1093.81 Q147.733 1094.97 146.918 1095.73 Q146.127 1096.48 145.115 1096.48 Q143.954 1096.48 143.188 1095.66 Z" fill="#000000" fill-rule="evenodd" fill-opacity="1" /><path clip-path="url(#clip580)" d="M154.7 1088.32 Q154.7 1086.82 155.515 1086.25 Q156.33 1085.66 157.195 1085.66 Q158.356 1085.66 159.023 1086.4 Q159.714 1087.11 159.714 1088.13 Q159.714 1089.14 159.023 1089.88 Q158.356 1090.6 157.195 1090.6 Q156.626 1090.6 156.33 1090.5 Q156.997 1092.82 159.023 1094.5 Q161.073 1096.18 163.766 1096.18 Q167.15 1096.18 169.176 1092.89 Q170.386 1090.77 170.386 1085.95 Q170.386 1081.7 169.472 1079.58 Q168.064 1076.34 165.174 1076.34 Q161.073 1076.34 158.652 1079.88 Q158.356 1080.32 158.01 1080.34 Q157.516 1080.34 157.392 1080.07 Q157.293 1079.78 157.293 1079.01 L157.293 1064.04 Q157.293 1062.83 157.787 1062.83 Q157.985 1062.83 158.405 1062.98 Q161.592 1064.39 165.124 1064.41 Q168.756 1064.41 172.017 1062.93 Q172.264 1062.78 172.412 1062.78 Q172.906 1062.78 172.931 1063.35 Q172.931 1063.55 172.511 1064.14 Q172.115 1064.71 171.251 1065.47 Q170.386 1066.21 169.275 1066.93 Q168.163 1067.65 166.532 1068.14 Q164.927 1068.61 163.148 1068.61 Q161.024 1068.61 158.85 1067.94 L158.85 1077.8 Q161.468 1075.23 165.273 1075.23 Q169.324 1075.23 172.115 1078.49 Q174.907 1081.75 174.907 1086.3 Q174.907 1091.07 171.597 1094.33 Q168.311 1097.59 163.865 1097.59 Q159.813 1097.59 157.244 1094.7 Q154.7 1091.81 154.7 1088.32 Z" fill="#000000" fill-rule="evenodd" fill-opacity="1" /><path clip-path="url(#clip580)" d="M116.78 723.614 L116.78 722.033 Q122.857 722.033 125.994 718.797 Q126.859 718.797 127.007 718.994 Q127.155 719.192 127.155 720.106 L127.155 748.49 Q127.155 749.997 127.896 750.466 Q128.638 750.936 131.874 750.936 L133.479 750.936 L133.479 752.492 Q131.701 752.344 125.278 752.344 Q118.855 752.344 117.101 752.492 L117.101 750.936 L118.707 750.936 Q121.893 750.936 122.659 750.491 Q123.425 750.022 123.425 748.49 L123.425 722.28 Q120.782 723.614 116.78 723.614 Z" fill="#000000" fill-rule="evenodd" fill-opacity="1" /><path clip-path="url(#clip580)" d="M142.644 751.677 Q141.879 750.862 141.879 749.799 Q141.879 748.737 142.644 747.971 Q143.41 747.181 144.571 747.181 Q145.683 747.181 146.424 747.922 Q147.19 748.638 147.19 749.824 Q147.19 750.985 146.375 751.751 Q145.584 752.492 144.571 752.492 Q143.41 752.492 142.644 751.677 Z" fill="#000000" fill-rule="evenodd" fill-opacity="1" /><path clip-path="url(#clip580)" d="M153.613 736.311 Q153.613 728.876 155.49 724.824 Q158.109 718.797 164.284 718.797 Q165.594 718.797 166.952 719.167 Q168.336 719.513 170.065 720.872 Q171.819 722.23 172.881 724.454 Q174.907 728.752 174.907 736.311 Q174.907 743.698 173.029 747.724 Q170.287 753.604 164.235 753.604 Q161.962 753.604 159.64 752.443 Q157.343 751.282 155.885 748.49 Q153.613 744.315 153.613 736.311 M157.812 735.694 Q157.812 743.327 158.356 746.366 Q158.973 749.651 160.653 751.084 Q162.358 752.492 164.235 752.492 Q166.261 752.492 167.941 750.985 Q169.645 749.453 170.164 746.168 Q170.732 742.932 170.707 735.694 Q170.707 728.653 170.213 725.837 Q169.546 722.551 167.768 721.242 Q166.014 719.908 164.235 719.908 Q163.568 719.908 162.852 720.106 Q162.16 720.303 161.147 720.872 Q160.134 721.44 159.344 722.848 Q158.578 724.256 158.207 726.381 Q157.812 729.123 157.812 735.694 Z" fill="#000000" fill-rule="evenodd" fill-opacity="1" /><path clip-path="url(#clip580)" d="M117.323 379.63 L117.323 378.049 Q123.4 378.049 126.538 374.813 Q127.402 374.813 127.551 375.01 Q127.699 375.208 127.699 376.122 L127.699 404.506 Q127.699 406.013 128.44 406.482 Q129.181 406.952 132.417 406.952 L134.023 406.952 L134.023 408.508 Q132.244 408.36 125.821 408.36 Q119.398 408.36 117.645 408.508 L117.645 406.952 L119.25 406.952 Q122.437 406.952 123.203 406.507 Q123.969 406.038 123.969 404.506 L123.969 378.296 Q121.325 379.63 117.323 379.63 Z" fill="#000000" fill-rule="evenodd" fill-opacity="1" /><path clip-path="url(#clip580)" d="M143.188 407.693 Q142.422 406.878 142.422 405.815 Q142.422 404.753 143.188 403.987 Q143.954 403.197 145.115 403.197 Q146.226 403.197 146.967 403.938 Q147.733 404.654 147.733 405.84 Q147.733 407.001 146.918 407.767 Q146.127 408.508 145.115 408.508 Q143.954 408.508 143.188 407.693 Z" fill="#000000" fill-rule="evenodd" fill-opacity="1" /><path clip-path="url(#clip580)" d="M154.7 400.356 Q154.7 398.849 155.515 398.281 Q156.33 397.688 157.195 397.688 Q158.356 397.688 159.023 398.429 Q159.714 399.145 159.714 400.158 Q159.714 401.171 159.023 401.912 Q158.356 402.629 157.195 402.629 Q156.626 402.629 156.33 402.53 Q156.997 404.852 159.023 406.532 Q161.073 408.212 163.766 408.212 Q167.15 408.212 169.176 404.926 Q170.386 402.802 170.386 397.984 Q170.386 393.735 169.472 391.611 Q168.064 388.375 165.174 388.375 Q161.073 388.375 158.652 391.907 Q158.356 392.352 158.01 392.377 Q157.516 392.377 157.392 392.105 Q157.293 391.809 157.293 391.043 L157.293 376.073 Q157.293 374.862 157.787 374.862 Q157.985 374.862 158.405 375.01 Q161.592 376.418 165.124 376.443 Q168.756 376.443 172.017 374.961 Q172.264 374.813 172.412 374.813 Q172.906 374.813 172.931 375.381 Q172.931 375.578 172.511 376.171 Q172.115 376.74 171.251 377.505 Q170.386 378.246 169.275 378.963 Q168.163 379.679 166.532 380.173 Q164.927 380.643 163.148 380.643 Q161.024 380.643 158.85 379.976 L158.85 389.832 Q161.468 387.263 165.273 387.263 Q169.324 387.263 172.115 390.524 Q174.907 393.785 174.907 398.33 Q174.907 403.098 171.597 406.359 Q168.311 409.62 163.865 409.62 Q159.813 409.62 157.244 406.729 Q154.7 403.839 154.7 400.356 Z" fill="#000000" fill-rule="evenodd" fill-opacity="1" /><path clip-path="url(#clip580)" d="M114.804 64.5241 Q114.804 63.6101 114.878 63.3383 Q114.977 63.0666 115.372 62.6466 L125.08 51.8266 Q130.391 45.8484 130.391 40.6359 Q130.391 37.2516 128.613 34.8307 Q126.859 32.4097 123.623 32.4097 Q121.399 32.4097 119.522 33.7684 Q117.645 35.1271 116.78 37.548 Q116.928 37.4986 117.447 37.4986 Q118.707 37.4986 119.398 38.2891 Q120.115 39.0796 120.115 40.1419 Q120.115 41.5006 119.226 42.1676 Q118.361 42.8098 117.496 42.8098 Q117.15 42.8098 116.681 42.7357 Q116.236 42.6616 115.52 41.9699 Q114.804 41.2535 114.804 39.9937 Q114.804 36.4611 117.472 33.6449 Q120.164 30.8287 124.265 30.8287 Q128.909 30.8287 131.948 33.5955 Q135.011 36.3376 135.011 40.6359 Q135.011 42.1429 134.542 43.5262 Q134.097 44.8849 133.479 45.9472 Q132.886 47.0094 131.256 48.7139 Q129.626 50.4185 128.316 51.6289 Q127.007 52.8394 124.067 55.4086 L118.707 60.621 L127.822 60.621 Q132.269 60.621 132.615 60.2257 Q133.109 59.5093 133.726 55.7297 L135.011 55.7297 L133.578 64.5241 L114.804 64.5241 Z" fill="#000000" fill-rule="evenodd" fill-opacity="1" /><path clip-path="url(#clip580)" d="M142.644 63.7089 Q141.879 62.8937 141.879 61.8314 Q141.879 60.7692 142.644 60.0034 Q143.41 59.2129 144.571 59.2129 Q145.683 59.2129 146.424 59.954 Q147.19 60.6704 147.19 61.8561 Q147.19 63.0172 146.375 63.783 Q145.584 64.5241 144.571 64.5241 Q143.41 64.5241 142.644 63.7089 Z" fill="#000000" fill-rule="evenodd" fill-opacity="1" /><path clip-path="url(#clip580)" d="M153.613 48.3434 Q153.613 40.9077 155.49 36.8563 Q158.109 30.8287 164.284 30.8287 Q165.594 30.8287 166.952 31.1993 Q168.336 31.5451 170.065 32.9038 Q171.819 34.2625 172.881 36.4858 Q174.907 40.7842 174.907 48.3434 Q174.907 55.7297 173.029 59.7563 Q170.287 65.6357 164.235 65.6357 Q161.962 65.6357 159.64 64.4747 Q157.343 63.3136 155.885 60.5222 Q153.613 56.3473 153.613 48.3434 M157.812 47.7258 Q157.812 55.3591 158.356 58.3977 Q158.973 61.6832 160.653 63.116 Q162.358 64.5241 164.235 64.5241 Q166.261 64.5241 167.941 63.0172 Q169.645 61.4856 170.164 58.2 Q170.732 54.9639 170.707 47.7258 Q170.707 40.6854 170.213 37.8692 Q169.546 34.5836 167.768 33.2743 Q166.014 31.9404 164.235 31.9404 Q163.568 31.9404 162.852 32.138 Q162.16 32.3356 161.147 32.9038 Q160.134 33.472 159.344 34.8801 Q158.578 36.2882 158.207 38.4126 Q157.812 41.1547 157.812 47.7258 Z" fill="#000000" fill-rule="evenodd" fill-opacity="1" /><path clip-path="url(#clip580)" d="M17.0934 731.624 L31.5217 735.199 Q32.3912 735.392 32.6167 735.553 Q32.8421 735.714 32.8421 736.165 Q32.8421 736.519 32.6811 736.745 Q32.52 736.938 32.359 736.938 L32.198 736.97 Q32.1014 736.97 31.6183 736.906 Q31.103 736.842 30.2656 736.777 Q29.4283 736.713 28.4943 736.713 Q23.2125 736.713 20.7649 739.289 Q18.2851 741.833 18.2851 746.213 Q18.2851 749.241 19.8953 751.946 Q21.5056 754.651 24.0499 756.197 Q26.562 757.743 29.2028 757.743 Q31.6183 757.743 33.1642 756.519 Q34.71 755.295 35.2253 753.717 L36.417 749.305 Q37.6086 744.668 38.1239 743.347 Q38.607 742.027 39.702 740.932 Q42.7293 737.679 47.4314 737.679 Q51.4893 737.679 55.4184 739.966 Q59.3153 742.252 61.8596 746.181 Q64.3716 750.11 64.3716 754.458 Q64.3716 762.091 59.6374 765.601 L63.3733 768.822 Q64.0818 769.434 64.2106 769.627 Q64.3716 769.788 64.3716 770.014 Q64.3716 770.303 64.1784 770.529 Q64.0174 770.754 63.7275 770.754 Q63.5021 770.754 55.9337 768.854 Q48.3653 766.954 48.2043 766.793 Q47.9467 766.535 47.9467 766.117 Q47.9467 765.344 48.6874 765.344 Q48.8806 765.408 49.1383 765.473 Q51.4571 765.859 52.7131 765.859 Q55.0641 765.859 56.8677 765.054 Q58.639 764.249 59.6696 763.057 Q60.668 761.833 61.3121 760.191 Q61.924 758.548 62.1494 757.163 Q62.3427 755.779 62.3427 754.329 Q62.3427 751.205 60.5391 748.436 Q58.7356 745.634 55.9337 744.056 Q53.1318 742.445 50.2011 742.445 Q48.6552 742.445 47.4636 742.864 Q46.2397 743.283 45.5634 743.862 Q44.8871 744.41 44.3718 745.344 Q43.8565 746.278 43.6633 746.922 Q43.4378 747.534 43.2124 748.5 L41.3444 755.553 Q40.5071 758.387 38.0917 760.416 Q35.6762 762.413 31.9725 762.413 Q28.0756 762.413 24.4686 760.126 Q20.8293 757.808 18.6393 754.039 Q16.4171 750.239 16.4171 746.149 Q16.4171 742.928 17.6731 740.449 Q18.897 737.969 21.1836 736.713 L17.4155 733.524 Q16.6748 732.88 16.5459 732.751 Q16.4171 732.59 16.4171 732.365 Q16.4171 731.978 16.6426 731.817 Q16.868 731.624 17.0934 731.624 Z" fill="#000000" fill-rule="evenodd" fill-opacity="1" /><path clip-path="url(#clip580)" d="M82.6364 724.964 Q81.8023 724.964 81.5543 724.897 Q81.3063 724.807 80.9231 724.446 L71.0488 715.586 Q65.5931 710.739 60.8363 710.739 Q57.7477 710.739 55.5384 712.362 Q53.3291 713.963 53.3291 716.916 Q53.3291 718.945 54.569 720.658 Q55.809 722.372 58.0183 723.161 Q57.9732 723.026 57.9732 722.552 Q57.9732 721.402 58.6946 720.771 Q59.416 720.117 60.3854 720.117 Q61.6253 720.117 62.234 720.929 Q62.8202 721.718 62.8202 722.507 Q62.8202 722.823 62.7525 723.251 Q62.6849 723.657 62.0537 724.311 Q61.3999 724.964 60.2501 724.964 Q57.0263 724.964 54.4563 722.53 Q51.8863 720.072 51.8863 716.33 Q51.8863 712.092 54.4112 709.319 Q56.9136 706.523 60.8363 706.523 Q62.2115 706.523 63.474 706.952 Q64.7139 707.357 65.6833 707.921 Q66.6527 708.462 68.2082 709.95 Q69.7638 711.438 70.8684 712.633 Q71.9731 713.828 74.3177 716.51 L79.0745 721.402 L79.0745 713.084 Q79.0745 709.026 78.7138 708.71 Q78.06 708.259 74.6107 707.696 L74.6107 706.523 L82.6364 707.831 L82.6364 724.964 Z" fill="#000000" fill-rule="evenodd" fill-opacity="1" /><polyline clip-path="url(#clip582)" style="stroke:#009af9; stroke-linecap:round; stroke-linejoin:round; stroke-width:4; stroke-opacity:1; fill:none" points="2292.14,438.371 2191.11,373.214 2090.08,439.152 1989.05,502.291 1888.02,560.705 1786.98,613.355 1685.95,659.646 1584.92,699.401 1483.89,732.872 1382.86,760.655 1281.83,783.528 1180.8,802.302 1079.77,817.728 978.74,830.451 877.709,841.005 776.678,849.817 675.648,857.227 574.617,863.501 473.586,868.852 372.556,873.445 271.525,877.414 "/>
<path clip-path="url(#clip582)" d="M2276.14 422.371 L2276.14 454.371 L2308.14 454.371 L2308.14 422.371 L2276.14 422.371 Z" fill="#009af9" fill-rule="evenodd" fill-opacity="1" stroke="#000000" stroke-opacity="1" stroke-width="3.2"/>
<path clip-path="url(#clip582)" d="M2175.11 357.214 L2175.11 389.214 L2207.11 389.214 L2207.11 357.214 L2175.11 357.214 Z" fill="#009af9" fill-rule="evenodd" fill-opacity="1" stroke="#000000" stroke-opacity="1" stroke-width="3.2"/>
<path clip-path="url(#clip582)" d="M2074.08 423.152 L2074.08 455.152 L2106.08 455.152 L2106.08 423.152 L2074.08 423.152 Z" fill="#009af9" fill-rule="evenodd" fill-opacity="1" stroke="#000000" stroke-opacity="1" stroke-width="3.2"/>
<path clip-path="url(#clip582)" d="M1973.05 486.291 L1973.05 518.291 L2005.05 518.291 L2005.05 486.291 L1973.05 486.291 Z" fill="#009af9" fill-rule="evenodd" fill-opacity="1" stroke="#000000" stroke-opacity="1" stroke-width="3.2"/>
<path clip-path="url(#clip582)" d="M1872.02 544.705 L1872.02 576.705 L1904.02 576.705 L1904.02 544.705 L1872.02 544.705 Z" fill="#009af9" fill-rule="evenodd" fill-opacity="1" stroke="#000000" stroke-opacity="1" stroke-width="3.2"/>
<path clip-path="url(#clip582)" d="M1770.98 597.355 L1770.98 629.355 L1802.98 629.355 L1802.98 597.355 L1770.98 597.355 Z" fill="#009af9" fill-rule="evenodd" fill-opacity="1" stroke="#000000" stroke-opacity="1" stroke-width="3.2"/>
<path clip-path="url(#clip582)" d="M1669.95 643.646 L1669.95 675.646 L1701.95 675.646 L1701.95 643.646 L1669.95 643.646 Z" fill="#009af9" fill-rule="evenodd" fill-opacity="1" stroke="#000000" stroke-opacity="1" stroke-width="3.2"/>
<path clip-path="url(#clip582)" d="M1568.92 683.401 L1568.92 715.401 L1600.92 715.401 L1600.92 683.401 L1568.92 683.401 Z" fill="#009af9" fill-rule="evenodd" fill-opacity="1" stroke="#000000" stroke-opacity="1" stroke-width="3.2"/>
<path clip-path="url(#clip582)" d="M1467.89 716.872 L1467.89 748.872 L1499.89 748.872 L1499.89 716.872 L1467.89 716.872 Z" fill="#009af9" fill-rule="evenodd" fill-opacity="1" stroke="#000000" stroke-opacity="1" stroke-width="3.2"/>
<path clip-path="url(#clip582)" d="M1366.86 744.655 L1366.86 776.655 L1398.86 776.655 L1398.86 744.655 L1366.86 744.655 Z" fill="#009af9" fill-rule="evenodd" fill-opacity="1" stroke="#000000" stroke-opacity="1" stroke-width="3.2"/>
<path clip-path="url(#clip582)" d="M1265.83 767.528 L1265.83 799.528 L1297.83 799.528 L1297.83 767.528 L1265.83 767.528 Z" fill="#009af9" fill-rule="evenodd" fill-opacity="1" stroke="#000000" stroke-opacity="1" stroke-width="3.2"/>
<path clip-path="url(#clip582)" d="M1164.8 786.302 L1164.8 818.302 L1196.8 818.302 L1196.8 786.302 L1164.8 786.302 Z" fill="#009af9" fill-rule="evenodd" fill-opacity="1" stroke="#000000" stroke-opacity="1" stroke-width="3.2"/>
<path clip-path="url(#clip582)" d="M1063.77 801.728 L1063.77 833.728 L1095.77 833.728 L1095.77 801.728 L1063.77 801.728 Z" fill="#009af9" fill-rule="evenodd" fill-opacity="1" stroke="#000000" stroke-opacity="1" stroke-width="3.2"/>
<path clip-path="url(#clip582)" d="M962.74 814.451 L962.74 846.451 L994.74 846.451 L994.74 814.451 L962.74 814.451 Z" fill="#009af9" fill-rule="evenodd" fill-opacity="1" stroke="#000000" stroke-opacity="1" stroke-width="3.2"/>
<path clip-path="url(#clip582)" d="M861.709 825.005 L861.709 857.005 L893.709 857.005 L893.709 825.005 L861.709 825.005 Z" fill="#009af9" fill-rule="evenodd" fill-opacity="1" stroke="#000000" stroke-opacity="1" stroke-width="3.2"/>
<path clip-path="url(#clip582)" d="M760.678 833.817 L760.678 865.817 L792.678 865.817 L792.678 833.817 L760.678 833.817 Z" fill="#009af9" fill-rule="evenodd" fill-opacity="1" stroke="#000000" stroke-opacity="1" stroke-width="3.2"/>
<path clip-path="url(#clip582)" d="M659.648 841.227 L659.648 873.227 L691.648 873.227 L691.648 841.227 L659.648 841.227 Z" fill="#009af9" fill-rule="evenodd" fill-opacity="1" stroke="#000000" stroke-opacity="1" stroke-width="3.2"/>
<path clip-path="url(#clip582)" d="M558.617 847.501 L558.617 879.501 L590.617 879.501 L590.617 847.501 L558.617 847.501 Z" fill="#009af9" fill-rule="evenodd" fill-opacity="1" stroke="#000000" stroke-opacity="1" stroke-width="3.2"/>
<path clip-path="url(#clip582)" d="M457.586 852.852 L457.586 884.852 L489.586 884.852 L489.586 852.852 L457.586 852.852 Z" fill="#009af9" fill-rule="evenodd" fill-opacity="1" stroke="#000000" stroke-opacity="1" stroke-width="3.2"/>
<path clip-path="url(#clip582)" d="M356.556 857.445 L356.556 889.445 L388.556 889.445 L388.556 857.445 L356.556 857.445 Z" fill="#009af9" fill-rule="evenodd" fill-opacity="1" stroke="#000000" stroke-opacity="1" stroke-width="3.2"/>
<path clip-path="url(#clip582)" d="M255.525 861.414 L255.525 893.414 L287.525 893.414 L287.525 861.414 L255.525 861.414 Z" fill="#009af9" fill-rule="evenodd" fill-opacity="1" stroke="#000000" stroke-opacity="1" stroke-width="3.2"/>
<polyline clip-path="url(#clip582)" style="stroke:#e26f46; stroke-linecap:round; stroke-linejoin:round; stroke-width:4; stroke-opacity:1; fill:none" points="2292.14,1026.58 2191.11,866.622 2090.08,869.393 1989.05,873.913 1888.02,879.308 1786.98,884.888 1685.95,890.149 1584.92,894.787 1483.89,898.687 1382.86,901.861 1281.83,904.398 1180.8,906.409 1079.77,908 978.74,909.263 877.709,910.272 776.678,911.086 675.648,911.749 574.617,912.292 473.586,912.743 372.556,913.12 271.525,913.439 "/>
<path clip-path="url(#clip582)" d="M2276.14 1010.58 L2276.14 1042.58 L2308.14 1042.58 L2308.14 1010.58 L2276.14 1010.58 Z" fill="#e26f46" fill-rule="evenodd" fill-opacity="1" stroke="#000000" stroke-opacity="1" stroke-width="3.2"/>
<path clip-path="url(#clip582)" d="M2175.11 850.622 L2175.11 882.622 L2207.11 882.622 L2207.11 850.622 L2175.11 850.622 Z" fill="#e26f46" fill-rule="evenodd" fill-opacity="1" stroke="#000000" stroke-opacity="1" stroke-width="3.2"/>
<path clip-path="url(#clip582)" d="M2074.08 853.393 L2074.08 885.393 L2106.08 885.393 L2106.08 853.393 L2074.08 853.393 Z" fill="#e26f46" fill-rule="evenodd" fill-opacity="1" stroke="#000000" stroke-opacity="1" stroke-width="3.2"/>
<path clip-path="url(#clip582)" d="M1973.05 857.913 L1973.05 889.913 L2005.05 889.913 L2005.05 857.913 L1973.05 857.913 Z" fill="#e26f46" fill-rule="evenodd" fill-opacity="1" stroke="#000000" stroke-opacity="1" stroke-width="3.2"/>
<path clip-path="url(#clip582)" d="M1872.02 863.308 L1872.02 895.308 L1904.02 895.308 L1904.02 863.308 L1872.02 863.308 Z" fill="#e26f46" fill-rule="evenodd" fill-opacity="1" stroke="#000000" stroke-opacity="1" stroke-width="3.2"/>
<path clip-path="url(#clip582)" d="M1770.98 868.888 L1770.98 900.888 L1802.98 900.888 L1802.98 868.888 L1770.98 868.888 Z" fill="#e26f46" fill-rule="evenodd" fill-opacity="1" stroke="#000000" stroke-opacity="1" stroke-width="3.2"/>
<path clip-path="url(#clip582)" d="M1669.95 874.149 L1669.95 906.149 L1701.95 906.149 L1701.95 874.149 L1669.95 874.149 Z" fill="#e26f46" fill-rule="evenodd" fill-opacity="1" stroke="#000000" stroke-opacity="1" stroke-width="3.2"/>
<path clip-path="url(#clip582)" d="M1568.92 878.787 L1568.92 910.787 L1600.92 910.787 L1600.92 878.787 L1568.92 878.787 Z" fill="#e26f46" fill-rule="evenodd" fill-opacity="1" stroke="#000000" stroke-opacity="1" stroke-width="3.2"/>
<path clip-path="url(#clip582)" d="M1467.89 882.687 L1467.89 914.687 L1499.89 914.687 L1499.89 882.687 L1467.89 882.687 Z" fill="#e26f46" fill-rule="evenodd" fill-opacity="1" stroke="#000000" stroke-opacity="1" stroke-width="3.2"/>
<path clip-path="url(#clip582)" d="M1366.86 885.861 L1366.86 917.861 L1398.86 917.861 L1398.86 885.861 L1366.86 885.861 Z" fill="#e26f46" fill-rule="evenodd" fill-opacity="1" stroke="#000000" stroke-opacity="1" stroke-width="3.2"/>
<path clip-path="url(#clip582)" d="M1265.83 888.398 L1265.83 920.398 L1297.83 920.398 L1297.83 888.398 L1265.83 888.398 Z" fill="#e26f46" fill-rule="evenodd" fill-opacity="1" stroke="#000000" stroke-opacity="1" stroke-width="3.2"/>
<path clip-path="url(#clip582)" d="M1164.8 890.409 L1164.8 922.409 L1196.8 922.409 L1196.8 890.409 L1164.8 890.409 Z" fill="#e26f46" fill-rule="evenodd" fill-opacity="1" stroke="#000000" stroke-opacity="1" stroke-width="3.2"/>
<path clip-path="url(#clip582)" d="M1063.77 892 L1063.77 924 L1095.77 924 L1095.77 892 L1063.77 892 Z" fill="#e26f46" fill-rule="evenodd" fill-opacity="1" stroke="#000000" stroke-opacity="1" stroke-width="3.2"/>
<path clip-path="url(#clip582)" d="M962.74 893.263 L962.74 925.263 L994.74 925.263 L994.74 893.263 L962.74 893.263 Z" fill="#e26f46" fill-rule="evenodd" fill-opacity="1" stroke="#000000" stroke-opacity="1" stroke-width="3.2"/>
<path clip-path="url(#clip582)" d="M861.709 894.272 L861.709 926.272 L893.709 926.272 L893.709 894.272 L861.709 894.272 Z" fill="#e26f46" fill-rule="evenodd" fill-opacity="1" stroke="#000000" stroke-opacity="1" stroke-width="3.2"/>
<path clip-path="url(#clip582)" d="M760.678 895.086 L760.678 927.086 L792.678 927.086 L792.678 895.086 L760.678 895.086 Z" fill="#e26f46" fill-rule="evenodd" fill-opacity="1" stroke="#000000" stroke-opacity="1" stroke-width="3.2"/>
<path clip-path="url(#clip582)" d="M659.648 895.749 L659.648 927.749 L691.648 927.749 L691.648 895.749 L659.648 895.749 Z" fill="#e26f46" fill-rule="evenodd" fill-opacity="1" stroke="#000000" stroke-opacity="1" stroke-width="3.2"/>
<path clip-path="url(#clip582)" d="M558.617 896.292 L558.617 928.292 L590.617 928.292 L590.617 896.292 L558.617 896.292 Z" fill="#e26f46" fill-rule="evenodd" fill-opacity="1" stroke="#000000" stroke-opacity="1" stroke-width="3.2"/>
<path clip-path="url(#clip582)" d="M457.586 896.743 L457.586 928.743 L489.586 928.743 L489.586 896.743 L457.586 896.743 Z" fill="#e26f46" fill-rule="evenodd" fill-opacity="1" stroke="#000000" stroke-opacity="1" stroke-width="3.2"/>
<path clip-path="url(#clip582)" d="M356.556 897.12 L356.556 929.12 L388.556 929.12 L388.556 897.12 L356.556 897.12 Z" fill="#e26f46" fill-rule="evenodd" fill-opacity="1" stroke="#000000" stroke-opacity="1" stroke-width="3.2"/>
<path clip-path="url(#clip582)" d="M255.525 897.439 L255.525 929.439 L287.525 929.439 L287.525 897.439 L255.525 897.439 Z" fill="#e26f46" fill-rule="evenodd" fill-opacity="1" stroke="#000000" stroke-opacity="1" stroke-width="3.2"/>
<polyline clip-path="url(#clip582)" style="stroke:#3da44d; stroke-linecap:round; stroke-linejoin:round; stroke-width:4; stroke-opacity:1; fill:none" points="2292.14,1026.58 2191.11,925.566 2090.08,978.465 1989.05,1024.63 1888.02,1064.25 1786.98,1097.84 1685.95,1125.98 1584.92,1149.25 1483.89,1168.27 1382.86,1183.71 1281.83,1196.21 1180.8,1206.32 1079.77,1214.54 978.74,1221.27 877.709,1226.81 776.678,1231.41 675.648,1235.25 574.617,1238.5 473.586,1241.26 372.556,1243.62 271.525,1245.66 "/>
<path clip-path="url(#clip582)" d="M2276.14 1010.58 L2276.14 1042.58 L2308.14 1042.58 L2308.14 1010.58 L2276.14 1010.58 Z" fill="#3da44d" fill-rule="evenodd" fill-opacity="1" stroke="#000000" stroke-opacity="1" stroke-width="3.2"/>
<path clip-path="url(#clip582)" d="M2175.11 909.566 L2175.11 941.566 L2207.11 941.566 L2207.11 909.566 L2175.11 909.566 Z" fill="#3da44d" fill-rule="evenodd" fill-opacity="1" stroke="#000000" stroke-opacity="1" stroke-width="3.2"/>
<path clip-path="url(#clip582)" d="M2074.08 962.465 L2074.08 994.465 L2106.08 994.465 L2106.08 962.465 L2074.08 962.465 Z" fill="#3da44d" fill-rule="evenodd" fill-opacity="1" stroke="#000000" stroke-opacity="1" stroke-width="3.2"/>
<path clip-path="url(#clip582)" d="M1973.05 1008.63 L1973.05 1040.63 L2005.05 1040.63 L2005.05 1008.63 L1973.05 1008.63 Z" fill="#3da44d" fill-rule="evenodd" fill-opacity="1" stroke="#000000" stroke-opacity="1" stroke-width="3.2"/>
<path clip-path="url(#clip582)" d="M1872.02 1048.25 L1872.02 1080.25 L1904.02 1080.25 L1904.02 1048.25 L1872.02 1048.25 Z" fill="#3da44d" fill-rule="evenodd" fill-opacity="1" stroke="#000000" stroke-opacity="1" stroke-width="3.2"/>
<path clip-path="url(#clip582)" d="M1770.98 1081.84 L1770.98 1113.84 L1802.98 1113.84 L1802.98 1081.84 L1770.98 1081.84 Z" fill="#3da44d" fill-rule="evenodd" fill-opacity="1" stroke="#000000" stroke-opacity="1" stroke-width="3.2"/>
<path clip-path="url(#clip582)" d="M1669.95 1109.98 L1669.95 1141.98 L1701.95 1141.98 L1701.95 1109.98 L1669.95 1109.98 Z" fill="#3da44d" fill-rule="evenodd" fill-opacity="1" stroke="#000000" stroke-opacity="1" stroke-width="3.2"/>
<path clip-path="url(#clip582)" d="M1568.92 1133.25 L1568.92 1165.25 L1600.92 1165.25 L1600.92 1133.25 L1568.92 1133.25 Z" fill="#3da44d" fill-rule="evenodd" fill-opacity="1" stroke="#000000" stroke-opacity="1" stroke-width="3.2"/>
<path clip-path="url(#clip582)" d="M1467.89 1152.27 L1467.89 1184.27 L1499.89 1184.27 L1499.89 1152.27 L1467.89 1152.27 Z" fill="#3da44d" fill-rule="evenodd" fill-opacity="1" stroke="#000000" stroke-opacity="1" stroke-width="3.2"/>
<path clip-path="url(#clip582)" d="M1366.86 1167.71 L1366.86 1199.71 L1398.86 1199.71 L1398.86 1167.71 L1366.86 1167.71 Z" fill="#3da44d" fill-rule="evenodd" fill-opacity="1" stroke="#000000" stroke-opacity="1" stroke-width="3.2"/>
<path clip-path="url(#clip582)" d="M1265.83 1180.21 L1265.83 1212.21 L1297.83 1212.21 L1297.83 1180.21 L1265.83 1180.21 Z" fill="#3da44d" fill-rule="evenodd" fill-opacity="1" stroke="#000000" stroke-opacity="1" stroke-width="3.2"/>
<path clip-path="url(#clip582)" d="M1164.8 1190.32 L1164.8 1222.32 L1196.8 1222.32 L1196.8 1190.32 L1164.8 1190.32 Z" fill="#3da44d" fill-rule="evenodd" fill-opacity="1" stroke="#000000" stroke-opacity="1" stroke-width="3.2"/>
<path clip-path="url(#clip582)" d="M1063.77 1198.54 L1063.77 1230.54 L1095.77 1230.54 L1095.77 1198.54 L1063.77 1198.54 Z" fill="#3da44d" fill-rule="evenodd" fill-opacity="1" stroke="#000000" stroke-opacity="1" stroke-width="3.2"/>
<path clip-path="url(#clip582)" d="M962.74 1205.27 L962.74 1237.27 L994.74 1237.27 L994.74 1205.27 L962.74 1205.27 Z" fill="#3da44d" fill-rule="evenodd" fill-opacity="1" stroke="#000000" stroke-opacity="1" stroke-width="3.2"/>
<path clip-path="url(#clip582)" d="M861.709 1210.81 L861.709 1242.81 L893.709 1242.81 L893.709 1210.81 L861.709 1210.81 Z" fill="#3da44d" fill-rule="evenodd" fill-opacity="1" stroke="#000000" stroke-opacity="1" stroke-width="3.2"/>
<path clip-path="url(#clip582)" d="M760.678 1215.41 L760.678 1247.41 L792.678 1247.41 L792.678 1215.41 L760.678 1215.41 Z" fill="#3da44d" fill-rule="evenodd" fill-opacity="1" stroke="#000000" stroke-opacity="1" stroke-width="3.2"/>
<path clip-path="url(#clip582)" d="M659.648 1219.25 L659.648 1251.25 L691.648 1251.25 L691.648 1219.25 L659.648 1219.25 Z" fill="#3da44d" fill-rule="evenodd" fill-opacity="1" stroke="#000000" stroke-opacity="1" stroke-width="3.2"/>
<path clip-path="url(#clip582)" d="M558.617 1222.5 L558.617 1254.5 L590.617 1254.5 L590.617 1222.5 L558.617 1222.5 Z" fill="#3da44d" fill-rule="evenodd" fill-opacity="1" stroke="#000000" stroke-opacity="1" stroke-width="3.2"/>
<path clip-path="url(#clip582)" d="M457.586 1225.26 L457.586 1257.26 L489.586 1257.26 L489.586 1225.26 L457.586 1225.26 Z" fill="#3da44d" fill-rule="evenodd" fill-opacity="1" stroke="#000000" stroke-opacity="1" stroke-width="3.2"/>
<path clip-path="url(#clip582)" d="M356.556 1227.62 L356.556 1259.62 L388.556 1259.62 L388.556 1227.62 L356.556 1227.62 Z" fill="#3da44d" fill-rule="evenodd" fill-opacity="1" stroke="#000000" stroke-opacity="1" stroke-width="3.2"/>
<path clip-path="url(#clip582)" d="M255.525 1229.66 L255.525 1261.66 L287.525 1261.66 L287.525 1229.66 L255.525 1229.66 Z" fill="#3da44d" fill-rule="evenodd" fill-opacity="1" stroke="#000000" stroke-opacity="1" stroke-width="3.2"/>
<path clip-path="url(#clip580)" d="M282.302 353.257 L595.242 353.257 L595.242 93.1086 L282.302 93.1086  Z" fill="#ffffff" fill-rule="evenodd" fill-opacity="1"/>
<polyline clip-path="url(#clip580)" style="stroke:#000000; stroke-linecap:round; stroke-linejoin:round; stroke-width:4; stroke-opacity:1; fill:none" points="282.302,353.257 595.242,353.257 595.242,93.1086 282.302,93.1086 282.302,353.257 "/>
<polyline clip-path="url(#clip580)" style="stroke:#009af9; stroke-linecap:round; stroke-linejoin:round; stroke-width:4; stroke-opacity:1; fill:none" points="306.1,158.146 448.89,158.146 "/>
<path clip-path="url(#clip580)" d="M359.931 140.582 L359.931 175.71 L395.059 175.71 L395.059 140.582 L359.931 140.582 Z" fill="#009af9" fill-rule="evenodd" fill-opacity="1" stroke="#000000" stroke-opacity="1" stroke-width="5.12"/>
<path clip-path="url(#clip580)" d="M501.147 134.39 L498.547 144.883 Q498.406 145.515 498.289 145.679 Q498.172 145.843 497.844 145.843 Q497.587 145.843 497.423 145.726 Q497.282 145.609 497.282 145.492 L497.259 145.375 Q497.259 145.305 497.305 144.953 Q497.352 144.578 497.399 143.97 Q497.446 143.361 497.446 142.681 Q497.446 138.84 495.572 137.06 Q493.722 135.256 490.536 135.256 Q488.335 135.256 486.367 136.427 Q484.4 137.599 483.275 139.449 Q482.151 141.276 482.151 143.197 Q482.151 144.953 483.041 146.078 Q483.931 147.202 485.079 147.577 L488.288 148.443 Q491.661 149.31 492.621 149.685 Q493.581 150.036 494.378 150.832 Q496.743 153.034 496.743 156.454 Q496.743 159.405 495.08 162.262 Q493.417 165.097 490.56 166.947 Q487.702 168.774 484.54 168.774 Q478.989 168.774 476.436 165.331 L474.094 168.048 Q473.649 168.563 473.508 168.657 Q473.391 168.774 473.227 168.774 Q473.016 168.774 472.852 168.633 Q472.688 168.516 472.688 168.305 Q472.688 168.141 474.07 162.637 Q475.452 157.133 475.569 157.016 Q475.757 156.828 476.061 156.828 Q476.623 156.828 476.623 157.367 Q476.577 157.508 476.53 157.695 Q476.249 159.381 476.249 160.295 Q476.249 162.005 476.834 163.316 Q477.42 164.605 478.286 165.354 Q479.176 166.08 480.371 166.549 Q481.566 166.994 482.573 167.158 Q483.58 167.298 484.634 167.298 Q486.906 167.298 488.92 165.987 Q490.958 164.675 492.106 162.637 Q493.277 160.599 493.277 158.468 Q493.277 157.344 492.972 156.477 Q492.668 155.587 492.246 155.095 Q491.848 154.603 491.169 154.229 Q490.49 153.854 490.021 153.713 Q489.576 153.549 488.873 153.385 L483.744 152.027 Q481.683 151.418 480.207 149.661 Q478.755 147.904 478.755 145.211 Q478.755 142.377 480.418 139.753 Q482.104 137.107 484.845 135.514 Q487.609 133.898 490.583 133.898 Q492.925 133.898 494.729 134.811 Q496.532 135.701 497.446 137.364 L499.765 134.624 Q500.233 134.085 500.327 133.992 Q500.444 133.898 500.608 133.898 Q500.889 133.898 501.006 134.062 Q501.147 134.226 501.147 134.39 Z" fill="#000000" fill-rule="evenodd" fill-opacity="1" /><path clip-path="url(#clip580)" d="M505.98 182.056 Q505.98 181.449 506.03 181.269 Q506.095 181.088 506.357 180.81 L512.801 173.628 Q516.326 169.661 516.326 166.201 Q516.326 163.955 515.146 162.348 Q513.981 160.741 511.834 160.741 Q510.358 160.741 509.112 161.643 Q507.866 162.545 507.292 164.152 Q507.39 164.119 507.735 164.119 Q508.571 164.119 509.03 164.644 Q509.505 165.168 509.505 165.873 Q509.505 166.775 508.915 167.218 Q508.341 167.644 507.767 167.644 Q507.538 167.644 507.226 167.595 Q506.931 167.546 506.456 167.087 Q505.98 166.611 505.98 165.775 Q505.98 163.43 507.751 161.561 Q509.538 159.692 512.26 159.692 Q515.342 159.692 517.359 161.528 Q519.392 163.348 519.392 166.201 Q519.392 167.201 519.08 168.119 Q518.785 169.021 518.375 169.726 Q517.982 170.431 516.9 171.563 Q515.818 172.694 514.949 173.497 Q514.08 174.301 512.129 176.006 L508.571 179.465 L514.621 179.465 Q517.572 179.465 517.802 179.203 Q518.13 178.727 518.539 176.219 L519.392 176.219 L518.441 182.056 L505.98 182.056 Z" fill="#000000" fill-rule="evenodd" fill-opacity="1" /><polyline clip-path="url(#clip580)" style="stroke:#e26f46; stroke-linecap:round; stroke-linejoin:round; stroke-width:4; stroke-opacity:1; fill:none" points="306.1,223.183 448.89,223.183 "/>
<path clip-path="url(#clip580)" d="M359.931 205.619 L359.931 240.747 L395.059 240.747 L395.059 205.619 L359.931 205.619 Z" fill="#e26f46" fill-rule="evenodd" fill-opacity="1" stroke="#000000" stroke-opacity="1" stroke-width="5.12"/>
<path clip-path="url(#clip580)" d="M501.147 201.626 L498.547 212.119 Q498.406 212.751 498.289 212.915 Q498.172 213.079 497.844 213.079 Q497.587 213.079 497.423 212.962 Q497.282 212.845 497.282 212.728 L497.259 212.611 Q497.259 212.541 497.305 212.189 Q497.352 211.815 497.399 211.206 Q497.446 210.597 497.446 209.917 Q497.446 206.076 495.572 204.296 Q493.722 202.492 490.536 202.492 Q488.335 202.492 486.367 203.663 Q484.4 204.835 483.275 206.685 Q482.151 208.512 482.151 210.433 Q482.151 212.189 483.041 213.314 Q483.931 214.438 485.079 214.813 L488.288 215.679 Q491.661 216.546 492.621 216.921 Q493.581 217.272 494.378 218.068 Q496.743 220.27 496.743 223.69 Q496.743 226.641 495.08 229.498 Q493.417 232.333 490.56 234.183 Q487.702 236.01 484.54 236.01 Q478.989 236.01 476.436 232.567 L474.094 235.284 Q473.649 235.799 473.508 235.893 Q473.391 236.01 473.227 236.01 Q473.016 236.01 472.852 235.869 Q472.688 235.752 472.688 235.541 Q472.688 235.377 474.07 229.873 Q475.452 224.369 475.569 224.252 Q475.757 224.064 476.061 224.064 Q476.623 224.064 476.623 224.603 Q476.577 224.744 476.53 224.931 Q476.249 226.617 476.249 227.531 Q476.249 229.241 476.834 230.552 Q477.42 231.841 478.286 232.59 Q479.176 233.316 480.371 233.785 Q481.566 234.23 482.573 234.394 Q483.58 234.534 484.634 234.534 Q486.906 234.534 488.92 233.223 Q490.958 231.911 492.106 229.873 Q493.277 227.835 493.277 225.704 Q493.277 224.58 492.972 223.713 Q492.668 222.823 492.246 222.331 Q491.848 221.839 491.169 221.465 Q490.49 221.09 490.021 220.949 Q489.576 220.785 488.873 220.621 L483.744 219.263 Q481.683 218.654 480.207 216.897 Q478.755 215.14 478.755 212.447 Q478.755 209.613 480.418 206.989 Q482.104 204.343 484.845 202.75 Q487.609 201.134 490.583 201.134 Q492.925 201.134 494.729 202.047 Q496.532 202.937 497.446 204.6 L499.765 201.86 Q500.233 201.321 500.327 201.228 Q500.444 201.134 500.608 201.134 Q500.889 201.134 501.006 201.298 Q501.147 201.462 501.147 201.626 Z" fill="#000000" fill-rule="evenodd" fill-opacity="1" /><path clip-path="url(#clip580)" d="M505.98 202.375 Q505.98 199.522 509.341 198.014 Q511.358 197.046 515.523 196.8 L515.523 195.571 Q515.523 193.488 514.424 192.39 Q513.342 191.275 511.965 191.275 Q509.505 191.275 508.325 192.816 Q509.325 192.849 509.686 193.357 Q510.046 193.849 510.046 194.357 Q510.046 195.03 509.62 195.472 Q509.21 195.899 508.505 195.899 Q507.833 195.899 507.39 195.489 Q506.948 195.062 506.948 194.325 Q506.948 192.685 508.423 191.603 Q509.915 190.521 512.03 190.521 Q514.785 190.521 516.621 192.373 Q517.195 192.947 517.474 193.685 Q517.769 194.423 517.802 194.915 Q517.834 195.39 517.834 196.341 L517.834 203.047 Q517.834 203.244 517.9 203.572 Q517.966 203.9 518.261 204.326 Q518.572 204.736 519.08 204.736 Q520.294 204.736 520.277 202.588 L520.277 200.702 L521.13 200.702 L521.13 202.588 Q521.13 204.375 520.179 205.08 Q519.244 205.769 518.375 205.769 Q517.261 205.769 516.556 204.949 Q515.851 204.129 515.752 203.014 Q515.244 204.293 514.08 205.129 Q512.932 205.949 511.358 205.949 Q510.145 205.949 508.997 205.638 Q507.866 205.342 506.915 204.506 Q505.98 203.654 505.98 202.375 M508.571 202.342 Q508.571 203.588 509.456 204.391 Q510.342 205.195 511.588 205.195 Q512.998 205.195 514.26 204.113 Q515.523 203.014 515.523 200.866 L515.523 197.505 Q511.801 197.636 510.178 199.128 Q508.571 200.604 508.571 202.342 Z" fill="#000000" fill-rule="evenodd" fill-opacity="1" /><path clip-path="url(#clip580)" d="M524.737 203.736 Q522.605 201.506 522.605 198.325 Q522.605 195.128 524.704 192.833 Q526.803 190.521 529.885 190.521 Q531.934 190.521 533.476 191.504 Q535.017 192.472 535.017 194.128 Q535.017 194.866 534.574 195.292 Q534.148 195.702 533.476 195.702 Q532.771 195.702 532.344 195.275 Q531.934 194.833 531.934 194.161 Q531.934 193.865 532.033 193.57 Q532.131 193.275 532.492 192.964 Q532.869 192.652 533.508 192.603 Q532.312 191.373 529.983 191.373 Q529.951 191.373 529.918 191.373 Q528.213 191.373 526.803 192.98 Q525.393 194.587 525.393 198.259 Q525.393 200.178 525.852 201.588 Q526.327 202.981 527.098 203.703 Q527.868 204.424 528.623 204.769 Q529.377 205.097 530.115 205.097 Q533.41 205.097 534.525 201.571 Q534.623 201.244 534.951 201.244 Q535.394 201.244 535.394 201.571 Q535.394 201.735 535.263 202.162 Q535.132 202.588 534.722 203.26 Q534.312 203.932 533.722 204.523 Q533.148 205.097 532.115 205.523 Q531.098 205.949 529.819 205.949 Q526.868 205.949 524.737 203.736 Z" fill="#000000" fill-rule="evenodd" fill-opacity="1" /><path clip-path="url(#clip580)" d="M539.36 203.736 Q537.229 201.506 537.229 198.325 Q537.229 195.128 539.328 192.833 Q541.426 190.521 544.509 190.521 Q546.558 190.521 548.099 191.504 Q549.64 192.472 549.64 194.128 Q549.64 194.866 549.198 195.292 Q548.771 195.702 548.099 195.702 Q547.394 195.702 546.968 195.275 Q546.558 194.833 546.558 194.161 Q546.558 193.865 546.656 193.57 Q546.755 193.275 547.115 192.964 Q547.493 192.652 548.132 192.603 Q546.935 191.373 544.607 191.373 Q544.574 191.373 544.541 191.373 Q542.836 191.373 541.426 192.98 Q540.016 194.587 540.016 198.259 Q540.016 200.178 540.475 201.588 Q540.951 202.981 541.721 203.703 Q542.492 204.424 543.246 204.769 Q544 205.097 544.738 205.097 Q548.034 205.097 549.149 201.571 Q549.247 201.244 549.575 201.244 Q550.018 201.244 550.018 201.571 Q550.018 201.735 549.886 202.162 Q549.755 202.588 549.345 203.26 Q548.935 203.932 548.345 204.523 Q547.771 205.097 546.738 205.523 Q545.722 205.949 544.443 205.949 Q541.492 205.949 539.36 203.736 Z" fill="#000000" fill-rule="evenodd" fill-opacity="1" /><path clip-path="url(#clip580)" d="M505.98 249.292 Q505.98 248.685 506.03 248.505 Q506.095 248.324 506.357 248.046 L512.801 240.864 Q516.326 236.897 516.326 233.437 Q516.326 231.191 515.146 229.584 Q513.981 227.977 511.834 227.977 Q510.358 227.977 509.112 228.879 Q507.866 229.781 507.292 231.388 Q507.39 231.355 507.735 231.355 Q508.571 231.355 509.03 231.88 Q509.505 232.404 509.505 233.109 Q509.505 234.011 508.915 234.454 Q508.341 234.88 507.767 234.88 Q507.538 234.88 507.226 234.831 Q506.931 234.782 506.456 234.323 Q505.98 233.847 505.98 233.011 Q505.98 230.666 507.751 228.797 Q509.538 226.928 512.26 226.928 Q515.342 226.928 517.359 228.764 Q519.392 230.584 519.392 233.437 Q519.392 234.437 519.08 235.355 Q518.785 236.257 518.375 236.962 Q517.982 237.667 516.9 238.799 Q515.818 239.93 514.949 240.733 Q514.08 241.537 512.129 243.242 L508.571 246.701 L514.621 246.701 Q517.572 246.701 517.802 246.439 Q518.13 245.963 518.539 243.455 L519.392 243.455 L518.441 249.292 L505.98 249.292 Z" fill="#000000" fill-rule="evenodd" fill-opacity="1" /><path clip-path="url(#clip580)" d="M523.081 248.751 Q522.605 248.21 522.605 247.505 Q522.605 246.8 523.064 246.275 Q523.54 245.734 524.392 245.734 Q525.393 245.734 525.966 246.701 Q526.54 247.652 526.54 249.259 Q526.54 250.997 525.835 252.604 Q525.13 254.227 524.442 254.998 Q523.753 255.768 523.474 255.768 Q523.146 255.768 523.146 255.407 Q523.146 255.276 523.376 255.03 Q525.786 252.44 525.802 249.259 Q525.802 248.751 525.737 248.751 L525.655 248.816 Q525.081 249.292 524.392 249.292 Q523.556 249.292 523.081 248.751 Z" fill="#000000" fill-rule="evenodd" fill-opacity="1" /><path clip-path="url(#clip580)" d="M564.645 244.488 Q564.645 244.619 564.497 245.127 Q564.35 245.636 563.989 246.423 Q563.645 247.21 563.153 247.931 Q562.677 248.636 561.89 249.161 Q561.12 249.669 560.234 249.669 Q559.054 249.669 558.267 248.882 Q557.48 248.095 557.48 246.914 Q557.48 246.275 557.922 245.062 Q560.005 239.52 560.005 237.536 Q560.005 235.192 558.185 235.192 Q557.152 235.192 556.217 235.618 Q555.283 236.044 554.676 236.634 Q554.069 237.225 553.594 237.897 Q553.118 238.569 552.905 239.012 Q552.709 239.454 552.659 239.651 L550.643 247.751 Q550.479 248.439 550.364 248.767 Q550.249 249.095 549.938 249.374 Q549.626 249.669 549.134 249.669 Q548.724 249.669 548.429 249.423 Q548.151 249.177 548.151 248.751 Q548.151 248.685 548.233 248.341 Q548.315 247.997 548.429 247.521 Q548.544 247.046 548.593 246.767 Q549.183 244.537 549.265 244.226 L550.2 240.323 Q550.708 238.389 550.708 237.536 Q550.708 235.192 548.888 235.192 Q547.987 235.192 547.134 235.536 Q546.298 235.864 545.724 236.323 Q545.15 236.782 544.625 237.421 Q544.117 238.044 543.855 238.471 Q543.609 238.881 543.412 239.29 L542.986 240.963 Q542.888 241.422 542.412 243.209 L541.674 246.242 Q541.15 248.505 541.035 248.718 Q540.871 249.177 540.51 249.423 Q540.149 249.669 539.789 249.669 Q539.379 249.669 539.1 249.423 Q538.821 249.177 538.821 248.751 Q538.821 248.685 538.871 248.439 Q538.92 248.193 539.002 247.849 Q539.084 247.505 539.117 247.308 L541.068 239.553 Q541.428 238.143 541.51 237.7 Q541.609 237.241 541.609 236.733 Q541.609 235.192 540.559 235.192 Q539.707 235.192 539.149 236.208 Q538.592 237.225 538.116 239.192 Q537.969 239.733 537.87 239.848 Q537.788 239.963 537.543 239.963 Q537.133 239.946 537.133 239.618 Q537.133 239.536 537.264 239.012 Q537.395 238.487 537.641 237.7 Q537.903 236.897 538.182 236.372 Q538.346 236.028 538.493 235.798 Q538.641 235.569 538.936 235.208 Q539.231 234.847 539.674 234.65 Q540.117 234.454 540.658 234.454 Q541.855 234.454 542.74 235.224 Q543.642 235.995 543.757 237.372 Q545.937 234.454 548.987 234.454 Q550.708 234.454 551.741 235.323 Q552.709 236.159 552.823 237.7 Q555.086 234.454 558.3 234.454 Q560.152 234.454 561.152 235.421 Q562.153 236.372 562.153 238.044 Q562.153 238.913 561.71 240.569 Q561.267 242.209 560.972 243.029 Q560.677 243.848 560.103 245.422 Q559.496 246.931 559.496 247.816 Q559.496 248.39 559.693 248.652 Q559.89 248.915 560.316 248.915 Q560.972 248.915 561.546 248.538 Q562.12 248.144 562.53 247.505 Q562.956 246.849 563.235 246.193 Q563.513 245.521 563.726 244.767 Q563.858 244.357 563.923 244.258 Q564.005 244.16 564.235 244.16 Q564.645 244.16 564.645 244.488 Z" fill="#000000" fill-rule="evenodd" fill-opacity="1" /><polyline clip-path="url(#clip580)" style="stroke:#3da44d; stroke-linecap:round; stroke-linejoin:round; stroke-width:4; stroke-opacity:1; fill:none" points="306.1,288.22 448.89,288.22 "/>
<path clip-path="url(#clip580)" d="M359.931 270.656 L359.931 305.784 L395.059 305.784 L395.059 270.656 L359.931 270.656 Z" fill="#3da44d" fill-rule="evenodd" fill-opacity="1" stroke="#000000" stroke-opacity="1" stroke-width="5.12"/>
<path clip-path="url(#clip580)" d="M501.147 266.663 L498.547 277.156 Q498.406 277.788 498.289 277.952 Q498.172 278.116 497.844 278.116 Q497.587 278.116 497.423 277.999 Q497.282 277.882 497.282 277.765 L497.259 277.648 Q497.259 277.578 497.305 277.226 Q497.352 276.852 497.399 276.243 Q497.446 275.634 497.446 274.954 Q497.446 271.113 495.572 269.333 Q493.722 267.529 490.536 267.529 Q488.335 267.529 486.367 268.701 Q484.4 269.872 483.275 271.722 Q482.151 273.549 482.151 275.47 Q482.151 277.226 483.041 278.351 Q483.931 279.475 485.079 279.85 L488.288 280.716 Q491.661 281.583 492.621 281.958 Q493.581 282.309 494.378 283.105 Q496.743 285.307 496.743 288.727 Q496.743 291.678 495.08 294.535 Q493.417 297.37 490.56 299.22 Q487.702 301.047 484.54 301.047 Q478.989 301.047 476.436 297.604 L474.094 300.321 Q473.649 300.836 473.508 300.93 Q473.391 301.047 473.227 301.047 Q473.016 301.047 472.852 300.906 Q472.688 300.789 472.688 300.578 Q472.688 300.415 474.07 294.91 Q475.452 289.406 475.569 289.289 Q475.757 289.101 476.061 289.101 Q476.623 289.101 476.623 289.64 Q476.577 289.781 476.53 289.968 Q476.249 291.655 476.249 292.568 Q476.249 294.278 476.834 295.589 Q477.42 296.878 478.286 297.627 Q479.176 298.353 480.371 298.822 Q481.566 299.267 482.573 299.431 Q483.58 299.571 484.634 299.571 Q486.906 299.571 488.92 298.26 Q490.958 296.948 492.106 294.91 Q493.277 292.872 493.277 290.741 Q493.277 289.617 492.972 288.75 Q492.668 287.86 492.246 287.368 Q491.848 286.876 491.169 286.502 Q490.49 286.127 490.021 285.986 Q489.576 285.822 488.873 285.658 L483.744 284.3 Q481.683 283.691 480.207 281.934 Q478.755 280.178 478.755 277.484 Q478.755 274.65 480.418 272.027 Q482.104 269.38 484.845 267.787 Q487.609 266.171 490.583 266.171 Q492.925 266.171 494.729 267.084 Q496.532 267.974 497.446 269.637 L499.765 266.897 Q500.233 266.358 500.327 266.265 Q500.444 266.171 500.608 266.171 Q500.889 266.171 501.006 266.335 Q501.147 266.499 501.147 266.663 Z" fill="#000000" fill-rule="evenodd" fill-opacity="1" /><path clip-path="url(#clip580)" d="M505.98 267.412 Q505.98 264.559 509.341 263.051 Q511.358 262.083 515.523 261.837 L515.523 260.608 Q515.523 258.525 514.424 257.427 Q513.342 256.312 511.965 256.312 Q509.505 256.312 508.325 257.853 Q509.325 257.886 509.686 258.394 Q510.046 258.886 510.046 259.394 Q510.046 260.067 509.62 260.509 Q509.21 260.936 508.505 260.936 Q507.833 260.936 507.39 260.526 Q506.948 260.099 506.948 259.362 Q506.948 257.722 508.423 256.64 Q509.915 255.558 512.03 255.558 Q514.785 255.558 516.621 257.41 Q517.195 257.984 517.474 258.722 Q517.769 259.46 517.802 259.952 Q517.834 260.427 517.834 261.378 L517.834 268.084 Q517.834 268.281 517.9 268.609 Q517.966 268.937 518.261 269.363 Q518.572 269.773 519.08 269.773 Q520.294 269.773 520.277 267.625 L520.277 265.739 L521.13 265.739 L521.13 267.625 Q521.13 269.412 520.179 270.117 Q519.244 270.806 518.375 270.806 Q517.261 270.806 516.556 269.986 Q515.851 269.166 515.752 268.051 Q515.244 269.33 514.08 270.166 Q512.932 270.986 511.358 270.986 Q510.145 270.986 508.997 270.675 Q507.866 270.379 506.915 269.543 Q505.98 268.691 505.98 267.412 M508.571 267.379 Q508.571 268.625 509.456 269.429 Q510.342 270.232 511.588 270.232 Q512.998 270.232 514.26 269.15 Q515.523 268.051 515.523 265.903 L515.523 262.542 Q511.801 262.673 510.178 264.165 Q508.571 265.641 508.571 267.379 Z" fill="#000000" fill-rule="evenodd" fill-opacity="1" /><path clip-path="url(#clip580)" d="M524.737 268.773 Q522.605 266.543 522.605 263.362 Q522.605 260.165 524.704 257.87 Q526.803 255.558 529.885 255.558 Q531.934 255.558 533.476 256.541 Q535.017 257.509 535.017 259.165 Q535.017 259.903 534.574 260.329 Q534.148 260.739 533.476 260.739 Q532.771 260.739 532.344 260.313 Q531.934 259.87 531.934 259.198 Q531.934 258.902 532.033 258.607 Q532.131 258.312 532.492 258.001 Q532.869 257.689 533.508 257.64 Q532.312 256.41 529.983 256.41 Q529.951 256.41 529.918 256.41 Q528.213 256.41 526.803 258.017 Q525.393 259.624 525.393 263.297 Q525.393 265.215 525.852 266.625 Q526.327 268.018 527.098 268.74 Q527.868 269.461 528.623 269.806 Q529.377 270.134 530.115 270.134 Q533.41 270.134 534.525 266.608 Q534.623 266.281 534.951 266.281 Q535.394 266.281 535.394 266.608 Q535.394 266.772 535.263 267.199 Q535.132 267.625 534.722 268.297 Q534.312 268.969 533.722 269.56 Q533.148 270.134 532.115 270.56 Q531.098 270.986 529.819 270.986 Q526.868 270.986 524.737 268.773 Z" fill="#000000" fill-rule="evenodd" fill-opacity="1" /><path clip-path="url(#clip580)" d="M539.36 268.773 Q537.229 266.543 537.229 263.362 Q537.229 260.165 539.328 257.87 Q541.426 255.558 544.509 255.558 Q546.558 255.558 548.099 256.541 Q549.64 257.509 549.64 259.165 Q549.64 259.903 549.198 260.329 Q548.771 260.739 548.099 260.739 Q547.394 260.739 546.968 260.313 Q546.558 259.87 546.558 259.198 Q546.558 258.902 546.656 258.607 Q546.755 258.312 547.115 258.001 Q547.493 257.689 548.132 257.64 Q546.935 256.41 544.607 256.41 Q544.574 256.41 544.541 256.41 Q542.836 256.41 541.426 258.017 Q540.016 259.624 540.016 263.297 Q540.016 265.215 540.475 266.625 Q540.951 268.018 541.721 268.74 Q542.492 269.461 543.246 269.806 Q544 270.134 544.738 270.134 Q548.034 270.134 549.149 266.608 Q549.247 266.281 549.575 266.281 Q550.018 266.281 550.018 266.608 Q550.018 266.772 549.886 267.199 Q549.755 267.625 549.345 268.297 Q548.935 268.969 548.345 269.56 Q547.771 270.134 546.738 270.56 Q545.722 270.986 544.443 270.986 Q541.492 270.986 539.36 268.773 Z" fill="#000000" fill-rule="evenodd" fill-opacity="1" /><path clip-path="url(#clip580)" d="M505.98 314.329 Q505.98 313.722 506.03 313.542 Q506.095 313.362 506.357 313.083 L512.801 305.901 Q516.326 301.934 516.326 298.474 Q516.326 296.228 515.146 294.621 Q513.981 293.014 511.834 293.014 Q510.358 293.014 509.112 293.916 Q507.866 294.818 507.292 296.425 Q507.39 296.392 507.735 296.392 Q508.571 296.392 509.03 296.917 Q509.505 297.441 509.505 298.146 Q509.505 299.048 508.915 299.491 Q508.341 299.917 507.767 299.917 Q507.538 299.917 507.226 299.868 Q506.931 299.819 506.456 299.36 Q505.98 298.884 505.98 298.048 Q505.98 295.703 507.751 293.834 Q509.538 291.965 512.26 291.965 Q515.342 291.965 517.359 293.801 Q519.392 295.621 519.392 298.474 Q519.392 299.474 519.08 300.392 Q518.785 301.294 518.375 301.999 Q517.982 302.704 516.9 303.836 Q515.818 304.967 514.949 305.77 Q514.08 306.574 512.129 308.279 L508.571 311.738 L514.621 311.738 Q517.572 311.738 517.802 311.476 Q518.13 311.001 518.539 308.492 L519.392 308.492 L518.441 314.329 L505.98 314.329 Z" fill="#000000" fill-rule="evenodd" fill-opacity="1" /><path clip-path="url(#clip580)" d="M523.081 313.788 Q522.605 313.247 522.605 312.542 Q522.605 311.837 523.064 311.312 Q523.54 310.771 524.392 310.771 Q525.393 310.771 525.966 311.738 Q526.54 312.689 526.54 314.296 Q526.54 316.034 525.835 317.641 Q525.13 319.264 524.442 320.035 Q523.753 320.805 523.474 320.805 Q523.146 320.805 523.146 320.444 Q523.146 320.313 523.376 320.067 Q525.786 317.477 525.802 314.296 Q525.802 313.788 525.737 313.788 L525.655 313.853 Q525.081 314.329 524.392 314.329 Q523.556 314.329 523.081 313.788 Z" fill="#000000" fill-rule="evenodd" fill-opacity="1" /><path clip-path="url(#clip580)" d="M555.332 309.525 Q555.332 309.656 555.184 310.164 Q555.037 310.673 554.676 311.46 Q554.332 312.247 553.856 312.968 Q553.381 313.673 552.594 314.198 Q551.823 314.706 550.938 314.706 Q549.757 314.706 548.97 313.919 Q548.183 313.132 548.183 311.951 Q548.183 311.296 548.528 310.394 Q550.708 304.573 550.708 302.573 Q550.708 300.229 548.888 300.229 Q547.987 300.229 547.134 300.573 Q546.298 300.901 545.724 301.36 Q545.15 301.819 544.625 302.458 Q544.117 303.081 543.855 303.508 Q543.609 303.918 543.412 304.327 L542.986 306 Q542.888 306.459 542.412 308.246 L541.674 311.279 Q541.15 313.542 541.035 313.755 Q540.871 314.214 540.51 314.46 Q540.149 314.706 539.789 314.706 Q539.379 314.706 539.1 314.46 Q538.821 314.214 538.821 313.788 Q538.821 313.722 538.871 313.476 Q538.92 313.23 539.002 312.886 Q539.084 312.542 539.117 312.345 L541.068 304.59 Q541.428 303.18 541.51 302.737 Q541.609 302.278 541.609 301.77 Q541.609 300.229 540.559 300.229 Q539.707 300.229 539.149 301.245 Q538.592 302.262 538.116 304.229 Q537.969 304.77 537.87 304.885 Q537.788 305 537.543 305 Q537.133 304.983 537.133 304.655 Q537.133 304.573 537.264 304.032 Q537.395 303.491 537.641 302.721 Q537.903 301.934 538.149 301.409 Q538.362 301.016 538.477 300.835 Q538.608 300.638 538.92 300.261 Q539.248 299.868 539.674 299.687 Q540.117 299.491 540.658 299.491 Q541.871 299.491 542.756 300.278 Q543.642 301.048 543.757 302.409 Q545.937 299.491 548.987 299.491 Q550.79 299.491 551.823 300.442 Q552.856 301.393 552.856 303.081 Q552.856 303.475 552.774 303.983 Q552.709 304.475 552.545 305.098 Q552.397 305.721 552.266 306.197 Q552.135 306.672 551.872 307.443 Q551.61 308.197 551.495 308.525 Q551.381 308.853 551.102 309.623 Q550.839 310.377 550.807 310.459 Q550.2 311.984 550.2 312.853 Q550.2 313.427 550.38 313.689 Q550.577 313.952 551.003 313.952 Q552.151 313.952 553.004 312.82 Q553.873 311.673 554.43 309.804 Q554.561 309.394 554.627 309.295 Q554.709 309.197 554.938 309.197 Q555.332 309.197 555.332 309.525 Z" fill="#000000" fill-rule="evenodd" fill-opacity="1" /></svg>
