<?xml version="1.0" encoding="utf-8"?>
<svg xmlns="http://www.w3.org/2000/svg" xmlns:xlink="http://www.w3.org/1999/xlink" width="600" height="400" viewBox="0 0 2400 1600">
<defs>
  <clipPath id="clip030">
    <rect x="0" y="0" width="2400" height="1600"/>
  </clipPath>
</defs>
<path clip-path="url(#clip030)" d="M0 1600 L2400 1600 L2400 0 L0 0  Z" fill="#ffffff" fill-rule="evenodd" fill-opacity="1"/>
<defs>
  <clipPath id="clip031">
    <rect x="480" y="0" width="1681" height="1600"/>
  </clipPath>
</defs>
<defs>
  <clipPath id="clip032">
    <rect x="171" y="47" width="2182" height="1377"/>
  </clipPath>
</defs>
<path clip-path="url(#clip030)" d="M171.554 1423.18 L2352.76 1423.18 L2352.76 47.2441 L171.554 47.2441  Z" fill="#ffffff" fill-rule="evenodd" fill-opacity="1"/>
<polyline clip-path="url(#clip030)" style="stroke:#000000; stroke-linecap:round; stroke-linejoin:round; stroke-width:4; stroke-opacity:1; fill:none" points="171.554,1423.18 2352.76,1423.18 "/>
<polyline clip-path="url(#clip030)" style="stroke:#000000; stroke-linecap:round; stroke-linejoin:round; stroke-width:4; stroke-opacity:1; fill:none" points="171.554,47.2441 2352.76,47.2441 "/>
<polyline clip-path="url(#clip030)" style="stroke:#000000; stroke-linecap:round; stroke-linejoin:round; stroke-width:4; stroke-opacity:1; fill:none" points="576.243,1423.18 576.243,1404.28 "/>
<polyline clip-path="url(#clip030)" style="stroke:#000000; stroke-linecap:round; stroke-linejoin:round; stroke-width:4; stroke-opacity:1; fill:none" points="1004.94,1423.18 1004.94,1404.28 "/>
<polyline clip-path="url(#clip030)" style="stroke:#000000; stroke-linecap:round; stroke-linejoin:round; stroke-width:4; stroke-opacity:1; fill:none" points="1433.63,1423.18 1433.63,1404.28 "/>
<polyline clip-path="url(#clip030)" style="stroke:#000000; stroke-linecap:round; stroke-linejoin:round; stroke-width:4; stroke-opacity:1; fill:none" points="1862.33,1423.18 1862.33,1404.28 "/>
<polyline clip-path="url(#clip030)" style="stroke:#000000; stroke-linecap:round; stroke-linejoin:round; stroke-width:4; stroke-opacity:1; fill:none" points="2291.02,1423.18 2291.02,1404.28 "/>
<path clip-path="url(#clip030)" d="M547.426 1472.22 Q547.723 1472.51 547.723 1472.93 Q547.723 1473.35 547.426 1473.65 Q547.13 1473.94 546.71 1473.94 L515.04 1473.94 Q514.62 1473.94 514.324 1473.65 Q514.027 1473.35 514.027 1472.93 Q514.027 1472.51 514.324 1472.22 Q514.62 1471.92 515.04 1471.92 L546.71 1471.92 Q547.13 1471.92 547.426 1472.22 Z" fill="#000000" fill-rule="evenodd" fill-opacity="1" /><path clip-path="url(#clip030)" d="M555.035 1456.7 L555.035 1455.12 Q561.112 1455.12 564.249 1451.88 Q565.114 1451.88 565.262 1452.08 Q565.41 1452.28 565.41 1453.19 L565.41 1481.58 Q565.41 1483.08 566.151 1483.55 Q566.893 1484.02 570.129 1484.02 L571.734 1484.02 L571.734 1485.58 Q569.956 1485.43 563.533 1485.43 Q557.11 1485.43 555.356 1485.58 L555.356 1484.02 L556.962 1484.02 Q560.149 1484.02 560.914 1483.58 Q561.68 1483.11 561.68 1481.58 L561.68 1455.37 Q559.037 1456.7 555.035 1456.7 Z" fill="#000000" fill-rule="evenodd" fill-opacity="1" /><path clip-path="url(#clip030)" d="M577.811 1469.4 Q577.811 1461.96 579.689 1457.91 Q582.307 1451.88 588.483 1451.88 Q589.793 1451.88 591.151 1452.26 Q592.535 1452.6 594.264 1453.96 Q596.018 1455.32 597.08 1457.54 Q599.106 1461.84 599.106 1469.4 Q599.106 1476.79 597.228 1480.81 Q594.486 1486.69 588.434 1486.69 Q586.161 1486.69 583.839 1485.53 Q581.542 1484.37 580.084 1481.58 Q577.811 1477.4 577.811 1469.4 M582.011 1468.78 Q582.011 1476.41 582.554 1479.45 Q583.172 1482.74 584.852 1484.17 Q586.556 1485.58 588.434 1485.58 Q590.46 1485.58 592.139 1484.07 Q593.844 1482.54 594.363 1479.26 Q594.931 1476.02 594.906 1468.78 Q594.906 1461.74 594.412 1458.92 Q593.745 1455.64 591.966 1454.33 Q590.213 1453 588.434 1453 Q587.767 1453 587.05 1453.19 Q586.359 1453.39 585.346 1453.96 Q584.333 1454.53 583.543 1455.94 Q582.777 1457.34 582.406 1459.47 Q582.011 1462.21 582.011 1468.78 Z" fill="#000000" fill-rule="evenodd" fill-opacity="1" /><path clip-path="url(#clip030)" d="M606.196 1484.76 Q605.43 1483.95 605.43 1482.89 Q605.43 1481.82 606.196 1481.06 Q606.961 1480.27 608.122 1480.27 Q609.234 1480.27 609.975 1481.01 Q610.741 1481.73 610.741 1482.91 Q610.741 1484.07 609.926 1484.84 Q609.135 1485.58 608.122 1485.58 Q606.961 1485.58 606.196 1484.76 Z" fill="#000000" fill-rule="evenodd" fill-opacity="1" /><path clip-path="url(#clip030)" d="M617.164 1469.4 Q617.164 1461.96 619.041 1457.91 Q621.66 1451.88 627.836 1451.88 Q629.145 1451.88 630.504 1452.26 Q631.887 1452.6 633.616 1453.96 Q635.37 1455.32 636.433 1457.54 Q638.458 1461.84 638.458 1469.4 Q638.458 1476.79 636.581 1480.81 Q633.839 1486.69 627.786 1486.69 Q625.514 1486.69 623.192 1485.53 Q620.894 1484.37 619.437 1481.58 Q617.164 1477.4 617.164 1469.4 M621.363 1468.78 Q621.363 1476.41 621.907 1479.45 Q622.525 1482.74 624.204 1484.17 Q625.909 1485.58 627.786 1485.58 Q629.812 1485.58 631.492 1484.07 Q633.196 1482.54 633.715 1479.26 Q634.283 1476.02 634.259 1468.78 Q634.259 1461.74 633.765 1458.92 Q633.098 1455.64 631.319 1454.33 Q629.565 1453 627.786 1453 Q627.119 1453 626.403 1453.19 Q625.711 1453.39 624.698 1453.96 Q623.686 1454.53 622.895 1455.94 Q622.129 1457.34 621.759 1459.47 Q621.363 1462.21 621.363 1468.78 Z" fill="#000000" fill-rule="evenodd" fill-opacity="1" /><path clip-path="url(#clip030)" d="M989.041 1472.22 Q989.338 1472.51 989.338 1472.93 Q989.338 1473.35 989.041 1473.65 Q988.745 1473.94 988.325 1473.94 L956.655 1473.94 Q956.235 1473.94 955.939 1473.65 Q955.642 1473.35 955.642 1472.93 Q955.642 1472.51 955.939 1472.22 Q956.235 1471.92 956.655 1471.92 L988.325 1471.92 Q988.745 1471.92 989.041 1472.22 Z" fill="#000000" fill-rule="evenodd" fill-opacity="1" /><path clip-path="url(#clip030)" d="M994.995 1461.79 L996.65 1451.39 L997.91 1451.39 Q998.058 1452.01 998.305 1452.28 Q998.577 1452.55 1000.01 1452.77 Q1001.47 1453 1004.41 1453 L1016.68 1453 Q1016.68 1454.16 1016.24 1454.77 L1009.4 1464.38 Q1007.22 1467.42 1006.26 1473.03 Q1005.69 1476.79 1005.72 1481.33 L1005.72 1483.9 Q1005.72 1486.69 1003.37 1486.69 Q1001.05 1486.69 1001.05 1483.9 Q1001.05 1474.24 1007.27 1464.88 Q1007.94 1463.91 1010.39 1460.48 Q1012.86 1457.05 1012.95 1456.9 L1002.48 1456.9 Q997.885 1456.9 997.515 1457.2 Q997.021 1457.64 996.255 1461.79 L994.995 1461.79 Z" fill="#000000" fill-rule="evenodd" fill-opacity="1" /><path clip-path="url(#clip030)" d="M1022.51 1484.76 Q1021.75 1483.95 1021.75 1482.89 Q1021.75 1481.82 1022.51 1481.06 Q1023.28 1480.27 1024.44 1480.27 Q1025.55 1480.27 1026.29 1481.01 Q1027.06 1481.73 1027.06 1482.91 Q1027.06 1484.07 1026.24 1484.84 Q1025.45 1485.58 1024.44 1485.58 Q1023.28 1485.58 1022.51 1484.76 Z" fill="#000000" fill-rule="evenodd" fill-opacity="1" /><path clip-path="url(#clip030)" d="M1034.03 1477.43 Q1034.03 1475.92 1034.84 1475.35 Q1035.66 1474.76 1036.52 1474.76 Q1037.68 1474.76 1038.35 1475.5 Q1039.04 1476.22 1039.04 1477.23 Q1039.04 1478.24 1038.35 1478.98 Q1037.68 1479.7 1036.52 1479.7 Q1035.95 1479.7 1035.66 1479.6 Q1036.32 1481.92 1038.35 1483.6 Q1040.4 1485.28 1043.09 1485.28 Q1046.48 1485.28 1048.5 1482 Q1049.71 1479.87 1049.71 1475.06 Q1049.71 1470.81 1048.8 1468.68 Q1047.39 1465.45 1044.5 1465.45 Q1040.4 1465.45 1037.98 1468.98 Q1037.68 1469.42 1037.34 1469.45 Q1036.84 1469.45 1036.72 1469.18 Q1036.62 1468.88 1036.62 1468.11 L1036.62 1453.14 Q1036.62 1451.93 1037.11 1451.93 Q1037.31 1451.93 1037.73 1452.08 Q1040.92 1453.49 1044.45 1453.51 Q1048.08 1453.51 1051.34 1452.03 Q1051.59 1451.88 1051.74 1451.88 Q1052.23 1451.88 1052.26 1452.45 Q1052.26 1452.65 1051.84 1453.24 Q1051.44 1453.81 1050.58 1454.58 Q1049.71 1455.32 1048.6 1456.03 Q1047.49 1456.75 1045.86 1457.25 Q1044.25 1457.71 1042.47 1457.71 Q1040.35 1457.71 1038.18 1457.05 L1038.18 1466.9 Q1040.79 1464.33 1044.6 1464.33 Q1048.65 1464.33 1051.44 1467.6 Q1054.23 1470.86 1054.23 1475.4 Q1054.23 1480.17 1050.92 1483.43 Q1047.64 1486.69 1043.19 1486.69 Q1039.14 1486.69 1036.57 1483.8 Q1034.03 1480.91 1034.03 1477.43 Z" fill="#000000" fill-rule="evenodd" fill-opacity="1" /><path clip-path="url(#clip030)" d="M1417.46 1472.22 Q1417.76 1472.51 1417.76 1472.93 Q1417.76 1473.35 1417.46 1473.65 Q1417.17 1473.94 1416.75 1473.94 L1385.08 1473.94 Q1384.66 1473.94 1384.36 1473.65 Q1384.07 1473.35 1384.07 1472.93 Q1384.07 1472.51 1384.36 1472.22 Q1384.66 1471.92 1385.08 1471.92 L1416.75 1471.92 Q1417.17 1471.92 1417.46 1472.22 Z" fill="#000000" fill-rule="evenodd" fill-opacity="1" /><path clip-path="url(#clip030)" d="M1423.1 1477.43 Q1423.1 1475.92 1423.91 1475.35 Q1424.73 1474.76 1425.59 1474.76 Q1426.75 1474.76 1427.42 1475.5 Q1428.11 1476.22 1428.11 1477.23 Q1428.11 1478.24 1427.42 1478.98 Q1426.75 1479.7 1425.59 1479.7 Q1425.02 1479.7 1424.73 1479.6 Q1425.39 1481.92 1427.42 1483.6 Q1429.47 1485.28 1432.16 1485.28 Q1435.55 1485.28 1437.57 1482 Q1438.78 1479.87 1438.78 1475.06 Q1438.78 1470.81 1437.87 1468.68 Q1436.46 1465.45 1433.57 1465.45 Q1429.47 1465.45 1427.05 1468.98 Q1426.75 1469.42 1426.41 1469.45 Q1425.91 1469.45 1425.79 1469.18 Q1425.69 1468.88 1425.69 1468.11 L1425.69 1453.14 Q1425.69 1451.93 1426.19 1451.93 Q1426.38 1451.93 1426.8 1452.08 Q1429.99 1453.49 1433.52 1453.51 Q1437.15 1453.51 1440.41 1452.03 Q1440.66 1451.88 1440.81 1451.88 Q1441.3 1451.88 1441.33 1452.45 Q1441.33 1452.65 1440.91 1453.24 Q1440.51 1453.81 1439.65 1454.58 Q1438.78 1455.32 1437.67 1456.03 Q1436.56 1456.75 1434.93 1457.25 Q1433.32 1457.71 1431.55 1457.71 Q1429.42 1457.71 1427.25 1457.05 L1427.25 1466.9 Q1429.87 1464.33 1433.67 1464.33 Q1437.72 1464.33 1440.51 1467.6 Q1443.3 1470.86 1443.3 1475.4 Q1443.3 1480.17 1439.99 1483.43 Q1436.71 1486.69 1432.26 1486.69 Q1428.21 1486.69 1425.64 1483.8 Q1423.1 1480.91 1423.1 1477.43 Z" fill="#000000" fill-rule="evenodd" fill-opacity="1" /><path clip-path="url(#clip030)" d="M1450.94 1484.76 Q1450.17 1483.95 1450.17 1482.89 Q1450.17 1481.82 1450.94 1481.06 Q1451.7 1480.27 1452.86 1480.27 Q1453.98 1480.27 1454.72 1481.01 Q1455.48 1481.73 1455.48 1482.91 Q1455.48 1484.07 1454.67 1484.84 Q1453.88 1485.58 1452.86 1485.58 Q1451.7 1485.58 1450.94 1484.76 Z" fill="#000000" fill-rule="evenodd" fill-opacity="1" /><path clip-path="url(#clip030)" d="M1461.91 1469.4 Q1461.91 1461.96 1463.78 1457.91 Q1466.4 1451.88 1472.58 1451.88 Q1473.89 1451.88 1475.25 1452.26 Q1476.63 1452.6 1478.36 1453.96 Q1480.11 1455.32 1481.17 1457.54 Q1483.2 1461.84 1483.2 1469.4 Q1483.2 1476.79 1481.32 1480.81 Q1478.58 1486.69 1472.53 1486.69 Q1470.26 1486.69 1467.93 1485.53 Q1465.64 1484.37 1464.18 1481.58 Q1461.91 1477.4 1461.91 1469.4 M1466.11 1468.78 Q1466.11 1476.41 1466.65 1479.45 Q1467.27 1482.74 1468.95 1484.17 Q1470.65 1485.58 1472.53 1485.58 Q1474.55 1485.58 1476.23 1484.07 Q1477.94 1482.54 1478.46 1479.26 Q1479.03 1476.02 1479 1468.78 Q1479 1461.74 1478.51 1458.92 Q1477.84 1455.64 1476.06 1454.33 Q1474.31 1453 1472.53 1453 Q1471.86 1453 1471.15 1453.19 Q1470.45 1453.39 1469.44 1453.96 Q1468.43 1454.53 1467.64 1455.94 Q1466.87 1457.34 1466.5 1459.47 Q1466.11 1462.21 1466.11 1468.78 Z" fill="#000000" fill-rule="evenodd" fill-opacity="1" /><path clip-path="url(#clip030)" d="M1846.43 1472.22 Q1846.73 1472.51 1846.73 1472.93 Q1846.73 1473.35 1846.43 1473.65 Q1846.14 1473.94 1845.72 1473.94 L1814.05 1473.94 Q1813.63 1473.94 1813.33 1473.65 Q1813.03 1473.35 1813.03 1472.93 Q1813.03 1472.51 1813.33 1472.22 Q1813.63 1471.92 1814.05 1471.92 L1845.72 1471.92 Q1846.14 1471.92 1846.43 1472.22 Z" fill="#000000" fill-rule="evenodd" fill-opacity="1" /><path clip-path="url(#clip030)" d="M1852.06 1485.58 Q1852.06 1484.67 1852.14 1484.39 Q1852.24 1484.12 1852.63 1483.7 L1862.34 1472.88 Q1867.65 1466.9 1867.65 1461.69 Q1867.65 1458.31 1865.87 1455.89 Q1864.12 1453.47 1860.88 1453.47 Q1858.66 1453.47 1856.78 1454.82 Q1854.91 1456.18 1854.04 1458.6 Q1854.19 1458.55 1854.71 1458.55 Q1855.97 1458.55 1856.66 1459.34 Q1857.38 1460.14 1857.38 1461.2 Q1857.38 1462.56 1856.49 1463.22 Q1855.62 1463.87 1854.76 1463.87 Q1854.41 1463.87 1853.94 1463.79 Q1853.5 1463.72 1852.78 1463.03 Q1852.06 1462.31 1852.06 1461.05 Q1852.06 1457.52 1854.73 1454.7 Q1857.42 1451.88 1861.53 1451.88 Q1866.17 1451.88 1869.21 1454.65 Q1872.27 1457.39 1872.27 1461.69 Q1872.27 1463.2 1871.8 1464.58 Q1871.36 1465.94 1870.74 1467 Q1870.15 1468.07 1868.52 1469.77 Q1866.89 1471.47 1865.58 1472.68 Q1864.27 1473.9 1861.33 1476.46 L1855.97 1481.68 L1865.08 1481.68 Q1869.53 1481.68 1869.88 1481.28 Q1870.37 1480.57 1870.99 1476.79 L1872.27 1476.79 L1870.84 1485.58 L1852.06 1485.58 Z" fill="#000000" fill-rule="evenodd" fill-opacity="1" /><path clip-path="url(#clip030)" d="M1879.9 1484.76 Q1879.14 1483.95 1879.14 1482.89 Q1879.14 1481.82 1879.9 1481.06 Q1880.67 1480.27 1881.83 1480.27 Q1882.94 1480.27 1883.68 1481.01 Q1884.45 1481.73 1884.45 1482.91 Q1884.45 1484.07 1883.64 1484.84 Q1882.84 1485.58 1881.83 1485.58 Q1880.67 1485.58 1879.9 1484.76 Z" fill="#000000" fill-rule="evenodd" fill-opacity="1" /><path clip-path="url(#clip030)" d="M1891.42 1477.43 Q1891.42 1475.92 1892.23 1475.35 Q1893.05 1474.76 1893.91 1474.76 Q1895.07 1474.76 1895.74 1475.5 Q1896.43 1476.22 1896.43 1477.23 Q1896.43 1478.24 1895.74 1478.98 Q1895.07 1479.7 1893.91 1479.7 Q1893.34 1479.7 1893.05 1479.6 Q1893.71 1481.92 1895.74 1483.6 Q1897.79 1485.28 1900.48 1485.28 Q1903.87 1485.28 1905.89 1482 Q1907.1 1479.87 1907.1 1475.06 Q1907.1 1470.81 1906.19 1468.68 Q1904.78 1465.45 1901.89 1465.45 Q1897.79 1465.45 1895.37 1468.98 Q1895.07 1469.42 1894.73 1469.45 Q1894.23 1469.45 1894.11 1469.18 Q1894.01 1468.88 1894.01 1468.11 L1894.01 1453.14 Q1894.01 1451.93 1894.5 1451.93 Q1894.7 1451.93 1895.12 1452.08 Q1898.31 1453.49 1901.84 1453.51 Q1905.47 1453.51 1908.73 1452.03 Q1908.98 1451.88 1909.13 1451.88 Q1909.62 1451.88 1909.65 1452.45 Q1909.65 1452.65 1909.23 1453.24 Q1908.83 1453.81 1907.97 1454.58 Q1907.1 1455.32 1905.99 1456.03 Q1904.88 1456.75 1903.25 1457.25 Q1901.64 1457.71 1899.87 1457.71 Q1897.74 1457.71 1895.57 1457.05 L1895.57 1466.9 Q1898.19 1464.33 1901.99 1464.33 Q1906.04 1464.33 1908.83 1467.6 Q1911.62 1470.86 1911.62 1475.4 Q1911.62 1480.17 1908.31 1483.43 Q1905.03 1486.69 1900.58 1486.69 Q1896.53 1486.69 1893.96 1483.8 Q1891.42 1480.91 1891.42 1477.43 Z" fill="#000000" fill-rule="evenodd" fill-opacity="1" /><path clip-path="url(#clip030)" d="M2260.7 1469.4 Q2260.7 1461.96 2262.58 1457.91 Q2265.2 1451.88 2271.37 1451.88 Q2272.68 1451.88 2274.04 1452.26 Q2275.42 1452.6 2277.15 1453.96 Q2278.91 1455.32 2279.97 1457.54 Q2281.99 1461.84 2281.99 1469.4 Q2281.99 1476.79 2280.12 1480.81 Q2277.38 1486.69 2271.32 1486.69 Q2269.05 1486.69 2266.73 1485.53 Q2264.43 1484.37 2262.97 1481.58 Q2260.7 1477.4 2260.7 1469.4 M2264.9 1468.78 Q2264.9 1476.41 2265.44 1479.45 Q2266.06 1482.74 2267.74 1484.17 Q2269.45 1485.58 2271.32 1485.58 Q2273.35 1485.58 2275.03 1484.07 Q2276.73 1482.54 2277.25 1479.26 Q2277.82 1476.02 2277.8 1468.78 Q2277.8 1461.74 2277.3 1458.92 Q2276.63 1455.64 2274.86 1454.33 Q2273.1 1453 2271.32 1453 Q2270.66 1453 2269.94 1453.19 Q2269.25 1453.39 2268.23 1453.96 Q2267.22 1454.53 2266.43 1455.94 Q2265.67 1457.34 2265.3 1459.47 Q2264.9 1462.21 2264.9 1468.78 Z" fill="#000000" fill-rule="evenodd" fill-opacity="1" /><path clip-path="url(#clip030)" d="M2289.08 1484.76 Q2288.32 1483.95 2288.32 1482.89 Q2288.32 1481.82 2289.08 1481.06 Q2289.85 1480.27 2291.01 1480.27 Q2292.12 1480.27 2292.86 1481.01 Q2293.63 1481.73 2293.63 1482.91 Q2293.63 1484.07 2292.81 1484.84 Q2292.02 1485.58 2291.01 1485.58 Q2289.85 1485.58 2289.08 1484.76 Z" fill="#000000" fill-rule="evenodd" fill-opacity="1" /><path clip-path="url(#clip030)" d="M2300.05 1469.4 Q2300.05 1461.96 2301.93 1457.91 Q2304.55 1451.88 2310.72 1451.88 Q2312.03 1451.88 2313.39 1452.26 Q2314.78 1452.6 2316.51 1453.96 Q2318.26 1455.32 2319.32 1457.54 Q2321.35 1461.84 2321.35 1469.4 Q2321.35 1476.79 2319.47 1480.81 Q2316.73 1486.69 2310.68 1486.69 Q2308.4 1486.69 2306.08 1485.53 Q2303.78 1484.37 2302.33 1481.58 Q2300.05 1477.4 2300.05 1469.4 M2304.25 1468.78 Q2304.25 1476.41 2304.8 1479.45 Q2305.41 1482.74 2307.09 1484.17 Q2308.8 1485.58 2310.68 1485.58 Q2312.7 1485.58 2314.38 1484.07 Q2316.09 1482.54 2316.6 1479.26 Q2317.17 1476.02 2317.15 1468.78 Q2317.15 1461.74 2316.65 1458.92 Q2315.99 1455.64 2314.21 1454.33 Q2312.45 1453 2310.68 1453 Q2310.01 1453 2309.29 1453.19 Q2308.6 1453.39 2307.59 1453.96 Q2306.57 1454.53 2305.78 1455.94 Q2305.02 1457.34 2304.65 1459.47 Q2304.25 1462.21 2304.25 1468.78 Z" fill="#000000" fill-rule="evenodd" fill-opacity="1" /><path clip-path="url(#clip030)" d="M1285.56 1516.81 Q1285.56 1518.13 1284.46 1518.13 Q1282.53 1518.2 1281.21 1518.58 Q1279.89 1518.94 1279.12 1519.64 Q1278.38 1520.35 1277.96 1521.13 Q1277.57 1521.87 1277.31 1522.99 L1271.45 1546.41 Q1269.78 1553.01 1264.37 1557.81 Q1258.96 1562.57 1252.8 1562.57 Q1249.29 1562.57 1246.36 1561.13 Q1243.47 1559.68 1241.66 1556.75 Q1239.86 1553.81 1239.86 1549.92 Q1239.86 1548.05 1240.34 1546.09 L1244.33 1529.79 L1245.82 1523.99 Q1246.91 1519.71 1246.91 1519.32 Q1246.91 1518.71 1246.52 1518.55 Q1246.17 1518.36 1245.14 1518.26 L1242.63 1518.13 Q1241.85 1518.13 1241.53 1518.1 Q1241.24 1518.07 1241.02 1517.91 Q1240.79 1517.74 1240.79 1517.39 Q1240.79 1516.94 1240.89 1516.65 Q1241.02 1516.33 1241.24 1516.23 Q1241.47 1516.13 1241.63 1516.1 Q1241.79 1516.07 1242.05 1516.07 L1250.55 1516.26 L1258.99 1516.07 Q1259.92 1516.07 1259.92 1516.81 Q1259.92 1517.74 1259.5 1517.94 Q1259.09 1518.13 1257.67 1518.13 Q1255.25 1518.13 1254.16 1518.45 Q1253.09 1518.74 1252.77 1519.26 Q1252.48 1519.74 1252.13 1521.16 L1245.72 1546.83 Q1245.4 1548.11 1245.2 1549.4 Q1245.04 1550.66 1245.04 1551.3 L1245.01 1551.95 Q1245.01 1556.04 1247.27 1558.29 Q1249.55 1560.55 1253.06 1560.55 Q1258.22 1560.55 1263.01 1556.46 Q1267.85 1552.37 1269.49 1545.96 L1275.41 1522.41 Q1275.61 1521.83 1275.61 1521.03 Q1275.61 1519.74 1274.64 1518.97 Q1273.71 1518.16 1271.13 1518.13 Q1269.94 1518.13 1269.94 1517.39 Q1269.94 1516.78 1270.16 1516.49 Q1270.42 1516.17 1270.61 1516.13 Q1270.84 1516.07 1271.13 1516.07 Q1272.23 1516.07 1274.54 1516.17 Q1276.86 1516.26 1277.99 1516.26 Q1279.12 1516.26 1281.37 1516.17 Q1283.63 1516.07 1284.72 1516.07 Q1285.11 1516.07 1285.3 1516.26 Q1285.53 1516.42 1285.56 1516.62 L1285.56 1516.81 Z" fill="#000000" fill-rule="evenodd" fill-opacity="1" /><polyline clip-path="url(#clip030)" style="stroke:#000000; stroke-linecap:round; stroke-linejoin:round; stroke-width:4; stroke-opacity:1; fill:none" points="171.554,1423.18 171.554,47.2441 "/>
<polyline clip-path="url(#clip030)" style="stroke:#000000; stroke-linecap:round; stroke-linejoin:round; stroke-width:4; stroke-opacity:1; fill:none" points="2352.76,1423.18 2352.76,47.2441 "/>
<polyline clip-path="url(#clip030)" style="stroke:#000000; stroke-linecap:round; stroke-linejoin:round; stroke-width:4; stroke-opacity:1; fill:none" points="171.554,1423.18 190.452,1423.18 "/>
<polyline clip-path="url(#clip030)" style="stroke:#000000; stroke-linecap:round; stroke-linejoin:round; stroke-width:4; stroke-opacity:1; fill:none" points="171.554,964.535 190.452,964.535 "/>
<polyline clip-path="url(#clip030)" style="stroke:#000000; stroke-linecap:round; stroke-linejoin:round; stroke-width:4; stroke-opacity:1; fill:none" points="171.554,505.889 190.452,505.889 "/>
<polyline clip-path="url(#clip030)" style="stroke:#000000; stroke-linecap:round; stroke-linejoin:round; stroke-width:4; stroke-opacity:1; fill:none" points="171.554,47.2441 190.452,47.2441 "/>
<path clip-path="url(#clip030)" d="M114.26 1424.28 Q114.26 1416.84 116.138 1412.79 Q118.756 1406.76 124.932 1406.76 Q126.241 1406.76 127.6 1407.14 Q128.983 1407.48 130.713 1408.84 Q132.467 1410.2 133.529 1412.42 Q135.554 1416.72 135.554 1424.28 Q135.554 1431.67 133.677 1435.69 Q130.935 1441.57 124.883 1441.57 Q122.61 1441.57 120.288 1440.41 Q117.99 1439.25 116.533 1436.46 Q114.26 1432.28 114.26 1424.28 M118.46 1423.66 Q118.46 1431.29 119.003 1434.33 Q119.621 1437.62 121.301 1439.05 Q123.005 1440.46 124.883 1440.46 Q126.908 1440.46 128.588 1438.95 Q130.293 1437.42 130.811 1434.14 Q131.38 1430.9 131.355 1423.66 Q131.355 1416.62 130.861 1413.8 Q130.194 1410.52 128.415 1409.21 Q126.661 1407.88 124.883 1407.88 Q124.216 1407.88 123.499 1408.07 Q122.808 1408.27 121.795 1408.84 Q120.782 1409.41 119.991 1410.82 Q119.226 1412.22 118.855 1414.35 Q118.46 1417.09 118.46 1423.66 Z" fill="#000000" fill-rule="evenodd" fill-opacity="1" /><path clip-path="url(#clip030)" d="M118.855 952.936 L118.855 951.355 Q124.932 951.355 128.069 948.119 Q128.934 948.119 129.082 948.317 Q129.23 948.514 129.23 949.428 L129.23 977.813 Q129.23 979.32 129.971 979.789 Q130.713 980.258 133.949 980.258 L135.554 980.258 L135.554 981.815 Q133.776 981.666 127.353 981.666 Q120.93 981.666 119.176 981.815 L119.176 980.258 L120.782 980.258 Q123.969 980.258 124.734 979.814 Q125.5 979.344 125.5 977.813 L125.5 951.602 Q122.857 952.936 118.855 952.936 Z" fill="#000000" fill-rule="evenodd" fill-opacity="1" /><path clip-path="url(#clip030)" d="M115.347 523.169 Q115.347 522.255 115.421 521.984 Q115.52 521.712 115.915 521.292 L125.624 510.472 Q130.935 504.494 130.935 499.281 Q130.935 495.897 129.156 493.476 Q127.402 491.055 124.166 491.055 Q121.943 491.055 120.065 492.414 Q118.188 493.772 117.323 496.193 Q117.472 496.144 117.99 496.144 Q119.25 496.144 119.942 496.934 Q120.658 497.725 120.658 498.787 Q120.658 500.146 119.769 500.813 Q118.904 501.455 118.04 501.455 Q117.694 501.455 117.225 501.381 Q116.78 501.307 116.064 500.615 Q115.347 499.899 115.347 498.639 Q115.347 495.106 118.015 492.29 Q120.708 489.474 124.808 489.474 Q129.453 489.474 132.491 492.241 Q135.554 494.983 135.554 499.281 Q135.554 500.788 135.085 502.171 Q134.64 503.53 134.023 504.592 Q133.43 505.655 131.8 507.359 Q130.169 509.064 128.86 510.274 Q127.551 511.485 124.611 514.054 L119.25 519.266 L128.366 519.266 Q132.812 519.266 133.158 518.871 Q133.652 518.155 134.27 514.375 L135.554 514.375 L134.122 523.169 L115.347 523.169 Z" fill="#000000" fill-rule="evenodd" fill-opacity="1" /><path clip-path="url(#clip030)" d="M114.557 57.706 Q114.557 56.1991 115.421 55.4827 Q116.286 54.7663 117.397 54.7663 Q118.559 54.7663 119.374 55.5321 Q120.214 56.2732 120.214 57.5825 Q120.214 58.9905 119.226 59.781 Q118.262 60.5716 116.879 60.3739 Q118.089 62.3996 120.312 63.3136 Q122.56 64.2277 124.636 64.2277 Q126.809 64.2277 128.563 62.3502 Q130.342 60.4727 130.342 55.8779 Q130.342 51.9748 128.81 49.7268 Q127.304 47.4788 124.314 47.4788 L122.091 47.4788 Q121.325 47.4788 121.103 47.4047 Q120.881 47.3306 120.881 46.9106 Q120.881 46.4165 121.646 46.3177 Q122.412 46.3177 123.623 46.1695 Q126.562 46.0707 128.119 43.5262 Q129.527 41.1547 129.527 37.7704 Q129.527 34.6824 128.045 33.3979 Q126.587 32.0886 124.685 32.0886 Q122.906 32.0886 120.955 32.8297 Q119.003 33.5708 117.941 35.2259 Q121.078 35.2259 121.078 37.7704 Q121.078 38.882 120.362 39.6231 Q119.67 40.3395 118.509 40.3395 Q117.397 40.3395 116.656 39.6478 Q115.915 38.9314 115.915 37.7209 Q115.915 34.8307 118.484 32.8297 Q121.078 30.8287 124.883 30.8287 Q128.638 30.8287 131.404 32.805 Q134.196 34.7812 134.196 37.8198 Q134.196 40.8089 132.219 43.2545 Q130.243 45.7001 127.106 46.713 Q130.96 47.4788 133.257 50.0973 Q135.554 52.6912 135.554 55.8779 Q135.554 59.8305 132.442 62.7455 Q129.329 65.6357 124.784 65.6357 Q120.584 65.6357 117.57 63.363 Q114.557 61.0903 114.557 57.706 Z" fill="#000000" fill-rule="evenodd" fill-opacity="1" /><path clip-path="url(#clip030)" d="M17.0934 731.624 L31.5217 735.199 Q32.3912 735.392 32.6167 735.553 Q32.8421 735.714 32.8421 736.165 Q32.8421 736.519 32.6811 736.745 Q32.52 736.938 32.359 736.938 L32.198 736.97 Q32.1014 736.97 31.6183 736.906 Q31.103 736.842 30.2656 736.777 Q29.4283 736.713 28.4943 736.713 Q23.2125 736.713 20.7649 739.289 Q18.2851 741.833 18.2851 746.213 Q18.2851 749.241 19.8953 751.946 Q21.5056 754.651 24.0499 756.197 Q26.562 757.743 29.2028 757.743 Q31.6183 757.743 33.1642 756.519 Q34.71 755.295 35.2253 753.717 L36.417 749.305 Q37.6086 744.668 38.1239 743.347 Q38.607 742.027 39.702 740.932 Q42.7293 737.679 47.4314 737.679 Q51.4893 737.679 55.4184 739.966 Q59.3153 742.252 61.8596 746.181 Q64.3716 750.11 64.3716 754.458 Q64.3716 762.091 59.6374 765.601 L63.3733 768.822 Q64.0818 769.434 64.2106 769.627 Q64.3716 769.788 64.3716 770.014 Q64.3716 770.303 64.1784 770.529 Q64.0174 770.754 63.7275 770.754 Q63.5021 770.754 55.9337 768.854 Q48.3653 766.954 48.2043 766.793 Q47.9467 766.535 47.9467 766.117 Q47.9467 765.344 48.6874 765.344 Q48.8806 765.408 49.1383 765.473 Q51.4571 765.859 52.7131 765.859 Q55.0641 765.859 56.8677 765.054 Q58.639 764.249 59.6696 763.057 Q60.668 761.833 61.3121 760.191 Q61.924 758.548 62.1494 757.163 Q62.3427 755.779 62.3427 754.329 Q62.3427 751.205 60.5391 748.436 Q58.7356 745.634 55.9337 744.056 Q53.1318 742.445 50.2011 742.445 Q48.6552 742.445 47.4636 742.864 Q46.2397 743.283 45.5634 743.862 Q44.8871 744.41 44.3718 745.344 Q43.8565 746.278 43.6633 746.922 Q43.4378 747.534 43.2124 748.5 L41.3444 755.553 Q40.5071 758.387 38.0917 760.416 Q35.6762 762.413 31.9725 762.413 Q28.0756 762.413 24.4686 760.126 Q20.8293 757.808 18.6393 754.039 Q16.4171 750.239 16.4171 746.149 Q16.4171 742.928 17.6731 740.449 Q18.897 737.969 21.1836 736.713 L17.4155 733.524 Q16.6748 732.88 16.5459 732.751 Q16.4171 732.59 16.4171 732.365 Q16.4171 731.978 16.6426 731.817 Q16.868 731.624 17.0934 731.624 Z" fill="#000000" fill-rule="evenodd" fill-opacity="1" /><path clip-path="url(#clip030)" d="M82.6364 724.964 Q81.8023 724.964 81.5543 724.897 Q81.3063 724.807 80.9231 724.446 L71.0488 715.586 Q65.5931 710.739 60.8363 710.739 Q57.7477 710.739 55.5384 712.362 Q53.3291 713.963 53.3291 716.916 Q53.3291 718.945 54.569 720.658 Q55.809 722.372 58.0183 723.161 Q57.9732 723.026 57.9732 722.552 Q57.9732 721.402 58.6946 720.771 Q59.416 720.117 60.3854 720.117 Q61.6253 720.117 62.234 720.929 Q62.8202 721.718 62.8202 722.507 Q62.8202 722.823 62.7525 723.251 Q62.6849 723.657 62.0537 724.311 Q61.3999 724.964 60.2501 724.964 Q57.0263 724.964 54.4563 722.53 Q51.8863 720.072 51.8863 716.33 Q51.8863 712.092 54.4112 709.319 Q56.9136 706.523 60.8363 706.523 Q62.2115 706.523 63.474 706.952 Q64.7139 707.357 65.6833 707.921 Q66.6527 708.462 68.2082 709.95 Q69.7638 711.438 70.8684 712.633 Q71.9731 713.828 74.3177 716.51 L79.0745 721.402 L79.0745 713.084 Q79.0745 709.026 78.7138 708.71 Q78.06 708.259 74.6107 707.696 L74.6107 706.523 L82.6364 707.831 L82.6364 724.964 Z" fill="#000000" fill-rule="evenodd" fill-opacity="1" /><polyline clip-path="url(#clip032)" style="stroke:#009af9; stroke-linecap:round; stroke-linejoin:round; stroke-width:4; stroke-opacity:1; fill:none" points="2291.02,187.255 2188.14,407.476 2085.25,455.906 1982.36,508.359 1879.48,564.115 1776.59,620.93 1673.7,675.739 1570.82,725.761 1467.93,769.323 1365.04,805.991 1262.16,836.226 1159.27,860.92 1056.38,881.053 953.495,897.526 850.608,911.089 747.721,922.345 644.834,931.763 541.947,939.709 439.06,946.466 336.173,952.256 233.287,957.253 "/>
<path clip-path="url(#clip032)" d="M2275.02 171.255 L2275.02 203.255 L2307.02 203.255 L2307.02 171.255 L2275.02 171.255 Z" fill="#009af9" fill-rule="evenodd" fill-opacity="1" stroke="#000000" stroke-opacity="1" stroke-width="3.2"/>
<path clip-path="url(#clip032)" d="M2172.14 391.476 L2172.14 423.476 L2204.14 423.476 L2204.14 391.476 L2172.14 391.476 Z" fill="#009af9" fill-rule="evenodd" fill-opacity="1" stroke="#000000" stroke-opacity="1" stroke-width="3.2"/>
<path clip-path="url(#clip032)" d="M2069.25 439.906 L2069.25 471.906 L2101.25 471.906 L2101.25 439.906 L2069.25 439.906 Z" fill="#009af9" fill-rule="evenodd" fill-opacity="1" stroke="#000000" stroke-opacity="1" stroke-width="3.2"/>
<path clip-path="url(#clip032)" d="M1966.36 492.359 L1966.36 524.359 L1998.36 524.359 L1998.36 492.359 L1966.36 492.359 Z" fill="#009af9" fill-rule="evenodd" fill-opacity="1" stroke="#000000" stroke-opacity="1" stroke-width="3.2"/>
<path clip-path="url(#clip032)" d="M1863.48 548.115 L1863.48 580.115 L1895.48 580.115 L1895.48 548.115 L1863.48 548.115 Z" fill="#009af9" fill-rule="evenodd" fill-opacity="1" stroke="#000000" stroke-opacity="1" stroke-width="3.2"/>
<path clip-path="url(#clip032)" d="M1760.59 604.93 L1760.59 636.93 L1792.59 636.93 L1792.59 604.93 L1760.59 604.93 Z" fill="#009af9" fill-rule="evenodd" fill-opacity="1" stroke="#000000" stroke-opacity="1" stroke-width="3.2"/>
<path clip-path="url(#clip032)" d="M1657.7 659.739 L1657.7 691.739 L1689.7 691.739 L1689.7 659.739 L1657.7 659.739 Z" fill="#009af9" fill-rule="evenodd" fill-opacity="1" stroke="#000000" stroke-opacity="1" stroke-width="3.2"/>
<path clip-path="url(#clip032)" d="M1554.82 709.761 L1554.82 741.761 L1586.82 741.761 L1586.82 709.761 L1554.82 709.761 Z" fill="#009af9" fill-rule="evenodd" fill-opacity="1" stroke="#000000" stroke-opacity="1" stroke-width="3.2"/>
<path clip-path="url(#clip032)" d="M1451.93 753.323 L1451.93 785.323 L1483.93 785.323 L1483.93 753.323 L1451.93 753.323 Z" fill="#009af9" fill-rule="evenodd" fill-opacity="1" stroke="#000000" stroke-opacity="1" stroke-width="3.2"/>
<path clip-path="url(#clip032)" d="M1349.04 789.991 L1349.04 821.991 L1381.04 821.991 L1381.04 789.991 L1349.04 789.991 Z" fill="#009af9" fill-rule="evenodd" fill-opacity="1" stroke="#000000" stroke-opacity="1" stroke-width="3.2"/>
<path clip-path="url(#clip032)" d="M1246.16 820.226 L1246.16 852.226 L1278.16 852.226 L1278.16 820.226 L1246.16 820.226 Z" fill="#009af9" fill-rule="evenodd" fill-opacity="1" stroke="#000000" stroke-opacity="1" stroke-width="3.2"/>
<path clip-path="url(#clip032)" d="M1143.27 844.92 L1143.27 876.92 L1175.27 876.92 L1175.27 844.92 L1143.27 844.92 Z" fill="#009af9" fill-rule="evenodd" fill-opacity="1" stroke="#000000" stroke-opacity="1" stroke-width="3.2"/>
<path clip-path="url(#clip032)" d="M1040.38 865.053 L1040.38 897.053 L1072.38 897.053 L1072.38 865.053 L1040.38 865.053 Z" fill="#009af9" fill-rule="evenodd" fill-opacity="1" stroke="#000000" stroke-opacity="1" stroke-width="3.2"/>
<path clip-path="url(#clip032)" d="M937.495 881.526 L937.495 913.526 L969.495 913.526 L969.495 881.526 L937.495 881.526 Z" fill="#009af9" fill-rule="evenodd" fill-opacity="1" stroke="#000000" stroke-opacity="1" stroke-width="3.2"/>
<path clip-path="url(#clip032)" d="M834.608 895.089 L834.608 927.089 L866.608 927.089 L866.608 895.089 L834.608 895.089 Z" fill="#009af9" fill-rule="evenodd" fill-opacity="1" stroke="#000000" stroke-opacity="1" stroke-width="3.2"/>
<path clip-path="url(#clip032)" d="M731.721 906.345 L731.721 938.345 L763.721 938.345 L763.721 906.345 L731.721 906.345 Z" fill="#009af9" fill-rule="evenodd" fill-opacity="1" stroke="#000000" stroke-opacity="1" stroke-width="3.2"/>
<path clip-path="url(#clip032)" d="M628.834 915.763 L628.834 947.763 L660.834 947.763 L660.834 915.763 L628.834 915.763 Z" fill="#009af9" fill-rule="evenodd" fill-opacity="1" stroke="#000000" stroke-opacity="1" stroke-width="3.2"/>
<path clip-path="url(#clip032)" d="M525.947 923.709 L525.947 955.709 L557.947 955.709 L557.947 923.709 L525.947 923.709 Z" fill="#009af9" fill-rule="evenodd" fill-opacity="1" stroke="#000000" stroke-opacity="1" stroke-width="3.2"/>
<path clip-path="url(#clip032)" d="M423.06 930.466 L423.06 962.466 L455.06 962.466 L455.06 930.466 L423.06 930.466 Z" fill="#009af9" fill-rule="evenodd" fill-opacity="1" stroke="#000000" stroke-opacity="1" stroke-width="3.2"/>
<path clip-path="url(#clip032)" d="M320.173 936.256 L320.173 968.256 L352.173 968.256 L352.173 936.256 L320.173 936.256 Z" fill="#009af9" fill-rule="evenodd" fill-opacity="1" stroke="#000000" stroke-opacity="1" stroke-width="3.2"/>
<path clip-path="url(#clip032)" d="M217.287 941.253 L217.287 973.253 L249.287 973.253 L249.287 941.253 L217.287 941.253 Z" fill="#009af9" fill-rule="evenodd" fill-opacity="1" stroke="#000000" stroke-opacity="1" stroke-width="3.2"/>
<polyline clip-path="url(#clip032)" style="stroke:#e26f46; stroke-linecap:round; stroke-linejoin:round; stroke-width:4; stroke-opacity:1; fill:none" points="2291.02,814.675 2188.14,887.952 2085.25,895.178 1982.36,902.631 1879.48,910.381 1776.59,918.384 1673.7,926.497 1570.82,934.513 1467.93,942.209 1365.04,949.387 1262.16,955.916 1159.27,961.73 1056.38,966.828 953.495,971.256 850.608,975.078 747.721,978.372 644.834,981.21 541.947,983.663 439.06,985.788 336.173,987.637 233.287,989.252 "/>
<path clip-path="url(#clip032)" d="M2275.02 798.675 L2275.02 830.675 L2307.02 830.675 L2307.02 798.675 L2275.02 798.675 Z" fill="#e26f46" fill-rule="evenodd" fill-opacity="1" stroke="#000000" stroke-opacity="1" stroke-width="3.2"/>
<path clip-path="url(#clip032)" d="M2172.14 871.952 L2172.14 903.952 L2204.14 903.952 L2204.14 871.952 L2172.14 871.952 Z" fill="#e26f46" fill-rule="evenodd" fill-opacity="1" stroke="#000000" stroke-opacity="1" stroke-width="3.2"/>
<path clip-path="url(#clip032)" d="M2069.25 879.178 L2069.25 911.178 L2101.25 911.178 L2101.25 879.178 L2069.25 879.178 Z" fill="#e26f46" fill-rule="evenodd" fill-opacity="1" stroke="#000000" stroke-opacity="1" stroke-width="3.2"/>
<path clip-path="url(#clip032)" d="M1966.36 886.631 L1966.36 918.631 L1998.36 918.631 L1998.36 886.631 L1966.36 886.631 Z" fill="#e26f46" fill-rule="evenodd" fill-opacity="1" stroke="#000000" stroke-opacity="1" stroke-width="3.2"/>
<path clip-path="url(#clip032)" d="M1863.48 894.381 L1863.48 926.381 L1895.48 926.381 L1895.48 894.381 L1863.48 894.381 Z" fill="#e26f46" fill-rule="evenodd" fill-opacity="1" stroke="#000000" stroke-opacity="1" stroke-width="3.2"/>
<path clip-path="url(#clip032)" d="M1760.59 902.384 L1760.59 934.384 L1792.59 934.384 L1792.59 902.384 L1760.59 902.384 Z" fill="#e26f46" fill-rule="evenodd" fill-opacity="1" stroke="#000000" stroke-opacity="1" stroke-width="3.2"/>
<path clip-path="url(#clip032)" d="M1657.7 910.497 L1657.7 942.497 L1689.7 942.497 L1689.7 910.497 L1657.7 910.497 Z" fill="#e26f46" fill-rule="evenodd" fill-opacity="1" stroke="#000000" stroke-opacity="1" stroke-width="3.2"/>
<path clip-path="url(#clip032)" d="M1554.82 918.513 L1554.82 950.513 L1586.82 950.513 L1586.82 918.513 L1554.82 918.513 Z" fill="#e26f46" fill-rule="evenodd" fill-opacity="1" stroke="#000000" stroke-opacity="1" stroke-width="3.2"/>
<path clip-path="url(#clip032)" d="M1451.93 926.209 L1451.93 958.209 L1483.93 958.209 L1483.93 926.209 L1451.93 926.209 Z" fill="#e26f46" fill-rule="evenodd" fill-opacity="1" stroke="#000000" stroke-opacity="1" stroke-width="3.2"/>
<path clip-path="url(#clip032)" d="M1349.04 933.387 L1349.04 965.387 L1381.04 965.387 L1381.04 933.387 L1349.04 933.387 Z" fill="#e26f46" fill-rule="evenodd" fill-opacity="1" stroke="#000000" stroke-opacity="1" stroke-width="3.2"/>
<path clip-path="url(#clip032)" d="M1246.16 939.916 L1246.16 971.916 L1278.16 971.916 L1278.16 939.916 L1246.16 939.916 Z" fill="#e26f46" fill-rule="evenodd" fill-opacity="1" stroke="#000000" stroke-opacity="1" stroke-width="3.2"/>
<path clip-path="url(#clip032)" d="M1143.27 945.73 L1143.27 977.73 L1175.27 977.73 L1175.27 945.73 L1143.27 945.73 Z" fill="#e26f46" fill-rule="evenodd" fill-opacity="1" stroke="#000000" stroke-opacity="1" stroke-width="3.2"/>
<path clip-path="url(#clip032)" d="M1040.38 950.828 L1040.38 982.828 L1072.38 982.828 L1072.38 950.828 L1040.38 950.828 Z" fill="#e26f46" fill-rule="evenodd" fill-opacity="1" stroke="#000000" stroke-opacity="1" stroke-width="3.2"/>
<path clip-path="url(#clip032)" d="M937.495 955.256 L937.495 987.256 L969.495 987.256 L969.495 955.256 L937.495 955.256 Z" fill="#e26f46" fill-rule="evenodd" fill-opacity="1" stroke="#000000" stroke-opacity="1" stroke-width="3.2"/>
<path clip-path="url(#clip032)" d="M834.608 959.078 L834.608 991.078 L866.608 991.078 L866.608 959.078 L834.608 959.078 Z" fill="#e26f46" fill-rule="evenodd" fill-opacity="1" stroke="#000000" stroke-opacity="1" stroke-width="3.2"/>
<path clip-path="url(#clip032)" d="M731.721 962.372 L731.721 994.372 L763.721 994.372 L763.721 962.372 L731.721 962.372 Z" fill="#e26f46" fill-rule="evenodd" fill-opacity="1" stroke="#000000" stroke-opacity="1" stroke-width="3.2"/>
<path clip-path="url(#clip032)" d="M628.834 965.21 L628.834 997.21 L660.834 997.21 L660.834 965.21 L628.834 965.21 Z" fill="#e26f46" fill-rule="evenodd" fill-opacity="1" stroke="#000000" stroke-opacity="1" stroke-width="3.2"/>
<path clip-path="url(#clip032)" d="M525.947 967.663 L525.947 999.663 L557.947 999.663 L557.947 967.663 L525.947 967.663 Z" fill="#e26f46" fill-rule="evenodd" fill-opacity="1" stroke="#000000" stroke-opacity="1" stroke-width="3.2"/>
<path clip-path="url(#clip032)" d="M423.06 969.788 L423.06 1001.79 L455.06 1001.79 L455.06 969.788 L423.06 969.788 Z" fill="#e26f46" fill-rule="evenodd" fill-opacity="1" stroke="#000000" stroke-opacity="1" stroke-width="3.2"/>
<path clip-path="url(#clip032)" d="M320.173 971.637 L320.173 1003.64 L352.173 1003.64 L352.173 971.637 L320.173 971.637 Z" fill="#e26f46" fill-rule="evenodd" fill-opacity="1" stroke="#000000" stroke-opacity="1" stroke-width="3.2"/>
<path clip-path="url(#clip032)" d="M217.287 973.252 L217.287 1005.25 L249.287 1005.25 L249.287 973.252 L217.287 973.252 Z" fill="#e26f46" fill-rule="evenodd" fill-opacity="1" stroke="#000000" stroke-opacity="1" stroke-width="3.2"/>
<polyline clip-path="url(#clip032)" style="stroke:#3da44d; stroke-linecap:round; stroke-linejoin:round; stroke-width:4; stroke-opacity:1; fill:none" points="2291.02,815.799 2188.14,969.603 2085.25,1013.68 1982.36,1055.82 1879.48,1096.05 1776.59,1133.75 1673.7,1168.04 1570.82,1198.18 1467.93,1223.9 1365.04,1245.36 1262.16,1263.04 1159.27,1277.52 1056.38,1289.37 953.495,1299.12 850.608,1307.18 747.721,1313.9 644.834,1319.54 541.947,1324.31 439.06,1328.37 336.173,1331.86 233.287,1334.88 "/>
<path clip-path="url(#clip032)" d="M2275.02 799.799 L2275.02 831.799 L2307.02 831.799 L2307.02 799.799 L2275.02 799.799 Z" fill="#3da44d" fill-rule="evenodd" fill-opacity="1" stroke="#000000" stroke-opacity="1" stroke-width="3.2"/>
<path clip-path="url(#clip032)" d="M2172.14 953.603 L2172.14 985.603 L2204.14 985.603 L2204.14 953.603 L2172.14 953.603 Z" fill="#3da44d" fill-rule="evenodd" fill-opacity="1" stroke="#000000" stroke-opacity="1" stroke-width="3.2"/>
<path clip-path="url(#clip032)" d="M2069.25 997.677 L2069.25 1029.68 L2101.25 1029.68 L2101.25 997.677 L2069.25 997.677 Z" fill="#3da44d" fill-rule="evenodd" fill-opacity="1" stroke="#000000" stroke-opacity="1" stroke-width="3.2"/>
<path clip-path="url(#clip032)" d="M1966.36 1039.82 L1966.36 1071.82 L1998.36 1071.82 L1998.36 1039.82 L1966.36 1039.82 Z" fill="#3da44d" fill-rule="evenodd" fill-opacity="1" stroke="#000000" stroke-opacity="1" stroke-width="3.2"/>
<path clip-path="url(#clip032)" d="M1863.48 1080.05 L1863.48 1112.05 L1895.48 1112.05 L1895.48 1080.05 L1863.48 1080.05 Z" fill="#3da44d" fill-rule="evenodd" fill-opacity="1" stroke="#000000" stroke-opacity="1" stroke-width="3.2"/>
<path clip-path="url(#clip032)" d="M1760.59 1117.75 L1760.59 1149.75 L1792.59 1149.75 L1792.59 1117.75 L1760.59 1117.75 Z" fill="#3da44d" fill-rule="evenodd" fill-opacity="1" stroke="#000000" stroke-opacity="1" stroke-width="3.2"/>
<path clip-path="url(#clip032)" d="M1657.7 1152.04 L1657.7 1184.04 L1689.7 1184.04 L1689.7 1152.04 L1657.7 1152.04 Z" fill="#3da44d" fill-rule="evenodd" fill-opacity="1" stroke="#000000" stroke-opacity="1" stroke-width="3.2"/>
<path clip-path="url(#clip032)" d="M1554.82 1182.18 L1554.82 1214.18 L1586.82 1214.18 L1586.82 1182.18 L1554.82 1182.18 Z" fill="#3da44d" fill-rule="evenodd" fill-opacity="1" stroke="#000000" stroke-opacity="1" stroke-width="3.2"/>
<path clip-path="url(#clip032)" d="M1451.93 1207.9 L1451.93 1239.9 L1483.93 1239.9 L1483.93 1207.9 L1451.93 1207.9 Z" fill="#3da44d" fill-rule="evenodd" fill-opacity="1" stroke="#000000" stroke-opacity="1" stroke-width="3.2"/>
<path clip-path="url(#clip032)" d="M1349.04 1229.36 L1349.04 1261.36 L1381.04 1261.36 L1381.04 1229.36 L1349.04 1229.36 Z" fill="#3da44d" fill-rule="evenodd" fill-opacity="1" stroke="#000000" stroke-opacity="1" stroke-width="3.2"/>
<path clip-path="url(#clip032)" d="M1246.16 1247.04 L1246.16 1279.04 L1278.16 1279.04 L1278.16 1247.04 L1246.16 1247.04 Z" fill="#3da44d" fill-rule="evenodd" fill-opacity="1" stroke="#000000" stroke-opacity="1" stroke-width="3.2"/>
<path clip-path="url(#clip032)" d="M1143.27 1261.52 L1143.27 1293.52 L1175.27 1293.52 L1175.27 1261.52 L1143.27 1261.52 Z" fill="#3da44d" fill-rule="evenodd" fill-opacity="1" stroke="#000000" stroke-opacity="1" stroke-width="3.2"/>
<path clip-path="url(#clip032)" d="M1040.38 1273.37 L1040.38 1305.37 L1072.38 1305.37 L1072.38 1273.37 L1040.38 1273.37 Z" fill="#3da44d" fill-rule="evenodd" fill-opacity="1" stroke="#000000" stroke-opacity="1" stroke-width="3.2"/>
<path clip-path="url(#clip032)" d="M937.495 1283.12 L937.495 1315.12 L969.495 1315.12 L969.495 1283.12 L937.495 1283.12 Z" fill="#3da44d" fill-rule="evenodd" fill-opacity="1" stroke="#000000" stroke-opacity="1" stroke-width="3.2"/>
<path clip-path="url(#clip032)" d="M834.608 1291.18 L834.608 1323.18 L866.608 1323.18 L866.608 1291.18 L834.608 1291.18 Z" fill="#3da44d" fill-rule="evenodd" fill-opacity="1" stroke="#000000" stroke-opacity="1" stroke-width="3.2"/>
<path clip-path="url(#clip032)" d="M731.721 1297.9 L731.721 1329.9 L763.721 1329.9 L763.721 1297.9 L731.721 1297.9 Z" fill="#3da44d" fill-rule="evenodd" fill-opacity="1" stroke="#000000" stroke-opacity="1" stroke-width="3.2"/>
<path clip-path="url(#clip032)" d="M628.834 1303.54 L628.834 1335.54 L660.834 1335.54 L660.834 1303.54 L628.834 1303.54 Z" fill="#3da44d" fill-rule="evenodd" fill-opacity="1" stroke="#000000" stroke-opacity="1" stroke-width="3.2"/>
<path clip-path="url(#clip032)" d="M525.947 1308.31 L525.947 1340.31 L557.947 1340.31 L557.947 1308.31 L525.947 1308.31 Z" fill="#3da44d" fill-rule="evenodd" fill-opacity="1" stroke="#000000" stroke-opacity="1" stroke-width="3.2"/>
<path clip-path="url(#clip032)" d="M423.06 1312.37 L423.06 1344.37 L455.06 1344.37 L455.06 1312.37 L423.06 1312.37 Z" fill="#3da44d" fill-rule="evenodd" fill-opacity="1" stroke="#000000" stroke-opacity="1" stroke-width="3.2"/>
<path clip-path="url(#clip032)" d="M320.173 1315.86 L320.173 1347.86 L352.173 1347.86 L352.173 1315.86 L320.173 1315.86 Z" fill="#3da44d" fill-rule="evenodd" fill-opacity="1" stroke="#000000" stroke-opacity="1" stroke-width="3.2"/>
<path clip-path="url(#clip032)" d="M217.287 1318.88 L217.287 1350.88 L249.287 1350.88 L249.287 1318.88 L217.287 1318.88 Z" fill="#3da44d" fill-rule="evenodd" fill-opacity="1" stroke="#000000" stroke-opacity="1" stroke-width="3.2"/>
<path clip-path="url(#clip030)" d="M244.261 353.257 L561.137 353.257 L561.137 93.1086 L244.261 93.1086  Z" fill="#ffffff" fill-rule="evenodd" fill-opacity="1"/>
<polyline clip-path="url(#clip030)" style="stroke:#000000; stroke-linecap:round; stroke-linejoin:round; stroke-width:4; stroke-opacity:1; fill:none" points="244.261,353.257 561.137,353.257 561.137,93.1086 244.261,93.1086 244.261,353.257 "/>
<polyline clip-path="url(#clip030)" style="stroke:#009af9; stroke-linecap:round; stroke-linejoin:round; stroke-width:4; stroke-opacity:1; fill:none" points="268.497,158.146 413.91,158.146 "/>
<path clip-path="url(#clip030)" d="M323.317 140.259 L323.317 176.032 L359.09 176.032 L359.09 140.259 L323.317 140.259 Z" fill="#009af9" fill-rule="evenodd" fill-opacity="1" stroke="#000000" stroke-opacity="1" stroke-width="5.12"/>
<path clip-path="url(#clip030)" d="M466.604 134.39 L464.004 144.883 Q463.864 145.515 463.746 145.679 Q463.629 145.843 463.301 145.843 Q463.044 145.843 462.88 145.726 Q462.739 145.609 462.739 145.492 L462.716 145.375 Q462.716 145.305 462.763 144.953 Q462.81 144.578 462.856 143.97 Q462.903 143.361 462.903 142.681 Q462.903 138.84 461.029 137.06 Q459.179 135.256 455.994 135.256 Q453.792 135.256 451.824 136.427 Q449.857 137.599 448.733 139.449 Q447.608 141.276 447.608 143.197 Q447.608 144.953 448.498 146.078 Q449.389 147.202 450.536 147.577 L453.745 148.443 Q457.118 149.31 458.078 149.685 Q459.039 150.036 459.835 150.832 Q462.201 153.034 462.201 156.454 Q462.201 159.405 460.538 162.262 Q458.875 165.097 456.017 166.947 Q453.16 168.774 449.997 168.774 Q444.446 168.774 441.893 165.331 L439.551 168.048 Q439.106 168.563 438.966 168.657 Q438.848 168.774 438.684 168.774 Q438.474 168.774 438.31 168.633 Q438.146 168.516 438.146 168.305 Q438.146 168.141 439.528 162.637 Q440.91 157.133 441.027 157.016 Q441.214 156.828 441.519 156.828 Q442.081 156.828 442.081 157.367 Q442.034 157.508 441.987 157.695 Q441.706 159.381 441.706 160.295 Q441.706 162.005 442.292 163.316 Q442.877 164.605 443.744 165.354 Q444.634 166.08 445.828 166.549 Q447.023 166.994 448.03 167.158 Q449.037 167.298 450.091 167.298 Q452.363 167.298 454.377 165.987 Q456.415 164.675 457.563 162.637 Q458.734 160.599 458.734 158.468 Q458.734 157.344 458.43 156.477 Q458.125 155.587 457.703 155.095 Q457.305 154.603 456.626 154.229 Q455.947 153.854 455.478 153.713 Q455.033 153.549 454.331 153.385 L449.201 152.027 Q447.14 151.418 445.664 149.661 Q444.212 147.904 444.212 145.211 Q444.212 142.377 445.875 139.753 Q447.562 137.107 450.302 135.514 Q453.066 133.898 456.04 133.898 Q458.383 133.898 460.186 134.811 Q461.99 135.701 462.903 137.364 L465.222 134.624 Q465.691 134.085 465.784 133.992 Q465.901 133.898 466.065 133.898 Q466.346 133.898 466.463 134.062 Q466.604 134.226 466.604 134.39 Z" fill="#000000" fill-rule="evenodd" fill-opacity="1" /><path clip-path="url(#clip030)" d="M471.438 182.056 Q471.438 181.449 471.487 181.269 Q471.552 181.088 471.815 180.81 L478.258 173.628 Q481.783 169.661 481.783 166.201 Q481.783 163.955 480.603 162.348 Q479.439 160.741 477.291 160.741 Q475.815 160.741 474.569 161.643 Q473.323 162.545 472.749 164.152 Q472.848 164.119 473.192 164.119 Q474.028 164.119 474.487 164.644 Q474.963 165.168 474.963 165.873 Q474.963 166.775 474.372 167.218 Q473.799 167.644 473.225 167.644 Q472.995 167.644 472.684 167.595 Q472.389 167.546 471.913 167.087 Q471.438 166.611 471.438 165.775 Q471.438 163.43 473.208 161.561 Q474.995 159.692 477.717 159.692 Q480.8 159.692 482.816 161.528 Q484.849 163.348 484.849 166.201 Q484.849 167.201 484.538 168.119 Q484.243 169.021 483.833 169.726 Q483.439 170.431 482.357 171.563 Q481.275 172.694 480.406 173.497 Q479.537 174.301 477.586 176.006 L474.028 179.465 L480.078 179.465 Q483.029 179.465 483.259 179.203 Q483.587 178.727 483.997 176.219 L484.849 176.219 L483.898 182.056 L471.438 182.056 Z" fill="#000000" fill-rule="evenodd" fill-opacity="1" /><polyline clip-path="url(#clip030)" style="stroke:#e26f46; stroke-linecap:round; stroke-linejoin:round; stroke-width:4; stroke-opacity:1; fill:none" points="268.497,223.183 413.91,223.183 "/>
<path clip-path="url(#clip030)" d="M323.317 205.296 L323.317 241.07 L359.09 241.07 L359.09 205.296 L323.317 205.296 Z" fill="#e26f46" fill-rule="evenodd" fill-opacity="1" stroke="#000000" stroke-opacity="1" stroke-width="5.12"/>
<path clip-path="url(#clip030)" d="M466.604 201.626 L464.004 212.119 Q463.864 212.751 463.746 212.915 Q463.629 213.079 463.301 213.079 Q463.044 213.079 462.88 212.962 Q462.739 212.845 462.739 212.728 L462.716 212.611 Q462.716 212.541 462.763 212.189 Q462.81 211.815 462.856 211.206 Q462.903 210.597 462.903 209.917 Q462.903 206.076 461.029 204.296 Q459.179 202.492 455.994 202.492 Q453.792 202.492 451.824 203.663 Q449.857 204.835 448.733 206.685 Q447.608 208.512 447.608 210.433 Q447.608 212.189 448.498 213.314 Q449.389 214.438 450.536 214.813 L453.745 215.679 Q457.118 216.546 458.078 216.921 Q459.039 217.272 459.835 218.068 Q462.201 220.27 462.201 223.69 Q462.201 226.641 460.538 229.498 Q458.875 232.333 456.017 234.183 Q453.16 236.01 449.997 236.01 Q444.446 236.01 441.893 232.567 L439.551 235.284 Q439.106 235.799 438.966 235.893 Q438.848 236.01 438.684 236.01 Q438.474 236.01 438.31 235.869 Q438.146 235.752 438.146 235.541 Q438.146 235.377 439.528 229.873 Q440.91 224.369 441.027 224.252 Q441.214 224.064 441.519 224.064 Q442.081 224.064 442.081 224.603 Q442.034 224.744 441.987 224.931 Q441.706 226.617 441.706 227.531 Q441.706 229.241 442.292 230.552 Q442.877 231.841 443.744 232.59 Q444.634 233.316 445.828 233.785 Q447.023 234.23 448.03 234.394 Q449.037 234.534 450.091 234.534 Q452.363 234.534 454.377 233.223 Q456.415 231.911 457.563 229.873 Q458.734 227.835 458.734 225.704 Q458.734 224.58 458.43 223.713 Q458.125 222.823 457.703 222.331 Q457.305 221.839 456.626 221.465 Q455.947 221.09 455.478 220.949 Q455.033 220.785 454.331 220.621 L449.201 219.263 Q447.14 218.654 445.664 216.897 Q444.212 215.14 444.212 212.447 Q444.212 209.613 445.875 206.989 Q447.562 204.343 450.302 202.75 Q453.066 201.134 456.04 201.134 Q458.383 201.134 460.186 202.047 Q461.99 202.937 462.903 204.6 L465.222 201.86 Q465.691 201.321 465.784 201.228 Q465.901 201.134 466.065 201.134 Q466.346 201.134 466.463 201.298 Q466.604 201.462 466.604 201.626 Z" fill="#000000" fill-rule="evenodd" fill-opacity="1" /><path clip-path="url(#clip030)" d="M471.438 202.375 Q471.438 199.522 474.799 198.014 Q476.815 197.046 480.98 196.8 L480.98 195.571 Q480.98 193.488 479.881 192.39 Q478.799 191.275 477.422 191.275 Q474.963 191.275 473.782 192.816 Q474.782 192.849 475.143 193.357 Q475.504 193.849 475.504 194.357 Q475.504 195.03 475.077 195.472 Q474.668 195.899 473.963 195.899 Q473.29 195.899 472.848 195.489 Q472.405 195.062 472.405 194.325 Q472.405 192.685 473.881 191.603 Q475.373 190.521 477.488 190.521 Q480.242 190.521 482.078 192.373 Q482.652 192.947 482.931 193.685 Q483.226 194.423 483.259 194.915 Q483.292 195.39 483.292 196.341 L483.292 203.047 Q483.292 203.244 483.357 203.572 Q483.423 203.9 483.718 204.326 Q484.03 204.736 484.538 204.736 Q485.751 204.736 485.735 202.588 L485.735 200.702 L486.587 200.702 L486.587 202.588 Q486.587 204.375 485.636 205.08 Q484.702 205.769 483.833 205.769 Q482.718 205.769 482.013 204.949 Q481.308 204.129 481.209 203.014 Q480.701 204.293 479.537 205.129 Q478.389 205.949 476.815 205.949 Q475.602 205.949 474.454 205.638 Q473.323 205.342 472.372 204.506 Q471.438 203.654 471.438 202.375 M474.028 202.342 Q474.028 203.588 474.914 204.391 Q475.799 205.195 477.045 205.195 Q478.455 205.195 479.717 204.113 Q480.98 203.014 480.98 200.866 L480.98 197.505 Q477.258 197.636 475.635 199.128 Q474.028 200.604 474.028 202.342 Z" fill="#000000" fill-rule="evenodd" fill-opacity="1" /><path clip-path="url(#clip030)" d="M490.194 203.736 Q488.063 201.506 488.063 198.325 Q488.063 195.128 490.161 192.833 Q492.26 190.521 495.342 190.521 Q497.392 190.521 498.933 191.504 Q500.474 192.472 500.474 194.128 Q500.474 194.866 500.031 195.292 Q499.605 195.702 498.933 195.702 Q498.228 195.702 497.802 195.275 Q497.392 194.833 497.392 194.161 Q497.392 193.865 497.49 193.57 Q497.589 193.275 497.949 192.964 Q498.326 192.652 498.966 192.603 Q497.769 191.373 495.441 191.373 Q495.408 191.373 495.375 191.373 Q493.67 191.373 492.26 192.98 Q490.85 194.587 490.85 198.259 Q490.85 200.178 491.309 201.588 Q491.784 202.981 492.555 203.703 Q493.326 204.424 494.08 204.769 Q494.834 205.097 495.572 205.097 Q498.867 205.097 499.982 201.571 Q500.081 201.244 500.409 201.244 Q500.851 201.244 500.851 201.571 Q500.851 201.735 500.72 202.162 Q500.589 202.588 500.179 203.26 Q499.769 203.932 499.179 204.523 Q498.605 205.097 497.572 205.523 Q496.556 205.949 495.277 205.949 Q492.326 205.949 490.194 203.736 Z" fill="#000000" fill-rule="evenodd" fill-opacity="1" /><path clip-path="url(#clip030)" d="M504.818 203.736 Q502.686 201.506 502.686 198.325 Q502.686 195.128 504.785 192.833 Q506.883 190.521 509.966 190.521 Q512.015 190.521 513.557 191.504 Q515.098 192.472 515.098 194.128 Q515.098 194.866 514.655 195.292 Q514.229 195.702 513.557 195.702 Q512.851 195.702 512.425 195.275 Q512.015 194.833 512.015 194.161 Q512.015 193.865 512.114 193.57 Q512.212 193.275 512.573 192.964 Q512.95 192.652 513.589 192.603 Q512.392 191.373 510.064 191.373 Q510.031 191.373 509.999 191.373 Q508.293 191.373 506.883 192.98 Q505.473 194.587 505.473 198.259 Q505.473 200.178 505.933 201.588 Q506.408 202.981 507.179 203.703 Q507.949 204.424 508.703 204.769 Q509.458 205.097 510.195 205.097 Q513.491 205.097 514.606 201.571 Q514.704 201.244 515.032 201.244 Q515.475 201.244 515.475 201.571 Q515.475 201.735 515.344 202.162 Q515.212 202.588 514.803 203.26 Q514.393 203.932 513.802 204.523 Q513.229 205.097 512.196 205.523 Q511.179 205.949 509.9 205.949 Q506.949 205.949 504.818 203.736 Z" fill="#000000" fill-rule="evenodd" fill-opacity="1" /><path clip-path="url(#clip030)" d="M471.438 249.292 Q471.438 248.685 471.487 248.505 Q471.552 248.324 471.815 248.046 L478.258 240.864 Q481.783 236.897 481.783 233.437 Q481.783 231.191 480.603 229.584 Q479.439 227.977 477.291 227.977 Q475.815 227.977 474.569 228.879 Q473.323 229.781 472.749 231.388 Q472.848 231.355 473.192 231.355 Q474.028 231.355 474.487 231.88 Q474.963 232.404 474.963 233.109 Q474.963 234.011 474.372 234.454 Q473.799 234.88 473.225 234.88 Q472.995 234.88 472.684 234.831 Q472.389 234.782 471.913 234.323 Q471.438 233.847 471.438 233.011 Q471.438 230.666 473.208 228.797 Q474.995 226.928 477.717 226.928 Q480.8 226.928 482.816 228.764 Q484.849 230.584 484.849 233.437 Q484.849 234.437 484.538 235.355 Q484.243 236.257 483.833 236.962 Q483.439 237.667 482.357 238.799 Q481.275 239.93 480.406 240.733 Q479.537 241.537 477.586 243.242 L474.028 246.701 L480.078 246.701 Q483.029 246.701 483.259 246.439 Q483.587 245.963 483.997 243.455 L484.849 243.455 L483.898 249.292 L471.438 249.292 Z" fill="#000000" fill-rule="evenodd" fill-opacity="1" /><path clip-path="url(#clip030)" d="M488.538 248.751 Q488.063 248.21 488.063 247.505 Q488.063 246.8 488.522 246.275 Q488.997 245.734 489.85 245.734 Q490.85 245.734 491.424 246.701 Q491.998 247.652 491.998 249.259 Q491.998 250.997 491.293 252.604 Q490.588 254.227 489.899 254.998 Q489.21 255.768 488.932 255.768 Q488.604 255.768 488.604 255.407 Q488.604 255.276 488.833 255.03 Q491.243 252.44 491.26 249.259 Q491.26 248.751 491.194 248.751 L491.112 248.816 Q490.538 249.292 489.85 249.292 Q489.014 249.292 488.538 248.751 Z" fill="#000000" fill-rule="evenodd" fill-opacity="1" /><path clip-path="url(#clip030)" d="M530.102 244.488 Q530.102 244.619 529.954 245.127 Q529.807 245.636 529.446 246.423 Q529.102 247.21 528.61 247.931 Q528.134 248.636 527.347 249.161 Q526.577 249.669 525.691 249.669 Q524.511 249.669 523.724 248.882 Q522.937 248.095 522.937 246.914 Q522.937 246.275 523.38 245.062 Q525.462 239.52 525.462 237.536 Q525.462 235.192 523.642 235.192 Q522.609 235.192 521.675 235.618 Q520.74 236.044 520.133 236.634 Q519.527 237.225 519.051 237.897 Q518.576 238.569 518.363 239.012 Q518.166 239.454 518.117 239.651 L516.1 247.751 Q515.936 248.439 515.821 248.767 Q515.707 249.095 515.395 249.374 Q515.083 249.669 514.592 249.669 Q514.182 249.669 513.887 249.423 Q513.608 249.177 513.608 248.751 Q513.608 248.685 513.69 248.341 Q513.772 247.997 513.887 247.521 Q514.001 247.046 514.051 246.767 Q514.641 244.537 514.723 244.226 L515.657 240.323 Q516.166 238.389 516.166 237.536 Q516.166 235.192 514.346 235.192 Q513.444 235.192 512.591 235.536 Q511.755 235.864 511.181 236.323 Q510.607 236.782 510.083 237.421 Q509.575 238.044 509.312 238.471 Q509.066 238.881 508.869 239.29 L508.443 240.963 Q508.345 241.422 507.869 243.209 L507.132 246.242 Q506.607 248.505 506.492 248.718 Q506.328 249.177 505.967 249.423 Q505.607 249.669 505.246 249.669 Q504.836 249.669 504.557 249.423 Q504.279 249.177 504.279 248.751 Q504.279 248.685 504.328 248.439 Q504.377 248.193 504.459 247.849 Q504.541 247.505 504.574 247.308 L506.525 239.553 Q506.886 238.143 506.968 237.7 Q507.066 237.241 507.066 236.733 Q507.066 235.192 506.017 235.192 Q505.164 235.192 504.607 236.208 Q504.049 237.225 503.574 239.192 Q503.426 239.733 503.328 239.848 Q503.246 239.963 503 239.963 Q502.59 239.946 502.59 239.618 Q502.59 239.536 502.721 239.012 Q502.852 238.487 503.098 237.7 Q503.361 236.897 503.639 236.372 Q503.803 236.028 503.951 235.798 Q504.098 235.569 504.393 235.208 Q504.689 234.847 505.131 234.65 Q505.574 234.454 506.115 234.454 Q507.312 234.454 508.197 235.224 Q509.099 235.995 509.214 237.372 Q511.394 234.454 514.444 234.454 Q516.166 234.454 517.199 235.323 Q518.166 236.159 518.281 237.7 Q520.543 234.454 523.757 234.454 Q525.61 234.454 526.61 235.421 Q527.61 236.372 527.61 238.044 Q527.61 238.913 527.167 240.569 Q526.724 242.209 526.429 243.029 Q526.134 243.848 525.56 245.422 Q524.954 246.931 524.954 247.816 Q524.954 248.39 525.15 248.652 Q525.347 248.915 525.773 248.915 Q526.429 248.915 527.003 248.538 Q527.577 248.144 527.987 247.505 Q528.413 246.849 528.692 246.193 Q528.971 245.521 529.184 244.767 Q529.315 244.357 529.381 244.258 Q529.463 244.16 529.692 244.16 Q530.102 244.16 530.102 244.488 Z" fill="#000000" fill-rule="evenodd" fill-opacity="1" /><polyline clip-path="url(#clip030)" style="stroke:#3da44d; stroke-linecap:round; stroke-linejoin:round; stroke-width:4; stroke-opacity:1; fill:none" points="268.497,288.22 413.91,288.22 "/>
<path clip-path="url(#clip030)" d="M323.317 270.333 L323.317 306.107 L359.09 306.107 L359.09 270.333 L323.317 270.333 Z" fill="#3da44d" fill-rule="evenodd" fill-opacity="1" stroke="#000000" stroke-opacity="1" stroke-width="5.12"/>
<path clip-path="url(#clip030)" d="M466.604 266.663 L464.004 277.156 Q463.864 277.788 463.746 277.952 Q463.629 278.116 463.301 278.116 Q463.044 278.116 462.88 277.999 Q462.739 277.882 462.739 277.765 L462.716 277.648 Q462.716 277.578 462.763 277.226 Q462.81 276.852 462.856 276.243 Q462.903 275.634 462.903 274.954 Q462.903 271.113 461.029 269.333 Q459.179 267.529 455.994 267.529 Q453.792 267.529 451.824 268.701 Q449.857 269.872 448.733 271.722 Q447.608 273.549 447.608 275.47 Q447.608 277.226 448.498 278.351 Q449.389 279.475 450.536 279.85 L453.745 280.716 Q457.118 281.583 458.078 281.958 Q459.039 282.309 459.835 283.105 Q462.201 285.307 462.201 288.727 Q462.201 291.678 460.538 294.535 Q458.875 297.37 456.017 299.22 Q453.16 301.047 449.997 301.047 Q444.446 301.047 441.893 297.604 L439.551 300.321 Q439.106 300.836 438.966 300.93 Q438.848 301.047 438.684 301.047 Q438.474 301.047 438.31 300.906 Q438.146 300.789 438.146 300.578 Q438.146 300.415 439.528 294.91 Q440.91 289.406 441.027 289.289 Q441.214 289.101 441.519 289.101 Q442.081 289.101 442.081 289.64 Q442.034 289.781 441.987 289.968 Q441.706 291.655 441.706 292.568 Q441.706 294.278 442.292 295.589 Q442.877 296.878 443.744 297.627 Q444.634 298.353 445.828 298.822 Q447.023 299.267 448.03 299.431 Q449.037 299.571 450.091 299.571 Q452.363 299.571 454.377 298.26 Q456.415 296.948 457.563 294.91 Q458.734 292.872 458.734 290.741 Q458.734 289.617 458.43 288.75 Q458.125 287.86 457.703 287.368 Q457.305 286.876 456.626 286.502 Q455.947 286.127 455.478 285.986 Q455.033 285.822 454.331 285.658 L449.201 284.3 Q447.14 283.691 445.664 281.934 Q444.212 280.178 444.212 277.484 Q444.212 274.65 445.875 272.027 Q447.562 269.38 450.302 267.787 Q453.066 266.171 456.04 266.171 Q458.383 266.171 460.186 267.084 Q461.99 267.974 462.903 269.637 L465.222 266.897 Q465.691 266.358 465.784 266.265 Q465.901 266.171 466.065 266.171 Q466.346 266.171 466.463 266.335 Q466.604 266.499 466.604 266.663 Z" fill="#000000" fill-rule="evenodd" fill-opacity="1" /><path clip-path="url(#clip030)" d="M471.438 267.412 Q471.438 264.559 474.799 263.051 Q476.815 262.083 480.98 261.837 L480.98 260.608 Q480.98 258.525 479.881 257.427 Q478.799 256.312 477.422 256.312 Q474.963 256.312 473.782 257.853 Q474.782 257.886 475.143 258.394 Q475.504 258.886 475.504 259.394 Q475.504 260.067 475.077 260.509 Q474.668 260.936 473.963 260.936 Q473.29 260.936 472.848 260.526 Q472.405 260.099 472.405 259.362 Q472.405 257.722 473.881 256.64 Q475.373 255.558 477.488 255.558 Q480.242 255.558 482.078 257.41 Q482.652 257.984 482.931 258.722 Q483.226 259.46 483.259 259.952 Q483.292 260.427 483.292 261.378 L483.292 268.084 Q483.292 268.281 483.357 268.609 Q483.423 268.937 483.718 269.363 Q484.03 269.773 484.538 269.773 Q485.751 269.773 485.735 267.625 L485.735 265.739 L486.587 265.739 L486.587 267.625 Q486.587 269.412 485.636 270.117 Q484.702 270.806 483.833 270.806 Q482.718 270.806 482.013 269.986 Q481.308 269.166 481.209 268.051 Q480.701 269.33 479.537 270.166 Q478.389 270.986 476.815 270.986 Q475.602 270.986 474.454 270.675 Q473.323 270.379 472.372 269.543 Q471.438 268.691 471.438 267.412 M474.028 267.379 Q474.028 268.625 474.914 269.429 Q475.799 270.232 477.045 270.232 Q478.455 270.232 479.717 269.15 Q480.98 268.051 480.98 265.903 L480.98 262.542 Q477.258 262.673 475.635 264.165 Q474.028 265.641 474.028 267.379 Z" fill="#000000" fill-rule="evenodd" fill-opacity="1" /><path clip-path="url(#clip030)" d="M490.194 268.773 Q488.063 266.543 488.063 263.362 Q488.063 260.165 490.161 257.87 Q492.26 255.558 495.342 255.558 Q497.392 255.558 498.933 256.541 Q500.474 257.509 500.474 259.165 Q500.474 259.903 500.031 260.329 Q499.605 260.739 498.933 260.739 Q498.228 260.739 497.802 260.313 Q497.392 259.87 497.392 259.198 Q497.392 258.902 497.49 258.607 Q497.589 258.312 497.949 258.001 Q498.326 257.689 498.966 257.64 Q497.769 256.41 495.441 256.41 Q495.408 256.41 495.375 256.41 Q493.67 256.41 492.26 258.017 Q490.85 259.624 490.85 263.297 Q490.85 265.215 491.309 266.625 Q491.784 268.018 492.555 268.74 Q493.326 269.461 494.08 269.806 Q494.834 270.134 495.572 270.134 Q498.867 270.134 499.982 266.608 Q500.081 266.281 500.409 266.281 Q500.851 266.281 500.851 266.608 Q500.851 266.772 500.72 267.199 Q500.589 267.625 500.179 268.297 Q499.769 268.969 499.179 269.56 Q498.605 270.134 497.572 270.56 Q496.556 270.986 495.277 270.986 Q492.326 270.986 490.194 268.773 Z" fill="#000000" fill-rule="evenodd" fill-opacity="1" /><path clip-path="url(#clip030)" d="M504.818 268.773 Q502.686 266.543 502.686 263.362 Q502.686 260.165 504.785 257.87 Q506.883 255.558 509.966 255.558 Q512.015 255.558 513.557 256.541 Q515.098 257.509 515.098 259.165 Q515.098 259.903 514.655 260.329 Q514.229 260.739 513.557 260.739 Q512.851 260.739 512.425 260.313 Q512.015 259.87 512.015 259.198 Q512.015 258.902 512.114 258.607 Q512.212 258.312 512.573 258.001 Q512.95 257.689 513.589 257.64 Q512.392 256.41 510.064 256.41 Q510.031 256.41 509.999 256.41 Q508.293 256.41 506.883 258.017 Q505.473 259.624 505.473 263.297 Q505.473 265.215 505.933 266.625 Q506.408 268.018 507.179 268.74 Q507.949 269.461 508.703 269.806 Q509.458 270.134 510.195 270.134 Q513.491 270.134 514.606 266.608 Q514.704 266.281 515.032 266.281 Q515.475 266.281 515.475 266.608 Q515.475 266.772 515.344 267.199 Q515.212 267.625 514.803 268.297 Q514.393 268.969 513.802 269.56 Q513.229 270.134 512.196 270.56 Q511.179 270.986 509.9 270.986 Q506.949 270.986 504.818 268.773 Z" fill="#000000" fill-rule="evenodd" fill-opacity="1" /><path clip-path="url(#clip030)" d="M471.438 314.329 Q471.438 313.722 471.487 313.542 Q471.552 313.362 471.815 313.083 L478.258 305.901 Q481.783 301.934 481.783 298.474 Q481.783 296.228 480.603 294.621 Q479.439 293.014 477.291 293.014 Q475.815 293.014 474.569 293.916 Q473.323 294.818 472.749 296.425 Q472.848 296.392 473.192 296.392 Q474.028 296.392 474.487 296.917 Q474.963 297.441 474.963 298.146 Q474.963 299.048 474.372 299.491 Q473.799 299.917 473.225 299.917 Q472.995 299.917 472.684 299.868 Q472.389 299.819 471.913 299.36 Q471.438 298.884 471.438 298.048 Q471.438 295.703 473.208 293.834 Q474.995 291.965 477.717 291.965 Q480.8 291.965 482.816 293.801 Q484.849 295.621 484.849 298.474 Q484.849 299.474 484.538 300.392 Q484.243 301.294 483.833 301.999 Q483.439 302.704 482.357 303.836 Q481.275 304.967 480.406 305.77 Q479.537 306.574 477.586 308.279 L474.028 311.738 L480.078 311.738 Q483.029 311.738 483.259 311.476 Q483.587 311.001 483.997 308.492 L484.849 308.492 L483.898 314.329 L471.438 314.329 Z" fill="#000000" fill-rule="evenodd" fill-opacity="1" /><path clip-path="url(#clip030)" d="M488.538 313.788 Q488.063 313.247 488.063 312.542 Q488.063 311.837 488.522 311.312 Q488.997 310.771 489.85 310.771 Q490.85 310.771 491.424 311.738 Q491.998 312.689 491.998 314.296 Q491.998 316.034 491.293 317.641 Q490.588 319.264 489.899 320.035 Q489.21 320.805 488.932 320.805 Q488.604 320.805 488.604 320.444 Q488.604 320.313 488.833 320.067 Q491.243 317.477 491.26 314.296 Q491.26 313.788 491.194 313.788 L491.112 313.853 Q490.538 314.329 489.85 314.329 Q489.014 314.329 488.538 313.788 Z" fill="#000000" fill-rule="evenodd" fill-opacity="1" /><path clip-path="url(#clip030)" d="M520.789 309.525 Q520.789 309.656 520.642 310.164 Q520.494 310.673 520.133 311.46 Q519.789 312.247 519.314 312.968 Q518.838 313.673 518.051 314.198 Q517.28 314.706 516.395 314.706 Q515.215 314.706 514.428 313.919 Q513.641 313.132 513.641 311.951 Q513.641 311.296 513.985 310.394 Q516.166 304.573 516.166 302.573 Q516.166 300.229 514.346 300.229 Q513.444 300.229 512.591 300.573 Q511.755 300.901 511.181 301.36 Q510.607 301.819 510.083 302.458 Q509.575 303.081 509.312 303.508 Q509.066 303.918 508.869 304.327 L508.443 306 Q508.345 306.459 507.869 308.246 L507.132 311.279 Q506.607 313.542 506.492 313.755 Q506.328 314.214 505.967 314.46 Q505.607 314.706 505.246 314.706 Q504.836 314.706 504.557 314.46 Q504.279 314.214 504.279 313.788 Q504.279 313.722 504.328 313.476 Q504.377 313.23 504.459 312.886 Q504.541 312.542 504.574 312.345 L506.525 304.59 Q506.886 303.18 506.968 302.737 Q507.066 302.278 507.066 301.77 Q507.066 300.229 506.017 300.229 Q505.164 300.229 504.607 301.245 Q504.049 302.262 503.574 304.229 Q503.426 304.77 503.328 304.885 Q503.246 305 503 305 Q502.59 304.983 502.59 304.655 Q502.59 304.573 502.721 304.032 Q502.852 303.491 503.098 302.721 Q503.361 301.934 503.606 301.409 Q503.82 301.016 503.934 300.835 Q504.066 300.638 504.377 300.261 Q504.705 299.868 505.131 299.687 Q505.574 299.491 506.115 299.491 Q507.328 299.491 508.214 300.278 Q509.099 301.048 509.214 302.409 Q511.394 299.491 514.444 299.491 Q516.248 299.491 517.28 300.442 Q518.313 301.393 518.313 303.081 Q518.313 303.475 518.231 303.983 Q518.166 304.475 518.002 305.098 Q517.854 305.721 517.723 306.197 Q517.592 306.672 517.33 307.443 Q517.067 308.197 516.953 308.525 Q516.838 308.853 516.559 309.623 Q516.297 310.377 516.264 310.459 Q515.657 311.984 515.657 312.853 Q515.657 313.427 515.838 313.689 Q516.034 313.952 516.461 313.952 Q517.608 313.952 518.461 312.82 Q519.33 311.673 519.887 309.804 Q520.019 309.394 520.084 309.295 Q520.166 309.197 520.396 309.197 Q520.789 309.197 520.789 309.525 Z" fill="#000000" fill-rule="evenodd" fill-opacity="1" /></svg>
