<?xml version="1.0" encoding="utf-8" standalone="no"?>
<!DOCTYPE svg PUBLIC "-//W3C//DTD SVG 1.1//EN"
  "http://www.w3.org/Graphics/SVG/1.1/DTD/svg11.dtd">
<svg xmlns:xlink="http://www.w3.org/1999/xlink" width="360pt" height="504pt" viewBox="0 0 360 504" xmlns="http://www.w3.org/2000/svg" version="1.1">
 <metadata>
  <rdf:RDF xmlns:dc="http://purl.org/dc/elements/1.1/" xmlns:cc="http://creativecommons.org/ns#" xmlns:rdf="http://www.w3.org/1999/02/22-rdf-syntax-ns#">
   <cc:Work>
    <dc:type rdf:resource="http://purl.org/dc/dcmitype/StillImage"/>
    <dc:date>2023-10-13T01:37:15.287838</dc:date>
    <dc:format>image/svg+xml</dc:format>
    <dc:creator>
     <cc:Agent>
      <dc:title>Matplotlib v3.8.0, https://matplotlib.org/</dc:title>
     </cc:Agent>
    </dc:creator>
   </cc:Work>
  </rdf:RDF>
 </metadata>
 <defs>
  <style type="text/css">*{stroke-linejoin: round; stroke-linecap: butt}</style>
 </defs>
 <g id="figure_1">
  <g id="patch_1">
   <path d="M 0 504 
L 360 504 
L 360 0 
L 0 0 
z
" style="fill: #ffffff"/>
  </g>
  <g id="axes_1">
   <g id="patch_2">
    <path d="M 45 249.787317 
L 324 249.787317 
L 324 60.48 
L 45 60.48 
z
" style="fill: #ffffff"/>
   </g>
   <g id="PolyCollection_1">
    <defs>
     <path id="mcca6105176" d="M 57.681818 -254.212683 
L 57.681818 -254.212683 
L 61.644886 -254.212683 
L 65.607955 -254.212683 
L 69.571023 -254.212683 
L 73.534091 -254.212685 
L 77.497159 -254.2127 
L 81.460227 -254.212777 
L 85.423295 -254.213128 
L 89.386364 -254.214493 
L 93.349432 -254.219156 
L 97.3125 -254.23326 
L 101.275568 -254.271426 
L 105.238636 -254.364538 
L 109.201705 -254.570643 
L 113.164773 -254.986813 
L 117.127841 -255.756918 
L 121.090909 -257.068039 
L 125.053977 -259.1289 
L 129.017045 -262.128696 
L 132.980114 -266.183395 
L 136.943182 -271.285312 
L 140.90625 -277.275327 
L 144.869318 -283.852131 
L 148.832386 -290.620047 
L 152.795455 -297.162035 
L 156.758523 -303.11415 
L 160.721591 -308.213898 
L 164.684659 -312.279545 
L 168.647727 -315.231304 
L 172.610795 -317.24469 
L 176.573864 -318.512765 
L 180.536932 -319.197754 
L 184.5 -319.412573 
L 188.463068 -319.197754 
L 192.426136 -318.512765 
L 196.389205 -317.24469 
L 200.352273 -315.231304 
L 204.315341 -312.279545 
L 208.278409 -308.213898 
L 212.241477 -303.11415 
L 216.204545 -297.162035 
L 220.167614 -290.620047 
L 224.130682 -283.852131 
L 228.09375 -277.275327 
L 232.056818 -271.285312 
L 236.019886 -266.183395 
L 239.982955 -262.128696 
L 243.946023 -259.1289 
L 247.909091 -257.068039 
L 251.872159 -255.756918 
L 255.835227 -254.986813 
L 259.798295 -254.570643 
L 263.761364 -254.364538 
L 267.724432 -254.271426 
L 271.6875 -254.23326 
L 275.650568 -254.219156 
L 279.613636 -254.214493 
L 283.576705 -254.213128 
L 287.539773 -254.212777 
L 291.502841 -254.2127 
L 295.465909 -254.212685 
L 299.428977 -254.212683 
L 303.392045 -254.212683 
L 307.355114 -254.212683 
L 311.318182 -254.212683 
L 311.318182 -254.212683 
L 311.318182 -254.212683 
L 307.355114 -254.212683 
L 303.392045 -254.212683 
L 299.428977 -254.212683 
L 295.465909 -254.212686 
L 291.502841 -254.212701 
L 287.539773 -254.212783 
L 283.576705 -254.213155 
L 279.613636 -254.214599 
L 275.650568 -254.219513 
L 271.6875 -254.234333 
L 267.724432 -254.274308 
L 263.761364 -254.371526 
L 259.798295 -254.586062 
L 255.835227 -255.017981 
L 251.872159 -255.814963 
L 247.909091 -257.168104 
L 243.946023 -259.289182 
L 239.982955 -262.367889 
L 236.019886 -266.516505 
L 232.056818 -271.718399 
L 228.09375 -277.800358 
L 224.130682 -284.44337 
L 220.167614 -291.233342 
L 216.204545 -297.738021 
L 212.241477 -303.587219 
L 208.278409 -308.537755 
L 204.315341 -312.538746 
L 200.352273 -315.685505 
L 196.389205 -317.992164 
L 192.426136 -319.535305 
L 188.463068 -320.413515 
L 184.5 -320.697812 
L 180.536932 -320.413515 
L 176.573864 -319.535305 
L 172.610795 -317.992164 
L 168.647727 -315.685505 
L 164.684659 -312.538746 
L 160.721591 -308.537755 
L 156.758523 -303.587219 
L 152.795455 -297.738021 
L 148.832386 -291.233342 
L 144.869318 -284.44337 
L 140.90625 -277.800358 
L 136.943182 -271.718399 
L 132.980114 -266.516505 
L 129.017045 -262.367889 
L 125.053977 -259.289182 
L 121.090909 -257.168104 
L 117.127841 -255.814963 
L 113.164773 -255.017981 
L 109.201705 -254.586062 
L 105.238636 -254.371526 
L 101.275568 -254.274308 
L 97.3125 -254.234333 
L 93.349432 -254.219513 
L 89.386364 -254.214599 
L 85.423295 -254.213155 
L 81.460227 -254.212783 
L 77.497159 -254.212701 
L 73.534091 -254.212686 
L 69.571023 -254.212683 
L 65.607955 -254.212683 
L 61.644886 -254.212683 
L 57.681818 -254.212683 
z
" style="stroke: #1f77b4; stroke-opacity: 0.5"/>
    </defs>
    <g clip-path="url(#pcb63d8ead2)">
     <use xlink:href="#mcca6105176" x="0" y="504" style="fill: #1f77b4; fill-opacity: 0.5; stroke: #1f77b4; stroke-opacity: 0.5"/>
    </g>
   </g>
   <g id="PolyCollection_2">
    <defs>
     <path id="mb98101f2cb" d="M 57.681818 -254.212684 
L 57.681818 -254.212684 
L 61.644886 -254.212704 
L 65.607955 -254.212982 
L 69.571023 -254.215387 
L 73.534091 -254.230523 
L 77.497159 -254.304277 
L 81.460227 -254.593412 
L 85.423295 -255.528746 
L 89.386364 -258.06871 
L 93.349432 -263.92526 
L 97.3125 -275.468931 
L 101.275568 -294.962727 
L 105.238636 -323.070854 
L 109.201705 -357.25177 
L 113.164773 -391.222715 
L 117.127841 -416.475163 
L 121.090909 -425.589371 
L 125.053977 -415.638312 
L 129.017045 -389.815553 
L 132.980114 -355.670376 
L 136.943182 -321.667244 
L 140.90625 -293.928685 
L 144.869318 -274.824533 
L 148.832386 -263.583382 
L 152.795455 -257.914392 
L 156.758523 -255.469826 
L 160.721591 -254.574589 
L 164.684659 -254.299329 
L 168.647727 -254.22948 
L 172.610795 -254.215217 
L 176.573864 -254.212962 
L 180.536932 -254.212703 
L 184.5 -254.212684 
L 188.463068 -254.212683 
L 192.426136 -254.212683 
L 196.389205 -254.212683 
L 200.352273 -254.212683 
L 204.315341 -254.212683 
L 208.278409 -254.212683 
L 212.241477 -254.212683 
L 216.204545 -254.212683 
L 220.167614 -254.212683 
L 224.130682 -254.212683 
L 228.09375 -254.212683 
L 232.056818 -254.212683 
L 236.019886 -254.212683 
L 239.982955 -254.212683 
L 243.946023 -254.212683 
L 247.909091 -254.212683 
L 251.872159 -254.212683 
L 255.835227 -254.212683 
L 259.798295 -254.212683 
L 263.761364 -254.212683 
L 267.724432 -254.212683 
L 271.6875 -254.212683 
L 275.650568 -254.212683 
L 279.613636 -254.212683 
L 283.576705 -254.212683 
L 287.539773 -254.212683 
L 291.502841 -254.212683 
L 295.465909 -254.212683 
L 299.428977 -254.212683 
L 303.392045 -254.212683 
L 307.355114 -254.212683 
L 311.318182 -254.212683 
L 311.318182 -254.212683 
L 311.318182 -254.212683 
L 307.355114 -254.212683 
L 303.392045 -254.212683 
L 299.428977 -254.212683 
L 295.465909 -254.212683 
L 291.502841 -254.212683 
L 287.539773 -254.212683 
L 283.576705 -254.212683 
L 279.613636 -254.212683 
L 275.650568 -254.212683 
L 271.6875 -254.212683 
L 267.724432 -254.212683 
L 263.761364 -254.212683 
L 259.798295 -254.212683 
L 255.835227 -254.212683 
L 251.872159 -254.212683 
L 247.909091 -254.212683 
L 243.946023 -254.212683 
L 239.982955 -254.212683 
L 236.019886 -254.212683 
L 232.056818 -254.212683 
L 228.09375 -254.212683 
L 224.130682 -254.212683 
L 220.167614 -254.212683 
L 216.204545 -254.212683 
L 212.241477 -254.212683 
L 208.278409 -254.212683 
L 204.315341 -254.212683 
L 200.352273 -254.212683 
L 196.389205 -254.212683 
L 192.426136 -254.212683 
L 188.463068 -254.212683 
L 184.5 -254.212684 
L 180.536932 -254.212703 
L 176.573864 -254.212966 
L 172.610795 -254.215244 
L 168.647727 -254.229638 
L 164.684659 -254.300061 
L 160.721591 -254.577318 
L 156.758523 -255.478225 
L 152.795455 -257.936075 
L 148.832386 -263.630856 
L 144.869318 -274.913183 
L 140.90625 -294.069975 
L 136.943182 -321.858276 
L 132.980114 -355.885598 
L 129.017045 -390.008611 
L 125.053977 -415.758495 
L 121.090909 -425.628976 
L 117.127841 -416.591464 
L 113.164773 -391.413747 
L 109.201705 -357.467193 
L 105.238636 -323.263644 
L 101.275568 -295.106289 
L 97.3125 -275.559546 
L 93.349432 -263.974048 
L 89.386364 -258.091104 
L 85.423295 -255.537458 
L 81.460227 -254.596255 
L 77.497159 -254.305041 
L 73.534091 -254.230689 
L 69.571023 -254.215415 
L 65.607955 -254.212986 
L 61.644886 -254.212705 
L 57.681818 -254.212684 
z
" style="stroke: #1f77b4; stroke-opacity: 0.5"/>
    </defs>
    <g clip-path="url(#pcb63d8ead2)">
     <use xlink:href="#mb98101f2cb" x="0" y="504" style="fill: #1f77b4; fill-opacity: 0.5; stroke: #1f77b4; stroke-opacity: 0.5"/>
    </g>
   </g>
   <g id="PolyCollection_3">
    <defs>
     <path id="m3271f72d6e" d="M 57.681818 -254.212743 
L 57.681818 -254.212732 
L 61.644886 -254.213353 
L 65.607955 -254.217355 
L 69.571023 -254.234808 
L 73.534091 -254.292635 
L 77.497159 -254.447488 
L 81.460227 -254.795805 
L 85.423295 -255.471321 
L 89.386364 -256.622446 
L 93.349432 -258.371095 
L 97.3125 -260.766217 
L 101.275568 -263.751156 
L 105.238636 -267.159614 
L 109.201705 -270.742643 
L 113.164773 -274.2157 
L 117.127841 -277.305571 
L 121.090909 -279.782578 
L 125.053977 -281.528501 
L 129.017045 -282.650016 
L 132.980114 -283.398951 
L 136.943182 -284.019794 
L 140.90625 -284.673202 
L 144.869318 -285.398776 
L 148.832386 -286.120672 
L 152.795455 -286.730187 
L 156.758523 -287.195295 
L 160.721591 -287.538722 
L 164.684659 -287.754633 
L 168.647727 -287.764748 
L 172.610795 -287.479426 
L 176.573864 -287.009251 
L 180.536932 -286.601096 
L 184.5 -286.442809 
L 188.463068 -286.601096 
L 192.426136 -287.009251 
L 196.389205 -287.479426 
L 200.352273 -287.764748 
L 204.315341 -287.754633 
L 208.278409 -287.538722 
L 212.241477 -287.195295 
L 216.204545 -286.730187 
L 220.167614 -286.120672 
L 224.130682 -285.398776 
L 228.09375 -284.673202 
L 232.056818 -284.019794 
L 236.019886 -283.398951 
L 239.982955 -282.650016 
L 243.946023 -281.528501 
L 247.909091 -279.782578 
L 251.872159 -277.305571 
L 255.835227 -274.2157 
L 259.798295 -270.742643 
L 263.761364 -267.159614 
L 267.724432 -263.751156 
L 271.6875 -260.766217 
L 275.650568 -258.371095 
L 279.613636 -256.622446 
L 283.576705 -255.471321 
L 287.539773 -254.795805 
L 291.502841 -254.447488 
L 295.465909 -254.292635 
L 299.428977 -254.234808 
L 303.392045 -254.217355 
L 307.355114 -254.213353 
L 311.318182 -254.212732 
L 311.318182 -254.212743 
L 311.318182 -254.212743 
L 307.355114 -254.213479 
L 303.392045 -254.218141 
L 299.428977 -254.238234 
L 295.465909 -254.3042 
L 291.502841 -254.47949 
L 287.539773 -254.871 
L 283.576705 -255.625186 
L 279.613636 -256.901841 
L 275.650568 -258.82742 
L 271.6875 -261.44201 
L 267.724432 -264.66141 
L 263.761364 -268.273384 
L 259.798295 -271.975853 
L 255.835227 -275.450081 
L 251.872159 -278.451235 
L 247.909091 -280.888251 
L 243.946023 -282.809454 
L 239.982955 -284.270565 
L 236.019886 -285.333506 
L 232.056818 -286.10559 
L 228.09375 -286.710129 
L 224.130682 -287.25898 
L 220.167614 -287.837663 
L 216.204545 -288.460188 
L 212.241477 -289.020504 
L 208.278409 -289.374948 
L 204.315341 -289.469787 
L 200.352273 -289.406637 
L 196.389205 -289.379312 
L 192.426136 -289.437715 
L 188.463068 -289.508369 
L 184.5 -289.537349 
L 180.536932 -289.508369 
L 176.573864 -289.437715 
L 172.610795 -289.379312 
L 168.647727 -289.406637 
L 164.684659 -289.469787 
L 160.721591 -289.374948 
L 156.758523 -289.020504 
L 152.795455 -288.460188 
L 148.832386 -287.837663 
L 144.869318 -287.25898 
L 140.90625 -286.710129 
L 136.943182 -286.10559 
L 132.980114 -285.333506 
L 129.017045 -284.270565 
L 125.053977 -282.809454 
L 121.090909 -280.888251 
L 117.127841 -278.451235 
L 113.164773 -275.450081 
L 109.201705 -271.975853 
L 105.238636 -268.273384 
L 101.275568 -264.66141 
L 97.3125 -261.44201 
L 93.349432 -258.82742 
L 89.386364 -256.901841 
L 85.423295 -255.625186 
L 81.460227 -254.871 
L 77.497159 -254.47949 
L 73.534091 -254.3042 
L 69.571023 -254.238234 
L 65.607955 -254.218141 
L 61.644886 -254.213479 
L 57.681818 -254.212743 
z
" style="stroke: #ff7f0e; stroke-opacity: 0.5"/>
    </defs>
    <g clip-path="url(#pcb63d8ead2)">
     <use xlink:href="#m3271f72d6e" x="0" y="504" style="fill: #ff7f0e; fill-opacity: 0.5; stroke: #ff7f0e; stroke-opacity: 0.5"/>
    </g>
   </g>
   <g id="PolyCollection_4">
    <defs>
     <path id="m18c81e6d23" d="M 57.681818 -254.212725 
L 57.681818 -254.21272 
L 61.644886 -254.213287 
L 65.607955 -254.217791 
L 69.571023 -254.242217 
L 73.534091 -254.342882 
L 77.497159 -254.677458 
L 81.460227 -255.607744 
L 85.423295 -257.823742 
L 89.386364 -262.418715 
L 93.349432 -270.798678 
L 97.3125 -284.313863 
L 101.275568 -303.603478 
L 105.238636 -327.849968 
L 109.201705 -354.341587 
L 113.164773 -378.755776 
L 117.127841 -396.242338 
L 121.090909 -402.908754 
L 125.053977 -397.132517 
L 129.017045 -380.188265 
L 132.980114 -355.894605 
L 136.943182 -329.223537 
L 140.90625 -304.636757 
L 144.869318 -284.971751 
L 148.832386 -271.144927 
L 152.795455 -262.562509 
L 156.758523 -257.865491 
L 160.721591 -255.611829 
L 164.684659 -254.673587 
L 168.647727 -254.340026 
L 172.610795 -254.24112 
L 176.573864 -254.21752 
L 180.536932 -254.213244 
L 184.5 -254.212717 
L 188.463068 -254.212683 
L 192.426136 -254.212683 
L 196.389205 -254.212683 
L 200.352273 -254.212683 
L 204.315341 -254.212683 
L 208.278409 -254.212683 
L 212.241477 -254.212683 
L 216.204545 -254.212683 
L 220.167614 -254.212683 
L 224.130682 -254.212683 
L 228.09375 -254.212683 
L 232.056818 -254.212683 
L 236.019886 -254.212683 
L 239.982955 -254.212683 
L 243.946023 -254.212683 
L 247.909091 -254.212683 
L 251.872159 -254.212683 
L 255.835227 -254.212683 
L 259.798295 -254.212683 
L 263.761364 -254.212683 
L 267.724432 -254.212683 
L 271.6875 -254.212683 
L 275.650568 -254.212683 
L 279.613636 -254.212683 
L 283.576705 -254.212683 
L 287.539773 -254.212683 
L 291.502841 -254.212683 
L 295.465909 -254.212683 
L 299.428977 -254.212683 
L 303.392045 -254.212683 
L 307.355114 -254.212683 
L 311.318182 -254.212683 
L 311.318182 -254.212683 
L 311.318182 -254.212683 
L 307.355114 -254.212683 
L 303.392045 -254.212683 
L 299.428977 -254.212683 
L 295.465909 -254.212683 
L 291.502841 -254.212683 
L 287.539773 -254.212683 
L 283.576705 -254.212683 
L 279.613636 -254.212683 
L 275.650568 -254.212683 
L 271.6875 -254.212683 
L 267.724432 -254.212683 
L 263.761364 -254.212683 
L 259.798295 -254.212683 
L 255.835227 -254.212683 
L 251.872159 -254.212683 
L 247.909091 -254.212683 
L 243.946023 -254.212683 
L 239.982955 -254.212683 
L 236.019886 -254.212683 
L 232.056818 -254.212683 
L 228.09375 -254.212683 
L 224.130682 -254.212683 
L 220.167614 -254.212683 
L 216.204545 -254.212683 
L 212.241477 -254.212683 
L 208.278409 -254.212683 
L 204.315341 -254.212683 
L 200.352273 -254.212683 
L 196.389205 -254.212683 
L 192.426136 -254.212683 
L 188.463068 -254.212683 
L 184.5 -254.21272 
L 180.536932 -254.213286 
L 176.573864 -254.217831 
L 172.610795 -254.242706 
L 168.647727 -254.346148 
L 164.684659 -254.692542 
L 160.721591 -255.660582 
L 156.758523 -257.972337 
L 152.795455 -262.766096 
L 148.832386 -271.487259 
L 144.869318 -285.483194 
L 140.90625 -305.312533 
L 136.943182 -330.001939 
L 132.980114 -356.667589 
L 129.017045 -380.878472 
L 125.053977 -397.801534 
L 121.090909 -403.673872 
L 117.127841 -397.085585 
L 113.164773 -379.586476 
L 109.201705 -355.117682 
L 105.238636 -328.574142 
L 101.275568 -304.250262 
L 97.3125 -284.832841 
L 93.349432 -271.162995 
L 89.386364 -262.64215 
L 85.423295 -257.944245 
L 81.460227 -255.66502 
L 77.497159 -254.701155 
L 73.534091 -254.351151 
L 69.571023 -254.244535 
L 65.607955 -254.218277 
L 61.644886 -254.213355 
L 57.681818 -254.212725 
z
" style="stroke: #ff7f0e; stroke-opacity: 0.5"/>
    </defs>
    <g clip-path="url(#pcb63d8ead2)">
     <use xlink:href="#m18c81e6d23" x="0" y="504" style="fill: #ff7f0e; fill-opacity: 0.5; stroke: #ff7f0e; stroke-opacity: 0.5"/>
    </g>
   </g>
   <g id="PolyCollection_5">
    <defs>
     <path id="m01267a061c" d="M 57.681818 -254.253806 
L 57.681818 -254.243649 
L 61.644886 -254.386862 
L 65.607955 -254.80273 
L 69.571023 -255.666802 
L 73.534091 -257.137653 
L 77.497159 -259.257049 
L 81.460227 -261.941265 
L 85.423295 -264.982085 
L 89.386364 -268.177056 
L 93.349432 -271.227977 
L 97.3125 -273.862118 
L 101.275568 -275.828242 
L 105.238636 -277.070221 
L 109.201705 -277.661235 
L 113.164773 -277.810598 
L 117.127841 -277.739563 
L 121.090909 -277.692478 
L 125.053977 -277.814346 
L 129.017045 -278.0823 
L 132.980114 -278.340009 
L 136.943182 -278.459354 
L 140.90625 -278.523512 
L 144.869318 -278.660835 
L 148.832386 -278.997062 
L 152.795455 -279.429402 
L 156.758523 -279.767621 
L 160.721591 -279.93613 
L 164.684659 -280.047511 
L 168.647727 -280.16411 
L 172.610795 -280.140014 
L 176.573864 -279.912379 
L 180.536932 -279.587466 
L 184.5 -279.444128 
L 188.463068 -279.587466 
L 192.426136 -279.912379 
L 196.389205 -280.140014 
L 200.352273 -280.16411 
L 204.315341 -280.047511 
L 208.278409 -279.93613 
L 212.241477 -279.767621 
L 216.204545 -279.429402 
L 220.167614 -278.997062 
L 224.130682 -278.660835 
L 228.09375 -278.523512 
L 232.056818 -278.459354 
L 236.019886 -278.340009 
L 239.982955 -278.0823 
L 243.946023 -277.814346 
L 247.909091 -277.692478 
L 251.872159 -277.739563 
L 255.835227 -277.810598 
L 259.798295 -277.661235 
L 263.761364 -277.070221 
L 267.724432 -275.828242 
L 271.6875 -273.862118 
L 275.650568 -271.227977 
L 279.613636 -268.177056 
L 283.576705 -264.982085 
L 287.539773 -261.941265 
L 291.502841 -259.257049 
L 295.465909 -257.137653 
L 299.428977 -255.666802 
L 303.392045 -254.80273 
L 307.355114 -254.386862 
L 311.318182 -254.243649 
L 311.318182 -254.253806 
L 311.318182 -254.253806 
L 307.355114 -254.439044 
L 303.392045 -254.95173 
L 299.428977 -255.958001 
L 295.465909 -257.576988 
L 291.502841 -259.835944 
L 287.539773 -262.724222 
L 283.576705 -266.064162 
L 279.613636 -269.53843 
L 275.650568 -272.749417 
L 271.6875 -275.429453 
L 267.724432 -277.386662 
L 263.761364 -278.608819 
L 259.798295 -279.19562 
L 255.835227 -279.399922 
L 251.872159 -279.44353 
L 247.909091 -279.4853 
L 243.946023 -279.592714 
L 239.982955 -279.780743 
L 236.019886 -280.039605 
L 232.056818 -280.302162 
L 228.09375 -280.564868 
L 224.130682 -280.859562 
L 220.167614 -281.250198 
L 216.204545 -281.657529 
L 212.241477 -281.973628 
L 208.278409 -282.116558 
L 204.315341 -282.135476 
L 200.352273 -282.191247 
L 196.389205 -282.378101 
L 192.426136 -282.644207 
L 188.463068 -282.825615 
L 184.5 -282.896416 
L 180.536932 -282.825615 
L 176.573864 -282.644207 
L 172.610795 -282.378101 
L 168.647727 -282.191247 
L 164.684659 -282.135476 
L 160.721591 -282.116558 
L 156.758523 -281.973628 
L 152.795455 -281.657529 
L 148.832386 -281.250198 
L 144.869318 -280.859562 
L 140.90625 -280.564868 
L 136.943182 -280.302162 
L 132.980114 -280.039605 
L 129.017045 -279.780743 
L 125.053977 -279.592714 
L 121.090909 -279.4853 
L 117.127841 -279.44353 
L 113.164773 -279.399922 
L 109.201705 -279.19562 
L 105.238636 -278.608819 
L 101.275568 -277.386662 
L 97.3125 -275.429453 
L 93.349432 -272.749417 
L 89.386364 -269.53843 
L 85.423295 -266.064162 
L 81.460227 -262.724222 
L 77.497159 -259.835944 
L 73.534091 -257.576988 
L 69.571023 -255.958001 
L 65.607955 -254.95173 
L 61.644886 -254.439044 
L 57.681818 -254.253806 
z
" style="stroke: #2ca02c; stroke-opacity: 0.5"/>
    </defs>
    <g clip-path="url(#pcb63d8ead2)">
     <use xlink:href="#m01267a061c" x="0" y="504" style="fill: #2ca02c; fill-opacity: 0.5; stroke: #2ca02c; stroke-opacity: 0.5"/>
    </g>
   </g>
   <g id="PolyCollection_6">
    <defs>
     <path id="m8ee4949e37" d="M 57.681818 -254.214908 
L 57.681818 -254.214598 
L 61.644886 -254.226055 
L 65.607955 -254.281381 
L 69.571023 -254.45392 
L 73.534091 -254.939084 
L 77.497159 -256.041733 
L 81.460227 -258.382142 
L 85.423295 -262.594874 
L 89.386364 -269.564352 
L 93.349432 -279.709031 
L 97.3125 -293.515753 
L 101.275568 -310.917373 
L 105.238636 -330.714831 
L 109.201705 -350.576524 
L 113.164773 -367.691157 
L 117.127841 -378.528765 
L 121.090909 -381.401392 
L 125.053977 -376.211128 
L 129.017045 -364.702317 
L 132.980114 -349.141325 
L 136.943182 -330.968598 
L 140.90625 -311.747513 
L 144.869318 -294.363069 
L 148.832386 -280.678743 
L 152.795455 -270.331393 
L 156.758523 -262.960002 
L 160.721591 -258.480185 
L 164.684659 -256.104432 
L 168.647727 -254.970038 
L 172.610795 -254.468675 
L 176.573864 -254.283021 
L 180.536932 -254.226026 
L 184.5 -254.214685 
L 188.463068 -254.212683 
L 192.426136 -254.212683 
L 196.389205 -254.212683 
L 200.352273 -254.212683 
L 204.315341 -254.212683 
L 208.278409 -254.212683 
L 212.241477 -254.212683 
L 216.204545 -254.212683 
L 220.167614 -254.212683 
L 224.130682 -254.212683 
L 228.09375 -254.212683 
L 232.056818 -254.212683 
L 236.019886 -254.212683 
L 239.982955 -254.212683 
L 243.946023 -254.212683 
L 247.909091 -254.212683 
L 251.872159 -254.212683 
L 255.835227 -254.212683 
L 259.798295 -254.212683 
L 263.761364 -254.212683 
L 267.724432 -254.212683 
L 271.6875 -254.212683 
L 275.650568 -254.212683 
L 279.613636 -254.212683 
L 283.576705 -254.212683 
L 287.539773 -254.212683 
L 291.502841 -254.212683 
L 295.465909 -254.212683 
L 299.428977 -254.212683 
L 303.392045 -254.212683 
L 307.355114 -254.212683 
L 311.318182 -254.212683 
L 311.318182 -254.212683 
L 311.318182 -254.212683 
L 307.355114 -254.212683 
L 303.392045 -254.212683 
L 299.428977 -254.212683 
L 295.465909 -254.212683 
L 291.502841 -254.212683 
L 287.539773 -254.212683 
L 283.576705 -254.212683 
L 279.613636 -254.212683 
L 275.650568 -254.212683 
L 271.6875 -254.212683 
L 267.724432 -254.212683 
L 263.761364 -254.212683 
L 259.798295 -254.212683 
L 255.835227 -254.212683 
L 251.872159 -254.212683 
L 247.909091 -254.212683 
L 243.946023 -254.212683 
L 239.982955 -254.212683 
L 236.019886 -254.212683 
L 232.056818 -254.212683 
L 228.09375 -254.212683 
L 224.130682 -254.212683 
L 220.167614 -254.212683 
L 216.204545 -254.212683 
L 212.241477 -254.212683 
L 208.278409 -254.212683 
L 204.315341 -254.212683 
L 200.352273 -254.212683 
L 196.389205 -254.212683 
L 192.426136 -254.212683 
L 188.463068 -254.212683 
L 184.5 -254.214977 
L 180.536932 -254.22782 
L 176.573864 -254.290484 
L 172.610795 -254.492142 
L 168.647727 -255.030582 
L 164.684659 -256.231461 
L 160.721591 -258.770065 
L 156.758523 -263.447318 
L 152.795455 -271.095659 
L 148.832386 -281.547915 
L 144.869318 -295.576588 
L 140.90625 -313.023884 
L 136.943182 -332.509751 
L 132.980114 -350.70163 
L 129.017045 -366.357852 
L 125.053977 -377.830509 
L 121.090909 -383.127265 
L 117.127841 -380.103653 
L 113.164773 -369.115672 
L 109.201705 -351.938883 
L 105.238636 -331.962532 
L 101.275568 -312.015137 
L 97.3125 -294.450432 
L 93.349432 -280.440277 
L 89.386364 -270.095333 
L 85.423295 -262.954708 
L 81.460227 -258.604016 
L 77.497159 -256.161945 
L 73.534091 -254.997545 
L 69.571023 -254.479992 
L 65.607955 -254.291157 
L 61.644886 -254.228421 
L 57.681818 -254.214908 
z
" style="stroke: #2ca02c; stroke-opacity: 0.5"/>
    </defs>
    <g clip-path="url(#pcb63d8ead2)">
     <use xlink:href="#m8ee4949e37" x="0" y="504" style="fill: #2ca02c; fill-opacity: 0.5; stroke: #2ca02c; stroke-opacity: 0.5"/>
    </g>
   </g>
   <g id="matplotlib.axis_1"/>
   <g id="matplotlib.axis_2">
    <g id="ytick_1">
     <g id="line2d_1">
      <defs>
       <path id="m1b0c108be2" d="M 0 0 
L -3.5 0 
" style="stroke: #000000; stroke-width: 0.8"/>
      </defs>
      <g>
       <use xlink:href="#m1b0c108be2" x="45" y="249.787317" style="stroke: #000000; stroke-width: 0.8"/>
      </g>
     </g>
     <g id="text_1">
      <!-- $\mathdefault{0.00}$ -->
      <g transform="translate(17.189368 253.938407) scale(0.12 -0.12)">
       <defs>
        <path id="CMR17-30" d="M 2688 2025 
C 2688 2416 2682 3080 2413 3591 
C 2176 4039 1798 4198 1466 4198 
C 1158 4198 768 4058 525 3597 
C 269 3118 243 2524 243 2025 
C 243 1661 250 1106 448 619 
C 723 -39 1216 -128 1466 -128 
C 1760 -128 2208 -7 2470 600 
C 2662 1042 2688 1559 2688 2025 
z
M 1466 -26 
C 1056 -26 813 325 723 812 
C 653 1188 653 1738 653 2096 
C 653 2588 653 2997 736 3387 
C 858 3929 1216 4096 1466 4096 
C 1728 4096 2067 3923 2189 3400 
C 2272 3036 2278 2607 2278 2096 
C 2278 1680 2278 1169 2202 792 
C 2067 95 1690 -26 1466 -26 
z
" transform="scale(0.015625)"/>
        <path id="CMMI12-3a" d="M 1178 307 
C 1178 492 1024 619 870 619 
C 685 619 557 466 557 313 
C 557 128 710 0 864 0 
C 1050 0 1178 153 1178 307 
z
" transform="scale(0.015625)"/>
       </defs>
       <use xlink:href="#CMR17-30" transform="scale(0.996264)"/>
       <use xlink:href="#CMMI12-3a" transform="translate(45.690477 0) scale(0.996264)"/>
       <use xlink:href="#CMR17-30" transform="translate(72.787654 0) scale(0.996264)"/>
       <use xlink:href="#CMR17-30" transform="translate(118.478131 0) scale(0.996264)"/>
      </g>
     </g>
    </g>
    <g id="ytick_2">
     <g id="line2d_2">
      <g>
       <use xlink:href="#m1b0c108be2" x="45" y="186.684878" style="stroke: #000000; stroke-width: 0.8"/>
      </g>
     </g>
     <g id="text_2">
      <!-- $\mathdefault{0.05}$ -->
      <g transform="translate(17.189368 190.835968) scale(0.12 -0.12)">
       <defs>
        <path id="CMR17-35" d="M 730 3692 
C 794 3666 1056 3584 1325 3584 
C 1920 3584 2246 3911 2432 4100 
C 2432 4157 2432 4192 2394 4192 
C 2387 4192 2374 4192 2323 4163 
C 2099 4058 1837 3973 1517 3973 
C 1325 3973 1037 3999 723 4139 
C 653 4171 640 4171 634 4171 
C 602 4171 595 4164 595 4037 
L 595 2203 
C 595 2089 595 2057 659 2057 
C 691 2057 704 2070 736 2114 
C 941 2401 1222 2522 1542 2522 
C 1766 2522 2246 2382 2246 1289 
C 2246 1085 2246 715 2054 421 
C 1894 159 1645 25 1370 25 
C 947 25 518 320 403 814 
C 429 807 480 795 506 795 
C 589 795 749 840 749 1038 
C 749 1210 627 1280 506 1280 
C 358 1280 262 1190 262 1011 
C 262 454 704 -128 1382 -128 
C 2042 -128 2669 440 2669 1264 
C 2669 2030 2170 2624 1549 2624 
C 1222 2624 947 2503 730 2274 
L 730 3692 
z
" transform="scale(0.015625)"/>
       </defs>
       <use xlink:href="#CMR17-30" transform="scale(0.996264)"/>
       <use xlink:href="#CMMI12-3a" transform="translate(45.690477 0) scale(0.996264)"/>
       <use xlink:href="#CMR17-30" transform="translate(72.787654 0) scale(0.996264)"/>
       <use xlink:href="#CMR17-35" transform="translate(118.478131 0) scale(0.996264)"/>
      </g>
     </g>
    </g>
    <g id="ytick_3">
     <g id="line2d_3">
      <g>
       <use xlink:href="#m1b0c108be2" x="45" y="123.582439" style="stroke: #000000; stroke-width: 0.8"/>
      </g>
     </g>
     <g id="text_3">
      <!-- $\mathdefault{0.10}$ -->
      <g transform="translate(17.189368 127.733529) scale(0.12 -0.12)">
       <defs>
        <path id="CMR17-31" d="M 1702 4058 
C 1702 4192 1696 4192 1606 4192 
C 1357 3916 979 3827 621 3827 
C 602 3827 570 3827 563 3808 
C 557 3795 557 3782 557 3648 
C 755 3648 1088 3686 1344 3839 
L 1344 461 
C 1344 236 1331 160 781 160 
L 589 160 
L 589 0 
C 896 0 1216 0 1523 0 
C 1830 0 2150 0 2458 0 
L 2458 160 
L 2266 160 
C 1715 160 1702 230 1702 458 
L 1702 4058 
z
" transform="scale(0.015625)"/>
       </defs>
       <use xlink:href="#CMR17-30" transform="scale(0.996264)"/>
       <use xlink:href="#CMMI12-3a" transform="translate(45.690477 0) scale(0.996264)"/>
       <use xlink:href="#CMR17-31" transform="translate(72.787654 0) scale(0.996264)"/>
       <use xlink:href="#CMR17-30" transform="translate(118.478131 0) scale(0.996264)"/>
      </g>
     </g>
    </g>
    <g id="ytick_4">
     <g id="line2d_4">
      <g>
       <use xlink:href="#m1b0c108be2" x="45" y="60.48" style="stroke: #000000; stroke-width: 0.8"/>
      </g>
     </g>
     <g id="text_4">
      <!-- $\mathdefault{0.15}$ -->
      <g transform="translate(17.189368 64.63109) scale(0.12 -0.12)">
       <use xlink:href="#CMR17-30" transform="scale(0.996264)"/>
       <use xlink:href="#CMMI12-3a" transform="translate(45.690477 0) scale(0.996264)"/>
       <use xlink:href="#CMR17-31" transform="translate(72.787654 0) scale(0.996264)"/>
       <use xlink:href="#CMR17-35" transform="translate(118.478131 0) scale(0.996264)"/>
      </g>
     </g>
    </g>
    <g id="text_5">
     <!-- $P_{n,1}$ -->
     <g transform="translate(9.846359 164.768647) rotate(-90) scale(0.12 -0.12)">
      <defs>
       <path id="CMMI12-50" d="M 1894 2023 
L 2970 2023 
C 3853 2023 4736 2673 4736 3401 
C 4736 3898 4314 4352 3507 4352 
L 1530 4352 
C 1408 4352 1350 4352 1350 4231 
C 1350 4167 1408 4167 1504 4167 
C 1894 4167 1894 4116 1894 4046 
C 1894 4034 1894 3995 1869 3899 
L 1005 472 
C 947 249 934 185 486 185 
C 365 185 301 185 301 70 
C 301 0 358 0 397 0 
C 518 0 646 0 768 0 
L 1517 0 
C 1638 0 1773 0 1894 0 
C 1946 0 2016 0 2016 121 
C 2016 185 1958 185 1862 185 
C 1478 185 1472 230 1472 293 
C 1472 325 1478 369 1485 401 
L 1894 2023 
z
M 2355 3930 
C 2413 4167 2438 4167 2688 4167 
L 3322 4167 
C 3802 4167 4198 4013 4198 3535 
C 4198 3369 4115 2827 3821 2534 
C 3712 2419 3405 2176 2822 2176 
L 1920 2176 
L 2355 3930 
z
" transform="scale(0.015625)"/>
       <path id="CMMI12-6e" d="M 1318 1871 
C 1331 1910 1491 2229 1728 2433 
C 1894 2586 2112 2689 2362 2689 
C 2618 2689 2707 2497 2707 2242 
C 2707 1878 2445 1150 2317 805 
C 2259 651 2227 568 2227 453 
C 2227 166 2426 -64 2733 -64 
C 3328 -64 3552 875 3552 913 
C 3552 945 3526 971 3488 971 
C 3430 971 3424 952 3392 843 
C 3245 319 3002 64 2752 64 
C 2688 64 2586 64 2586 269 
C 2586 429 2656 621 2694 710 
C 2822 1063 3091 1780 3091 2145 
C 3091 2528 2867 2816 2381 2816 
C 1811 2816 1510 2415 1395 2255 
C 1376 2618 1114 2816 832 2816 
C 627 2816 486 2695 378 2478 
C 262 2248 173 1865 173 1839 
C 173 1814 198 1782 243 1782 
C 294 1782 301 1788 339 1935 
C 442 2325 557 2689 813 2689 
C 960 2689 1011 2586 1011 2395 
C 1011 2254 947 2005 902 1807 
L 723 1118 
C 698 996 627 709 595 594 
C 550 428 480 128 480 96 
C 480 6 550 -64 646 -64 
C 723 -64 813 -26 864 70 
C 877 102 934 326 966 453 
L 1107 1028 
L 1318 1871 
z
" transform="scale(0.015625)"/>
       <path id="CMMI12-3b" d="M 1248 -31 
C 1248 343 1126 619 864 619 
C 659 619 557 453 557 313 
C 557 172 653 0 870 0 
C 954 0 1024 26 1082 83 
C 1094 96 1101 96 1107 96 
C 1120 96 1120 5 1120 -27 
C 1120 -240 1082 -659 710 -1080 
C 640 -1157 640 -1170 640 -1183 
C 640 -1216 672 -1248 704 -1248 
C 755 -1248 1248 -771 1248 -31 
z
" transform="scale(0.015625)"/>
      </defs>
      <use xlink:href="#CMMI12-50" transform="scale(0.996264)"/>
      <use xlink:href="#CMMI12-6e" transform="translate(62.877232 -14.943915) scale(0.697382)"/>
      <use xlink:href="#CMMI12-3b" transform="translate(103.638075 -14.943915) scale(0.697382)"/>
      <use xlink:href="#CMR17-31" transform="translate(122.606008 -14.943915) scale(0.697382)"/>
     </g>
    </g>
   </g>
   <g id="line2d_5">
    <path d="M 57.681818 249.787317 
L 61.644886 249.787317 
L 65.607955 249.787317 
L 69.571023 249.787317 
L 73.534091 249.787314 
L 77.497159 249.787299 
L 81.460227 249.78722 
L 85.423295 249.786859 
L 89.386364 249.785454 
L 93.349432 249.780665 
L 97.3125 249.766204 
L 101.275568 249.727133 
L 105.238636 249.631968 
L 109.201705 249.421647 
L 113.164773 248.997603 
L 117.127841 248.21406 
L 121.090909 246.881929 
L 125.053977 244.790959 
L 129.017045 241.751708 
L 132.980114 237.65005 
L 136.943182 232.498144 
L 140.90625 226.462158 
L 144.869318 219.85225 
L 148.832386 213.073306 
L 152.795455 206.549972 
L 156.758523 200.649315 
L 160.721591 195.624174 
L 164.684659 191.590855 
L 168.647727 188.541595 
L 172.610795 186.381573 
L 176.573864 184.975965 
L 180.536932 184.194365 
L 184.5 183.944808 
L 188.463068 184.194365 
L 192.426136 184.975965 
L 196.389205 186.381573 
L 200.352273 188.541595 
L 204.315341 191.590855 
L 208.278409 195.624174 
L 212.241477 200.649315 
L 216.204545 206.549972 
L 220.167614 213.073306 
L 224.130682 219.85225 
L 228.09375 226.462158 
L 232.056818 232.498144 
L 236.019886 237.65005 
L 239.982955 241.751708 
L 243.946023 244.790959 
L 247.909091 246.881929 
L 251.872159 248.21406 
L 255.835227 248.997603 
L 259.798295 249.421647 
L 263.761364 249.631968 
L 267.724432 249.727133 
L 271.6875 249.766204 
L 275.650568 249.780665 
L 279.613636 249.785454 
L 283.576705 249.786859 
L 287.539773 249.78722 
L 291.502841 249.787299 
L 295.465909 249.787314 
L 299.428977 249.787317 
L 303.392045 249.787317 
L 307.355114 249.787317 
L 311.318182 249.787317 
" clip-path="url(#pcb63d8ead2)" style="fill: none; stroke: #1f77b4; stroke-width: 1.5; stroke-linecap: square"/>
   </g>
   <g id="line2d_6">
    <path d="M 57.681818 249.787316 
L 61.644886 249.787295 
L 65.607955 249.787016 
L 69.571023 249.784599 
L 73.534091 249.769394 
L 77.497159 249.695341 
L 81.460227 249.405167 
L 85.423295 248.466898 
L 89.386364 245.920093 
L 93.349432 240.050346 
L 97.3125 228.485762 
L 101.275568 208.965492 
L 105.238636 180.832751 
L 109.201705 146.640518 
L 113.164773 112.681769 
L 117.127841 87.466687 
L 121.090909 78.390826 
L 125.053977 88.301597 
L 129.017045 114.087918 
L 132.980114 148.222013 
L 136.943182 182.23724 
L 140.90625 210.00067 
L 144.869318 229.131142 
L 148.832386 240.392881 
L 152.795455 246.074767 
L 156.758523 248.525975 
L 160.721591 249.424046 
L 164.684659 249.700305 
L 168.647727 249.770441 
L 172.610795 249.784769 
L 176.573864 249.787036 
L 180.536932 249.787297 
L 184.5 249.787316 
L 188.463068 249.787317 
L 192.426136 249.787317 
L 196.389205 249.787317 
L 200.352273 249.787317 
L 204.315341 249.787317 
L 208.278409 249.787317 
L 212.241477 249.787317 
L 216.204545 249.787317 
L 220.167614 249.787317 
L 224.130682 249.787317 
L 228.09375 249.787317 
L 232.056818 249.787317 
L 236.019886 249.787317 
L 239.982955 249.787317 
L 243.946023 249.787317 
L 247.909091 249.787317 
L 251.872159 249.787317 
L 255.835227 249.787317 
L 259.798295 249.787317 
L 263.761364 249.787317 
L 267.724432 249.787317 
L 271.6875 249.787317 
L 275.650568 249.787317 
L 279.613636 249.787317 
L 283.576705 249.787317 
L 287.539773 249.787317 
L 291.502841 249.787317 
L 295.465909 249.787317 
L 299.428977 249.787317 
L 303.392045 249.787317 
L 307.355114 249.787317 
L 311.318182 249.787317 
" clip-path="url(#pcb63d8ead2)" style="fill: none; stroke-dasharray: 5.55,2.4; stroke-dashoffset: 0; stroke: #1f77b4; stroke-width: 1.5"/>
   </g>
   <g id="line2d_7">
    <path d="M 57.681818 249.787263 
L 61.644886 249.786584 
L 65.607955 249.782252 
L 69.571023 249.763479 
L 73.534091 249.701583 
L 77.497159 249.536511 
L 81.460227 249.166598 
L 85.423295 248.451746 
L 89.386364 247.237856 
L 93.349432 245.400742 
L 97.3125 242.895886 
L 101.275568 239.793717 
L 105.238636 236.283501 
L 109.201705 232.640752 
L 113.164773 229.16711 
L 117.127841 226.121597 
L 121.090909 223.664585 
L 125.053977 221.831023 
L 129.017045 220.539709 
L 132.980114 219.633771 
L 136.943182 218.937308 
L 140.90625 218.308334 
L 144.869318 217.671122 
L 148.832386 217.020833 
L 152.795455 216.404813 
L 156.758523 215.892101 
L 160.721591 215.543165 
L 164.684659 215.38779 
L 168.647727 215.414308 
L 172.610795 215.570631 
L 176.573864 215.776517 
L 180.536932 215.945267 
L 184.5 216.009921 
L 188.463068 215.945267 
L 192.426136 215.776517 
L 196.389205 215.570631 
L 200.352273 215.414308 
L 204.315341 215.38779 
L 208.278409 215.543165 
L 212.241477 215.892101 
L 216.204545 216.404813 
L 220.167614 217.020833 
L 224.130682 217.671122 
L 228.09375 218.308334 
L 232.056818 218.937308 
L 236.019886 219.633771 
L 239.982955 220.539709 
L 243.946023 221.831023 
L 247.909091 223.664585 
L 251.872159 226.121597 
L 255.835227 229.16711 
L 259.798295 232.640752 
L 263.761364 236.283501 
L 267.724432 239.793717 
L 271.6875 242.895886 
L 275.650568 245.400742 
L 279.613636 247.237856 
L 283.576705 248.451746 
L 287.539773 249.166598 
L 291.502841 249.536511 
L 295.465909 249.701583 
L 299.428977 249.763479 
L 303.392045 249.782252 
L 307.355114 249.786584 
L 311.318182 249.787263 
" clip-path="url(#pcb63d8ead2)" style="fill: none; stroke: #ff7f0e; stroke-width: 1.5; stroke-linecap: square"/>
   </g>
   <g id="line2d_8">
    <path d="M 57.681818 249.787277 
L 61.644886 249.786679 
L 65.607955 249.781966 
L 69.571023 249.756624 
L 73.534091 249.652983 
L 77.497159 249.310693 
L 81.460227 248.363618 
L 85.423295 246.116006 
L 89.386364 241.469567 
L 93.349432 233.019163 
L 97.3125 219.426648 
L 101.275568 200.07313 
L 105.238636 175.787945 
L 109.201705 149.270366 
L 113.164773 124.828874 
L 117.127841 107.336038 
L 121.090909 100.708687 
L 125.053977 106.532974 
L 129.017045 123.466631 
L 132.980114 147.718903 
L 136.943182 174.387262 
L 140.90625 199.025355 
L 144.869318 218.772527 
L 148.832386 232.683907 
L 152.795455 241.335698 
L 156.758523 246.081086 
L 160.721591 248.363794 
L 164.684659 249.316936 
L 168.647727 249.656913 
L 172.610795 249.758087 
L 176.573864 249.782325 
L 180.536932 249.786735 
L 184.5 249.787282 
L 188.463068 249.787317 
L 192.426136 249.787317 
L 196.389205 249.787317 
L 200.352273 249.787317 
L 204.315341 249.787317 
L 208.278409 249.787317 
L 212.241477 249.787317 
L 216.204545 249.787317 
L 220.167614 249.787317 
L 224.130682 249.787317 
L 228.09375 249.787317 
L 232.056818 249.787317 
L 236.019886 249.787317 
L 239.982955 249.787317 
L 243.946023 249.787317 
L 247.909091 249.787317 
L 251.872159 249.787317 
L 255.835227 249.787317 
L 259.798295 249.787317 
L 263.761364 249.787317 
L 267.724432 249.787317 
L 271.6875 249.787317 
L 275.650568 249.787317 
L 279.613636 249.787317 
L 283.576705 249.787317 
L 287.539773 249.787317 
L 291.502841 249.787317 
L 295.465909 249.787317 
L 299.428977 249.787317 
L 303.392045 249.787317 
L 307.355114 249.787317 
L 311.318182 249.787317 
" clip-path="url(#pcb63d8ead2)" style="fill: none; stroke-dasharray: 5.55,2.4; stroke-dashoffset: 0; stroke: #ff7f0e; stroke-width: 1.5"/>
   </g>
   <g id="line2d_9">
    <path d="M 57.681818 249.751273 
L 61.644886 249.587047 
L 65.607955 249.12277 
L 69.571023 248.187598 
L 73.534091 246.642679 
L 77.497159 244.453504 
L 81.460227 241.667256 
L 85.423295 238.476877 
L 89.386364 235.142257 
L 93.349432 232.011303 
L 97.3125 229.354215 
L 101.275568 227.392548 
L 105.238636 226.16048 
L 109.201705 225.571573 
L 113.164773 225.39474 
L 117.127841 225.408454 
L 121.090909 225.411111 
L 125.053977 225.29647 
L 129.017045 225.068478 
L 132.980114 224.810193 
L 136.943182 224.619242 
L 140.90625 224.45581 
L 144.869318 224.239802 
L 148.832386 223.87637 
L 152.795455 223.456534 
L 156.758523 223.129375 
L 160.721591 222.973656 
L 164.684659 222.908506 
L 168.647727 222.822321 
L 172.610795 222.740942 
L 176.573864 222.721707 
L 180.536932 222.793459 
L 184.5 222.829728 
L 188.463068 222.793459 
L 192.426136 222.721707 
L 196.389205 222.740942 
L 200.352273 222.822321 
L 204.315341 222.908506 
L 208.278409 222.973656 
L 212.241477 223.129375 
L 216.204545 223.456534 
L 220.167614 223.87637 
L 224.130682 224.239802 
L 228.09375 224.45581 
L 232.056818 224.619242 
L 236.019886 224.810193 
L 239.982955 225.068478 
L 243.946023 225.29647 
L 247.909091 225.411111 
L 251.872159 225.408454 
L 255.835227 225.39474 
L 259.798295 225.571573 
L 263.761364 226.16048 
L 267.724432 227.392548 
L 271.6875 229.354215 
L 275.650568 232.011303 
L 279.613636 235.142257 
L 283.576705 238.476877 
L 287.539773 241.667256 
L 291.502841 244.453504 
L 295.465909 246.642679 
L 299.428977 248.187598 
L 303.392045 249.12277 
L 307.355114 249.587047 
L 311.318182 249.751273 
" clip-path="url(#pcb63d8ead2)" style="fill: none; stroke: #2ca02c; stroke-width: 1.5; stroke-linecap: square"/>
   </g>
   <g id="line2d_10">
    <path d="M 57.681818 249.785247 
L 61.644886 249.772762 
L 65.607955 249.713731 
L 69.571023 249.533044 
L 73.534091 249.031685 
L 77.497159 247.898161 
L 81.460227 245.506921 
L 85.423295 241.225209 
L 89.386364 234.170157 
L 93.349432 223.925346 
L 97.3125 210.016907 
L 101.275568 192.533745 
L 105.238636 172.661318 
L 109.201705 152.742296 
L 113.164773 135.596585 
L 117.127841 124.683791 
L 121.090909 121.735671 
L 125.053977 126.979181 
L 129.017045 138.469916 
L 132.980114 154.078523 
L 136.943182 172.260825 
L 140.90625 191.614301 
L 144.869318 209.030171 
L 148.832386 222.886671 
L 152.795455 233.286474 
L 156.758523 240.79634 
L 160.721591 245.374875 
L 164.684659 247.832054 
L 168.647727 248.99969 
L 172.610795 249.519591 
L 176.573864 249.713247 
L 180.536932 249.773077 
L 184.5 249.785169 
L 188.463068 249.787317 
L 192.426136 249.787317 
L 196.389205 249.787317 
L 200.352273 249.787317 
L 204.315341 249.787317 
L 208.278409 249.787317 
L 212.241477 249.787317 
L 216.204545 249.787317 
L 220.167614 249.787317 
L 224.130682 249.787317 
L 228.09375 249.787317 
L 232.056818 249.787317 
L 236.019886 249.787317 
L 239.982955 249.787317 
L 243.946023 249.787317 
L 247.909091 249.787317 
L 251.872159 249.787317 
L 255.835227 249.787317 
L 259.798295 249.787317 
L 263.761364 249.787317 
L 267.724432 249.787317 
L 271.6875 249.787317 
L 275.650568 249.787317 
L 279.613636 249.787317 
L 283.576705 249.787317 
L 287.539773 249.787317 
L 291.502841 249.787317 
L 295.465909 249.787317 
L 299.428977 249.787317 
L 303.392045 249.787317 
L 307.355114 249.787317 
L 311.318182 249.787317 
" clip-path="url(#pcb63d8ead2)" style="fill: none; stroke-dasharray: 5.55,2.4; stroke-dashoffset: 0; stroke: #2ca02c; stroke-width: 1.5"/>
   </g>
   <g id="patch_3">
    <path d="M 45 249.787317 
L 45 60.48 
" style="fill: none; stroke: #000000; stroke-width: 0.8; stroke-linejoin: miter; stroke-linecap: square"/>
   </g>
   <g id="patch_4">
    <path d="M 324 249.787317 
L 324 60.48 
" style="fill: none; stroke: #000000; stroke-width: 0.8; stroke-linejoin: miter; stroke-linecap: square"/>
   </g>
   <g id="patch_5">
    <path d="M 45 249.787317 
L 324 249.787317 
" style="fill: none; stroke: #000000; stroke-width: 0.8; stroke-linejoin: miter; stroke-linecap: square"/>
   </g>
   <g id="patch_6">
    <path d="M 45 60.48 
L 324 60.48 
" style="fill: none; stroke: #000000; stroke-width: 0.8; stroke-linejoin: miter; stroke-linecap: square"/>
   </g>
   <g id="legend_1">
    <g id="line2d_11">
     <path d="M 223.2 69.425099 
L 235.2 69.425099 
L 247.2 69.425099 
" style="fill: none; stroke: #1f77b4; stroke-width: 1.5; stroke-linecap: square"/>
    </g>
    <g id="text_6">
     <!-- \  -->
     <g transform="translate(256.8 73.625099) scale(0.12 -0.12)"/>
    </g>
    <g id="line2d_12">
     <path d="M 223.2 86.71607 
L 235.2 86.71607 
L 247.2 86.71607 
" style="fill: none; stroke-dasharray: 5.55,2.4; stroke-dashoffset: 0; stroke: #1f77b4; stroke-width: 1.5"/>
    </g>
    <g id="text_7">
     <!-- $|U|=1.0$ -->
     <g transform="translate(256.8 90.91607) scale(0.12 -0.12)">
      <defs>
       <path id="CMSY10-6a" d="M 1018 4570 
C 1018 4685 1018 4800 890 4800 
C 762 4800 762 4685 762 4570 
L 762 -1370 
C 762 -1485 762 -1600 890 -1600 
C 1018 -1600 1018 -1485 1018 -1370 
L 1018 4570 
z
" transform="scale(0.015625)"/>
       <path id="CMMI12-55" d="M 3238 1474 
C 3014 581 2272 57 1670 57 
C 1210 57 896 363 896 891 
C 896 916 896 1107 966 1387 
L 1594 3887 
C 1651 4103 1664 4167 2118 4167 
C 2234 4167 2298 4167 2298 4282 
C 2298 4352 2240 4352 2202 4352 
C 2086 4352 1952 4352 1830 4352 
L 1075 4352 
C 954 4352 819 4352 698 4352 
C 653 4352 576 4352 576 4231 
C 576 4167 621 4167 742 4167 
C 1126 4167 1126 4116 1126 4046 
C 1126 4008 1082 3824 1050 3715 
L 493 1488 
C 474 1418 435 1246 435 1075 
C 435 374 941 -128 1638 -128 
C 2285 -128 3002 384 3328 1197 
C 3373 1305 3430 1530 3469 1702 
C 3533 1933 3667 2496 3712 2662 
L 3955 3623 
C 4038 3956 4090 4167 4653 4167 
C 4704 4173 4730 4224 4730 4282 
C 4730 4352 4672 4352 4646 4352 
C 4557 4352 4442 4352 4352 4352 
L 4051 4352 
C 3654 4352 3450 4352 3443 4352 
C 3405 4352 3328 4352 3328 4231 
C 3328 4167 3379 4167 3424 4167 
C 3808 4167 3834 4020 3834 3905 
C 3834 3848 3834 3828 3808 3739 
L 3238 1474 
z
" transform="scale(0.015625)"/>
       <path id="CMR17-3d" d="M 4115 2017 
C 4211 2017 4307 2017 4307 2125 
C 4307 2240 4198 2240 4090 2240 
L 512 2240 
C 403 2240 294 2240 294 2125 
C 294 2017 390 2017 486 2017 
L 4115 2017 
z
M 4090 896 
C 4198 896 4307 896 4307 1011 
C 4307 1119 4211 1119 4115 1119 
L 486 1119 
C 390 1119 294 1119 294 1011 
C 294 896 403 896 512 896 
L 4090 896 
z
" transform="scale(0.015625)"/>
      </defs>
      <use xlink:href="#CMSY10-6a" transform="scale(0.996264)"/>
      <use xlink:href="#CMMI12-55" transform="translate(27.674085 0) scale(0.996264)"/>
      <use xlink:href="#CMSY10-6a" transform="translate(104.332858 0) scale(0.996264)"/>
      <use xlink:href="#CMR17-3d" transform="translate(159.680951 0) scale(0.996264)"/>
      <use xlink:href="#CMR17-31" transform="translate(259.069748 0) scale(0.996264)"/>
      <use xlink:href="#CMMI12-3a" transform="translate(304.760225 0) scale(0.996264)"/>
      <use xlink:href="#CMR17-30" transform="translate(331.857402 0) scale(0.996264)"/>
     </g>
    </g>
    <g id="line2d_13">
     <path d="M 223.2 104.104862 
L 235.2 104.104862 
L 247.2 104.104862 
" style="fill: none; stroke: #ff7f0e; stroke-width: 1.5; stroke-linecap: square"/>
    </g>
    <g id="text_8">
     <!-- \  -->
     <g transform="translate(256.8 108.304862) scale(0.12 -0.12)"/>
    </g>
    <g id="line2d_14">
     <path d="M 223.2 121.395834 
L 235.2 121.395834 
L 247.2 121.395834 
" style="fill: none; stroke-dasharray: 5.55,2.4; stroke-dashoffset: 0; stroke: #ff7f0e; stroke-width: 1.5"/>
    </g>
    <g id="text_9">
     <!-- $|U|=4.0$ -->
     <g transform="translate(256.8 125.595834) scale(0.12 -0.12)">
      <defs>
       <path id="CMR17-34" d="M 2150 4122 
C 2150 4256 2144 4256 2029 4256 
L 128 1254 
L 128 1088 
L 1779 1088 
L 1779 457 
C 1779 224 1766 160 1318 160 
L 1197 160 
L 1197 0 
C 1402 0 1747 0 1965 0 
C 2182 0 2528 0 2733 0 
L 2733 160 
L 2611 160 
C 2163 160 2150 224 2150 457 
L 2150 1088 
L 2803 1088 
L 2803 1254 
L 2150 1254 
L 2150 4122 
z
M 1798 3703 
L 1798 1254 
L 256 1254 
L 1798 3703 
z
" transform="scale(0.015625)"/>
      </defs>
      <use xlink:href="#CMSY10-6a" transform="scale(0.996264)"/>
      <use xlink:href="#CMMI12-55" transform="translate(27.674085 0) scale(0.996264)"/>
      <use xlink:href="#CMSY10-6a" transform="translate(104.332858 0) scale(0.996264)"/>
      <use xlink:href="#CMR17-3d" transform="translate(159.680951 0) scale(0.996264)"/>
      <use xlink:href="#CMR17-34" transform="translate(259.069748 0) scale(0.996264)"/>
      <use xlink:href="#CMMI12-3a" transform="translate(304.760225 0) scale(0.996264)"/>
      <use xlink:href="#CMR17-30" transform="translate(331.857402 0) scale(0.996264)"/>
     </g>
    </g>
    <g id="line2d_15">
     <path d="M 223.2 138.784626 
L 235.2 138.784626 
L 247.2 138.784626 
" style="fill: none; stroke: #2ca02c; stroke-width: 1.5; stroke-linecap: square"/>
    </g>
    <g id="text_10">
     <!-- \  -->
     <g transform="translate(256.8 142.984626) scale(0.12 -0.12)"/>
    </g>
    <g id="line2d_16">
     <path d="M 223.2 156.075598 
L 235.2 156.075598 
L 247.2 156.075598 
" style="fill: none; stroke-dasharray: 5.55,2.4; stroke-dashoffset: 0; stroke: #2ca02c; stroke-width: 1.5"/>
    </g>
    <g id="text_11">
     <!-- $|U|=8.0$ -->
     <g transform="translate(256.8 160.275598) scale(0.12 -0.12)">
      <defs>
       <path id="CMR17-38" d="M 1741 2264 
C 2144 2467 2554 2773 2554 3263 
C 2554 3841 1990 4179 1472 4179 
C 890 4179 378 3759 378 3180 
C 378 3021 416 2747 666 2505 
C 730 2442 998 2251 1171 2130 
C 883 1983 211 1634 211 934 
C 211 279 838 -128 1459 -128 
C 2144 -128 2720 362 2720 1010 
C 2720 1590 2330 1857 2074 2029 
L 1741 2264 
z
M 902 2822 
C 851 2854 595 3051 595 3351 
C 595 3739 998 4032 1459 4032 
C 1965 4032 2336 3676 2336 3262 
C 2336 2669 1670 2331 1638 2331 
C 1632 2331 1626 2331 1574 2370 
L 902 2822 
z
M 2080 1519 
C 2176 1449 2483 1240 2483 851 
C 2483 381 2010 25 1472 25 
C 890 25 448 438 448 940 
C 448 1443 838 1862 1280 2060 
L 2080 1519 
z
" transform="scale(0.015625)"/>
      </defs>
      <use xlink:href="#CMSY10-6a" transform="scale(0.996264)"/>
      <use xlink:href="#CMMI12-55" transform="translate(27.674085 0) scale(0.996264)"/>
      <use xlink:href="#CMSY10-6a" transform="translate(104.332858 0) scale(0.996264)"/>
      <use xlink:href="#CMR17-3d" transform="translate(159.680951 0) scale(0.996264)"/>
      <use xlink:href="#CMR17-38" transform="translate(259.069748 0) scale(0.996264)"/>
      <use xlink:href="#CMMI12-3a" transform="translate(304.760225 0) scale(0.996264)"/>
      <use xlink:href="#CMR17-30" transform="translate(331.857402 0) scale(0.996264)"/>
     </g>
    </g>
   </g>
  </g>
  <g id="axes_2">
   <g id="patch_7">
    <path d="M 45 448.56 
L 324 448.56 
L 324 259.252683 
L 45 259.252683 
z
" style="fill: #ffffff"/>
   </g>
   <g id="PolyCollection_7">
    <defs>
     <path id="m54297a1293" d="M 57.681818 -64.044878 
L 57.681818 -64.044878 
L 61.644886 -64.044879 
L 65.607955 -64.044892 
L 69.571023 -64.044995 
L 73.534091 -64.04561 
L 77.497159 -64.04853 
L 81.460227 -64.059992 
L 85.423295 -64.098246 
L 89.386364 -64.208963 
L 93.349432 -64.491079 
L 97.3125 -65.131415 
L 101.275568 -66.438269 
L 105.238636 -68.854813 
L 109.201705 -72.929024 
L 113.164773 -79.224904 
L 117.127841 -88.181825 
L 121.090909 -99.957456 
L 125.053977 -114.309867 
L 129.017045 -130.571784 
L 132.980114 -147.741352 
L 136.943182 -164.671038 
L 140.90625 -180.299104 
L 144.869318 -193.851352 
L 148.832386 -204.947899 
L 152.795455 -213.579903 
L 156.758523 -219.961937 
L 160.721591 -224.289567 
L 164.684659 -226.679951 
L 168.647727 -227.606466 
L 172.610795 -227.688336 
L 176.573864 -227.398155 
L 180.536932 -227.078463 
L 184.5 -226.946719 
L 188.463068 -227.078463 
L 192.426136 -227.398155 
L 196.389205 -227.688336 
L 200.352273 -227.606466 
L 204.315341 -226.679951 
L 208.278409 -224.289567 
L 212.241477 -219.961937 
L 216.204545 -213.579903 
L 220.167614 -204.947899 
L 224.130682 -193.851352 
L 228.09375 -180.299104 
L 232.056818 -164.671038 
L 236.019886 -147.741352 
L 239.982955 -130.571784 
L 243.946023 -114.309867 
L 247.909091 -99.957456 
L 251.872159 -88.181825 
L 255.835227 -79.224904 
L 259.798295 -72.929024 
L 263.761364 -68.854813 
L 267.724432 -66.438269 
L 271.6875 -65.131415 
L 275.650568 -64.491079 
L 279.613636 -64.208963 
L 283.576705 -64.098246 
L 287.539773 -64.059992 
L 291.502841 -64.04853 
L 295.465909 -64.04561 
L 299.428977 -64.044995 
L 303.392045 -64.044892 
L 307.355114 -64.044879 
L 311.318182 -64.044878 
L 311.318182 -64.044878 
L 311.318182 -64.044878 
L 307.355114 -64.044879 
L 303.392045 -64.044894 
L 299.428977 -64.045011 
L 295.465909 -64.045709 
L 291.502841 -64.049003 
L 287.539773 -64.061872 
L 283.576705 -64.104617 
L 279.613636 -64.227737 
L 275.650568 -64.539891 
L 271.6875 -65.244673 
L 267.724432 -66.674939 
L 263.761364 -69.303552 
L 259.798295 -73.705865 
L 255.835227 -80.459355 
L 251.872159 -89.990903 
L 247.909091 -102.413224 
L 243.946023 -117.411819 
L 239.982955 -134.237125 
L 236.019886 -151.820719 
L 232.056818 -168.983902 
L 228.09375 -184.667475 
L 224.130682 -198.106553 
L 220.167614 -208.909283 
L 216.204545 -217.049913 
L 212.241477 -222.825811 
L 208.278409 -226.847069 
L 204.315341 -229.873227 
L 200.352273 -232.236727 
L 196.389205 -233.992822 
L 192.426136 -235.200867 
L 188.463068 -235.908919 
L 184.5 -236.142439 
L 180.536932 -235.908919 
L 176.573864 -235.200867 
L 172.610795 -233.992822 
L 168.647727 -232.236727 
L 164.684659 -229.873227 
L 160.721591 -226.847069 
L 156.758523 -222.825811 
L 152.795455 -217.049913 
L 148.832386 -208.909283 
L 144.869318 -198.106553 
L 140.90625 -184.667475 
L 136.943182 -168.983902 
L 132.980114 -151.820719 
L 129.017045 -134.237125 
L 125.053977 -117.411819 
L 121.090909 -102.413224 
L 117.127841 -89.990903 
L 113.164773 -80.459355 
L 109.201705 -73.705865 
L 105.238636 -69.303552 
L 101.275568 -66.674939 
L 97.3125 -65.244673 
L 93.349432 -64.539891 
L 89.386364 -64.227737 
L 85.423295 -64.104617 
L 81.460227 -64.061872 
L 77.497159 -64.049003 
L 73.534091 -64.045709 
L 69.571023 -64.045011 
L 65.607955 -64.044894 
L 61.644886 -64.044879 
L 57.681818 -64.044878 
z
" style="stroke: #1f77b4; stroke-opacity: 0.5"/>
    </defs>
    <g clip-path="url(#pe8289a7973)">
     <use xlink:href="#m54297a1293" x="0" y="504" style="fill: #1f77b4; fill-opacity: 0.5; stroke: #1f77b4; stroke-opacity: 0.5"/>
    </g>
   </g>
   <g id="PolyCollection_8">
    <defs>
     <path id="m9834ad8145" d="M 57.681818 -65.742109 
L 57.681818 -64.837234 
L 61.644886 -67.718757 
L 65.607955 -74.297808 
L 69.571023 -84.0663 
L 73.534091 -95.917099 
L 77.497159 -106.630891 
L 81.460227 -116.091429 
L 85.423295 -121.054245 
L 89.386364 -126.410641 
L 93.349432 -130.73884 
L 97.3125 -135.429244 
L 101.275568 -136.011447 
L 105.238636 -136.399155 
L 109.201705 -135.5969 
L 113.164773 -137.223971 
L 117.127841 -138.130982 
L 121.090909 -138.448444 
L 125.053977 -136.63574 
L 129.017045 -135.293913 
L 132.980114 -134.711949 
L 136.943182 -134.956834 
L 140.90625 -134.956714 
L 144.869318 -134.567281 
L 148.832386 -135.531143 
L 152.795455 -138.774701 
L 156.758523 -143.693086 
L 160.721591 -147.693466 
L 164.684659 -149.610099 
L 168.647727 -147.7019 
L 172.610795 -144.556849 
L 176.573864 -144.279379 
L 180.536932 -145.211653 
L 184.5 -146.075897 
L 188.463068 -145.211653 
L 192.426136 -144.279379 
L 196.389205 -144.556849 
L 200.352273 -147.7019 
L 204.315341 -149.610099 
L 208.278409 -147.693466 
L 212.241477 -143.693086 
L 216.204545 -138.774701 
L 220.167614 -135.531143 
L 224.130682 -134.567281 
L 228.09375 -134.956714 
L 232.056818 -134.956834 
L 236.019886 -134.711949 
L 239.982955 -135.293913 
L 243.946023 -136.63574 
L 247.909091 -138.448444 
L 251.872159 -138.130982 
L 255.835227 -137.223971 
L 259.798295 -135.5969 
L 263.761364 -136.399155 
L 267.724432 -136.011447 
L 271.6875 -135.429244 
L 275.650568 -130.73884 
L 279.613636 -126.410641 
L 283.576705 -121.054245 
L 287.539773 -116.091429 
L 291.502841 -106.630891 
L 295.465909 -95.917099 
L 299.428977 -84.0663 
L 303.392045 -74.297808 
L 307.355114 -67.718757 
L 311.318182 -64.837234 
L 311.318182 -65.742109 
L 311.318182 -65.742109 
L 307.355114 -69.475657 
L 303.392045 -77.561396 
L 299.428977 -88.236793 
L 295.465909 -101.258968 
L 291.502841 -112.114905 
L 287.539773 -121.804593 
L 283.576705 -129.087869 
L 279.613636 -135.457486 
L 275.650568 -138.739239 
L 271.6875 -141.803682 
L 267.724432 -142.482885 
L 263.761364 -143.075814 
L 259.798295 -142.252097 
L 255.835227 -143.824465 
L 251.872159 -144.989088 
L 247.909091 -146.483258 
L 243.946023 -146.04788 
L 239.982955 -146.041582 
L 236.019886 -146.55032 
L 232.056818 -147.667012 
L 228.09375 -147.885025 
L 224.130682 -147.118264 
L 220.167614 -147.664875 
L 216.204545 -150.200146 
L 212.241477 -154.309688 
L 208.278409 -156.852331 
L 204.315341 -156.239828 
L 200.352273 -155.488795 
L 196.389205 -156.154605 
L 192.426136 -158.767335 
L 188.463068 -161.725853 
L 184.5 -163.645741 
L 180.536932 -161.725853 
L 176.573864 -158.767335 
L 172.610795 -156.154605 
L 168.647727 -155.488795 
L 164.684659 -156.239828 
L 160.721591 -156.852331 
L 156.758523 -154.309688 
L 152.795455 -150.200146 
L 148.832386 -147.664875 
L 144.869318 -147.118264 
L 140.90625 -147.885025 
L 136.943182 -147.667012 
L 132.980114 -146.55032 
L 129.017045 -146.041582 
L 125.053977 -146.04788 
L 121.090909 -146.483258 
L 117.127841 -144.989088 
L 113.164773 -143.824465 
L 109.201705 -142.252097 
L 105.238636 -143.075814 
L 101.275568 -142.482885 
L 97.3125 -141.803682 
L 93.349432 -138.739239 
L 89.386364 -135.457486 
L 85.423295 -129.087869 
L 81.460227 -121.804593 
L 77.497159 -112.114905 
L 73.534091 -101.258968 
L 69.571023 -88.236793 
L 65.607955 -77.561396 
L 61.644886 -69.475657 
L 57.681818 -65.742109 
z
" style="stroke: #ff7f0e; stroke-opacity: 0.5"/>
    </defs>
    <g clip-path="url(#pe8289a7973)">
     <use xlink:href="#m9834ad8145" x="0" y="504" style="fill: #ff7f0e; fill-opacity: 0.5; stroke: #ff7f0e; stroke-opacity: 0.5"/>
    </g>
   </g>
   <g id="PolyCollection_9">
    <defs>
     <path id="m8bf1b13a11" d="M 57.681818 -95.616736 
L 57.681818 -90.873093 
L 61.644886 -92.480438 
L 65.607955 -115.283563 
L 69.571023 -110.006011 
L 73.534091 -133.608487 
L 77.497159 -120.27518 
L 81.460227 -136.814888 
L 85.423295 -123.134253 
L 89.386364 -134.669864 
L 93.349432 -122.084203 
L 97.3125 -137.390837 
L 101.275568 -124.577767 
L 105.238636 -142.162874 
L 109.201705 -125.73769 
L 113.164773 -135.398125 
L 117.127841 -122.063086 
L 121.090909 -137.829136 
L 125.053977 -124.952178 
L 129.017045 -138.610639 
L 132.980114 -125.126842 
L 136.943182 -139.827791 
L 140.90625 -124.007828 
L 144.869318 -140.000815 
L 148.832386 -119.738075 
L 152.795455 -133.074781 
L 156.758523 -119.617227 
L 160.721591 -142.767836 
L 164.684659 -121.867296 
L 168.647727 -135.611881 
L 172.610795 -112.809386 
L 176.573864 -125.320883 
L 180.536932 -120.93819 
L 184.5 -144.185043 
L 188.463068 -120.93819 
L 192.426136 -125.320883 
L 196.389205 -112.809386 
L 200.352273 -135.611881 
L 204.315341 -121.867296 
L 208.278409 -142.767836 
L 212.241477 -119.617227 
L 216.204545 -133.074781 
L 220.167614 -119.738075 
L 224.130682 -140.000815 
L 228.09375 -124.007828 
L 232.056818 -139.827791 
L 236.019886 -125.126842 
L 239.982955 -138.610639 
L 243.946023 -124.952178 
L 247.909091 -137.829136 
L 251.872159 -122.063086 
L 255.835227 -135.398125 
L 259.798295 -125.73769 
L 263.761364 -142.162874 
L 267.724432 -124.577767 
L 271.6875 -137.390837 
L 275.650568 -122.084203 
L 279.613636 -134.669864 
L 283.576705 -123.134253 
L 287.539773 -136.814888 
L 291.502841 -120.27518 
L 295.465909 -133.608487 
L 299.428977 -110.006011 
L 303.392045 -115.283563 
L 307.355114 -92.480438 
L 311.318182 -90.873093 
L 311.318182 -95.616736 
L 311.318182 -95.616736 
L 307.355114 -96.910707 
L 303.392045 -123.123494 
L 299.428977 -117.619496 
L 295.465909 -140.002878 
L 291.502841 -128.351542 
L 287.539773 -146.476318 
L 283.576705 -132.057171 
L 279.613636 -143.632505 
L 275.650568 -130.66147 
L 271.6875 -147.436437 
L 267.724432 -133.480381 
L 263.761364 -152.029602 
L 259.798295 -135.640479 
L 255.835227 -146.32269 
L 251.872159 -131.529635 
L 247.909091 -150.649135 
L 243.946023 -135.818721 
L 239.982955 -148.71147 
L 236.019886 -137.195179 
L 232.056818 -150.233416 
L 228.09375 -135.554158 
L 224.130682 -150.63641 
L 220.167614 -131.141964 
L 216.204545 -144.384997 
L 212.241477 -130.272114 
L 208.278409 -153.266686 
L 204.315341 -134.973045 
L 200.352273 -147.078542 
L 196.389205 -126.16413 
L 192.426136 -138.707945 
L 188.463068 -133.886047 
L 184.5 -161.647186 
L 180.536932 -133.886047 
L 176.573864 -138.707945 
L 172.610795 -126.16413 
L 168.647727 -147.078542 
L 164.684659 -134.973045 
L 160.721591 -153.266686 
L 156.758523 -130.272114 
L 152.795455 -144.384997 
L 148.832386 -131.141964 
L 144.869318 -150.63641 
L 140.90625 -135.554158 
L 136.943182 -150.233416 
L 132.980114 -137.195179 
L 129.017045 -148.71147 
L 125.053977 -135.818721 
L 121.090909 -150.649135 
L 117.127841 -131.529635 
L 113.164773 -146.32269 
L 109.201705 -135.640479 
L 105.238636 -152.029602 
L 101.275568 -133.480381 
L 97.3125 -147.436437 
L 93.349432 -130.66147 
L 89.386364 -143.632505 
L 85.423295 -132.057171 
L 81.460227 -146.476318 
L 77.497159 -128.351542 
L 73.534091 -140.002878 
L 69.571023 -117.619496 
L 65.607955 -123.123494 
L 61.644886 -96.910707 
L 57.681818 -95.616736 
z
" style="stroke: #2ca02c; stroke-opacity: 0.5"/>
    </defs>
    <g clip-path="url(#pe8289a7973)">
     <use xlink:href="#m8bf1b13a11" x="0" y="504" style="fill: #2ca02c; fill-opacity: 0.5; stroke: #2ca02c; stroke-opacity: 0.5"/>
    </g>
   </g>
   <g id="matplotlib.axis_3">
    <g id="xtick_1">
     <g id="line2d_17">
      <defs>
       <path id="m1617b8f731" d="M 0 0 
L 0 3.5 
" style="stroke: #000000; stroke-width: 0.8"/>
      </defs>
      <g>
       <use xlink:href="#m1617b8f731" x="57.681818" y="448.56" style="stroke: #000000; stroke-width: 0.8"/>
      </g>
     </g>
     <g id="text_12">
      <!-- $\mathdefault{0}$ -->
      <g transform="translate(54.755323 463.86218) scale(0.12 -0.12)">
       <use xlink:href="#CMR17-30" transform="scale(0.996264)"/>
      </g>
     </g>
    </g>
    <g id="xtick_2">
     <g id="line2d_18">
      <g>
       <use xlink:href="#m1617b8f731" x="121.090909" y="448.56" style="stroke: #000000; stroke-width: 0.8"/>
      </g>
     </g>
     <g id="text_13">
      <!-- $\mathdefault{16}$ -->
      <g transform="translate(115.237919 463.86218) scale(0.12 -0.12)">
       <defs>
        <path id="CMR17-36" d="M 678 2176 
C 678 3690 1395 4032 1811 4032 
C 1946 4032 2272 4009 2400 3776 
C 2298 3776 2106 3776 2106 3553 
C 2106 3381 2246 3323 2336 3323 
C 2394 3323 2566 3348 2566 3560 
C 2566 3954 2246 4179 1805 4179 
C 1043 4179 243 3390 243 1984 
C 243 253 966 -128 1478 -128 
C 2099 -128 2688 427 2688 1283 
C 2688 2081 2170 2662 1517 2662 
C 1126 2662 838 2407 678 1960 
L 678 2176 
z
M 1478 25 
C 691 25 691 1200 691 1436 
C 691 1896 909 2560 1504 2560 
C 1613 2560 1926 2560 2138 2120 
C 2253 1870 2253 1609 2253 1289 
C 2253 944 2253 690 2118 434 
C 1978 171 1773 25 1478 25 
z
" transform="scale(0.015625)"/>
       </defs>
       <use xlink:href="#CMR17-31" transform="scale(0.996264)"/>
       <use xlink:href="#CMR17-36" transform="translate(45.690477 0) scale(0.996264)"/>
      </g>
     </g>
    </g>
    <g id="xtick_3">
     <g id="line2d_19">
      <g>
       <use xlink:href="#m1617b8f731" x="184.5" y="448.56" style="stroke: #000000; stroke-width: 0.8"/>
      </g>
     </g>
     <g id="text_14">
      <!-- $\mathdefault{32}$ -->
      <g transform="translate(178.64701 463.86218) scale(0.12 -0.12)">
       <defs>
        <path id="CMR17-33" d="M 1414 2157 
C 1984 2157 2234 1662 2234 1090 
C 2234 320 1824 25 1453 25 
C 1114 25 563 194 390 693 
C 422 680 454 680 486 680 
C 640 680 755 782 755 948 
C 755 1133 614 1216 486 1216 
C 378 1216 211 1165 211 926 
C 211 335 787 -128 1466 -128 
C 2176 -128 2720 430 2720 1085 
C 2720 1707 2208 2157 1600 2227 
C 2086 2328 2554 2756 2554 3329 
C 2554 3820 2048 4179 1472 4179 
C 890 4179 378 3829 378 3329 
C 378 3110 544 3072 627 3072 
C 762 3072 877 3155 877 3321 
C 877 3486 762 3569 627 3569 
C 602 3569 570 3569 544 3557 
C 730 3959 1235 4032 1459 4032 
C 1683 4032 2106 3925 2106 3320 
C 2106 3143 2080 2828 1862 2550 
C 1670 2304 1453 2304 1242 2284 
C 1210 2284 1062 2269 1037 2269 
C 992 2263 966 2257 966 2208 
C 966 2163 973 2157 1101 2157 
L 1414 2157 
z
" transform="scale(0.015625)"/>
        <path id="CMR17-32" d="M 2669 989 
L 2554 989 
C 2490 536 2438 459 2413 420 
C 2381 369 1920 369 1830 369 
L 602 369 
C 832 619 1280 1072 1824 1597 
C 2214 1967 2669 2402 2669 3035 
C 2669 3790 2067 4224 1395 4224 
C 691 4224 262 3604 262 3030 
C 262 2780 448 2748 525 2748 
C 589 2748 781 2787 781 3010 
C 781 3207 614 3264 525 3264 
C 486 3264 448 3258 422 3245 
C 544 3790 915 4058 1306 4058 
C 1862 4058 2227 3617 2227 3035 
C 2227 2479 1901 2000 1536 1584 
L 262 146 
L 262 0 
L 2515 0 
L 2669 989 
z
" transform="scale(0.015625)"/>
       </defs>
       <use xlink:href="#CMR17-33" transform="scale(0.996264)"/>
       <use xlink:href="#CMR17-32" transform="translate(45.690477 0) scale(0.996264)"/>
      </g>
     </g>
    </g>
    <g id="xtick_4">
     <g id="line2d_20">
      <g>
       <use xlink:href="#m1617b8f731" x="247.909091" y="448.56" style="stroke: #000000; stroke-width: 0.8"/>
      </g>
     </g>
     <g id="text_15">
      <!-- $\mathdefault{48}$ -->
      <g transform="translate(242.056101 463.86218) scale(0.12 -0.12)">
       <use xlink:href="#CMR17-34" transform="scale(0.996264)"/>
       <use xlink:href="#CMR17-38" transform="translate(45.690477 0) scale(0.996264)"/>
      </g>
     </g>
    </g>
    <g id="xtick_5">
     <g id="line2d_21">
      <g>
       <use xlink:href="#m1617b8f731" x="311.318182" y="448.56" style="stroke: #000000; stroke-width: 0.8"/>
      </g>
     </g>
     <g id="text_16">
      <!-- $\mathdefault{64}$ -->
      <g transform="translate(305.465192 463.86218) scale(0.12 -0.12)">
       <use xlink:href="#CMR17-36" transform="scale(0.996264)"/>
       <use xlink:href="#CMR17-34" transform="translate(45.690477 0) scale(0.996264)"/>
      </g>
     </g>
    </g>
    <g id="text_17">
     <!-- $n_A$ -->
     <g transform="translate(177.83471 478.488955) scale(0.12 -0.12)">
      <defs>
       <path id="CMMI12-41" d="M 1088 691 
C 864 314 646 186 339 186 
C 269 180 218 180 218 58 
C 218 24 250 0 294 0 
C 410 0 698 0 813 0 
C 998 0 1203 0 1382 0 
C 1421 0 1498 0 1498 122 
C 1498 180 1446 186 1408 186 
C 1261 186 1139 236 1139 388 
C 1139 476 1178 546 1261 685 
L 1747 1479 
L 3379 1479 
C 3386 1423 3386 1373 3392 1316 
C 3411 1152 3488 495 3488 376 
C 3488 186 3162 186 3059 186 
C 2989 186 2918 186 2918 70 
C 2918 0 2976 0 3014 0 
C 3123 0 3251 0 3360 0 
L 3725 0 
C 4115 0 4397 0 4403 0 
C 4448 0 4518 0 4518 122 
C 4518 186 4461 186 4365 186 
C 4013 186 4006 244 3987 434 
L 3597 4404 
C 3584 4531 3558 4544 3488 4544 
C 3424 4544 3386 4531 3328 4435 
L 1088 691 
z
M 1856 1664 
L 3142 3819 
L 3360 1664 
L 1856 1664 
z
" transform="scale(0.015625)"/>
      </defs>
      <use xlink:href="#CMMI12-6e" transform="scale(0.996264)"/>
      <use xlink:href="#CMMI12-41" transform="translate(58.230047 -14.943915) scale(0.697382)"/>
     </g>
    </g>
   </g>
   <g id="matplotlib.axis_4">
    <g id="ytick_5">
     <g id="line2d_22">
      <g>
       <use xlink:href="#m1b0c108be2" x="45" y="439.955122" style="stroke: #000000; stroke-width: 0.8"/>
      </g>
     </g>
     <g id="text_18">
      <!-- $\mathdefault{0.00}$ -->
      <g transform="translate(17.189368 444.106212) scale(0.12 -0.12)">
       <use xlink:href="#CMR17-30" transform="scale(0.996264)"/>
       <use xlink:href="#CMMI12-3a" transform="translate(45.690477 0) scale(0.996264)"/>
       <use xlink:href="#CMR17-30" transform="translate(72.787654 0) scale(0.996264)"/>
       <use xlink:href="#CMR17-30" transform="translate(118.478131 0) scale(0.996264)"/>
      </g>
     </g>
    </g>
    <g id="ytick_6">
     <g id="line2d_23">
      <g>
       <use xlink:href="#m1b0c108be2" x="45" y="396.272865" style="stroke: #000000; stroke-width: 0.8"/>
      </g>
     </g>
     <g id="text_19">
      <!-- $\mathdefault{0.01}$ -->
      <g transform="translate(17.189368 400.423955) scale(0.12 -0.12)">
       <use xlink:href="#CMR17-30" transform="scale(0.996264)"/>
       <use xlink:href="#CMMI12-3a" transform="translate(45.690477 0) scale(0.996264)"/>
       <use xlink:href="#CMR17-30" transform="translate(72.787654 0) scale(0.996264)"/>
       <use xlink:href="#CMR17-31" transform="translate(118.478131 0) scale(0.996264)"/>
      </g>
     </g>
    </g>
    <g id="ytick_7">
     <g id="line2d_24">
      <g>
       <use xlink:href="#m1b0c108be2" x="45" y="352.590608" style="stroke: #000000; stroke-width: 0.8"/>
      </g>
     </g>
     <g id="text_20">
      <!-- $\mathdefault{0.02}$ -->
      <g transform="translate(17.189368 356.741698) scale(0.12 -0.12)">
       <use xlink:href="#CMR17-30" transform="scale(0.996264)"/>
       <use xlink:href="#CMMI12-3a" transform="translate(45.690477 0) scale(0.996264)"/>
       <use xlink:href="#CMR17-30" transform="translate(72.787654 0) scale(0.996264)"/>
       <use xlink:href="#CMR17-32" transform="translate(118.478131 0) scale(0.996264)"/>
      </g>
     </g>
    </g>
    <g id="ytick_8">
     <g id="line2d_25">
      <g>
       <use xlink:href="#m1b0c108be2" x="45" y="308.908351" style="stroke: #000000; stroke-width: 0.8"/>
      </g>
     </g>
     <g id="text_21">
      <!-- $\mathdefault{0.03}$ -->
      <g transform="translate(17.189368 313.059441) scale(0.12 -0.12)">
       <use xlink:href="#CMR17-30" transform="scale(0.996264)"/>
       <use xlink:href="#CMMI12-3a" transform="translate(45.690477 0) scale(0.996264)"/>
       <use xlink:href="#CMR17-30" transform="translate(72.787654 0) scale(0.996264)"/>
       <use xlink:href="#CMR17-33" transform="translate(118.478131 0) scale(0.996264)"/>
      </g>
     </g>
    </g>
    <g id="ytick_9">
     <g id="line2d_26">
      <g>
       <use xlink:href="#m1b0c108be2" x="45" y="265.226094" style="stroke: #000000; stroke-width: 0.8"/>
      </g>
     </g>
     <g id="text_22">
      <!-- $\mathdefault{0.04}$ -->
      <g transform="translate(17.189368 269.377184) scale(0.12 -0.12)">
       <use xlink:href="#CMR17-30" transform="scale(0.996264)"/>
       <use xlink:href="#CMMI12-3a" transform="translate(45.690477 0) scale(0.996264)"/>
       <use xlink:href="#CMR17-30" transform="translate(72.787654 0) scale(0.996264)"/>
       <use xlink:href="#CMR17-34" transform="translate(118.478131 0) scale(0.996264)"/>
      </g>
     </g>
    </g>
    <g id="text_23">
     <!-- $P_{n,2}$ -->
     <g transform="translate(9.846359 363.54133) rotate(-90) scale(0.12 -0.12)">
      <use xlink:href="#CMMI12-50" transform="scale(0.996264)"/>
      <use xlink:href="#CMMI12-6e" transform="translate(62.877232 -14.943915) scale(0.697382)"/>
      <use xlink:href="#CMMI12-3b" transform="translate(103.638075 -14.943915) scale(0.697382)"/>
      <use xlink:href="#CMR17-32" transform="translate(122.606008 -14.943915) scale(0.697382)"/>
     </g>
    </g>
   </g>
   <g id="line2d_27">
    <path d="M 57.681818 439.955122 
L 61.644886 439.955121 
L 65.607955 439.955107 
L 69.571023 439.954997 
L 73.534091 439.95434 
L 77.497159 439.951234 
L 81.460227 439.939068 
L 85.423295 439.898569 
L 89.386364 439.78165 
L 93.349432 439.484515 
L 97.3125 438.811956 
L 101.275568 437.443396 
L 105.238636 434.920817 
L 109.201705 430.682556 
L 113.164773 424.15787 
L 117.127841 414.913636 
L 121.090909 402.81466 
L 125.053977 388.139157 
L 129.017045 371.595545 
L 132.980114 354.218964 
L 136.943182 337.17253 
L 140.90625 321.516711 
L 144.869318 308.021047 
L 148.832386 297.071409 
L 152.795455 288.685092 
L 156.758523 282.606126 
L 160.721591 278.431682 
L 164.684659 275.723411 
L 168.647727 274.078403 
L 172.610795 273.159421 
L 176.573864 272.700489 
L 180.536932 272.506309 
L 184.5 272.455421 
L 188.463068 272.506309 
L 192.426136 272.700489 
L 196.389205 273.159421 
L 200.352273 274.078403 
L 204.315341 275.723411 
L 208.278409 278.431682 
L 212.241477 282.606126 
L 216.204545 288.685092 
L 220.167614 297.071409 
L 224.130682 308.021047 
L 228.09375 321.516711 
L 232.056818 337.17253 
L 236.019886 354.218964 
L 239.982955 371.595545 
L 243.946023 388.139157 
L 247.909091 402.81466 
L 251.872159 414.913636 
L 255.835227 424.15787 
L 259.798295 430.682556 
L 263.761364 434.920817 
L 267.724432 437.443396 
L 271.6875 438.811956 
L 275.650568 439.484515 
L 279.613636 439.78165 
L 283.576705 439.898569 
L 287.539773 439.939068 
L 291.502841 439.951234 
L 295.465909 439.95434 
L 299.428977 439.954997 
L 303.392045 439.955107 
L 307.355114 439.955121 
L 311.318182 439.955122 
" clip-path="url(#pe8289a7973)" style="fill: none; stroke: #1f77b4; stroke-width: 1.5; stroke-linecap: square"/>
   </g>
   <g id="line2d_28">
    <path d="M 57.681818 438.710329 
L 61.644886 435.402793 
L 65.607955 428.070398 
L 69.571023 417.848453 
L 73.534091 405.411967 
L 77.497159 394.627102 
L 81.460227 385.051989 
L 85.423295 378.928943 
L 89.386364 373.065936 
L 93.349432 369.260961 
L 97.3125 365.383537 
L 101.275568 364.752834 
L 105.238636 364.262516 
L 109.201705 365.075502 
L 113.164773 363.475782 
L 117.127841 362.439965 
L 121.090909 361.534149 
L 125.053977 362.65819 
L 129.017045 363.332252 
L 132.980114 363.368865 
L 136.943182 362.688077 
L 140.90625 362.579131 
L 144.869318 363.157228 
L 148.832386 362.401991 
L 152.795455 359.512577 
L 156.758523 354.998613 
L 160.721591 351.727101 
L 164.684659 351.075037 
L 168.647727 352.404652 
L 172.610795 353.644273 
L 176.573864 352.476643 
L 180.536932 350.531247 
L 184.5 349.139181 
L 188.463068 350.531247 
L 192.426136 352.476643 
L 196.389205 353.644273 
L 200.352273 352.404652 
L 204.315341 351.075037 
L 208.278409 351.727101 
L 212.241477 354.998613 
L 216.204545 359.512577 
L 220.167614 362.401991 
L 224.130682 363.157228 
L 228.09375 362.579131 
L 232.056818 362.688077 
L 236.019886 363.368865 
L 239.982955 363.332252 
L 243.946023 362.65819 
L 247.909091 361.534149 
L 251.872159 362.439965 
L 255.835227 363.475782 
L 259.798295 365.075502 
L 263.761364 364.262516 
L 267.724432 364.752834 
L 271.6875 365.383537 
L 275.650568 369.260961 
L 279.613636 373.065936 
L 283.576705 378.928943 
L 287.539773 385.051989 
L 291.502841 394.627102 
L 295.465909 405.411967 
L 299.428977 417.848453 
L 303.392045 428.070398 
L 307.355114 435.402793 
L 311.318182 438.710329 
" clip-path="url(#pe8289a7973)" style="fill: none; stroke: #ff7f0e; stroke-width: 1.5; stroke-linecap: square"/>
   </g>
   <g id="line2d_29">
    <path d="M 57.681818 410.755086 
L 61.644886 409.304427 
L 65.607955 384.796471 
L 69.571023 390.187247 
L 73.534091 367.194318 
L 77.497159 379.686639 
L 81.460227 362.354397 
L 85.423295 376.404288 
L 89.386364 364.848815 
L 93.349432 377.627164 
L 97.3125 361.586363 
L 101.275568 374.970926 
L 105.238636 356.903762 
L 109.201705 373.310915 
L 113.164773 363.139593 
L 117.127841 377.20364 
L 121.090909 359.760864 
L 125.053977 373.61455 
L 129.017045 360.338946 
L 132.980114 372.838989 
L 136.943182 358.969396 
L 140.90625 374.219007 
L 144.869318 358.681388 
L 148.832386 378.55998 
L 152.795455 365.270111 
L 156.758523 379.05533 
L 160.721591 355.982739 
L 164.684659 375.579829 
L 168.647727 362.654789 
L 172.610795 384.513242 
L 176.573864 371.985586 
L 180.536932 376.587882 
L 184.5 351.083886 
L 188.463068 376.587882 
L 192.426136 371.985586 
L 196.389205 384.513242 
L 200.352273 362.654789 
L 204.315341 375.579829 
L 208.278409 355.982739 
L 212.241477 379.05533 
L 216.204545 365.270111 
L 220.167614 378.55998 
L 224.130682 358.681388 
L 228.09375 374.219007 
L 232.056818 358.969396 
L 236.019886 372.838989 
L 239.982955 360.338946 
L 243.946023 373.61455 
L 247.909091 359.760864 
L 251.872159 377.20364 
L 255.835227 363.139593 
L 259.798295 373.310915 
L 263.761364 356.903762 
L 267.724432 374.970926 
L 271.6875 361.586363 
L 275.650568 377.627164 
L 279.613636 364.848815 
L 283.576705 376.404288 
L 287.539773 362.354397 
L 291.502841 379.686639 
L 295.465909 367.194318 
L 299.428977 390.187247 
L 303.392045 384.796471 
L 307.355114 409.304427 
L 311.318182 410.755086 
" clip-path="url(#pe8289a7973)" style="fill: none; stroke: #2ca02c; stroke-width: 1.5; stroke-linecap: square"/>
   </g>
   <g id="patch_8">
    <path d="M 45 448.56 
L 45 259.252683 
" style="fill: none; stroke: #000000; stroke-width: 0.8; stroke-linejoin: miter; stroke-linecap: square"/>
   </g>
   <g id="patch_9">
    <path d="M 324 448.56 
L 324 259.252683 
" style="fill: none; stroke: #000000; stroke-width: 0.8; stroke-linejoin: miter; stroke-linecap: square"/>
   </g>
   <g id="patch_10">
    <path d="M 45 448.56 
L 324 448.56 
" style="fill: none; stroke: #000000; stroke-width: 0.8; stroke-linejoin: miter; stroke-linecap: square"/>
   </g>
   <g id="patch_11">
    <path d="M 45 259.252683 
L 324 259.252683 
" style="fill: none; stroke: #000000; stroke-width: 0.8; stroke-linejoin: miter; stroke-linecap: square"/>
   </g>
  </g>
 </g>
 <defs>
  <clipPath id="pcb63d8ead2">
   <rect x="45" y="60.48" width="279" height="189.307317"/>
  </clipPath>
  <clipPath id="pe8289a7973">
   <rect x="45" y="259.252683" width="279" height="189.307317"/>
  </clipPath>
 </defs>
</svg>
