<?xml version="1.0" encoding="utf-8" standalone="no"?>
<!DOCTYPE svg PUBLIC "-//W3C//DTD SVG 1.1//EN"
  "http://www.w3.org/Graphics/SVG/1.1/DTD/svg11.dtd">
<svg xmlns:xlink="http://www.w3.org/1999/xlink" width="328.175993pt" height="424.484641pt" viewBox="0 0 328.175993 424.484641" xmlns="http://www.w3.org/2000/svg" version="1.1">
 <metadata>
  <rdf:RDF xmlns:dc="http://purl.org/dc/elements/1.1/" xmlns:cc="http://creativecommons.org/ns#" xmlns:rdf="http://www.w3.org/1999/02/22-rdf-syntax-ns#">
   <cc:Work>
    <dc:type rdf:resource="http://purl.org/dc/dcmitype/StillImage"/>
    <dc:date>2023-10-26T16:20:17.943153</dc:date>
    <dc:format>image/svg+xml</dc:format>
    <dc:creator>
     <cc:Agent>
      <dc:title>Matplotlib v3.8.0, https://matplotlib.org/</dc:title>
     </cc:Agent>
    </dc:creator>
   </cc:Work>
  </rdf:RDF>
 </metadata>
 <defs>
  <style type="text/css">*{stroke-linejoin: round; stroke-linecap: butt}</style>
 </defs>
 <g id="figure_1">
  <g id="patch_1">
   <path d="M 0 424.484641 
L 328.175993 424.484641 
L 328.175993 0 
L 0 0 
z
" style="fill: #ffffff"/>
  </g>
  <g id="axes_1">
   <g id="patch_2">
    <path d="M 43.323003 193.458407 
L 322.323003 193.458407 
L 322.323003 4.15109 
L 43.323003 4.15109 
z
" style="fill: #ffffff"/>
   </g>
   <g id="PolyCollection_1">
    <defs>
     <path id="m5a2a3d9a9a" d="M 43.323003 -231.026234 
L 43.323003 -231.026234 
L 47.682378 -231.026234 
L 52.041753 -231.026234 
L 56.401128 -231.026234 
L 60.760503 -231.026237 
L 65.119878 -231.026251 
L 69.479253 -231.026329 
L 73.838628 -231.026679 
L 78.198003 -231.028045 
L 82.557378 -231.032707 
L 86.916753 -231.046811 
L 91.276128 -231.084977 
L 95.635503 -231.178089 
L 99.994878 -231.384194 
L 104.354253 -231.800364 
L 108.713628 -232.570469 
L 113.073003 -233.88159 
L 117.432378 -235.942451 
L 121.791753 -238.942247 
L 126.151128 -242.996947 
L 130.510503 -248.098863 
L 134.869878 -254.088878 
L 139.229253 -260.665682 
L 143.588628 -267.433598 
L 147.948003 -273.975586 
L 152.307378 -279.927701 
L 156.666753 -285.027449 
L 161.026128 -289.093096 
L 165.385503 -292.044855 
L 169.744878 -294.058241 
L 174.104253 -295.326317 
L 178.463628 -296.011306 
L 182.823003 -296.226124 
L 187.182378 -296.011306 
L 191.541753 -295.326317 
L 195.901128 -294.058241 
L 200.260503 -292.044855 
L 204.619878 -289.093096 
L 208.979253 -285.027449 
L 213.338628 -279.927701 
L 217.698003 -273.975586 
L 222.057378 -267.433598 
L 226.416753 -260.665682 
L 230.776128 -254.088878 
L 235.135503 -248.098863 
L 239.494878 -242.996947 
L 243.854253 -238.942247 
L 248.213628 -235.942451 
L 252.573003 -233.88159 
L 256.932378 -232.570469 
L 261.291753 -231.800364 
L 265.651128 -231.384194 
L 270.010503 -231.178089 
L 274.369878 -231.084977 
L 278.729253 -231.046811 
L 283.088628 -231.032707 
L 287.448003 -231.028045 
L 291.807378 -231.026679 
L 296.166753 -231.026329 
L 300.526128 -231.026251 
L 304.885503 -231.026237 
L 309.244878 -231.026234 
L 313.604253 -231.026234 
L 317.963628 -231.026234 
L 322.323003 -231.026234 
L 322.323003 -231.026234 
L 322.323003 -231.026234 
L 317.963628 -231.026234 
L 313.604253 -231.026234 
L 309.244878 -231.026234 
L 304.885503 -231.026237 
L 300.526128 -231.026252 
L 296.166753 -231.026335 
L 291.807378 -231.026706 
L 287.448003 -231.02815 
L 283.088628 -231.033065 
L 278.729253 -231.047884 
L 274.369878 -231.087859 
L 270.010503 -231.185078 
L 265.651128 -231.399614 
L 261.291753 -231.831533 
L 256.932378 -232.628514 
L 252.573003 -233.981655 
L 248.213628 -236.102733 
L 243.854253 -239.181441 
L 239.494878 -243.330056 
L 235.135503 -248.53195 
L 230.776128 -254.613909 
L 226.416753 -261.256921 
L 222.057378 -268.046893 
L 217.698003 -274.551572 
L 213.338628 -280.40077 
L 208.979253 -285.351306 
L 204.619878 -289.352297 
L 200.260503 -292.499057 
L 195.901128 -294.805715 
L 191.541753 -296.348856 
L 187.182378 -297.227066 
L 182.823003 -297.511363 
L 178.463628 -297.227066 
L 174.104253 -296.348856 
L 169.744878 -294.805715 
L 165.385503 -292.499057 
L 161.026128 -289.352297 
L 156.666753 -285.351306 
L 152.307378 -280.40077 
L 147.948003 -274.551572 
L 143.588628 -268.046893 
L 139.229253 -261.256921 
L 134.869878 -254.613909 
L 130.510503 -248.53195 
L 126.151128 -243.330056 
L 121.791753 -239.181441 
L 117.432378 -236.102733 
L 113.073003 -233.981655 
L 108.713628 -232.628514 
L 104.354253 -231.831533 
L 99.994878 -231.399614 
L 95.635503 -231.185078 
L 91.276128 -231.087859 
L 86.916753 -231.047884 
L 82.557378 -231.033065 
L 78.198003 -231.02815 
L 73.838628 -231.026706 
L 69.479253 -231.026335 
L 65.119878 -231.026252 
L 60.760503 -231.026237 
L 56.401128 -231.026234 
L 52.041753 -231.026234 
L 47.682378 -231.026234 
L 43.323003 -231.026234 
z
" style="stroke: #1f77b4; stroke-opacity: 0.5"/>
    </defs>
    <g clip-path="url(#p003c80fc75)">
     <use xlink:href="#m5a2a3d9a9a" x="0" y="424.484641" style="fill: #1f77b4; fill-opacity: 0.5; stroke: #1f77b4; stroke-opacity: 0.5"/>
    </g>
   </g>
   <g id="PolyCollection_2">
    <defs>
     <path id="md16d0b6ca3" d="M 43.323003 -231.026235 
L 43.323003 -231.026235 
L 47.682378 -231.026256 
L 52.041753 -231.026534 
L 56.401128 -231.028939 
L 60.760503 -231.044075 
L 65.119878 -231.117828 
L 69.479253 -231.406963 
L 73.838628 -232.342297 
L 78.198003 -234.882261 
L 82.557378 -240.738811 
L 86.916753 -252.282482 
L 91.276128 -271.776278 
L 95.635503 -299.884405 
L 99.994878 -334.065321 
L 104.354253 -368.036266 
L 108.713628 -393.288714 
L 113.073003 -402.402923 
L 117.432378 -392.451863 
L 121.791753 -366.629104 
L 126.151128 -332.483927 
L 130.510503 -298.480795 
L 134.869878 -270.742236 
L 139.229253 -251.638084 
L 143.588628 -240.396934 
L 147.948003 -234.727943 
L 152.307378 -232.283377 
L 156.666753 -231.38814 
L 161.026128 -231.11288 
L 165.385503 -231.043031 
L 169.744878 -231.028769 
L 174.104253 -231.026513 
L 178.463628 -231.026254 
L 182.823003 -231.026235 
L 187.182378 -231.026234 
L 191.541753 -231.026234 
L 195.901128 -231.026234 
L 200.260503 -231.026234 
L 204.619878 -231.026234 
L 208.979253 -231.026234 
L 213.338628 -231.026234 
L 217.698003 -231.026234 
L 222.057378 -231.026234 
L 226.416753 -231.026234 
L 230.776128 -231.026234 
L 235.135503 -231.026234 
L 239.494878 -231.026234 
L 243.854253 -231.026234 
L 248.213628 -231.026234 
L 252.573003 -231.026234 
L 256.932378 -231.026234 
L 261.291753 -231.026234 
L 265.651128 -231.026234 
L 270.010503 -231.026234 
L 274.369878 -231.026234 
L 278.729253 -231.026234 
L 283.088628 -231.026234 
L 287.448003 -231.026234 
L 291.807378 -231.026234 
L 296.166753 -231.026234 
L 300.526128 -231.026234 
L 304.885503 -231.026234 
L 309.244878 -231.026234 
L 313.604253 -231.026234 
L 317.963628 -231.026234 
L 322.323003 -231.026234 
L 322.323003 -231.026234 
L 322.323003 -231.026234 
L 317.963628 -231.026234 
L 313.604253 -231.026234 
L 309.244878 -231.026234 
L 304.885503 -231.026234 
L 300.526128 -231.026234 
L 296.166753 -231.026234 
L 291.807378 -231.026234 
L 287.448003 -231.026234 
L 283.088628 -231.026234 
L 278.729253 -231.026234 
L 274.369878 -231.026234 
L 270.010503 -231.026234 
L 265.651128 -231.026234 
L 261.291753 -231.026234 
L 256.932378 -231.026234 
L 252.573003 -231.026234 
L 248.213628 -231.026234 
L 243.854253 -231.026234 
L 239.494878 -231.026234 
L 235.135503 -231.026234 
L 230.776128 -231.026234 
L 226.416753 -231.026234 
L 222.057378 -231.026234 
L 217.698003 -231.026234 
L 213.338628 -231.026234 
L 208.979253 -231.026234 
L 204.619878 -231.026234 
L 200.260503 -231.026234 
L 195.901128 -231.026234 
L 191.541753 -231.026234 
L 187.182378 -231.026234 
L 182.823003 -231.026235 
L 178.463628 -231.026254 
L 174.104253 -231.026517 
L 169.744878 -231.028795 
L 165.385503 -231.043189 
L 161.026128 -231.113612 
L 156.666753 -231.390869 
L 152.307378 -232.291776 
L 147.948003 -234.749626 
L 143.588628 -240.444407 
L 139.229253 -251.726735 
L 134.869878 -270.883526 
L 130.510503 -298.671827 
L 126.151128 -332.699149 
L 121.791753 -366.822163 
L 117.432378 -392.572046 
L 113.073003 -402.442527 
L 108.713628 -393.405015 
L 104.354253 -368.227298 
L 99.994878 -334.280744 
L 95.635503 -300.077195 
L 91.276128 -271.91984 
L 86.916753 -252.373097 
L 82.557378 -240.787599 
L 78.198003 -234.904655 
L 73.838628 -232.351009 
L 69.479253 -231.409806 
L 65.119878 -231.118593 
L 60.760503 -231.04424 
L 56.401128 -231.028966 
L 52.041753 -231.026537 
L 47.682378 -231.026256 
L 43.323003 -231.026235 
z
" style="stroke: #1f77b4; stroke-opacity: 0.5"/>
    </defs>
    <g clip-path="url(#p003c80fc75)">
     <use xlink:href="#md16d0b6ca3" x="0" y="424.484641" style="fill: #1f77b4; fill-opacity: 0.5; stroke: #1f77b4; stroke-opacity: 0.5"/>
    </g>
   </g>
   <g id="PolyCollection_3">
    <defs>
     <path id="m11a01e1a1d" d="M 43.323003 -231.026294 
L 43.323003 -231.026283 
L 47.682378 -231.026905 
L 52.041753 -231.030906 
L 56.401128 -231.048359 
L 60.760503 -231.106186 
L 65.119878 -231.26104 
L 69.479253 -231.609356 
L 73.838628 -232.284873 
L 78.198003 -233.435997 
L 82.557378 -235.184646 
L 86.916753 -237.579768 
L 91.276128 -240.564707 
L 95.635503 -243.973165 
L 99.994878 -247.556194 
L 104.354253 -251.029251 
L 108.713628 -254.119122 
L 113.073003 -256.59613 
L 117.432378 -258.342052 
L 121.791753 -259.463567 
L 126.151128 -260.212502 
L 130.510503 -260.833345 
L 134.869878 -261.486753 
L 139.229253 -262.212327 
L 143.588628 -262.934223 
L 147.948003 -263.543738 
L 152.307378 -264.008846 
L 156.666753 -264.352273 
L 161.026128 -264.568185 
L 165.385503 -264.578299 
L 169.744878 -264.292977 
L 174.104253 -263.822802 
L 178.463628 -263.414647 
L 182.823003 -263.25636 
L 187.182378 -263.414647 
L 191.541753 -263.822802 
L 195.901128 -264.292977 
L 200.260503 -264.578299 
L 204.619878 -264.568185 
L 208.979253 -264.352273 
L 213.338628 -264.008846 
L 217.698003 -263.543738 
L 222.057378 -262.934223 
L 226.416753 -262.212327 
L 230.776128 -261.486753 
L 235.135503 -260.833345 
L 239.494878 -260.212502 
L 243.854253 -259.463567 
L 248.213628 -258.342052 
L 252.573003 -256.59613 
L 256.932378 -254.119122 
L 261.291753 -251.029251 
L 265.651128 -247.556194 
L 270.010503 -243.973165 
L 274.369878 -240.564707 
L 278.729253 -237.579768 
L 283.088628 -235.184646 
L 287.448003 -233.435997 
L 291.807378 -232.284873 
L 296.166753 -231.609356 
L 300.526128 -231.26104 
L 304.885503 -231.106186 
L 309.244878 -231.048359 
L 313.604253 -231.030906 
L 317.963628 -231.026905 
L 322.323003 -231.026283 
L 322.323003 -231.026294 
L 322.323003 -231.026294 
L 317.963628 -231.02703 
L 313.604253 -231.031693 
L 309.244878 -231.051785 
L 304.885503 -231.117751 
L 300.526128 -231.293041 
L 296.166753 -231.684551 
L 291.807378 -232.438737 
L 287.448003 -233.715392 
L 283.088628 -235.640971 
L 278.729253 -238.255561 
L 274.369878 -241.474961 
L 270.010503 -245.086935 
L 265.651128 -248.789404 
L 261.291753 -252.263632 
L 256.932378 -255.264786 
L 252.573003 -257.701802 
L 248.213628 -259.623005 
L 243.854253 -261.084117 
L 239.494878 -262.147057 
L 235.135503 -262.919142 
L 230.776128 -263.52368 
L 226.416753 -264.072531 
L 222.057378 -264.651214 
L 217.698003 -265.273739 
L 213.338628 -265.834055 
L 208.979253 -266.188499 
L 204.619878 -266.283338 
L 200.260503 -266.220188 
L 195.901128 -266.192863 
L 191.541753 -266.251266 
L 187.182378 -266.321921 
L 182.823003 -266.3509 
L 178.463628 -266.321921 
L 174.104253 -266.251266 
L 169.744878 -266.192863 
L 165.385503 -266.220188 
L 161.026128 -266.283338 
L 156.666753 -266.188499 
L 152.307378 -265.834055 
L 147.948003 -265.273739 
L 143.588628 -264.651214 
L 139.229253 -264.072531 
L 134.869878 -263.52368 
L 130.510503 -262.919142 
L 126.151128 -262.147057 
L 121.791753 -261.084117 
L 117.432378 -259.623005 
L 113.073003 -257.701802 
L 108.713628 -255.264786 
L 104.354253 -252.263632 
L 99.994878 -248.789404 
L 95.635503 -245.086935 
L 91.276128 -241.474961 
L 86.916753 -238.255561 
L 82.557378 -235.640971 
L 78.198003 -233.715392 
L 73.838628 -232.438737 
L 69.479253 -231.684551 
L 65.119878 -231.293041 
L 60.760503 -231.117751 
L 56.401128 -231.051785 
L 52.041753 -231.031693 
L 47.682378 -231.02703 
L 43.323003 -231.026294 
z
" style="stroke: #ff7f0e; stroke-opacity: 0.5"/>
    </defs>
    <g clip-path="url(#p003c80fc75)">
     <use xlink:href="#m11a01e1a1d" x="0" y="424.484641" style="fill: #ff7f0e; fill-opacity: 0.5; stroke: #ff7f0e; stroke-opacity: 0.5"/>
    </g>
   </g>
   <g id="PolyCollection_4">
    <defs>
     <path id="m190855dd52" d="M 43.323003 -231.026276 
L 43.323003 -231.026271 
L 47.682378 -231.026838 
L 52.041753 -231.031342 
L 56.401128 -231.055768 
L 60.760503 -231.156433 
L 65.119878 -231.49101 
L 69.479253 -232.421295 
L 73.838628 -234.637293 
L 78.198003 -239.232266 
L 82.557378 -247.612229 
L 86.916753 -261.127415 
L 91.276128 -280.417029 
L 95.635503 -304.663519 
L 99.994878 -331.155139 
L 104.354253 -355.569327 
L 108.713628 -373.055889 
L 113.073003 -379.722305 
L 117.432378 -373.946068 
L 121.791753 -357.001817 
L 126.151128 -332.708156 
L 130.510503 -306.037088 
L 134.869878 -281.450308 
L 139.229253 -261.785302 
L 143.588628 -247.958478 
L 147.948003 -239.37606 
L 152.307378 -234.679042 
L 156.666753 -232.42538 
L 161.026128 -231.487138 
L 165.385503 -231.153577 
L 169.744878 -231.054671 
L 174.104253 -231.031071 
L 178.463628 -231.026795 
L 182.823003 -231.026268 
L 187.182378 -231.026234 
L 191.541753 -231.026234 
L 195.901128 -231.026234 
L 200.260503 -231.026234 
L 204.619878 -231.026234 
L 208.979253 -231.026234 
L 213.338628 -231.026234 
L 217.698003 -231.026234 
L 222.057378 -231.026234 
L 226.416753 -231.026234 
L 230.776128 -231.026234 
L 235.135503 -231.026234 
L 239.494878 -231.026234 
L 243.854253 -231.026234 
L 248.213628 -231.026234 
L 252.573003 -231.026234 
L 256.932378 -231.026234 
L 261.291753 -231.026234 
L 265.651128 -231.026234 
L 270.010503 -231.026234 
L 274.369878 -231.026234 
L 278.729253 -231.026234 
L 283.088628 -231.026234 
L 287.448003 -231.026234 
L 291.807378 -231.026234 
L 296.166753 -231.026234 
L 300.526128 -231.026234 
L 304.885503 -231.026234 
L 309.244878 -231.026234 
L 313.604253 -231.026234 
L 317.963628 -231.026234 
L 322.323003 -231.026234 
L 322.323003 -231.026234 
L 322.323003 -231.026234 
L 317.963628 -231.026234 
L 313.604253 -231.026234 
L 309.244878 -231.026234 
L 304.885503 -231.026234 
L 300.526128 -231.026234 
L 296.166753 -231.026234 
L 291.807378 -231.026234 
L 287.448003 -231.026234 
L 283.088628 -231.026234 
L 278.729253 -231.026234 
L 274.369878 -231.026234 
L 270.010503 -231.026234 
L 265.651128 -231.026234 
L 261.291753 -231.026234 
L 256.932378 -231.026234 
L 252.573003 -231.026234 
L 248.213628 -231.026234 
L 243.854253 -231.026234 
L 239.494878 -231.026234 
L 235.135503 -231.026234 
L 230.776128 -231.026234 
L 226.416753 -231.026234 
L 222.057378 -231.026234 
L 217.698003 -231.026234 
L 213.338628 -231.026234 
L 208.979253 -231.026234 
L 204.619878 -231.026234 
L 200.260503 -231.026234 
L 195.901128 -231.026234 
L 191.541753 -231.026234 
L 187.182378 -231.026234 
L 182.823003 -231.026271 
L 178.463628 -231.026837 
L 174.104253 -231.031382 
L 169.744878 -231.056257 
L 165.385503 -231.159699 
L 161.026128 -231.506093 
L 156.666753 -232.474133 
L 152.307378 -234.785888 
L 147.948003 -239.579647 
L 143.588628 -248.30081 
L 139.229253 -262.296745 
L 134.869878 -282.126084 
L 130.510503 -306.81549 
L 126.151128 -333.48114 
L 121.791753 -357.692023 
L 117.432378 -374.615086 
L 113.073003 -380.487424 
L 108.713628 -373.899136 
L 104.354253 -356.400027 
L 99.994878 -331.931233 
L 95.635503 -305.387693 
L 91.276128 -281.063813 
L 86.916753 -261.646392 
L 82.557378 -247.976547 
L 78.198003 -239.455701 
L 73.838628 -234.757796 
L 69.479253 -232.478571 
L 65.119878 -231.514706 
L 60.760503 -231.164703 
L 56.401128 -231.058086 
L 52.041753 -231.031828 
L 47.682378 -231.026906 
L 43.323003 -231.026276 
z
" style="stroke: #ff7f0e; stroke-opacity: 0.5"/>
    </defs>
    <g clip-path="url(#p003c80fc75)">
     <use xlink:href="#m190855dd52" x="0" y="424.484641" style="fill: #ff7f0e; fill-opacity: 0.5; stroke: #ff7f0e; stroke-opacity: 0.5"/>
    </g>
   </g>
   <g id="PolyCollection_5">
    <defs>
     <path id="m3b369b3763" d="M 43.323003 -231.067357 
L 43.323003 -231.0572 
L 47.682378 -231.200414 
L 52.041753 -231.616281 
L 56.401128 -232.480353 
L 60.760503 -233.951205 
L 65.119878 -236.0706 
L 69.479253 -238.754816 
L 73.838628 -241.795636 
L 78.198003 -244.990608 
L 82.557378 -248.041528 
L 86.916753 -250.675669 
L 91.276128 -252.641793 
L 95.635503 -253.883772 
L 99.994878 -254.474786 
L 104.354253 -254.624149 
L 108.713628 -254.553114 
L 113.073003 -254.506029 
L 117.432378 -254.627897 
L 121.791753 -254.895851 
L 126.151128 -255.15356 
L 130.510503 -255.272906 
L 134.869878 -255.337063 
L 139.229253 -255.474386 
L 143.588628 -255.810613 
L 147.948003 -256.242953 
L 152.307378 -256.581172 
L 156.666753 -256.749681 
L 161.026128 -256.861063 
L 165.385503 -256.977661 
L 169.744878 -256.953565 
L 174.104253 -256.72593 
L 178.463628 -256.401017 
L 182.823003 -256.257679 
L 187.182378 -256.401017 
L 191.541753 -256.72593 
L 195.901128 -256.953565 
L 200.260503 -256.977661 
L 204.619878 -256.861063 
L 208.979253 -256.749681 
L 213.338628 -256.581172 
L 217.698003 -256.242953 
L 222.057378 -255.810613 
L 226.416753 -255.474386 
L 230.776128 -255.337063 
L 235.135503 -255.272906 
L 239.494878 -255.15356 
L 243.854253 -254.895851 
L 248.213628 -254.627897 
L 252.573003 -254.506029 
L 256.932378 -254.553114 
L 261.291753 -254.624149 
L 265.651128 -254.474786 
L 270.010503 -253.883772 
L 274.369878 -252.641793 
L 278.729253 -250.675669 
L 283.088628 -248.041528 
L 287.448003 -244.990608 
L 291.807378 -241.795636 
L 296.166753 -238.754816 
L 300.526128 -236.0706 
L 304.885503 -233.951205 
L 309.244878 -232.480353 
L 313.604253 -231.616281 
L 317.963628 -231.200414 
L 322.323003 -231.0572 
L 322.323003 -231.067357 
L 322.323003 -231.067357 
L 317.963628 -231.252595 
L 313.604253 -231.765281 
L 309.244878 -232.771552 
L 304.885503 -234.390539 
L 300.526128 -236.649495 
L 296.166753 -239.537773 
L 291.807378 -242.877713 
L 287.448003 -246.351981 
L 283.088628 -249.562969 
L 278.729253 -252.243004 
L 274.369878 -254.200213 
L 270.010503 -255.42237 
L 265.651128 -256.009171 
L 261.291753 -256.213473 
L 256.932378 -256.257081 
L 252.573003 -256.298851 
L 248.213628 -256.406265 
L 243.854253 -256.594294 
L 239.494878 -256.853156 
L 235.135503 -257.115713 
L 230.776128 -257.378419 
L 226.416753 -257.673113 
L 222.057378 -258.063749 
L 217.698003 -258.47108 
L 213.338628 -258.787179 
L 208.979253 -258.930109 
L 204.619878 -258.949027 
L 200.260503 -259.004799 
L 195.901128 -259.191652 
L 191.541753 -259.457759 
L 187.182378 -259.639166 
L 182.823003 -259.709967 
L 178.463628 -259.639166 
L 174.104253 -259.457759 
L 169.744878 -259.191652 
L 165.385503 -259.004799 
L 161.026128 -258.949027 
L 156.666753 -258.930109 
L 152.307378 -258.787179 
L 147.948003 -258.47108 
L 143.588628 -258.063749 
L 139.229253 -257.673113 
L 134.869878 -257.378419 
L 130.510503 -257.115713 
L 126.151128 -256.853156 
L 121.791753 -256.594294 
L 117.432378 -256.406265 
L 113.073003 -256.298851 
L 108.713628 -256.257081 
L 104.354253 -256.213473 
L 99.994878 -256.009171 
L 95.635503 -255.42237 
L 91.276128 -254.200213 
L 86.916753 -252.243004 
L 82.557378 -249.562969 
L 78.198003 -246.351981 
L 73.838628 -242.877713 
L 69.479253 -239.537773 
L 65.119878 -236.649495 
L 60.760503 -234.390539 
L 56.401128 -232.771552 
L 52.041753 -231.765281 
L 47.682378 -231.252595 
L 43.323003 -231.067357 
z
" style="stroke: #2ca02c; stroke-opacity: 0.5"/>
    </defs>
    <g clip-path="url(#p003c80fc75)">
     <use xlink:href="#m3b369b3763" x="0" y="424.484641" style="fill: #2ca02c; fill-opacity: 0.5; stroke: #2ca02c; stroke-opacity: 0.5"/>
    </g>
   </g>
   <g id="PolyCollection_6">
    <defs>
     <path id="m0576123425" d="M 43.323003 -231.028459 
L 43.323003 -231.028149 
L 47.682378 -231.039607 
L 52.041753 -231.094932 
L 56.401128 -231.267471 
L 60.760503 -231.752635 
L 65.119878 -232.855284 
L 69.479253 -235.195693 
L 73.838628 -239.408425 
L 78.198003 -246.377903 
L 82.557378 -256.522582 
L 86.916753 -270.329304 
L 91.276128 -287.730924 
L 95.635503 -307.528383 
L 99.994878 -327.390075 
L 104.354253 -344.504709 
L 108.713628 -355.342317 
L 113.073003 -358.214943 
L 117.432378 -353.024679 
L 121.791753 -341.515868 
L 126.151128 -325.954876 
L 130.510503 -307.782149 
L 134.869878 -288.561064 
L 139.229253 -271.176621 
L 143.588628 -257.492294 
L 147.948003 -247.144944 
L 152.307378 -239.773553 
L 156.666753 -235.293736 
L 161.026128 -232.917983 
L 165.385503 -231.78359 
L 169.744878 -231.282226 
L 174.104253 -231.096572 
L 178.463628 -231.039578 
L 182.823003 -231.028236 
L 187.182378 -231.026234 
L 191.541753 -231.026234 
L 195.901128 -231.026234 
L 200.260503 -231.026234 
L 204.619878 -231.026234 
L 208.979253 -231.026234 
L 213.338628 -231.026234 
L 217.698003 -231.026234 
L 222.057378 -231.026234 
L 226.416753 -231.026234 
L 230.776128 -231.026234 
L 235.135503 -231.026234 
L 239.494878 -231.026234 
L 243.854253 -231.026234 
L 248.213628 -231.026234 
L 252.573003 -231.026234 
L 256.932378 -231.026234 
L 261.291753 -231.026234 
L 265.651128 -231.026234 
L 270.010503 -231.026234 
L 274.369878 -231.026234 
L 278.729253 -231.026234 
L 283.088628 -231.026234 
L 287.448003 -231.026234 
L 291.807378 -231.026234 
L 296.166753 -231.026234 
L 300.526128 -231.026234 
L 304.885503 -231.026234 
L 309.244878 -231.026234 
L 313.604253 -231.026234 
L 317.963628 -231.026234 
L 322.323003 -231.026234 
L 322.323003 -231.026234 
L 322.323003 -231.026234 
L 317.963628 -231.026234 
L 313.604253 -231.026234 
L 309.244878 -231.026234 
L 304.885503 -231.026234 
L 300.526128 -231.026234 
L 296.166753 -231.026234 
L 291.807378 -231.026234 
L 287.448003 -231.026234 
L 283.088628 -231.026234 
L 278.729253 -231.026234 
L 274.369878 -231.026234 
L 270.010503 -231.026234 
L 265.651128 -231.026234 
L 261.291753 -231.026234 
L 256.932378 -231.026234 
L 252.573003 -231.026234 
L 248.213628 -231.026234 
L 243.854253 -231.026234 
L 239.494878 -231.026234 
L 235.135503 -231.026234 
L 230.776128 -231.026234 
L 226.416753 -231.026234 
L 222.057378 -231.026234 
L 217.698003 -231.026234 
L 213.338628 -231.026234 
L 208.979253 -231.026234 
L 204.619878 -231.026234 
L 200.260503 -231.026234 
L 195.901128 -231.026234 
L 191.541753 -231.026234 
L 187.182378 -231.026234 
L 182.823003 -231.028528 
L 178.463628 -231.041371 
L 174.104253 -231.104035 
L 169.744878 -231.305693 
L 165.385503 -231.844133 
L 161.026128 -233.045012 
L 156.666753 -235.583616 
L 152.307378 -240.260869 
L 147.948003 -247.90921 
L 143.588628 -258.361466 
L 139.229253 -272.390139 
L 134.869878 -289.837436 
L 130.510503 -309.323303 
L 126.151128 -327.515181 
L 121.791753 -343.171403 
L 117.432378 -354.64406 
L 113.073003 -359.940817 
L 108.713628 -356.917204 
L 104.354253 -345.929223 
L 99.994878 -328.752435 
L 95.635503 -308.776084 
L 91.276128 -288.828688 
L 86.916753 -271.263983 
L 82.557378 -257.253828 
L 78.198003 -246.908885 
L 73.838628 -239.768259 
L 69.479253 -235.417568 
L 65.119878 -232.975497 
L 60.760503 -231.811096 
L 56.401128 -231.293544 
L 52.041753 -231.104709 
L 47.682378 -231.041972 
L 43.323003 -231.028459 
z
" style="stroke: #2ca02c; stroke-opacity: 0.5"/>
    </defs>
    <g clip-path="url(#p003c80fc75)">
     <use xlink:href="#m0576123425" x="0" y="424.484641" style="fill: #2ca02c; fill-opacity: 0.5; stroke: #2ca02c; stroke-opacity: 0.5"/>
    </g>
   </g>
   <g id="matplotlib.axis_1"/>
   <g id="matplotlib.axis_2">
    <g id="ytick_1">
     <g id="line2d_1">
      <defs>
       <path id="m1e5b7aeb96" d="M 0 0 
L -3.5 0 
" style="stroke: #000000; stroke-width: 0.8"/>
      </defs>
      <g>
       <use xlink:href="#m1e5b7aeb96" x="43.323003" y="193.458407" style="stroke: #000000; stroke-width: 0.8"/>
      </g>
     </g>
     <g id="text_1">
      <!-- $\mathdefault{0.00}$ -->
      <g transform="translate(15.512371 197.609497) scale(0.12 -0.12)">
       <defs>
        <path id="CMR17-30" d="M 2688 2025 
C 2688 2416 2682 3080 2413 3591 
C 2176 4039 1798 4198 1466 4198 
C 1158 4198 768 4058 525 3597 
C 269 3118 243 2524 243 2025 
C 243 1661 250 1106 448 619 
C 723 -39 1216 -128 1466 -128 
C 1760 -128 2208 -7 2470 600 
C 2662 1042 2688 1559 2688 2025 
z
M 1466 -26 
C 1056 -26 813 325 723 812 
C 653 1188 653 1738 653 2096 
C 653 2588 653 2997 736 3387 
C 858 3929 1216 4096 1466 4096 
C 1728 4096 2067 3923 2189 3400 
C 2272 3036 2278 2607 2278 2096 
C 2278 1680 2278 1169 2202 792 
C 2067 95 1690 -26 1466 -26 
z
" transform="scale(0.015625)"/>
        <path id="CMMI12-3a" d="M 1178 307 
C 1178 492 1024 619 870 619 
C 685 619 557 466 557 313 
C 557 128 710 0 864 0 
C 1050 0 1178 153 1178 307 
z
" transform="scale(0.015625)"/>
       </defs>
       <use xlink:href="#CMR17-30" transform="scale(0.996264)"/>
       <use xlink:href="#CMMI12-3a" transform="translate(45.690477 0) scale(0.996264)"/>
       <use xlink:href="#CMR17-30" transform="translate(72.787654 0) scale(0.996264)"/>
       <use xlink:href="#CMR17-30" transform="translate(118.478131 0) scale(0.996264)"/>
      </g>
     </g>
    </g>
    <g id="ytick_2">
     <g id="line2d_2">
      <g>
       <use xlink:href="#m1e5b7aeb96" x="43.323003" y="130.355968" style="stroke: #000000; stroke-width: 0.8"/>
      </g>
     </g>
     <g id="text_2">
      <!-- $\mathdefault{0.05}$ -->
      <g transform="translate(15.512371 134.507058) scale(0.12 -0.12)">
       <defs>
        <path id="CMR17-35" d="M 730 3692 
C 794 3666 1056 3584 1325 3584 
C 1920 3584 2246 3911 2432 4100 
C 2432 4157 2432 4192 2394 4192 
C 2387 4192 2374 4192 2323 4163 
C 2099 4058 1837 3973 1517 3973 
C 1325 3973 1037 3999 723 4139 
C 653 4171 640 4171 634 4171 
C 602 4171 595 4164 595 4037 
L 595 2203 
C 595 2089 595 2057 659 2057 
C 691 2057 704 2070 736 2114 
C 941 2401 1222 2522 1542 2522 
C 1766 2522 2246 2382 2246 1289 
C 2246 1085 2246 715 2054 421 
C 1894 159 1645 25 1370 25 
C 947 25 518 320 403 814 
C 429 807 480 795 506 795 
C 589 795 749 840 749 1038 
C 749 1210 627 1280 506 1280 
C 358 1280 262 1190 262 1011 
C 262 454 704 -128 1382 -128 
C 2042 -128 2669 440 2669 1264 
C 2669 2030 2170 2624 1549 2624 
C 1222 2624 947 2503 730 2274 
L 730 3692 
z
" transform="scale(0.015625)"/>
       </defs>
       <use xlink:href="#CMR17-30" transform="scale(0.996264)"/>
       <use xlink:href="#CMMI12-3a" transform="translate(45.690477 0) scale(0.996264)"/>
       <use xlink:href="#CMR17-30" transform="translate(72.787654 0) scale(0.996264)"/>
       <use xlink:href="#CMR17-35" transform="translate(118.478131 0) scale(0.996264)"/>
      </g>
     </g>
    </g>
    <g id="ytick_3">
     <g id="line2d_3">
      <g>
       <use xlink:href="#m1e5b7aeb96" x="43.323003" y="67.253529" style="stroke: #000000; stroke-width: 0.8"/>
      </g>
     </g>
     <g id="text_3">
      <!-- $\mathdefault{0.10}$ -->
      <g transform="translate(15.512371 71.404619) scale(0.12 -0.12)">
       <defs>
        <path id="CMR17-31" d="M 1702 4058 
C 1702 4192 1696 4192 1606 4192 
C 1357 3916 979 3827 621 3827 
C 602 3827 570 3827 563 3808 
C 557 3795 557 3782 557 3648 
C 755 3648 1088 3686 1344 3839 
L 1344 461 
C 1344 236 1331 160 781 160 
L 589 160 
L 589 0 
C 896 0 1216 0 1523 0 
C 1830 0 2150 0 2458 0 
L 2458 160 
L 2266 160 
C 1715 160 1702 230 1702 458 
L 1702 4058 
z
" transform="scale(0.015625)"/>
       </defs>
       <use xlink:href="#CMR17-30" transform="scale(0.996264)"/>
       <use xlink:href="#CMMI12-3a" transform="translate(45.690477 0) scale(0.996264)"/>
       <use xlink:href="#CMR17-31" transform="translate(72.787654 0) scale(0.996264)"/>
       <use xlink:href="#CMR17-30" transform="translate(118.478131 0) scale(0.996264)"/>
      </g>
     </g>
    </g>
    <g id="ytick_4">
     <g id="line2d_4">
      <g>
       <use xlink:href="#m1e5b7aeb96" x="43.323003" y="4.15109" style="stroke: #000000; stroke-width: 0.8"/>
      </g>
     </g>
     <g id="text_4">
      <!-- $\mathdefault{0.15}$ -->
      <g transform="translate(15.512371 8.30218) scale(0.12 -0.12)">
       <use xlink:href="#CMR17-30" transform="scale(0.996264)"/>
       <use xlink:href="#CMMI12-3a" transform="translate(45.690477 0) scale(0.996264)"/>
       <use xlink:href="#CMR17-31" transform="translate(72.787654 0) scale(0.996264)"/>
       <use xlink:href="#CMR17-35" transform="translate(118.478131 0) scale(0.996264)"/>
      </g>
     </g>
    </g>
    <g id="ytick_5">
     <g id="line2d_5">
      <defs>
       <path id="m1907023b2f" d="M 0 0 
L -2 0 
" style="stroke: #000000; stroke-width: 0.6"/>
      </defs>
      <g>
       <use xlink:href="#m1907023b2f" x="43.323003" y="180.837919" style="stroke: #000000; stroke-width: 0.6"/>
      </g>
     </g>
    </g>
    <g id="ytick_6">
     <g id="line2d_6">
      <g>
       <use xlink:href="#m1907023b2f" x="43.323003" y="168.217431" style="stroke: #000000; stroke-width: 0.6"/>
      </g>
     </g>
    </g>
    <g id="ytick_7">
     <g id="line2d_7">
      <g>
       <use xlink:href="#m1907023b2f" x="43.323003" y="155.596944" style="stroke: #000000; stroke-width: 0.6"/>
      </g>
     </g>
    </g>
    <g id="ytick_8">
     <g id="line2d_8">
      <g>
       <use xlink:href="#m1907023b2f" x="43.323003" y="142.976456" style="stroke: #000000; stroke-width: 0.6"/>
      </g>
     </g>
    </g>
    <g id="ytick_9">
     <g id="line2d_9">
      <g>
       <use xlink:href="#m1907023b2f" x="43.323003" y="117.73548" style="stroke: #000000; stroke-width: 0.6"/>
      </g>
     </g>
    </g>
    <g id="ytick_10">
     <g id="line2d_10">
      <g>
       <use xlink:href="#m1907023b2f" x="43.323003" y="105.114992" style="stroke: #000000; stroke-width: 0.6"/>
      </g>
     </g>
    </g>
    <g id="ytick_11">
     <g id="line2d_11">
      <g>
       <use xlink:href="#m1907023b2f" x="43.323003" y="92.494505" style="stroke: #000000; stroke-width: 0.6"/>
      </g>
     </g>
    </g>
    <g id="ytick_12">
     <g id="line2d_12">
      <g>
       <use xlink:href="#m1907023b2f" x="43.323003" y="79.874017" style="stroke: #000000; stroke-width: 0.6"/>
      </g>
     </g>
    </g>
    <g id="ytick_13">
     <g id="line2d_13">
      <g>
       <use xlink:href="#m1907023b2f" x="43.323003" y="54.633041" style="stroke: #000000; stroke-width: 0.6"/>
      </g>
     </g>
    </g>
    <g id="ytick_14">
     <g id="line2d_14">
      <g>
       <use xlink:href="#m1907023b2f" x="43.323003" y="42.012553" style="stroke: #000000; stroke-width: 0.6"/>
      </g>
     </g>
    </g>
    <g id="ytick_15">
     <g id="line2d_15">
      <g>
       <use xlink:href="#m1907023b2f" x="43.323003" y="29.392066" style="stroke: #000000; stroke-width: 0.6"/>
      </g>
     </g>
    </g>
    <g id="ytick_16">
     <g id="line2d_16">
      <g>
       <use xlink:href="#m1907023b2f" x="43.323003" y="16.771578" style="stroke: #000000; stroke-width: 0.6"/>
      </g>
     </g>
    </g>
    <g id="text_5">
     <!-- $P_{n,1}$ -->
     <g transform="translate(8.169362 108.439737) rotate(-90) scale(0.12 -0.12)">
      <defs>
       <path id="CMMI12-50" d="M 1894 2023 
L 2970 2023 
C 3853 2023 4736 2673 4736 3401 
C 4736 3898 4314 4352 3507 4352 
L 1530 4352 
C 1408 4352 1350 4352 1350 4231 
C 1350 4167 1408 4167 1504 4167 
C 1894 4167 1894 4116 1894 4046 
C 1894 4034 1894 3995 1869 3899 
L 1005 472 
C 947 249 934 185 486 185 
C 365 185 301 185 301 70 
C 301 0 358 0 397 0 
C 518 0 646 0 768 0 
L 1517 0 
C 1638 0 1773 0 1894 0 
C 1946 0 2016 0 2016 121 
C 2016 185 1958 185 1862 185 
C 1478 185 1472 230 1472 293 
C 1472 325 1478 369 1485 401 
L 1894 2023 
z
M 2355 3930 
C 2413 4167 2438 4167 2688 4167 
L 3322 4167 
C 3802 4167 4198 4013 4198 3535 
C 4198 3369 4115 2827 3821 2534 
C 3712 2419 3405 2176 2822 2176 
L 1920 2176 
L 2355 3930 
z
" transform="scale(0.015625)"/>
       <path id="CMMI12-6e" d="M 1318 1871 
C 1331 1910 1491 2229 1728 2433 
C 1894 2586 2112 2689 2362 2689 
C 2618 2689 2707 2497 2707 2242 
C 2707 1878 2445 1150 2317 805 
C 2259 651 2227 568 2227 453 
C 2227 166 2426 -64 2733 -64 
C 3328 -64 3552 875 3552 913 
C 3552 945 3526 971 3488 971 
C 3430 971 3424 952 3392 843 
C 3245 319 3002 64 2752 64 
C 2688 64 2586 64 2586 269 
C 2586 429 2656 621 2694 710 
C 2822 1063 3091 1780 3091 2145 
C 3091 2528 2867 2816 2381 2816 
C 1811 2816 1510 2415 1395 2255 
C 1376 2618 1114 2816 832 2816 
C 627 2816 486 2695 378 2478 
C 262 2248 173 1865 173 1839 
C 173 1814 198 1782 243 1782 
C 294 1782 301 1788 339 1935 
C 442 2325 557 2689 813 2689 
C 960 2689 1011 2586 1011 2395 
C 1011 2254 947 2005 902 1807 
L 723 1118 
C 698 996 627 709 595 594 
C 550 428 480 128 480 96 
C 480 6 550 -64 646 -64 
C 723 -64 813 -26 864 70 
C 877 102 934 326 966 453 
L 1107 1028 
L 1318 1871 
z
" transform="scale(0.015625)"/>
       <path id="CMMI12-3b" d="M 1248 -31 
C 1248 343 1126 619 864 619 
C 659 619 557 453 557 313 
C 557 172 653 0 870 0 
C 954 0 1024 26 1082 83 
C 1094 96 1101 96 1107 96 
C 1120 96 1120 5 1120 -27 
C 1120 -240 1082 -659 710 -1080 
C 640 -1157 640 -1170 640 -1183 
C 640 -1216 672 -1248 704 -1248 
C 755 -1248 1248 -771 1248 -31 
z
" transform="scale(0.015625)"/>
      </defs>
      <use xlink:href="#CMMI12-50" transform="scale(0.996264)"/>
      <use xlink:href="#CMMI12-6e" transform="translate(62.877232 -14.943915) scale(0.697382)"/>
      <use xlink:href="#CMMI12-3b" transform="translate(103.638075 -14.943915) scale(0.697382)"/>
      <use xlink:href="#CMR17-31" transform="translate(122.606008 -14.943915) scale(0.697382)"/>
     </g>
    </g>
   </g>
   <g id="line2d_17">
    <path d="M 43.323003 193.458407 
L 47.682378 193.458407 
L 52.041753 193.458407 
L 56.401128 193.458407 
L 60.760503 193.458404 
L 65.119878 193.458389 
L 69.479253 193.458309 
L 73.838628 193.457949 
L 78.198003 193.456544 
L 82.557378 193.451755 
L 86.916753 193.437294 
L 91.276128 193.398223 
L 95.635503 193.303058 
L 99.994878 193.092737 
L 104.354253 192.668693 
L 108.713628 191.88515 
L 113.073003 190.553019 
L 117.432378 188.462049 
L 121.791753 185.422797 
L 126.151128 181.32114 
L 130.510503 176.169234 
L 134.869878 170.133248 
L 139.229253 163.52334 
L 143.588628 156.744396 
L 147.948003 150.221062 
L 152.307378 144.320405 
L 156.666753 139.295264 
L 161.026128 135.261945 
L 165.385503 132.212685 
L 169.744878 130.052663 
L 174.104253 128.647055 
L 178.463628 127.865455 
L 182.823003 127.615898 
L 187.182378 127.865455 
L 191.541753 128.647055 
L 195.901128 130.052663 
L 200.260503 132.212685 
L 204.619878 135.261945 
L 208.979253 139.295264 
L 213.338628 144.320405 
L 217.698003 150.221062 
L 222.057378 156.744396 
L 226.416753 163.52334 
L 230.776128 170.133248 
L 235.135503 176.169234 
L 239.494878 181.32114 
L 243.854253 185.422797 
L 248.213628 188.462049 
L 252.573003 190.553019 
L 256.932378 191.88515 
L 261.291753 192.668693 
L 265.651128 193.092737 
L 270.010503 193.303058 
L 274.369878 193.398223 
L 278.729253 193.437294 
L 283.088628 193.451755 
L 287.448003 193.456544 
L 291.807378 193.457949 
L 296.166753 193.458309 
L 300.526128 193.458389 
L 304.885503 193.458404 
L 309.244878 193.458407 
L 313.604253 193.458407 
L 317.963628 193.458407 
L 322.323003 193.458407 
" clip-path="url(#p003c80fc75)" style="fill: none; stroke: #1f77b4; stroke-width: 1.5; stroke-linecap: square"/>
   </g>
   <g id="line2d_18">
    <path d="M 43.323003 193.458406 
L 47.682378 193.458385 
L 52.041753 193.458106 
L 56.401128 193.455689 
L 60.760503 193.440484 
L 65.119878 193.366431 
L 69.479253 193.076256 
L 73.838628 192.137988 
L 78.198003 189.591183 
L 82.557378 183.721436 
L 86.916753 172.156852 
L 91.276128 152.636582 
L 95.635503 124.503841 
L 99.994878 90.311608 
L 104.354253 56.352859 
L 108.713628 31.137777 
L 113.073003 22.061916 
L 117.432378 31.972687 
L 121.791753 57.759008 
L 126.151128 91.893103 
L 130.510503 125.90833 
L 134.869878 153.67176 
L 139.229253 172.802232 
L 143.588628 184.063971 
L 147.948003 189.745856 
L 152.307378 192.197065 
L 156.666753 193.095136 
L 161.026128 193.371395 
L 165.385503 193.441531 
L 169.744878 193.455859 
L 174.104253 193.458126 
L 178.463628 193.458387 
L 182.823003 193.458406 
L 187.182378 193.458407 
L 191.541753 193.458407 
L 195.901128 193.458407 
L 200.260503 193.458407 
L 204.619878 193.458407 
L 208.979253 193.458407 
L 213.338628 193.458407 
L 217.698003 193.458407 
L 222.057378 193.458407 
L 226.416753 193.458407 
L 230.776128 193.458407 
L 235.135503 193.458407 
L 239.494878 193.458407 
L 243.854253 193.458407 
L 248.213628 193.458407 
L 252.573003 193.458407 
L 256.932378 193.458407 
L 261.291753 193.458407 
L 265.651128 193.458407 
L 270.010503 193.458407 
L 274.369878 193.458407 
L 278.729253 193.458407 
L 283.088628 193.458407 
L 287.448003 193.458407 
L 291.807378 193.458407 
L 296.166753 193.458407 
L 300.526128 193.458407 
L 304.885503 193.458407 
L 309.244878 193.458407 
L 313.604253 193.458407 
L 317.963628 193.458407 
L 322.323003 193.458407 
" clip-path="url(#p003c80fc75)" style="fill: none; stroke-dasharray: 5.55,2.4; stroke-dashoffset: 0; stroke: #1f77b4; stroke-width: 1.5"/>
   </g>
   <g id="line2d_19">
    <path d="M 43.323003 193.458353 
L 47.682378 193.457674 
L 52.041753 193.453342 
L 56.401128 193.434569 
L 60.760503 193.372672 
L 65.119878 193.207601 
L 69.479253 192.837687 
L 73.838628 192.122836 
L 78.198003 190.908946 
L 82.557378 189.071832 
L 86.916753 186.566976 
L 91.276128 183.464807 
L 95.635503 179.954591 
L 99.994878 176.311842 
L 104.354253 172.8382 
L 108.713628 169.792687 
L 113.073003 167.335675 
L 117.432378 165.502112 
L 121.791753 164.210799 
L 126.151128 163.304861 
L 130.510503 162.608398 
L 134.869878 161.979424 
L 139.229253 161.342212 
L 143.588628 160.691922 
L 147.948003 160.075903 
L 152.307378 159.563191 
L 156.666753 159.214255 
L 161.026128 159.05888 
L 165.385503 159.085398 
L 169.744878 159.241721 
L 174.104253 159.447607 
L 178.463628 159.616357 
L 182.823003 159.681011 
L 187.182378 159.616357 
L 191.541753 159.447607 
L 195.901128 159.241721 
L 200.260503 159.085398 
L 204.619878 159.05888 
L 208.979253 159.214255 
L 213.338628 159.563191 
L 217.698003 160.075903 
L 222.057378 160.691922 
L 226.416753 161.342212 
L 230.776128 161.979424 
L 235.135503 162.608398 
L 239.494878 163.304861 
L 243.854253 164.210799 
L 248.213628 165.502112 
L 252.573003 167.335675 
L 256.932378 169.792687 
L 261.291753 172.8382 
L 265.651128 176.311842 
L 270.010503 179.954591 
L 274.369878 183.464807 
L 278.729253 186.566976 
L 283.088628 189.071832 
L 287.448003 190.908946 
L 291.807378 192.122836 
L 296.166753 192.837687 
L 300.526128 193.207601 
L 304.885503 193.372672 
L 309.244878 193.434569 
L 313.604253 193.453342 
L 317.963628 193.457674 
L 322.323003 193.458353 
" clip-path="url(#p003c80fc75)" style="fill: none; stroke: #ff7f0e; stroke-width: 1.5; stroke-linecap: square"/>
   </g>
   <g id="line2d_20">
    <path d="M 43.323003 193.458367 
L 47.682378 193.457769 
L 52.041753 193.453056 
L 56.401128 193.427714 
L 60.760503 193.324073 
L 65.119878 192.981783 
L 69.479253 192.034708 
L 73.838628 189.787096 
L 78.198003 185.140657 
L 82.557378 176.690253 
L 86.916753 163.097738 
L 91.276128 143.74422 
L 95.635503 119.459035 
L 99.994878 92.941455 
L 104.354253 68.499964 
L 108.713628 51.007128 
L 113.073003 44.379777 
L 117.432378 50.204064 
L 121.791753 67.137721 
L 126.151128 91.389993 
L 130.510503 118.058352 
L 134.869878 142.696445 
L 139.229253 162.443617 
L 143.588628 176.354997 
L 147.948003 185.006788 
L 152.307378 189.752176 
L 156.666753 192.034884 
L 161.026128 192.988025 
L 165.385503 193.328003 
L 169.744878 193.429177 
L 174.104253 193.453415 
L 178.463628 193.457825 
L 182.823003 193.458372 
L 187.182378 193.458407 
L 191.541753 193.458407 
L 195.901128 193.458407 
L 200.260503 193.458407 
L 204.619878 193.458407 
L 208.979253 193.458407 
L 213.338628 193.458407 
L 217.698003 193.458407 
L 222.057378 193.458407 
L 226.416753 193.458407 
L 230.776128 193.458407 
L 235.135503 193.458407 
L 239.494878 193.458407 
L 243.854253 193.458407 
L 248.213628 193.458407 
L 252.573003 193.458407 
L 256.932378 193.458407 
L 261.291753 193.458407 
L 265.651128 193.458407 
L 270.010503 193.458407 
L 274.369878 193.458407 
L 278.729253 193.458407 
L 283.088628 193.458407 
L 287.448003 193.458407 
L 291.807378 193.458407 
L 296.166753 193.458407 
L 300.526128 193.458407 
L 304.885503 193.458407 
L 309.244878 193.458407 
L 313.604253 193.458407 
L 317.963628 193.458407 
L 322.323003 193.458407 
" clip-path="url(#p003c80fc75)" style="fill: none; stroke-dasharray: 5.55,2.4; stroke-dashoffset: 0; stroke: #ff7f0e; stroke-width: 1.5"/>
   </g>
   <g id="line2d_21">
    <path d="M 43.323003 193.422363 
L 47.682378 193.258137 
L 52.041753 192.79386 
L 56.401128 191.858688 
L 60.760503 190.313769 
L 65.119878 188.124594 
L 69.479253 185.338346 
L 73.838628 182.147967 
L 78.198003 178.813347 
L 82.557378 175.682393 
L 86.916753 173.025305 
L 91.276128 171.063638 
L 95.635503 169.83157 
L 99.994878 169.242663 
L 104.354253 169.06583 
L 108.713628 169.079543 
L 113.073003 169.082201 
L 117.432378 168.96756 
L 121.791753 168.739568 
L 126.151128 168.481283 
L 130.510503 168.290332 
L 134.869878 168.1269 
L 139.229253 167.910892 
L 143.588628 167.54746 
L 147.948003 167.127624 
L 152.307378 166.800465 
L 156.666753 166.644746 
L 161.026128 166.579596 
L 165.385503 166.493411 
L 169.744878 166.412032 
L 174.104253 166.392797 
L 178.463628 166.464549 
L 182.823003 166.500818 
L 187.182378 166.464549 
L 191.541753 166.392797 
L 195.901128 166.412032 
L 200.260503 166.493411 
L 204.619878 166.579596 
L 208.979253 166.644746 
L 213.338628 166.800465 
L 217.698003 167.127624 
L 222.057378 167.54746 
L 226.416753 167.910892 
L 230.776128 168.1269 
L 235.135503 168.290332 
L 239.494878 168.481283 
L 243.854253 168.739568 
L 248.213628 168.96756 
L 252.573003 169.082201 
L 256.932378 169.079543 
L 261.291753 169.06583 
L 265.651128 169.242663 
L 270.010503 169.83157 
L 274.369878 171.063638 
L 278.729253 173.025305 
L 283.088628 175.682393 
L 287.448003 178.813347 
L 291.807378 182.147967 
L 296.166753 185.338346 
L 300.526128 188.124594 
L 304.885503 190.313769 
L 309.244878 191.858688 
L 313.604253 192.79386 
L 317.963628 193.258137 
L 322.323003 193.422363 
" clip-path="url(#p003c80fc75)" style="fill: none; stroke: #2ca02c; stroke-width: 1.5; stroke-linecap: square"/>
   </g>
   <g id="line2d_22">
    <path d="M 43.323003 193.456337 
L 47.682378 193.443852 
L 52.041753 193.384821 
L 56.401128 193.204134 
L 60.760503 192.702775 
L 65.119878 191.569251 
L 69.479253 189.178011 
L 73.838628 184.896299 
L 78.198003 177.841247 
L 82.557378 167.596436 
L 86.916753 153.687997 
L 91.276128 136.204835 
L 95.635503 116.332408 
L 99.994878 96.413386 
L 104.354253 79.267675 
L 108.713628 68.354881 
L 113.073003 65.406761 
L 117.432378 70.650271 
L 121.791753 82.141006 
L 126.151128 97.749613 
L 130.510503 115.931915 
L 134.869878 135.285391 
L 139.229253 152.701261 
L 143.588628 166.557761 
L 147.948003 176.957564 
L 152.307378 184.46743 
L 156.666753 189.045965 
L 161.026128 191.503143 
L 165.385503 192.67078 
L 169.744878 193.190681 
L 174.104253 193.384337 
L 178.463628 193.444167 
L 182.823003 193.456259 
L 187.182378 193.458407 
L 191.541753 193.458407 
L 195.901128 193.458407 
L 200.260503 193.458407 
L 204.619878 193.458407 
L 208.979253 193.458407 
L 213.338628 193.458407 
L 217.698003 193.458407 
L 222.057378 193.458407 
L 226.416753 193.458407 
L 230.776128 193.458407 
L 235.135503 193.458407 
L 239.494878 193.458407 
L 243.854253 193.458407 
L 248.213628 193.458407 
L 252.573003 193.458407 
L 256.932378 193.458407 
L 261.291753 193.458407 
L 265.651128 193.458407 
L 270.010503 193.458407 
L 274.369878 193.458407 
L 278.729253 193.458407 
L 283.088628 193.458407 
L 287.448003 193.458407 
L 291.807378 193.458407 
L 296.166753 193.458407 
L 300.526128 193.458407 
L 304.885503 193.458407 
L 309.244878 193.458407 
L 313.604253 193.458407 
L 317.963628 193.458407 
L 322.323003 193.458407 
" clip-path="url(#p003c80fc75)" style="fill: none; stroke-dasharray: 5.55,2.4; stroke-dashoffset: 0; stroke: #2ca02c; stroke-width: 1.5"/>
   </g>
   <g id="patch_3">
    <path d="M 43.323003 193.458407 
L 43.323003 4.15109 
" style="fill: none; stroke: #000000; stroke-width: 0.8; stroke-linejoin: miter; stroke-linecap: square"/>
   </g>
   <g id="patch_4">
    <path d="M 322.323003 193.458407 
L 322.323003 4.15109 
" style="fill: none; stroke: #000000; stroke-width: 0.8; stroke-linejoin: miter; stroke-linecap: square"/>
   </g>
   <g id="patch_5">
    <path d="M 43.323003 193.458407 
L 322.323003 193.458407 
" style="fill: none; stroke: #000000; stroke-width: 0.8; stroke-linejoin: miter; stroke-linecap: square"/>
   </g>
   <g id="patch_6">
    <path d="M 43.323003 4.15109 
L 322.323003 4.15109 
" style="fill: none; stroke: #000000; stroke-width: 0.8; stroke-linejoin: miter; stroke-linecap: square"/>
   </g>
   <g id="text_6">
    <!-- $|U|=1.0$ -->
    <g transform="translate(256.932378 29.392066) scale(0.12 -0.12)">
     <defs>
      <path id="CMSY10-6a" d="M 1018 4570 
C 1018 4685 1018 4800 890 4800 
C 762 4800 762 4685 762 4570 
L 762 -1370 
C 762 -1485 762 -1600 890 -1600 
C 1018 -1600 1018 -1485 1018 -1370 
L 1018 4570 
z
" transform="scale(0.015625)"/>
      <path id="CMMI12-55" d="M 3238 1474 
C 3014 581 2272 57 1670 57 
C 1210 57 896 363 896 891 
C 896 916 896 1107 966 1387 
L 1594 3887 
C 1651 4103 1664 4167 2118 4167 
C 2234 4167 2298 4167 2298 4282 
C 2298 4352 2240 4352 2202 4352 
C 2086 4352 1952 4352 1830 4352 
L 1075 4352 
C 954 4352 819 4352 698 4352 
C 653 4352 576 4352 576 4231 
C 576 4167 621 4167 742 4167 
C 1126 4167 1126 4116 1126 4046 
C 1126 4008 1082 3824 1050 3715 
L 493 1488 
C 474 1418 435 1246 435 1075 
C 435 374 941 -128 1638 -128 
C 2285 -128 3002 384 3328 1197 
C 3373 1305 3430 1530 3469 1702 
C 3533 1933 3667 2496 3712 2662 
L 3955 3623 
C 4038 3956 4090 4167 4653 4167 
C 4704 4173 4730 4224 4730 4282 
C 4730 4352 4672 4352 4646 4352 
C 4557 4352 4442 4352 4352 4352 
L 4051 4352 
C 3654 4352 3450 4352 3443 4352 
C 3405 4352 3328 4352 3328 4231 
C 3328 4167 3379 4167 3424 4167 
C 3808 4167 3834 4020 3834 3905 
C 3834 3848 3834 3828 3808 3739 
L 3238 1474 
z
" transform="scale(0.015625)"/>
      <path id="CMR17-3d" d="M 4115 2017 
C 4211 2017 4307 2017 4307 2125 
C 4307 2240 4198 2240 4090 2240 
L 512 2240 
C 403 2240 294 2240 294 2125 
C 294 2017 390 2017 486 2017 
L 4115 2017 
z
M 4090 896 
C 4198 896 4307 896 4307 1011 
C 4307 1119 4211 1119 4115 1119 
L 486 1119 
C 390 1119 294 1119 294 1011 
C 294 896 403 896 512 896 
L 4090 896 
z
" transform="scale(0.015625)"/>
     </defs>
     <use xlink:href="#CMSY10-6a" transform="scale(0.996264)"/>
     <use xlink:href="#CMMI12-55" transform="translate(27.674085 0) scale(0.996264)"/>
     <use xlink:href="#CMSY10-6a" transform="translate(104.332858 0) scale(0.996264)"/>
     <use xlink:href="#CMR17-3d" transform="translate(159.680951 0) scale(0.996264)"/>
     <use xlink:href="#CMR17-31" transform="translate(259.069748 0) scale(0.996264)"/>
     <use xlink:href="#CMMI12-3a" transform="translate(304.760225 0) scale(0.996264)"/>
     <use xlink:href="#CMR17-30" transform="translate(331.857402 0) scale(0.996264)"/>
    </g>
   </g>
   <g id="text_7">
    <!-- $|U|=4.0$ -->
    <g transform="translate(256.932378 60.943285) scale(0.12 -0.12)">
     <defs>
      <path id="CMR17-34" d="M 2150 4122 
C 2150 4256 2144 4256 2029 4256 
L 128 1254 
L 128 1088 
L 1779 1088 
L 1779 457 
C 1779 224 1766 160 1318 160 
L 1197 160 
L 1197 0 
C 1402 0 1747 0 1965 0 
C 2182 0 2528 0 2733 0 
L 2733 160 
L 2611 160 
C 2163 160 2150 224 2150 457 
L 2150 1088 
L 2803 1088 
L 2803 1254 
L 2150 1254 
L 2150 4122 
z
M 1798 3703 
L 1798 1254 
L 256 1254 
L 1798 3703 
z
" transform="scale(0.015625)"/>
     </defs>
     <use xlink:href="#CMSY10-6a" transform="scale(0.996264)"/>
     <use xlink:href="#CMMI12-55" transform="translate(27.674085 0) scale(0.996264)"/>
     <use xlink:href="#CMSY10-6a" transform="translate(104.332858 0) scale(0.996264)"/>
     <use xlink:href="#CMR17-3d" transform="translate(159.680951 0) scale(0.996264)"/>
     <use xlink:href="#CMR17-34" transform="translate(259.069748 0) scale(0.996264)"/>
     <use xlink:href="#CMMI12-3a" transform="translate(304.760225 0) scale(0.996264)"/>
     <use xlink:href="#CMR17-30" transform="translate(331.857402 0) scale(0.996264)"/>
    </g>
   </g>
   <g id="text_8">
    <!-- $|U|=8.0$ -->
    <g transform="translate(256.932378 95.018602) scale(0.12 -0.12)">
     <defs>
      <path id="CMR17-38" d="M 1741 2264 
C 2144 2467 2554 2773 2554 3263 
C 2554 3841 1990 4179 1472 4179 
C 890 4179 378 3759 378 3180 
C 378 3021 416 2747 666 2505 
C 730 2442 998 2251 1171 2130 
C 883 1983 211 1634 211 934 
C 211 279 838 -128 1459 -128 
C 2144 -128 2720 362 2720 1010 
C 2720 1590 2330 1857 2074 2029 
L 1741 2264 
z
M 902 2822 
C 851 2854 595 3051 595 3351 
C 595 3739 998 4032 1459 4032 
C 1965 4032 2336 3676 2336 3262 
C 2336 2669 1670 2331 1638 2331 
C 1632 2331 1626 2331 1574 2370 
L 902 2822 
z
M 2080 1519 
C 2176 1449 2483 1240 2483 851 
C 2483 381 2010 25 1472 25 
C 890 25 448 438 448 940 
C 448 1443 838 1862 1280 2060 
L 2080 1519 
z
" transform="scale(0.015625)"/>
     </defs>
     <use xlink:href="#CMSY10-6a" transform="scale(0.996264)"/>
     <use xlink:href="#CMMI12-55" transform="translate(27.674085 0) scale(0.996264)"/>
     <use xlink:href="#CMSY10-6a" transform="translate(104.332858 0) scale(0.996264)"/>
     <use xlink:href="#CMR17-3d" transform="translate(159.680951 0) scale(0.996264)"/>
     <use xlink:href="#CMR17-38" transform="translate(259.069748 0) scale(0.996264)"/>
     <use xlink:href="#CMMI12-3a" transform="translate(304.760225 0) scale(0.996264)"/>
     <use xlink:href="#CMR17-30" transform="translate(331.857402 0) scale(0.996264)"/>
    </g>
   </g>
   <g id="legend_1">
    <g id="line2d_23">
     <path d="M 221.523003 16.787906 
L 233.523003 16.787906 
L 245.523003 16.787906 
" style="fill: none; stroke: #1f77b4; stroke-width: 1.5; stroke-linecap: square"/>
    </g>
    <g id="text_9">
     <!-- \  -->
     <g transform="translate(255.123003 20.987906) scale(0.12 -0.12)"/>
    </g>
    <g id="line2d_24">
     <path d="M 221.523003 33.512501 
L 233.523003 33.512501 
L 245.523003 33.512501 
" style="fill: none; stroke-dasharray: 5.55,2.4; stroke-dashoffset: 0; stroke: #1f77b4; stroke-width: 1.5"/>
    </g>
    <g id="text_10">
     <!-- \  -->
     <g transform="translate(255.123003 37.712501) scale(0.12 -0.12)"/>
    </g>
    <g id="line2d_25">
     <path d="M 221.523003 50.237097 
L 233.523003 50.237097 
L 245.523003 50.237097 
" style="fill: none; stroke: #ff7f0e; stroke-width: 1.5; stroke-linecap: square"/>
    </g>
    <g id="text_11">
     <!-- \  -->
     <g transform="translate(255.123003 54.437097) scale(0.12 -0.12)"/>
    </g>
    <g id="line2d_26">
     <path d="M 221.523003 66.961693 
L 233.523003 66.961693 
L 245.523003 66.961693 
" style="fill: none; stroke-dasharray: 5.55,2.4; stroke-dashoffset: 0; stroke: #ff7f0e; stroke-width: 1.5"/>
    </g>
    <g id="text_12">
     <!-- \  -->
     <g transform="translate(255.123003 71.161693) scale(0.12 -0.12)"/>
    </g>
    <g id="line2d_27">
     <path d="M 221.523003 83.686289 
L 233.523003 83.686289 
L 245.523003 83.686289 
" style="fill: none; stroke: #2ca02c; stroke-width: 1.5; stroke-linecap: square"/>
    </g>
    <g id="text_13">
     <!-- \  -->
     <g transform="translate(255.123003 87.886289) scale(0.12 -0.12)"/>
    </g>
    <g id="line2d_28">
     <path d="M 221.523003 100.410884 
L 233.523003 100.410884 
L 245.523003 100.410884 
" style="fill: none; stroke-dasharray: 5.55,2.4; stroke-dashoffset: 0; stroke: #2ca02c; stroke-width: 1.5"/>
    </g>
    <g id="text_14">
     <!-- \  -->
     <g transform="translate(255.123003 104.610884) scale(0.12 -0.12)"/>
    </g>
   </g>
  </g>
  <g id="axes_2">
   <g id="patch_7">
    <path d="M 43.323003 392.23109 
L 322.323003 392.23109 
L 322.323003 202.923773 
L 43.323003 202.923773 
z
" style="fill: #ffffff"/>
   </g>
   <g id="PolyCollection_7">
    <defs>
     <path id="m8eb7e75dc1" d="M 43.323003 -32.253551 
L 43.323003 -32.253551 
L 47.682378 -32.253551 
L 52.041753 -32.253555 
L 56.401128 -32.253585 
L 60.760503 -32.253763 
L 65.119878 -32.254606 
L 69.479253 -32.257918 
L 73.838628 -32.26897 
L 78.198003 -32.300958 
L 82.557378 -32.382465 
L 86.916753 -32.567469 
L 91.276128 -32.945039 
L 95.635503 -33.643217 
L 99.994878 -34.82032 
L 104.354253 -36.639298 
L 108.713628 -39.227093 
L 113.073003 -42.629257 
L 117.432378 -46.775893 
L 121.791753 -51.474216 
L 126.151128 -56.434773 
L 130.510503 -61.326024 
L 134.869878 -65.841217 
L 139.229253 -69.756673 
L 143.588628 -72.96264 
L 147.948003 -75.456561 
L 152.307378 -77.30043 
L 156.666753 -78.55075 
L 161.026128 -79.24137 
L 165.385503 -79.509054 
L 169.744878 -79.532708 
L 174.104253 -79.44887 
L 178.463628 -79.356506 
L 182.823003 -79.318443 
L 187.182378 -79.356506 
L 191.541753 -79.44887 
L 195.901128 -79.532708 
L 200.260503 -79.509054 
L 204.619878 -79.24137 
L 208.979253 -78.55075 
L 213.338628 -77.30043 
L 217.698003 -75.456561 
L 222.057378 -72.96264 
L 226.416753 -69.756673 
L 230.776128 -65.841217 
L 235.135503 -61.326024 
L 239.494878 -56.434773 
L 243.854253 -51.474216 
L 248.213628 -46.775893 
L 252.573003 -42.629257 
L 256.932378 -39.227093 
L 261.291753 -36.639298 
L 265.651128 -34.82032 
L 270.010503 -33.643217 
L 274.369878 -32.945039 
L 278.729253 -32.567469 
L 283.088628 -32.382465 
L 287.448003 -32.300958 
L 291.807378 -32.26897 
L 296.166753 -32.257918 
L 300.526128 -32.254606 
L 304.885503 -32.253763 
L 309.244878 -32.253585 
L 313.604253 -32.253555 
L 317.963628 -32.253551 
L 322.323003 -32.253551 
L 322.323003 -32.253551 
L 322.323003 -32.253551 
L 317.963628 -32.253552 
L 313.604253 -32.253556 
L 309.244878 -32.25359 
L 304.885503 -32.253791 
L 300.526128 -32.254743 
L 296.166753 -32.258461 
L 291.807378 -32.270811 
L 287.448003 -32.306382 
L 283.088628 -32.396568 
L 278.729253 -32.600191 
L 274.369878 -33.013417 
L 270.010503 -33.772864 
L 265.651128 -35.044762 
L 261.291753 -36.995951 
L 256.932378 -39.749764 
L 252.573003 -43.338767 
L 248.213628 -47.672096 
L 243.854253 -52.53319 
L 239.494878 -57.613366 
L 235.135503 -62.572078 
L 230.776128 -67.103308 
L 226.416753 -70.986068 
L 222.057378 -74.107145 
L 217.698003 -76.459101 
L 213.338628 -78.127848 
L 208.979253 -79.289653 
L 204.619878 -80.163957 
L 200.260503 -80.846809 
L 195.901128 -81.354172 
L 191.541753 -81.703196 
L 187.182378 -81.907763 
L 182.823003 -81.97523 
L 178.463628 -81.907763 
L 174.104253 -81.703196 
L 169.744878 -81.354172 
L 165.385503 -80.846809 
L 161.026128 -80.163957 
L 156.666753 -79.289653 
L 152.307378 -78.127848 
L 147.948003 -76.459101 
L 143.588628 -74.107145 
L 139.229253 -70.986068 
L 134.869878 -67.103308 
L 130.510503 -62.572078 
L 126.151128 -57.613366 
L 121.791753 -52.53319 
L 117.432378 -47.672096 
L 113.073003 -43.338767 
L 108.713628 -39.749764 
L 104.354253 -36.995951 
L 99.994878 -35.044762 
L 95.635503 -33.772864 
L 91.276128 -33.013417 
L 86.916753 -32.600191 
L 82.557378 -32.396568 
L 78.198003 -32.306382 
L 73.838628 -32.270811 
L 69.479253 -32.258461 
L 65.119878 -32.254743 
L 60.760503 -32.253791 
L 56.401128 -32.25359 
L 52.041753 -32.253556 
L 47.682378 -32.253552 
L 43.323003 -32.253551 
z
" style="stroke: #1f77b4; stroke-opacity: 0.5"/>
    </defs>
    <g clip-path="url(#p1d839cb054)">
     <use xlink:href="#m8eb7e75dc1" x="0" y="424.484641" style="fill: #1f77b4; fill-opacity: 0.5; stroke: #1f77b4; stroke-opacity: 0.5"/>
    </g>
   </g>
   <g id="PolyCollection_8">
    <defs>
     <path id="m04cef695f7" d="M 43.323003 -32.743908 
L 43.323003 -32.482475 
L 47.682378 -33.314992 
L 52.041753 -35.215783 
L 56.401128 -38.038053 
L 60.760503 -41.461935 
L 65.119878 -44.557317 
L 69.479253 -47.290614 
L 73.838628 -48.72445 
L 78.198003 -50.271996 
L 82.557378 -51.522481 
L 86.916753 -52.877612 
L 91.276128 -53.04582 
L 95.635503 -53.157834 
L 99.994878 -52.92605 
L 104.354253 -53.396137 
L 108.713628 -53.658186 
L 113.073003 -53.749906 
L 117.432378 -53.226188 
L 121.791753 -52.838513 
L 126.151128 -52.670374 
L 130.510503 -52.741125 
L 134.869878 -52.741091 
L 139.229253 -52.628577 
L 143.588628 -52.907052 
L 147.948003 -53.844167 
L 152.307378 -55.265165 
L 156.666753 -56.420938 
L 161.026128 -56.974683 
L 165.385503 -56.423374 
L 169.744878 -55.51472 
L 174.104253 -55.434554 
L 178.463628 -55.703903 
L 182.823003 -55.953597 
L 187.182378 -55.703903 
L 191.541753 -55.434554 
L 195.901128 -55.51472 
L 200.260503 -56.423374 
L 204.619878 -56.974683 
L 208.979253 -56.420938 
L 213.338628 -55.265165 
L 217.698003 -53.844167 
L 222.057378 -52.907052 
L 226.416753 -52.628577 
L 230.776128 -52.741091 
L 235.135503 -52.741125 
L 239.494878 -52.670374 
L 243.854253 -52.838513 
L 248.213628 -53.226188 
L 252.573003 -53.749906 
L 256.932378 -53.658186 
L 261.291753 -53.396137 
L 265.651128 -52.92605 
L 270.010503 -53.157834 
L 274.369878 -53.04582 
L 278.729253 -52.877612 
L 283.088628 -51.522481 
L 287.448003 -50.271996 
L 291.807378 -48.72445 
L 296.166753 -47.290614 
L 300.526128 -44.557317 
L 304.885503 -41.461935 
L 309.244878 -38.038053 
L 313.604253 -35.215783 
L 317.963628 -33.314992 
L 322.323003 -32.482475 
L 322.323003 -32.743908 
L 322.323003 -32.743908 
L 317.963628 -33.822588 
L 313.604253 -36.158685 
L 309.244878 -39.242974 
L 304.885503 -43.005284 
L 300.526128 -46.141734 
L 296.166753 -48.941237 
L 291.807378 -51.04549 
L 287.448003 -52.885772 
L 283.088628 -53.833921 
L 278.729253 -54.719287 
L 274.369878 -54.915519 
L 270.010503 -55.086826 
L 265.651128 -54.848841 
L 261.291753 -55.303123 
L 256.932378 -55.6396 
L 252.573003 -56.07129 
L 248.213628 -55.945502 
L 243.854253 -55.943683 
L 239.494878 -56.090665 
L 235.135503 -56.413295 
L 230.776128 -56.476282 
L 226.416753 -56.254753 
L 222.057378 -56.412677 
L 217.698003 -57.145157 
L 213.338628 -58.332468 
L 208.979253 -59.067077 
L 204.619878 -58.890115 
L 200.260503 -58.67313 
L 195.901128 -58.865493 
L 191.541753 -59.620352 
L 187.182378 -60.475114 
L 182.823003 -61.0298 
L 178.463628 -60.475114 
L 174.104253 -59.620352 
L 169.744878 -58.865493 
L 165.385503 -58.67313 
L 161.026128 -58.890115 
L 156.666753 -59.067077 
L 152.307378 -58.332468 
L 147.948003 -57.145157 
L 143.588628 -56.412677 
L 139.229253 -56.254753 
L 134.869878 -56.476282 
L 130.510503 -56.413295 
L 126.151128 -56.090665 
L 121.791753 -55.943683 
L 117.432378 -55.945502 
L 113.073003 -56.07129 
L 108.713628 -55.6396 
L 104.354253 -55.303123 
L 99.994878 -54.848841 
L 95.635503 -55.086826 
L 91.276128 -54.915519 
L 86.916753 -54.719287 
L 82.557378 -53.833921 
L 78.198003 -52.885772 
L 73.838628 -51.04549 
L 69.479253 -48.941237 
L 65.119878 -46.141734 
L 60.760503 -43.005284 
L 56.401128 -39.242974 
L 52.041753 -36.158685 
L 47.682378 -33.822588 
L 43.323003 -32.743908 
z
" style="stroke: #ff7f0e; stroke-opacity: 0.5"/>
    </defs>
    <g clip-path="url(#p1d839cb054)">
     <use xlink:href="#m04cef695f7" x="0" y="424.484641" style="fill: #ff7f0e; fill-opacity: 0.5; stroke: #ff7f0e; stroke-opacity: 0.5"/>
    </g>
   </g>
   <g id="PolyCollection_9">
    <defs>
     <path id="m38dc3129a2" d="M 43.323003 -41.375155 
L 43.323003 -40.004642 
L 47.682378 -40.46903 
L 52.041753 -47.057209 
L 56.401128 -45.532442 
L 60.760503 -52.351567 
L 65.119878 -48.499366 
L 69.479253 -53.277946 
L 73.838628 -49.325396 
L 78.198003 -52.658215 
L 82.557378 -49.022021 
L 86.916753 -53.444347 
L 91.276128 -49.74245 
L 95.635503 -54.823063 
L 99.994878 -50.07757 
L 104.354253 -52.868621 
L 108.713628 -49.01592 
L 113.073003 -53.570978 
L 117.432378 -49.850623 
L 121.791753 -53.796767 
L 126.151128 -49.901087 
L 130.510503 -54.148421 
L 134.869878 -49.577786 
L 139.229253 -54.19841 
L 143.588628 -48.344188 
L 147.948003 -52.197371 
L 152.307378 -48.309273 
L 156.666753 -54.997846 
L 161.026128 -48.959353 
L 165.385503 -52.930378 
L 169.744878 -46.342381 
L 174.104253 -49.957148 
L 178.463628 -48.690919 
L 182.823003 -55.407299 
L 187.182378 -48.690919 
L 191.541753 -49.957148 
L 195.901128 -46.342381 
L 200.260503 -52.930378 
L 204.619878 -48.959353 
L 208.979253 -54.997846 
L 213.338628 -48.309273 
L 217.698003 -52.197371 
L 222.057378 -48.344188 
L 226.416753 -54.19841 
L 230.776128 -49.577786 
L 235.135503 -54.148421 
L 239.494878 -49.901087 
L 243.854253 -53.796767 
L 248.213628 -49.850623 
L 252.573003 -53.570978 
L 256.932378 -49.01592 
L 261.291753 -52.868621 
L 265.651128 -50.07757 
L 270.010503 -54.823063 
L 274.369878 -49.74245 
L 278.729253 -53.444347 
L 283.088628 -49.022021 
L 287.448003 -52.658215 
L 291.807378 -49.325396 
L 296.166753 -53.277946 
L 300.526128 -48.499366 
L 304.885503 -52.351567 
L 309.244878 -45.532442 
L 313.604253 -47.057209 
L 317.963628 -40.46903 
L 322.323003 -40.004642 
L 322.323003 -41.375155 
L 322.323003 -41.375155 
L 317.963628 -41.749004 
L 313.604253 -49.322288 
L 309.244878 -47.732097 
L 304.885503 -54.199006 
L 300.526128 -50.832753 
L 296.166753 -56.069284 
L 291.807378 -51.903367 
L 287.448003 -55.247662 
L 283.088628 -51.500127 
L 278.729253 -56.346678 
L 274.369878 -52.314555 
L 270.010503 -57.673715 
L 265.651128 -52.938641 
L 261.291753 -56.024899 
L 256.932378 -51.750954 
L 252.573003 -57.274877 
L 248.213628 -52.990138 
L 243.854253 -56.715055 
L 239.494878 -53.387818 
L 235.135503 -57.154769 
L 230.776128 -52.913702 
L 226.416753 -57.2712 
L 222.057378 -51.63895 
L 217.698003 -55.465069 
L 213.338628 -51.387636 
L 208.979253 -58.031128 
L 204.619878 -52.745809 
L 200.260503 -56.243276 
L 195.901128 -50.200775 
L 191.541753 -53.82488 
L 187.182378 -52.431758 
L 182.823003 -60.452386 
L 178.463628 -52.431758 
L 174.104253 -53.82488 
L 169.744878 -50.200775 
L 165.385503 -56.243276 
L 161.026128 -52.745809 
L 156.666753 -58.031128 
L 152.307378 -51.387636 
L 147.948003 -55.465069 
L 143.588628 -51.63895 
L 139.229253 -57.2712 
L 134.869878 -52.913702 
L 130.510503 -57.154769 
L 126.151128 -53.387818 
L 121.791753 -56.715055 
L 117.432378 -52.990138 
L 113.073003 -57.274877 
L 108.713628 -51.750954 
L 104.354253 -56.024899 
L 99.994878 -52.938641 
L 95.635503 -57.673715 
L 91.276128 -52.314555 
L 86.916753 -56.346678 
L 82.557378 -51.500127 
L 78.198003 -55.247662 
L 73.838628 -51.903367 
L 69.479253 -56.069284 
L 65.119878 -50.832753 
L 60.760503 -54.199006 
L 56.401128 -47.732097 
L 52.041753 -49.322288 
L 47.682378 -41.749004 
L 43.323003 -41.375155 
z
" style="stroke: #2ca02c; stroke-opacity: 0.5"/>
    </defs>
    <g clip-path="url(#p1d839cb054)">
     <use xlink:href="#m38dc3129a2" x="0" y="424.484641" style="fill: #2ca02c; fill-opacity: 0.5; stroke: #2ca02c; stroke-opacity: 0.5"/>
    </g>
   </g>
   <g id="patch_8">
    <path d="M 130.510503 379.610602 
L 235.135503 379.610602 
L 235.135503 341.749139 
L 130.510503 341.749139 
L 130.510503 379.610602 
z
" clip-path="url(#p1d839cb054)" style="fill: none; stroke-dasharray: 3.7,1.6; stroke-dashoffset: 0; stroke: #808080; stroke-linejoin: miter"/>
   </g>
   <g id="matplotlib.axis_3">
    <g id="xtick_1">
     <g id="line2d_29">
      <defs>
       <path id="m4f8f77f30d" d="M 0 0 
L 0 3.5 
" style="stroke: #000000; stroke-width: 0.8"/>
      </defs>
      <g>
       <use xlink:href="#m4f8f77f30d" x="43.323003" y="392.23109" style="stroke: #000000; stroke-width: 0.8"/>
      </g>
     </g>
     <g id="text_15">
      <!-- $\mathdefault{0}$ -->
      <g transform="translate(40.396507 407.53327) scale(0.12 -0.12)">
       <use xlink:href="#CMR17-30" transform="scale(0.996264)"/>
      </g>
     </g>
    </g>
    <g id="xtick_2">
     <g id="line2d_30">
      <g>
       <use xlink:href="#m4f8f77f30d" x="113.073003" y="392.23109" style="stroke: #000000; stroke-width: 0.8"/>
      </g>
     </g>
     <g id="text_16">
      <!-- $\mathdefault{16}$ -->
      <g transform="translate(107.220012 407.53327) scale(0.12 -0.12)">
       <defs>
        <path id="CMR17-36" d="M 678 2176 
C 678 3690 1395 4032 1811 4032 
C 1946 4032 2272 4009 2400 3776 
C 2298 3776 2106 3776 2106 3553 
C 2106 3381 2246 3323 2336 3323 
C 2394 3323 2566 3348 2566 3560 
C 2566 3954 2246 4179 1805 4179 
C 1043 4179 243 3390 243 1984 
C 243 253 966 -128 1478 -128 
C 2099 -128 2688 427 2688 1283 
C 2688 2081 2170 2662 1517 2662 
C 1126 2662 838 2407 678 1960 
L 678 2176 
z
M 1478 25 
C 691 25 691 1200 691 1436 
C 691 1896 909 2560 1504 2560 
C 1613 2560 1926 2560 2138 2120 
C 2253 1870 2253 1609 2253 1289 
C 2253 944 2253 690 2118 434 
C 1978 171 1773 25 1478 25 
z
" transform="scale(0.015625)"/>
       </defs>
       <use xlink:href="#CMR17-31" transform="scale(0.996264)"/>
       <use xlink:href="#CMR17-36" transform="translate(45.690477 0) scale(0.996264)"/>
      </g>
     </g>
    </g>
    <g id="xtick_3">
     <g id="line2d_31">
      <g>
       <use xlink:href="#m4f8f77f30d" x="182.823003" y="392.23109" style="stroke: #000000; stroke-width: 0.8"/>
      </g>
     </g>
     <g id="text_17">
      <!-- $\mathdefault{32}$ -->
      <g transform="translate(176.970012 407.53327) scale(0.12 -0.12)">
       <defs>
        <path id="CMR17-33" d="M 1414 2157 
C 1984 2157 2234 1662 2234 1090 
C 2234 320 1824 25 1453 25 
C 1114 25 563 194 390 693 
C 422 680 454 680 486 680 
C 640 680 755 782 755 948 
C 755 1133 614 1216 486 1216 
C 378 1216 211 1165 211 926 
C 211 335 787 -128 1466 -128 
C 2176 -128 2720 430 2720 1085 
C 2720 1707 2208 2157 1600 2227 
C 2086 2328 2554 2756 2554 3329 
C 2554 3820 2048 4179 1472 4179 
C 890 4179 378 3829 378 3329 
C 378 3110 544 3072 627 3072 
C 762 3072 877 3155 877 3321 
C 877 3486 762 3569 627 3569 
C 602 3569 570 3569 544 3557 
C 730 3959 1235 4032 1459 4032 
C 1683 4032 2106 3925 2106 3320 
C 2106 3143 2080 2828 1862 2550 
C 1670 2304 1453 2304 1242 2284 
C 1210 2284 1062 2269 1037 2269 
C 992 2263 966 2257 966 2208 
C 966 2163 973 2157 1101 2157 
L 1414 2157 
z
" transform="scale(0.015625)"/>
        <path id="CMR17-32" d="M 2669 989 
L 2554 989 
C 2490 536 2438 459 2413 420 
C 2381 369 1920 369 1830 369 
L 602 369 
C 832 619 1280 1072 1824 1597 
C 2214 1967 2669 2402 2669 3035 
C 2669 3790 2067 4224 1395 4224 
C 691 4224 262 3604 262 3030 
C 262 2780 448 2748 525 2748 
C 589 2748 781 2787 781 3010 
C 781 3207 614 3264 525 3264 
C 486 3264 448 3258 422 3245 
C 544 3790 915 4058 1306 4058 
C 1862 4058 2227 3617 2227 3035 
C 2227 2479 1901 2000 1536 1584 
L 262 146 
L 262 0 
L 2515 0 
L 2669 989 
z
" transform="scale(0.015625)"/>
       </defs>
       <use xlink:href="#CMR17-33" transform="scale(0.996264)"/>
       <use xlink:href="#CMR17-32" transform="translate(45.690477 0) scale(0.996264)"/>
      </g>
     </g>
    </g>
    <g id="xtick_4">
     <g id="line2d_32">
      <g>
       <use xlink:href="#m4f8f77f30d" x="252.573003" y="392.23109" style="stroke: #000000; stroke-width: 0.8"/>
      </g>
     </g>
     <g id="text_18">
      <!-- $\mathdefault{48}$ -->
      <g transform="translate(246.720012 407.53327) scale(0.12 -0.12)">
       <use xlink:href="#CMR17-34" transform="scale(0.996264)"/>
       <use xlink:href="#CMR17-38" transform="translate(45.690477 0) scale(0.996264)"/>
      </g>
     </g>
    </g>
    <g id="xtick_5">
     <g id="line2d_33">
      <g>
       <use xlink:href="#m4f8f77f30d" x="322.323003" y="392.23109" style="stroke: #000000; stroke-width: 0.8"/>
      </g>
     </g>
     <g id="text_19">
      <!-- $\mathdefault{64}$ -->
      <g transform="translate(316.470012 407.53327) scale(0.12 -0.12)">
       <use xlink:href="#CMR17-36" transform="scale(0.996264)"/>
       <use xlink:href="#CMR17-34" transform="translate(45.690477 0) scale(0.996264)"/>
      </g>
     </g>
    </g>
    <g id="xtick_6">
     <g id="line2d_34">
      <defs>
       <path id="m75ace0c2d2" d="M 0 0 
L 0 2 
" style="stroke: #000000; stroke-width: 0.6"/>
      </defs>
      <g>
       <use xlink:href="#m75ace0c2d2" x="60.760503" y="392.23109" style="stroke: #000000; stroke-width: 0.6"/>
      </g>
     </g>
    </g>
    <g id="xtick_7">
     <g id="line2d_35">
      <g>
       <use xlink:href="#m75ace0c2d2" x="78.198003" y="392.23109" style="stroke: #000000; stroke-width: 0.6"/>
      </g>
     </g>
    </g>
    <g id="xtick_8">
     <g id="line2d_36">
      <g>
       <use xlink:href="#m75ace0c2d2" x="95.635503" y="392.23109" style="stroke: #000000; stroke-width: 0.6"/>
      </g>
     </g>
    </g>
    <g id="xtick_9">
     <g id="line2d_37">
      <g>
       <use xlink:href="#m75ace0c2d2" x="130.510503" y="392.23109" style="stroke: #000000; stroke-width: 0.6"/>
      </g>
     </g>
    </g>
    <g id="xtick_10">
     <g id="line2d_38">
      <g>
       <use xlink:href="#m75ace0c2d2" x="147.948003" y="392.23109" style="stroke: #000000; stroke-width: 0.6"/>
      </g>
     </g>
    </g>
    <g id="xtick_11">
     <g id="line2d_39">
      <g>
       <use xlink:href="#m75ace0c2d2" x="165.385503" y="392.23109" style="stroke: #000000; stroke-width: 0.6"/>
      </g>
     </g>
    </g>
    <g id="xtick_12">
     <g id="line2d_40">
      <g>
       <use xlink:href="#m75ace0c2d2" x="200.260503" y="392.23109" style="stroke: #000000; stroke-width: 0.6"/>
      </g>
     </g>
    </g>
    <g id="xtick_13">
     <g id="line2d_41">
      <g>
       <use xlink:href="#m75ace0c2d2" x="217.698003" y="392.23109" style="stroke: #000000; stroke-width: 0.6"/>
      </g>
     </g>
    </g>
    <g id="xtick_14">
     <g id="line2d_42">
      <g>
       <use xlink:href="#m75ace0c2d2" x="235.135503" y="392.23109" style="stroke: #000000; stroke-width: 0.6"/>
      </g>
     </g>
    </g>
    <g id="xtick_15">
     <g id="line2d_43">
      <g>
       <use xlink:href="#m75ace0c2d2" x="270.010503" y="392.23109" style="stroke: #000000; stroke-width: 0.6"/>
      </g>
     </g>
    </g>
    <g id="xtick_16">
     <g id="line2d_44">
      <g>
       <use xlink:href="#m75ace0c2d2" x="287.448003" y="392.23109" style="stroke: #000000; stroke-width: 0.6"/>
      </g>
     </g>
    </g>
    <g id="xtick_17">
     <g id="line2d_45">
      <g>
       <use xlink:href="#m75ace0c2d2" x="304.885503" y="392.23109" style="stroke: #000000; stroke-width: 0.6"/>
      </g>
     </g>
    </g>
    <g id="text_20">
     <!-- $n_A$ -->
     <g transform="translate(176.157713 422.160045) scale(0.12 -0.12)">
      <defs>
       <path id="CMMI12-41" d="M 1088 691 
C 864 314 646 186 339 186 
C 269 180 218 180 218 58 
C 218 24 250 0 294 0 
C 410 0 698 0 813 0 
C 998 0 1203 0 1382 0 
C 1421 0 1498 0 1498 122 
C 1498 180 1446 186 1408 186 
C 1261 186 1139 236 1139 388 
C 1139 476 1178 546 1261 685 
L 1747 1479 
L 3379 1479 
C 3386 1423 3386 1373 3392 1316 
C 3411 1152 3488 495 3488 376 
C 3488 186 3162 186 3059 186 
C 2989 186 2918 186 2918 70 
C 2918 0 2976 0 3014 0 
C 3123 0 3251 0 3360 0 
L 3725 0 
C 4115 0 4397 0 4403 0 
C 4448 0 4518 0 4518 122 
C 4518 186 4461 186 4365 186 
C 4013 186 4006 244 3987 434 
L 3597 4404 
C 3584 4531 3558 4544 3488 4544 
C 3424 4544 3386 4531 3328 4435 
L 1088 691 
z
M 1856 1664 
L 3142 3819 
L 3360 1664 
L 1856 1664 
z
" transform="scale(0.015625)"/>
      </defs>
      <use xlink:href="#CMMI12-6e" transform="scale(0.996264)"/>
      <use xlink:href="#CMMI12-41" transform="translate(58.230047 -14.943915) scale(0.697382)"/>
     </g>
    </g>
   </g>
   <g id="matplotlib.axis_4">
    <g id="ytick_17">
     <g id="line2d_46">
      <g>
       <use xlink:href="#m1e5b7aeb96" x="43.323003" y="392.23109" style="stroke: #000000; stroke-width: 0.8"/>
      </g>
     </g>
     <g id="text_21">
      <!-- $\mathdefault{0.00}$ -->
      <g transform="translate(15.512371 396.38218) scale(0.12 -0.12)">
       <use xlink:href="#CMR17-30" transform="scale(0.996264)"/>
       <use xlink:href="#CMMI12-3a" transform="translate(45.690477 0) scale(0.996264)"/>
       <use xlink:href="#CMR17-30" transform="translate(72.787654 0) scale(0.996264)"/>
       <use xlink:href="#CMR17-30" transform="translate(118.478131 0) scale(0.996264)"/>
      </g>
     </g>
    </g>
    <g id="ytick_18">
     <g id="line2d_47">
      <g>
       <use xlink:href="#m1e5b7aeb96" x="43.323003" y="329.128651" style="stroke: #000000; stroke-width: 0.8"/>
      </g>
     </g>
     <g id="text_22">
      <!-- $\mathdefault{0.05}$ -->
      <g transform="translate(15.512371 333.279741) scale(0.12 -0.12)">
       <use xlink:href="#CMR17-30" transform="scale(0.996264)"/>
       <use xlink:href="#CMMI12-3a" transform="translate(45.690477 0) scale(0.996264)"/>
       <use xlink:href="#CMR17-30" transform="translate(72.787654 0) scale(0.996264)"/>
       <use xlink:href="#CMR17-35" transform="translate(118.478131 0) scale(0.996264)"/>
      </g>
     </g>
    </g>
    <g id="ytick_19">
     <g id="line2d_48">
      <g>
       <use xlink:href="#m1e5b7aeb96" x="43.323003" y="266.026212" style="stroke: #000000; stroke-width: 0.8"/>
      </g>
     </g>
     <g id="text_23">
      <!-- $\mathdefault{0.10}$ -->
      <g transform="translate(15.512371 270.177302) scale(0.12 -0.12)">
       <use xlink:href="#CMR17-30" transform="scale(0.996264)"/>
       <use xlink:href="#CMMI12-3a" transform="translate(45.690477 0) scale(0.996264)"/>
       <use xlink:href="#CMR17-31" transform="translate(72.787654 0) scale(0.996264)"/>
       <use xlink:href="#CMR17-30" transform="translate(118.478131 0) scale(0.996264)"/>
      </g>
     </g>
    </g>
    <g id="ytick_20">
     <g id="line2d_49">
      <g>
       <use xlink:href="#m1e5b7aeb96" x="43.323003" y="202.923773" style="stroke: #000000; stroke-width: 0.8"/>
      </g>
     </g>
     <g id="text_24">
      <!-- $\mathdefault{0.15}$ -->
      <g transform="translate(15.512371 207.074863) scale(0.12 -0.12)">
       <use xlink:href="#CMR17-30" transform="scale(0.996264)"/>
       <use xlink:href="#CMMI12-3a" transform="translate(45.690477 0) scale(0.996264)"/>
       <use xlink:href="#CMR17-31" transform="translate(72.787654 0) scale(0.996264)"/>
       <use xlink:href="#CMR17-35" transform="translate(118.478131 0) scale(0.996264)"/>
      </g>
     </g>
    </g>
    <g id="ytick_21">
     <g id="line2d_50">
      <g>
       <use xlink:href="#m1907023b2f" x="43.323003" y="379.610602" style="stroke: #000000; stroke-width: 0.6"/>
      </g>
     </g>
    </g>
    <g id="ytick_22">
     <g id="line2d_51">
      <g>
       <use xlink:href="#m1907023b2f" x="43.323003" y="366.990114" style="stroke: #000000; stroke-width: 0.6"/>
      </g>
     </g>
    </g>
    <g id="ytick_23">
     <g id="line2d_52">
      <g>
       <use xlink:href="#m1907023b2f" x="43.323003" y="354.369626" style="stroke: #000000; stroke-width: 0.6"/>
      </g>
     </g>
    </g>
    <g id="ytick_24">
     <g id="line2d_53">
      <g>
       <use xlink:href="#m1907023b2f" x="43.323003" y="341.749139" style="stroke: #000000; stroke-width: 0.6"/>
      </g>
     </g>
    </g>
    <g id="ytick_25">
     <g id="line2d_54">
      <g>
       <use xlink:href="#m1907023b2f" x="43.323003" y="316.508163" style="stroke: #000000; stroke-width: 0.6"/>
      </g>
     </g>
    </g>
    <g id="ytick_26">
     <g id="line2d_55">
      <g>
       <use xlink:href="#m1907023b2f" x="43.323003" y="303.887675" style="stroke: #000000; stroke-width: 0.6"/>
      </g>
     </g>
    </g>
    <g id="ytick_27">
     <g id="line2d_56">
      <g>
       <use xlink:href="#m1907023b2f" x="43.323003" y="291.267187" style="stroke: #000000; stroke-width: 0.6"/>
      </g>
     </g>
    </g>
    <g id="ytick_28">
     <g id="line2d_57">
      <g>
       <use xlink:href="#m1907023b2f" x="43.323003" y="278.6467" style="stroke: #000000; stroke-width: 0.6"/>
      </g>
     </g>
    </g>
    <g id="ytick_29">
     <g id="line2d_58">
      <g>
       <use xlink:href="#m1907023b2f" x="43.323003" y="253.405724" style="stroke: #000000; stroke-width: 0.6"/>
      </g>
     </g>
    </g>
    <g id="ytick_30">
     <g id="line2d_59">
      <g>
       <use xlink:href="#m1907023b2f" x="43.323003" y="240.785236" style="stroke: #000000; stroke-width: 0.6"/>
      </g>
     </g>
    </g>
    <g id="ytick_31">
     <g id="line2d_60">
      <g>
       <use xlink:href="#m1907023b2f" x="43.323003" y="228.164748" style="stroke: #000000; stroke-width: 0.6"/>
      </g>
     </g>
    </g>
    <g id="ytick_32">
     <g id="line2d_61">
      <g>
       <use xlink:href="#m1907023b2f" x="43.323003" y="215.544261" style="stroke: #000000; stroke-width: 0.6"/>
      </g>
     </g>
    </g>
    <g id="text_25">
     <!-- $P_{n,2}$ -->
     <g transform="translate(8.169362 307.21242) rotate(-90) scale(0.12 -0.12)">
      <use xlink:href="#CMMI12-50" transform="scale(0.996264)"/>
      <use xlink:href="#CMMI12-6e" transform="translate(62.877232 -14.943915) scale(0.697382)"/>
      <use xlink:href="#CMMI12-3b" transform="translate(103.638075 -14.943915) scale(0.697382)"/>
      <use xlink:href="#CMR17-32" transform="translate(122.606008 -14.943915) scale(0.697382)"/>
     </g>
    </g>
   </g>
   <g id="line2d_62">
    <path d="M 43.323003 392.23109 
L 47.682378 392.23109 
L 52.041753 392.231086 
L 56.401128 392.231054 
L 60.760503 392.230864 
L 65.119878 392.229966 
L 69.479253 392.226452 
L 73.838628 392.214751 
L 78.198003 392.180971 
L 82.557378 392.095124 
L 86.916753 391.900811 
L 91.276128 391.505413 
L 95.635503 390.776601 
L 99.994878 389.5521 
L 104.354253 387.667017 
L 108.713628 384.996213 
L 113.073003 381.500629 
L 117.432378 377.260646 
L 121.791753 372.480938 
L 126.151128 367.460572 
L 130.510503 362.53559 
L 134.869878 358.012379 
L 139.229253 354.11327 
L 143.588628 350.949749 
L 147.948003 348.52681 
L 152.307378 346.770502 
L 156.666753 345.56444 
L 161.026128 344.781978 
L 165.385503 344.306709 
L 169.744878 344.041201 
L 174.104253 343.908608 
L 178.463628 343.852507 
L 182.823003 343.837804 
L 187.182378 343.852507 
L 191.541753 343.908608 
L 195.901128 344.041201 
L 200.260503 344.306709 
L 204.619878 344.781978 
L 208.979253 345.56444 
L 213.338628 346.770502 
L 217.698003 348.52681 
L 222.057378 350.949749 
L 226.416753 354.11327 
L 230.776128 358.012379 
L 235.135503 362.53559 
L 239.494878 367.460572 
L 243.854253 372.480938 
L 248.213628 377.260646 
L 252.573003 381.500629 
L 256.932378 384.996213 
L 261.291753 387.667017 
L 265.651128 389.5521 
L 270.010503 390.776601 
L 274.369878 391.505413 
L 278.729253 391.900811 
L 283.088628 392.095124 
L 287.448003 392.180971 
L 291.807378 392.214751 
L 296.166753 392.226452 
L 300.526128 392.229966 
L 304.885503 392.230864 
L 309.244878 392.231054 
L 313.604253 392.231086 
L 317.963628 392.23109 
L 322.323003 392.23109 
" clip-path="url(#p1d839cb054)" style="fill: none; stroke: #1f77b4; stroke-width: 1.5; stroke-linecap: square"/>
   </g>
   <g id="line2d_63">
    <path d="M 43.323003 391.87145 
L 47.682378 390.915851 
L 52.041753 388.797407 
L 56.401128 385.844127 
L 60.760503 382.251032 
L 65.119878 379.135115 
L 69.479253 376.368715 
L 73.838628 374.599671 
L 78.198003 372.905757 
L 82.557378 371.80644 
L 86.916753 370.686192 
L 91.276128 370.503972 
L 95.635503 370.362311 
L 99.994878 370.597195 
L 104.354253 370.135011 
L 108.713628 369.835748 
L 113.073003 369.574043 
L 117.432378 369.898796 
L 121.791753 370.093543 
L 126.151128 370.104121 
L 130.510503 369.907431 
L 134.869878 369.875955 
L 139.229253 370.042976 
L 143.588628 369.824776 
L 147.948003 368.989979 
L 152.307378 367.685824 
L 156.666753 366.740634 
L 161.026128 366.552242 
L 165.385503 366.936389 
L 169.744878 367.294535 
L 174.104253 366.957188 
L 178.463628 366.395132 
L 182.823003 365.992943 
L 187.182378 366.395132 
L 191.541753 366.957188 
L 195.901128 367.294535 
L 200.260503 366.936389 
L 204.619878 366.552242 
L 208.979253 366.740634 
L 213.338628 367.685824 
L 217.698003 368.989979 
L 222.057378 369.824776 
L 226.416753 370.042976 
L 230.776128 369.875955 
L 235.135503 369.907431 
L 239.494878 370.104121 
L 243.854253 370.093543 
L 248.213628 369.898796 
L 252.573003 369.574043 
L 256.932378 369.835748 
L 261.291753 370.135011 
L 265.651128 370.597195 
L 270.010503 370.362311 
L 274.369878 370.503972 
L 278.729253 370.686192 
L 283.088628 371.80644 
L 287.448003 372.905757 
L 291.807378 374.599671 
L 296.166753 376.368715 
L 300.526128 379.135115 
L 304.885503 382.251032 
L 309.244878 385.844127 
L 313.604253 388.797407 
L 317.963628 390.915851 
L 322.323003 391.87145 
" clip-path="url(#p1d839cb054)" style="fill: none; stroke: #ff7f0e; stroke-width: 1.5; stroke-linecap: square"/>
   </g>
   <g id="line2d_64">
    <path d="M 43.323003 383.794742 
L 47.682378 383.375624 
L 52.041753 376.294892 
L 56.401128 377.852372 
L 60.760503 371.209355 
L 65.119878 374.818582 
L 69.479253 369.811026 
L 73.838628 373.870259 
L 78.198003 370.531702 
L 82.557378 374.223567 
L 86.916753 369.589129 
L 91.276128 373.456138 
L 95.635503 368.236252 
L 99.994878 372.976535 
L 104.354253 370.037881 
L 108.713628 374.101204 
L 113.073003 369.061714 
L 117.432378 373.06426 
L 121.791753 369.22873 
L 126.151128 372.840189 
L 130.510503 368.833046 
L 134.869878 373.238897 
L 139.229253 368.749836 
L 143.588628 374.493072 
L 147.948003 370.653421 
L 152.307378 374.636187 
L 156.666753 367.970154 
L 161.026128 373.63206 
L 165.385503 369.897814 
L 169.744878 376.213063 
L 174.104253 372.593627 
L 178.463628 373.923302 
L 182.823003 366.554799 
L 187.182378 373.923302 
L 191.541753 372.593627 
L 195.901128 376.213063 
L 200.260503 369.897814 
L 204.619878 373.63206 
L 208.979253 367.970154 
L 213.338628 374.636187 
L 217.698003 370.653421 
L 222.057378 374.493072 
L 226.416753 368.749836 
L 230.776128 373.238897 
L 235.135503 368.833046 
L 239.494878 372.840189 
L 243.854253 369.22873 
L 248.213628 373.06426 
L 252.573003 369.061714 
L 256.932378 374.101204 
L 261.291753 370.037881 
L 265.651128 372.976535 
L 270.010503 368.236252 
L 274.369878 373.456138 
L 278.729253 369.589129 
L 283.088628 374.223567 
L 287.448003 370.531702 
L 291.807378 373.870259 
L 296.166753 369.811026 
L 300.526128 374.818582 
L 304.885503 371.209355 
L 309.244878 377.852372 
L 313.604253 376.294892 
L 317.963628 383.375624 
L 322.323003 383.794742 
" clip-path="url(#p1d839cb054)" style="fill: none; stroke: #2ca02c; stroke-width: 1.5; stroke-linecap: square"/>
   </g>
   <g id="patch_9">
    <path d="M 43.323003 392.23109 
L 43.323003 202.923773 
" style="fill: none; stroke: #000000; stroke-width: 0.8; stroke-linejoin: miter; stroke-linecap: square"/>
   </g>
   <g id="patch_10">
    <path d="M 322.323003 392.23109 
L 322.323003 202.923773 
" style="fill: none; stroke: #000000; stroke-width: 0.8; stroke-linejoin: miter; stroke-linecap: square"/>
   </g>
   <g id="patch_11">
    <path d="M 43.323003 392.23109 
L 322.323003 392.23109 
" style="fill: none; stroke: #000000; stroke-width: 0.8; stroke-linejoin: miter; stroke-linecap: square"/>
   </g>
   <g id="patch_12">
    <path d="M 43.323003 202.923773 
L 322.323003 202.923773 
" style="fill: none; stroke: #000000; stroke-width: 0.8; stroke-linejoin: miter; stroke-linecap: square"/>
   </g>
  </g>
  <g id="axes_3">
   <g id="patch_13">
    <path d="M 193.983003 290.005139 
L 319.533003 290.005139 
L 319.533003 204.816846 
L 193.983003 204.816846 
z
" style="fill: #ffffff"/>
   </g>
   <g id="patch_14">
    <path d="M 193.983003 204.816846 
L 130.510503 341.749139 
" style="fill: none; stroke-dasharray: 3.7,1.6; stroke-dashoffset: 0; stroke: #808080; stroke-linejoin: miter"/>
   </g>
   <g id="patch_15">
    <path d="M 319.533003 290.005139 
L 235.135503 379.610602 
" style="fill: none; stroke-dasharray: 3.7,1.6; stroke-dashoffset: 0; stroke: #808080; stroke-linejoin: miter"/>
   </g>
   <g id="PolyCollection_10">
    <path d="M 89.358003 318.401236 
L 89.358003 318.401236 
L 94.589253 318.401236 
L 99.820503 318.401227 
L 105.051753 318.40116 
L 110.283003 318.40076 
L 115.514253 318.398862 
L 120.745503 318.391411 
L 125.976753 318.366544 
L 131.208003 318.294571 
L 136.439253 318.111179 
L 141.670503 317.694922 
L 146.901753 316.845388 
L 152.133003 315.274489 
L 157.364253 312.626007 
L 162.595503 308.533305 
L 167.826753 302.710767 
L 173.058003 295.055898 
L 178.289253 285.725966 
L 183.520503 275.154741 
L 188.751753 263.993488 
L 193.983003 252.988173 
L 199.214253 242.828989 
L 204.445503 234.019211 
L 209.676753 226.805787 
L 214.908003 221.194465 
L 220.139253 217.045759 
L 225.370503 214.232538 
L 230.601753 212.678645 
L 235.833003 212.076354 
L 241.064253 212.023134 
L 246.295503 212.211769 
L 251.526753 212.419588 
L 256.758003 212.505229 
L 261.989253 212.419588 
L 267.220503 212.211769 
L 272.451753 212.023134 
L 277.683003 212.076354 
L 282.914253 212.678645 
L 288.145503 214.232538 
L 293.376753 217.045759 
L 298.608003 221.194465 
L 303.839253 226.805787 
L 309.070503 234.019211 
L 314.301753 242.828989 
L 319.533003 252.988173 
L 324.764253 263.993488 
L 329.995503 275.154741 
L 335.226753 285.725966 
L 340.458003 295.055898 
L 345.689253 302.710767 
L 350.920503 308.533305 
L 356.151753 312.626007 
L 361.383003 315.274489 
L 366.614253 316.845388 
L 371.845503 317.694922 
L 377.076753 318.111179 
L 382.308003 318.294571 
L 387.539253 318.366544 
L 392.770503 318.391411 
L 398.001753 318.398862 
L 403.233003 318.40076 
L 408.464253 318.40116 
L 413.695503 318.401227 
L 418.926753 318.401236 
L 424.158003 318.401236 
L 424.158003 318.401236 
L 424.158003 318.401236 
L 418.926753 318.401235 
L 413.695503 318.401226 
L 408.464253 318.40115 
L 403.233003 318.400696 
L 398.001753 318.398555 
L 392.770503 318.390189 
L 387.539253 318.362402 
L 382.308003 318.282367 
L 377.076753 318.079448 
L 371.845503 317.621297 
L 366.614253 316.691538 
L 361.383003 314.982782 
L 356.151753 312.121013 
L 350.920503 307.730837 
L 345.689253 301.534758 
L 340.458003 293.459501 
L 335.226753 283.709511 
L 329.995503 272.772049 
L 324.764253 261.341654 
L 319.533003 250.184551 
L 314.301753 239.989284 
L 309.070503 231.253074 
L 303.839253 224.230649 
L 298.608003 218.938749 
L 293.376753 215.184068 
L 288.145503 212.570008 
L 282.914253 210.602823 
L 277.683003 209.066406 
L 272.451753 207.924838 
L 267.220503 207.139536 
L 261.989253 206.67926 
L 256.758003 206.527458 
L 251.526753 206.67926 
L 246.295503 207.139536 
L 241.064253 207.924838 
L 235.833003 209.066406 
L 230.601753 210.602823 
L 225.370503 212.570008 
L 220.139253 215.184068 
L 214.908003 218.938749 
L 209.676753 224.230649 
L 204.445503 231.253074 
L 199.214253 239.989284 
L 193.983003 250.184551 
L 188.751753 261.341654 
L 183.520503 272.772049 
L 178.289253 283.709511 
L 173.058003 293.459501 
L 167.826753 301.534758 
L 162.595503 307.730837 
L 157.364253 312.121013 
L 152.133003 314.982782 
L 146.901753 316.691538 
L 141.670503 317.621297 
L 136.439253 318.079448 
L 131.208003 318.282367 
L 125.976753 318.362402 
L 120.745503 318.390189 
L 115.514253 318.398555 
L 110.283003 318.400696 
L 105.051753 318.40115 
L 99.820503 318.401226 
L 94.589253 318.401235 
L 89.358003 318.401236 
z
" clip-path="url(#pa0d393f7cb)" style="fill: #1f77b4; fill-opacity: 0.5; stroke: #1f77b4; stroke-opacity: 0.5"/>
   </g>
   <g id="PolyCollection_11">
    <path d="M 89.358003 317.297934 
L 89.358003 317.886157 
L 94.589253 316.012993 
L 99.820503 311.736214 
L 105.051753 305.386106 
L 110.283003 297.682373 
L 115.514253 290.717763 
L 120.745503 284.567844 
L 125.976753 281.341715 
L 131.208003 277.859734 
L 136.439253 275.046145 
L 141.670503 271.997099 
L 146.901753 271.618632 
L 152.133003 271.366599 
L 157.364253 271.888113 
L 162.595503 270.830419 
L 167.826753 270.240807 
L 173.058003 270.034438 
L 178.289253 271.212804 
L 183.520503 272.085073 
L 188.751753 272.463384 
L 193.983003 272.304195 
L 199.214253 272.304272 
L 204.445503 272.557428 
L 209.676753 271.930859 
L 214.908003 269.822351 
L 220.139253 266.625104 
L 225.370503 264.024616 
L 230.601753 262.77869 
L 235.833003 264.019134 
L 241.064253 266.063607 
L 246.295503 266.243979 
L 251.526753 265.637944 
L 256.758003 265.076134 
L 261.989253 265.637944 
L 267.220503 266.243979 
L 272.451753 266.063607 
L 277.683003 264.019134 
L 282.914253 262.77869 
L 288.145503 264.024616 
L 293.376753 266.625104 
L 298.608003 269.822351 
L 303.839253 271.930859 
L 309.070503 272.557428 
L 314.301753 272.304272 
L 319.533003 272.304195 
L 324.764253 272.463384 
L 329.995503 272.085073 
L 335.226753 271.212804 
L 340.458003 270.034438 
L 345.689253 270.240807 
L 350.920503 270.830419 
L 356.151753 271.888113 
L 361.383003 271.366599 
L 366.614253 271.618632 
L 371.845503 271.997099 
L 377.076753 275.046145 
L 382.308003 277.859734 
L 387.539253 281.341715 
L 392.770503 284.567844 
L 398.001753 290.717763 
L 403.233003 297.682373 
L 408.464253 305.386106 
L 413.695503 311.736214 
L 418.926753 316.012993 
L 424.158003 317.886157 
L 424.158003 317.297934 
L 424.158003 317.297934 
L 418.926753 314.870903 
L 413.695503 309.614685 
L 408.464253 302.675035 
L 403.233003 294.209837 
L 398.001753 287.152824 
L 392.770503 280.853943 
L 387.539253 276.119375 
L 382.308003 271.97874 
L 377.076753 269.845403 
L 371.845503 267.853331 
L 366.614253 267.411808 
L 361.383003 267.026368 
L 356.151753 267.561834 
L 350.920503 266.5397 
L 345.689253 265.782626 
L 340.458003 264.811325 
L 335.226753 265.094346 
L 329.995503 265.098441 
L 324.764253 264.76773 
L 319.533003 264.041813 
L 314.301753 263.900092 
L 309.070503 264.398533 
L 303.839253 264.043203 
L 298.608003 262.395124 
L 293.376753 259.723674 
L 288.145503 258.070803 
L 282.914253 258.468967 
L 277.683003 258.957183 
L 272.451753 258.524367 
L 267.220503 256.825935 
L 261.989253 254.90272 
L 256.758003 253.654677 
L 251.526753 254.90272 
L 246.295503 256.825935 
L 241.064253 258.524367 
L 235.833003 258.957183 
L 230.601753 258.468967 
L 225.370503 258.070803 
L 220.139253 259.723674 
L 214.908003 262.395124 
L 209.676753 264.043203 
L 204.445503 264.398533 
L 199.214253 263.900092 
L 193.983003 264.041813 
L 188.751753 264.76773 
L 183.520503 265.098441 
L 178.289253 265.094346 
L 173.058003 264.811325 
L 167.826753 265.782626 
L 162.595503 266.5397 
L 157.364253 267.561834 
L 152.133003 267.026368 
L 146.901753 267.411808 
L 141.670503 267.853331 
L 136.439253 269.845403 
L 131.208003 271.97874 
L 125.976753 276.119375 
L 120.745503 280.853943 
L 115.514253 287.152824 
L 110.283003 294.209837 
L 105.051753 302.675035 
L 99.820503 309.614685 
L 94.589253 314.870903 
L 89.358003 317.297934 
z
" clip-path="url(#pa0d393f7cb)" style="fill: #ff7f0e; fill-opacity: 0.5; stroke: #ff7f0e; stroke-opacity: 0.5"/>
   </g>
   <g id="PolyCollection_12">
    <path d="M 89.358003 297.877627 
L 89.358003 300.961281 
L 94.589253 299.91641 
L 99.820503 285.093005 
L 105.051753 288.523732 
L 110.283003 273.180701 
L 115.514253 281.848153 
L 120.745503 271.096348 
L 125.976753 279.989584 
L 131.208003 272.490742 
L 136.439253 280.67218 
L 141.670503 270.721946 
L 146.901753 279.051213 
L 152.133003 267.619834 
L 157.364253 278.297193 
L 162.595503 272.017329 
L 167.826753 280.685907 
L 173.058003 270.437025 
L 178.289253 278.807824 
L 183.520503 269.929001 
L 188.751753 278.694281 
L 193.983003 269.137779 
L 199.214253 279.421708 
L 204.445503 269.025303 
L 209.676753 282.197304 
L 214.908003 273.527642 
L 220.139253 282.275863 
L 225.370503 267.226573 
L 230.601753 280.813182 
L 235.833003 271.878375 
L 241.064253 286.701369 
L 246.295503 278.568143 
L 251.526753 281.417158 
L 256.758003 266.305303 
L 261.989253 281.417158 
L 267.220503 278.568143 
L 272.451753 286.701369 
L 277.683003 271.878375 
L 282.914253 280.813182 
L 288.145503 267.226573 
L 293.376753 282.275863 
L 298.608003 273.527642 
L 303.839253 282.197304 
L 309.070503 269.025303 
L 314.301753 279.421708 
L 319.533003 269.137779 
L 324.764253 278.694281 
L 329.995503 269.929001 
L 335.226753 278.807824 
L 340.458003 270.437025 
L 345.689253 280.685907 
L 350.920503 272.017329 
L 356.151753 278.297193 
L 361.383003 267.619834 
L 366.614253 279.051213 
L 371.845503 270.721946 
L 377.076753 280.67218 
L 382.308003 272.490742 
L 387.539253 279.989584 
L 392.770503 271.096348 
L 398.001753 281.848153 
L 403.233003 273.180701 
L 408.464253 288.523732 
L 413.695503 285.093005 
L 418.926753 299.91641 
L 424.158003 300.961281 
L 424.158003 297.877627 
L 424.158003 297.877627 
L 418.926753 297.036468 
L 413.695503 279.996578 
L 408.464253 283.574508 
L 403.233003 269.023962 
L 398.001753 276.598032 
L 392.770503 264.815836 
L 387.539253 274.18915 
L 382.308003 266.664486 
L 377.076753 275.09644 
L 371.845503 264.191701 
L 366.614253 273.263978 
L 361.383003 261.205867 
L 356.151753 271.859784 
L 350.920503 264.915704 
L 345.689253 274.53208 
L 340.458003 262.103254 
L 335.226753 271.743916 
L 329.995503 263.362853 
L 324.764253 270.849135 
L 319.533003 262.373496 
L 314.301753 271.915898 
L 309.070503 262.111526 
L 303.839253 274.78409 
L 298.608003 266.17532 
L 293.376753 275.349544 
L 288.145503 260.401688 
L 282.914253 272.293656 
L 277.683003 264.424355 
L 272.451753 278.019981 
L 267.220503 269.865747 
L 261.989253 273.000271 
L 256.758003 254.953858 
L 251.526753 273.000271 
L 246.295503 269.865747 
L 241.064253 278.019981 
L 235.833003 264.424355 
L 230.601753 272.293656 
L 225.370503 260.401688 
L 220.139253 275.349544 
L 214.908003 266.17532 
L 209.676753 274.78409 
L 204.445503 262.111526 
L 199.214253 271.915898 
L 193.983003 262.373496 
L 188.751753 270.849135 
L 183.520503 263.362853 
L 178.289253 271.743916 
L 173.058003 262.103254 
L 167.826753 274.53208 
L 162.595503 264.915704 
L 157.364253 271.859784 
L 152.133003 261.205867 
L 146.901753 273.263978 
L 141.670503 264.191701 
L 136.439253 275.09644 
L 131.208003 266.664486 
L 125.976753 274.18915 
L 120.745503 264.815836 
L 115.514253 276.598032 
L 110.283003 269.023962 
L 105.051753 283.574508 
L 99.820503 279.996578 
L 94.589253 297.036468 
L 89.358003 297.877627 
z
" clip-path="url(#pa0d393f7cb)" style="fill: #2ca02c; fill-opacity: 0.5; stroke: #2ca02c; stroke-opacity: 0.5"/>
   </g>
   <g id="matplotlib.axis_5"/>
   <g id="matplotlib.axis_6"/>
   <g id="line2d_65">
    <path d="M 89.358003 318.401236 
L 94.589253 318.401235 
L 99.820503 318.401227 
L 105.051753 318.401155 
L 110.283003 318.400728 
L 115.514253 318.398709 
L 120.745503 318.3908 
L 125.976753 318.364473 
L 131.208003 318.288469 
L 136.439253 318.095313 
L 141.670503 317.658109 
L 146.901753 316.768463 
L 152.133003 315.128635 
L 157.364253 312.37351 
L 162.595503 308.132071 
L 167.826753 302.122762 
L 173.058003 294.257699 
L 178.289253 284.717739 
L 183.520503 273.963395 
L 188.751753 262.667571 
L 193.983003 251.586362 
L 199.214253 241.409137 
L 204.445503 232.636143 
L 209.676753 225.518218 
L 214.908003 220.066607 
L 220.139253 216.114913 
L 225.370503 213.401273 
L 230.601753 211.640734 
L 235.833003 210.57138 
L 241.064253 209.973986 
L 246.295503 209.675653 
L 251.526753 209.549424 
L 256.758003 209.516344 
L 261.989253 209.549424 
L 267.220503 209.675653 
L 272.451753 209.973986 
L 277.683003 210.57138 
L 282.914253 211.640734 
L 288.145503 213.401273 
L 293.376753 216.114913 
L 298.608003 220.066607 
L 303.839253 225.518218 
L 309.070503 232.636143 
L 314.301753 241.409137 
L 319.533003 251.586362 
L 324.764253 262.667571 
L 329.175993 272.19383 
" clip-path="url(#pa0d393f7cb)" style="fill: none; stroke: #1f77b4; stroke-width: 1.5; stroke-linecap: square"/>
   </g>
   <g id="line2d_66">
    <path d="M 89.358003 317.592046 
L 94.589253 315.441948 
L 99.820503 310.67545 
L 105.051753 304.03057 
L 110.283003 295.946105 
L 115.514253 288.935294 
L 120.745503 282.710893 
L 125.976753 278.730545 
L 131.208003 274.919237 
L 136.439253 272.445774 
L 141.670503 269.925215 
L 146.901753 269.51522 
L 152.133003 269.196484 
L 157.364253 269.724974 
L 162.595503 268.68506 
L 167.826753 268.011716 
L 173.058003 267.422881 
L 178.289253 268.153575 
L 183.520503 268.591757 
L 188.751753 268.615557 
L 193.983003 268.173004 
L 199.214253 268.102182 
L 204.445503 268.47798 
L 209.676753 267.987031 
L 214.908003 266.108738 
L 220.139253 263.174389 
L 225.370503 261.04771 
L 230.601753 260.623828 
L 235.833003 261.488159 
L 241.064253 262.293987 
L 246.295503 261.534957 
L 251.526753 260.270332 
L 256.758003 259.365406 
L 261.989253 260.270332 
L 267.220503 261.534957 
L 272.451753 262.293987 
L 277.683003 261.488159 
L 282.914253 260.623828 
L 288.145503 261.04771 
L 293.376753 263.174389 
L 298.608003 266.108738 
L 303.839253 267.987031 
L 309.070503 268.47798 
L 314.301753 268.102182 
L 319.533003 268.173004 
L 324.764253 268.615557 
L 329.175993 268.595485 
" clip-path="url(#pa0d393f7cb)" style="fill: none; stroke: #ff7f0e; stroke-width: 1.5; stroke-linecap: square"/>
   </g>
   <g id="line2d_67">
    <path d="M 89.358003 299.419454 
L 94.589253 298.476439 
L 99.820503 282.544791 
L 105.051753 286.04912 
L 110.283003 271.102332 
L 115.514253 279.223093 
L 120.745503 267.956092 
L 125.976753 277.089367 
L 131.208003 269.577614 
L 136.439253 277.88431 
L 141.670503 267.456824 
L 146.901753 276.157595 
L 152.133003 264.412851 
L 157.364253 275.078489 
L 162.595503 268.466516 
L 167.826753 277.608994 
L 173.058003 266.270139 
L 178.289253 275.27587 
L 183.520503 266.645927 
L 188.751753 274.771708 
L 193.983003 265.755638 
L 199.214253 275.668803 
L 204.445503 265.568414 
L 209.676753 278.490697 
L 214.908003 269.851481 
L 220.139253 278.812704 
L 225.370503 263.81413 
L 230.601753 276.553419 
L 235.833003 268.151365 
L 241.064253 282.360675 
L 246.295503 274.216945 
L 251.526753 277.208714 
L 256.758003 260.629581 
L 261.989253 277.208714 
L 267.220503 274.216945 
L 272.451753 282.360675 
L 277.683003 268.151365 
L 282.914253 276.553419 
L 288.145503 263.81413 
L 293.376753 278.812704 
L 298.608003 269.851481 
L 303.839253 278.490697 
L 309.070503 265.568414 
L 314.301753 275.668803 
L 319.533003 265.755638 
L 324.764253 274.771708 
L 329.175993 267.918884 
" clip-path="url(#pa0d393f7cb)" style="fill: none; stroke: #2ca02c; stroke-width: 1.5; stroke-linecap: square"/>
   </g>
   <g id="patch_16">
    <path d="M 193.983003 290.005139 
L 193.983003 204.816846 
" style="fill: none; stroke: #000000; stroke-width: 0.8; stroke-linejoin: miter; stroke-linecap: square"/>
   </g>
   <g id="patch_17">
    <path d="M 319.533003 290.005139 
L 319.533003 204.816846 
" style="fill: none; stroke: #000000; stroke-width: 0.8; stroke-linejoin: miter; stroke-linecap: square"/>
   </g>
   <g id="patch_18">
    <path d="M 193.983003 290.005139 
L 319.533003 290.005139 
" style="fill: none; stroke: #000000; stroke-width: 0.8; stroke-linejoin: miter; stroke-linecap: square"/>
   </g>
   <g id="patch_19">
    <path d="M 193.983003 204.816846 
L 319.533003 204.816846 
" style="fill: none; stroke: #000000; stroke-width: 0.8; stroke-linejoin: miter; stroke-linecap: square"/>
   </g>
  </g>
 </g>
 <defs>
  <clipPath id="p003c80fc75">
   <rect x="43.323003" y="4.15109" width="279" height="189.307317"/>
  </clipPath>
  <clipPath id="p1d839cb054">
   <rect x="43.323003" y="202.923773" width="279" height="189.307317"/>
  </clipPath>
  <clipPath id="pa0d393f7cb">
   <rect x="193.983003" y="204.816846" width="125.55" height="85.188293"/>
  </clipPath>
 </defs>
</svg>
